<svg xmlns="http://www.w3.org/2000/svg" xmlns:xlink="http://www.w3.org/1999/xlink" version="1.1" style="shape-rendering:geometricPrecision; text-rendering:geometricPrecision; image-rendering:optimizeQuality; fill-rule:evenodd; clip-rule:evenodd" viewBox="95.08 114.77 1808.56 1769.18">
<g><path style="opacity:1" fill="#012c60" d="M 955.5,115.5 C 1170,107.517 1364.33,165.35 1538.5,289C 1720.01,423.34 1835.84,601.174 1886,822.5C 1932.46,1065.21 1887.13,1288.88 1750,1493.5C 1609.57,1690.56 1420.4,1814.72 1182.5,1866C 981.756,1904.62 788.756,1880.95 603.5,1795C 392.693,1691.55 242.859,1531.72 154,1315.5C 86.7298,1138.28 77.0632,957.281 125,772.5C 188.178,554.063 314.678,382.896 504.5,259C 642.269,172.134 792.603,124.301 955.5,115.5 Z"/></g>
<g><path style="opacity:1" fill="#ea6c1f" d="M 956.5,175.5 C 1184.39,167.513 1385.06,236.346 1558.5,382C 1704.37,509.773 1795.2,669.607 1831,861.5C 1866.13,1087.27 1817.79,1292.94 1686,1478.5C 1567.67,1636.65 1412.84,1742.15 1221.5,1795C 1018.81,1846.7 822.481,1829.03 632.5,1742C 470.61,1664.11 345.443,1546.94 257,1390.5C 160.037,1209.42 133.37,1018.42 177,817.5C 224.972,623.271 328.139,465.771 486.5,345C 626.101,242.29 782.767,185.79 956.5,175.5 Z"/></g>
<g><path style="opacity:1" fill="#f3911e" d="M 999.5,943.5 C 944.5,943.5 889.5,943.5 834.5,943.5C 834.167,890.163 834.5,836.829 835.5,783.5C 870.436,770.966 905.436,758.633 940.5,746.5C 941.5,702.505 941.833,658.505 941.5,614.5C 914.167,613.833 886.833,613.167 859.5,612.5C 901.167,486.5 942.833,360.5 984.5,234.5C 985.404,233.791 985.737,232.791 985.5,231.5C 989.892,218.491 994.392,205.491 999,192.5C 999.5,442.833 999.667,693.166 999.5,943.5 Z"/></g>
<g><path style="opacity:0.949" fill="#493e4e" d="M 968.5,232.5 C 973.975,231.511 979.642,231.178 985.5,231.5C 985.737,232.791 985.404,233.791 984.5,234.5C 979.604,232.554 974.271,231.887 968.5,232.5 Z"/></g>
<g><path style="opacity:1" fill="#002c60" d="M 968.5,232.5 C 974.271,231.887 979.604,232.554 984.5,234.5C 942.833,360.5 901.167,486.5 859.5,612.5C 858.833,612.5 858.5,612.833 858.5,613.5C 757.5,613.5 656.5,613.5 555.5,613.5C 555.5,657.5 555.5,701.5 555.5,745.5C 456.5,745.5 357.5,745.5 258.5,745.5C 312.177,599.002 401.511,479.169 526.5,386C 657.955,290.454 805.288,239.287 968.5,232.5 Z"/></g>
<g><path style="opacity:1" fill="#002c60" d="M 1740.5,745.5 C 1641.83,745.5 1543.17,745.5 1444.5,745.5C 1444.5,701.5 1444.5,657.5 1444.5,613.5C 1343.17,613.5 1241.83,613.5 1140.5,613.5C 1140.5,612.833 1140.17,612.5 1139.5,612.5C 1097.7,485.773 1055.7,359.106 1013.5,232.5C 1218.36,237.485 1395.69,308.985 1545.5,447C 1633.93,530.995 1698.93,630.495 1740.5,745.5 Z"/></g>
<g><path style="opacity:0.784" fill="#fadec0" d="M 859.5,612.5 C 886.833,613.167 914.167,613.833 941.5,614.5C 941.167,614.5 940.833,614.5 940.5,614.5C 912.995,614.831 885.662,614.498 858.5,613.5C 858.5,612.833 858.833,612.5 859.5,612.5 Z"/></g>
<g><path style="opacity:0.784" fill="#f6d4bd" d="M 1139.5,612.5 C 1140.17,612.5 1140.5,612.833 1140.5,613.5C 1140.5,613.833 1140.5,614.167 1140.5,614.5C 1112.83,614.5 1085.17,614.5 1057.5,614.5C 1084.83,613.833 1112.17,613.167 1139.5,612.5 Z"/></g>
<g><path style="opacity:1" fill="#fefefe" d="M 858.5,613.5 C 885.662,614.498 912.995,614.831 940.5,614.5C 929.228,625.271 918.062,636.271 907,647.5C 906.833,672.507 906.333,697.507 905.5,722.5C 870.688,734.937 835.855,747.27 801,759.5C 800.333,831.833 800.333,904.167 801,976.5C 812.672,965.994 823.839,954.994 834.5,943.5C 889.5,943.5 944.5,943.5 999.5,943.5C 1054.5,943.5 1109.5,943.5 1164.5,943.5C 1164.5,890.167 1164.5,836.833 1164.5,783.5C 1175.59,775.442 1186.93,767.609 1198.5,760C 1163.31,747.213 1127.97,734.713 1092.5,722.5C 1080.99,730.422 1069.32,738.089 1057.5,745.5C 1057.5,701.833 1057.5,658.167 1057.5,614.5C 1085.17,614.5 1112.83,614.5 1140.5,614.5C 1241.17,614.333 1341.83,614.5 1442.5,615C 1431.67,625.833 1420.83,636.667 1410,647.5C 1409.83,672.507 1409.33,697.507 1408.5,722.5C 1373.4,734.645 1338.4,746.978 1303.5,759.5C 1302.17,938.334 1302.17,1117.33 1303.5,1296.5C 1304.11,1296.38 1304.44,1296.04 1304.5,1295.5C 1315.58,1287.75 1326.92,1280.41 1338.5,1273.5C 1373.24,1285.3 1407.91,1297.3 1442.5,1309.5C 1442.59,1310.5 1442.25,1311.33 1441.5,1312C 1431,1319.17 1420.5,1326.33 1410,1333.5C 1409.5,1358.5 1409.33,1383.5 1409.5,1408.5C 1303.5,1408.33 1197.5,1408.5 1091.5,1409C 1080.6,1420.4 1069.27,1431.24 1057.5,1441.5C 1057.5,1408.5 1057.5,1375.5 1057.5,1342.5C 1057.18,1331.59 1057.51,1320.75 1058.5,1310C 1093.71,1297.77 1128.71,1285.27 1163.5,1272.5C 1164.5,1219.34 1164.83,1166 1164.5,1112.5C 1175.53,1101.81 1186.53,1091.14 1197.5,1080.5C 1198.04,1080.44 1198.38,1080.11 1198.5,1079.5C 1065.67,1078.17 933.001,1078.17 800.5,1079.5C 800.333,1151.83 800.5,1224.17 801,1296.5C 812.128,1288.19 823.628,1280.53 835.5,1273.5C 870.5,1285.5 905.5,1297.5 940.5,1309.5C 930.084,1318.31 918.918,1326.31 907,1333.5C 906.5,1358.5 906.333,1383.5 906.5,1408.5C 800.499,1408.33 694.499,1408.5 588.5,1409C 577.632,1420.04 566.632,1430.87 555.5,1441.5C 555.5,1397.5 555.5,1353.5 555.5,1309.5C 590.759,1297.3 626.092,1285.3 661.5,1273.5C 661.5,1202.83 661.5,1132.17 661.5,1061.5C 661.5,1044.5 661.5,1027.5 661.5,1010.5C 661.5,934.833 661.5,859.167 661.5,783.5C 672.619,776.221 683.619,768.721 694.5,761C 695.833,760.333 695.833,759.667 694.5,759C 659.742,746.636 624.909,734.469 590,722.5C 578.357,729.981 566.857,737.648 555.5,745.5C 555.5,701.5 555.5,657.5 555.5,613.5C 656.5,613.5 757.5,613.5 858.5,613.5 Z"/></g>
<g><path style="opacity:0.999" fill="#c4ced2" d="M 940.5,614.5 C 940.833,614.5 941.167,614.5 941.5,614.5C 941.833,658.505 941.5,702.505 940.5,746.5C 905.436,758.633 870.436,770.966 835.5,783.5C 834.5,836.829 834.167,890.163 834.5,943.5C 823.839,954.994 812.672,965.994 801,976.5C 800.333,904.167 800.333,831.833 801,759.5C 835.855,747.27 870.688,734.937 905.5,722.5C 906.333,697.507 906.833,672.507 907,647.5C 918.062,636.271 929.228,625.271 940.5,614.5 Z"/></g>
<g><path style="opacity:1" fill="#c2ccd0" d="M 1140.5,614.5 C 1140.5,614.167 1140.5,613.833 1140.5,613.5C 1241.83,613.5 1343.17,613.5 1444.5,613.5C 1444.5,657.5 1444.5,701.5 1444.5,745.5C 1543.17,745.5 1641.83,745.5 1740.5,745.5C 1741.17,745.5 1741.5,745.833 1741.5,746.5C 1641.5,746.333 1541.5,746.5 1441.5,747C 1407.24,759.197 1372.91,771.197 1338.5,783C 1337.62,784.356 1337.29,785.856 1337.5,787.5C 1337.5,878.833 1337.5,970.167 1337.5,1061.5C 1337.17,1132.24 1337.5,1202.9 1338.5,1273.5C 1326.92,1280.41 1315.58,1287.75 1304.5,1295.5C 1303.5,1117 1303.17,938.334 1303.5,759.5C 1338.4,746.978 1373.4,734.645 1408.5,722.5C 1409.33,697.507 1409.83,672.507 1410,647.5C 1420.83,636.667 1431.67,625.833 1442.5,615C 1341.83,614.5 1241.17,614.333 1140.5,614.5 Z"/></g>
<g><path style="opacity:0.999" fill="#bfc6c8" d="M 661.5,783.5 C 626.802,771.434 592.135,759.267 557.5,747C 457.834,746.5 358.167,746.333 258.5,746.5C 258.5,746.167 258.5,745.833 258.5,745.5C 357.5,745.5 456.5,745.5 555.5,745.5C 566.857,737.648 578.357,729.981 590,722.5C 624.909,734.469 659.742,746.636 694.5,759C 695.833,759.667 695.833,760.333 694.5,761C 683.619,768.721 672.619,776.221 661.5,783.5 Z"/></g>
<g><path style="opacity:0.999" fill="#c4cdd2" d="M 1164.5,783.5 C 1128.61,771.204 1092.94,758.538 1057.5,745.5C 1069.32,738.089 1080.99,730.422 1092.5,722.5C 1127.97,734.713 1163.31,747.213 1198.5,760C 1186.93,767.609 1175.59,775.442 1164.5,783.5 Z"/></g>
<g><path style="opacity:1" fill="#f3901e" d="M 258.5,746.5 C 358.167,746.333 457.834,746.5 557.5,747C 592.135,759.267 626.802,771.434 661.5,783.5C 661.5,859.167 661.5,934.833 661.5,1010.5C 557.196,936.343 452.863,862.176 348.5,788C 305.906,774.135 263.239,760.469 220.5,747C 233.162,746.5 245.829,746.333 258.5,746.5 Z"/></g>
<g><path style="opacity:1" fill="#f3901e" d="M 1741.5,746.5 C 1753.84,746.333 1766.17,746.5 1778.5,747C 1736.89,760.486 1695.23,773.819 1653.5,787C 1548.17,787.5 1442.83,787.667 1337.5,787.5C 1337.29,785.856 1337.62,784.356 1338.5,783C 1372.91,771.197 1407.24,759.197 1441.5,747C 1541.5,746.5 1641.5,746.333 1741.5,746.5 Z"/></g>
<g><path style="opacity:0.788" fill="#d3dcdf" d="M 1303.5,759.5 C 1303.17,938.334 1303.5,1117 1304.5,1295.5C 1304.44,1296.04 1304.11,1296.38 1303.5,1296.5C 1302.17,1117.33 1302.17,938.334 1303.5,759.5 Z"/></g>
<g><path style="opacity:1" fill="#002c60" d="M 1415.5,1442.5 C 1425.17,1442.5 1434.83,1442.5 1444.5,1442.5C 1444.67,1398.5 1444.5,1354.5 1444,1310.5C 1443.62,1309.94 1443.12,1309.61 1442.5,1309.5C 1407.91,1297.3 1373.24,1285.3 1338.5,1273.5C 1337.5,1202.9 1337.17,1132.24 1337.5,1061.5C 1474.29,964.553 1610.95,867.386 1747.5,770C 1748.74,769.544 1749.58,770.044 1750,771.5C 1799.26,932.344 1796.59,1092.34 1742,1251.5C 1688.12,1398.68 1598.46,1519.01 1473,1612.5C 1453.54,1555.95 1434.37,1499.28 1415.5,1442.5 Z"/></g>
<g><path style="opacity:1" fill="#002c60" d="M 661.5,1061.5 C 661.5,1132.17 661.5,1202.83 661.5,1273.5C 626.092,1285.3 590.759,1297.3 555.5,1309.5C 555.5,1353.5 555.5,1397.5 555.5,1441.5C 564.652,1442.49 573.985,1442.83 583.5,1442.5C 564.876,1499.37 545.876,1556.04 526.5,1612.5C 375.566,1500.25 277.732,1352.25 233,1168.5C 203.304,1034.49 208.804,901.995 249.5,771C 249.85,769.743 250.517,769.409 251.5,770C 388.046,867.386 524.712,964.553 661.5,1061.5 Z"/></g>
<g><path style="opacity:0.831" fill="#e8ebed" d="M 800.5,1079.5 C 933.001,1078.17 1065.67,1078.17 1198.5,1079.5C 1198.38,1080.11 1198.04,1080.44 1197.5,1080.5C 1065.33,1079.5 933.001,1079.17 800.5,1079.5 Z"/></g>
<g><path style="opacity:1" fill="#c4cdd2" d="M 800.5,1079.5 C 933.001,1079.17 1065.33,1079.5 1197.5,1080.5C 1186.53,1091.14 1175.53,1101.81 1164.5,1112.5C 1054.67,1112.17 944.999,1112.5 835.5,1113.5C 835.5,1146.5 835.5,1179.5 835.5,1212.5C 835.5,1232.83 835.5,1253.17 835.5,1273.5C 823.628,1280.53 812.128,1288.19 801,1296.5C 800.5,1224.17 800.333,1151.83 800.5,1079.5 Z"/></g>
<g><path style="opacity:1" fill="#f3901e" d="M 835.5,1113.5 C 859.833,1113.5 884.167,1113.5 908.5,1113.5C 884.545,1146.79 860.212,1179.79 835.5,1212.5C 835.5,1179.5 835.5,1146.5 835.5,1113.5 Z"/></g>
<g><path style="opacity:1" fill="#ea6d1f" d="M 908.5,1113.5 C 993.5,1113.5 1078.5,1113.5 1163.5,1113.5C 1163.5,1166.5 1163.5,1219.5 1163.5,1272.5C 1128.71,1285.27 1093.71,1297.77 1058.5,1310C 1057.51,1320.75 1057.18,1331.59 1057.5,1342.5C 1038.18,1328.86 1018.85,1315.19 999.5,1301.5C 980.149,1315.19 960.815,1328.86 941.5,1342.5C 941.828,1331.32 941.495,1320.32 940.5,1309.5C 905.5,1297.5 870.5,1285.5 835.5,1273.5C 835.5,1253.17 835.5,1232.83 835.5,1212.5C 860.212,1179.79 884.545,1146.79 908.5,1113.5 Z"/></g>
<g><path style="opacity:0.831" fill="#e7a072" d="M 835.5,1113.5 C 944.999,1112.5 1054.67,1112.17 1164.5,1112.5C 1164.83,1166 1164.5,1219.34 1163.5,1272.5C 1163.5,1219.5 1163.5,1166.5 1163.5,1113.5C 1078.5,1113.5 993.5,1113.5 908.5,1113.5C 884.167,1113.5 859.833,1113.5 835.5,1113.5 Z"/></g>
<g><path style="opacity:1" fill="#002c60" d="M 1057.5,1342.5 C 1057.5,1375.5 1057.5,1408.5 1057.5,1441.5C 1104.33,1442.5 1151.33,1442.83 1198.5,1442.5C 1283.65,1503.47 1368.99,1564.3 1454.5,1625C 1355.31,1694.31 1245.65,1738.64 1125.5,1758C 923.925,1787.69 737.259,1748.36 565.5,1640C 558.324,1635.25 551.324,1630.25 544.5,1625C 630.076,1564.39 715.41,1503.56 800.5,1442.5C 847.5,1442.5 894.5,1442.5 941.5,1442.5C 941.5,1409.17 941.5,1375.83 941.5,1342.5C 960.815,1328.86 980.149,1315.19 999.5,1301.5C 1018.85,1315.19 1038.18,1328.86 1057.5,1342.5 Z"/></g>
<g><path style="opacity:0.998" fill="#c3cdd2" d="M 940.5,1309.5 C 941.495,1320.32 941.828,1331.32 941.5,1342.5C 941.5,1375.83 941.5,1409.17 941.5,1442.5C 894.5,1442.5 847.5,1442.5 800.5,1442.5C 755.5,1442.5 710.5,1442.5 665.5,1442.5C 638.167,1442.5 610.833,1442.5 583.5,1442.5C 573.985,1442.83 564.652,1442.49 555.5,1441.5C 566.632,1430.87 577.632,1420.04 588.5,1409C 694.499,1408.5 800.499,1408.33 906.5,1408.5C 906.333,1383.5 906.5,1358.5 907,1333.5C 918.918,1326.31 930.084,1318.31 940.5,1309.5 Z"/></g>
<g><path style="opacity:0.999" fill="#c3cdd2" d="M 1442.5,1309.5 C 1443.12,1309.61 1443.62,1309.94 1444,1310.5C 1444.5,1354.5 1444.67,1398.5 1444.5,1442.5C 1434.83,1442.5 1425.17,1442.5 1415.5,1442.5C 1343.17,1442.5 1270.83,1442.5 1198.5,1442.5C 1151.33,1442.83 1104.33,1442.5 1057.5,1441.5C 1069.27,1431.24 1080.6,1420.4 1091.5,1409C 1197.5,1408.5 1303.5,1408.33 1409.5,1408.5C 1409.33,1383.5 1409.5,1358.5 1410,1333.5C 1420.5,1326.33 1431,1319.17 1441.5,1312C 1442.25,1311.33 1442.59,1310.5 1442.5,1309.5 Z"/></g>
<g><path style="opacity:1" fill="#f3901e" d="M 583.5,1442.5 C 610.833,1442.5 638.167,1442.5 665.5,1442.5C 616.405,1510.55 566.739,1577.55 516.5,1643.5C 520.241,1633.28 523.574,1622.94 526.5,1612.5C 545.876,1556.04 564.876,1499.37 583.5,1442.5 Z"/></g>
</svg>