<svg xmlns="http://www.w3.org/2000/svg" xmlns:xlink="http://www.w3.org/1999/xlink" version="1.1" style="shape-rendering:geometricPrecision; text-rendering:geometricPrecision; image-rendering:optimizeQuality; fill-rule:evenodd; clip-rule:evenodd" viewBox="26 21.49 1389.41 1141.71">
<g><path style="opacity:0.997" fill="#003730" d="M 512.5,21.5 C 583.545,20.9274 638.045,50.2608 676,109.5C 691.327,136.134 703.16,164.3 711.5,194C 788.539,428.45 866.372,662.617 945,896.5C 951.312,912.308 960.478,926.141 972.5,938C 988.971,951.135 1007.3,954.468 1027.5,948C 1046.8,941.185 1064.47,931.518 1080.5,919C 1105.36,899.474 1128.36,877.807 1149.5,854C 1157.76,852.366 1165.76,853.366 1173.5,857C 1179.2,862.4 1180.03,868.566 1176,875.5C 1117.84,961.155 1060.17,1047.16 1003,1133.5C 976.856,1166 945.69,1171.83 909.5,1151C 890.594,1137.09 874.761,1120.26 862,1100.5C 851.144,1083.12 842.144,1064.79 835,1045.5C 802.525,948.575 770.358,851.575 738.5,754.5C 649.929,754.168 561.429,754.502 473,755.5C 449.096,825.547 425.429,895.547 402,965.5C 441.803,976.734 477.803,995.067 510,1020.5C 549.014,984.456 594.181,973.622 645.5,988C 647.305,988.972 648.972,990.139 650.5,991.5C 605.022,1047.48 559.356,1103.31 513.5,1159C 512.5,1159.67 511.5,1159.67 510.5,1159C 400.702,1081.78 280.369,1059.11 149.5,1091C 116.474,1099.35 85.4743,1112.35 56.5,1130C 44.7375,1137.43 34.5708,1146.6 26,1157.5C 51.3079,1051.19 117.141,985.025 223.5,959C 246.564,953.974 269.898,951.474 293.5,951.5C 339.692,814.757 386.192,678.09 433,541.5C 441.51,518.598 443.176,495.265 438,471.5C 430.258,449.424 415.425,434.258 393.5,426C 358.503,414.253 324.503,416.587 291.5,433C 288.333,435.5 285.167,438 282,440.5C 284.229,402.803 296.895,369.137 320,339.5C 355.073,302.926 397.24,291.093 446.5,304C 468.397,310.58 487.23,322.08 503,338.5C 511.272,314.685 518.939,290.685 526,266.5C 541.831,220.983 529.664,185.483 489.5,160C 457.966,140.359 425.299,138.359 391.5,154C 361.395,169.319 336.562,190.819 317,218.5C 326.009,173.488 344.009,132.488 371,95.5C 407.004,49.5804 454.171,24.9137 512.5,21.5 Z M 607.5,364.5 C 638.716,457.504 669.716,550.671 700.5,644C 638.168,644.5 575.834,644.667 513.5,644.5C 545.031,551.241 576.364,457.907 607.5,364.5 Z"/></g>
<g><path style="opacity:0.984" fill="#003730" d="M 900.5,276.5 C 928.833,276.5 957.167,276.5 985.5,276.5C 985.667,303.502 985.5,330.502 985,357.5C 966.833,381.667 948.667,405.833 930.5,430C 921.506,430.5 912.506,430.666 903.5,430.5C 911.406,408.185 919.739,386.019 928.5,364C 919.173,363.5 909.839,363.334 900.5,363.5C 900.5,334.5 900.5,305.5 900.5,276.5 Z"/></g>
<g><path style="opacity:0.995" fill="#003730" d="M 1226.5,286.5 C 1275.63,283.359 1319.96,296.193 1359.5,325C 1370.39,334.055 1380.06,344.221 1388.5,355.5C 1370.83,373.833 1352.83,391.833 1334.5,409.5C 1313.18,384.338 1285.84,370.504 1252.5,368C 1232.71,365.757 1214.37,369.757 1197.5,380C 1185.04,391.644 1180.88,405.811 1185,422.5C 1188.29,429.924 1193.12,436.091 1199.5,441C 1211.82,449.161 1225.16,455.161 1239.5,459C 1263.51,465.002 1287.51,471.002 1311.5,477C 1350.51,492.022 1381.01,517.189 1403,552.5C 1420.79,587.581 1419.46,621.914 1399,655.5C 1351.56,725.879 1286.72,749.379 1204.5,726C 1155.26,711.237 1112.93,685.571 1077.5,649C 1093.33,627.833 1109.17,606.667 1125,585.5C 1158.54,616.359 1197.71,636.859 1242.5,647C 1258.37,650.738 1274.04,650.072 1289.5,645C 1309.42,635.649 1317.59,620.149 1314,598.5C 1307.11,585.947 1297.28,576.447 1284.5,570C 1278.95,567.06 1273.29,564.394 1267.5,562C 1244.27,554.359 1220.94,547.026 1197.5,540C 1170.94,530.891 1146.61,517.891 1124.5,501C 1085.61,468.898 1075.77,429.398 1095,382.5C 1119.8,324.51 1163.63,292.51 1226.5,286.5 Z"/></g>
<g><path style="opacity:0.973" fill="#003830" d="M 1094.5,1093.5 C 1109.5,1093.5 1124.5,1093.5 1139.5,1093.5C 1139.5,1096.83 1139.5,1100.17 1139.5,1103.5C 1134.17,1103.5 1128.83,1103.5 1123.5,1103.5C 1123.5,1118.5 1123.5,1133.5 1123.5,1148.5C 1119.17,1148.5 1114.83,1148.5 1110.5,1148.5C 1110.5,1133.5 1110.5,1118.5 1110.5,1103.5C 1105.17,1103.5 1099.83,1103.5 1094.5,1103.5C 1094.5,1100.17 1094.5,1096.83 1094.5,1093.5 Z"/></g>
<g><path style="opacity:0.974" fill="#003730" d="M 1147.5,1093.5 C 1154.84,1093.33 1162.17,1093.5 1169.5,1094C 1173.33,1104.82 1177.16,1115.65 1181,1126.5C 1185.33,1115.83 1189.67,1105.17 1194,1094.5C 1200.41,1093.52 1206.91,1093.19 1213.5,1093.5C 1213.5,1111.83 1213.5,1130.17 1213.5,1148.5C 1209.5,1148.5 1205.5,1148.5 1201.5,1148.5C 1201.67,1134.83 1201.5,1121.16 1201,1107.5C 1195.86,1121.09 1191.03,1134.76 1186.5,1148.5C 1182.77,1148.82 1179.11,1148.49 1175.5,1147.5C 1170.67,1134.5 1165.83,1121.5 1161,1108.5C 1160.5,1121.83 1160.33,1135.16 1160.5,1148.5C 1156.17,1148.5 1151.83,1148.5 1147.5,1148.5C 1147.5,1130.17 1147.5,1111.83 1147.5,1093.5 Z"/></g>
</svg>