<svg xmlns="http://www.w3.org/2000/svg" version="1.1" viewBox="244.06 565.77 1902.88 1511.46">
<path d="M0 0 C6.9556026 5.06914133 11.64109053 11.15223226 13.1953125 19.72265625 C14.29684746 30.84660789 13.51796111 41.5669066 11.47265625 52.5234375 C12.82931396 52.05164063 12.82931396 52.05164063 14.21337891 51.5703125 C23.32415393 48.44301958 32.48757472 45.81581932 41.84765625 43.5234375 C42.53087952 43.35457031 43.21410278 43.18570313 43.91802979 43.01171875 C53.35876452 40.68265942 62.82299552 38.48554954 72.34765625 36.5234375 C73.33169434 36.31589844 74.31573242 36.10835937 75.32958984 35.89453125 C86.15979141 33.75134658 97.14833096 33.23104222 106.9921875 39 C114.28834169 44.29969409 118.60845798 50.39319532 120.19140625 59.3125 C121.5037429 69.6289242 119.55091209 78.15254082 113.34765625 86.5859375 C109.62533635 91.26146088 105.68776059 95.71452657 101.64453125 100.11328125 C98.85134731 103.21291163 96.26321732 106.44459704 93.68359375 109.72265625 C92.05833759 111.78150548 90.41957723 113.82323652 88.76171875 115.85546875 C78.66570787 128.2698104 69.2752519 141.16088576 60.47265625 154.5234375 C61.43042969 154.31847656 62.38820313 154.11351562 63.375 153.90234375 C96.07510896 147.16215111 96.07510896 147.16215111 109.9765625 156.140625 C117.67394127 162.51966818 120.94367881 169.74303635 122.47265625 179.5234375 C122.55746661 182.66640976 122.18529713 185.46687623 121.47265625 188.5234375 C121.22515625 189.63138672 121.22515625 189.63138672 120.97265625 190.76171875 C119.06148819 197.67775817 114.99028042 202.78313043 110.12670898 207.95458984 C105.45155198 213.07328542 102.32507726 218.75847165 99.16015625 224.8984375 C98.59474121 225.99333496 98.02932617 227.08823242 97.44677734 228.21630859 C91.70649283 239.6170383 87.32944867 251.37124733 83.47265625 263.5234375 C83.22343414 264.3058783 82.97421204 265.08831909 82.71743774 265.89447021 C77.85173982 281.25720668 73.75386605 296.75244122 69.91015625 312.3984375 C69.36707017 314.58737207 68.82345107 316.77617446 68.27929688 318.96484375 C64.59910421 333.79895294 61.01959396 348.6569658 57.47265625 363.5234375 C59.01518066 362.87846313 59.01518066 362.87846313 60.58886719 362.22045898 C74.59400579 356.40254902 86.33038316 352.31918372 101.30859375 357.19140625 C108.00939751 360.01236191 113.17759635 365.05535696 116.47265625 371.5234375 C118.95883692 379.18665308 119.85103579 385.82079483 118.94921875 393.79296875 C118.85049469 394.82299515 118.75177063 395.85302155 118.65005493 396.91426086 C118.34737538 400.03918227 118.02543298 403.16167115 117.70082092 406.28437042 C117.26362459 410.57474505 116.86047898 414.86842081 116.45214844 419.16162109 C115.67801676 427.27092028 114.89319651 435.37910094 114.09765625 443.48632812 C113.99552197 444.52718 113.89338768 445.56803188 113.78815842 446.64042473 C113.36864072 450.91279718 112.94861801 455.18511969 112.52813721 459.45739746 C111.90429066 465.7962493 111.28269275 472.13531271 110.66441727 478.47471046 C110.37638628 481.41856334 110.0850119 484.36207306 109.79354858 487.30558777 C109.61788248 489.10434239 109.44238686 490.90311367 109.26708984 492.7019043 C109.18607529 493.5106752 109.10506073 494.31944611 109.02159119 495.15272522 C108.6217242 499.29558491 108.38812658 503.3547533 108.47265625 507.5234375 C109.10171875 506.88277344 109.73078125 506.24210937 110.37890625 505.58203125 C111.23484375 504.71707031 112.09078125 503.85210938 112.97265625 502.9609375 C113.80796875 502.11402344 114.64328125 501.26710938 115.50390625 500.39453125 C117.59681741 498.32319279 119.77200786 496.3985423 122.015625 494.4921875 C125.70182957 491.29860734 129.13629179 487.90726836 132.5546875 484.43359375 C133.09894379 483.88146713 133.64320007 483.32934052 134.20394897 482.76048279 C136.46579912 480.46230654 138.72488572 478.16159785 140.97387695 475.85083008 C162.47128746 453.79747898 162.47128746 453.79747898 178.47265625 453.1484375 C187.94955635 453.51920824 195.85780976 456.60365128 202.47265625 463.5234375 C207.49374371 469.95472097 210.50383328 476.86290028 213.34765625 484.4609375 C213.74984375 485.50056641 214.15203125 486.54019531 214.56640625 487.61132812 C217.47265625 495.20810746 217.47265625 495.20810746 217.47265625 497.5234375 C218.65255127 497.31251465 219.83244629 497.1015918 221.0480957 496.88427734 C231.79989009 494.96336344 242.55333701 493.0520395 253.30854797 491.15034485 C259.03524115 490.13663993 264.75974431 489.11200968 270.48176575 488.07226562 C273.67138166 487.49453449 276.86260181 486.92607851 280.05429077 486.35992432 C281.52918268 486.0961422 283.00334883 485.82826594 284.47671509 485.55609131 C298.36032478 482.9952362 298.36032478 482.9952362 305.47265625 484.5234375 C306.35953125 484.69101563 307.24640625 484.85859375 308.16015625 485.03125 C315.98138007 487.11867122 320.58020301 491.16193779 325.78515625 497.2109375 C329.77587695 505.04457444 330.74007636 512.38710157 330.23828125 521.125 C330.1917189 522.00903 330.14515656 522.89306 330.09718323 523.80387878 C329.24810614 538.66977452 327.88933721 553.50708987 326.62261963 568.34185791 C326.26447869 572.54602719 325.91077054 576.75056943 325.55664062 580.95507812 C324.86621001 589.14489332 324.17102915 597.33429575 323.47265625 605.5234375 C324.85457153 605.74169189 324.85457153 605.74169189 326.2644043 605.96435547 C337.7180675 607.96031382 347.88764345 612.6664972 355.34765625 621.7109375 C359.59637406 628.27579661 361.30101599 636.69932648 359.97265625 644.37890625 C359.80765625 645.08660156 359.64265625 645.79429687 359.47265625 646.5234375 C359.30765625 647.26207031 359.14265625 648.00070312 358.97265625 648.76171875 C356.20507514 658.77690288 349.30549039 664.96827407 341.36328125 671.20703125 C338.45143256 673.54044513 335.71243258 675.99110137 332.97265625 678.5234375 C328.52538513 682.61694841 323.92548162 686.44786249 319.22265625 690.2421875 C316.39166047 692.59062718 313.67882027 695.03253652 310.97265625 697.5234375 C306.50280505 701.63722659 301.88220732 705.49431047 297.15625 709.30859375 C294.52557068 711.47976577 291.99323201 713.72585107 289.47265625 716.0234375 C286.07666943 719.11898946 282.61094094 722.07494957 279.03515625 724.9609375 C274.26125325 728.82168887 269.73877197 732.89780825 265.22265625 737.0546875 C261.66081396 740.25225046 257.94699792 743.23732093 254.22265625 746.2421875 C251.39166047 748.59062718 248.67882027 751.03253652 245.97265625 753.5234375 C241.52538513 757.61694841 236.92548162 761.44786249 232.22265625 765.2421875 C229.39166047 767.59062718 226.67882027 770.03253652 223.97265625 772.5234375 C219.52538513 776.61694841 214.92548162 780.44786249 210.22265625 784.2421875 C207.39166047 786.59062718 204.67882027 789.03253652 201.97265625 791.5234375 C197.50280505 795.63722659 192.88220732 799.49431047 188.15625 803.30859375 C185.52557068 805.47976577 182.99323201 807.72585107 180.47265625 810.0234375 C176.11778553 813.99059318 171.6128521 817.73112694 167.03515625 821.4375 C163.79526539 824.07485018 160.62947826 826.78752509 157.47265625 829.5234375 C160.26297856 833.36955744 163.09320249 837.11996799 166.21484375 840.703125 C166.94127075 841.54000854 166.94127075 841.54000854 167.68237305 842.39379883 C168.64771674 843.49916759 169.62026994 844.59829253 170.60083008 845.69018555 C176.66476899 852.64654109 179.72546176 861.21452171 179.28515625 870.4609375 C179.04239211 871.82041668 178.76956903 873.17474893 178.47265625 874.5234375 C178.24449219 875.71453125 178.24449219 875.71453125 178.01171875 876.9296875 C176.17275068 884.66768303 172.03721221 890.35161023 165.48828125 894.90234375 C158.27334289 898.81284034 150.44891414 899.9291265 142.34277344 899.30273438 C141.5439613 899.25090752 140.74514915 899.19908066 139.92213058 899.14568329 C137.10412903 898.95554172 134.2886379 898.74143266 131.47265625 898.5234375 C129.83829369 898.39988388 129.83829369 898.39988388 128.1709137 898.27383423 C119.6838841 897.62739919 111.20076616 896.9357071 102.71819401 896.23375511 C99.03548031 895.92949615 95.35253064 895.62811749 91.6696167 895.32629395 C85.50386688 894.82055093 79.33830339 894.31258474 73.17285156 893.80322266 C66.06157766 893.21574728 58.95002115 892.63179296 51.83830571 892.04968882 C44.95515956 891.48621814 38.07221217 890.92035438 31.18935394 890.3533783 C28.27572508 890.1134049 25.36203105 889.87424666 22.44828033 889.63575745 C18.38751532 889.3032505 14.32704798 888.96723463 10.26660156 888.63085938 C8.4696283 888.48432167 8.4696283 888.48432167 6.63635254 888.33482361 C1.21639482 887.88309488 -4.15565171 887.38037312 -9.52734375 886.5234375 C-9.79417969 887.40128906 -10.06101562 888.27914062 -10.3359375 889.18359375 C-13.53823247 898.16051899 -19.13545656 905.8479575 -27.52734375 910.5234375 C-37.86992795 914.58763608 -47.10445442 914.1324326 -57.52734375 910.5234375 C-65.75985375 906.68064 -70.30191635 898.1976273 -74.52734375 890.5234375 C-74.85734375 889.2034375 -75.18734375 887.8834375 -75.52734375 886.5234375 C-78.49734375 887.1834375 -81.46734375 887.8434375 -84.52734375 888.5234375 C-84.66269531 889.21308594 -84.79804687 889.90273437 -84.9375 890.61328125 C-88.28671782 905.23351951 -99.12696801 912.8007572 -110.28515625 921.73046875 C-116.46280839 926.70025159 -122.29839927 931.93672336 -128.05029297 937.38793945 C-131.07929346 940.25641688 -134.13442074 943.07364214 -137.28881836 945.80419922 C-151.99573539 958.64215553 -165.72383273 972.55924244 -179.50585938 986.37158203 C-182.15014236 989.02162845 -184.79898507 991.66706514 -187.44911385 994.31126404 C-189.52545016 996.38396726 -191.59937534 998.45906995 -193.67260361 1000.53488159 C-194.64853822 1001.51147441 -195.62519137 1002.48734981 -196.60263443 1003.46243286 C-201.62553318 1008.47583178 -206.53758894 1013.52418062 -211.14694214 1018.92285156 C-212.845877 1020.89277917 -214.65648379 1022.71708995 -216.52734375 1024.5234375 C-219.67312711 1027.62719704 -222.60028391 1030.84220048 -225.48046875 1034.19140625 C-228.10901757 1037.18614603 -230.816814 1040.10299579 -233.52734375 1043.0234375 C-238.9116976 1048.83590511 -244.1545478 1054.74496604 -249.30078125 1060.76953125 C-250.33456915 1061.9792233 -251.36842522 1063.1888571 -252.40234375 1064.3984375 C-252.92223877 1065.00719727 -253.44213379 1065.61595703 -253.9777832 1066.24316406 C-257.00666092 1069.78024909 -260.07906118 1073.26761758 -263.21484375 1076.7109375 C-267.00924002 1080.89362926 -270.59158198 1085.21689552 -274.14453125 1089.60546875 C-276.73490577 1092.7776159 -279.37431742 1095.90374311 -282.02734375 1099.0234375 C-286.93211688 1104.7997199 -291.74792138 1110.64283621 -296.52734375 1116.5234375 C-297.55964369 1117.78536255 -298.59221335 1119.047067 -299.625 1120.30859375 C-305.49099429 1127.48488252 -311.26848189 1134.70868137 -316.890625 1142.078125 C-319.37045795 1145.3280865 -321.88246212 1148.55230366 -324.39770508 1151.77490234 C-335.9399939 1166.56611982 -347.441698 1181.38373421 -358.24951172 1196.72314453 C-360.19091528 1199.45832027 -362.16421061 1202.17013097 -364.13452148 1204.88452148 C-369.36816193 1212.09681868 -374.54203223 1219.3481947 -379.65234375 1226.6484375 C-380.4397998 1227.77306396 -380.4397998 1227.77306396 -381.24316406 1228.92041016 C-391.06549749 1242.99031991 -400.70070274 1257.18106961 -410.21484375 1271.4609375 C-411.06582138 1272.73760788 -411.06582138 1272.73760788 -411.93399048 1274.04006958 C-421.29922392 1288.09819099 -430.51973379 1302.23294592 -439.52734375 1316.5234375 C-440.73827108 1318.43229812 -441.94920865 1320.34115224 -443.16015625 1322.25 C-452.39600306 1336.86564155 -461.24019281 1351.70331027 -470.02290344 1366.59356689 C-472.58963895 1370.94333656 -475.17172857 1375.28356783 -477.765625 1379.6171875 C-490.55262771 1401.00999709 -502.56533123 1422.8026866 -514.3984375 1444.734375 C-517.99820285 1451.40409926 -521.63483611 1458.05356096 -525.27880859 1464.69921875 C-527.9859912 1469.64928905 -530.62561022 1474.62638129 -533.20605469 1479.64355469 C-538.85463727 1490.56609378 -544.55627659 1500.56180429 -556.5625 1505.33203125 C-565.03891521 1507.77553066 -573.45703229 1506.97841736 -581.52734375 1503.5234375 C-592.08603919 1497.50329321 -596.381906 1488.36802712 -600.08984375 1477.2109375 C-600.73784134 1475.33495974 -601.38592411 1473.45900932 -602.03720093 1471.58416748 C-602.49562086 1470.26377521 -602.95248345 1468.94284133 -603.40786743 1467.62139893 C-618.50207817 1423.87425209 -635.96030008 1380.89576212 -654.52734375 1338.5234375 C-655.1079988 1337.19486296 -655.68857028 1335.86625189 -656.26904297 1334.53759766 C-676.92262155 1287.35556068 -698.98313547 1240.25530117 -724.03808594 1195.22851562 C-726.27489073 1191.16559806 -728.44696413 1187.06868401 -730.62744141 1182.9753418 C-737.3589507 1170.35769708 -744.38972325 1157.94993324 -751.67822266 1145.64648438 C-753.62770575 1142.35393253 -755.56813789 1139.05615104 -757.5078125 1135.7578125 C-773.11997796 1109.24155526 -789.24180579 1082.98776758 -806.52734375 1057.5234375 C-807.02057129 1056.79592285 -807.51379883 1056.0684082 -808.02197266 1055.31884766 C-824.16656883 1031.53648191 -840.93582826 1008.25873694 -858.52734375 985.5234375 C-859.00800293 984.90098145 -859.48866211 984.27852539 -859.98388672 983.63720703 C-865.78718957 976.13518108 -871.75795431 968.80921984 -877.91796875 961.59765625 C-880.2900341 958.81610662 -882.60227087 955.98995089 -884.90234375 953.1484375 C-894.44442609 941.45387832 -904.51051236 930.2839972 -914.86035156 919.30371094 C-916.93190075 917.09138864 -918.97325481 914.85263223 -921.0144043 912.61230469 C-930.02792021 902.73855253 -939.29362731 892.88225657 -949.51953125 884.25 C-951.65688835 882.41203922 -953.72387648 880.50574559 -955.7890625 878.58740234 C-961.83927109 872.9734336 -968.05110341 867.6459347 -974.52734375 862.5234375 C-975.0569873 862.09466309 -975.58663086 861.66588867 -976.13232422 861.22412109 C-986.35510925 852.96443895 -997.16031775 845.61518158 -1008.08984375 838.3359375 C-1008.78168762 837.87466461 -1009.47353149 837.41339172 -1010.18634033 836.93814087 C-1037.03486625 819.06945238 -1064.41788794 802.74268901 -1094.71484375 791.3359375 C-1095.6783374 790.96855469 -1096.64183105 790.60117188 -1097.63452148 790.22265625 C-1118.23730779 782.70264747 -1139.5036755 777.59921313 -1161.02163696 773.53564453 C-1167.53797376 772.30107335 -1174.0445413 771.0169873 -1180.55078125 769.73046875 C-1181.21565111 769.59925251 -1181.88052097 769.46803627 -1182.56553841 769.33284378 C-1269.03233593 752.23886624 -1355.6141447 729.30868585 -1437.52734375 696.5234375 C-1438.20097961 696.25484924 -1438.87461548 695.98626099 -1439.56866455 695.70953369 C-1520.64947305 663.34024355 -1520.64947305 663.34024355 -1538.52734375 636.5234375 C-1540.84946599 629.12034137 -1541.81328301 622.0774556 -1541.55078125 614.34375 C-1541.52865145 611.68079736 -1541.83662936 609.32929943 -1542.27734375 606.7109375 C-1543.25025292 597.69337641 -1540.33399613 588.21734729 -1534.83984375 581.0859375 C-1533.44019249 579.53020082 -1532.00311756 578.00715982 -1530.52734375 576.5234375 C-1529.88152344 575.8634375 -1529.23570312 575.2034375 -1528.5703125 574.5234375 C-1466.15042804 515.32599449 -1350.77974021 500.50343835 -1246.57104492 478.58963013 C-1244.29930232 478.13032946 -1242.02813597 477.66816894 -1239.75756836 477.20309448 C-1227.87646304 474.77396637 -1216.01206529 472.52633306 -1204.00164795 470.83120728 C-1198.88318327 470.10799569 -1193.77333853 469.33074238 -1188.66253662 468.55548096 C-1186.23517726 468.20621975 -1183.80329959 467.88679568 -1181.36773682 467.60028076 C-1166.78264714 466.13051462 -1166.78264714 466.13051462 -1155.0402832 458.17382812 C-1151.95288445 454.23515252 -1149.37210457 450.07963609 -1146.8888092 445.74147034 C-1143.58620344 440.36102679 -1138.91620911 436.01664438 -1134.52734375 431.5234375 C-1133.67011719 430.60433594 -1132.81289062 429.68523437 -1131.9296875 428.73828125 C-1121.050427 417.34630155 -1108.35744195 408.92759983 -1094.52734375 401.5234375 C-1093.22023438 400.78287109 -1093.22023438 400.78287109 -1091.88671875 400.02734375 C-1083.0773335 395.2390166 -1073.48159214 392.37644275 -1063.52734375 394.5234375 C-1063.15609375 393.71712891 -1063.15609375 393.71712891 -1062.77734375 392.89453125 C-1053.45070767 375.20306844 -1038.48504346 358.01140272 -1024.1875 344.18359375 C-1022.30888858 342.3606587 -1022.30888858 342.3606587 -1020.02734375 339.4609375 C-1017.47188568 336.45827426 -1014.78305706 334.02090636 -1011.78515625 331.4765625 C-1010.24860751 330.14736809 -1008.74390135 328.7806582 -1007.26953125 327.3828125 C-989.25851883 310.3316346 -968.01350933 296.74716241 -946.52734375 284.5234375 C-945.9358252 284.18103027 -945.34430664 283.83862305 -944.73486328 283.48583984 C-900.44083392 257.95551796 -848.72954553 247.37555069 -798.8125 239.3828125 C-797.04054543 239.09787084 -797.04054543 239.09787084 -795.23279381 238.80717278 C-763.26997877 233.69027971 -731.18335587 229.47231903 -699.09686279 225.21710205 C-684.95382981 223.34122456 -670.81245131 221.45289368 -656.671875 219.55859375 C-655.9012707 219.45540659 -655.1306664 219.35221944 -654.33671045 219.2459054 C-631.09257595 216.13226299 -607.86547505 212.91180032 -584.65540099 209.55336833 C-582.53608469 209.2468889 -580.41663623 208.94133865 -578.29715919 208.63597298 C-481.41871833 194.66131777 -384.57644479 177.17753008 -219.52734375 121.5234375 C-218.4177832 121.0682373 -217.30822266 120.61303711 -216.16503906 120.14404297 C-168.89057157 100.66176528 -122.1353447 77.18983004 -82.52734375 44.5234375 C-81.67398437 43.8428125 -80.820625 43.1621875 -79.94140625 42.4609375 C-69.74392425 34.27957659 -60.29191624 25.36157416 -51.02734375 16.1484375 C-50.45201904 15.57778564 -49.87669434 15.00713379 -49.28393555 14.41918945 C-46.66869395 11.79396455 -44.16518585 9.1449989 -41.81640625 6.27734375 C-31.67876065 -5.91897049 -13.50000662 -7.88717543 0 0 Z " fill="#FEFEFE" transform="translate(1786.52734375,570.4765625)"/>
<path d="M0 0 C0.66 0 1.32 0 2 0 C0.32453645 27.24360173 -3.86336512 54.5238557 -14 80 C-13.20722656 79.55011719 -12.41445312 79.10023438 -11.59765625 78.63671875 C25.43364183 58.04862593 67.03820721 44.58698091 109 39 C107.33560693 42.99647871 104.5776526 45.98094922 101.75 49.1875 C100.66015833 50.44288302 99.57167328 51.69944474 98.484375 52.95703125 C97.91396484 53.61654785 97.34355469 54.27606445 96.75585938 54.95556641 C87.58977508 65.62809003 78.83146728 76.58838638 70.51513672 87.93457031 C69.48396682 89.34025793 68.44898279 90.74315378 67.41064453 92.14355469 C44.58327346 122.93204856 25.93003972 156.29024661 12 192 C12.33 192.33 12.66 192.66 13 193 C13.83917969 192.41734375 14.67835937 191.8346875 15.54296875 191.234375 C36.02685427 177.19309556 57.65206806 164.77385086 82 159 C82.89332031 158.78730469 83.78664063 158.57460938 84.70703125 158.35546875 C93.03522735 156.61990764 101.52393114 156.37759744 110 156 C109.6596875 156.44988281 109.319375 156.89976562 108.96875 157.36328125 C107.92094395 158.75385364 106.87710228 160.14741689 105.8359375 161.54296875 C104.59950421 163.1976848 103.35451443 164.84603768 102.1015625 166.48828125 C71.26436514 207.62485876 62.07826457 264.11299866 51.07891846 313.1834259 C49.63601181 319.54389739 47.96596836 325.78083189 46 332 C42.38052396 328.75551472 40.1116539 325.06303941 37.75 320.875 C33.44157888 313.39705238 28.97646149 306.02764915 24.4375 298.6875 C18.68744308 289.37895858 12.98025681 280.04633998 7.3125 270.6875 C1.7311945 261.47285236 -3.8916629 252.28575754 -9.5859375 243.14038086 C-12.00390278 239.25099713 -14.39848618 235.35181085 -16.73046875 231.41015625 C-17.14876953 230.7035083 -17.56707031 229.99686035 -17.99804688 229.26879883 C-18.76593456 227.96550176 -19.52929569 226.65952214 -20.28710938 225.3503418 C-22.07990354 222.11592413 -22.07990354 222.11592413 -25 220 C-25.27440918 220.73001221 -25.54881836 221.46002441 -25.83154297 222.2121582 C-26.94067278 224.85845016 -28.19537529 227.16392978 -29.6953125 229.60546875 C-30.23776611 230.49258545 -30.78021973 231.37970215 -31.33911133 232.29370117 C-31.92845459 233.24865479 -32.51779785 234.2036084 -33.125 235.1875 C-33.74463623 236.19852783 -34.36427246 237.20955566 -35.00268555 238.2512207 C-36.99749743 241.50347429 -38.99807458 244.752121 -41 248 C-42.2956253 250.10413441 -43.59119861 252.20830084 -44.88671875 254.3125 C-46.86408607 257.52374453 -48.84168035 260.73484711 -50.8203125 263.9453125 C-57.58157558 274.92425409 -64.26872328 285.94764726 -70.9520874 296.97409058 C-74.91866996 303.51746746 -78.89706844 310.0536396 -82.87866211 316.58789062 C-85.88411754 321.52072453 -88.88364353 326.45703839 -91.875 331.3984375 C-92.51284424 332.4505542 -93.15068848 333.5026709 -93.80786133 334.58666992 C-95.03073715 336.60404176 -96.25201482 338.62238352 -97.47143555 340.6418457 C-98.020979 341.54765381 -98.57052246 342.45346191 -99.13671875 343.38671875 C-99.61842529 344.18295654 -100.10013184 344.97919434 -100.59643555 345.79956055 C-101.96938046 347.95199618 -103.44069353 349.97961603 -105 352 C-110.0950216 351.27585429 -114.64646008 349.27065907 -119.3828125 347.3515625 C-120.30277512 346.98270935 -121.22273773 346.6138562 -122.170578 346.23382568 C-125.15709778 345.03509504 -128.14107421 343.83017147 -131.125 342.625 C-133.16678492 341.80388612 -135.20869608 340.98308608 -137.25073242 340.16259766 C-152.18652833 334.15631244 -167.10717011 328.11209817 -182 322 C-182.22417403 330.43765843 -181.35741424 338.73766859 -180.51538086 347.12060547 C-180.35573176 348.74262188 -180.1964867 350.3646781 -180.03761292 351.98677063 C-179.69628537 355.46382736 -179.3523133 358.94060847 -179.00629997 362.417202 C-178.45956412 367.91265432 -177.91994864 373.40879163 -177.38148499 378.90505981 C-176.04387098 392.54766509 -174.69802396 406.18945655 -173.34832764 419.83087158 C-172.2975663 430.45122423 -171.24951799 441.07182709 -170.21043879 451.69332993 C-169.67534404 457.15987258 -169.13432058 462.62578624 -168.58887661 468.09130549 C-168.25165822 471.48350646 -167.91973743 474.87621014 -167.58931541 478.26907921 C-167.434733 479.84513063 -167.27793812 481.42096681 -167.11880112 482.99656487 C-166.9023742 485.14243521 -166.69378402 487.28892673 -166.48716736 489.4357605 C-166.30880042 491.23922849 -166.30880042 491.23922849 -166.1268301 493.07913017 C-166 496 -166 496 -167 499 C-168.16015625 497.82244141 -168.16015625 497.82244141 -169.34375 496.62109375 C-170.39569384 495.55975756 -171.4477852 494.49856757 -172.5 493.4375 C-173.0053125 492.92380859 -173.510625 492.41011719 -174.03125 491.88085938 C-176.76375884 489.13127235 -179.54287816 486.51078962 -182.5 484.00390625 C-189.88127518 477.61945639 -196.58583723 470.46595571 -203.44580078 463.53369141 C-211.48113647 455.28457888 -211.48113647 455.28457888 -219.9765625 447.5234375 C-226.67879455 441.8429091 -232.69973413 435.36386596 -238.875 429.125 C-241.4945367 426.47891394 -244.11734671 423.83613587 -246.7421875 421.1953125 C-247.34110809 420.58809357 -247.94002869 419.98087463 -248.55709839 419.35525513 C-251.49131176 416.30184656 -251.49131176 416.30184656 -255 414 C-255.34417969 415.26457031 -255.68835937 416.52914063 -256.04296875 417.83203125 C-258.58888597 426.31096471 -262.03200502 434.47314056 -265.3125 442.6875 C-265.97108085 444.34555314 -266.62928638 446.00375541 -267.28710938 447.66210938 C-268.57145362 450.8977605 -269.85946261 454.13191129 -271.15087891 457.36474609 C-272.36809899 460.41197823 -273.57851414 463.46176041 -274.78271484 466.51416016 C-275.05955612 467.21338089 -275.3363974 467.91260162 -275.62162781 468.63301086 C-276.36924155 470.52144859 -277.11474814 472.41072014 -277.86010742 474.30004883 C-279 477 -279 477 -280 478 C-289.73530945 477.89635035 -299.42451281 475.8685182 -308.98828125 474.19921875 C-310.61989327 473.91832308 -312.25158349 473.63788127 -313.88334656 473.35786438 C-318.16104524 472.62253296 -322.4376516 471.88103266 -326.71405029 471.13818359 C-330.99165442 470.39626198 -335.27028403 469.66030607 -339.54882812 468.92382812 C-346.86019136 467.66459511 -354.17035744 466.39858603 -361.4799366 465.12904167 C-366.14333403 464.31980768 -370.80812859 463.51926684 -375.47412109 462.72509766 C-376.56073532 462.53921585 -377.64734955 462.35333405 -378.76689148 462.16181946 C-380.71634455 461.82857315 -382.66619727 461.49765218 -384.61653137 461.16960144 C-390.77505301 460.1124735 -390.77505301 460.1124735 -393 459 C-392.67 466.26 -392.34 473.52 -392 481 C-398.25290224 481 -404.24684063 480.94069143 -410.43359375 480.37109375 C-411.21249969 480.30153976 -411.99140564 480.23198578 -412.79391479 480.1603241 C-415.34263774 479.9276992 -417.89013343 479.68452204 -420.4375 479.4375 C-421.32327728 479.35207947 -422.20905457 479.26665894 -423.12167358 479.1786499 C-453.71351872 476.1759157 -484.07190321 470.99273377 -514 464 C-515.37987827 463.68481355 -516.75993189 463.37039402 -518.14013672 463.05664062 C-560.61198046 453.37505429 -601.53779887 439.25292865 -642.70446777 425.12994385 C-650.44478411 422.47601052 -658.1890801 419.83370243 -665.93270874 417.18945312 C-668.45249689 416.32872644 -670.97200468 415.46718352 -673.49145508 414.60546875 C-685.97280286 410.33844539 -698.47348322 406.13282469 -711 402 C-711 401.34 -711 400.68 -711 400 C-708.41697482 399.68477299 -705.8336184 399.37279829 -703.25 399.0625 C-702.53972656 398.97548828 -701.82945312 398.88847656 -701.09765625 398.79882812 C-689.76282639 397.44466704 -678.5741721 396.84962173 -667.15625 396.8671875 C-665.73832177 396.86651031 -664.32039366 396.86553689 -662.90246582 396.86428833 C-659.93740732 396.86282312 -656.97237915 396.86492256 -654.00732422 396.86962891 C-650.29891982 396.87524269 -646.59058858 396.8720054 -642.88218689 396.86617661 C-624.23084013 396.84152682 -605.63596547 397.17256583 -587 398 C-606.5676398 392.53391364 -626.12737522 387.25940548 -646 383 C-647.30843801 382.71634098 -648.61686872 382.43264826 -649.92529297 382.14892578 C-671.13921253 377.57250797 -692.38228277 374.18557963 -713.91601562 371.51660156 C-717.82993833 371.02857608 -721.73448276 370.48045366 -725.640625 369.93359375 C-791.25782284 361.16585325 -868.03699899 364.43245881 -922.875 405.53515625 C-937.15436743 416.79800731 -946.46351151 431.89535389 -949 450 C-949.90344173 462.00760836 -948.96735836 473.34252072 -946 485 C-966.85249488 484.61897435 -981.74047014 475.23695246 -996.12109375 460.8828125 C-1012.85908098 443.06811264 -1021.50701022 418.27051212 -1021.63867188 394.04711914 C-1021.36024196 385.86176525 -1018.21174879 381.2059901 -1013 375 C-1012.03970138 373.70772971 -1011.08972337 372.40774659 -1010.1484375 371.1015625 C-1004.94781452 363.90859775 -999.54054116 357.08839272 -993.44921875 350.625 C-991.47784862 348.51214398 -989.57923231 346.36973571 -987.69140625 344.18359375 C-978.41391301 333.53974475 -968.23136273 323.56086208 -957 315 C-955.81238918 314.07175635 -954.62489715 313.14336071 -953.4375 312.21484375 C-908.54915983 277.47941347 -856.05259305 258.20753309 -800.6875 248.1328125 C-799.62486466 247.93925486 -799.62486466 247.93925486 -798.54076195 247.74178696 C-783.3798726 244.99172718 -768.16953792 242.63874533 -752.92097092 240.43083191 C-750.761362 240.11758248 -748.60209737 239.80204593 -746.44290161 239.48596191 C-721.27128305 235.80431063 -696.06262227 232.47636412 -670.8256073 229.27650452 C-669.58764908 229.11951584 -668.34969086 228.96252716 -667.07421875 228.80078125 C-665.85926224 228.64673325 -664.64430573 228.49268524 -663.39253235 228.33396912 C-648.24572826 226.40585894 -633.12735877 224.28221904 -618.01057434 222.1333313 C-611.21748338 221.16859556 -604.42164019 220.22453008 -597.625 219.28515625 C-572.91103098 215.86539248 -548.22460087 212.32235682 -523.58374023 208.40893555 C-520.88898531 207.9824294 -518.1935899 207.56016706 -515.49804688 207.13867188 C-481.525477 201.81745905 -447.73742657 195.64707553 -414 189 C-413.06498657 188.81608704 -412.12997314 188.63217407 -411.16662598 188.44268799 C-328.10752113 172.06183228 -244.87929165 149.37387603 -66 59 C-65.24235352 58.45875488 -64.48470703 57.91750977 -63.70410156 57.35986328 C-53.03181801 49.71060222 -42.78623497 41.75527018 -33 33 C-32.07574219 32.175 -31.15148438 31.35 -30.19921875 30.5 C-28.54095616 29.01033163 -26.88695883 27.51589461 -25.23828125 26.015625 C-23.12810509 24.11536166 -20.97712145 22.27515187 -18.8125 20.4375 C-15.46652683 17.52825024 -12.59950338 14.37303388 -9.73828125 10.9921875 C-7.41974648 8.33499035 -4.92033973 5.89180736 -2.3828125 3.4453125 C-0.89145515 2.02890223 -0.89145515 2.02890223 0 0 Z " fill="#134A8E" transform="translate(1768,596)"/>
<path d="M0 0 C0.66 0 1.32 0 2 0 C3.3059082 1.77807617 3.3059082 1.77807617 4.80078125 4.29296875 C5.35870361 5.22197998 5.91662598 6.15099121 6.49145508 7.1081543 C7.39287231 8.63243042 7.39287231 8.63243042 8.3125 10.1875 C9.59297609 12.32338082 10.87424188 14.45878839 12.15625 16.59375 C12.80335938 17.67527344 13.45046875 18.75679687 14.1171875 19.87109375 C16.80488155 24.33757287 19.55569839 28.76347115 22.3125 33.1875 C27.43080502 41.42473506 32.47529818 49.70551095 37.5 58 C42.54920451 66.33376106 47.61575331 74.65571973 52.75 82.9375 C53.26135498 83.76290283 53.77270996 84.58830566 54.29956055 85.4387207 C57.08541235 89.92990769 59.88429245 94.41269718 62.69140625 98.890625 C63.29694336 99.86008057 63.90248047 100.82953613 64.52636719 101.82836914 C65.69379696 103.69711847 66.86487136 105.56359721 68.04003906 107.42749023 C68.55920898 108.25966064 69.07837891 109.09183105 69.61328125 109.94921875 C70.07516846 110.68487061 70.53705566 111.42052246 71.01293945 112.1784668 C72 114 72 114 72 116 C72.55995163 115.77306961 73.11990326 115.54613922 73.69682312 115.31233215 C79.58614515 112.92584287 85.47611931 110.54096846 91.36645508 108.15698242 C93.55737403 107.270017 95.74813281 106.3826558 97.9387207 105.49487305 C120.58028445 96.31948906 120.58028445 96.31948906 132 92 C130.77204718 109.05058824 129.27653949 126.06092181 127.56618881 143.06960106 C127.16776753 147.03665506 126.77372084 151.00412153 126.38113403 154.97175598 C125.26642484 166.23028924 124.14625273 177.48826817 123.01708984 188.74536133 C122.38827837 195.01472082 121.76482205 201.28459019 121.14705479 207.55504781 C120.82248569 210.84700491 120.49439412 214.13854858 120.16122055 217.42964745 C116.05685643 243.24248657 116.05685643 243.24248657 122.625 267.5 C126.3419057 269.84751939 129.63179486 270.37716057 134 270 C146.57711523 266.18087598 155.84465618 254.26931873 164.76000977 245.20410156 C167.9835817 241.93951535 171.21651116 238.76362656 174.7109375 235.7890625 C180.80490705 230.54451006 186.35243007 224.71461287 192 219 C205.12188858 205.72233999 205.12188858 205.72233999 211.39941406 200.38232422 C214.22986593 197.93784306 216.7592347 195.20893091 219.3359375 192.50390625 C221 191 221 191 223 191 C225.57071839 197.35085233 228.13338584 203.70490896 230.69042969 210.0612793 C231.56161545 212.22413925 232.43465501 214.38625345 233.30957031 216.54760742 C234.56540967 219.65089753 235.81460063 222.75679128 237.0625 225.86328125 C237.65309204 227.31653557 237.65309204 227.31653557 238.25561523 228.79914856 C238.61598877 229.6998558 238.9763623 230.60056305 239.34765625 231.52856445 C239.66742432 232.32132278 239.98719238 233.11408112 240.31665039 233.93086243 C241 236 241 236 241 239 C241.96814133 238.83126877 242.93628265 238.66253754 243.9337616 238.48869324 C253.15366866 236.88224613 262.37416256 235.27920482 271.59521008 233.67931652 C276.33337544 232.85711832 281.07134164 232.03380932 285.80883789 231.20776367 C326.11501313 224.18138986 326.11501313 224.18138986 343 222 C343.12126868 229.2804346 342.64378746 236.41717079 342.01171875 243.66796875 C341.90875992 244.88558899 341.80580109 246.10320923 341.69972229 247.35772705 C341.42275952 250.62750963 341.1426419 253.8970025 340.86109924 257.16639328 C340.3956584 262.58522803 339.93875033 268.00479464 339.48032761 273.42422676 C339.30878296 275.45088961 339.13677156 277.47751252 338.9647522 279.50413513 C338.29551993 287.41229144 337.64771491 295.32162738 337.03515625 303.234375 C336.96580368 304.12921097 336.89645111 305.02404694 336.82499695 305.94599915 C336.51245469 309.99450837 336.2045227 314.04332541 335.90112305 318.0925293 C335.7935153 319.49788858 335.6858531 320.90324369 335.578125 322.30859375 C335.48950195 323.49251709 335.40087891 324.67644043 335.30957031 325.89624023 C335.03408066 328.65830645 334.60317448 331.29301643 334 334 C334.63671631 334.16363037 335.27343262 334.32726074 335.92944336 334.49584961 C343.59582168 336.52019142 351.07327065 338.96436894 358.5625 341.5625 C359.73619141 341.96146484 360.90988281 342.36042969 362.11914062 342.77148438 C363.23611328 343.15755859 364.35308594 343.54363281 365.50390625 343.94140625 C366.51267822 344.28888916 367.5214502 344.63637207 368.56079102 344.99438477 C371 346 371 346 373 348 C366.07166321 354.50977272 359.09698636 360.833724 351.6796875 366.7890625 C348.86746685 369.1093495 346.18202737 371.53071134 343.5 374 C339.0301488 378.11378909 334.40955107 381.97087297 329.68359375 385.78515625 C327.05291443 387.95632827 324.52057576 390.20241357 322 392.5 C318.60401318 395.59555196 315.13828469 398.55151207 311.5625 401.4375 C306.788597 405.29825137 302.26611572 409.37437075 297.75 413.53125 C294.18815771 416.72881296 290.47434167 419.71388343 286.75 422.71875 C283.91900422 425.06718968 281.20616402 427.50909902 278.5 430 C274.05272888 434.09351091 269.45282537 437.92442499 264.75 441.71875 C261.91900422 444.06718968 259.20616402 446.50909902 256.5 449 C252.0301488 453.11378909 247.40955107 456.97087297 242.68359375 460.78515625 C240.05291443 462.95632827 237.52057576 465.20241357 235 467.5 C231.60401318 470.59555196 228.13828469 473.55151207 224.5625 476.4375 C219.788597 480.29825137 215.26611572 484.37437075 210.75 488.53125 C207.18815771 491.72881296 203.47434167 494.71388343 199.75 497.71875 C196.91900422 500.06718968 194.20616402 502.50909902 191.5 505 C187.06022953 509.08660691 182.4688641 512.91193339 177.7734375 516.69921875 C173.89655789 519.91539071 170.20152522 523.31470573 166.5078125 526.73828125 C164.07720126 528.93037456 161.57630752 530.98235414 159 533 C160.52739084 536.42673696 162.54331171 539.05841282 164.9375 541.9375 C165.74058594 542.90558594 166.54367187 543.87367188 167.37109375 544.87109375 C170.06967634 548.09008096 172.78373502 551.29593156 175.5 554.5 C179.03799915 558.67337466 182.56925346 562.85153988 186.0625 567.0625 C186.77535156 567.91972656 187.48820312 568.77695313 188.22265625 569.66015625 C189.79893881 571.73530626 190.88032176 573.66500497 192 576 C174.66791378 575.39412969 157.42575464 573.91863174 140.15663147 572.38898087 C133.13900037 571.76928465 126.12019649 571.16289756 119.1015625 570.5546875 C118.32563248 570.48732454 117.54970245 570.41996159 116.7502594 570.35055733 C102.25611439 569.09314031 87.75582232 567.92744373 73.25 566.8125 C54.15371975 565.34266135 35.07285307 563.74836165 16 562 C15.72816895 562.87414551 15.45633789 563.74829102 15.17626953 564.64892578 C14.06107159 567.82601315 12.75003128 570.64355778 11.1796875 573.6171875 C10.64472656 574.63554688 10.10976562 575.65390625 9.55859375 576.703125 C9.00300781 577.74984375 8.44742187 578.7965625 7.875 579.875 C7.31167969 580.94492188 6.74835938 582.01484375 6.16796875 583.1171875 C4.78265261 585.74694017 3.39322404 588.37443083 2 591 C1.34 591 0.68 591 0 591 C-0.76183594 589.45892578 -0.76183594 589.45892578 -1.5390625 587.88671875 C-5.1984369 580.512687 -8.90145152 573.20010397 -12.96875 566.0390625 C-14 564 -14 564 -14 562 C-14.84942405 562.07177523 -14.84942405 562.07177523 -15.71600819 562.14500046 C-29.77872434 563.33317358 -43.84158799 564.51958982 -57.90459919 565.70426559 C-64.70656804 566.27730589 -71.50849013 566.85088901 -78.31030273 567.42578125 C-105.09556318 569.68929204 -131.88156794 571.9424324 -158.67867088 574.06198883 C-160.89935077 574.23765795 -163.11997517 574.41403 -165.34053993 574.59114838 C-168.38072367 574.83315454 -171.42114218 575.07193016 -174.46166992 575.30957031 C-175.34705885 575.38038063 -176.23244778 575.45119095 -177.14466667 575.52414703 C-181.44288183 575.85589326 -185.68461559 576.07746594 -190 576 C-183.09532812 566.55007653 -175.5522285 557.63259913 -167.97070312 548.72509766 C-164.17899718 544.25244879 -160.53965572 539.67524493 -157 535 C-158.4954708 531.40278644 -160.52706308 529.36902779 -163.4375 526.8125 C-164.78134766 525.63107422 -164.78134766 525.63107422 -166.15234375 524.42578125 C-169.81396746 521.30662031 -173.54184522 518.27513645 -177.28125 515.25 C-180.77908151 512.35524289 -184.11785404 509.30410461 -187.47265625 506.24609375 C-190.06962393 503.93812402 -192.73404013 501.74444137 -195.4375 499.5625 C-200.211403 495.70174863 -204.73388428 491.62562925 -209.25 487.46875 C-211.93737634 485.05621896 -214.68965444 482.7674379 -217.5 480.5 C-222.25595419 476.66280969 -226.75504801 472.60614899 -231.25 468.46875 C-233.93737634 466.05621896 -236.68965444 463.7674379 -239.5 461.5 C-244.25595419 457.66280969 -248.75504801 453.60614899 -253.25 449.46875 C-255.93737634 447.05621896 -258.68965444 444.7674379 -261.5 442.5 C-265.28460334 439.44651321 -268.92207537 436.29331699 -272.5 433 C-276.9698512 428.88621091 -281.59044893 425.02912703 -286.31640625 421.21484375 C-289.80550916 418.33519113 -293.12996921 415.29306124 -296.47265625 412.24609375 C-299.06962393 409.93812402 -301.73404013 407.74444137 -304.4375 405.5625 C-309.211403 401.70174863 -313.73388428 397.62562925 -318.25 393.46875 C-320.93737634 391.05621896 -323.68965444 388.7674379 -326.5 386.5 C-331.25595419 382.66280969 -335.75504801 378.60614899 -340.25 374.46875 C-342.93737634 372.05621896 -345.68965444 369.7674379 -348.5 367.5 C-353.3490909 363.5874288 -357.95409609 359.4593056 -362.5390625 355.2421875 C-365.29174324 352.73418949 -368.10812552 350.34476309 -371 348 C-368.21101162 345.21101162 -364.88009951 344.41236284 -361.21875 343.1796875 C-360.44946167 342.91616486 -359.68017334 342.65264221 -358.88757324 342.38113403 C-357.26112365 341.82535413 -355.63369327 341.27243743 -354.00537109 340.72216797 C-351.50770489 339.87760534 -349.0134436 339.02354452 -346.51953125 338.16796875 C-344.94029636 337.62964418 -343.36087537 337.09186518 -341.78125 336.5546875 C-341.0322644 336.29847626 -340.28327881 336.04226501 -339.51159668 335.77828979 C-334.23195654 334 -334.23195654 334 -332 334 C-332.23126083 332.70064766 -332.23126083 332.70064766 -332.4671936 331.37504578 C-332.96204912 328.24039868 -333.28394279 325.16232714 -333.52490234 321.99926758 C-333.66056358 320.24572464 -333.66056358 320.24572464 -333.79896545 318.45675659 C-333.89366623 317.19872223 -333.988367 315.94068787 -334.0859375 314.64453125 C-334.18828308 313.31224528 -334.29090428 311.97998046 -334.39378357 310.6477356 C-334.61114329 307.8277523 -334.82702786 305.00766196 -335.04165649 302.18746948 C-335.59613341 294.9031746 -336.15901426 287.6195281 -336.72265625 280.3359375 C-336.77792418 279.62071112 -336.8331921 278.90548473 -336.89013481 278.16858482 C-337.90541325 265.04289987 -338.99480933 251.92457919 -340.18701172 238.8137207 C-340.29674316 237.58484131 -340.40647461 236.35596191 -340.51953125 235.08984375 C-340.66032104 233.55638306 -340.66032104 233.55638306 -340.80395508 231.99194336 C-341.02264502 228.65440253 -341.01236705 225.34389413 -341 222 C-329.10077854 223.46505845 -317.31325481 225.42049266 -305.50390625 227.4765625 C-303.5748267 227.81025859 -301.64570295 228.14369924 -299.71653748 228.47689819 C-294.69062883 229.34564996 -289.66531981 230.21782178 -284.64013672 231.09075928 C-279.49157548 231.98448759 -274.34244231 232.87490822 -269.19335938 233.765625 C-259.12835055 235.50721869 -249.06397341 237.25243369 -239 239 C-238.82490402 238.38589264 -238.64980804 237.77178528 -238.46940613 237.1390686 C-236.73689074 231.19732504 -234.72852463 225.45331223 -232.42578125 219.7109375 C-231.9327375 218.46698715 -231.9327375 218.46698715 -231.42973328 217.19790649 C-230.39454631 214.58870482 -229.35363871 211.98183166 -228.3125 209.375 C-227.60313336 207.58999562 -226.89414566 205.80484059 -226.18554688 204.01953125 C-224.46139923 199.67793681 -222.73212267 195.33841854 -221 191 C-208.33897558 197.00435194 -197.73826383 211.18372741 -187.93481445 221.10180664 C-181.63162014 227.49047555 -181.63162014 227.49047555 -174.98046875 233.51171875 C-171.58748783 236.40411752 -168.44364826 239.50982178 -165.3203125 242.6875 C-164.81746231 243.19822556 -164.31461212 243.70895111 -163.79652405 244.2351532 C-161.71541307 246.35257663 -159.63714391 248.4725898 -157.56884766 250.60253906 C-145.32424272 264.04000479 -145.32424272 264.04000479 -129.03515625 270.05859375 C-125.1804393 269.83606819 -123.29017333 269.21447594 -120.125 266.875 C-116.16239584 261.51382966 -115.63542907 255.63223139 -115.68139648 249.12695312 C-115.68530868 248.32264107 -115.68922087 247.51832901 -115.69325161 246.68964386 C-115.92160486 233.51821538 -117.51465646 220.39140048 -118.85993886 207.29644966 C-119.26301769 203.34955095 -119.65423623 199.40147748 -120.04649353 195.45349121 C-120.95623773 186.31601466 -121.87990513 177.17997279 -122.80504608 168.04404449 C-123.98772978 156.35729305 -125.16354562 144.66986108 -126.32762712 132.9812417 C-126.79505637 128.29234657 -127.26913531 123.60418578 -127.74847996 118.91649437 C-128.04409313 116.01377136 -128.33448169 113.1105428 -128.62348747 110.20715523 C-128.82328001 108.21671623 -129.02953688 106.22692944 -129.23596191 104.23716736 C-129.41059715 102.46733238 -129.41059715 102.46733238 -129.58876038 100.66174316 C-129.74500429 99.1211108 -129.74500429 99.1211108 -129.90440464 97.54935455 C-130 95 -130 95 -129 92 C-128.33458694 92.27117645 -127.66917389 92.54235291 -126.9835968 92.82174683 C-120.70142434 95.38189367 -114.41918903 97.94188622 -108.13688374 100.50170708 C-104.90738343 101.8176224 -101.67790713 103.1335966 -98.44848633 104.44970703 C-94.73265678 105.96404427 -91.0167217 107.4781224 -87.30078125 108.9921875 C-86.14540359 109.46308807 -84.99002594 109.93398865 -83.79963684 110.41915894 C-82.71889389 110.85946442 -81.63815094 111.2997699 -80.5246582 111.75341797 C-79.57645706 112.13980438 -78.62825592 112.5261908 -77.65132141 112.92428589 C-75.10411404 113.95775807 -72.55320178 114.98143863 -70 116 C-69.72937744 115.27304932 -69.45875488 114.54609863 -69.17993164 113.79711914 C-68.0290398 111.06884108 -66.70886067 108.74129945 -65.12109375 106.24609375 C-64.53851807 105.32393066 -63.95594238 104.40176758 -63.35571289 103.45166016 C-62.40619751 101.95965088 -62.40619751 101.95965088 -61.4375 100.4375 C-60.06874835 98.26791309 -58.70162453 96.09729855 -57.3359375 93.92578125 C-56.98106766 93.36167542 -56.62619781 92.79756958 -56.26057434 92.21636963 C-52.29193099 85.89460527 -48.42479301 79.51208805 -44.5625 73.125 C-39.07775766 64.06075145 -33.56280111 55.01668863 -28 46 C-22.1927214 36.58442108 -16.42577204 27.14522798 -10.6875 17.6875 C-10.32052002 17.08268799 -9.95354004 16.47787598 -9.57543945 15.85473633 C-5.4070595 9.04911422 -5.4070595 9.04911422 -1.40942383 2.14379883 C-0.94431396 1.43634521 -0.4792041 0.7288916 0 0 Z " fill="#E8291C" transform="translate(1743,863)"/>
<path d="M0 0 C62.67106011 -1.00587548 125.17703562 2.68641274 187.62841797 7.72784424 C191.11409939 8.00921016 194.60001132 8.28760229 198.0859375 8.56591797 C226.12544439 10.81486047 254.13487571 13.33247721 282.125 16.125 C283.35374847 16.2471991 284.58249695 16.36939819 285.84848022 16.49530029 C300.34199596 17.94278296 314.80854841 19.54202696 329.26660156 21.30810547 C334.37834682 21.93043535 339.49352583 22.51030461 344.61328125 23.0625 C345.34641541 23.14192841 346.07954956 23.22135681 346.8348999 23.30319214 C349.71752748 23.61470228 352.60029426 23.92471906 355.48364258 24.22949219 C364.74994199 25.21220299 373.95864605 26.39844317 383.16888428 27.81491089 C389.59502092 28.80057176 396.02927341 29.70482223 402.47265625 30.5703125 C403.42632584 30.69871521 404.37999542 30.82711792 405.36256409 30.95941162 C409.26589545 31.48389878 413.16952382 32.00611028 417.07348633 32.52587891 C419.97772023 32.91317314 422.8814602 33.30400931 425.78515625 33.6953125 C426.66937759 33.81198273 427.55359894 33.92865295 428.46461487 34.04885864 C429.28074753 34.15922455 430.09688019 34.26959045 430.93774414 34.38330078 C431.65241348 34.47862091 432.36708282 34.57394104 433.10340881 34.67214966 C435 35 435 35 438 36 C438.02578125 37.13695312 438.0515625 38.27390625 438.078125 39.4453125 C438.87809376 64.03298117 448.43872712 83.44160181 466.0703125 100.4140625 C497.7818001 128.40473556 537.47150849 145.32624453 576.0625 161.5 C605.85961871 173.98991914 635.09376561 188.02111086 663.02783203 204.27246094 C665.04624579 205.44564114 667.068194 206.61275722 669.09326172 207.77441406 C695.01935163 222.65179919 720.03060899 239.1371112 744 257 C745.35517668 257.99779264 746.71064918 258.99518361 748.06640625 259.9921875 C756.9906189 266.58699678 765.64482438 273.4781407 774.21044922 280.53076172 C775.83311259 281.86298385 777.46488098 283.18409673 779.09765625 284.50390625 C784.43085839 288.81697408 789.59565251 293.26580653 794.66796875 297.8828125 C796.75823889 299.78051169 798.86986115 301.64733415 801 303.5 C817.76994953 318.144649 834.903372 333.15833021 849.359375 350.140625 C851.16147789 352.18300828 853.05938947 354.08901711 855 356 C858.21434731 359.1711603 861.21750963 362.45582753 864.16015625 365.87890625 C866.19508819 368.22491058 868.28290967 370.5173645 870.375 372.8125 C875.10615345 378.06137226 879.55876785 383.50562076 884 389 C885.01082767 390.23120087 886.02260049 391.46162618 887.03515625 392.69140625 C894.62839748 401.93435589 901.92174944 411.35768929 909 421 C909.5259375 421.71414063 910.051875 422.42828125 910.59375 423.1640625 C944.73483202 469.61563083 974.61585899 520.36884763 996 574 C999.51817447 568.9089946 1002.79449825 563.70440625 1005.9375 558.375 C1015.56333676 542.14022257 1026.15255578 526.44065889 1037 511 C1037.39960937 510.43087891 1037.79921875 509.86175781 1038.2109375 509.27539062 C1048.35266121 494.87480582 1058.80061174 480.67205762 1069.62060547 466.77392578 C1071.22111634 464.71564047 1072.81557235 462.65272389 1074.41015625 460.58984375 C1080.0790272 453.26573883 1085.76628145 445.96708626 1091.66796875 438.828125 C1093.47342186 436.63859728 1095.2663248 434.44093142 1097.05078125 432.234375 C1102.66908491 425.28724361 1108.32541476 418.38226452 1114.11889648 411.58032227 C1116.93304273 408.27327684 1119.70039765 404.93350936 1122.4375 401.5625 C1126.85262824 396.13999847 1131.40012477 390.83872545 1135.9609375 385.5390625 C1138.82596955 382.20834905 1141.66672022 378.85773359 1144.5 375.5 C1147.84208147 371.53928306 1151.20225368 367.59521465 1154.58276367 363.66723633 C1160.15647396 357.19001498 1165.61373596 350.6352528 1171 344 C1175.455 338.555 1175.455 338.555 1180 333 C1138.915 332.505 1138.915 332.505 1097 332 C1097.73637197 327.58176817 1098.3481893 324.7098211 1100.01171875 320.74609375 C1100.43211426 319.74239746 1100.85250977 318.73870117 1101.28564453 317.70458984 C1101.74825684 316.6264502 1102.21086914 315.54831055 1102.6875 314.4375 C1103.17589355 313.29490723 1103.66428711 312.15231445 1104.16748047 310.97509766 C1118.47966631 277.87957216 1135.43353309 245.89318146 1154 215 C1154.66499512 213.89205078 1155.32999023 212.78410156 1156.01513672 211.64257812 C1168.28037896 191.23328812 1180.74052348 170.93224673 1193.76513672 150.99731445 C1196.01844254 147.57837344 1196.01844254 147.57837344 1198 144 C1201.44779086 145.50006391 1203.82360533 147.50409262 1206.5625 150.0625 C1210.10168226 153.31107492 1213.69560168 156.42468216 1217.4375 159.4375 C1222.211403 163.29825137 1226.73388428 167.37437075 1231.25 171.53125 C1233.93737634 173.94378104 1236.68965444 176.2325621 1239.5 178.5 C1243.28460334 181.55348679 1246.92207537 184.70668301 1250.5 188 C1254.97878606 192.12150398 1259.60478783 195.99429637 1264.33984375 199.81640625 C1268.3320325 203.09340113 1272.17330843 206.53235604 1276 210 C1274.28330428 214.19866543 1271.33429081 217.26574361 1268.375 220.625 C1264.81869819 224.71419199 1261.29733328 228.80857387 1257.9375 233.0625 C1254.43296693 237.49769746 1250.79889247 241.80904009 1247.13647461 246.11352539 C1243.4807158 250.41571781 1239.90193523 254.77610134 1236.33984375 259.15625 C1233.1487715 263.03454816 1229.8959099 266.85935656 1226.62890625 270.67382812 C1224.60033223 273.05327468 1222.73728547 275.39407179 1221 278 C1242.44507109 277.55276181 1263.76568867 275.64065784 1285.12930298 273.83146667 C1292.708686 273.18993003 1300.28929687 272.56545041 1307.87109375 271.953125 C1308.91818512 271.86850006 1309.96527649 271.78387512 1311.0440979 271.69668579 C1313.13852783 271.52744568 1315.23295938 271.35822557 1317.32739258 271.18902588 C1329.56628517 270.19922141 1341.80478223 269.20795904 1354.03515625 268.1171875 C1354.81064316 268.04804642 1355.58613007 267.97890533 1356.38511658 267.90766907 C1359.89450962 267.59363556 1363.40339951 267.27521393 1366.91186523 266.95092773 C1376.26624071 266.10030631 1385.62198426 265.50721061 1395 265 C1393.81357961 268.55926116 1392.75730652 269.2036745 1389.8125 271.4375 C1379.96693705 279.10297401 1370.62163479 287.35254374 1361.4296875 295.78515625 C1359.39484585 297.64006817 1357.33678753 299.45428798 1355.25 301.25 C1345.9740552 309.32350751 1337.00920172 317.80084022 1328.44140625 326.62109375 C1326.48615651 328.5262891 1324.50834387 330.29708447 1322.4375 332.0703125 C1317.3841401 336.45656997 1312.67307225 341.17670119 1307.9543457 345.9152832 C1306.4400742 347.43491668 1304.9205257 348.94912517 1303.40039062 350.46289062 C1298.60736851 355.25297746 1293.94057778 360.09959375 1289.53149414 365.25024414 C1286.70599358 368.47842245 1283.61142379 371.4316624 1280.5390625 374.421875 C1277.13197586 377.7748809 1273.97455182 381.28360878 1270.84765625 384.8984375 C1267.01094502 389.26239235 1262.96428296 393.43411619 1258.9609375 397.64453125 C1255.0637482 401.75990296 1251.26295733 405.93603951 1247.54980469 410.21826172 C1245.60975159 412.44865042 1243.61949697 414.63078013 1241.625 416.8125 C1238.49577173 420.27530082 1235.49499651 423.80679003 1232.5625 427.4375 C1229.48663412 431.24087503 1226.31246834 434.90082652 1223 438.5 C1218.96489979 442.88894746 1215.16169696 447.40862766 1211.41796875 452.046875 C1208.64498564 455.43358782 1205.79760291 458.74941743 1202.9375 462.0625 C1198.92348862 466.72145296 1194.99582714 471.42719079 1191.18359375 476.25390625 C1188.92002604 479.10057548 1186.62363045 481.91826703 1184.32226562 484.734375 C1178.99048905 491.26258016 1173.75474959 497.84332526 1168.64453125 504.546875 C1166.70214735 507.09294256 1164.73732155 509.620247 1162.76171875 512.140625 C1155.46811149 521.44898981 1148.35661776 530.86859444 1141.37109375 540.41015625 C1138.26196714 544.65471283 1135.10629409 548.86240747 1131.9375 553.0625 C1123.37794453 564.43399318 1115.09465756 576.0062054 1106.875 587.625 C1106.44509766 588.23206787 1106.01519531 588.83913574 1105.57226562 589.46459961 C1096.01199624 603.02761761 1086.72513867 616.78349817 1077.43920898 630.53491211 C1076.19112211 632.38211965 1074.94177875 634.22847887 1073.69116211 636.07397461 C1065.65802708 647.92860627 1057.82457407 659.88006021 1050.23739624 672.0249939 C1048.59442275 674.64734118 1046.9286392 677.25470471 1045.2578125 679.859375 C1036.97268935 692.78806237 1028.93011768 705.85097596 1021 719 C1020.48727539 719.84771973 1019.97455078 720.69543945 1019.44628906 721.56884766 C1011.14721922 735.29174031 1003.02939302 749.11775598 995 763 C994.35482422 764.1147168 993.70964844 765.22943359 993.04492188 766.37792969 C983.96667781 782.08959255 975.1858092 797.93117596 966.640625 813.94091797 C964.04028273 818.78947282 961.39434551 823.61284896 958.75 828.4375 C953.38793151 838.23344936 948.16716894 848.10007012 943 858 C940.38098897 855.38098897 939.81850915 852.98490909 938.62890625 849.46875 C938.14229334 848.04913735 937.65537911 846.62962795 937.16821289 845.21020508 C936.90831573 844.4467276 936.64841858 843.68325012 936.38064575 842.89663696 C923.93635144 806.44291749 910.0221467 770.4664058 895 735 C894.47860821 733.76549188 893.95728614 732.5309543 893.43603516 731.29638672 C869.08219978 673.72506159 842.9398018 616.15352802 812.40966797 561.54589844 C810.87534291 558.77486593 809.37421049 555.98758771 807.87890625 553.1953125 C800.83637259 540.04520773 793.49827423 527.10518833 785.91699219 514.25878906 C783.8525649 510.74936785 781.8038038 507.23112233 779.7578125 503.7109375 C772.19529831 490.71202973 764.5216992 477.81590414 756.38427734 465.16552734 C755.00746595 463.01167954 753.65099887 460.84638426 752.30078125 458.67578125 C737.94936556 435.63951626 722.67674483 413.15145812 707 391 C706.44296387 390.21270508 705.88592773 389.42541016 705.31201172 388.61425781 C697.10566803 377.05401714 688.56044489 365.76350943 679.92822266 354.51904297 C678.10344597 352.1351425 676.28970342 349.74336437 674.48046875 347.34765625 C668.69862586 339.70422234 662.78793109 332.23572471 656.5390625 324.96875 C654.18901474 322.22100184 651.89863625 319.43604119 649.625 316.625 C641.15034454 306.23865494 632.31415935 296.1938302 623.10864258 286.45019531 C619.99070343 283.14901339 616.93670534 279.80559125 613.92578125 276.40625 C608.5633621 270.43031935 602.91074906 264.76006841 597.22485352 259.09448242 C595.4332405 257.3082533 593.64706945 255.51670653 591.86132812 253.72460938 C586.07607004 247.93563777 580.25598121 242.28439846 574 237 C572.80792586 235.95536875 571.617817 234.90849058 570.4296875 233.859375 C553.86229251 219.33377705 536.38565001 206.02440164 517.953125 193.9375 C515.8477565 192.55620003 513.75563385 191.16304151 511.671875 189.75 C478.03990609 166.98110607 442.8786711 148.97297002 404 137 C403.15985352 136.73767578 402.31970703 136.47535156 401.45410156 136.20507812 C382.80028633 130.47117085 363.50335366 127.16897112 344.37139893 123.46026611 C280.12523257 110.99069258 216.17040169 95.53428797 154.08660889 74.69921875 C151.72686059 73.90847149 149.36564509 73.12218719 147.00439453 72.3359375 C124.42907293 64.80836977 101.98409919 57.13551904 80 48 C78.86288574 47.53029785 77.72577148 47.0605957 76.55419922 46.57666016 C14.41711776 20.79445981 14.41711776 20.79445981 -1 5 C-0.67 3.35 -0.34 1.7 0 0 Z " fill="#1D2D5C" transform="translate(277,1189)"/>
<path d="M0 0 C0.1139209 0.58990723 0.2278418 1.17981445 0.34521484 1.78759766 C6.03669054 30.79996581 14.2065451 58.40594154 34 81 C34.96292969 82.25103516 34.96292969 82.25103516 35.9453125 83.52734375 C49.97761239 100.4141229 73.60020474 110.86566112 95 114 C129.63855112 116.38761499 151.95566026 104.15712186 177.62890625 81.9140625 C195.18695158 66.70864666 213.79526833 51.94706293 237 47 C238.04285156 46.77699219 239.08570313 46.55398438 240.16015625 46.32421875 C266.14312825 41.59126102 292.09875208 47.43535087 314 62 C321.91288826 67.51666636 329.21547725 73.82167968 336.55078125 80.0703125 C365.35873351 104.57170586 389.87430566 115.63244339 427.91064453 115.54589844 C430.47484967 115.55464979 433.03904937 115.56514097 435.60324097 115.57722473 C441.08690501 115.59920505 446.57037684 115.60929321 452.05408096 115.60811615 C459.98218981 115.60643566 467.910125 115.62689502 475.8381872 115.65247145 C488.70608118 115.69339573 501.57394357 115.7168253 514.44189453 115.72900391 C526.92955555 115.74086062 539.41715726 115.76111149 551.90478516 115.79248047 C552.67667498 115.79441657 553.44856481 115.79635267 554.24384524 115.79834744 C558.1168327 115.80811313 561.98981972 115.81804204 565.86280656 115.82805204 C597.90851222 115.91066589 629.95420594 115.96478269 662 116 C662.32145922 118.37354762 662.64157326 120.7472641 662.9609375 123.12109375 C663.05109131 123.78572632 663.14124512 124.45035889 663.23413086 125.13513184 C664.36686908 133.57377294 665.05355274 141.85349909 665.0234375 150.37109375 C665.02005371 151.61689209 665.01666992 152.86269043 665.01318359 154.14624023 C665.00883301 155.08798096 665.00448242 156.02972168 665 157 C664.44783926 157.00059709 663.89567851 157.00119418 663.32678562 157.00180936 C630.54178878 157.03776709 597.75690059 157.09450358 564.97199124 157.17792095 C561.02828425 157.18793743 557.08457684 157.19778173 553.14086914 157.20751953 C551.96327461 157.21043159 551.96327461 157.21043159 550.76189028 157.21340248 C538.07958765 157.24435457 525.39730308 157.26138411 512.71496982 157.27319422 C499.6846635 157.28564109 486.65445138 157.31322179 473.62420458 157.35461307 C465.5952253 157.37964773 457.56640241 157.39312466 449.53738355 157.39142957 C443.36242611 157.39139607 437.18769874 157.4125016 431.01281166 157.44116783 C428.49308881 157.4496359 425.97333262 157.45143799 423.45360184 157.44580269 C386.75018256 157.37469648 362.88159369 170.27863692 335.69921875 193.8515625 C310.93924679 215.30330473 284.83831214 229.74386038 251 228 C221.16769025 225.75625636 199.32488902 209.91883838 177.59106445 190.81445312 C153.65008985 169.89889945 129.88785572 157.53695152 97.5625 157.625 C96.81254761 157.62554382 96.06259521 157.62608765 95.28991699 157.62664795 C73.42749781 157.69945667 51.98609732 160.89829785 35 176 C34.41415886 176.85229187 34.41415886 176.85229187 33.81648254 177.72180176 C31.79067982 180.61490858 30.21330687 182.66289057 26.72982788 183.63075256 C23.92519156 183.84551085 21.19848666 183.83836758 18.38671875 183.75390625 C16.80130783 183.74731995 16.80130783 183.74731995 15.18386841 183.74060059 C11.68374506 183.7161324 8.18681904 183.64005256 4.6875 183.5625 C2.22162512 183.53276149 -0.24427915 183.50537621 -2.71020508 183.48022461 C-23.37967923 183.22403578 -44.04605341 182.52562374 -64.69888401 181.67560768 C-99.78582909 180.25505672 -134.88343732 179.83176241 -169.99609065 179.79981136 C-173.16499849 179.79680367 -176.3339033 179.79268765 -179.50280952 179.78830719 C-189.60011389 179.77472292 -199.69741062 179.76501997 -209.79472345 179.7611053 C-219.99266707 179.75712068 -230.1905159 179.74503338 -240.38842773 179.71875 C-292.63700278 179.58688655 -344.79350508 180.0186926 -397.01072693 181.94549561 C-397.94482911 181.97991414 -398.87893128 182.01433268 -399.84133959 182.0497942 C-404.17071092 182.21027099 -408.49983858 182.37492746 -412.82868385 182.54903412 C-433.06845673 183.34816076 -433.06845673 183.34816076 -441 183 C-441.33 182.67 -441.66 182.34 -442 182 C-441.85871691 177.79682798 -441.53861175 175.61568895 -438.734375 172.41015625 C-437.74953125 171.63542969 -436.7646875 170.86070312 -435.75 170.0625 C-435.21060791 169.63775391 -434.67121582 169.21300781 -434.11547852 168.77539062 C-428.3804563 164.3537639 -422.30607362 160.55036736 -416 157 C-415.01362549 156.43611572 -415.01362549 156.43611572 -414.00732422 155.86083984 C-360.71701217 125.6617602 -295.92021969 110.78667892 -236.44189453 97.76611328 C-233.30670496 97.06826785 -230.18169752 96.33966266 -227.05859375 95.58984375 C-212.13069797 92.01260028 -197.11338814 88.94734229 -182.0625 85.9375 C-180.50648575 85.62575333 -180.50648575 85.62575333 -178.91903687 85.30770874 C-157.69004017 81.06274853 -136.42929568 77.03790098 -115.0703125 73.5 C-111.3416518 72.87586194 -107.61317498 72.25063765 -103.88476562 71.625 C-101.33991838 71.20196046 -98.79397348 70.78548049 -96.24707031 70.375 C-92.49730028 69.7685171 -88.75255033 69.13671945 -85.0078125 68.5 C-83.30336472 68.23413086 -83.30336472 68.23413086 -81.56448364 67.96289062 C-75.56373068 66.91673785 -71.80801965 66.12778067 -68 61 C-67.55164795 60.41065674 -67.1032959 59.82131348 -66.64135742 59.21411133 C-66.12859253 58.40623169 -66.12859253 58.40623169 -65.60546875 57.58203125 C-65.21157959 56.97254639 -64.81769043 56.36306152 -64.41186523 55.73510742 C-64.00782471 55.10064697 -63.60378418 54.46618652 -63.1875 53.8125 C-59.11697405 47.57607559 -54.84151464 41.67067168 -50 36 C-48.95585938 34.77216797 -48.95585938 34.77216797 -47.890625 33.51953125 C-38.29174338 22.54208685 -16.53546114 0 0 0 Z " fill="#1D2D5C" transform="translate(717,995)"/>
<path d="M0 0 C-0.0707373 0.65484375 -0.14147461 1.3096875 -0.21435547 1.984375 C-0.92003528 9.0089276 -1.15221207 15.94300437 -1.125 23 C-1.12886719 24.00289062 -1.13273438 25.00578125 -1.13671875 26.0390625 C-1.13478516 27.53566406 -1.13478516 27.53566406 -1.1328125 29.0625 C-1.13168457 29.94035156 -1.13055664 30.81820313 -1.12939453 31.72265625 C-0.9410572 36.49292107 -0.43221596 41.24562446 0 46 C-8.25 46 -16.5 46 -25 46 C-25 30.24493606 -19.36930004 17.2017169 -8.63671875 5.625 C-2.97115385 0 -2.97115385 0 0 0 Z " fill="#FBFBFC" transform="translate(947,1073)"/>
</svg>