<svg xmlns="http://www.w3.org/2000/svg" xmlns:xlink="http://www.w3.org/1999/xlink" version="1.0" id="katman_1" x="0px" y="0px" style="enable-background:new 0 0 841.89 595.28;" xml:space="preserve" viewBox="207.32 97.7 427.99 401.36">
<style type="text/css">
	.st0{fill:#1E2A4C;}
	.st1{fill:#CE1242;}
</style>
<path class="st0" d="M604.07,347.64h-3.53v9.92h-2.4v-9.92h-3.51v-2.13h9.44V347.64L604.07,347.64z M620.06,357.56h-2.37v-9.61  h-0.07l-3.38,9.61h-2.31l-3.27-9.61h-0.05v9.61h-2.39v-12.05h4.14l2.7,7.83h0.08l2.84-7.83h4.09L620.06,357.56L620.06,357.56z"/>
<path class="st0" d="M620.32,383.49c-5.29-5.11-13.9-13.44-24.53-8.26c-7.96,3.86-9.43,12.12-9.43,18.34c0,2.34,0.23,4.4,0.37,5.84  c0.2,2.04,0.3,4,0.3,5.89c0,17.84-8.91,28.56-18.65,30.17c-6.86,0.29-32.03-21.32-44.14-70.28c46.26-17.41,63.33-44.37,69.05-64.86  c2.01-7.24,2.85-14.27,2.85-20.7c0-15.43-4.72-27.81-9.59-33.2c-2.68-2.98-10.87-12.07-21.75-8.59  c-11.1,3.55-12.54,16.09-13.08,20.85c-2.12,18.48-12.76,32.25-33.5,43.23c2.21-53.83,21.47-112.09,56.65-169.97  c2.82-4.62,7.19-11.81,7.19-18.96c0-3.74-1.21-7.46-4.49-10.74c-9.22-9.33-21.26-2.11-28.48,2.2l-2.11,1.26  c-102.73,53.43-154.52,157.31-192.36,233.13c0,0-0.7,1.42-1.32,2.67c-58.35,22.2-68.72,62.16-68.81,62.56  c-0.4,1.82-1.05,4.62-1.05,7.78c0,4.24,1.19,9.07,5.76,12.71c2.66,2.13,5.47,2.93,8.2,3.2c-3.4,2.09-6.71,3.38-9.93,3.55  c-30.58,1.49-39.99-25.04-40.17-25.58c-0.59-15.9-9.95-19.12-14.12-19.71c-15.58-2.27-21.26,17.04-23.67,25.32  c-5.37,18.22-0.68,40.14,12.22,57.13c15.26,20.11,39.73,30.98,68.92,30.58c49.81-0.69,81.87-55.37,107.9-108.64  c15.61-3.91,28.93-5.75,43.92-7.74c0,0,14.65-2.23,26.27-3.98c13.19,53.98,37.86,93.87,69.07,110.2  c19.21,10.03,39.98,10.79,60.01,2.13c18.71-8.09,31.87-26.05,36.11-49.29c4.17-22.9-1.32-46.3-13.64-58.23L620.32,383.49z   M428.84,326.3c9.4-19.71,19.44-39.4,30.23-56.3c-0.25,6.13-0.64,12.3-0.64,18.32c0,11.12,0.91,21.91,1.74,32.72  C450.68,322.96,440.24,324.73,428.84,326.3z"/>
<path class="st1" d="M610.75,393.41c-5.82-5.63-11.98-11.76-10.33,4.61c2.85,28.12-11.33,48.08-29.84,51.09  c-17.83,2.89-51.17-31.43-62.61-92.74c91.79-27.71,75.85-92.38,68.36-100.71c-6.4-7.07-9.59-6.96-10.91,4.59  c-3.36,29.32-23.69,49.22-61.21,62.9c-2.22-53.24,11.81-120.92,58.9-198.35c14.09-23.14-4.66-9.56-9.76-6.89  C451.46,170.95,401.73,275.5,363.41,352.21c-50.86,17.25-64.2,49.5-65.47,54.99c-1.71,7.43-1.04,8.9,8.03,4.59  c12.78-6.11,24.05-11.07,34.29-15.45c-16.54,28.73-32.55,47.77-52.08,48.75c-38.99,1.92-54.52-32.02-54.52-37.89  c0-10.93-5.19-11.48-10.91,8.02c-7.78,26.46,12.45,70.78,67.74,70.02c41.88-0.57,71.15-49.83,98.57-106.65  c31.92-8.87,52.54-8.47,90.17-15.43c17.27,85.94,63.88,136.51,113.16,115.21C626.57,463.59,627.96,410.04,610.75,393.41  L610.75,393.41z M474.53,332.03c-19.56,4.63-41.79,8.12-67.54,10.88c-0.42,0.02-0.84,0.09-1.25,0.14  c21.54-46.29,43.32-91.86,70.72-116.09C471.32,264.61,471.07,300.11,474.53,332.03L474.53,332.03z"/>
</svg>