<svg xmlns="http://www.w3.org/2000/svg" xmlns:xlink="http://www.w3.org/1999/xlink" version="1.0" id="katman_1" x="0px" y="0px" style="enable-background:new 0 0 600 450;" xml:space="preserve" viewBox="134.57 44.8 331.13 361.2">
<style type="text/css">
	.st0{fill:#FDC432;}
	.st1{fill:#1A2A49;}
	.st2{fill:#FFFFFF;}
</style>
<path class="st0" d="M465.7,150v45.6c0,38-6.2,61.1-36.1,124.2C398.2,386.3,359.4,406,313,406c-30.5,0-59.2-10.1-82.4-28.6l-0.2,0.1  l-5.2-4.6l-1-0.8c-6.6-5.9-12.2-12.2-17-18.7c-0.4-0.5-0.8-1.1-1.2-1.6c-0.1-0.1-0.1-0.2-0.2-0.3c-0.3-0.4-0.6-0.8-0.9-1.2  c-2.8-3.9-5.3-8-7.6-12.1c-0.3-0.4-0.5-0.9-0.8-1.3c-7.6-13.8-12.7-27.4-16.9-38.9c-1.2-3.3-2.3-6.4-3.5-9.2  c-8.8-22.5-25.7-66.5-33.9-88.6c-8.5-23-9.8-39.3-4.4-54.6c5.8-16.3,18.9-29.4,36.8-44c17.9-14.6,33.2-26.8,54.4-42.1  c13.3-9.6,27.5-14.7,41.2-14.7c5.8,0,11.3,0.9,16.3,2.8c0.9,0.3,1.9,0.7,3.2,1.2c4.6,1.7,8.7,4.1,12.2,7c0.4-0.2,0.7-0.4,1.1-0.6  c9.7-5.7,20.7-8.7,31.6-8.7c8.7,0,17.1,1.9,24.5,5.4c1.6,0.8,2.5,1.2,3.6,1.8l1.9,1c5.8,3,10.8,6.8,14.9,11.2  c6.5-2.2,12.8-3.3,18.8-3.3c9.1,0,17.7,2.5,25.4,7.4l1.8,1.2c3.5,2.2,5.3,3.4,8,5.3C454.4,90.8,465.7,106.8,465.7,150"/>
<path class="st1" d="M425.8,87.5c-2.9-2-4.7-3.1-9.5-6.2c-9.3-5.9-21.7-7.9-38.5-0.4c-1.1,0.5-2.2,1-3.2,1.4  c-3.8-7.7-10.4-12.8-16.2-15.8c-2.4-1.2-3-1.6-5.1-2.6c-11.4-5.5-28-6.3-43.4,2.8c-3.1,1.8-7.2,4.2-10.7,6.3  c-3.6-6.1-9.1-9.8-14.2-11.7c-1.2-0.5-2.2-0.8-3.1-1.1c-11.4-4.2-28.1-1.9-44.8,10.1c-20,14.4-34.6,25.9-53.7,41.6  c-35,28.7-42.5,45.1-28.3,83.4c7.8,21.1,24.3,64,33.8,88.4c5.4,14,11.1,32.1,21.4,49.6h0c0.9,1.6,1.9,3.2,2.9,4.8  c0.3,0.4,0.6,0.8,0.8,1.2c4.7,7.1,10.2,13.9,16.9,20.3c0.5,0.5,1.1,1,1.6,1.5c0.3,0.3,0.5,0.5,0.8,0.8l0,0  c20.9,19,48.6,30.6,79.6,30.6c57,0,103.2-46.2,103.2-103.2v-0.1c0-54.4-44.1-98.5-98.5-98.5c-29.6,0-59.2,17.1-76.8,44  c-11.8-28.8-23.6-57.6-35.4-86.4c-6.5-15.7-5-23.7,4.9-32.8c5-4.7,11.2-9.3,18-14c7-4.7,14.8-1.9,14.8,7.3v97.3  c15.9-16,35.3-26.5,60.3-31.1l-0.4-80.4c1.8-1.1,3.4-2.1,4.7-2.8c6.4-3.7,10.9,0.4,10.9,6.3V173c0.4,0,0.8,0,1.2,0  c20.3,0,40.2,5.4,57.7,15.6v-83.9c1.6-0.6,3.1-1.2,4.2-1.7c6.4-2.5,10.7,1.4,10.7,7.2s-0.4,88.9-0.4,88.9  c23.4,19.3,38.6,47.7,41,79.8c11.2-23.8,19.1-45.9,19.1-83.3V150C452.1,112,443.5,99.8,425.8,87.5 M316.8,231.1  c32.9,0,59.5,26.6,59.5,59.5s-26.6,59.5-59.5,59.5c-32.8,0-59.5-26.6-59.5-59.5S284,231.1,316.8,231.1"/>
<path class="st2" d="M271.7,290.6c0-10.8,3.8-20.7,10.1-28.5c12.6,16.8,12.6,40.1,0,57C275.3,311,271.7,301,271.7,290.6   M289.7,326.7c16.6-21.1,16.6-51.1,0-72.2c7.8-5.9,17.3-9.1,27.1-9.1c9.8,0,19.3,3.2,27.1,9.1c-16.6,21.1-16.6,51.1,0,72.2  c-7.8,5.9-17.3,9.1-27.1,9.1C307,335.7,297.5,332.6,289.7,326.7 M351.8,319.1c-12.6-16.8-12.6-40.1,0-57  c6.3,7.8,10.1,17.7,10.1,28.5C361.9,301.4,358.1,311.3,351.8,319.1"/>
<path class="st0" d="M427,372.8h-4.3v11.8h-2.9v-11.8h-4.3v-2.6H427V372.8z M446.7,384.6h-2.9v-11.4h-0.1l-4.2,11.4h-2.8l-4-11.4  h-0.1v11.4h-2.9v-14.4h5.1l3.3,9.4h0.1l3.5-9.4h5L446.7,384.6L446.7,384.6z"/>
</svg>