<svg xmlns="http://www.w3.org/2000/svg" xmlns:xlink="http://www.w3.org/1999/xlink" version="1.0" id="Layer_1" x="0px" y="0px" style="enable-background:new 0 0 1124.5 814.6;" xml:space="preserve" viewBox="323.5 40.7 477.6 733.4">
<style type="text/css">
	.st0{fill:#002B5C;}
	.st1{fill:#E31937;}
</style>
<path class="st0" d="M751.8,747.3H742v26.5h-6.5v-26.5h-9.7v-5.8h26L751.8,747.3z M795.9,773.8h-6.5v-25.6h-0.2l-9.3,25.6h-6.4  l-9-25.6h-0.1v25.6h-6.8v-32.2h11.4l7.5,21h0.2l7.8-21H796L795.9,773.8L795.9,773.8z M635.5,504.1v98.1  c-25.7,8.9-51.8,16.5-78.3,22.6c-25.3-7.7-49.8-16-73.3-25.2c-0.1-127.8,1.4-255.7,3.7-383.4c24.1-10.1,50.7-20.2,73.4-27.8  c24.5,7.6,47.4,15.8,70.9,24.7c1,23.2,0.5,57.6-0.1,115.5c23.4,4.4,73.2,0.6,128.9-6.9c2.5-19,5.7-37.9,8.8-56.8  c11.3-68.2,22.1-135.2,31.6-197.7c-49.3-7.6-103-12-129.5-8.2l-10.2,27.3c-32.2-16-65-31.3-100.4-45.6  c-79.1,30.7-156.5,65.7-231.8,104.9c14.6,71.4,20.2,127.6,20.2,221.7c0,137.1-9.5,242-25.9,310.8c77,36.7,151.6,68.2,232.5,96  c76.5-26.5,152.9-55.6,240-97.3c-7.5-48.6-23.4-131.4-35.4-183.2C720,494.6,678.4,498.4,635.5,504.1"/>
<path class="st1" d="M657.2,523v94.4c-32.3,11.7-65.3,21.9-101.1,29.4c-31.9-9.8-63.4-20.4-93.6-32.8c-0.3-137.3,1.3-275,3.9-412.3  c30-13.1,65.8-26.7,94-36.3c32.5,9.7,61.7,20.5,91.8,32.3c2,22.7,1.8,55,1,111.2c22.1,0.6,53.1-2,88.4-6.4  c12-74.5,24-148.4,34.7-217.3c-34.1-4.4-67-6.9-89.8-6.4L673,115.9C636.8,97.2,600.2,80,561,63.7c-72.6,28.5-139.6,58.8-207.8,93.5  c12.6,65.1,17.7,121.9,17.7,209.7c0,127.6-8.2,228.7-22.8,298.8c68.8,32.2,135.8,60,207.9,85.2c73.9-25.9,146.5-53.7,215.3-86.5  c-3.8-29-16.4-97.9-27.8-149.1C715.4,516.6,687,519.2,657.2,523"/>
</svg>