<svg xmlns="http://www.w3.org/2000/svg" xmlns:xlink="http://www.w3.org/1999/xlink" version="1.1" style="shape-rendering:geometricPrecision; text-rendering:geometricPrecision; image-rendering:optimizeQuality; fill-rule:evenodd; clip-rule:evenodd" viewBox="680.98 162.14 1036.52 1875.36">
<g><path style="opacity:0.989" fill="#005b5b" d="M 1479.5,781.5 C 1479.2,780.85 1478.86,780.183 1478.5,779.5C 1485.2,767.762 1490.54,755.429 1494.5,742.5C 1493.13,742.343 1491.79,742.51 1490.5,743C 1480.63,749.697 1470.63,756.197 1460.5,762.5C 1457.23,760.733 1454.4,758.4 1452,755.5C 1451.62,756.056 1451.12,756.389 1450.5,756.5C 1415.94,721.09 1387.77,681.09 1366,636.5C 1354.68,605.205 1340.68,575.205 1324,546.5C 1309.39,521.558 1290.23,500.724 1266.5,484C 1236.55,465.008 1204.55,460.341 1170.5,470C 1147.88,479.956 1132.04,496.456 1123,519.5C 1101.02,576.001 1107.35,629.001 1142,678.5C 1147.38,685.042 1152.55,691.709 1157.5,698.5C 1157.06,698.435 1156.73,698.601 1156.5,699C 1160.34,703.669 1164.34,708.169 1168.5,712.5C 1165.23,731.104 1162.07,749.77 1159,768.5C 1121.14,738.316 1092.8,700.983 1074,656.5C 1052.28,595.382 1056.95,536.382 1088,479.5C 1121.44,428.376 1168.61,407.542 1229.5,417C 1259.27,421.723 1285.6,433.723 1308.5,453C 1335.88,478.98 1359.04,508.147 1378,540.5C 1386.67,555.167 1395.33,569.833 1404,584.5C 1418.68,613.864 1433.35,643.198 1448,672.5C 1470.88,716.71 1506.05,746.543 1553.5,762C 1555.13,762.494 1556.8,762.66 1558.5,762.5C 1558.5,591.167 1558.5,419.833 1558.5,248.5C 1508.31,267.593 1458.31,287.26 1408.5,307.5C 1357.18,264.006 1298.51,234.506 1232.5,219C 1130.67,200.794 1037.34,221.127 952.5,280C 850.989,354.75 783.489,453.25 750,575.5C 732.241,646.215 726.908,717.882 734,790.5C 739.584,862.519 759.584,930.186 794,993.5C 803.715,1009.88 814.215,1025.71 825.5,1041C 808.5,1043.83 791.5,1046.67 774.5,1049.5C 769.823,1046.3 766.323,1041.97 764,1036.5C 763.329,1035.75 762.496,1035.41 761.5,1035.5C 715.78,960.335 689.946,878.668 684,790.5C 674.84,691.27 686.507,594.603 719,500.5C 764.664,376.845 844.831,282.678 959.5,218C 1116.95,134.728 1268.11,144.561 1413,247.5C 1478.17,224.222 1543.17,200.555 1608,176.5C 1608.5,393.5 1608.67,610.5 1608.5,827.5C 1560.21,826.502 1517.21,811.169 1479.5,781.5 Z"/></g>
<g><path style="opacity:0.999" fill="#0c2c56" d="M 1168.5,712.5 C 1169.17,712.5 1169.5,712.167 1169.5,711.5C 1173.83,716.167 1178.17,720.833 1182.5,725.5C 1177.33,761.537 1171.83,797.537 1166,833.5C 1165.68,835.061 1164.85,836.228 1163.5,837C 1158.54,838.158 1153.54,838.992 1148.5,839.5C 1150.18,831.894 1151.35,824.227 1152,816.5C 1121.08,794.246 1094.08,767.913 1071,737.5C 1033.28,681.954 1018.28,620.621 1026,553.5C 1031.15,496.699 1054.32,448.866 1095.5,410C 1134.31,377.879 1178.65,366.546 1228.5,376C 1265.27,382.39 1297.94,397.39 1326.5,421C 1347.54,439.701 1366.04,460.534 1382,483.5C 1393.17,500.499 1403.83,517.832 1414,535.5C 1433.49,572.487 1453.49,609.153 1474,645.5C 1486.1,665.101 1500.6,682.767 1517.5,698.5C 1517.56,699.043 1517.89,699.376 1518.5,699.5C 1519.83,567.167 1519.83,434.833 1518.5,302.5C 1517.89,302.624 1517.56,302.957 1517.5,303.5C 1484.65,315.622 1452.65,329.788 1421.5,346C 1415.93,348.87 1410.09,351.036 1404,352.5C 1399.18,351.005 1394.68,348.838 1390.5,346C 1357.25,318.031 1321.25,294.031 1282.5,274C 1206,239.707 1129,238.707 1051.5,271C 928.316,324.836 843.816,415.002 798,541.5C 772.457,618.257 763.79,696.924 772,777.5C 777.69,851.894 798.69,921.56 835,986.5C 844.52,1002.85 855.02,1018.51 866.5,1033.5C 867.5,1033.83 868.5,1034.17 869.5,1034.5C 902.143,1028.95 934.809,1023.62 967.5,1018.5C 968.147,1019.27 968.48,1020.27 968.5,1021.5C 967.51,1025.46 966.844,1029.46 966.5,1033.5C 902.861,1044.27 839.194,1054.94 775.5,1065.5C 776.091,1064.85 776.757,1064.18 777.5,1063.5C 771.649,1054.46 766.316,1045.13 761.5,1035.5C 762.496,1035.41 763.329,1035.75 764,1036.5C 766.323,1041.97 769.823,1046.3 774.5,1049.5C 791.5,1046.67 808.5,1043.83 825.5,1041C 814.215,1025.71 803.715,1009.88 794,993.5C 759.584,930.186 739.584,862.519 734,790.5C 726.908,717.882 732.241,646.215 750,575.5C 783.489,453.25 850.989,354.75 952.5,280C 1037.34,221.127 1130.67,200.794 1232.5,219C 1298.51,234.506 1357.18,264.006 1408.5,307.5C 1458.31,287.26 1508.31,267.593 1558.5,248.5C 1558.5,419.833 1558.5,591.167 1558.5,762.5C 1556.8,762.66 1555.13,762.494 1553.5,762C 1506.05,746.543 1470.88,716.71 1448,672.5C 1433.35,643.198 1418.68,613.864 1404,584.5C 1395.33,569.833 1386.67,555.167 1378,540.5C 1359.04,508.147 1335.88,478.98 1308.5,453C 1285.6,433.723 1259.27,421.723 1229.5,417C 1168.61,407.542 1121.44,428.376 1088,479.5C 1056.95,536.382 1052.28,595.382 1074,656.5C 1092.8,700.983 1121.14,738.316 1159,768.5C 1162.07,749.77 1165.23,731.104 1168.5,712.5 Z"/></g>
<g><path style="opacity:1" fill="#c3cdd3" d="M 1517.5,303.5 C 1518.83,435.167 1518.83,566.833 1517.5,698.5C 1500.6,682.767 1486.1,665.101 1474,645.5C 1453.49,609.153 1433.49,572.487 1414,535.5C 1403.83,517.832 1393.17,500.499 1382,483.5C 1366.04,460.534 1347.54,439.701 1326.5,421C 1297.94,397.39 1265.27,382.39 1228.5,376C 1178.65,366.546 1134.31,377.879 1095.5,410C 1054.32,448.866 1031.15,496.699 1026,553.5C 1018.28,620.621 1033.28,681.954 1071,737.5C 1094.08,767.913 1121.08,794.246 1152,816.5C 1151.35,824.227 1150.18,831.894 1148.5,839.5C 1131.91,843.03 1115.91,848.363 1100.5,855.5C 1039.73,818.274 978.73,781.274 917.5,744.5C 917.167,744.833 916.833,745.167 916.5,745.5C 945.786,809.736 974.786,874.07 1003.5,938.5C 987.168,963.169 975.168,989.835 967.5,1018.5C 934.809,1023.62 902.143,1028.95 869.5,1034.5C 868.5,1034.17 867.5,1033.83 866.5,1033.5C 855.02,1018.51 844.52,1002.85 835,986.5C 798.69,921.56 777.69,851.894 772,777.5C 763.79,696.924 772.457,618.257 798,541.5C 843.816,415.002 928.316,324.836 1051.5,271C 1129,238.707 1206,239.707 1282.5,274C 1321.25,294.031 1357.25,318.031 1390.5,346C 1394.68,348.838 1399.18,351.005 1404,352.5C 1410.09,351.036 1415.93,348.87 1421.5,346C 1452.65,329.788 1484.65,315.622 1517.5,303.5 Z"/></g>
<g><path style="opacity:1" fill="#455e7d" d="M 1517.5,303.5 C 1517.56,302.957 1517.89,302.624 1518.5,302.5C 1519.83,434.833 1519.83,567.167 1518.5,699.5C 1517.89,699.376 1517.56,699.043 1517.5,698.5C 1518.83,566.833 1518.83,435.167 1517.5,303.5 Z"/></g>
<g><path style="opacity:1" fill="#c3cdd3" d="M 1208.5,575.5 C 1218.94,639.139 1229.27,702.805 1239.5,766.5C 1242.94,790.387 1246.94,814.054 1251.5,837.5C 1251.09,840.855 1251.76,843.855 1253.5,846.5C 1252.9,846.735 1252.57,847.235 1252.5,848C 1261.1,899.795 1269.44,951.629 1277.5,1003.5C 1279.1,1003.23 1280.43,1003.57 1281.5,1004.5C 1279.8,1004.34 1278.13,1004.51 1276.5,1005C 1253.66,1029.01 1230.33,1052.51 1206.5,1075.5C 1206.5,1015.17 1206.5,954.833 1206.5,894.5C 1206.5,828.167 1206.5,761.833 1206.5,695.5C 1207.17,655.5 1207.83,615.5 1208.5,575.5 Z"/></g>
<g><path style="opacity:0.997" fill="#025c5c" d="M 1206.5,574.5 C 1206.5,614.833 1206.5,655.167 1206.5,695.5C 1206.5,761.833 1206.5,828.167 1206.5,894.5C 1205.83,954.833 1205.17,1015.17 1204.5,1075.5C 1182.67,1052.53 1160.84,1029.53 1139,1006.5C 1138.5,1004.53 1138.34,1002.53 1138.5,1000.5C 1146.76,948.871 1154.76,897.204 1162.5,845.5C 1121.74,852.883 1085.74,869.883 1054.5,896.5C 1053.17,897.167 1052.17,898.167 1051.5,899.5C 1047.56,901.766 1044.23,904.766 1041.5,908.5C 1038.17,911.167 1035.17,914.167 1032.5,917.5C 1002.1,949.63 982.767,987.63 974.5,1031.5C 972.039,1032.53 969.373,1033.2 966.5,1033.5C 966.844,1029.46 967.51,1025.46 968.5,1021.5C 968.48,1020.27 968.147,1019.27 967.5,1018.5C 975.168,989.835 987.168,963.169 1003.5,938.5C 1006.42,934.399 1009.59,930.399 1013,926.5C 1013.67,925.5 1013.67,924.5 1013,923.5C 991.821,876.478 970.655,829.478 949.5,782.5C 980.968,818.808 1012.3,855.308 1043.5,892C 1044.17,892.667 1044.83,892.667 1045.5,892C 1058.02,881.251 1071.35,871.751 1085.5,863.5C 1090.69,861.072 1095.69,858.405 1100.5,855.5C 1115.91,848.363 1131.91,843.03 1148.5,839.5C 1153.54,838.992 1158.54,838.158 1163.5,837C 1164.85,836.228 1165.68,835.061 1166,833.5C 1171.83,797.537 1177.33,761.537 1182.5,725.5C 1189.77,674.923 1197.77,624.59 1206.5,574.5 Z"/></g>
<g><path style="opacity:1" fill="#89abb0" d="M 1208.5,575.5 C 1207.83,615.5 1207.17,655.5 1206.5,695.5C 1206.5,655.167 1206.5,614.833 1206.5,574.5C 1206.34,572.801 1206.51,571.134 1207,569.5C 1208.13,571.345 1208.63,573.345 1208.5,575.5 Z"/></g>
<g><path style="opacity:0.492" fill="#094359" d="M 1157.5,698.5 C 1161.98,702.403 1165.98,706.737 1169.5,711.5C 1169.5,712.167 1169.17,712.5 1168.5,712.5C 1164.34,708.169 1160.34,703.669 1156.5,699C 1156.73,698.601 1157.06,698.435 1157.5,698.5 Z"/></g>
<g><path style="opacity:0.901" fill="#0b2e56" d="M 1479.5,781.5 C 1467.71,775.72 1458.05,767.386 1450.5,756.5C 1451.12,756.389 1451.62,756.056 1452,755.5C 1454.4,758.4 1457.23,760.733 1460.5,762.5C 1470.63,756.197 1480.63,749.697 1490.5,743C 1491.79,742.51 1493.13,742.343 1494.5,742.5C 1490.54,755.429 1485.2,767.762 1478.5,779.5C 1478.86,780.183 1479.2,780.85 1479.5,781.5 Z"/></g>
<g><path style="opacity:1" fill="#0e2d57" d="M 1100.5,855.5 C 1095.69,858.405 1090.69,861.072 1085.5,863.5C 1040.73,836.61 996.064,809.443 951.5,782C 950.563,781.308 949.897,781.475 949.5,782.5C 970.655,829.478 991.821,876.478 1013,923.5C 1013.67,924.5 1013.67,925.5 1013,926.5C 1009.59,930.399 1006.42,934.399 1003.5,938.5C 974.786,874.07 945.786,809.736 916.5,745.5C 916.833,745.167 917.167,744.833 917.5,744.5C 978.73,781.274 1039.73,818.274 1100.5,855.5 Z"/></g>
<g><path style="opacity:0.96" fill="#0d2d56" d="M 1239.5,766.5 C 1245.73,769.73 1251.39,773.73 1256.5,778.5C 1260.91,798.955 1264.24,819.622 1266.5,840.5C 1261.42,839.883 1256.42,838.883 1251.5,837.5C 1246.94,814.054 1242.94,790.387 1239.5,766.5 Z"/></g>
<g><path style="opacity:0.993" fill="#015c5c" d="M 1256.5,778.5 C 1286.54,797.514 1316.54,816.514 1346.5,835.5C 1335.47,841.768 1324.64,848.435 1314,855.5C 1313.32,856.784 1313.48,857.951 1314.5,859C 1318.33,860.746 1321.99,862.746 1325.5,865C 1328.3,865.755 1330.97,865.422 1333.5,864C 1342.83,858 1352.17,852 1361.5,846C 1362.31,844.887 1362.97,843.721 1363.5,842.5C 1395.5,822.5 1427.5,802.5 1459.5,782.5C 1427.86,818.48 1396.19,854.48 1364.5,890.5C 1376.9,901.561 1388.23,913.561 1398.5,926.5C 1404.37,936.238 1410.54,945.904 1417,955.5C 1425.04,969.911 1431.71,984.911 1437,1000.5C 1437.69,999.262 1438.19,999.262 1438.5,1000.5C 1440.24,1005.39 1441.57,1010.39 1442.5,1015.5C 1442.8,1021.15 1443.8,1026.65 1445.5,1032C 1504.73,1042.26 1564.06,1051.76 1623.5,1060.5C 1654.05,1064.98 1684.38,1069.98 1714.5,1075.5C 1641.66,1075.17 1569,1075.5 1496.5,1076.5C 1422.83,1076.5 1349.17,1076.5 1275.5,1076.5C 1252.33,1076.83 1229.33,1076.5 1206.5,1075.5C 1230.33,1052.51 1253.66,1029.01 1276.5,1005C 1278.13,1004.51 1279.8,1004.34 1281.5,1004.5C 1333.18,1012.72 1384.85,1021.06 1436.5,1029.5C 1427.77,985.024 1407.77,946.691 1376.5,914.5C 1374.17,911.5 1371.5,908.833 1368.5,906.5C 1367.42,904.413 1365.75,903.08 1363.5,902.5C 1361.12,899.119 1358.12,896.453 1354.5,894.5C 1325.22,869.696 1291.55,853.696 1253.5,846.5C 1251.76,843.855 1251.09,840.855 1251.5,837.5C 1256.42,838.883 1261.42,839.883 1266.5,840.5C 1264.24,819.622 1260.91,798.955 1256.5,778.5 Z"/></g>
<g><path style="opacity:1" fill="#c1ccd2" d="M 949.5,782.5 C 949.897,781.475 950.563,781.308 951.5,782C 996.064,809.443 1040.73,836.61 1085.5,863.5C 1071.35,871.751 1058.02,881.251 1045.5,892C 1044.83,892.667 1044.17,892.667 1043.5,892C 1012.3,855.308 980.968,818.808 949.5,782.5 Z"/></g>
<g><path style="opacity:1" fill="#c0cbd1" d="M 1423.5,871.5 C 1415.73,888.609 1408.23,905.942 1401,923.5C 1400.62,924.942 1399.79,925.942 1398.5,926.5C 1388.23,913.561 1376.9,901.561 1364.5,890.5C 1396.19,854.48 1427.86,818.48 1459.5,782.5C 1460.23,780.505 1460.9,780.339 1461.5,782C 1448.68,811.801 1436.01,841.635 1423.5,871.5 Z"/></g>
<g><path style="opacity:0.96" fill="#0b2e56" d="M 1346.5,835.5 C 1352.29,837.56 1357.95,839.893 1363.5,842.5C 1362.97,843.721 1362.31,844.887 1361.5,846C 1352.17,852 1342.83,858 1333.5,864C 1330.97,865.422 1328.3,865.755 1325.5,865C 1321.99,862.746 1318.33,860.746 1314.5,859C 1313.48,857.951 1313.32,856.784 1314,855.5C 1324.64,848.435 1335.47,841.768 1346.5,835.5 Z"/></g>
<g><path style="opacity:1" fill="#fefdfe" d="M 1138.5,1000.5 C 1137.55,1001.92 1137.22,1003.59 1137.5,1005.5C 1083.18,1014.28 1028.85,1022.94 974.5,1031.5C 982.767,987.63 1002.1,949.63 1032.5,917.5C 1032.56,918.043 1032.89,918.376 1033.5,918.5C 1038.08,916.856 1042.74,915.522 1047.5,914.5C 1049.37,914.39 1050.87,915.056 1052,916.5C 1055.04,911.55 1057.21,906.217 1058.5,900.5C 1057.48,898.812 1056.15,897.479 1054.5,896.5C 1085.74,869.883 1121.74,852.883 1162.5,845.5C 1154.76,897.204 1146.76,948.871 1138.5,1000.5 Z"/></g>
<g><path style="opacity:1" fill="#fefdfe" d="M 1253.5,846.5 C 1291.55,853.696 1325.22,869.696 1354.5,894.5C 1353.71,895.794 1352.71,896.961 1351.5,898C 1355.48,899.605 1359.48,901.105 1363.5,902.5C 1365.75,903.08 1367.42,904.413 1368.5,906.5C 1367.5,906.47 1366.84,906.97 1366.5,908C 1367.74,912.559 1369.08,917.059 1370.5,921.5C 1375.6,921.421 1377.6,919.087 1376.5,914.5C 1407.77,946.691 1427.77,985.024 1436.5,1029.5C 1384.85,1021.06 1333.18,1012.72 1281.5,1004.5C 1280.43,1003.57 1279.1,1003.23 1277.5,1003.5C 1269.44,951.629 1261.1,899.795 1252.5,848C 1252.57,847.235 1252.9,846.735 1253.5,846.5 Z"/></g>
<g><path style="opacity:0.992" fill="#0c2d56" d="M 1423.5,871.5 C 1427.16,875.157 1431.16,878.491 1435.5,881.5C 1429.79,896.948 1423.45,912.282 1416.5,927.5C 1450.42,951.243 1482.75,977.076 1513.5,1005C 1521.86,1013.03 1529.86,1021.36 1537.5,1030C 1561.18,1034 1584.51,1037.84 1607.5,1041.5C 1613.06,1047.61 1618.39,1053.94 1623.5,1060.5C 1564.06,1051.76 1504.73,1042.26 1445.5,1032C 1443.8,1026.65 1442.8,1021.15 1442.5,1015.5C 1448.5,1016.67 1454.5,1017.5 1460.5,1018C 1453.29,1011.91 1445.95,1006.08 1438.5,1000.5C 1438.19,999.262 1437.69,999.262 1437,1000.5C 1431.71,984.911 1425.04,969.911 1417,955.5C 1410.54,945.904 1404.37,936.238 1398.5,926.5C 1399.79,925.942 1400.62,924.942 1401,923.5C 1408.23,905.942 1415.73,888.609 1423.5,871.5 Z"/></g>
<g><path style="opacity:0.984" fill="#005b5b" d="M 1435.5,881.5 C 1502.04,924.695 1559.37,978.029 1607.5,1041.5C 1584.51,1037.84 1561.18,1034 1537.5,1030C 1529.86,1021.36 1521.86,1013.03 1513.5,1005C 1482.75,977.076 1450.42,951.243 1416.5,927.5C 1423.45,912.282 1429.79,896.948 1435.5,881.5 Z"/></g>
<g><path style="opacity:1" fill="#d62946" d="M 1354.5,894.5 C 1358.12,896.453 1361.12,899.119 1363.5,902.5C 1359.48,901.105 1355.48,899.605 1351.5,898C 1352.71,896.961 1353.71,895.794 1354.5,894.5 Z"/></g>
<g><path style="opacity:1" fill="#d71c3d" d="M 1054.5,896.5 C 1056.15,897.479 1057.48,898.812 1058.5,900.5C 1057.21,906.217 1055.04,911.55 1052,916.5C 1050.87,915.056 1049.37,914.39 1047.5,914.5C 1042.74,915.522 1038.08,916.856 1033.5,918.5C 1032.89,918.376 1032.56,918.043 1032.5,917.5C 1035.17,914.167 1038.17,911.167 1041.5,908.5C 1043.79,908.244 1045.96,908.577 1048,909.5C 1049.17,906.143 1050.34,902.809 1051.5,899.5C 1052.17,898.167 1053.17,897.167 1054.5,896.5 Z"/></g>
<g><path style="opacity:1" fill="#f6f3f4" d="M 1051.5,899.5 C 1050.34,902.809 1049.17,906.143 1048,909.5C 1045.96,908.577 1043.79,908.244 1041.5,908.5C 1044.23,904.766 1047.56,901.766 1051.5,899.5 Z"/></g>
<g><path style="opacity:1" fill="#d71b3c" d="M 1341.5,905.5 C 1348.74,906.954 1355.41,909.788 1361.5,914C 1360.1,915.062 1359.1,916.395 1358.5,918C 1359.74,921.876 1361.07,925.71 1362.5,929.5C 1361.15,932.509 1358.82,933.843 1355.5,933.5C 1354.32,928.972 1352.99,924.472 1351.5,920C 1352.02,919.05 1352.69,918.216 1353.5,917.5C 1348.74,914.855 1343.74,912.688 1338.5,911C 1338.04,910.586 1337.71,910.086 1337.5,909.5C 1339.19,908.479 1340.52,907.145 1341.5,905.5 Z"/></g>
<g><path style="opacity:1" fill="#d81f3d" d="M 1067.5,905.5 C 1070.88,906.057 1073.22,907.89 1074.5,911C 1073.19,916.778 1071.19,922.278 1068.5,927.5C 1067.13,926.289 1065.63,925.289 1064,924.5C 1057.72,926.203 1051.56,928.203 1045.5,930.5C 1044.09,929.376 1042.59,928.376 1041,927.5C 1040.32,926.216 1040.48,925.049 1041.5,924C 1048.74,921.343 1056.07,920.01 1063.5,920C 1065.38,915.33 1066.71,910.497 1067.5,905.5 Z"/></g>
<g><path style="opacity:1" fill="#d41e3d" d="M 1368.5,906.5 C 1371.5,908.833 1374.17,911.5 1376.5,914.5C 1377.6,919.087 1375.6,921.421 1370.5,921.5C 1369.08,917.059 1367.74,912.559 1366.5,908C 1366.84,906.97 1367.5,906.47 1368.5,906.5 Z"/></g>
<g><path style="opacity:1" fill="#d7173a" d="M 1325.5,915.5 C 1332.95,917.227 1339.62,920.56 1345.5,925.5C 1344.39,926.892 1343.06,928.059 1341.5,929C 1342.8,933.782 1342.8,938.615 1341.5,943.5C 1339.59,944.348 1337.59,944.682 1335.5,944.5C 1335.08,939.488 1334.91,934.488 1335,929.5C 1335.75,928.874 1336.58,928.374 1337.5,928C 1331.68,925.255 1326.01,922.255 1320.5,919C 1322.35,917.97 1324.01,916.804 1325.5,915.5 Z"/></g>
<g><path style="opacity:1" fill="#d7173a" d="M 1084.5,916.5 C 1088.23,916.687 1090.9,918.353 1092.5,921.5C 1091.86,926.873 1090.52,932.04 1088.5,937C 1086.42,937.529 1084.58,937.029 1083,935.5C 1077.13,937.9 1071.13,939.9 1065,941.5C 1063.1,941.385 1061.44,940.718 1060,939.5C 1059.25,938.365 1059.42,937.365 1060.5,936.5C 1065.13,934.569 1069.79,932.735 1074.5,931C 1077.26,930.218 1079.76,930.718 1082,932.5C 1083.59,927.286 1084.42,921.952 1084.5,916.5 Z"/></g>
<g><path style="opacity:1" fill="#d7173a" d="M 1319.5,953.5 C 1317.56,948.944 1316.89,943.944 1317.5,938.5C 1319.23,937.992 1319.57,937.159 1318.5,936C 1313.33,933.252 1308.33,930.252 1303.5,927C 1305.94,925.697 1308.44,924.53 1311,923.5C 1317.46,926.642 1323.29,930.642 1328.5,935.5C 1327.37,936.262 1326.21,936.929 1325,937.5C 1324.83,942.533 1324.33,947.533 1323.5,952.5C 1322.26,953.246 1320.93,953.579 1319.5,953.5 Z"/></g>
<g><path style="opacity:1" fill="#d71b3b" d="M 1104.5,926.5 C 1109.73,926.091 1112.39,928.424 1112.5,933.5C 1112.2,937.906 1111.54,942.24 1110.5,946.5C 1108.55,947.103 1106.55,946.77 1104.5,945.5C 1098.65,948.227 1092.65,950.56 1086.5,952.5C 1083.81,952.159 1081.81,950.826 1080.5,948.5C 1087.85,944.165 1095.51,941.498 1103.5,940.5C 1104.44,935.9 1104.78,931.233 1104.5,926.5 Z"/></g>
<g><path style="opacity:1" fill="#d7193b" d="M 1291.5,931.5 C 1298.95,933.757 1305.29,937.924 1310.5,944C 1308.92,944.707 1307.42,945.54 1306,946.5C 1305.02,951.407 1303.85,956.24 1302.5,961C 1300.44,961.311 1298.44,961.811 1296.5,962.5C 1295.57,957.087 1296.07,951.753 1298,946.5C 1299.07,945.809 1300.23,945.309 1301.5,945C 1296.58,941.958 1291.75,938.791 1287,935.5C 1286.31,934.668 1286.48,934.002 1287.5,933.5C 1289.03,933.006 1290.36,932.339 1291.5,931.5 Z"/></g>
<g><path style="opacity:1" fill="#d81f3e" d="M 1123.5,933.5 C 1126.4,934.268 1129.23,935.268 1132,936.5C 1133.24,942.435 1133.74,948.435 1133.5,954.5C 1130.82,953.992 1128.16,953.825 1125.5,954C 1120.4,956.968 1115.23,959.801 1110,962.5C 1108.11,961.804 1106.27,960.97 1104.5,960C 1103.29,959.107 1103.29,958.274 1104.5,957.5C 1109.83,954.5 1115.17,951.5 1120.5,948.5C 1121.74,949.246 1123.07,949.579 1124.5,949.5C 1124.31,944.155 1123.98,938.822 1123.5,933.5 Z"/></g>
<g><path style="opacity:1" fill="#e2506f" d="M 1317.5,938.5 C 1316.89,943.944 1317.56,948.944 1319.5,953.5C 1318.79,954.404 1317.79,954.737 1316.5,954.5C 1316.18,948.974 1316.51,943.64 1317.5,938.5 Z"/></g>
<g><path style="opacity:1" fill="#d92743" d="M 1277.5,944.5 C 1281.29,946.452 1284.29,949.286 1286.5,953C 1284.56,953.813 1282.56,954.313 1280.5,954.5C 1280.31,958.449 1279.81,958.449 1279,954.5C 1278.39,951.173 1277.89,947.839 1277.5,944.5 Z"/></g>
<g><path style="opacity:1" fill="#bdc8cf" d="M 1438.5,1000.5 C 1445.95,1006.08 1453.29,1011.91 1460.5,1018C 1454.5,1017.5 1448.5,1016.67 1442.5,1015.5C 1441.57,1010.39 1440.24,1005.39 1438.5,1000.5 Z"/></g>
<g><path style="opacity:1" fill="#c3cdd3" d="M 1138.5,1000.5 C 1138.34,1002.53 1138.5,1004.53 1139,1006.5C 1160.84,1029.53 1182.67,1052.53 1204.5,1075.5C 1204.5,1075.83 1204.5,1076.17 1204.5,1076.5C 1040.33,1076.83 876.332,1076.5 712.5,1075.5C 733.448,1071.84 754.448,1068.51 775.5,1065.5C 839.194,1054.94 902.861,1044.27 966.5,1033.5C 969.373,1033.2 972.039,1032.53 974.5,1031.5C 1028.85,1022.94 1083.18,1014.28 1137.5,1005.5C 1137.22,1003.59 1137.55,1001.92 1138.5,1000.5 Z"/></g>
<g><path style="opacity:1" fill="#81a6aa" d="M 1496.5,1076.5 C 1569,1075.5 1641.66,1075.17 1714.5,1075.5C 1715.55,1075.35 1716.55,1075.52 1717.5,1076C 1714.52,1076.7 1711.52,1077.2 1708.5,1077.5C 1638,1076.5 1567.34,1076.17 1496.5,1076.5 Z"/></g>
<g><path style="opacity:0.998" fill="#619497" d="M 712.5,1075.5 C 876.332,1076.5 1040.33,1076.83 1204.5,1076.5C 1204.5,1076.83 1204.5,1077.17 1204.5,1077.5C 1040.17,1077.5 875.833,1077.5 711.5,1077.5C 705.272,1077.18 705.605,1076.51 712.5,1075.5 Z"/></g>
<g><path style="opacity:1" fill="#85a9ad" d="M 1206.5,894.5 C 1206.5,954.833 1206.5,1015.17 1206.5,1075.5C 1229.33,1076.5 1252.33,1076.83 1275.5,1076.5C 1252.83,1077.17 1230.17,1077.83 1207.5,1078.5C 1207.17,1078.5 1206.83,1078.5 1206.5,1078.5C 1206.5,1077.83 1206.17,1077.5 1205.5,1077.5C 1205.17,1077.5 1204.83,1077.5 1204.5,1077.5C 1204.5,1077.17 1204.5,1076.83 1204.5,1076.5C 1204.5,1076.17 1204.5,1075.83 1204.5,1075.5C 1205.17,1015.17 1205.83,954.833 1206.5,894.5 Z"/></g>
<g><path style="opacity:1" fill="#c3cdd3" d="M 1275.5,1076.5 C 1349.17,1076.5 1422.83,1076.5 1496.5,1076.5C 1567.34,1076.17 1638,1076.5 1708.5,1077.5C 1686.29,1081.7 1663.95,1085.37 1641.5,1088.5C 1575.74,1099.51 1510.08,1110.85 1444.5,1122.5C 1441.72,1122.28 1439.05,1122.61 1436.5,1123.5C 1383.42,1132.22 1330.42,1141.22 1277.5,1150.5C 1253.8,1126.8 1230.47,1102.8 1207.5,1078.5C 1230.17,1077.83 1252.83,1077.17 1275.5,1076.5 Z"/></g>
<g><path style="opacity:0.991" fill="#015c5c" d="M 711.5,1077.5 C 875.833,1077.5 1040.17,1077.5 1204.5,1077.5C 1182.51,1100.33 1160.67,1123.33 1139,1146.5C 1138.33,1147.25 1137.5,1147.59 1136.5,1147.5C 1082.53,1138.62 1028.53,1129.95 974.5,1121.5C 983.449,1168.07 1004.45,1208.07 1037.5,1241.5C 1039.5,1244.17 1041.83,1246.5 1044.5,1248.5C 1045.17,1249.83 1046.17,1250.83 1047.5,1251.5C 1050.52,1254.52 1053.85,1257.18 1057.5,1259.5C 1087.93,1285.21 1122.93,1301.54 1162.5,1308.5C 1163.47,1310.95 1163.81,1313.61 1163.5,1316.5C 1158.54,1315.57 1153.54,1314.91 1148.5,1314.5C 1148.98,1322.72 1149.98,1330.89 1151.5,1339C 1151.17,1340.17 1150.83,1341.33 1150.5,1342.5C 1145.76,1338.71 1140.92,1335.05 1136,1331.5C 1135.6,1331.73 1135.43,1332.06 1135.5,1332.5C 1122.18,1323.53 1108.85,1314.53 1095.5,1305.5C 1095.43,1303.59 1094.43,1302.42 1092.5,1302C 1093.73,1300.47 1095.23,1299.3 1097,1298.5C 1097.78,1297.06 1097.61,1295.72 1096.5,1294.5C 1092.22,1291.78 1087.72,1289.44 1083,1287.5C 1079.86,1288.13 1077.69,1289.79 1076.5,1292.5C 1034.75,1318.92 992.748,1344.92 950.5,1370.5C 983.181,1335.15 1015.51,1299.49 1047.5,1263.5C 1035.14,1253.41 1024.14,1242.08 1014.5,1229.5C 1014.65,1228.45 1014.48,1227.45 1014,1226.5C 1010.64,1222.4 1007.31,1218.4 1004,1214.5C 998.835,1223.5 994.169,1232.83 990,1242.5C 988.076,1242.65 986.242,1242.65 984.5,1242.5C 924.978,1205.85 870.478,1162.51 821,1112.5C 820.536,1111.91 820.369,1111.24 820.5,1110.5C 822.859,1111.18 825.192,1112.01 827.5,1113C 853.851,1117.23 880.184,1121.56 906.5,1126C 930.299,1144.73 954.632,1162.73 979.5,1180C 981.025,1181.01 982.692,1181.51 984.5,1181.5C 980.449,1169.51 976.282,1157.51 972,1145.5C 969.746,1136.65 967.579,1127.82 965.5,1119C 911.044,1109.26 856.711,1100.42 802.5,1092.5C 771.951,1088.02 741.618,1083.02 711.5,1077.5 Z"/></g>
<g><path style="opacity:1" fill="#c3cdd3" d="M 1204.5,1077.5 C 1204.83,1077.5 1205.17,1077.5 1205.5,1077.5C 1205.83,1244.33 1205.5,1411 1204.5,1577.5C 1192.95,1504.2 1181.62,1430.87 1170.5,1357.5C 1168.69,1343.61 1166.35,1329.95 1163.5,1316.5C 1163.81,1313.61 1163.47,1310.95 1162.5,1308.5C 1154.4,1255.5 1146.23,1202.5 1138,1149.5C 1137.28,1148.96 1136.78,1148.29 1136.5,1147.5C 1137.5,1147.59 1138.33,1147.25 1139,1146.5C 1160.67,1123.33 1182.51,1100.33 1204.5,1077.5 Z"/></g>
<g><path style="opacity:0.998" fill="#619497" d="M 1205.5,1077.5 C 1206.17,1077.5 1206.5,1077.83 1206.5,1078.5C 1206.5,1244.5 1206.5,1410.5 1206.5,1576.5C 1206.63,1583.68 1205.96,1584.01 1204.5,1577.5C 1205.5,1411 1205.83,1244.33 1205.5,1077.5 Z"/></g>
<g><path style="opacity:0.997" fill="#015c5c" d="M 1206.5,1078.5 C 1206.83,1078.5 1207.17,1078.5 1207.5,1078.5C 1230.47,1102.8 1253.8,1126.8 1277.5,1150.5C 1269.05,1202.53 1260.38,1254.53 1251.5,1306.5C 1251.83,1307.17 1252.17,1307.83 1252.5,1308.5C 1289.82,1300.17 1323.49,1284.33 1353.5,1261C 1355.14,1259.87 1356.14,1258.37 1356.5,1256.5C 1359.29,1256.38 1361.29,1255.04 1362.5,1252.5C 1365.06,1250.73 1367.39,1248.73 1369.5,1246.5C 1373.21,1243.79 1376.21,1240.46 1378.5,1236.5C 1408.62,1204.61 1427.95,1166.94 1436.5,1123.5C 1439.05,1122.61 1441.72,1122.28 1444.5,1122.5C 1443.83,1127.5 1443.17,1132.5 1442.5,1137.5C 1435.43,1165.97 1423.76,1192.3 1407.5,1216.5C 1404.07,1220.51 1400.73,1224.67 1397.5,1229C 1418.78,1275.65 1439.78,1322.48 1460.5,1369.5C 1429.32,1333.82 1398.66,1297.65 1368.5,1261C 1367.83,1260.33 1367.17,1260.33 1366.5,1261C 1363.47,1264.37 1360.13,1267.37 1356.5,1270C 1347.26,1276.75 1337.93,1283.25 1328.5,1289.5C 1323.02,1291.41 1318.02,1294.07 1313.5,1297.5C 1297.8,1303.96 1281.8,1309.62 1265.5,1314.5C 1265.08,1313.88 1264.42,1313.54 1263.5,1313.5C 1258.52,1314.66 1253.52,1315.66 1248.5,1316.5C 1242.29,1354.09 1236.62,1391.76 1231.5,1429.5C 1223.47,1478.68 1215.14,1527.68 1206.5,1576.5C 1206.5,1410.5 1206.5,1244.5 1206.5,1078.5 Z"/></g>
<g><path style="opacity:1" fill="#0c2c56" d="M 1641.5,1088.5 C 1644.7,1096.09 1647.7,1103.75 1650.5,1111.5C 1648.27,1109.92 1646.6,1107.76 1645.5,1105C 1629.73,1106.63 1614.07,1109.13 1598.5,1112.5C 1633.11,1175.84 1653.94,1243.5 1661,1315.5C 1673.26,1425.6 1661.26,1532.94 1625,1637.5C 1585.3,1744.79 1518.8,1831.29 1425.5,1897C 1282.53,1991.62 1133.2,2002.62 977.5,1930C 956.88,1920.11 936.714,1909.61 917,1898.5C 860.102,1919.8 803.269,1941.3 746.5,1963C 743.28,1964.35 739.947,1965.19 736.5,1965.5C 736.5,1777.17 736.5,1588.83 736.5,1400.5C 769.303,1405.49 796.136,1420.82 817,1446.5C 835.195,1472.2 850.861,1499.54 864,1528.5C 889.005,1576.47 918.338,1621.47 952,1663.5C 977.548,1694.06 1007.05,1719.89 1040.5,1741C 1091.13,1771.16 1145.46,1781.16 1203.5,1771C 1256.97,1758.52 1295.14,1727.35 1318,1677.5C 1360.07,1573.61 1344.73,1479.28 1272,1394.5C 1267.03,1388.53 1261.7,1382.86 1256,1377.5C 1252.23,1399.08 1249.06,1420.41 1246.5,1441.5C 1241.5,1437.5 1236.5,1433.5 1231.5,1429.5C 1236.62,1391.76 1242.29,1354.09 1248.5,1316.5C 1253.52,1315.66 1258.52,1314.66 1263.5,1313.5C 1264.42,1313.54 1265.08,1313.88 1265.5,1314.5C 1264.87,1320.1 1263.87,1325.6 1262.5,1331C 1364.34,1413.51 1398.84,1518.68 1366,1646.5C 1353.59,1696.18 1328.76,1738.35 1291.5,1773C 1253.58,1804.41 1209.92,1818.41 1160.5,1815C 1075.49,1811.56 1003.32,1779.73 944,1719.5C 917.607,1692.02 894.607,1662.02 875,1629.5C 849.413,1584.66 824.08,1539.66 799,1494.5C 792.095,1484.26 784.428,1474.59 776,1465.5C 775.5,1612.5 775.333,1759.5 775.5,1906.5C 794.939,1901.3 813.939,1894.8 832.5,1887C 856.391,1876.39 879.724,1864.72 902.5,1852C 909.167,1848.67 915.833,1848.67 922.5,1852C 942.286,1861.72 961.286,1872.72 979.5,1885C 1083.74,1944.84 1192.41,1954.17 1305.5,1913C 1394.44,1877.06 1466.61,1819.9 1522,1741.5C 1592.01,1638.95 1626.51,1525.29 1625.5,1400.5C 1626.95,1323.45 1612.78,1249.45 1583,1178.5C 1573.95,1158.73 1563.62,1139.73 1552,1121.5C 1551.2,1120.2 1550.03,1119.53 1548.5,1119.5C 1513.12,1125.29 1477.78,1131.29 1442.5,1137.5C 1443.17,1132.5 1443.83,1127.5 1444.5,1122.5C 1510.08,1110.85 1575.74,1099.51 1641.5,1088.5 Z"/></g>
<g><path style="opacity:0.991" fill="#0b2d56" d="M 820.5,1110.5 C 814.14,1104.81 808.14,1098.81 802.5,1092.5C 856.711,1100.42 911.044,1109.26 965.5,1119C 967.579,1127.82 969.746,1136.65 972,1145.5C 976.282,1157.51 980.449,1169.51 984.5,1181.5C 982.692,1181.51 981.025,1181.01 979.5,1180C 954.632,1162.73 930.299,1144.73 906.5,1126C 880.184,1121.56 853.851,1117.23 827.5,1113C 825.192,1112.01 822.859,1111.18 820.5,1110.5 Z"/></g>
<g><path style="opacity:0.988" fill="#005b5b" d="M 1650.5,1111.5 C 1689.17,1188.17 1710.34,1269.51 1714,1355.5C 1720.43,1465.2 1703.76,1571.2 1664,1673.5C 1610.98,1802.75 1523.48,1901.25 1401.5,1969C 1321.11,2011.85 1235.44,2030.85 1144.5,2026C 1098.39,2020.98 1053.39,2010.98 1009.5,1996C 975.744,1984.69 942.744,1971.53 910.5,1956.5C 835.945,1983.41 761.445,2010.41 687,2037.5C 686.5,1798.83 686.333,1560.17 686.5,1321.5C 725.372,1323.22 762.039,1333.05 796.5,1351C 823.621,1367.79 845.787,1389.62 863,1416.5C 883.354,1453.21 902.687,1490.54 921,1528.5C 941.475,1566.62 965.475,1602.29 993,1635.5C 1018.95,1666.8 1050.12,1691.3 1086.5,1709C 1127.99,1727.65 1170.33,1729.99 1213.5,1716C 1242.54,1702.63 1263.04,1681.13 1275,1651.5C 1304.1,1576.06 1294.6,1506.06 1246.5,1441.5C 1249.06,1420.41 1252.23,1399.08 1256,1377.5C 1261.7,1382.86 1267.03,1388.53 1272,1394.5C 1344.73,1479.28 1360.07,1573.61 1318,1677.5C 1295.14,1727.35 1256.97,1758.52 1203.5,1771C 1145.46,1781.16 1091.13,1771.16 1040.5,1741C 1007.05,1719.89 977.548,1694.06 952,1663.5C 918.338,1621.47 889.005,1576.47 864,1528.5C 850.861,1499.54 835.195,1472.2 817,1446.5C 796.136,1420.82 769.303,1405.49 736.5,1400.5C 736.5,1588.83 736.5,1777.17 736.5,1965.5C 739.947,1965.19 743.28,1964.35 746.5,1963C 803.269,1941.3 860.102,1919.8 917,1898.5C 936.714,1909.61 956.88,1920.11 977.5,1930C 1133.2,2002.62 1282.53,1991.62 1425.5,1897C 1518.8,1831.29 1585.3,1744.79 1625,1637.5C 1661.26,1532.94 1673.26,1425.6 1661,1315.5C 1653.94,1243.5 1633.11,1175.84 1598.5,1112.5C 1614.07,1109.13 1629.73,1106.63 1645.5,1105C 1646.6,1107.76 1648.27,1109.92 1650.5,1111.5 Z"/></g>
<g><path style="opacity:1" fill="#c3cdd3" d="M 1265.5,1314.5 C 1281.8,1309.62 1297.8,1303.96 1313.5,1297.5C 1373.78,1334.61 1433.95,1371.94 1494,1409.5C 1466.28,1344.72 1437.44,1280.38 1407.5,1216.5C 1423.76,1192.3 1435.43,1165.97 1442.5,1137.5C 1477.78,1131.29 1513.12,1125.29 1548.5,1119.5C 1550.03,1119.53 1551.2,1120.2 1552,1121.5C 1563.62,1139.73 1573.95,1158.73 1583,1178.5C 1612.78,1249.45 1626.95,1323.45 1625.5,1400.5C 1626.51,1525.29 1592.01,1638.95 1522,1741.5C 1466.61,1819.9 1394.44,1877.06 1305.5,1913C 1192.41,1954.17 1083.74,1944.84 979.5,1885C 961.286,1872.72 942.286,1861.72 922.5,1852C 915.833,1848.67 909.167,1848.67 902.5,1852C 879.724,1864.72 856.391,1876.39 832.5,1887C 813.939,1894.8 794.939,1901.3 775.5,1906.5C 775.333,1759.5 775.5,1612.5 776,1465.5C 784.428,1474.59 792.095,1484.26 799,1494.5C 824.08,1539.66 849.413,1584.66 875,1629.5C 894.607,1662.02 917.607,1692.02 944,1719.5C 1003.32,1779.73 1075.49,1811.56 1160.5,1815C 1209.92,1818.41 1253.58,1804.41 1291.5,1773C 1328.76,1738.35 1353.59,1696.18 1366,1646.5C 1398.84,1518.68 1364.34,1413.51 1262.5,1331C 1263.87,1325.6 1264.87,1320.1 1265.5,1314.5 Z"/></g>
<g><path style="opacity:1" fill="#fefefe" d="M 1136.5,1147.5 C 1136.78,1148.29 1137.28,1148.96 1138,1149.5C 1146.23,1202.5 1154.4,1255.5 1162.5,1308.5C 1122.93,1301.54 1087.93,1285.21 1057.5,1259.5C 1059.38,1259.29 1060.72,1258.29 1061.5,1256.5C 1056.87,1254.79 1052.37,1252.79 1048,1250.5C 1047.6,1250.73 1047.43,1251.06 1047.5,1251.5C 1046.17,1250.83 1045.17,1249.83 1044.5,1248.5C 1045.76,1248.54 1046.76,1248.04 1047.5,1247C 1046.14,1242.41 1044.47,1237.91 1042.5,1233.5C 1040.64,1232.33 1038.97,1232.67 1037.5,1234.5C 1036.42,1236.81 1036.42,1239.14 1037.5,1241.5C 1004.45,1208.07 983.449,1168.07 974.5,1121.5C 1028.53,1129.95 1082.53,1138.62 1136.5,1147.5 Z"/></g>
<g><path style="opacity:1" fill="#fefdfe" d="M 1436.5,1123.5 C 1427.95,1166.94 1408.62,1204.61 1378.5,1236.5C 1373.67,1237.22 1369,1238.55 1364.5,1240.5C 1363.19,1239.69 1362.02,1238.69 1361,1237.5C 1358.35,1242.6 1356.19,1247.93 1354.5,1253.5C 1355.19,1254.52 1355.86,1255.52 1356.5,1256.5C 1356.14,1258.37 1355.14,1259.87 1353.5,1261C 1323.49,1284.33 1289.82,1300.17 1252.5,1308.5C 1252.17,1307.83 1251.83,1307.17 1251.5,1306.5C 1260.38,1254.53 1269.05,1202.53 1277.5,1150.5C 1330.42,1141.22 1383.42,1132.22 1436.5,1123.5 Z"/></g>
<g><path style="opacity:1" fill="#e7667b" d="M 1281.5,1186.5 C 1282.78,1187.39 1282.78,1188.39 1281.5,1189.5C 1280.44,1188.58 1280.44,1187.58 1281.5,1186.5 Z"/></g>
<g><path style="opacity:1" fill="#f2abba" d="M 1114.5,1192.5 C 1115.57,1191.57 1116.9,1191.23 1118.5,1191.5C 1118.78,1193.41 1118.45,1195.08 1117.5,1196.5C 1117.5,1195.17 1117.5,1193.83 1117.5,1192.5C 1116.5,1192.5 1115.5,1192.5 1114.5,1192.5 Z"/></g>
<g><path style="opacity:1" fill="#d7173a" d="M 1114.5,1192.5 C 1115.5,1192.5 1116.5,1192.5 1117.5,1192.5C 1117.5,1193.83 1117.5,1195.17 1117.5,1196.5C 1116.83,1200.5 1116.17,1204.5 1115.5,1208.5C 1114.32,1208.28 1113.32,1208.61 1112.5,1209.5C 1117.5,1213 1122.5,1216.5 1127.5,1220C 1125.13,1221.23 1122.63,1222.07 1120,1222.5C 1113.88,1220.06 1108.55,1216.4 1104,1211.5C 1103.67,1209.07 1104.83,1208.07 1107.5,1208.5C 1108.22,1203.83 1109.06,1199.16 1110,1194.5C 1111.11,1192.96 1112.61,1192.3 1114.5,1192.5 Z"/></g>
<g><path style="opacity:1" fill="#d7193b" d="M 1300.5,1192.5 C 1304.5,1191.88 1307.83,1193.05 1310.5,1196C 1305.17,1199 1299.83,1202 1294.5,1205C 1292.76,1205.65 1291.1,1205.48 1289.5,1204.5C 1288.68,1209.8 1288.68,1215.14 1289.5,1220.5C 1286.42,1220.2 1283.59,1219.2 1281,1217.5C 1280.5,1211.51 1280.33,1205.51 1280.5,1199.5C 1283.14,1200.26 1285.81,1200.43 1288.5,1200C 1292.73,1197.73 1296.73,1195.23 1300.5,1192.5 Z"/></g>
<g><path style="opacity:1" fill="#d81d3c" d="M 1091.5,1200.5 C 1093.17,1200.5 1094.83,1200.5 1096.5,1200.5C 1096.67,1205.51 1096.5,1210.51 1096,1215.5C 1095.25,1216.13 1094.42,1216.63 1093.5,1217C 1098.83,1220.33 1104.17,1223.67 1109.5,1227C 1107.29,1228.74 1104.79,1229.91 1102,1230.5C 1095.64,1227.47 1089.8,1223.63 1084.5,1219C 1085.58,1218.04 1086.75,1217.21 1088,1216.5C 1088.33,1211.83 1088.67,1207.17 1089,1202.5C 1089.99,1201.93 1090.83,1201.27 1091.5,1200.5 Z"/></g>
<g><path style="opacity:1" fill="#db2e47" d="M 1129.5,1199.5 C 1130.83,1199.5 1132.17,1199.5 1133.5,1199.5C 1133.68,1202.55 1133.85,1205.55 1134,1208.5C 1130.97,1206.97 1128.8,1204.64 1127.5,1201.5C 1128.24,1200.82 1128.91,1200.15 1129.5,1199.5 Z"/></g>
<g><path style="opacity:1" fill="#d81d3d" d="M 1324.5,1201.5 C 1327.47,1201.31 1329.97,1202.31 1332,1204.5C 1332.67,1205.17 1332.67,1205.83 1332,1206.5C 1326.85,1208.66 1321.68,1210.83 1316.5,1213C 1314.43,1213.69 1312.43,1213.52 1310.5,1212.5C 1309.06,1217.72 1308.06,1223.05 1307.5,1228.5C 1305.5,1227.5 1303.5,1226.5 1301.5,1225.5C 1300.26,1219.42 1300.6,1213.42 1302.5,1207.5C 1302.83,1207.17 1303.17,1206.83 1303.5,1206.5C 1305.63,1208.12 1307.96,1208.62 1310.5,1208C 1315.38,1206.06 1320.04,1203.89 1324.5,1201.5 Z"/></g>
<g><path style="opacity:1" fill="#d61238" d="M 1073.5,1209.5 C 1074.83,1209.5 1076.17,1209.5 1077.5,1209.5C 1077.83,1212.83 1078.16,1216.16 1078.5,1219.5C 1078.71,1222.01 1078.05,1224.18 1076.5,1226C 1081.51,1229.51 1086.84,1232.51 1092.5,1235C 1090.32,1236.84 1087.82,1238.01 1085,1238.5C 1078.66,1236.08 1072.82,1232.74 1067.5,1228.5C 1068.33,1227.59 1069.33,1226.92 1070.5,1226.5C 1070.93,1221.54 1071.09,1216.54 1071,1211.5C 1071.99,1210.93 1072.83,1210.27 1073.5,1209.5 Z"/></g>
<g><path style="opacity:1" fill="#d81d3c" d="M 1345.5,1212.5 C 1348.86,1212.07 1351.7,1213.07 1354,1215.5C 1354.69,1216.33 1354.52,1217 1353.5,1217.5C 1346.52,1221.28 1339.19,1222.95 1331.5,1222.5C 1329.95,1227.77 1328.62,1233.1 1327.5,1238.5C 1325.2,1237.36 1323.03,1236.03 1321,1234.5C 1320.93,1228.12 1322.43,1222.12 1325.5,1216.5C 1327.06,1217.45 1328.73,1218.11 1330.5,1218.5C 1335.75,1216.87 1340.75,1214.87 1345.5,1212.5 Z"/></g>
<g><path style="opacity:0.945" fill="#0d2e56" d="M 1014.5,1229.5 C 1010.17,1238.17 1005.83,1246.83 1001.5,1255.5C 1001.49,1253.98 1000.82,1252.82 999.5,1252C 994.326,1248.97 989.326,1245.8 984.5,1242.5C 986.242,1242.65 988.076,1242.65 990,1242.5C 994.169,1232.83 998.835,1223.5 1004,1214.5C 1007.31,1218.4 1010.64,1222.4 1014,1226.5C 1014.48,1227.45 1014.65,1228.45 1014.5,1229.5 Z"/></g>
<g><path style="opacity:1" fill="#0f2d57" d="M 1407.5,1216.5 C 1437.44,1280.38 1466.28,1344.72 1494,1409.5C 1433.95,1371.94 1373.78,1334.61 1313.5,1297.5C 1318.02,1294.07 1323.02,1291.41 1328.5,1289.5C 1372.47,1316.82 1416.47,1344.16 1460.5,1371.5C 1461.46,1371.03 1461.46,1370.36 1460.5,1369.5C 1439.78,1322.48 1418.78,1275.65 1397.5,1229C 1400.73,1224.67 1404.07,1220.51 1407.5,1216.5 Z"/></g>
<g><path style="opacity:1" fill="#d7183a" d="M 1054.5,1220.5 C 1055.68,1220.28 1056.68,1220.61 1057.5,1221.5C 1059.62,1226 1060.78,1230.67 1061,1235.5C 1060.5,1236 1060,1236.5 1059.5,1237C 1064.88,1239.4 1070.21,1241.9 1075.5,1244.5C 1073.31,1248.44 1070.14,1249.44 1066,1247.5C 1061.41,1246.04 1057.08,1244.04 1053,1241.5C 1052.84,1239.61 1053.67,1238.11 1055.5,1237C 1053.77,1233.15 1052.44,1229.15 1051.5,1225C 1051.56,1222.79 1052.56,1221.29 1054.5,1220.5 Z"/></g>
<g><path style="opacity:1" fill="#d7193b" d="M 1364.5,1224.5 C 1368.5,1224.01 1371.5,1225.51 1373.5,1229C 1365.67,1232.3 1357.67,1233.97 1349.5,1234C 1347.9,1238.9 1346.24,1243.73 1344.5,1248.5C 1342.25,1247.75 1340.41,1246.41 1339,1244.5C 1339.55,1238.97 1341.05,1233.64 1343.5,1228.5C 1345.59,1227.51 1347.59,1227.84 1349.5,1229.5C 1354.67,1228 1359.67,1226.33 1364.5,1224.5 Z"/></g>
<g><path style="opacity:1" fill="#c0cbd1" d="M 1014.5,1229.5 C 1024.14,1242.08 1035.14,1253.41 1047.5,1263.5C 1015.51,1299.49 983.181,1335.15 950.5,1370.5C 950.024,1372.07 949.357,1372.4 948.5,1371.5C 966.181,1332.81 983.848,1294.14 1001.5,1255.5C 1005.83,1246.83 1010.17,1238.17 1014.5,1229.5 Z"/></g>
<g><path style="opacity:1" fill="#d82641" d="M 1044.5,1248.5 C 1041.83,1246.5 1039.5,1244.17 1037.5,1241.5C 1036.42,1239.14 1036.42,1236.81 1037.5,1234.5C 1038.97,1232.67 1040.64,1232.33 1042.5,1233.5C 1044.47,1237.91 1046.14,1242.41 1047.5,1247C 1046.76,1248.04 1045.76,1248.54 1044.5,1248.5 Z"/></g>
<g><path style="opacity:1" fill="#d31e3d" d="M 1378.5,1236.5 C 1376.21,1240.46 1373.21,1243.79 1369.5,1246.5C 1367.61,1246.7 1366.11,1246.04 1365,1244.5C 1363.86,1247.08 1363.02,1249.75 1362.5,1252.5C 1361.29,1255.04 1359.29,1256.38 1356.5,1256.5C 1355.86,1255.52 1355.19,1254.52 1354.5,1253.5C 1356.19,1247.93 1358.35,1242.6 1361,1237.5C 1362.02,1238.69 1363.19,1239.69 1364.5,1240.5C 1369,1238.55 1373.67,1237.22 1378.5,1236.5 Z"/></g>
<g><path style="opacity:1" fill="#f0ebed" d="M 1369.5,1246.5 C 1367.39,1248.73 1365.06,1250.73 1362.5,1252.5C 1363.02,1249.75 1363.86,1247.08 1365,1244.5C 1366.11,1246.04 1367.61,1246.7 1369.5,1246.5 Z"/></g>
<g><path style="opacity:1" fill="#d82a46" d="M 1057.5,1259.5 C 1053.85,1257.18 1050.52,1254.52 1047.5,1251.5C 1047.43,1251.06 1047.6,1250.73 1048,1250.5C 1052.37,1252.79 1056.87,1254.79 1061.5,1256.5C 1060.72,1258.29 1059.38,1259.29 1057.5,1259.5 Z"/></g>
<g><path style="opacity:1" fill="#c1ccd2" d="M 1460.5,1369.5 C 1461.46,1370.36 1461.46,1371.03 1460.5,1371.5C 1416.47,1344.16 1372.47,1316.82 1328.5,1289.5C 1337.93,1283.25 1347.26,1276.75 1356.5,1270C 1360.13,1267.37 1363.47,1264.37 1366.5,1261C 1367.17,1260.33 1367.83,1260.33 1368.5,1261C 1398.66,1297.65 1429.32,1333.82 1460.5,1369.5 Z"/></g>
<g><path style="opacity:0.822" fill="#0c3056" d="M 1095.5,1305.5 C 1088.89,1301.56 1082.56,1297.22 1076.5,1292.5C 1077.69,1289.79 1079.86,1288.13 1083,1287.5C 1087.72,1289.44 1092.22,1291.78 1096.5,1294.5C 1097.61,1295.72 1097.78,1297.06 1097,1298.5C 1095.23,1299.3 1093.73,1300.47 1092.5,1302C 1094.43,1302.42 1095.43,1303.59 1095.5,1305.5 Z"/></g>
<g><path style="opacity:0.933" fill="#0d2f57" d="M 1163.5,1316.5 C 1166.35,1329.95 1168.69,1343.61 1170.5,1357.5C 1157.44,1351.1 1145.77,1342.77 1135.5,1332.5C 1135.43,1332.06 1135.6,1331.73 1136,1331.5C 1140.92,1335.05 1145.76,1338.71 1150.5,1342.5C 1150.83,1341.33 1151.17,1340.17 1151.5,1339C 1149.98,1330.89 1148.98,1322.72 1148.5,1314.5C 1153.54,1314.91 1158.54,1315.57 1163.5,1316.5 Z"/></g>
</svg>