<svg xmlns="http://www.w3.org/2000/svg" version="1.1" viewBox="608.69 134.71 1295.31 1730.28">
<path d="M0 0 C0.75890533 0.00209473 1.51781067 0.00418945 2.29971313 0.00634766 C37.43323069 0.20477204 72.59565185 12.28881814 102.05004883 31.27270508 C102.77732178 31.72411865 103.50459473 32.17553223 104.25390625 32.640625 C104.88369385 33.04829102 105.51348145 33.45595703 106.16235352 33.87597656 C109.04644458 34.7929733 110.47006744 33.82861318 113.125 32.5 C114.6602945 31.69227411 116.18096313 30.8562664 117.6875 29.99609375 C157.11542198 7.79502822 204.37282724 -8.43539332 249.9296875 3.2421875 C266.08318335 7.90284405 281.47573061 15.36268032 294.125 26.5 C294.93195313 27.16386719 295.73890625 27.82773438 296.5703125 28.51171875 C317.49328457 46.25361199 331.14730104 73.58889416 334.80859375 100.5703125 C337.10595674 129.10299363 332.5397261 154.86045961 316.51171875 178.921875 C316.05410156 179.44265625 315.59648438 179.9634375 315.125 180.5 C314.465 180.5 313.805 180.5 313.125 180.5 C312.03908387 178.91775101 311.0325854 177.28079588 310.0625 175.625 C300.14583157 159.66408119 286.46045528 148.62973638 268.12890625 144.06640625 C247.22824095 140.12544855 225.84885236 144.77227679 208.125 156.5 C200.22016467 162.53039534 192.36985201 169.73784334 189.171875 179.37109375 C189.10642526 183.7398642 191.21334492 185.73588181 194.0625 188.75 C195.09744572 189.90527306 196.13129406 191.06153012 197.1640625 192.21875 C197.93024902 193.06179688 197.93024902 193.06179688 198.71191406 193.921875 C200.54155244 195.965203 202.24517822 198.09210498 203.9375 200.25 C211.774676 210.12676893 219.83077473 219.8340384 228 229.4375 C231.69491334 233.78139509 235.29902387 238.18511718 238.84375 242.65234375 C246.08783707 251.69504833 253.49281583 260.61231126 261 269.4375 C264.69914384 273.78636864 268.30745016 278.19500845 271.85546875 282.66796875 C276.59325183 288.58000444 281.44185364 294.40232455 286.26513672 300.24462891 C288.09757873 302.46674748 289.92638335 304.69180351 291.75390625 306.91796875 C297.1273298 313.4608676 302.5138608 319.98864426 308 326.4375 C311.69492998 330.78137921 315.29902464 335.18511814 318.84375 339.65234375 C326.08783707 348.69504833 333.49281583 357.61231126 341 366.4375 C344.69914384 370.78636864 348.30745016 375.19500845 351.85546875 379.66796875 C356.59325183 385.58000444 361.44185364 391.40232455 366.26513672 397.24462891 C368.09757873 399.46674748 369.92638335 401.69180351 371.75390625 403.91796875 C377.1273298 410.4608676 382.5138608 416.98864426 388 423.4375 C391.69492998 427.78137921 395.29902464 432.18511814 398.84375 436.65234375 C406.08783707 445.69504833 413.49281583 454.61231126 421 463.4375 C424.69914384 467.78636864 428.30745016 472.19500845 431.85546875 476.66796875 C436.59325183 482.58000444 441.44185364 488.40232455 446.26513672 494.24462891 C448.09757873 496.46674748 449.92638335 498.69180351 451.75390625 500.91796875 C457.1273298 507.4608676 462.5138608 513.98864426 468 520.4375 C471.69492998 524.78137921 475.29902464 529.18511814 478.84375 533.65234375 C486.08783707 542.69504833 493.49281583 551.61231126 501 560.4375 C504.69914384 564.78636864 508.30745016 569.19500845 511.85546875 573.66796875 C516.59325183 579.58000444 521.44185364 585.40232455 526.26513672 591.24462891 C528.09757873 593.46674748 529.92638335 595.69180351 531.75390625 597.91796875 C537.1273298 604.4608676 542.5138608 610.98864426 548 617.4375 C551.68292372 621.76726426 555.27660182 626.15567328 558.80859375 630.609375 C562.0063946 634.59988534 565.25155667 638.55066994 568.5 642.5 C569.11979736 643.25506836 569.73959473 644.01013672 570.37817383 644.78808594 C570.96236084 645.49739258 571.54654785 646.20669922 572.1484375 646.9375 C572.93613525 647.89462891 572.93613525 647.89462891 573.73974609 648.87109375 C575.17839254 650.60710792 575.17839254 650.60710792 577.125 652.5 C578.9805387 650.50125881 580.83444124 648.50103842 582.6875 646.5 C583.20119141 645.94699219 583.71488281 645.39398437 584.24414062 644.82421875 C587.05327198 641.78826312 589.81598381 638.72138008 592.52734375 635.59765625 C596.28955357 631.2782169 600.19153076 627.10079838 604.125 622.9375 C604.79789063 622.22142578 605.47078125 621.50535156 606.1640625 620.76757812 C612.1405305 614.42767626 618.16392423 608.25989597 624.76953125 602.57421875 C627.14113052 600.48579552 629.45362402 598.34509917 631.76269531 596.18823242 C638.01522806 590.35223137 644.43757762 584.83742134 651.125 579.5 C652.26647109 578.56744092 653.40704884 577.63378764 654.546875 576.69921875 C663.76795294 569.17578642 673.31653173 562.23505372 683.125 555.5 C683.72183594 555.08572754 684.31867187 554.67145508 684.93359375 554.24462891 C727.85345092 524.5 727.85345092 524.5 736.125 524.5 C736.06611871 481.21177253 735.99157071 437.92359667 735.89601372 394.6354338 C735.88474557 389.52477837 735.87360711 384.41412268 735.86254883 379.3034668 C735.8592433 377.77730853 735.8592433 377.77730853 735.855871 376.22031879 C735.82049937 359.74646415 735.79563447 343.27260956 735.77465298 326.79873104 C735.75288988 309.89480168 735.71983458 292.9909216 735.67629844 276.08703417 C735.64979055 265.6565806 735.63208881 255.22618844 735.62565396 244.79570287 C735.62039746 237.64296689 735.6041716 230.49030817 735.57933434 223.33761359 C735.5653284 219.21099297 735.55614516 215.08451063 735.55999184 210.95786476 C735.56340941 207.17686133 735.55299517 203.39615291 735.53176448 199.61520987 C735.52402688 197.60574156 735.53092737 195.59623317 735.53841704 193.58676392 C735.43586066 180.5103005 732.12657703 172.84956794 723.16015625 163.4375 C708.56495234 149.52177486 688.53407895 142.64393929 668.5625 142.46875 C647.71076739 143.39963092 632.76262201 152.03104885 618.8125 167 C615.20343089 171.15079551 612.54656936 175.57536615 610.125 180.5 C604.48550427 178.62016809 601.8696611 171.57929254 599.125 166.5 C585.56019204 139.2158874 584.44441724 107.91114819 593.3125 79 C603.78395148 49.30483909 624.47078094 24.4099856 652.99707031 10.59326172 C678.92271194 -1.25007378 712.50092207 -3.90500933 740.125 3.5 C740.91519531 3.69867676 741.70539062 3.89735352 742.51953125 4.10205078 C763.17341724 9.33212244 783.15783908 17.17006334 801.49609375 28.07421875 C802.21829102 28.49904541 802.94048828 28.92387207 803.68457031 29.36157227 C805.07067281 30.18455074 806.44705725 31.02419448 807.81152344 31.88256836 C809.89836544 33.18042456 809.89836544 33.18042456 813.125 34.5 C816.55729676 33.43984843 819.57663381 31.77227465 822.6875 29.99609375 C861.91712496 7.90212624 909.21860516 -8.65010307 954.59375 3.11328125 C984.70209737 11.95200582 1010.25703044 30.33814338 1025.49511719 58.14892578 C1039.51192006 84.64039851 1045.65745506 116.10275604 1037.125 145.5 C1036.79628906 146.71042969 1036.46757813 147.92085937 1036.12890625 149.16796875 C1032.87550993 160.03138552 1027.67458015 171.88125966 1020.125 180.5 C1019.465 180.5 1018.805 180.5 1018.125 180.5 C1016.93359375 178.6640625 1016.93359375 178.6640625 1015.5625 176.125 C1012.11376324 170.19250149 1007.91849194 165.38424652 1003.125 160.5 C1002.51011719 159.860625 1001.89523437 159.22125 1001.26171875 158.5625 C989.27646605 147.06487 972.34945048 142.51727844 956.125 142.5 C934.52073048 143.75473582 914.73981691 152.33176615 900.28515625 168.56640625 C893.61024462 176.90596577 892.68292204 184.63672264 892.72627258 195.04101562 C892.71962576 196.29333449 892.71297893 197.54565336 892.70613068 198.83592129 C892.68816553 202.29538638 892.68865498 205.75463614 892.69226015 209.21413684 C892.69288543 212.95094414 892.67625057 216.68768009 892.66174316 220.42445374 C892.63897716 226.89317355 892.62707551 233.36183958 892.62261391 239.83059692 C892.61614744 249.18324679 892.59320132 258.53579953 892.56627061 267.88841021 C892.52302014 283.06345121 892.49304345 298.23848811 892.47143555 313.41357422 C892.45042065 328.15220146 892.42314108 342.89079521 892.38745117 357.62939453 C892.38525235 358.53832639 892.38305352 359.44725826 892.38078807 360.38373351 C892.36971829 364.94371042 892.3585255 369.50368702 892.34727156 374.06366348 C892.25411109 411.87574675 892.1825017 449.68784653 892.125 487.5 C892.73937864 487.5641916 893.35375729 487.6283832 893.98675346 487.69452 C894.79460352 487.78111346 895.60245358 487.86770693 896.43478394 487.95692444 C897.23478758 488.04174104 898.03479122 488.12655764 898.8590374 488.21394444 C944.04263106 493.9179302 991.70252993 527.16205103 1019.125 562.5 C1033.16915284 581.17810668 1043.82362738 601.43974507 1049.9375 624.0625 C1050.12022461 624.73192627 1050.30294922 625.40135254 1050.49121094 626.09106445 C1054.1319772 640.56496101 1055.6287339 655.08469329 1055.51611328 669.97949219 C1055.50000065 672.49989882 1055.51609963 675.018703 1055.53515625 677.5390625 C1055.58607817 716.24253763 1041.87444864 752.26952163 1014.61376953 780.03417969 C1006.02712769 788.48845939 996.49844368 795.41074907 986.125 801.5 C985.53493164 801.84659668 984.94486328 802.19319336 984.33691406 802.55029297 C970.44817199 810.58101863 955.96920622 815.98818098 940.4375 819.9375 C939.42179932 820.1967627 938.40609863 820.45602539 937.35961914 820.72314453 C932.14936753 821.98484314 927.485698 822.80739667 922.125 822.5 C923.3625 821.076875 923.3625 821.076875 924.625 819.625 C925.17542969 818.9753125 925.72585938 818.325625 926.29296875 817.65625 C927.5084893 816.22561601 928.74026835 814.80862928 929.98828125 813.40625 C945.94970465 794.72594686 952.5339417 771.20660572 952.5 747 C952.49945618 746.34247742 952.49891235 745.68495483 952.49835205 745.00750732 C952.45573993 733.75961221 951.44119033 723.26681872 948.125 712.5 C947.91601074 711.81341309 947.70702148 711.12682617 947.49169922 710.41943359 C942.67960861 695.18294894 934.90636736 681.30816425 924.125 669.5 C923.36703125 668.64921875 922.6090625 667.7984375 921.828125 666.921875 C914.37444809 658.98102966 905.6345442 653.19633831 895.90673828 648.37451172 C895.19574982 648.02137909 894.48476135 647.66824646 893.75222778 647.30441284 C893.21524261 647.0389566 892.67825745 646.77350037 892.125 646.5 C892.11521293 701.45742084 892.13690391 756.41475179 892.20079029 811.37213908 C892.2083063 817.86088544 892.2155618 824.34963207 892.22265625 830.83837891 C892.224073 832.13016738 892.22548975 833.42195585 892.22694944 834.75288942 C892.24926576 855.66724257 892.25047908 876.58154638 892.24388863 897.49590811 C892.23759575 918.95720658 892.25399244 940.4184013 892.29143608 961.87966847 C892.31382478 975.12163128 892.31853201 988.3633577 892.30059664 1001.60532829 C892.28999204 1010.68679791 892.30143396 1019.76807337 892.33016153 1028.84950307 C892.34608469 1034.08848413 892.35233606 1039.32700321 892.33239174 1044.56598091 C892.31432995 1049.36692218 892.32408905 1054.16699104 892.35553883 1058.96785584 C892.36205475 1060.70021697 892.35855153 1062.4326525 892.34374608 1064.16496262 C892.24052621 1077.21223036 894.7112498 1087.76564548 903.95703125 1097.5625 C920.82259739 1112.6351501 942.39693464 1119.6325076 964.85693359 1118.67041016 C981.95140579 1117.38602462 996.55229867 1108.93549592 1008.125 1096.5 C1011.89267006 1091.75066178 1015.03050929 1086.70353349 1018.125 1081.5 C1022.43489484 1082.97822674 1023.9972378 1086.07230303 1026.0625 1089.875 C1026.41022461 1090.50349854 1026.75794922 1091.13199707 1027.11621094 1091.77954102 C1041.4903404 1118.22887348 1044.51463086 1149.55799301 1036.125 1178.5 C1027.5913764 1206.57393121 1008.92436943 1232.51899387 982.86816406 1246.73095703 C947.19977953 1265.24967934 908.72151191 1265.13913836 870.81835938 1253.38427734 C863.08244345 1250.84443983 855.57981563 1247.76380759 848.125 1244.5 C847.37347656 1244.17241699 846.62195312 1243.84483398 845.84765625 1243.50732422 C837.19119611 1239.69064682 828.96432642 1235.52311356 821.11987305 1230.20532227 C818.30054141 1228.38255076 816.48701739 1227.49626305 813.09765625 1227.53125 C809.64401724 1228.65674603 806.85665891 1230.17710487 803.75 1232.0625 C765.60274209 1254.58231171 719.41377764 1269.11795054 675.125 1258.5 C645.95444129 1250.79342084 620.82053779 1233.54594165 605.125 1207.5 C604.77888672 1206.92846191 604.43277344 1206.35692383 604.07617188 1205.76806641 C588.61825284 1179.82694538 583.36805662 1147.48434796 590.21582031 1117.97314453 C592.89983715 1107.75809221 598.94312103 1087.79641609 608.33203125 1082.1796875 C608.92371094 1081.95539063 609.51539063 1081.73109375 610.125 1081.5 C610.69154297 1082.48226563 610.69154297 1082.48226563 611.26953125 1083.484375 C621.45062863 1100.36544513 634.50473757 1111.26870429 653.5078125 1117.25 C673.33398952 1122.08893134 694.75589039 1116.85874674 711.9375 1106.625 C720.55443292 1101.07071191 727.09289577 1095.52729001 732.125 1086.5 C732.79402344 1085.4171875 732.79402344 1085.4171875 733.4765625 1084.3125 C734.71103571 1081.82579137 735.23115796 1080.28318468 735.125 1077.5 C733.1175123 1073.91397496 730.43202574 1071.09449613 727.61523438 1068.12207031 C724.88177346 1065.14678946 722.39995424 1061.96450737 719.875 1058.8125 C718.76138147 1057.43932117 717.64678469 1056.06693515 716.53125 1054.6953125 C714.82677604 1052.5960667 713.12237251 1050.49676373 711.41796875 1048.39746094 C703.53543459 1038.68736387 703.53543459 1038.68736387 695.625 1029 C690.33549332 1022.5425548 685.07597339 1016.06081424 679.81445312 1009.58056641 C677.0854131 1006.21974572 674.35517536 1002.8598984 671.625 999.5 C668.32749585 995.44191675 665.03030237 991.3835828 661.734375 987.32421875 C657.03956241 981.54264398 652.34444093 975.76150727 647.625 970 C641.19734773 962.15310335 634.8114151 954.27222638 628.41796875 946.39746094 C620.53543459 936.68736387 620.53543459 936.68736387 612.625 927 C609.0311726 922.61264502 605.45098139 918.21439799 601.875 913.8125 C601.32908203 913.14114014 600.78316406 912.46978027 600.22070312 911.77807617 C597.33141112 908.22335358 594.44937256 904.66306765 591.578125 901.09375 C590.7104248 900.01806763 590.7104248 900.01806763 589.82519531 898.9206543 C588.72320547 897.55424386 587.6234525 896.1860252 586.52636719 894.81567383 C583.56947913 891.15456211 580.51821667 887.76222853 577.125 884.5 C576.95629395 885.03947266 576.78758789 885.57894531 576.61376953 886.13476562 C574.74816089 891.93223484 572.47332704 897.4397363 570 903 C558.12515021 930.32704997 548.70531798 959.0045224 544.125 988.5 C543.95547201 989.52065998 543.78594403 990.54131997 543.61127883 991.59290904 C543.07958465 995.86489748 542.98277121 999.99365576 542.99077892 1004.29153156 C542.98842669 1005.15697469 542.98607446 1006.02241782 542.98365095 1006.91408649 C542.97699024 1009.81613485 542.97741829 1012.71813814 542.97782898 1015.62019348 C542.97452853 1017.72118008 542.97080258 1019.82216604 542.9666875 1021.9231512 C542.95667994 1027.69878987 542.9529527 1033.47441814 542.95029819 1039.25006425 C542.94639143 1045.47870536 542.93681332 1051.70733826 542.92808533 1057.93597412 C542.90926475 1072.26859232 542.89906619 1086.60120864 542.89062465 1100.93383592 C542.88641459 1108.02118658 542.88119304 1115.10853639 542.87594012 1122.19588634 C542.85805068 1146.47081575 542.84305651 1170.74574541 542.83561993 1195.02068043 C542.83514517 1196.54408991 542.83466929 1198.06749939 542.83419226 1199.59090887 C542.83395589 1200.34636101 542.83371951 1201.10181316 542.83347597 1201.88015779 C542.83227481 1205.70745871 542.83105935 1209.53475963 542.82983398 1213.36206055 C542.82947376 1214.50135667 542.82947376 1214.50135667 542.82910626 1215.66366888 C542.82121776 1240.27551923 542.79779482 1264.88732131 542.76527804 1289.4991506 C542.73093911 1315.53785525 542.71126498 1341.57653169 542.70797569 1367.61525935 C542.70755817 1370.47676417 542.70707861 1373.33826898 542.70655251 1376.19977379 C542.70642931 1376.90432457 542.70630612 1377.60887535 542.7061792 1378.33477615 C542.70385213 1389.64786101 542.68821971 1400.96088961 542.66771066 1412.27395445 C542.64740111 1423.65810153 542.64233153 1435.04216215 542.65148129 1446.4263309 C542.65601875 1452.58751412 542.65417174 1458.74851553 542.63471985 1464.90967369 C542.61703613 1470.55978086 542.61812825 1476.20957428 542.63361714 1481.85968503 C542.6359853 1483.89410674 542.63171123 1485.92855049 542.61978849 1487.96293864 C542.46201944 1516.68261898 550.58191454 1542.88802113 570.125 1564.5 C570.95773437 1565.42683594 571.79046875 1566.35367187 572.6484375 1567.30859375 C585.97706216 1581.39941249 603.97187266 1591.90108361 623.70703125 1592.6328125 C635.43452967 1592.19319293 645.32993747 1588.24347897 654.125 1580.5 C654.71796875 1579.98824219 655.3109375 1579.47648437 655.921875 1578.94921875 C661.06500402 1574.18158366 664.55788156 1568.49579482 668.125 1562.5 C681.97583116 1574.72132161 688.57135817 1596.68107087 690.125 1614.5 C691.73988764 1641.95308983 684.9468809 1669.70209432 666.5859375 1690.8203125 C665.77382812 1691.70460938 664.96171875 1692.58890625 664.125 1693.5 C663.68704102 1693.9856543 663.24908203 1694.47130859 662.79785156 1694.97167969 C642.67764219 1717.07977143 614.73337433 1727.74145149 585.19433594 1729.32080078 C545.32465747 1730.9230402 506.39158917 1716.8827121 472.63671875 1696.57739258 C471.71503906 1696.0336499 470.79335937 1695.48990723 469.84375 1694.9296875 C468.62075195 1694.19081299 468.62075195 1694.19081299 467.37304688 1693.43701172 C464.67097024 1692.31075519 463.80593477 1692.41371436 461.125 1693.5 C459.45614429 1694.33024875 457.81215781 1695.21128267 456.1875 1696.125 C455.22070312 1696.66229736 454.25390625 1697.19959473 453.2578125 1697.75317383 C452.22398437 1698.32962646 451.19015625 1698.9060791 450.125 1699.5 C408.57511706 1722.25217286 360.42315966 1737.71835337 313.11499023 1724.8034668 C299.71926133 1720.78573737 286.85686787 1714.51268515 276.125 1705.5 C275.26648438 1704.77941406 274.40796875 1704.05882812 273.5234375 1703.31640625 C252.59538932 1685.07549417 239.87523461 1660.78716978 237.37890625 1632.98828125 C235.73316334 1608.92656737 241.89443698 1585.54353889 255.328125 1565.52734375 C255.92109375 1564.85832031 256.5140625 1564.18929688 257.125 1563.5 C258.115 1563.5 259.105 1563.5 260.125 1563.5 C261.67147669 1565.49303682 263.02522061 1567.44285924 264.375 1569.5625 C272.26286199 1581.35217564 282.03773468 1589.77157009 296.28125 1593.06640625 C313.37841336 1595.67325396 328.78260774 1590.08856201 342.86328125 1580.66796875 C345.02348231 1579.01517243 347.07823513 1577.2904024 349.125 1575.5 C349.77339844 1574.99339844 350.42179687 1574.48679687 351.08984375 1573.96484375 C365.6767289 1562.20868086 375.20684098 1543.9489853 380.625 1526.3125 C380.85606445 1525.56669678 381.08712891 1524.82089355 381.32519531 1524.05249023 C385.42338171 1509.51450048 385.41819961 1494.52778396 385.39242554 1479.5589447 C385.39616908 1477.4785019 385.40077338 1475.3980605 385.40615618 1473.31762129 C385.41831455 1467.6403639 385.41813422 1461.96316575 385.41576743 1456.28589833 C385.41535744 1450.14729552 385.42641569 1444.00871124 385.43588257 1437.87011719 C385.45245407 1425.85825301 385.45801637 1413.8464138 385.45910732 1401.83454119 C385.46002881 1392.06490356 385.46415792 1382.29527225 385.47050858 1372.52563667 C385.47230385 1369.70654427 385.47408348 1366.88745185 385.47585833 1364.06835943 C385.47630043 1363.36738915 385.47674252 1362.66641887 385.47719802 1361.94420706 C385.48949504 1342.24484082 385.4974003 1322.54547678 385.49651146 1302.84610653 C385.4964803 1302.10439838 385.49644914 1301.36269023 385.49641704 1300.59850607 C385.49625084 1296.83980505 385.49605277 1293.08110403 385.49584763 1289.32240301 C385.49580774 1288.57600345 385.49576785 1287.8296039 385.49572675 1287.06058617 C385.49564587 1285.55118613 385.49556228 1284.04178609 385.49547596 1282.53238605 C385.49425106 1259.06005875 385.50925726 1235.58778928 385.53662109 1212.11547852 C385.56740158 1185.70196349 385.58455001 1159.28848646 385.58269465 1132.87495238 C385.58254541 1130.05365948 385.58244798 1127.23236658 385.58238602 1124.41107368 C385.58236271 1123.71647743 385.5823394 1123.02188117 385.58231538 1122.30623654 C385.58225407 1111.17223547 385.59497618 1100.038285 385.61225055 1088.90429893 C385.62927791 1077.69703791 385.63078511 1066.48984924 385.6180319 1055.28257596 C385.61152847 1049.22197655 385.61128974 1043.16155877 385.6287384 1037.10097694 C385.64459071 1031.5373133 385.64148277 1025.97397346 385.62417014 1020.41031713 C385.6211268 1018.41308968 385.62463005 1016.41583732 385.63589029 1014.41863929 C385.73499342 995.5708911 382.80182754 977.38412509 377.9375 959.1875 C377.49531128 957.51530396 377.49531128 957.51530396 377.04418945 955.80932617 C368.9847234 926.11183237 356.82969369 897.982012 343.125 870.5 C342.61066406 869.4672998 342.09632813 868.43459961 341.56640625 867.37060547 C322.15928533 828.65920684 298.06515839 792.56738838 270.125 759.5 C269.58037109 758.85095703 269.03574219 758.20191406 268.47460938 757.53320312 C263.17114931 751.21650643 257.85064308 745.03799402 251.921875 739.29296875 C250.03792706 737.41311635 248.29871518 735.45412161 246.5625 733.4375 C241.55327872 727.63496313 236.14382917 722.42927069 230.3359375 717.43359375 C227.8437611 715.25404019 225.42661332 713.0022672 223 710.75 C214.21800912 702.75427552 204.75684199 695.65116256 195.171875 688.65234375 C194.48915527 688.15279175 193.80643555 687.65323975 193.10302734 687.1385498 C191.4442297 685.92495486 189.7846938 684.7123691 188.125 683.5 C188.03345859 733.79484419 187.96296844 784.08967997 187.92073868 834.38459107 C187.91573581 840.32141697 187.91055853 846.2582427 187.90527344 852.19506836 C187.9042242 853.37699102 187.90317495 854.55891367 187.90209392 855.77665216 C187.88468536 874.91798241 187.85314516 894.05926465 187.81638882 913.2005664 C187.77899199 932.83909237 187.7567668 952.47759318 187.74864602 972.1161533 C187.74315565 984.23567683 187.72581033 996.35506463 187.69333413 1008.47454638 C187.67220181 1016.783621 187.66579707 1025.09262538 187.67099449 1033.40172493 C187.67355824 1038.19673895 187.66960865 1042.99151567 187.6481781 1047.78648758 C187.62869352 1052.17813816 187.62774236 1056.56939217 187.64140442 1060.96106113 C187.64309262 1062.54802897 187.63803453 1064.1350217 187.62546727 1065.72194069 C187.56351009 1074.03002665 187.68512351 1081.21913444 192.125 1088.5 C192.82882812 1089.67949219 192.82882812 1089.67949219 193.546875 1090.8828125 C205.01380911 1105.92473195 223.5057768 1115.40285611 242.09765625 1118.21484375 C261.57297022 1120.04929268 279.09909143 1116.53700571 294.875 1104.25 C302.46706166 1097.74095578 308.05330275 1090.05848911 313.125 1081.5 C319.43844567 1083.60448189 322.9343849 1093.12961823 325.83984375 1098.9140625 C338.50374341 1126.94864954 338.19022237 1158.41910924 327.85546875 1187.0703125 C321.7770575 1203.07130046 312.84847983 1216.04648662 301.125 1228.5 C300.31675781 1229.40492188 300.31675781 1229.40492188 299.4921875 1230.328125 C280.46387266 1250.79073493 250.83553035 1260.66864548 223.53125 1261.7890625 C186.28666193 1262.65264094 146.91257737 1251.16701181 116.01806641 1230.15454102 C113.21183634 1228.33239249 111.45675727 1227.49489604 108.078125 1227.546875 C104.75644653 1228.61895112 102.15853461 1230.03917786 99.1875 1231.875 C61.29635857 1254.38556944 14.14578512 1269.1741294 -29.875 1258.5 C-47.56874549 1253.84829472 -63.04622959 1246.57829315 -76.875 1234.5 C-77.55691406 1233.94957031 -78.23882813 1233.39914062 -78.94140625 1232.83203125 C-100.15765588 1215.35249878 -112.99655818 1187.2748934 -116.875 1160.5 C-117.77059635 1144.10008666 -118.12723333 1127.22072578 -112.875 1111.5 C-112.66069336 1110.84692871 -112.44638672 1110.19385742 -112.22558594 1109.52099609 C-104.56699785 1086.94098128 -104.56699785 1086.94098128 -96.6328125 1082.14453125 C-96.05273438 1081.93183594 -95.47265625 1081.71914062 -94.875 1081.5 C-94.47410156 1082.17804688 -94.07320312 1082.85609375 -93.66015625 1083.5546875 C-83.41118029 1100.33419009 -69.96547789 1112.15013281 -50.75 1117.3125 C-31.1114155 1121.35164149 -9.62296453 1117.36854997 7.26171875 1106.4765625 C9.94501076 1104.54917785 12.54964554 1102.56865871 15.125 1100.5 C15.97707031 1099.85675781 16.82914063 1099.21351562 17.70703125 1098.55078125 C20.16455737 1096.46644972 21.89631068 1094.44067595 23.75 1091.8125 C24.31976562 1091.02488281 24.88953125 1090.23726562 25.4765625 1089.42578125 C30.82250636 1079.93736431 30.5436173 1070.7108922 30.48576355 1060.16917419 C30.48707273 1058.39599073 30.48970122 1056.62280784 30.49353105 1054.84962803 C30.50022585 1049.99001381 30.48825715 1045.13059867 30.47319686 1040.2710098 C30.46022629 1035.02572038 30.46462669 1029.78044194 30.46690369 1024.53514099 C30.46847577 1015.45159183 30.45907329 1006.36810739 30.44219017 997.28457451 C30.41779601 984.15136434 30.40999447 971.01818542 30.4062262 957.88495506 C30.39966237 936.57652457 30.37970306 915.26812856 30.35131836 893.9597168 C30.32377602 873.2621274 30.30254328 852.56454738 30.28979492 831.86694336 C30.28900675 830.59087376 30.28821858 829.31480417 30.28740653 828.0000658 C30.28349138 821.59831907 30.27970026 815.19657227 30.27597082 808.79482543 C30.24487706 755.69652646 30.19204311 702.59826491 30.125 649.5 C28.06663778 650.73248082 26.01281527 651.97164722 23.9609375 653.21484375 C23.09843384 653.72984436 23.09843384 653.72984436 22.21850586 654.25524902 C16.56913105 657.69165217 11.86529388 661.90309579 7.125 666.5 C6.52429688 667.02722656 5.92359375 667.55445313 5.3046875 668.09765625 C-14.8060721 686.38441673 -23.40653204 716.83641685 -24.75170898 743.02978516 C-25.41777146 761.84558869 -21.56454138 779.75059416 -12.875 796.5 C-12.36195313 797.50804687 -11.84890625 798.51609375 -11.3203125 799.5546875 C-7.7732637 806.08872476 -3.59496261 811.37863456 1.5690918 816.66821289 C5.125 820.31990732 5.125 820.31990732 5.125 822.5 C-2.24275868 822.02773037 -9.13771882 820.97607002 -16.25 819 C-17.19117676 818.73936768 -18.13235352 818.47873535 -19.10205078 818.21020508 C-40.5286893 812.01508847 -60.81922789 801.9188956 -77.875 787.5 C-78.38514648 787.06961426 -78.89529297 786.63922852 -79.42089844 786.19580078 C-107.28754574 762.36690168 -123.26766907 728.84111784 -126.875 692.5 C-127.03382954 689.60409978 -127.08429027 686.71234939 -127.11328125 683.8125 C-127.12302979 683.00055679 -127.13277832 682.18861359 -127.14282227 681.35206604 C-127.31398813 663.39837152 -127.14601763 646.05077112 -122.875 628.5 C-122.69839844 627.74396484 -122.52179687 626.98792969 -122.33984375 626.20898438 C-116.52852215 602.03819122 -104.63670751 579.5961379 -88.875 560.5 C-88.19099121 559.65574463 -88.19099121 559.65574463 -87.49316406 558.79443359 C-60.40070315 525.44486005 -22.70185053 503.36747556 18.125 491 C18.96772461 490.74460449 19.81044922 490.48920898 20.67871094 490.22607422 C24.41512384 489.13698869 27.17061264 488.5 31.125 488.5 C31.06611021 449.79795422 30.99155553 411.0959688 30.89601372 372.39399553 C30.88474565 367.82410602 30.87360719 363.2542162 30.86254883 358.68432617 C30.8592433 357.3196611 30.8592433 357.3196611 30.855871 355.92742705 C30.82050574 341.19953549 30.79563725 326.47164399 30.77465298 311.74372572 C30.7528848 296.62973244 30.71982468 281.51579422 30.67629844 266.40184778 C30.64979928 257.07693383 30.63209112 247.75208848 30.62565396 238.42713874 C30.62039477 232.03129033 30.60415995 225.63552822 30.57933434 219.23972607 C30.56533753 215.55055862 30.55614171 211.86154559 30.55999184 208.17234993 C30.56404356 204.16849289 30.54496357 200.16507283 30.52372742 196.16127014 C30.52857499 195.00074648 30.53342257 193.84022283 30.53841704 192.64453179 C30.42828659 180.06276527 26.76363006 172.46858185 18.16015625 163.4375 C3.59892073 149.55416185 -16.58753966 142.48265446 -36.54296875 142.50390625 C-54.12065863 143.40483474 -70.31099973 149.97465819 -82.875 162.5 C-87.64986643 168.20045592 -91.77519113 174.30901345 -95.875 180.5 C-100.0230668 176.71643819 -102.70434902 172.89368051 -105.3125 167.9375 C-105.69792969 167.20805176 -106.08335937 166.47860352 -106.48046875 165.72705078 C-119.08933482 140.79827183 -121.0771671 109.13033104 -112.875 82.5 C-112.66601074 81.81341309 -112.45702148 81.12682617 -112.24169922 80.41943359 C-103.23616123 51.90526949 -83.41653318 27.25487485 -56.95361328 13.21240234 C-38.86261773 4.01574464 -20.19654501 -0.12911364 0 0 Z M187.125 403.5 C187.125 442.44 187.125 481.38 187.125 521.5 C194.715 525.79 202.305 530.08 210.125 534.5 C233.8858482 548.14984897 256.30199636 563.56201353 277.38964844 581.06884766 C278.92660365 582.33638163 280.48158166 583.58199207 282.0390625 584.82421875 C288.86227936 590.268703 295.2036577 596.15350392 301.546875 602.140625 C304.46693322 604.89452606 307.43422433 607.5867178 310.4375 610.25 C317.43474431 616.51497455 324.05279039 623.11010385 330.15625 630.25 C332.20261886 632.58870727 334.30864389 634.86035751 336.42993164 637.13085938 C341.39312142 642.44674356 346.1776982 647.8390174 350.73046875 653.515625 C352.50740685 655.73027542 354.29995802 657.92492381 356.11328125 660.109375 C376.7456762 685.04201523 395.05812929 712.41678184 411.125 740.5 C411.54362305 741.22977051 411.96224609 741.95954102 412.39355469 742.71142578 C428.08963248 770.21315274 442.15901959 798.5769236 454.3125 827.8125 C454.64077789 828.60216156 454.96905579 829.39182312 455.30728149 830.20541382 C456.24389937 832.46479103 457.17603199 834.72594141 458.10546875 836.98828125 C458.38196259 837.65904694 458.65845642 838.32981262 458.94332886 839.02090454 C460.48713181 842.80520193 461.87728139 846.60815426 463.125 850.5 C463.785 850.5 464.445 850.5 465.125 850.5 C465.37967041 849.82461182 465.63434082 849.14922363 465.89672852 848.45336914 C471.52216961 833.62626938 477.52764628 819.04670529 484.125 804.625 C484.45146515 803.91095001 484.7779303 803.19690002 485.11428833 802.46121216 C490.50734085 790.68907597 490.50734085 790.68907597 492.82397461 786.22924805 C494.30266309 783.6295583 494.30266309 783.6295583 494.12890625 781.01171875 C492.74596846 777.55168374 490.52197701 775.0464321 488.0625 772.3125 C487.05230511 771.15589058 486.0431982 769.99833004 485.03515625 768.83984375 C484.53773926 768.27249512 484.04032227 767.70514648 483.52783203 767.12060547 C481.62314296 764.92023547 479.80670848 762.65619758 478 760.375 C474.59415811 756.08157507 471.13497297 751.83538299 467.66015625 747.59765625 C464.72151361 744.01093901 461.79814394 740.41185155 458.875 736.8125 C458.32658447 736.13727295 457.77816895 735.4620459 457.21313477 734.76635742 C454.94784416 731.97691626 452.68291574 729.18718111 450.41796875 726.39746094 C444.4577439 719.0567932 438.49249562 711.72061966 432.5 704.40625 C428.96419565 700.07954205 425.44390935 695.74026221 421.921875 691.40234375 C418.83020667 687.59554653 415.73295137 683.79352888 412.625 680 C406.19734773 672.15310335 399.8114151 664.27222638 393.41796875 656.39746094 C385.53543459 646.68736387 385.53543459 646.68736387 377.625 637 C371.19734773 629.15310335 364.8114151 621.27222638 358.41796875 613.39746094 C350.53543459 603.68736387 350.53543459 603.68736387 342.625 594 C336.19734773 586.15310335 329.8114151 578.27222638 323.41796875 570.39746094 C317.4577439 563.0567932 311.49249562 555.72061966 305.5 548.40625 C301.96419565 544.07954205 298.44390935 539.74026221 294.921875 535.40234375 C291.83020667 531.59554653 288.73295137 527.79352888 285.625 524 C279.19734773 516.15310335 272.8114151 508.27222638 266.41796875 500.39746094 C258.53543459 490.68736387 258.53543459 490.68736387 250.625 481 C244.19734773 473.15310335 237.8114151 465.27222638 231.41796875 457.39746094 C223.53543459 447.68736387 223.53543459 447.68736387 215.625 438 C214.12485011 436.16678931 212.62486544 434.33344342 211.125 432.5 C210.39047607 431.6032959 210.39047607 431.6032959 209.64111328 430.68847656 C203.33794441 422.98822344 197.07664258 415.27308351 191.10766602 407.30908203 C190.13541869 406.02248364 189.13345755 404.75841712 188.125 403.5 C187.795 403.5 187.465 403.5 187.125 403.5 Z M727.8125 691.3125 C727.19020508 691.80733887 726.56791016 692.30217773 725.92675781 692.81201172 C716.04229034 700.71408599 706.44720351 708.94125281 697.125 717.5 C696.56554688 718.00901855 696.00609375 718.51803711 695.4296875 719.04248047 C686.53184444 727.14756358 678.14510852 735.5284019 670.125 744.5 C669.21154525 745.51226751 668.29749637 746.52399924 667.3828125 747.53515625 C665.29109426 749.85168533 663.20508842 752.1730324 661.125 754.5 C662.75668522 758.35335832 665.339891 761.26028252 668.0625 764.375 C672.02167524 768.97214041 675.84903483 773.63990011 679.5625 778.4375 C683.81489057 783.91532377 688.24167605 789.21014663 692.77832031 794.45410156 C697.33156816 799.71925787 701.74132017 805.09292433 706.125 810.5 C711.50684865 817.09480318 716.90630564 823.67514806 722.3125 830.25 C722.89475342 830.95914551 723.47700684 831.66829102 724.0769043 832.39892578 C727.70796446 836.81157565 731.34110791 841.21719473 735.125 845.5 C735.455 845.5 735.785 845.5 736.125 845.5 C736.125 793.03 736.125 740.56 736.125 686.5 C732.71062123 686.5 730.38289305 689.24914906 727.8125 691.3125 Z " fill="#FF5910" transform="translate(735.875,135.5)"/>
<path d="M0 0 C5.28 0 10.56 0 16 0 C16.84884766 2.36478516 16.84884766 2.36478516 17.71484375 4.77734375 C18.45558186 6.83078231 19.19647528 8.88416485 19.9375 10.9375 C20.49727539 12.49887695 20.49727539 12.49887695 21.06835938 14.09179688 C21.60493164 15.57583008 21.60493164 15.57583008 22.15234375 17.08984375 C22.48226318 18.00628662 22.81218262 18.92272949 23.15209961 19.86694336 C23.81655068 21.9485164 23.81655068 21.9485164 25 23 C25.3556604 22.00818726 25.3556604 22.00818726 25.71850586 20.99633789 C26.78859637 18.01733807 27.86298824 15.03990779 28.9375 12.0625 C29.31068359 11.02158203 29.68386719 9.98066406 30.06835938 8.90820312 C30.42607422 7.91884766 30.78378906 6.92949219 31.15234375 5.91015625 C31.48226318 4.99371338 31.81218262 4.07727051 32.15209961 3.13305664 C33 1 33 1 34 0 C38.95 0 43.9 0 49 0 C49 13.53 49 27.06 49 41 C46.03 41 43.06 41 40 41 C39.505 28.13 39.505 28.13 39 15 C38.04287109 17.68962891 38.04287109 17.68962891 37.06640625 20.43359375 C36.23191921 22.76828221 35.39727573 25.10291475 34.5625 27.4375 C34.14162109 28.62150391 33.72074219 29.80550781 33.28710938 31.02539062 C32.88427734 32.15009766 32.48144531 33.27480469 32.06640625 34.43359375 C31.69459229 35.47572021 31.32277832 36.51784668 30.93969727 37.59155273 C30 40 30 40 29 41 C27.48071962 41.07179964 25.95832518 41.08392007 24.4375 41.0625 C23.61121094 41.05347656 22.78492188 41.04445313 21.93359375 41.03515625 C21.29550781 41.02355469 20.65742187 41.01195312 20 41 C16.29437924 32.12830794 13.1687377 23.0741125 10 14 C9.67 22.91 9.34 31.82 9 41 C6.03 41 3.06 41 0 41 C0 27.47 0 13.94 0 0 Z " fill="#FF5910" transform="translate(1855,1187)"/>
<path d="M0 0 C11.22 0 22.44 0 34 0 C34 2.64 34 5.28 34 8 C29.71 8 25.42 8 21 8 C21 18.89 21 29.78 21 41 C18.03 41 15.06 41 12 41 C12 30.11 12 19.22 12 8 C8.04 8 4.08 8 0 8 C0 5.36 0 2.72 0 0 Z " fill="#FF5910" transform="translate(1815,1187)"/>
</svg>