<svg xmlns="http://www.w3.org/2000/svg" version="1.1" viewBox="173.68 33.16 732.57 734.39">
<path d="M0 0 C43.90945975 34.52127538 58.11444326 95.13639139 64.53125 147.83984375 C64.61442474 148.52127441 64.69759949 149.20270508 64.78329468 149.90478516 C67.12932809 169.39245947 67.5254923 188.67054443 67.53125 208.27734375 C67.53169186 208.96651634 67.53213371 209.65568893 67.53258896 210.36574554 C67.54016051 232.91741911 66.97672477 255.24267714 64.28125 277.65234375 C64.19639343 278.37417847 64.11153687 279.09601318 64.02410889 279.83972168 C55.89616788 348.77719211 38.46092052 416.55757073 9.28125 479.65234375 C8.57814697 481.1839917 8.57814697 481.1839917 7.86083984 482.74658203 C-5.83824534 512.44879481 -21.92123702 541.27937791 -42.71875 566.65234375 C-43.13898437 567.16732422 -43.55921875 567.68230469 -43.9921875 568.21289062 C-53.40043465 579.69484905 -63.18781837 591.25170288 -74.71875 600.65234375 C-75.82115775 601.60058071 -76.92262467 602.54991196 -78.0234375 603.5 C-113.12856686 633.37709274 -156.30260857 648.85802996 -202.45654297 645.45019531 C-219.50656157 643.73385916 -236.16727248 638.79590863 -251.71875 631.65234375 C-252.3478125 632.29300781 -252.976875 632.93367187 -253.625 633.59375 C-258.160791 638.17735807 -262.71914196 642.64647776 -267.625 646.83203125 C-270.02754136 648.92080788 -272.33285683 651.10091219 -274.65625 653.27734375 C-281.31516004 659.3459903 -288.44492288 664.75193563 -295.66992188 670.12548828 C-297.48182469 671.47577906 -299.28087612 672.84126869 -301.078125 674.2109375 C-339.79452752 702.96494864 -387.29044381 721.33025392 -436.0402832 714.93481445 C-460.55815519 710.93761206 -484.98827013 699.99112677 -503.71875 683.65234375 C-504.62753906 682.86859375 -505.53632813 682.08484375 -506.47265625 681.27734375 C-508.92972233 679.10955967 -511.33296098 676.89804195 -513.71875 674.65234375 C-514.61980469 673.83056641 -514.61980469 673.83056641 -515.5390625 672.9921875 C-545.90425245 644.25118213 -558.95704123 598.98136105 -562.71875 558.65234375 C-562.82960938 557.56695313 -562.94046875 556.4815625 -563.0546875 555.36328125 C-570.47948678 468.07172214 -543.11584959 378.39245076 -459.71875 200.65234375 C-467.22356948 201.78577075 -474.4975753 203.20309121 -481.78125 205.33984375 C-483.13114014 205.73502197 -483.13114014 205.73502197 -484.50830078 206.13818359 C-506.64806362 212.7416794 -528.98884394 221.42744797 -546.71875 236.65234375 C-547.99685547 237.72548828 -547.99685547 237.72548828 -549.30078125 238.8203125 C-558.2356532 246.57484807 -566.64435063 254.83586088 -571.71875 265.65234375 C-571.04070312 265.99265625 -570.36265625 266.33296875 -569.6640625 266.68359375 C-552.48098333 275.63212251 -540.14290793 288.50210953 -533.5859375 306.81640625 C-528.92606252 323.23907245 -529.70151043 339.61583656 -537.9296875 354.8359375 C-546.0730343 367.65548563 -557.16484318 375.09474861 -571.59082031 379.18286133 C-586.9101027 382.56273513 -603.73408529 379.22417789 -617.0703125 371.40234375 C-641.95216345 354.9612387 -657.17803302 328.70489492 -663.28735352 299.97875977 C-664.78989399 291.95919236 -665.06708848 284.11056633 -665.03125 275.96484375 C-665.02942719 275.30626373 -665.02760437 274.64768372 -665.02572632 273.96914673 C-664.97703836 263.49869788 -664.30945595 253.8053938 -661.71875 243.65234375 C-661.55777832 242.98589844 -661.39680664 242.31945312 -661.23095703 241.6328125 C-651.60994786 202.37244079 -624.67599162 166.80607288 -592.71875 142.65234375 C-592.11321289 142.18683105 -591.50767578 141.72131836 -590.88378906 141.24169922 C-564.05404379 120.71674768 -533.62195326 105.53916434 -501.71875 94.65234375 C-500.63207031 94.28012695 -499.54539062 93.90791016 -498.42578125 93.52441406 C-457.43533615 79.6919077 -414.76625178 72.83099147 -371.71875 69.65234375 C-370.44902344 69.55445557 -369.17929687 69.45656738 -367.87109375 69.35571289 C-353.48916045 68.34800089 -339.07754388 68.53622383 -324.66906738 68.5836792 C-321.16870744 68.59407672 -317.66833982 68.5985113 -314.16796875 68.60351562 C-307.35154427 68.61410546 -300.53514935 68.63107596 -293.71875 68.65234375 C-295.05457996 72.10447734 -296.45573126 74.9478692 -298.625 77.953125 C-299.19871338 78.7567749 -299.77242676 79.5604248 -300.36352539 80.38842773 C-300.97574951 81.23864502 -301.58797363 82.0888623 -302.21875 82.96484375 C-307.91438956 90.9904187 -313.29321818 99.12255925 -318.41308594 107.52392578 C-319.82493317 109.82543741 -321.25823725 112.11259827 -322.6953125 114.3984375 C-336.63838379 136.62652217 -349.46816324 159.45370431 -361.71875 182.65234375 C-362.31123535 183.76883301 -362.9037207 184.88532227 -363.51416016 186.03564453 C-400.81176215 256.47331297 -431.52978766 331.47439471 -467.71875 492.65234375 C-467.81446289 493.53559326 -467.91017578 494.41884277 -468.00878906 495.32885742 C-468.89823828 504.57163751 -468.96204346 513.81220497 -468.96875 523.08984375 C-468.96942474 523.93139008 -468.97009949 524.7729364 -468.97079468 525.63998413 C-468.95443676 538.50327066 -468.57495112 551.05525988 -465.71875 563.65234375 C-465.55246094 564.39629395 -465.38617188 565.14024414 -465.21484375 565.90673828 C-461.44082799 582.00571107 -454.31276036 598.83128096 -439.84375 607.96484375 C-420.27970158 618.72804364 -398.13165413 620.68254523 -376.71875 614.65234375 C-357.03654728 608.59287909 -340.3696416 598.01333139 -324.65625 584.90234375 C-323.87000244 584.24915161 -323.87000244 584.24915161 -323.06787109 583.58276367 C-319.51214532 580.54411934 -316.62094079 577.29472632 -313.71875 573.65234375 C-314.38519531 572.78996094 -315.05164063 571.92757812 -315.73828125 571.0390625 C-347.3916746 529.39504876 -361.39831493 478.20325703 -365.71875 426.65234375 C-365.83089844 425.40066406 -365.94304687 424.14898437 -366.05859375 422.859375 C-371.5394359 349.20586613 -357.59988147 273.0235631 -327.71875 205.65234375 C-327.34782227 204.81268066 -326.97689453 203.97301758 -326.59472656 203.10791016 C-309.83067556 165.5356503 -284.20464244 125.9509113 -248.71875 103.65234375 C-248.10451172 103.26353027 -247.49027344 102.8747168 -246.85742188 102.47412109 C-223.74864668 88.09335253 -196.56300674 80.69402211 -169.33984375 85.2734375 C-155.54647119 88.56453912 -142.63279964 95.70911643 -131.71875 104.65234375 C-130.81769531 105.3896875 -129.91664063 106.12703125 -128.98828125 106.88671875 C-95.49456127 135.79808212 -81.38400043 182.02730762 -78.18310547 224.75610352 C-72.68850276 312.03134008 -102.61015207 402.55906048 -186.71875 551.65234375 C-149.3767679 543.20980867 -120.04421031 518.17480687 -97.71875 487.65234375 C-96.90786469 486.57138001 -96.0966677 485.49065 -95.28515625 484.41015625 C-64.70360403 443.16489644 -44.428321 393.73808962 -33.71875 343.65234375 C-33.5017041 342.646875 -33.2846582 341.64140625 -33.06103516 340.60546875 C-26.29510778 308.72382414 -22.70042441 276.2144199 -21.71875 243.65234375 C-21.69538574 242.94932129 -21.67202148 242.24629883 -21.64794922 241.52197266 C-20.08900474 188.53096074 -30.22344788 129.58497225 -67.71875 89.65234375 C-85.01647083 71.91572552 -106.27143377 62.44717524 -129.71875 55.65234375 C-130.05674495 38.56247385 -121.84323024 23.18441129 -110.71875 10.65234375 C-110.19023438 9.98203125 -109.66171875 9.31171875 -109.1171875 8.62109375 C-80.77283798 -26.56499531 -34.00906924 -24.62290285 0 0 Z M-226.71875 214.65234375 C-227.92337891 215.71582031 -227.92337891 215.71582031 -229.15234375 216.80078125 C-265.75692374 251.17824951 -277.07197038 317.52749369 -278.80987549 365.14935303 C-280.14704684 410.81897888 -276.48117612 457.12749151 -255.71875 498.65234375 C-255.05875 498.65234375 -254.39875 498.65234375 -253.71875 498.65234375 C-232.97237727 460.7971064 -214.58463917 422.61597275 -200.71875 381.65234375 C-200.33912109 380.55776855 -199.95949219 379.46319336 -199.56835938 378.33544922 C-183.51970186 331.97342028 -162.69072063 263.99322469 -183.71875 216.65234375 C-187.30822554 210.3926486 -191.62782862 205.64997272 -198.71875 203.65234375 C-209.71738901 201.75946204 -218.81849865 207.63290945 -226.71875 214.65234375 Z " fill="#D11245" transform="translate(838.71875,51.34765625)"/>
<path d="M0 0 C43.90945975 34.52127538 58.11444326 95.13639139 64.53125 147.83984375 C64.61442474 148.52127441 64.69759949 149.20270508 64.78329468 149.90478516 C67.12932809 169.39245947 67.5254923 188.67054443 67.53125 208.27734375 C67.53169186 208.96651634 67.53213371 209.65568893 67.53258896 210.36574554 C67.54016051 232.91741911 66.97672477 255.24267714 64.28125 277.65234375 C64.19639343 278.37417847 64.11153687 279.09601318 64.02410889 279.83972168 C55.89616788 348.77719211 38.46092052 416.55757073 9.28125 479.65234375 C8.57814697 481.1839917 8.57814697 481.1839917 7.86083984 482.74658203 C-5.83824534 512.44879481 -21.92123702 541.27937791 -42.71875 566.65234375 C-43.13898437 567.16732422 -43.55921875 567.68230469 -43.9921875 568.21289062 C-53.40043465 579.69484905 -63.18781837 591.25170288 -74.71875 600.65234375 C-75.82115775 601.60058071 -76.92262467 602.54991196 -78.0234375 603.5 C-113.12856686 633.37709274 -156.30260857 648.85802996 -202.45654297 645.45019531 C-219.50656157 643.73385916 -236.16727248 638.79590863 -251.71875 631.65234375 C-252.3478125 632.29300781 -252.976875 632.93367187 -253.625 633.59375 C-258.160791 638.17735807 -262.71914196 642.64647776 -267.625 646.83203125 C-270.02754136 648.92080788 -272.33285683 651.10091219 -274.65625 653.27734375 C-281.31516004 659.3459903 -288.44492288 664.75193563 -295.66992188 670.12548828 C-297.48182469 671.47577906 -299.28087612 672.84126869 -301.078125 674.2109375 C-339.79452752 702.96494864 -387.29044381 721.33025392 -436.0402832 714.93481445 C-460.55815519 710.93761206 -484.98827013 699.99112677 -503.71875 683.65234375 C-504.62753906 682.86859375 -505.53632813 682.08484375 -506.47265625 681.27734375 C-508.92972233 679.10955967 -511.33296098 676.89804195 -513.71875 674.65234375 C-514.61980469 673.83056641 -514.61980469 673.83056641 -515.5390625 672.9921875 C-545.90425245 644.25118213 -558.95704123 598.98136105 -562.71875 558.65234375 C-562.82960938 557.56695313 -562.94046875 556.4815625 -563.0546875 555.36328125 C-570.47948678 468.07172214 -543.11584959 378.39245076 -459.71875 200.65234375 C-467.22356948 201.78577075 -474.4975753 203.20309121 -481.78125 205.33984375 C-483.13114014 205.73502197 -483.13114014 205.73502197 -484.50830078 206.13818359 C-506.64806362 212.7416794 -528.98884394 221.42744797 -546.71875 236.65234375 C-547.99685547 237.72548828 -547.99685547 237.72548828 -549.30078125 238.8203125 C-558.2356532 246.57484807 -566.64435063 254.83586088 -571.71875 265.65234375 C-571.04070312 265.99265625 -570.36265625 266.33296875 -569.6640625 266.68359375 C-552.48098333 275.63212251 -540.14290793 288.50210953 -533.5859375 306.81640625 C-528.92606252 323.23907245 -529.70151043 339.61583656 -537.9296875 354.8359375 C-546.0730343 367.65548563 -557.16484318 375.09474861 -571.59082031 379.18286133 C-586.9101027 382.56273513 -603.73408529 379.22417789 -617.0703125 371.40234375 C-641.95216345 354.9612387 -657.17803302 328.70489492 -663.28735352 299.97875977 C-664.78989399 291.95919236 -665.06708848 284.11056633 -665.03125 275.96484375 C-665.02942719 275.30626373 -665.02760437 274.64768372 -665.02572632 273.96914673 C-664.97703836 263.49869788 -664.30945595 253.8053938 -661.71875 243.65234375 C-661.55777832 242.98589844 -661.39680664 242.31945312 -661.23095703 241.6328125 C-651.60994786 202.37244079 -624.67599162 166.80607288 -592.71875 142.65234375 C-592.11321289 142.18683105 -591.50767578 141.72131836 -590.88378906 141.24169922 C-564.05404379 120.71674768 -533.62195326 105.53916434 -501.71875 94.65234375 C-500.63207031 94.28012695 -499.54539062 93.90791016 -498.42578125 93.52441406 C-457.43533615 79.6919077 -414.76625178 72.83099147 -371.71875 69.65234375 C-370.44902344 69.55445557 -369.17929687 69.45656738 -367.87109375 69.35571289 C-353.48916045 68.34800089 -339.07754388 68.53622383 -324.66906738 68.5836792 C-321.16870744 68.59407672 -317.66833982 68.5985113 -314.16796875 68.60351562 C-307.35154427 68.61410546 -300.53514935 68.63107596 -293.71875 68.65234375 C-295.05457996 72.10447734 -296.45573126 74.9478692 -298.625 77.953125 C-299.19871338 78.7567749 -299.77242676 79.5604248 -300.36352539 80.38842773 C-300.97574951 81.23864502 -301.58797363 82.0888623 -302.21875 82.96484375 C-307.91438956 90.9904187 -313.29321818 99.12255925 -318.41308594 107.52392578 C-319.82493317 109.82543741 -321.25823725 112.11259827 -322.6953125 114.3984375 C-336.63838379 136.62652217 -349.46816324 159.45370431 -361.71875 182.65234375 C-362.31123535 183.76883301 -362.9037207 184.88532227 -363.51416016 186.03564453 C-400.81176215 256.47331297 -431.52978766 331.47439471 -467.71875 492.65234375 C-467.81446289 493.53559326 -467.91017578 494.41884277 -468.00878906 495.32885742 C-468.89823828 504.57163751 -468.96204346 513.81220497 -468.96875 523.08984375 C-468.96942474 523.93139008 -468.97009949 524.7729364 -468.97079468 525.63998413 C-468.95443676 538.50327066 -468.57495112 551.05525988 -465.71875 563.65234375 C-465.55246094 564.39629395 -465.38617188 565.14024414 -465.21484375 565.90673828 C-461.44082799 582.00571107 -454.31276036 598.83128096 -439.84375 607.96484375 C-420.27970158 618.72804364 -398.13165413 620.68254523 -376.71875 614.65234375 C-357.03654728 608.59287909 -340.3696416 598.01333139 -324.65625 584.90234375 C-323.87000244 584.24915161 -323.87000244 584.24915161 -323.06787109 583.58276367 C-319.51214532 580.54411934 -316.62094079 577.29472632 -313.71875 573.65234375 C-314.38519531 572.78996094 -315.05164063 571.92757812 -315.73828125 571.0390625 C-347.3916746 529.39504876 -361.39831493 478.20325703 -365.71875 426.65234375 C-365.83089844 425.40066406 -365.94304687 424.14898437 -366.05859375 422.859375 C-371.5394359 349.20586613 -357.59988147 273.0235631 -327.71875 205.65234375 C-327.34782227 204.81268066 -326.97689453 203.97301758 -326.59472656 203.10791016 C-309.83067556 165.5356503 -284.20464244 125.9509113 -248.71875 103.65234375 C-248.10451172 103.26353027 -247.49027344 102.8747168 -246.85742188 102.47412109 C-223.74864668 88.09335253 -196.56300674 80.69402211 -169.33984375 85.2734375 C-155.54647119 88.56453912 -142.63279964 95.70911643 -131.71875 104.65234375 C-130.81769531 105.3896875 -129.91664063 106.12703125 -128.98828125 106.88671875 C-95.49456127 135.79808212 -81.38400043 182.02730762 -78.18310547 224.75610352 C-72.68850276 312.03134008 -102.61015207 402.55906048 -186.71875 551.65234375 C-149.3767679 543.20980867 -120.04421031 518.17480687 -97.71875 487.65234375 C-96.90786469 486.57138001 -96.0966677 485.49065 -95.28515625 484.41015625 C-64.70360403 443.16489644 -44.428321 393.73808962 -33.71875 343.65234375 C-33.5017041 342.646875 -33.2846582 341.64140625 -33.06103516 340.60546875 C-26.29510778 308.72382414 -22.70042441 276.2144199 -21.71875 243.65234375 C-21.69538574 242.94932129 -21.67202148 242.24629883 -21.64794922 241.52197266 C-20.08900474 188.53096074 -30.22344788 129.58497225 -67.71875 89.65234375 C-85.01647083 71.91572552 -106.27143377 62.44717524 -129.71875 55.65234375 C-130.05674495 38.56247385 -121.84323024 23.18441129 -110.71875 10.65234375 C-110.19023438 9.98203125 -109.66171875 9.31171875 -109.1171875 8.62109375 C-80.77283798 -26.56499531 -34.00906924 -24.62290285 0 0 Z M-97.71875 20.65234375 C-106.61850336 31.186087 -106.61850336 31.186087 -110.71875 43.65234375 C-109.57019531 44.14863281 -108.42164063 44.64492187 -107.23828125 45.15625 C-89.04552373 53.08204128 -73.25413068 61.90141219 -58.71875 75.65234375 C-57.90664063 76.4 -57.09453125 77.14765625 -56.2578125 77.91796875 C-35.55789233 97.63839743 -22.52568088 125.09427412 -15.30419922 152.44384766 C-14.69230257 154.75211165 -14.0510561 157.05119825 -13.41015625 159.3515625 C-6.58418878 184.50674964 -5.45010905 210.27756255 -5.34375 236.21484375 C-5.33885559 237.31607574 -5.33396118 238.41730774 -5.32891846 239.5519104 C-5.28745577 262.37096336 -7.42277494 284.7205847 -10.41702271 307.31817627 C-10.70537 309.54883582 -10.97261074 311.78074046 -11.23022461 314.01513672 C-12.2249902 322.59186841 -13.65408253 330.97441746 -15.53125 339.40234375 C-15.7984082 340.6155127 -16.06556641 341.82868164 -16.34082031 343.07861328 C-17.12373413 346.60545808 -17.91990074 350.12908023 -18.71875 353.65234375 C-18.91839355 354.55500977 -19.11803711 355.45767578 -19.32373047 356.38769531 C-33.06408774 418.13963104 -63.02659053 477.79525746 -106.71875 523.65234375 C-107.91371094 524.92658203 -107.91371094 524.92658203 -109.1328125 526.2265625 C-126.39801653 544.1385087 -147.9823311 558.11877539 -171.71875 565.65234375 C-172.39292969 565.87792969 -173.06710937 566.10351562 -173.76171875 566.3359375 C-186.48624978 569.90471313 -199.56227324 568.07288075 -211.71875 563.65234375 C-212.37875 563.65234375 -213.03875 563.65234375 -213.71875 563.65234375 C-213.3877832 563.17104004 -213.05681641 562.68973633 -212.71582031 562.19384766 C-209.29972058 557.22251738 -205.89439772 552.2439437 -202.49707031 547.25976562 C-201.38883697 545.6348436 -200.27907814 544.01095963 -199.16699219 542.38867188 C-185.89022618 522.99444226 -174.04730858 502.74638686 -162.98535156 482.01806641 C-161.86436969 479.9243281 -160.72959229 477.83922053 -159.5859375 475.7578125 C-136.37346085 433.31726288 -118.12611148 386.7593279 -106.5078125 339.81787109 C-105.80619071 337.00313467 -105.08025453 334.19638231 -104.34375 331.390625 C-100.60227527 316.84060483 -98.33551377 302.05450968 -96.22363281 287.19628906 C-95.92657076 285.11110882 -95.62376525 283.02670788 -95.30761719 280.94433594 C-88.06925634 232.92647737 -94.70706381 176.70704734 -123.80078125 136.7199707 C-136.66061202 119.60032099 -153.28617534 105.31967583 -174.71875 100.65234375 C-178.58404656 100.23465771 -182.39582074 100.17424924 -186.28125 100.21484375 C-187.3333667 100.22459229 -188.3854834 100.23434082 -189.46948242 100.24438477 C-215.62161459 100.83254357 -237.77436319 113.1203262 -256.61328125 130.69921875 C-258.33132461 132.29295099 -260.06740335 133.76693301 -261.90625 135.21484375 C-265.58524834 138.40330898 -268.61749234 141.90666891 -271.71875 145.65234375 C-272.15493652 146.17618652 -272.59112305 146.7000293 -273.04052734 147.23974609 C-285.06709813 161.74585403 -294.90675319 177.00787315 -303.71875 193.65234375 C-304.07179199 194.3184668 -304.42483398 194.98458984 -304.78857422 195.67089844 C-313.88201199 212.98717199 -321.4057581 231.14951153 -327.71875 249.65234375 C-328.13157227 250.85842285 -328.13157227 250.85842285 -328.55273438 252.08886719 C-347.98055807 309.89683211 -355.79374168 374.00340441 -348.71875 434.65234375 C-348.61159668 435.58820313 -348.50444336 436.5240625 -348.39404297 437.48828125 C-342.50612861 487.53983856 -326.62225822 536.3039038 -291.71875 573.65234375 C-293.93241888 578.62897389 -297.64845807 581.92326018 -301.46875 585.71484375 C-302.23300293 586.47418213 -302.99725586 587.23352051 -303.78466797 588.01586914 C-310.37356949 594.47118407 -317.216318 600.29406672 -324.71875 605.65234375 C-325.30833496 606.07563965 -325.89791992 606.49893555 -326.50537109 606.93505859 C-354.72961574 626.97616654 -386.46395506 638.30643067 -421.35546875 632.40234375 C-439.62566484 628.32815368 -456.06221375 619.95964673 -466.46875 603.90234375 C-490.27076319 565.38336903 -487.38157159 516.92625733 -481.71875 473.65234375 C-481.59016602 472.65299805 -481.46158203 471.65365234 -481.32910156 470.62402344 C-478.70647756 451.11784033 -473.82643242 431.96393519 -469.24401855 412.84521484 C-468.76120741 410.82959331 -468.28134044 408.81326714 -467.80175781 406.796875 C-465.24507022 396.08601811 -462.54778852 385.55209495 -458.91015625 375.15234375 C-457.90065318 372.18672161 -456.99973926 369.2157757 -456.15307617 366.20043945 C-442.25054606 316.84676096 -421.62141931 268.91089884 -399.71875 222.65234375 C-398.9747998 221.07984863 -398.9747998 221.07984863 -398.21582031 219.47558594 C-387.65138143 197.20002213 -376.71102263 175.19625061 -364.71875 153.65234375 C-363.94144531 152.25048828 -363.94144531 152.25048828 -363.1484375 150.8203125 C-352.25583722 131.20826617 -340.64378769 112.07035818 -328.50390625 93.20703125 C-327.93542969 92.32273437 -327.36695313 91.4384375 -326.78125 90.52734375 C-326.19472656 89.61726563 -325.60820313 88.7071875 -325.00390625 87.76953125 C-323.63226736 85.92265641 -323.63226736 85.92265641 -323.71875 84.65234375 C-362.68580724 84.1093944 -401.45002532 87.10756364 -439.71875 94.65234375 C-440.64768066 94.8337793 -441.57661133 95.01521484 -442.53369141 95.20214844 C-457.52073321 98.17448887 -472.12895851 102.13060126 -486.71875 106.65234375 C-487.43998047 106.87390137 -488.16121094 107.09545898 -488.90429688 107.32373047 C-530.75999465 120.29648795 -568.86812494 141.54902694 -600.71875 171.65234375 C-601.57597656 172.45542969 -602.43320312 173.25851563 -603.31640625 174.0859375 C-628.51414842 198.405153 -647.96163389 233.63789832 -648.921875 269.12109375 C-649.26431119 295.69941005 -643.90653774 321.32481628 -625.71875 341.65234375 C-625.00847656 342.50441406 -624.29820312 343.35648437 -623.56640625 344.234375 C-615.61013039 353.56097605 -605.87634495 360.94567477 -593.71875 363.65234375 C-580.71939965 364.56229827 -569.91045688 363.92324084 -559.34375 355.40234375 C-552.37386894 348.7228744 -547.85690834 341.1953071 -547.41796875 331.3828125 C-547.39847967 329.86860996 -547.39502118 328.35413007 -547.40625 326.83984375 C-547.41188965 326.04449219 -547.4175293 325.24914062 -547.42333984 324.4296875 C-547.70055034 310.99184026 -553.37036252 300.5357797 -562.4609375 290.75390625 C-570.10836578 283.63571176 -580.71248516 277.4588249 -591.40625 277.40234375 C-592.499375 277.48484375 -593.5925 277.56734375 -594.71875 277.65234375 C-584.09056599 244.54334654 -559.08164622 221.27259726 -528.71875 205.65234375 C-504.01067854 193.62117211 -477.53394858 185.76019608 -450.34375 181.77734375 C-449.53115723 181.65721924 -448.71856445 181.53709473 -447.88134766 181.41333008 C-441.81425824 180.60642341 -435.83313719 180.53539797 -429.71875 180.65234375 C-430.11030273 181.32475098 -430.50185547 181.9971582 -430.90527344 182.68994141 C-444.0971394 205.37332798 -456.73685015 228.30280601 -468.71875 251.65234375 C-469.24082031 252.66780273 -469.76289063 253.68326172 -470.30078125 254.72949219 C-492.75171574 298.55251457 -512.74344715 344.73311447 -525.546875 392.37109375 C-526.2817401 395.09570987 -527.05585735 397.80043211 -527.890625 400.49609375 C-549.97614817 471.82917206 -561.59957251 560.92245826 -526.78125 629.82421875 C-511.14991955 659.43990038 -485.77708874 682.16313253 -454.3125 693.8515625 C-417.7122249 705.15134623 -381.97318606 699.38571677 -347.71875 683.65234375 C-346.52121094 683.10964844 -345.32367188 682.56695313 -344.08984375 682.0078125 C-320.80601746 670.9189914 -299.76487557 654.88816598 -280.71875 637.65234375 C-280.17057617 637.16056641 -279.62240234 636.66878906 -279.05761719 636.16210938 C-269.95587388 627.98309829 -261.31122142 619.36129289 -252.71875 610.65234375 C-252.10580078 610.92908936 -251.49285156 611.20583496 -250.86132812 611.4909668 C-238.67462298 616.96564127 -226.66606688 622.26039492 -213.71875 625.65234375 C-212.53925781 625.96945312 -211.35976563 626.2865625 -210.14453125 626.61328125 C-176.74633195 634.48442444 -139.48207182 623.76951192 -110.71728516 606.50073242 C-104.00828016 602.3386206 -97.7943455 597.69216002 -91.71875 592.65234375 C-91.13996094 592.17506836 -90.56117188 591.69779297 -89.96484375 591.20605469 C-78.38218708 581.60595859 -68.11595452 571.43217283 -58.71875 559.65234375 C-58.01234375 558.81316406 -57.3059375 557.97398437 -56.578125 557.109375 C-40.50893657 538.00553768 -28.36740865 516.62707274 -16.71875 494.65234375 C-16.02628174 493.34765137 -16.02628174 493.34765137 -15.31982422 492.01660156 C1.96803458 459.16032506 14.38713251 424.06597022 25.28125 388.65234375 C25.58772461 387.65928223 25.89419922 386.6662207 26.20996094 385.64306641 C35.12408524 356.36160903 41.08831648 326.38883591 45.21875 296.08984375 C45.434104 294.51943329 45.434104 294.51943329 45.65380859 292.91729736 C46.61314662 285.83800111 47.48481771 278.75177947 48.28125 271.65234375 C48.38618774 270.72967712 48.49112549 269.8070105 48.59924316 268.85638428 C50.55047038 251.04897228 50.65634713 233.2404225 50.65185547 215.34863281 C50.65169398 212.07236399 50.6654494 208.79666076 50.69287109 205.52050781 C50.83991007 187.64490906 50.46198404 170.00680268 48.4453125 152.23046875 C48.36314861 151.50304222 48.28098473 150.77561569 48.19633102 150.02614594 C42.51479768 100.93131604 29.14928995 47.18405992 -9.71875 13.65234375 C-38.44126161 -8.58566988 -72.95041271 -6.07039951 -97.71875 20.65234375 Z " fill="#012B60" transform="translate(838.71875,51.34765625)"/>
<path d="M0 0 C13.07801587 9.15901448 17.18087356 24.07745753 20.01953125 38.984375 C21.48466738 47.53255775 21.87425829 55.77775044 21.8828125 64.4375 C21.88381958 65.14502411 21.88482666 65.85254822 21.88586426 66.58151245 C21.87295627 80.08042479 20.72842396 93.2194712 18.6328125 106.5625 C18.4160083 107.98900879 18.4160083 107.98900879 18.19482422 109.44433594 C14.71791906 131.99993995 9.44218848 154.0745438 2.50317383 175.80859375 C1.55479365 178.8093591 0.64310627 181.8202132 -0.26953125 184.83203125 C-15.3032581 233.72398182 -36.9255091 281.14221115 -64.0546875 324.5 C-64.53583008 325.26940918 -65.01697266 326.03881836 -65.51269531 326.83154297 C-67.84343325 330.47092612 -70.12298578 333.65259541 -73.3671875 336.5625 C-92.89185292 311.84014208 -102.52330359 279.99010747 -108.1171875 249.5 C-108.31594482 248.42621094 -108.51470215 247.35242188 -108.71948242 246.24609375 C-111.64083035 229.41672547 -112.69085285 212.60039274 -112.57299805 195.54052734 C-112.55459729 192.79905923 -112.55249068 190.05793023 -112.55273438 187.31640625 C-112.52457138 172.68663142 -112.12780967 158.11990818 -109.9921875 143.625 C-109.85844727 142.69445801 -109.72470703 141.76391602 -109.58691406 140.80517578 C-109.31420491 138.92861599 -109.03762899 137.05261331 -108.75683594 135.17724609 C-108.40774334 132.834651 -108.07721025 130.49025326 -107.75 128.14453125 C-101.4600916 85.12694058 -85.50550749 32.20967337 -49.3671875 4.5625 C-34.46377864 -6.101146 -16.16668833 -9.8173949 0 0 Z M-44.3671875 21.5625 C-45.57181641 22.62597656 -45.57181641 22.62597656 -46.80078125 23.7109375 C-83.40536124 58.08840576 -94.72040788 124.43764994 -96.45831299 172.05950928 C-97.79548434 217.72913513 -94.12961362 264.03764776 -73.3671875 305.5625 C-72.7071875 305.5625 -72.0471875 305.5625 -71.3671875 305.5625 C-50.62081477 267.70726265 -32.23307667 229.526129 -18.3671875 188.5625 C-17.98755859 187.4679248 -17.60792969 186.37334961 -17.21679688 185.24560547 C-1.16813936 138.88357653 19.66084187 70.90338094 -1.3671875 23.5625 C-4.95666304 17.30280485 -9.27626612 12.56012897 -16.3671875 10.5625 C-27.36582651 8.66961829 -36.46693615 14.5430657 -44.3671875 21.5625 Z " fill="#022B60" transform="translate(656.3671875,244.4375)"/>
<path d="M0 0 C2.97 0 5.94 0 9 0 C10.65 4.29 12.3 8.58 14 13 C15.65 8.71 17.3 4.42 19 0 C22.3 0 25.6 0 29 0 C29 8.25 29 16.5 29 25 C27.02 25 25.04 25 23 25 C22.505 18.565 22.505 18.565 22 12 C20.35 16.29 18.7 20.58 17 25 C15.02 25 13.04 25 11 25 C9.35 20.71 7.7 16.42 6 12 C5.67 16.29 5.34 20.58 5 25 C3.35 25 1.7 25 0 25 C0 16.75 0 8.5 0 0 Z " fill="#002B61" transform="translate(838,629)"/>
<path d="M0 0 C6.6 0 13.2 0 20 0 C20 1.98 20 3.96 20 6 C17.69 6 15.38 6 13 6 C13 12.27 13 18.54 13 25 C11.02 25 9.04 25 7 25 C7 18.73 7 12.46 7 6 C4.69 6 2.38 6 0 6 C0 4.02 0 2.04 0 0 Z " fill="#002B61" transform="translate(814,629)"/>
</svg>