<svg xmlns="http://www.w3.org/2000/svg" version="1.1" viewBox="0 0 2667 2000">
<path d="M0 0 C880.11 0 1760.22 0 2667 0 C2667 660 2667 1320 2667 2000 C1786.89 2000 906.78 2000 0 2000 C0 1340 0 680 0 0 Z " fill="#FEFEFE" transform="translate(0,0)"/>
<path d="M0 0 C1.10418779 -0.00175304 2.20837559 -0.00350607 3.34602362 -0.00531223 C7.04213393 -0.00996027 10.7382047 -0.0075098 14.43431664 -0.00507832 C17.11266565 -0.00694689 19.79101175 -0.009208 22.46935976 -0.01194364 C28.2907967 -0.01708713 34.11222533 -0.01851666 39.93366432 -0.01748753 C48.59073666 -0.01596084 57.24779983 -0.02012826 65.90487039 -0.02536215 C82.26769661 -0.03502853 98.63051969 -0.03784613 114.99334843 -0.03841921 C127.63122761 -0.03887893 140.26910555 -0.04093822 152.90698433 -0.04411983 C156.54615764 -0.04501739 160.18533095 -0.04590721 163.82450426 -0.04679471 C165.18161213 -0.04712628 165.18161213 -0.04712628 166.56613631 -0.04746456 C192.01198118 -0.05361804 217.45782562 -0.05756519 242.90367126 -0.05712128 C244.34246454 -0.05709791 244.34246454 -0.05709791 245.81032434 -0.05707407 C250.6718057 -0.05699096 255.53328707 -0.05689192 260.39476843 -0.05678936 C261.84300077 -0.05675944 261.84300077 -0.05675944 263.32049033 -0.05672892 C265.27294289 -0.05668848 267.22539545 -0.05664669 269.17784801 -0.05660353 C299.55031947 -0.05599087 329.92277977 -0.06349599 360.29524803 -0.07717609 C394.42776337 -0.09254347 428.56027137 -0.10114192 462.69279039 -0.10021287 C466.33384983 -0.10013824 469.97490927 -0.10008954 473.6159687 -0.10005856 C474.51247274 -0.1000469 475.40897679 -0.10003525 476.33264762 -0.10002324 C490.74693485 -0.09999249 505.16121237 -0.10637281 519.57549672 -0.11499082 C534.06780152 -0.12347614 548.56009214 -0.12445037 563.05239804 -0.1178815 C571.6562958 -0.11419169 580.26015044 -0.11600117 588.86404361 -0.12582384 C594.61922799 -0.13183775 600.37438125 -0.13051273 606.12956423 -0.12335334 C609.40339171 -0.11948371 612.67711989 -0.11977954 615.9509445 -0.12681069 C629.01470019 -0.15300216 641.75295401 -0.02217756 654.66292381 2.12863445 C655.58382541 2.27738374 656.50472701 2.42613303 657.45353472 2.57938987 C659.61993063 2.94301428 661.76399134 3.36106347 663.91292381 3.81613445 C664.69103416 3.98057049 665.46914452 4.14500652 666.27083397 4.31442547 C674.91961318 6.2535401 683.18719826 9.20206471 691.47395897 12.31320477 C693.35460304 13.01377929 695.24794424 13.6801006 697.14339256 14.33957195 C747.32515046 32.27525728 786.18913304 74.05775748 808.70052147 121.21261883 C816.12067421 137.24794005 821.95606861 154.49113073 823.66292381 172.12863445 C823.99292381 172.78863445 824.32292381 173.44863445 824.66292381 174.12863445 C828.88578686 214.24583338 826.66292381 254.78979185 826.66292381 295.12863445 C758.68292381 295.12863445 690.70292381 295.12863445 620.66292381 295.12863445 C622.20750951 292.03946306 623.85622269 289.17725529 625.68367577 286.25705242 C640.70201302 262.07812652 650.09211349 232.05032061 643.82308006 203.46457195 C642.68502448 199.82432683 641.35621372 196.54398375 639.66292381 193.12863445 C639.37352928 192.53453777 639.08413475 191.94044109 638.78597069 191.32834148 C629.74216405 173.12072015 616.67575671 162.53107414 597.55285513 156.07935363 C593.18753107 154.854077 588.97566736 154.85049957 584.46699142 154.87415886 C583.55784097 154.87095238 582.64869052 154.8677459 581.71199006 154.86444226 C578.66125854 154.85613164 575.6107228 154.86207035 572.55998802 154.86793804 C570.35231733 154.86491783 568.14464768 154.86102901 565.93697989 154.85634547 C559.86663179 154.84603962 553.79634257 154.84825391 547.72598958 154.85252607 C541.85261013 154.85473577 535.97924691 154.84758642 530.1058721 154.84076581 C516.60783403 154.82552197 503.10981471 154.82382123 489.61176984 154.82628884 C479.18632033 154.82812154 468.76087697 154.82636237 458.33542824 154.8220644 C456.83755774 154.821462 455.33968723 154.8208608 453.84181673 154.8202608 C451.58463276 154.81935354 449.32744878 154.81844487 447.07026481 154.81752845 C426.08164186 154.80909796 405.09302123 154.80476378 384.10439682 154.80893517 C383.31307367 154.80909154 382.52175053 154.80924792 381.70644789 154.80940903 C377.69573677 154.81021481 373.68502565 154.81106058 369.67431454 154.81192233 C368.47951397 154.81217897 368.47951397 154.81217897 367.26057601 154.81244078 C365.64978985 154.81278744 364.03900369 154.81313597 362.42821753 154.81348637 C337.37313825 154.81884171 312.31809418 154.81091887 287.26302147 154.79245281 C259.10969168 154.77172756 230.95638371 154.76101127 202.80304587 154.7650283 C199.79980191 154.76542364 196.79655795 154.76578519 193.79331398 154.76612568 C193.05384732 154.76621641 192.31438067 154.76630714 191.55250593 154.76640062 C180.39781889 154.76756576 169.2431539 154.76092453 158.08847237 154.75031376 C145.39724607 154.73825364 132.70606827 154.73671199 120.01484124 154.74910393 C113.54039649 154.75499629 107.06604651 154.75608208 100.59160805 154.74410152 C94.66115773 154.73325525 88.73088145 154.73633139 82.80043931 154.75036321 C80.65843959 154.75301361 78.51642628 154.75063286 76.37443988 154.74262735 C62.3576222 154.69388946 49.31467611 155.03201107 36.60042381 161.69113445 C35.93268944 162.03555584 35.26495506 162.37997723 34.57698631 162.73483562 C18.56598307 171.33156574 7.09574647 185.31058519 1.53698963 202.63841033 C-1.14869767 212.7134608 -1.90614554 221.99162469 -1.83828163 232.38528728 C-1.84218456 234.06521757 -1.8478329 235.74514454 -1.85505253 237.42506385 C-1.86968211 241.99490602 -1.85970123 246.56439922 -1.84531581 251.13422966 C-1.83413845 256.08038925 -1.8461707 261.02650256 -1.85515785 265.97265911 C-1.86904528 275.64270534 -1.86156805 285.31262042 -1.84648227 294.98266032 C-1.82957133 306.2540067 -1.83283872 317.52532086 -1.83657635 328.79667601 C-1.84244641 348.91061045 -1.82831545 369.02448216 -1.80362892 389.13840008 C-1.77969789 408.63907502 -1.77263075 428.13966621 -1.78312111 447.6403532 C-1.79453794 468.90122121 -1.7964519 490.16205054 -1.78202301 511.42291808 C-1.78049724 513.69102176 -1.77897688 515.95912544 -1.77746201 518.22722912 C-1.77632528 519.90095975 -1.77632528 519.90095975 -1.7751656 521.60850312 C-1.7704297 529.45879903 -1.77226919 537.30907764 -1.7765274 545.15937328 C-1.78146079 554.72753601 -1.77543932 564.29561967 -1.75563311 573.86376432 C-1.74578223 578.74224201 -1.74063225 583.62059947 -1.74852562 588.49908352 C-1.75561111 592.96978607 -1.7487111 597.4402466 -1.73092199 601.91091737 C-1.72689614 603.52301959 -1.72784585 605.13514407 -1.73444086 606.74723783 C-1.78060224 619.09316177 -0.40488019 630.23711108 5.41292381 641.31613445 C5.76217918 641.99538982 6.11143456 642.6746452 6.47127342 643.37448406 C9.32236356 648.7765156 12.55779549 653.58840037 16.66292381 658.12863445 C17.18112694 658.72675945 17.69933006 659.32488445 18.23323631 659.94113445 C29.66576052 672.31256162 45.88192317 679.18210517 62.52624512 680.41474247 C66.87049429 680.57001484 71.21416109 680.56585325 75.56062889 680.5610075 C77.21770511 680.57004472 78.8747747 680.58037668 80.53183556 680.59189129 C84.98961938 680.61925752 89.44727566 680.62871782 93.90513253 680.63474536 C98.57897867 680.64418258 103.25273151 680.67038993 107.92651939 680.69475079 C116.75881002 680.73827325 125.59108239 680.76690749 134.42344731 680.79007417 C144.48648934 680.81720262 154.54943685 680.86110916 164.61241114 680.90636289 C185.29586438 680.99900482 205.97934591 681.07077879 226.66292381 681.12863445 C226.57815411 666.63526417 226.48272392 652.14199459 226.37539673 637.64877319 C226.32577176 630.91576227 226.2795643 624.18276406 226.24104881 617.44967937 C226.20360922 610.92671495 226.15710916 604.40386728 226.10486031 597.88100529 C226.08662217 595.41813721 226.07140757 592.95524443 226.05957985 590.49233723 C225.84658485 547.58959011 222.54122749 502.86990813 208.89729881 461.8591032 C207.86438501 458.7374808 206.91582668 455.60455396 205.99226952 452.44943523 C200.8332331 435.12220377 193.40041682 418.77302992 184.66512108 402.97775555 C183.61960067 401.04870035 182.6400688 399.0930409 181.66292381 397.12863445 C255.07606852 397.0943469 328.48921418 397.06254911 401.90236473 397.04394817 C402.98933071 397.04367206 404.07629669 397.04339595 405.19620103 397.04311146 C428.82030464 397.0371253 452.44440834 397.03158499 476.06851216 397.02650379 C487.65418195 397.02400917 499.23985171 397.02141606 510.82552147 397.01877117 C511.97841969 397.01850965 513.13131791 397.01824814 514.31915244 397.01797869 C551.67125878 397.00945976 589.02335905 396.99443995 626.37546172 396.97604001 C664.76751728 396.95716218 703.15956949 396.94486063 741.55162961 396.94080447 C746.97731564 396.94022818 752.40300166 396.93957691 757.82868767 396.93887997 C758.89651453 396.93874512 759.96434139 396.93861027 761.06452664 396.93847134 C778.23645924 396.93611018 795.40838145 396.9268402 812.58030981 396.91497038 C829.85425696 396.90317808 847.12819385 396.89870296 864.40214488 396.9016317 C874.65815728 396.90314997 884.91413203 396.89912311 895.17013761 396.88703937 C902.03203267 396.87950885 908.89390322 396.87932866 915.75580001 396.88497083 C919.65861974 396.88797405 923.56136854 396.88792839 927.4641805 396.87886809 C964.51056582 396.79795116 1000.10669458 400.96302165 1034.66292381 415.12863445 C1036.02997459 415.68575115 1036.02997459 415.68575115 1037.42464256 416.25412273 C1076.22430738 432.21775001 1112.49102464 456.84748928 1139.66292381 489.12863445 C1140.12843651 489.67116863 1140.5939492 490.21370281 1141.07356834 490.77267742 C1162.46952032 515.78580789 1179.51217177 544.68643911 1189.91121483 575.94797039 C1190.77270429 578.44710123 1191.71085782 580.91298109 1192.64339256 583.38644695 C1194.76864609 589.21006326 1196.31021082 595.09775188 1197.72542381 601.12863445 C1197.98218895 602.21152752 1198.23895409 603.29442059 1198.50349998 604.41012859 C1200.7070754 613.91510316 1202.44146614 623.44936609 1203.66292381 633.12863445 C1203.75108456 633.7970819 1203.83924531 634.46552934 1203.9300776 635.15423276 C1204.87812145 643.27162276 1204.80421083 651.39133883 1204.79435158 659.55024433 C1204.79600319 661.22083997 1204.79809037 662.89143523 1204.80057168 664.56202984 C1204.80612268 669.1540484 1204.80546879 673.74604825 1204.80379409 678.33806908 C1204.80306179 683.33363071 1204.80808877 688.32918711 1204.81236911 693.32474649 C1204.81994344 703.23358629 1204.82214188 713.1424207 1204.82269816 723.0512631 C1204.82361237 734.92016955 1204.83028165 746.78907103 1204.83704499 758.65797535 C1204.85272099 786.66471519 1204.85879305 814.67145504 1204.86345202 842.67819829 C1204.86583664 856.93294481 1204.86954042 871.18769086 1204.87348911 885.44243702 C1204.88615353 931.1872386 1204.89693675 976.93204015 1204.90032957 1022.67684345 C1204.90049181 1024.86269522 1204.90065737 1027.04854698 1204.90082396 1029.23439874 C1204.90115775 1033.61802559 1204.90148823 1038.00165245 1204.90181851 1042.3852793 C1204.90220541 1047.51724161 1204.90259502 1052.64920392 1204.90298958 1057.78116623 C1204.903102 1059.2499655 1204.90321342 1060.71876478 1204.90332383 1062.18756405 C1204.9068718 1109.3409465 1204.9219442 1156.4943137 1204.94526158 1203.64769033 C1204.96201229 1237.53541842 1204.97748211 1271.42314362 1204.98199654 1305.31087589 C1204.98213677 1306.35714261 1204.98213677 1306.35714261 1204.98227983 1307.42454602 C1204.98429928 1322.73981046 1204.98545499 1338.05507485 1204.98580841 1353.37033941 C1204.98594458 1358.85113425 1204.98615357 1364.33192909 1204.98640166 1369.81272392 C1204.98646323 1371.17614242 1204.98652155 1372.53956091 1204.98657661 1373.90297941 C1204.98749496 1395.5935846 1204.9974455 1417.28417384 1205.0120341 1438.97477378 C1205.027087 1461.44572812 1205.03122162 1483.91666112 1205.02294114 1506.38761939 C1205.01849187 1519.33121157 1205.02231736 1532.27473839 1205.03817965 1545.21832196 C1205.04795681 1553.87643441 1205.04672534 1562.53450127 1205.03674342 1571.19261334 C1205.03137109 1576.11790811 1205.03057725 1581.04307772 1205.04325214 1585.96836193 C1205.18332047 1644.13929503 1193.28447596 1699.4580039 1159.66292381 1748.12863445 C1159.27958885 1748.6930827 1158.89625389 1749.25753094 1158.50130272 1749.83908367 C1152.16333771 1759.15291119 1145.12945968 1767.70263827 1137.66292381 1776.12863445 C1136.87917381 1777.02453289 1136.09542381 1777.92043133 1135.28792381 1778.8434782 C1126.46696339 1788.81431382 1117.15910008 1797.93425123 1106.66292381 1806.12863445 C1106.0573867 1806.6105827 1105.45184959 1807.09253094 1104.82796288 1807.58908367 C1052.86487059 1848.92511816 992.33837353 1866.72532344 926.52838346 1866.49543303 C922.54547491 1866.48495402 918.56258777 1866.4922757 914.57967383 1866.4971655 C907.62536785 1866.50333478 900.67113952 1866.49854536 893.71684265 1866.48625088 C883.37634177 1866.46802122 873.03588905 1866.46725493 862.69537503 1866.46987684 C845.29451263 1866.47380373 827.89368459 1866.4638509 810.49283218 1866.44582462 C793.2785322 1866.42803755 776.06424655 1866.41651954 758.84993744 1866.41326618 C757.77723718 1866.41305996 756.70453691 1866.41285374 755.59933058 1866.41264128 C750.15101975 1866.41162619 744.70270891 1866.41072207 739.25439806 1866.40986065 C700.72332725 1866.40356932 662.19227512 1866.38338496 623.66121483 1866.35495281 C586.24259604 1866.32737353 548.82398238 1866.30613543 511.40535545 1866.29342937 C510.25075028 1866.2930348 509.0961451 1866.29264022 507.90655189 1866.29223368 C496.31090748 1866.28827792 484.71526303 1866.28445051 473.11961855 1866.2807171 C449.5006356 1866.27310967 425.88165298 1866.26464592 402.26267052 1866.25566387 C400.63393802 1866.25504607 400.63393802 1866.25504607 398.97230183 1866.25441578 C326.53583473 1866.22684134 254.09937798 1866.17930899 181.66292381 1866.12863445 C182.06885765 1865.38872768 182.47479149 1864.64882092 182.89302635 1863.88649273 C183.42875267 1862.90767635 183.96447899 1861.92885998 184.51643944 1860.9203825 C185.04612328 1859.95360073 185.57580711 1858.98681896 186.12154198 1857.99074078 C188.25521419 1854.02884335 190.23937747 1850.00844725 192.16292381 1845.94113445 C192.54601707 1845.1323283 192.92911034 1844.32352215 193.32381248 1843.49020672 C196.35962382 1836.98089205 198.97408289 1830.37479664 201.39729881 1823.6169157 C202.42654562 1820.78013361 203.53585227 1818.02458087 204.72542381 1815.25363445 C207.73289218 1807.77828099 209.63160742 1799.91250229 211.66292381 1792.12863445 C211.91364647 1791.16957195 212.16436913 1790.21050945 212.42268944 1789.22238445 C213.22004229 1786.15168562 214.00620062 1783.07834731 214.78792381 1780.00363445 C215.15023094 1778.59380291 215.15023094 1778.59380291 215.51985741 1777.15548992 C218.79888842 1764.06854274 221.00351168 1750.88597142 222.54329491 1737.49386883 C222.78640375 1735.39177797 223.04247922 1733.29154667 223.29964256 1731.19113445 C225.3988493 1713.55832483 225.81015586 1695.88290385 225.86824608 1678.14132977 C225.87785974 1676.23692409 225.88787164 1674.33252039 225.89824486 1672.42811871 C225.92492309 1667.3282389 225.94612967 1662.22835019 225.96624684 1657.12844086 C225.98833943 1651.77267493 226.0156126 1646.41693524 226.04230309 1641.06119061 C226.09191921 1630.95061247 226.13697133 1620.84001951 226.18032545 1610.72941279 C226.22996608 1599.20557165 226.2847834 1587.68175688 226.34000504 1576.15794134 C226.45334701 1552.48153039 226.56028726 1528.80509407 226.66292381 1505.12863445 C225.51753797 1505.13139983 224.37215212 1505.13416521 223.19205761 1505.13701439 C195.91542379 1505.2021889 168.63879853 1505.25155603 141.36210265 1505.28183044 C137.99435865 1505.28558192 134.62661483 1505.28946495 131.25887108 1505.29342937 C130.58850066 1505.29421631 129.91813024 1505.29500324 129.22744557 1505.29581401 C118.41664141 1505.30881721 107.60588581 1505.33244253 96.79511032 1505.36009284 C85.67682197 1505.38828947 74.55855322 1505.40461651 63.44023007 1505.41089994 C57.20594959 1505.41479044 50.97177871 1505.42385084 44.73753357 1505.44582462 C38.8532859 1505.46639406 32.96919156 1505.47242749 27.08491135 1505.4679575 C24.94095968 1505.46877364 22.79700215 1505.47461607 20.65308189 1505.48625088 C-13.32186835 1505.661372 -46.36825366 1498.42383309 -76.33707619 1482.12863445 C-77.49336525 1481.51375164 -78.64965431 1480.89886883 -79.84098244 1480.2653532 C-104.74664165 1466.57999097 -127.02723848 1447.65772057 -144.02994728 1424.87570477 C-145.27965722 1423.20537897 -146.5510566 1421.55366281 -147.82535744 1419.90207195 C-182.19280782 1374.52581654 -187.0018012 1321.50928125 -186.74265194 1266.75502324 C-186.71735334 1260.49311895 -186.71527417 1254.23120391 -186.71055031 1247.9692564 C-186.69890145 1236.82353939 -186.67014344 1225.67795789 -186.63197944 1214.53230234 C-186.59754947 1204.42257461 -186.57270665 1194.31287124 -186.55680275 1184.20309734 C-186.55573076 1183.52837759 -186.55465877 1182.85365784 -186.5535543 1182.15849203 C-186.54429883 1176.28638584 -186.53568956 1170.41427874 -186.52714348 1164.54217148 C-186.48972621 1139.404213 -186.40998087 1114.26657313 -186.33707619 1089.12863445 C-118.35707619 1089.12863445 -50.37707619 1089.12863445 19.66292381 1089.12863445 C18.18241308 1092.08965592 16.79079152 1094.46327384 14.91292381 1097.12863445 C-4.94219976 1126.93535749 -9.20696823 1166.26654545 -11.33707619 1201.12863445 C-11.42392677 1202.44178631 -11.51077736 1203.75493816 -11.60025978 1205.1078825 C-12.52912992 1220.27970484 -12.55844056 1235.46425038 -12.57731056 1250.65866375 C-12.58284862 1254.45735784 -12.60706149 1258.25570323 -12.63528252 1262.05428696 C-12.65400978 1265.02538821 -12.65911919 1267.99640551 -12.66064644 1270.96756077 C-12.66363585 1272.36798794 -12.6715354 1273.768415 -12.68483162 1275.16878223 C-12.85440659 1294.34768643 -6.50922319 1312.70757415 6.85042381 1326.81613445 C59.47649769 1376.67710953 195.03591775 1346.95485969 226.66292381 1347.12863445 C226.66292381 1203.57863445 226.66292381 1060.02863445 226.66292381 912.12863445 C291.34292381 912.12863445 356.02292381 912.12863445 422.66292381 912.12863445 C422.66292381 1055.67863445 422.66292381 1199.22863445 422.66292381 1347.12863445 C515.65883138 1357.64887216 515.65883138 1357.64887216 601.66292381 1340.50363445 C602.34153465 1340.15172039 603.02014549 1339.79980633 603.7193203 1339.4372282 C613.09557131 1334.45252623 621.20880311 1328.63633902 627.66292381 1320.12863445 C628.17339256 1319.47636883 628.68386131 1318.8241032 629.20979881 1318.15207195 C639.90142872 1303.43730296 641.97322861 1286.97453289 641.9168911 1269.30173016 C641.91919899 1267.71615137 641.92237772 1266.13057367 641.92634559 1264.54499817 C641.93465703 1260.21285399 641.93058499 1255.88079848 641.92437315 1251.54865408 C641.91983466 1246.86692405 641.92683934 1242.18520891 641.93233299 1237.50348186 C641.94121374 1228.34179613 641.93931085 1219.18014322 641.93350771 1210.01845622 C641.92898604 1202.57077405 641.9283805 1195.12310105 641.93055534 1187.6754179 C641.93086181 1186.61434552 641.93116828 1185.55327315 641.93148403 1184.46004707 C641.9321235 1182.30431898 641.93277192 1180.1485909 641.93342921 1177.99286282 C641.93912864 1157.79128621 641.93258068 1137.58972778 641.92182848 1117.38815415 C641.91289332 1100.0643338 641.91444547 1082.74054026 641.923666 1065.41672039 C641.93437546 1045.28610544 641.93857936 1025.1555064 641.93244147 1005.02488899 C641.93180439 1002.87720967 641.93117565 1000.72953034 641.93055534 998.58185101 C641.93024679 997.52522536 641.92993824 996.46859972 641.92962034 995.37995511 C641.92789543 987.9435267 641.93080411 980.50710841 641.93551445 973.07068157 C641.94113078 964.00487639 641.939591 954.93910583 641.92895296 945.87330461 C641.9237064 941.25018773 641.9216222 936.62712852 641.92825127 932.00401211 C641.93423385 927.76760027 641.93089767 923.53129929 641.92029616 919.29489744 C641.9180719 917.76677795 641.91917641 916.23864899 641.92404774 914.71053565 C641.98808918 892.94215429 636.42391678 874.74465162 621.30745506 858.5466032 C608.2309039 846.59034741 592.09792986 839.78546629 574.42225075 839.87809467 C573.42441397 839.875297 572.4265772 839.87249932 571.39850295 839.86961687 C568.05797176 839.86266343 564.71762468 839.86991299 561.37709618 839.87707806 C558.95636364 839.87493914 556.53563175 839.87191345 554.1149013 839.86807764 C548.85287252 839.86171446 543.59089697 839.86149192 538.32887077 839.8666811 C530.5029335 839.87433874 522.67703165 839.87045673 514.85109474 839.86405863 C501.67811047 839.8535343 488.505139 839.85170101 475.33215141 839.85423946 C456.48917007 839.85766086 437.64622072 839.84428037 418.80324798 839.827465 C411.234403 839.82078429 403.66555755 839.81464515 396.09671211 839.80851078 C395.25576987 839.80782678 394.41482763 839.80714279 393.5484023 839.80643807 C373.53286729 839.79026111 353.51733031 839.77942634 333.501791 839.77023602 C332.6261718 839.76982998 331.7505526 839.76942395 330.84839949 839.76900561 C310.44266183 839.75958849 290.03692527 839.75271538 269.63118553 839.75027752 C268.75492112 839.75017096 267.87865671 839.75006439 266.97583883 839.7499546 C262.55772112 839.74942147 258.13960341 839.74890672 253.7214857 839.74839322 C252.84835998 839.74829101 251.97523426 839.74818881 251.07565018 839.7480835 C249.31335011 839.74787794 247.55105004 839.74767538 245.78874997 839.74747583 C216.60659415 839.7440875 187.42447037 839.7271082 158.24233121 839.69537429 C154.11198804 839.69090165 149.98164469 839.68661165 145.85130119 839.68244839 C144.63212367 839.6812177 144.63212367 839.6812177 143.38831631 839.67996215 C130.36105399 839.66726367 117.33383362 839.66918584 104.30656917 839.67708283 C91.18390789 839.6848054 78.06131575 839.67825579 64.93866816 839.65744378 C57.84248253 839.64660423 50.74643562 839.64208227 43.65025139 839.65591526 C-11.86016943 839.75770058 -11.86016943 839.75770058 -34.33707619 835.12863445 C-35.55971806 834.88184503 -35.55971806 834.88184503 -36.80705976 834.63006997 C-41.40144899 833.68208154 -45.85590622 832.5174268 -50.33707619 831.12863445 C-51.07055275 830.90369305 -51.80402931 830.67875164 -52.55973244 830.44699383 C-82.3069154 821.16018794 -108.93038441 806.00113839 -131.58316994 784.6716032 C-133.52096351 782.88223637 -135.44934803 781.18971995 -137.48551369 779.5231657 C-141.22988731 776.37891771 -144.18489285 772.84954185 -147.33707619 769.12863445 C-148.16336525 768.20179852 -148.98965431 767.27496258 -149.84098244 766.3200407 C-157.32872251 757.85016887 -163.47319778 748.78001606 -169.33707619 739.12863445 C-169.94446632 738.14056805 -169.94446632 738.14056805 -170.56412697 737.1325407 C-177.16145723 726.30671111 -181.96711672 715.0101236 -186.33707619 703.12863445 C-186.62212013 702.36792645 -186.90716408 701.60721844 -187.20084572 700.82345867 C-195.77882459 677.71099287 -198.6570456 653.46249648 -198.59104347 628.93823528 C-198.5933529 627.04809508 -198.59653263 625.15795578 -198.60049796 623.26781833 C-198.6087886 618.11677335 -198.60474695 612.96580319 -198.59852552 607.81475806 C-198.59397834 602.24272248 -198.60099603 596.67069927 -198.60648537 591.09866619 C-198.61535726 580.19940664 -198.61346709 569.3001747 -198.60766008 558.40091409 C-198.60313445 549.53798471 -198.60253459 540.67506304 -198.60470772 531.81213284 C-198.60501418 530.54838224 -198.60532065 529.28463164 -198.6056364 527.98258557 C-198.60627589 525.41488728 -198.60692431 522.84718898 -198.60758159 520.27949069 C-198.61311629 496.91226988 -198.60738624 473.54506673 -198.59689639 450.17784934 C-198.58740846 428.88067462 -198.5882535 407.58352381 -198.59781837 386.2863493 C-198.60854602 362.32042747 -198.612727 338.35452058 -198.60659385 314.38859546 C-198.60595679 311.82998618 -198.60532804 309.27137689 -198.60470772 306.7127676 C-198.60439917 305.45405772 -198.60409062 304.19534784 -198.60377271 302.89849523 C-198.60205008 294.05314819 -198.60495161 285.20780967 -198.60966682 276.36246395 C-198.6152923 265.57285974 -198.61372435 254.78328461 -198.60310534 243.99368371 C-198.59787068 238.49475276 -198.59575401 232.99587019 -198.60240364 227.49693966 C-198.6084113 222.45234961 -198.60500944 217.40785228 -198.59444854 212.36327051 C-198.59223473 210.54917495 -198.59330468 208.73507137 -198.59820011 206.92098106 C-198.63646295 191.54948205 -197.73288321 176.32224935 -194.14957619 161.31613445 C-193.93309425 160.40001385 -193.71661232 159.48389324 -193.49357033 158.54001141 C-187.23189718 132.89330593 -176.75974576 108.63194702 -161.33707619 87.12863445 C-160.91716408 86.54194988 -160.49725197 85.95526531 -160.06461525 85.35080242 C-154.067928 77.07668477 -147.39467055 69.49812662 -140.33707619 62.12863445 C-139.86544044 61.62976727 -139.3938047 61.13090008 -138.90787697 60.6169157 C-131.32224494 52.62284633 -123.23580411 45.62669628 -114.33707619 39.12863445 C-113.77214455 38.71403973 -113.20721291 38.299445 -112.62516212 37.8722868 C-96.71925605 26.36035305 -78.92991699 17.36597634 -60.33707619 11.12863445 C-58.62004494 10.49054852 -58.62004494 10.49054852 -56.86832619 9.83957195 C-49.03469073 7.01461049 -41.16628223 5.09015833 -33.02457619 3.37863445 C-32.02233009 3.16779217 -31.020084 2.95694988 -29.98746681 2.73971844 C-19.97085857 0.71866388 -10.21057259 -0.02073753 0 0 Z " fill="#2F241D" transform="translate(786.3370761871338,66.87136554718018)"/>
<path d="M0 0 C94.01218033 -0.13247683 94.01218033 -0.13247683 140.48478699 -0.16937256 C141.17857425 -0.16992479 141.87236151 -0.17047702 142.58717263 -0.17104598 C157.66738122 -0.18301941 172.74759034 -0.19409988 187.82780026 -0.20426132 C195.22382334 -0.20925038 202.61984627 -0.21443664 210.01586914 -0.21972656 C211.11982094 -0.22051112 211.11982094 -0.22051112 212.2460748 -0.22131152 C236.07318323 -0.23833726 259.90025355 -0.26836777 283.72733892 -0.30518888 C308.22597301 -0.34297875 332.72458604 -0.36755555 357.22324878 -0.37565996 C360.68863958 -0.37681247 364.1540303 -0.37811501 367.61942101 -0.37950897 C368.64241396 -0.37991351 368.64241396 -0.37991351 369.68607343 -0.38032622 C380.635786 -0.38504122 391.58543317 -0.40356125 402.53511914 -0.42732814 C413.56053938 -0.45096173 424.58590473 -0.45952852 435.61135069 -0.45400551 C441.57818964 -0.45145024 447.54483768 -0.45529451 453.51164246 -0.4768219 C458.98567165 -0.49642616 464.45938332 -0.4971807 469.93342777 -0.48359558 C471.90280364 -0.48191897 473.87220012 -0.48687475 475.84153602 -0.49953273 C491.76076582 -0.59581703 507.97352881 0.70531919 522.5 7.8125 C523.23935791 8.15869385 523.97871582 8.5048877 524.74047852 8.86157227 C550.1494822 21.01998757 569.98275192 42.10799817 580.3125 68.33203125 C581.29524825 71.20440205 582.18269318 74.07672268 583 77 C583.21269531 77.72703125 583.42539063 78.4540625 583.64453125 79.203125 C586.42091201 89.34989787 586.14497928 99.70393369 586.13422108 110.12512016 C586.13617597 111.77559836 586.13856557 113.4260761 586.14134905 115.07655311 C586.14773493 119.61734169 586.1479118 124.15811254 586.14707164 128.69890476 C586.14724142 133.63712137 586.15315067 138.57533169 586.1583125 143.51354516 C586.16763299 153.31035117 586.17155961 163.10715266 586.17383147 172.90396256 C586.17679495 184.63773347 586.18549318 196.37149839 586.19424575 208.10526616 C586.2150845 236.4654615 586.22556234 264.82565865 586.23437535 293.18585974 C586.2373105 302.57908221 586.24068055 311.97230446 586.24434257 321.36552668 C586.24473 322.35991 586.24473 322.35991 586.24512527 323.37438188 C586.24617153 326.05650496 586.24721996 328.73862805 586.24827109 331.42075113 C586.26623482 377.29947211 586.28161274 423.17819347 586.28903012 469.05691747 C586.28961408 472.65955034 586.29021135 476.26218321 586.29080774 479.86481608 C586.29092586 480.57945157 586.29104398 481.29408706 586.29116567 482.03037817 C586.29236303 489.27043258 586.2935718 496.51048699 586.29479821 503.7505414 C586.29504344 505.20217408 586.2952873 506.65380676 586.29552978 508.10543944 C586.30331807 554.71812162 586.32569899 601.33077861 586.3582062 647.94344978 C586.38155958 681.44155772 586.40310718 714.93966063 586.41021252 748.43777657 C586.41035954 749.1270313 586.41050656 749.81628603 586.41065803 750.52642727 C586.41384323 765.65915076 586.41589387 780.7918742 586.41688558 795.92459798 C586.4173003 802.01377949 586.4178552 808.10296099 586.41844749 814.19214249 C586.4185385 815.19174629 586.4185385 815.19174629 586.41863134 816.2115441 C586.42070756 838.31893672 586.4361685 860.426297 586.45728934 882.53367887 C586.47754766 904.08010887 586.48302457 925.62650337 586.47351871 947.17294113 C586.46830395 959.97096215 586.47418023 972.76886497 586.49605338 985.56686896 C586.50956851 994.1215992 586.50847811 1002.67624813 586.49565142 1011.23097919 C586.48875969 1016.10137566 586.48806846 1020.97154627 586.50521151 1025.84192251 C586.52071698 1030.2834179 586.51738786 1034.72450779 586.49980123 1039.1659918 C586.49668298 1040.75242287 586.50008744 1042.33888577 586.51129298 1043.92528033 C586.60812815 1058.60523376 584.80613032 1073.95808474 578.3125 1087.3125 C577.97001221 1088.04484863 577.62752441 1088.77719727 577.2746582 1089.53173828 C563.88800002 1117.38301219 541.13155722 1136.76354965 512.0625 1147.25 C498.7632927 1151.34725269 485.40463632 1151.28458091 471.63821411 1151.24050903 C469.59672901 1151.24138249 467.55524414 1151.24313603 465.51376045 1151.24568737 C459.93578796 1151.25013743 454.35789298 1151.24218955 448.77993035 1151.23213124 C442.75285368 1151.22346515 436.7257811 1151.22641913 430.69869995 1151.22793579 C420.2669191 1151.22898265 409.83515891 1151.22279709 399.40338516 1151.21146011 C388.46831264 1151.19960675 377.53325013 1151.19192433 366.59817123 1151.18975449 C365.91705097 1151.18961701 365.23593071 1151.18947953 364.53417044 1151.18933788 C361.07479378 1151.18866117 357.6154171 1151.18805842 354.15604042 1151.18748413 C329.68360999 1151.18328862 305.21119261 1151.16982878 280.73876953 1151.15087891 C256.97119211 1151.13249613 233.20361827 1151.11833572 209.43603516 1151.10986328 C208.70280101 1151.10960023 207.96956687 1151.10933718 207.21411351 1151.10906615 C199.85035545 1151.10642901 192.48659737 1151.10387739 185.12283926 1151.10138843 C170.12338638 1151.09631666 155.12393374 1151.09067415 140.1244812 1151.08468628 C139.43490271 1151.0844117 138.74532422 1151.08413712 138.03484941 1151.08385422 C92.02322626 1151.06546768 46.01161584 1151.03249373 0 1151 C0 1084.34 0 1017.68 0 949 C16.22929688 948.97421875 32.45859375 948.9484375 49.1796875 948.921875 C59.4974077 948.89669122 69.81510954 948.87050753 80.1328125 948.83984375 C85.5589185 948.8237787 90.98502497 948.80791314 96.41113281 948.79248047 C97.43098078 948.78956456 97.43098078 948.78956456 98.47143173 948.78658974 C109.39010493 948.7557272 120.30875721 948.73863902 131.22746573 948.72680578 C142.46675102 948.7143122 153.70592885 948.68633856 164.9451524 948.64538693 C171.24385566 948.62291203 177.54240529 948.60708085 183.84115219 948.60811615 C189.79199983 948.60887111 195.74250969 948.59059073 201.69326973 948.55883217 C203.8560602 948.55044092 206.01888905 948.54850801 208.18168831 948.55419731 C228.71248062 948.60093315 249.46573346 946.65185013 269 940 C270.49068984 939.52542691 271.98159141 939.05151857 273.47265625 938.578125 C293.31808151 932.11650059 311.99311874 923.12221152 329 911 C329.58426758 910.58395508 330.16853516 910.16791016 330.77050781 909.73925781 C339.44708751 903.4764261 347.28510336 896.39333095 355 889 C355.75152344 888.28972656 356.50304688 887.57945312 357.27734375 886.84765625 C379.25187003 865.56935259 394.29169572 837.97567042 404.25 809.375 C404.67474609 808.15973633 405.09949219 806.94447266 405.53710938 805.69238281 C415.22245596 777.25996235 415.45136942 748.88492032 415.40683305 719.20385659 C415.40205603 713.82874502 415.41465091 708.45366768 415.42485046 703.0785675 C415.44195641 692.57729338 415.44289554 682.0760793 415.43763756 671.57479487 C415.43357891 663.02962077 415.43505943 654.48446427 415.44038582 645.939291 C415.44113424 644.71823112 415.44188266 643.49717124 415.44265376 642.23910954 C415.44418541 639.7576773 415.44572376 637.27624506 415.44726873 634.79481282 C415.46096433 611.57774603 415.45557702 588.36071304 415.44408352 565.14364704 C415.43415633 543.96025121 415.44708821 522.77694279 415.47101771 501.59356043 C415.49547231 479.77892864 415.50500087 457.96433745 415.49836498 436.14969224 C415.4948866 423.9279124 415.49701291 411.7061997 415.51461601 399.48443031 C415.52941791 389.07953063 415.52987007 378.67474536 415.5125451 368.26984773 C415.50409762 362.97412566 415.50173013 357.67860728 415.51719666 352.38289642 C415.5909349 325.17229672 415.62248602 298.03727864 406.66650391 271.97753906 C405.96641338 269.90034739 405.32923994 267.81038076 404.69921875 265.7109375 C392.51267722 225.93602842 366.24675402 190.71456554 333 166 C332.44231934 165.5762207 331.88463867 165.15244141 331.31005859 164.71582031 C308.63006697 147.49570412 282.92426873 137.05871019 255.4375 130.3125 C254.62361816 130.10987549 253.80973633 129.90725098 252.97119141 129.69848633 C237.70917633 126.08997872 222.7881466 125.69593369 207.18383789 125.68115234 C204.91564076 125.67183736 202.64744701 125.66166639 200.3792572 125.65071106 C194.26464513 125.62357401 188.15005589 125.60831031 182.03539968 125.59528303 C175.62924048 125.5795807 169.22312742 125.55281335 162.81700134 125.5272522 C152.0786148 125.4858807 141.34023125 125.45125116 130.60180664 125.421875 C119.54872819 125.39161936 108.49567521 125.35721507 97.44262695 125.31738281 C96.75262122 125.3149013 96.06261548 125.3124198 95.35170048 125.30986309 C89.34819917 125.28823669 83.344699 125.26629928 77.34119892 125.24433136 C51.5608281 125.15039824 25.78044044 125.07686597 0 125 C0 83.75 0 42.5 0 0 Z " fill="#FEFEFE" transform="translate(1209,623)"/>
<path d="M0 0 C5.28 0 10.56 0 16 0 C16.721875 2.0625 17.44375 4.125 18.1875 6.25 C21.65598343 16.03304894 25.72570938 25.54402746 30 35 C32.18770081 31.71844879 33.58232925 28.34559876 35.0390625 24.70703125 C35.32478119 24.00100266 35.61049988 23.29497406 35.90487671 22.56755066 C36.81474539 20.31712843 37.71992674 18.06485455 38.625 15.8125 C39.24187924 14.28438073 39.85906318 12.75638443 40.4765625 11.22851562 C41.98848846 7.48731173 43.49405995 3.74363971 45 0 C50.28 0 55.56 0 61 0 C61 22.77 61 45.54 61 69 C55.72 69 50.44 69 45 69 C44.67 58.11 44.34 47.22 44 36 C40.04 45.57 36.08 55.14 32 65 C30.68 64.67 29.36 64.34 28 64 C26.53613281 61.40795898 26.53613281 61.40795898 25.203125 57.99609375 C24.76645508 56.90224365 24.32978516 55.80839355 23.87988281 54.68139648 C23.07309082 52.58066772 23.07309082 52.58066772 22.25 50.4375 C20.5175 46.003125 18.785 41.56875 17 37 C16.67 47.56 16.34 58.12 16 69 C10.72 69 5.44 69 0 69 C0 46.23 0 23.46 0 0 Z " fill="#342922" transform="translate(2018,1864)"/>
<path d="M0 0 C15.84 0 31.68 0 48 0 C48 4.29 48 8.58 48 13 C42.72 13 37.44 13 32 13 C32 31.48 32 49.96 32 69 C27.05 69 22.1 69 17 69 C17 50.52 17 32.04 17 13 C11.39 13 5.78 13 0 13 C0 8.71 0 4.42 0 0 Z " fill="#322720" transform="translate(1964,1864)"/>
</svg>