<svg xmlns="http://www.w3.org/2000/svg" xmlns:xlink="http://www.w3.org/1999/xlink" version="1.0" id="katman_1" x="0px" y="0px" style="enable-background:new 0 0 841.89 595.28;" xml:space="preserve" viewBox="244.81 65.39 352.13 465.5">
<style type="text/css">
	.st0{fill:#E51E2A;}
	.st1{fill-rule:evenodd;clip-rule:evenodd;fill:#FFFFFF;}
	.st2{fill-rule:evenodd;clip-rule:evenodd;fill:#E51E2A;}
</style>
<path class="st0" d="M479.5,495.95h-6.36v17.35h-4.32v-17.35h-6.35v-3.78h17.04V495.95z M508.43,513.3h-4.32v-16.82h-0.09  l-6.14,16.82h-4.17l-5.92-16.82h-0.11v16.82h-4.29v-21.12h7.46l4.92,13.81h0.11l5.11-13.81h7.43V513.3L508.43,513.3z"/>
<path class="st1" d="M596.23,174.7c-3.04-46.14-42.16-81.16-78.78-94.87c-11.82-3.72-23.99-7.56-35.8-10.06  c-38.91-8.42-81.51-3.81-116.58,6.23c-48.15,13.65-94.63,51.33-113.88,100.45c-7.63,20.12-9.46,47.28,0.33,69.07  c11.74,25.19,37.84,34.52,60.37,34.52c24.95,0,41.61-18.46,51.1-35.16v99.28l-0.53,67.29c-3.88,4.87-8.53,9.81-12.33,15.01  c-8.68,13.37-20.43,31.63-21.18,53.73c0,6.53,0.37,17.76,6.29,27.1c8.03,14.4,23.52,20.57,34.94,22.71  c14.4,2.28,28.73-0.09,40.62-4.28c26.44-10.01,50.06-35.08,54.53-65.13l0.19-1.06l0.56-128.03c9.94-3.92,19.98-7.84,29.89-12.2  c12.65-5.64,25.45-12.03,37.61-20.04C577.26,273.57,601.48,226.31,596.23,174.7L596.23,174.7z M507.87,207.13  c-2.74,13.73-17.04,27.18-33.24,32.71c-2.67,0.97-5.45,1.7-8.42,2.34l0.46-85.28c16.73-0.28,29.66,4.7,35.84,14.57l3.79,9.03  c0.98,4.64,1.94,9.37,2.33,14.12C509.08,199.33,508.8,203.72,507.87,207.13z"/>
<path class="st2" d="M585.22,175.5c-2.52-41.08-38.73-72.99-71.3-85.19l-0.21-0.08c-9.99-3.17-22.45-7.17-34.41-9.67  c-44.6-9.67-88.85-0.36-111.25,6.03c-47.71,13.54-89.57,50.36-106.62,93.83c-7.54,19.85-7.5,43.55,0.09,60.51  c8.23,17.6,27.05,28.13,50.35,28.13c18.8,0,36.07-14.56,46.18-39c0.15-0.36,1.16-3.59,1.16-3.59c1.64-5.17,3.32-10.48,3.32-16.51  v-4.14h-4.13c-2.7,0-5.7-1.06-8.56-2.05l-2.05-0.7c-0.91-0.69-1.97-2.92-1.97-4.42c2.16-12.56,12.52-25.05,28.17-34.36v180  c0,0-0.58,68.04-0.6,70.79c-1.16,1.5-6.52,8.11-6.52,8.11l-7.6,9.45c-8.38,12.79-18.62,28.55-19.32,47.67v0.03  c0,6.7,0.57,14.96,4.85,21.46c4.54,8.51,14.5,14.93,27.19,17.35c11.1,1.72,23.14,0.42,34.98-3.78c24.76-9.37,43.81-32.02,47.47-56.4  c0.07-0.58,0.57-122.88,0.62-134.42c0.21-0.36,0.25-0.39,0.47-0.8c1.34-0.5,3.24-1.25,3.24-1.25c23.32-9.04,47.4-18.43,69.07-32.66  c36.48-21.35,58.03-59.45,58.03-101.45C585.9,184.09,585.66,179.82,585.22,175.5L585.22,175.5z M518.64,209.53  c-3.99,19.98-23.11,34.8-40.36,40.72c-7.28,2.61-15.32,3.78-23.2,4.87c0.07-8.81,0.61-108.54,0.61-108.62  c0.77,0,6.88-0.45,6.88-0.45c13.69-0.8,38.35,0.86,49.84,20.57c0.31,0.69,4.61,10.95,4.61,10.95c1.29,6.44,2.88,13.89,2.88,21.32  C519.9,202.49,519.54,206.05,518.64,209.53z"/>
</svg>