<svg xmlns="http://www.w3.org/2000/svg" xmlns:xlink="http://www.w3.org/1999/xlink" version="1.1" style="shape-rendering:geometricPrecision; text-rendering:geometricPrecision; image-rendering:optimizeQuality; fill-rule:evenodd; clip-rule:evenodd" viewBox="995.5 28.5 1848.06 2102">
<g><path style="opacity:0.998" fill="#bf111f" d="M 1001.5,28.5 C 1557.83,28.5 2114.17,28.5 2670.5,28.5C 2670.5,231.167 2670.5,433.833 2670.5,636.5C 2626.5,636.5 2582.5,636.5 2538.5,636.5C 2543.12,443.053 2451.12,319.553 2262.5,266C 2188.37,247.288 2113.37,239.621 2037.5,243C 2030.31,251.226 2023.47,259.726 2017,268.5C 2016.33,433.5 2016.33,598.5 2017,763.5C 2021.34,793.205 2033,819.538 2052,842.5C 2075.59,868.438 2102.43,890.272 2132.5,908C 2103.05,922.646 2076.88,941.813 2054,965.5C 2034.8,986.912 2022.8,1011.91 2018,1040.5C 2016.84,1138.47 2016.34,1236.47 2016.5,1334.5C 2016.34,1432.53 2016.84,1530.53 2018,1628.5C 2024.7,1668.38 2047.2,1694.88 2085.5,1708C 2105.05,1714.15 2125.05,1717.65 2145.5,1718.5C 2177.99,1718.48 2210.66,1718.48 2243.5,1718.5C 2243.5,1794.83 2243.5,1871.17 2243.5,1947.5C 1981.17,1947.5 1718.83,1947.5 1456.5,1947.5C 1456.5,1871.17 1456.5,1794.83 1456.5,1718.5C 1491.15,1718.48 1525.65,1718.48 1560,1718.5C 1587.78,1717.1 1613.62,1709.26 1637.5,1695C 1663.72,1676.77 1678.89,1651.6 1683,1619.5C 1684.15,1523.68 1684.65,1427.85 1684.5,1332C 1684.65,1235.49 1684.15,1138.99 1683,1042.5C 1677.33,1002.31 1659.49,968.812 1629.5,942C 1614.84,929.835 1599.51,918.668 1583.5,908.5C 1615.72,889.451 1641.88,864.118 1662,832.5C 1675.55,808.977 1682.88,783.644 1684,756.5C 1684.5,584.834 1684.67,413.167 1684.5,241.5C 1652.79,241.515 1621.29,241.515 1590,241.5C 1528.3,243.192 1467.8,252.692 1408.5,270C 1292.35,305.815 1220.85,382.982 1194,501.5C 1185.91,539.967 1181.41,578.801 1180.5,618C 1180,623.345 1180.67,629.512 1182.5,636.5C 1122.17,636.5 1061.83,636.5 1001.5,636.5C 1001.5,433.833 1001.5,231.167 1001.5,28.5 Z"/></g>
<g><path style="opacity:0.996" fill="#003177" d="M 2727.5,33.5 C 2731.74,36.2281 2735.57,39.5615 2739,43.5C 2773.67,80.1667 2808.33,116.833 2843,153.5C 2843.5,373.833 2843.67,594.166 2843.5,814.5C 2776.83,814.833 2710.16,814.5 2643.5,813.5C 2611.59,774.016 2579.93,734.349 2548.5,694.5C 2608.16,693.5 2667.83,693.167 2727.5,693.5C 2727.5,473.5 2727.5,253.5 2727.5,33.5 Z"/></g>
<g><path style="opacity:0.998" fill="#003177" d="M 1600.5,298.5 C 1609.02,298.6 1617.68,298.6 1626.5,298.5C 1626.54,309.876 1626.54,321.043 1626.5,332C 1575.66,336.46 1527.32,349.793 1481.5,372C 1425.19,403.355 1388.02,450.188 1370,512.5C 1355.71,564.515 1348.04,617.515 1347,671.5C 1345.69,716.49 1345.19,761.49 1345.5,806.5C 1258.92,806.333 1172.42,806.666 1086,807.5C 1055.45,769.955 1025.29,732.122 995.5,694C 1076.17,693.5 1156.83,693.333 1237.5,693.5C 1237.68,656.149 1238.51,618.816 1240,581.5C 1242.45,538.58 1251.78,497.247 1268,457.5C 1294.85,399.308 1338.02,358.141 1397.5,334C 1433.33,320.125 1470.33,310.791 1508.5,306C 1539.22,302.24 1569.89,299.74 1600.5,298.5 Z"/></g>
<g><path style="opacity:0.996" fill="#003177" d="M 2073.5,300.5 C 2140.65,299.973 2206.31,309.473 2270.5,329C 2316.78,344.032 2358.11,367.366 2394.5,399C 2394.17,399.167 2393.83,399.333 2393.5,399.5C 2333.93,357.453 2267.93,337.453 2195.5,339.5C 2195.33,497.5 2195.5,655.5 2196,813.5C 2199.59,836.008 2208.59,856.008 2223,873.5C 2230.14,881.636 2237.64,889.47 2245.5,897C 2194.71,882.114 2149.71,857.114 2110.5,822C 2094.61,807.086 2083.11,789.252 2076,768.5C 2075.12,765.211 2074.45,761.877 2074,758.5C 2073.5,605.834 2073.33,453.167 2073.5,300.5 Z"/></g>
<g><path style="opacity:0.997" fill="#003177" d="M 2268.5,919.5 C 2270.99,919.298 2273.32,919.798 2275.5,921C 2298.26,937.055 2322.6,950.555 2348.5,961.5C 2307.97,974.089 2271.64,993.922 2239.5,1021C 2216.01,1042.14 2201.51,1068.3 2196,1099.5C 2195.67,1286.5 2195.33,1473.5 2195,1660.5C 2178.26,1661.47 2161.59,1661.8 2145,1661.5C 2129.82,1660.73 2114.98,1657.9 2100.5,1653C 2084.42,1646.58 2075.58,1634.75 2074,1617.5C 2073.33,1429.5 2073.33,1241.5 2074,1053.5C 2076.65,1035.54 2083.65,1019.54 2095,1005.5C 2114.29,984.43 2136.79,967.597 2162.5,955C 2171.83,951 2181.17,947 2190.5,943C 2216.62,935.143 2242.62,927.31 2268.5,919.5 Z"/></g>
<g><path style="opacity:0.996" fill="#003177" d="M 2300.5,1727.5 C 2303.06,1728.54 2305.22,1730.21 2307,1732.5C 2339,1769.83 2371,1807.17 2403,1844.5C 2403.83,1939.74 2403.67,2034.9 2402.5,2130C 2117.83,2130.67 1833.17,2130.67 1548.5,2130C 1516.47,2088.77 1484.8,2047.27 1453.5,2005.5C 1735.83,2004.5 2018.17,2004.17 2300.5,2004.5C 2300.5,1912.17 2300.5,1819.83 2300.5,1727.5 Z"/></g>
<g><path style="opacity:0.989" fill="#013177" d="M 2440.5,2008.5 C 2467.83,2008.5 2495.17,2008.5 2522.5,2008.5C 2522.5,2014.83 2522.5,2021.17 2522.5,2027.5C 2512.5,2027.5 2502.5,2027.5 2492.5,2027.5C 2492.5,2055.17 2492.5,2082.83 2492.5,2110.5C 2485.25,2110.81 2478.08,2110.48 2471,2109.5C 2470.5,2082.17 2470.33,2054.84 2470.5,2027.5C 2460.5,2027.5 2450.5,2027.5 2440.5,2027.5C 2440.5,2021.17 2440.5,2014.83 2440.5,2008.5 Z"/></g>
<g><path style="opacity:0.99" fill="#003177" d="M 2540.5,2008.5 C 2552.52,2008.17 2564.52,2008.5 2576.5,2009.5C 2584.23,2031.2 2592.07,2052.87 2600,2074.5C 2607.8,2052.76 2615.8,2031.09 2624,2009.5C 2636.09,2008.51 2648.25,2008.18 2660.5,2008.5C 2660.5,2042.5 2660.5,2076.5 2660.5,2110.5C 2653.25,2110.81 2646.08,2110.48 2639,2109.5C 2638.67,2084.17 2638.33,2058.83 2638,2033.5C 2628.69,2059.09 2619.19,2084.59 2609.5,2110C 2602.81,2110.83 2596.14,2110.66 2589.5,2109.5C 2580.23,2083.54 2571.07,2057.54 2562,2031.5C 2561.5,2057.83 2561.33,2084.16 2561.5,2110.5C 2554.5,2110.5 2547.5,2110.5 2540.5,2110.5C 2540.5,2076.5 2540.5,2042.5 2540.5,2008.5 Z"/></g>
</svg>