<svg viewBox="78.54993252361675 34.47832 225.46577597840755 194.29631999999998" id="svg1" version="1.1" xmlns="http://www.w3.org/2000/svg" style="max-height: 500px" width="225.46577597840755" height="194.29631999999998">
  <defs id="defs1">
    <clipPath id="clipPath3" clipPathUnits="userSpaceOnUse">
      <path id="path3" transform="translate(-206.3242,-80.1971)" d="M 0,204.076 H 284.412 V 0 H 0 Z"/>
    </clipPath>
    <clipPath id="clipPath5" clipPathUnits="userSpaceOnUse">
      <path id="path5" transform="translate(-186.8271,-109.22101)" d="M 0,204.076 H 284.412 V 0 H 0 Z"/>
    </clipPath>
    <clipPath id="clipPath7" clipPathUnits="userSpaceOnUse">
      <path id="path7" transform="translate(-87.129902,-77.570104)" d="M 0,204.076 H 284.412 V 0 H 0 Z"/>
    </clipPath>
  </defs>
  
    
  
  <g id="layer-MC0">
    <path transform="matrix(1.3333333,0,0,-1.3333333,293.8828,218.55733)" style="fill: rgb(9, 44, 92); fill-opacity: 1; fill-rule: nonzero; stroke: none; --darkreader-inline-fill: #c8c3bc; --darkreader-inline-stroke: none;" d="M 0,0 H -0.89 V 3.496 H -0.914 L -2.194,0 h -0.863 l -1.226,3.496 h -0.03 V 0 h -0.894 v 4.385 h 1.558 l 1.03,-2.862 h 0.005 l 1.07,2.862 h 1.542 L -0.002,0 Z M -5.997,3.613 H -7.334 V 0 h -0.9 v 3.613 h -1.317 v 0.772 h 3.555 V 3.613 Z" id="path1" data-darkreader-inline-fill="" data-darkreader-inline-stroke=""/>
    <path clip-path="url(#clipPath3)" transform="matrix(1.3333333,0,0,-1.3333333,275.09893,165.17187)" style="fill: rgb(143, 188, 230); fill-opacity: 1; fill-rule: nonzero; stroke: none; --darkreader-inline-fill: #87bbe4; --darkreader-inline-stroke: none;" d="m 0,0 c -4.912,4.806 -11.437,6.77 -16.227,7.58 6.748,3.34 16.724,10.566 16.724,24.15 0,16.064 -10.826,23.545 -34.068,23.545 h -1.27 c 21.436,-0.05 32.31,-6.456 32.31,-22.022 0,-19.473 -21.63,-25.068 -21.63,-25.068 v -0.03 c 0,0 27.9,0.664 27.9,-24.19 0,-18.935 -12.135,-28.114 -32.926,-28.114 h -49.87 v 4.307 c -0.01,-0.011 -0.02,-0.011 -0.02,-0.011 l 0.01,-1.269 v -6.073 h 51.392 c 22.21,0 34.446,10.527 34.446,29.638 0,7.266 -2.274,13.165 -6.771,17.56 m -63.268,48.122 c 0,0 -14.849,2.44 -15.789,2.598 v 4.55 h -0.01 V 47.9 c 0,0 13.637,-2.245 15.79,-2.586 l 0.009,2.812 z M -68.94,-2.881 c 0,0 -13.038,2.373 -15.142,2.754 v 79.658 h 21.069 c 6.891,-2.86 9.927,-15.234 10.693,-18.974 l 0.259,-1.28 6.484,0.342 -3.675,31.26 h -2.715 l 3.329,-28.29 -0.346,-0.03 -0.664,-0.04 -2.54,-0.126 c -0.53,2.548 -3.568,16.884 -11.732,20.136 l -0.103,0.04 H -86.967 V 0.127 c 0,0 14.215,-2.588 15.157,-2.754 v -4.54 h -47.384 l -0.01,-3.048 h 50.264 z m 28.961,10.547 v -5.77 l 1.4,-0.11 c 2.57,-0.214 24.864,-2.49 25.303,-19.56 0.014,0.352 0.025,0.684 0.025,1.026 0,19.102 -24.605,21.406 -26.725,21.572 v 2.842 h -0.005 z m -6.27,42.207 V -38.34 h 0.04 c 0.677,0 4.5,-0.01 9.29,-0.01 -2.006,0 -4.994,0 -6.293,0.01 v 85.265 c 1.338,0.04 3.857,0.098 3.857,0.098 0.174,0.01 8.793,0.4 14.549,-5.05 3.413,-3.24 5.186,-7.92 5.293,-13.925 0.011,0.322 0.016,0.654 0.016,0.977 0,22.265 -21.368,21.054 -21.368,21.054 -1.128,0 -3.565,0 -4.848,-0.147 l -0.537,-0.06 z m -57.905,32.686 H -126.9 l -0.107,-0.05 c -8.095,-3.19 -10.859,-14.354 -11.409,-17.01 0,-0.01 -0.01,-0.06 -0.01,-0.08 l -3.53,0.196 -0.368,-2.96 6.485,-0.34 0.263,1.28 c 0.435,2.138 3.003,12.88 10.38,15.907 h 21.04 v 3.057 z" id="path2" data-darkreader-inline-fill="" data-darkreader-inline-stroke=""/>
    <path clip-path="url(#clipPath5)" transform="matrix(1.3333333,0,0,-1.3333333,249.1028,126.47333)" style="fill: rgb(9, 44, 92); fill-opacity: 1; fill-rule: nonzero; stroke: none; --darkreader-inline-fill: #c8c3bc; --darkreader-inline-stroke: none;" d="M 0,0 C 0,-0.323 -0.004,-0.655 -0.014,-0.977 -0.704,-19.18 -20.475,-21.211 -20.475,-21.211 V -24.2 c 2.116,-0.166 26.721,-2.47 26.721,-21.572 0,-0.342 -0.01,-0.674 -0.025,-1.025 -0.4,-10.342 -7.12,-20.577 -23.15,-20.577 h -0.492 c -4.79,0 -8.614,0.01 -9.292,0.01 h -0.04 V 20.85 l 0.538,0.06 c 1.284,0.145 3.72,0.145 4.848,0.145 0,0 21.368,1.21 21.368,-21.055 M -59.56,-73.185 h 49.872 c 20.791,0 32.926,9.19 32.926,28.126 0,24.853 -27.9,24.19 -27.9,24.19 v 0.03 c 0,0 21.63,5.594 21.63,25.067 0,15.566 -10.874,21.973 -32.31,22.012 -0.087,0.01 -0.16,0.01 -0.234,0.01 h -43.983 v -4.551 c 0.942,-0.157 15.789,-2.598 15.789,-2.598 v -84.98 h -0.009 c -0.4,-0.06 -14.862,-2.588 -15.78,-2.754 v -4.551 z" id="path4" data-darkreader-inline-fill="" data-darkreader-inline-stroke=""/>
    <path clip-path="url(#clipPath7)" transform="matrix(1.3333333,0,0,-1.3333333,116.1732,168.67453)" style="fill: rgb(9, 44, 92); fill-opacity: 1; fill-rule: nonzero; stroke: none; --darkreader-inline-fill: #c8c3bc; --darkreader-inline-stroke: none;" d="M 0,0 V -4.54 H 47.382 V 0 c -0.94,0.166 -15.15,2.754 -15.15,2.754 v 82.45 h 22.934 l 0.005,-0.01 0.11,-0.038 C 63.439,81.904 66.477,67.559 67.008,65.02 l 2.544,0.127 0.66,0.04 0.348,0.03 -3.332,28.279 v 0.01 l -86.978,-0.04 -3.014,-25.223 3.53,-0.195 c 0,0.02 0.01,0.06 0.01,0.08 0.55,2.655 3.315,13.818 11.416,17.01 l 0.102,0.05 H 15.04 V 2.756 C 15.04,2.756 1.09,0.168 0,0.002" id="path6" data-darkreader-inline-fill="" data-darkreader-inline-stroke=""/>
  </g>
</svg>