<svg xmlns="http://www.w3.org/2000/svg" version="1.1" viewBox="287.63 27.47 316.38 444.77">
<path d="M0 0 C2.46570701 1.9376126 4.84936672 3.94289654 7.22265625 5.9921875 C7.95742188 6.58257812 8.6921875 7.17296875 9.44921875 7.78125 C14.12285019 11.6621807 18.01629794 15.94165685 21.78515625 20.6796875 C22.20788818 21.2070752 22.63062012 21.73446289 23.06616211 22.27783203 C31.00526037 32.55266879 36.42262932 43.10043811 40.72265625 55.3046875 C49.25073757 78.62728133 58.61650667 97.9570236 82.22265625 108.9921875 C81.07910328 112.42284642 80.43305516 112.7532747 77.53515625 114.6796875 C62.9138596 125.39850283 58.38824536 145.6639432 53.57519531 162.21923828 C49.53794519 176.09767924 44.45811923 186.53778413 34.22265625 196.9921875 C33.59230469 197.63800781 32.96195313 198.28382813 32.3125 198.94921875 C30.96340246 200.31107372 29.59563552 201.65441283 28.22265625 202.9921875 C28.99609375 203.63542969 29.76953125 204.27867187 30.56640625 204.94140625 C43.72773486 216.21134985 49.37284459 228.72253528 54.22265625 244.9921875 C61.60189288 272.87659958 61.60189288 272.87659958 80.43359375 293.18359375 C81.02398438 293.45042969 81.614375 293.71726562 82.22265625 293.9921875 C82.22265625 294.6521875 82.22265625 295.3121875 82.22265625 295.9921875 C80.47538725 297.24409673 78.67169347 298.41753583 76.84765625 299.5546875 C70.75442896 303.52353872 65.42421084 307.89031427 60.22265625 312.9921875 C59.58585937 313.60449219 58.9490625 314.21679688 58.29296875 314.84765625 C49.61769115 323.88922335 45.82854919 335.85306844 41.78515625 347.4296875 C31.18247615 377.62233631 12.13470861 401.14830935 -16.90966797 415.31420898 C-43.1611169 427.68431487 -72.70498555 428.14527475 -99.92578125 418.5859375 C-108.9532023 415.02210966 -117.50995891 410.04269108 -125.77734375 404.9921875 C-126.72480469 405.84490234 -126.72480469 405.84490234 -127.69140625 406.71484375 C-141.53325586 418.66191568 -156.61883313 424.74182843 -175.01953125 424.26953125 C-191.5849637 423.04692657 -205.18986291 416.91312102 -216.77734375 404.9921875 C-217.4115625 404.37859375 -218.04578125 403.765 -218.69921875 403.1328125 C-228.87076305 392.60121354 -233.61945565 377.96398173 -234.15234375 363.5546875 C-233.96440229 356.57997096 -232.3145269 349.77226317 -230.77734375 342.9921875 C-227.28377865 344.1567092 -226.94427673 345.27588894 -225.0546875 348.2421875 C-220.29101089 354.76857013 -213.62992864 359.20846862 -205.77734375 360.9921875 C-197.01905767 361.89983039 -189.33969787 361.75587513 -181.77734375 356.9921875 C-181.08125 356.5796875 -180.38515625 356.1671875 -179.66796875 355.7421875 C-171.59470258 350.40047755 -167.85689265 342.56915604 -165.42530823 333.4410553 C-164.10033701 326.38873883 -164.3491036 319.20905896 -164.37890625 312.05859375 C-164.37688022 310.33186216 -164.37396441 308.60513141 -164.37020874 306.87840271 C-164.36580906 303.27521547 -164.37213909 299.67225274 -164.38623047 296.0690918 C-164.40330802 291.48214332 -164.39347523 286.89572219 -164.37551308 282.30879307 C-164.36460009 278.74741239 -164.36815599 275.18615385 -164.37589645 271.62476921 C-164.37787844 269.93491489 -164.37551073 268.24504898 -164.36845779 266.55520821 C-164.30924145 248.38290526 -167.68938321 233.27262452 -180.40234375 219.6171875 C-186.18230674 214.19401235 -192.77860726 210.59106385 -199.77734375 206.9921875 C-201.09992188 206.30769531 -201.09992188 206.30769531 -202.44921875 205.609375 C-204.21401971 204.7144582 -205.99346709 203.8484483 -207.77734375 202.9921875 C-205.54987506 200.76471881 -203.24490582 199.71037024 -200.41992188 198.37939453 C-185.3161995 191.24402159 -174.13892901 181.98453118 -167.78515625 166.14453125 C-164.58910823 156.14759034 -164.45054419 146.67249913 -164.44140625 136.2890625 C-164.43496626 134.56186822 -164.42823704 132.834675 -164.42123413 131.10748291 C-164.40930288 127.49659703 -164.40554897 123.88580652 -164.40673828 120.27490234 C-164.40694113 115.68119525 -164.37965519 111.0881091 -164.34519386 106.4945488 C-164.32279493 102.92884596 -164.3189047 99.36328944 -164.31995773 95.7975235 C-164.31762065 94.10568353 -164.30890585 92.41383833 -164.293293 90.72206879 C-164.18988885 78.3599358 -164.63951453 65.70836725 -173.0234375 55.76953125 C-180.50710942 48.1858548 -187.96710029 44.09887704 -198.71484375 43.5546875 C-207.70680433 43.87935798 -216.41214504 47.62698879 -222.77734375 53.9921875 C-224.98461566 56.8800743 -226.93877305 59.85826017 -228.77734375 62.9921875 C-229.43734375 62.6621875 -230.09734375 62.3321875 -230.77734375 61.9921875 C-236.03101611 44.8816032 -234.32202522 28.59768905 -226.16064453 12.75878906 C-218.30773134 -1.55034311 -205.56929289 -11.2295983 -190.1796875 -16.3515625 C-173.81176206 -20.82280067 -156.00042397 -18.83773311 -140.96484375 -11.2578125 C-136.28479003 -8.57264894 -132.52823575 -5.28395148 -128.75 -1.44921875 C-126.93624541 0.18301868 -126.93624541 0.18301868 -124.93359375 -0.05078125 C-121.89404447 -1.39985656 -119.06476847 -3.05546161 -116.21484375 -4.7578125 C-80.1729918 -25.66488419 -34.11805369 -24.66480956 0 0 Z M-87.77734375 57.9921875 C-88.6078978 58.48520355 -89.43845184 58.9782196 -90.29417419 59.48617554 C-93.91272725 62.08288319 -97.06789131 64.5514163 -98.35680008 68.9857254 C-99.30051035 74.9818667 -99.10204959 81.04333596 -99 87.09375 C-98.99911649 89.05952081 -99.00164934 91.02529584 -99.00743103 92.99105835 C-99.00863249 97.0987566 -98.975412 101.20426126 -98.91625977 105.31152344 C-98.84239474 110.56572105 -98.84417724 115.8165553 -98.87038517 121.07110023 C-98.88404723 125.12579588 -98.86293587 129.17972525 -98.83086967 133.23429489 C-98.81869361 135.17106916 -98.81599465 137.10792784 -98.82310677 139.04472733 C-98.82677663 141.75495592 -98.78488117 144.46079905 -98.73071289 147.17041016 C-98.74016937 147.96331955 -98.74962585 148.75622894 -98.7593689 149.57316589 C-98.60911484 154.22588765 -97.69786434 156.55813293 -94.40916443 159.92318726 C-91.43512823 162.61329204 -88.41802401 164.5860153 -84.77734375 166.3046875 C-83.80796875 166.77519531 -82.83859375 167.24570313 -81.83984375 167.73046875 C-69.11710218 172.97210845 -54.57231623 172.87930559 -41.8671875 167.6015625 C-32.22191026 162.57772657 -25.45008504 155.67404072 -21.40234375 145.5546875 C-19.83508059 136.62128748 -20.59409444 129.152555 -24.77734375 120.9921875 C-26.8615759 118.05383795 -29.03978609 115.34540825 -31.77734375 112.9921875 C-32.43734375 112.9921875 -33.09734375 112.9921875 -33.77734375 112.9921875 C-32.77734375 109.9921875 -32.77734375 109.9921875 -30.52734375 107.8046875 C-24.37208744 101.509539 -20.78759749 94.60302351 -20.40234375 85.7421875 C-20.64910536 76.14445945 -24.4477984 69.20318223 -31.0234375 62.32421875 C-38.53108851 55.96667598 -47.97075362 51.89896124 -57.77734375 50.9921875 C-58.48890625 50.92257813 -59.20046875 50.85296875 -59.93359375 50.78125 C-69.47080544 50.33203351 -79.73501578 52.85655745 -87.77734375 57.9921875 Z M-95.77734375 246.9921875 C-98.31437583 250.79773562 -98.08729398 253.88706395 -98.09960938 258.29980469 C-98.10953918 259.14731293 -98.11946899 259.99482117 -98.12969971 260.86801147 C-98.15893618 263.67506143 -98.17254656 266.48188522 -98.18359375 269.2890625 C-98.19509877 271.2409872 -98.20661421 273.19291184 -98.21813965 275.14483643 C-98.23915872 279.24044854 -98.25084409 283.33598216 -98.2578125 287.43164062 C-98.26877179 292.67200947 -98.31680242 297.91133624 -98.37375641 303.15137863 C-98.4110661 307.18523147 -98.42142337 311.21883497 -98.42448425 315.25284576 C-98.43052745 317.18413225 -98.44655171 319.11541486 -98.47285461 321.04653168 C-98.50709599 323.75414923 -98.50319057 326.459244 -98.49023438 329.16699219 C-98.50866394 329.95997711 -98.52709351 330.75296204 -98.54608154 331.56997681 C-98.46565429 336.95474862 -97.02057205 339.68723176 -93.32265472 343.58656693 C-83.57763002 352.45067743 -70.67316551 354.76204075 -57.9765625 354.34375 C-48.89667104 353.77279098 -41.08601127 350.24689693 -33.77734375 344.9921875 C-32.91109375 344.4353125 -32.04484375 343.8784375 -31.15234375 343.3046875 C-24.68341731 337.00599597 -20.80364963 328.70886567 -20.40234375 319.7421875 C-20.66209987 309.09218669 -25.4454134 302.35970974 -32.77734375 294.9921875 C-31.47937665 292.13665987 -30.07860502 290.11110456 -27.90234375 287.8671875 C-22.31702004 281.43311362 -20.02756285 274.20491835 -20.3984375 265.72265625 C-21.83502396 255.37034766 -27.64089485 248.20648987 -35.52734375 241.7421875 C-54.02556066 228.53431667 -79.50513672 232.24549987 -95.77734375 246.9921875 Z " fill="#E13840" transform="translate(521.77734375,47.0078125)"/>
<path d="M0 0 C2.46570701 1.9376126 4.84936672 3.94289654 7.22265625 5.9921875 C7.95742188 6.58257812 8.6921875 7.17296875 9.44921875 7.78125 C14.12285019 11.6621807 18.01629794 15.94165685 21.78515625 20.6796875 C22.20788818 21.2070752 22.63062012 21.73446289 23.06616211 22.27783203 C31.00526037 32.55266879 36.42262932 43.10043811 40.72265625 55.3046875 C49.25073757 78.62728133 58.61650667 97.9570236 82.22265625 108.9921875 C81.07910328 112.42284642 80.43305516 112.7532747 77.53515625 114.6796875 C62.9138596 125.39850283 58.38824536 145.6639432 53.57519531 162.21923828 C49.53794519 176.09767924 44.45811923 186.53778413 34.22265625 196.9921875 C33.59230469 197.63800781 32.96195313 198.28382813 32.3125 198.94921875 C30.96340246 200.31107372 29.59563552 201.65441283 28.22265625 202.9921875 C28.99609375 203.63542969 29.76953125 204.27867187 30.56640625 204.94140625 C43.72773486 216.21134985 49.37284459 228.72253528 54.22265625 244.9921875 C61.60189288 272.87659958 61.60189288 272.87659958 80.43359375 293.18359375 C81.02398438 293.45042969 81.614375 293.71726562 82.22265625 293.9921875 C82.22265625 294.6521875 82.22265625 295.3121875 82.22265625 295.9921875 C80.47538725 297.24409673 78.67169347 298.41753583 76.84765625 299.5546875 C70.75442896 303.52353872 65.42421084 307.89031427 60.22265625 312.9921875 C59.58585937 313.60449219 58.9490625 314.21679688 58.29296875 314.84765625 C49.61769115 323.88922335 45.82854919 335.85306844 41.78515625 347.4296875 C31.18247615 377.62233631 12.13470861 401.14830935 -16.90966797 415.31420898 C-43.1611169 427.68431487 -72.70498555 428.14527475 -99.92578125 418.5859375 C-108.9532023 415.02210966 -117.50995891 410.04269108 -125.77734375 404.9921875 C-126.72480469 405.84490234 -126.72480469 405.84490234 -127.69140625 406.71484375 C-141.53325586 418.66191568 -156.61883313 424.74182843 -175.01953125 424.26953125 C-191.5849637 423.04692657 -205.18986291 416.91312102 -216.77734375 404.9921875 C-217.4115625 404.37859375 -218.04578125 403.765 -218.69921875 403.1328125 C-228.87076305 392.60121354 -233.61945565 377.96398173 -234.15234375 363.5546875 C-233.96440229 356.57997096 -232.3145269 349.77226317 -230.77734375 342.9921875 C-227.28377865 344.1567092 -226.94427673 345.27588894 -225.0546875 348.2421875 C-220.29101089 354.76857013 -213.62992864 359.20846862 -205.77734375 360.9921875 C-197.01905767 361.89983039 -189.33969787 361.75587513 -181.77734375 356.9921875 C-181.08125 356.5796875 -180.38515625 356.1671875 -179.66796875 355.7421875 C-171.59470258 350.40047755 -167.85689265 342.56915604 -165.42530823 333.4410553 C-164.10033701 326.38873883 -164.3491036 319.20905896 -164.37890625 312.05859375 C-164.37688022 310.33186216 -164.37396441 308.60513141 -164.37020874 306.87840271 C-164.36580906 303.27521547 -164.37213909 299.67225274 -164.38623047 296.0690918 C-164.40330802 291.48214332 -164.39347523 286.89572219 -164.37551308 282.30879307 C-164.36460009 278.74741239 -164.36815599 275.18615385 -164.37589645 271.62476921 C-164.37787844 269.93491489 -164.37551073 268.24504898 -164.36845779 266.55520821 C-164.30924145 248.38290526 -167.68938321 233.27262452 -180.40234375 219.6171875 C-186.18230674 214.19401235 -192.77860726 210.59106385 -199.77734375 206.9921875 C-201.09992188 206.30769531 -201.09992188 206.30769531 -202.44921875 205.609375 C-204.21401971 204.7144582 -205.99346709 203.8484483 -207.77734375 202.9921875 C-205.54987506 200.76471881 -203.24490582 199.71037024 -200.41992188 198.37939453 C-185.3161995 191.24402159 -174.13892901 181.98453118 -167.78515625 166.14453125 C-164.58910823 156.14759034 -164.45054419 146.67249913 -164.44140625 136.2890625 C-164.43496626 134.56186822 -164.42823704 132.834675 -164.42123413 131.10748291 C-164.40930288 127.49659703 -164.40554897 123.88580652 -164.40673828 120.27490234 C-164.40694113 115.68119525 -164.37965519 111.0881091 -164.34519386 106.4945488 C-164.32279493 102.92884596 -164.3189047 99.36328944 -164.31995773 95.7975235 C-164.31762065 94.10568353 -164.30890585 92.41383833 -164.293293 90.72206879 C-164.18988885 78.3599358 -164.63951453 65.70836725 -173.0234375 55.76953125 C-180.50710942 48.1858548 -187.96710029 44.09887704 -198.71484375 43.5546875 C-207.70680433 43.87935798 -216.41214504 47.62698879 -222.77734375 53.9921875 C-224.98461566 56.8800743 -226.93877305 59.85826017 -228.77734375 62.9921875 C-229.43734375 62.6621875 -230.09734375 62.3321875 -230.77734375 61.9921875 C-236.03101611 44.8816032 -234.32202522 28.59768905 -226.16064453 12.75878906 C-218.30773134 -1.55034311 -205.56929289 -11.2295983 -190.1796875 -16.3515625 C-173.81176206 -20.82280067 -156.00042397 -18.83773311 -140.96484375 -11.2578125 C-136.28479003 -8.57264894 -132.52823575 -5.28395148 -128.75 -1.44921875 C-126.93624541 0.18301868 -126.93624541 0.18301868 -124.93359375 -0.05078125 C-121.89404447 -1.39985656 -119.06476847 -3.05546161 -116.21484375 -4.7578125 C-80.1729918 -25.66488419 -34.11805369 -24.66480956 0 0 Z M-207.5859375 10.46875 C-213.31617882 17.0672097 -217.28534678 24.37176057 -218.77734375 32.9921875 C-217.88982422 32.79302734 -217.88982422 32.79302734 -216.984375 32.58984375 C-216.19417969 32.41324219 -215.40398437 32.23664063 -214.58984375 32.0546875 C-213.81253906 31.88066406 -213.03523438 31.70664063 -212.234375 31.52734375 C-211.42355469 31.35074219 -210.61273438 31.17414063 -209.77734375 30.9921875 C-208.9678125 30.81042969 -208.15828125 30.62867188 -207.32421875 30.44140625 C-195.33058084 28.32596398 -183.30920513 30.60343546 -173.1484375 37.28515625 C-172.36597656 37.84847656 -171.58351563 38.41179687 -170.77734375 38.9921875 C-170.00519531 39.54519531 -169.23304688 40.09820312 -168.4375 40.66796875 C-158.25519516 48.79640697 -152.95096458 60.37784467 -150.77734375 72.9921875 C-150.2336591 79.22919891 -150.32973689 85.50266165 -150.34375 91.7578125 C-150.33917617 93.56321405 -150.33386707 95.36861386 -150.3278656 97.17401123 C-150.31897778 100.94273995 -150.32130649 104.71125629 -150.33129883 108.47998047 C-150.3427611 113.26502068 -150.32259682 118.04931984 -150.29338169 122.83426285 C-150.27486478 126.55965693 -150.27534303 130.28487866 -150.28101921 134.01030731 C-150.28117066 135.7722248 -150.27527577 137.53415533 -150.26272774 139.29602814 C-150.12957028 161.05883601 -155.10496062 179.65499619 -170.3828125 195.72265625 C-172.77734375 197.9921875 -172.77734375 197.9921875 -175.578125 200.16796875 C-176.30386719 200.76996094 -177.02960938 201.37195313 -177.77734375 201.9921875 C-177.77734375 202.6521875 -177.77734375 203.3121875 -177.77734375 203.9921875 C-176.2570449 205.49044073 -176.2570449 205.49044073 -174.27734375 207.0546875 C-162.62550364 217.08307899 -155.27498677 228.95232251 -151.77734375 243.9921875 C-151.60552078 244.69606094 -151.43369781 245.39993439 -151.25666809 246.12513733 C-150.6469813 249.77194279 -150.6136373 253.36244185 -150.6003418 257.04858398 C-150.5937706 257.84612595 -150.5871994 258.64366791 -150.58042908 259.46537781 C-150.56076508 262.09801342 -150.54904473 264.73059197 -150.5390625 267.36328125 C-150.53498697 268.26795702 -150.53091145 269.17263279 -150.52671242 270.10472298 C-150.50587432 274.89948419 -150.4915666 279.69421703 -150.48217773 284.48901367 C-150.47115841 289.40777842 -150.43680407 294.32608518 -150.39700603 299.24468899 C-150.37067548 303.05490374 -150.3624711 306.86501244 -150.35889626 310.67531013 C-150.35406737 312.48634981 -150.34256095 314.29738596 -150.32385826 316.10833549 C-150.15822374 333.2190884 -152.45140409 347.50050538 -164.27734375 360.8046875 C-165.51484375 361.8875 -165.51484375 361.8875 -166.77734375 362.9921875 C-167.26460937 363.47042969 -167.751875 363.94867188 -168.25390625 364.44140625 C-178.40063295 373.98702354 -190.01827703 375.36682579 -203.28125 375.2265625 C-208.42465449 375.05887784 -213.03307929 373.99479159 -217.77734375 371.9921875 C-217.36363394 382.95549752 -211.48545956 391.301558 -203.69140625 398.6953125 C-191.72094034 408.13047866 -178.80072391 411.18098118 -163.77734375 409.9921875 C-150.1350304 407.478002 -139.7574867 401.55166029 -130.77734375 390.9921875 C-129.7395349 389.34879754 -128.72783446 387.68757689 -127.77734375 385.9921875 C-124.38552014 387.02001284 -122.51511512 388.22651947 -119.83984375 390.6171875 C-110.71501334 398.69523001 -99.30334907 403.48253882 -87.77734375 406.9921875 C-86.83503906 407.311875 -85.89273438 407.6315625 -84.921875 407.9609375 C-62.18082898 414.58990638 -36.69654507 409.83034211 -16.08984375 399.1796875 C8.27556321 385.28682159 20.74891832 363.20745223 30.22265625 337.8671875 C36.76386094 320.46370896 44.52501303 306.8753884 59.22265625 294.9921875 C57.93044824 291.49135866 56.32983545 288.28734829 54.50708008 285.03369141 C48.73749323 274.692827 44.57142729 264.04107158 41.43701172 252.63085938 C36.56422853 234.9483487 27.66520643 217.78996189 13.22265625 205.9921875 C10.57477979 204.74716047 10.57477979 204.74716047 8.22265625 203.9921875 C12.56464633 199.51451023 12.56464633 199.51451023 14.984375 197.59375 C31.47552026 184.41421403 38.48138832 164.1360764 44.21435547 144.61547852 C46.2184427 137.90775025 48.4654114 131.50507657 51.47265625 125.1796875 C51.78976562 124.51130859 52.106875 123.84292969 52.43359375 123.15429688 C54.30806826 119.38565799 56.47904065 116.17890916 59.22265625 112.9921875 C57.71900206 109.28705065 55.58556401 107.39907266 52.53515625 104.8671875 C39.73943113 93.56062005 33.93302283 78.19340613 28.28515625 62.4921875 C19.20636775 37.46307378 3.91015143 15.70139423 -20.6015625 3.78125 C-44.28068217 -6.86195791 -70.68360604 -8.22957589 -95.08984375 0.7421875 C-105.36135541 4.73680313 -114.26378344 10.22633824 -122.71875 17.29296875 C-124.77734375 18.9921875 -124.77734375 18.9921875 -127.77734375 20.9921875 C-128.02742188 20.26773438 -128.2775 19.54328125 -128.53515625 18.796875 C-133.12607755 8.43120993 -143.22998299 2.10533022 -153.34375 -2.06640625 C-172.79839424 -8.59292414 -192.85306573 -3.75441781 -207.5859375 10.46875 Z " fill="#003263" transform="translate(521.77734375,47.0078125)"/>
<path d="M0 0 C9.95889898 10.45110157 13.90020349 21.51823695 13.6875 35.8828125 C13.24053793 42.44971683 11.59282459 47.87725548 8.18359375 53.48828125 C6.20664685 56.29246584 6.20664685 56.29246584 6.66796875 58.46484375 C7.60601161 61.09710689 8.73970641 63.58668246 9.93359375 66.11328125 C14.3715306 75.50519411 14.98857195 86.64686 12.49609375 96.80078125 C7.74763424 109.91978102 -2.63102884 120.50087731 -15.06640625 126.48828125 C-16.88823932 127.22568987 -18.72158543 127.93542922 -20.56640625 128.61328125 C-21.35789062 128.93167969 -22.149375 129.25007812 -22.96484375 129.578125 C-35.01646179 133.70304789 -51.81331351 133.56195188 -63.56640625 128.61328125 C-64.68144531 128.14921875 -65.79648437 127.68515625 -66.9453125 127.20703125 C-76.61688393 122.78335672 -86.83562113 116.56841175 -91.56640625 106.61328125 C-92.03782773 103.49194747 -92.0582586 100.39280264 -92.08154297 97.23999023 C-92.09965027 96.3026857 -92.11775757 95.36538116 -92.13641357 94.39967346 C-92.1903636 91.30287869 -92.22060186 88.20652826 -92.24609375 85.109375 C-92.2625614 83.51693309 -92.2625614 83.51693309 -92.27936172 81.89232063 C-92.33602702 76.26993283 -92.37387744 70.64776817 -92.39697266 65.02514648 C-92.42453476 59.23963731 -92.5172877 53.45712305 -92.62528801 47.67263699 C-92.69649442 43.20534644 -92.71817858 38.73876108 -92.72687149 34.27095222 C-92.73957695 32.13991307 -92.77067631 30.00889569 -92.82113266 27.87841606 C-93.22816848 9.50035076 -93.22816848 9.50035076 -87.80481148 2.9955225 C-77.64484651 -7.53576058 -62.90893537 -15.49443745 -48.046875 -16.38671875 C-29.70695737 -16.38671875 -13.95254985 -12.97565899 0 0 Z M-67.56640625 4.61328125 C-68.3969603 5.1062973 -69.22751434 5.59931335 -70.08323669 6.10726929 C-73.70178975 8.70397694 -76.85695381 11.17251005 -78.14586258 15.60681915 C-79.08957285 21.60296045 -78.89111209 27.66442971 -78.7890625 33.71484375 C-78.78817899 35.68061456 -78.79071184 37.64638959 -78.79649353 39.6121521 C-78.79769499 43.71985035 -78.7644745 47.82535501 -78.70532227 51.93261719 C-78.63145724 57.1868148 -78.63323974 62.43764905 -78.65944767 67.69219398 C-78.67310973 71.74688963 -78.65199837 75.800819 -78.61993217 79.85538864 C-78.60775611 81.79216291 -78.60505715 83.72902159 -78.61216927 85.66582108 C-78.61583913 88.37604967 -78.57394367 91.0818928 -78.51977539 93.79150391 C-78.52923187 94.5844133 -78.53868835 95.37732269 -78.5484314 96.19425964 C-78.39817734 100.8469814 -77.48692684 103.17922668 -74.19822693 106.54428101 C-71.22419073 109.23438579 -68.20708651 111.20710905 -64.56640625 112.92578125 C-63.59703125 113.39628906 -62.62765625 113.86679688 -61.62890625 114.3515625 C-48.90616468 119.5932022 -34.36137873 119.50039934 -21.65625 114.22265625 C-12.01097276 109.19882032 -5.23914754 102.29513447 -1.19140625 92.17578125 C0.37585691 83.24238123 -0.38315694 75.77364875 -4.56640625 67.61328125 C-6.6506384 64.6749317 -8.82884859 61.966502 -11.56640625 59.61328125 C-12.22640625 59.61328125 -12.88640625 59.61328125 -13.56640625 59.61328125 C-12.56640625 56.61328125 -12.56640625 56.61328125 -10.31640625 54.42578125 C-4.16114994 48.13063275 -0.57665999 41.22411726 -0.19140625 32.36328125 C-0.43816786 22.7655532 -4.2368609 15.82427598 -10.8125 8.9453125 C-18.32015101 2.58776973 -27.75981612 -1.47994501 -37.56640625 -2.38671875 C-38.27796875 -2.45632812 -38.98953125 -2.5259375 -39.72265625 -2.59765625 C-49.25986794 -3.04687274 -59.52407828 -0.5223488 -67.56640625 4.61328125 Z " fill="#003263" transform="translate(501.56640625,100.38671875)"/>
<path d="M0 0 C10.46464993 7.85334118 18.80892078 17.76222973 21 31 C21.80562975 41.35010443 21.39060819 50.85701774 15.6875 59.75 C13.67130343 62.83033615 13.67130343 62.83033615 14.5 65.875 C14.995 66.90625 15.49 67.9375 16 69 C16.69180592 70.53973924 17.37903909 72.08153845 18.0625 73.625 C18.40410156 74.35976563 18.74570312 75.09453125 19.09765625 75.8515625 C22.58785554 84.16156081 22.26480772 95.47192219 19.375 103.9375 C13.12198988 118.51333195 2.59806017 128.18163146 -11.93359375 134.21875 C-27.04454538 139.95968142 -44.09441295 139.78908953 -59.1171875 133.74609375 C-69.04767494 129.10933944 -78.47986723 122.7069293 -84 113 C-84.82179213 109.73284667 -84.85259648 106.61211233 -84.82397461 103.25439453 C-84.8393074 102.31343933 -84.8546402 101.37248413 -84.87043762 100.40301514 C-84.9119194 97.31235482 -84.9092729 94.22371698 -84.90234375 91.1328125 C-84.91401646 88.97101099 -84.92702291 86.8092163 -84.94129944 84.64743042 C-84.96364145 80.12328764 -84.96284618 75.59984734 -84.94702148 71.07568359 C-84.92964307 65.29588682 -84.98042563 59.51897618 -85.0500555 53.73965645 C-85.09439104 49.27663548 -85.09686661 44.81430312 -85.08752632 40.35110092 C-85.08905993 38.22133544 -85.10466035 36.09152937 -85.13496208 33.96197891 C-85.36825978 15.27379732 -85.36825978 15.27379732 -79.70532227 8.85498047 C-77.35768127 6.78170776 -77.35768127 6.78170776 -75 5 C-74.22772568 4.32566925 -73.45545135 3.6513385 -72.65977478 2.95657349 C-52.82017898 -14.29236396 -21.49203035 -14.0659223 0 0 Z M-68 17 C-70.53703208 20.80554812 -70.30995023 23.89487645 -70.32226562 28.30761719 C-70.33219543 29.15512543 -70.34212524 30.00263367 -70.35235596 30.87582397 C-70.38159243 33.68287393 -70.39520281 36.48969772 -70.40625 39.296875 C-70.41775502 41.2487997 -70.42927046 43.20072434 -70.4407959 45.15264893 C-70.46181497 49.24826104 -70.47350034 53.34379466 -70.48046875 57.43945312 C-70.49142804 62.67982197 -70.53945867 67.91914874 -70.59641266 73.15919113 C-70.63372235 77.19304397 -70.64407962 81.22664747 -70.6471405 85.26065826 C-70.6531837 87.19194475 -70.66920796 89.12322736 -70.69551086 91.05434418 C-70.72975224 93.76196173 -70.72584682 96.4670565 -70.71289062 99.17480469 C-70.73132019 99.96778961 -70.74974976 100.76077454 -70.76873779 101.57778931 C-70.68831054 106.96256112 -69.2432283 109.69504426 -65.54531097 113.59437943 C-55.80028627 122.45848993 -42.89582176 124.76985325 -30.19921875 124.3515625 C-21.11932729 123.78060348 -13.30866752 120.25470943 -6 115 C-5.13375 114.443125 -4.2675 113.88625 -3.375 113.3125 C3.09392644 107.01380847 6.97369412 98.71667817 7.375 89.75 C7.11524388 79.09999919 2.33193035 72.36752224 -5 65 C-3.7020329 62.14447237 -2.30126127 60.11891706 -0.125 57.875 C5.46032371 51.44092612 7.7497809 44.21273085 7.37890625 35.73046875 C5.94231979 25.37816016 0.1364489 18.21430237 -7.75 11.75 C-26.24821691 -1.45787083 -51.72779297 2.25331237 -68 17 Z " fill="#003263" transform="translate(494,277)"/>
</svg>