<svg xmlns="http://www.w3.org/2000/svg" version="1.1" viewBox="0 -0.32 2083 1468.59">
<path d="M0 0 C3.20490443 0.00563346 6.40980359 0.00845857 9.61471176 0.0110817 C39.644466 0.04681498 69.53412433 0.35530894 99.46184921 3.06482315 C102.45142211 3.3327977 105.44198281 3.58651584 108.43297958 3.83807755 C208.46290622 12.32389075 307.32677214 32.13856316 535.40221786 116.96747208 C538.08489215 118.22344314 540.77135978 119.47089102 543.45885849 120.71649551 C553.67619073 125.47461744 563.68497007 130.55971199 573.61559677 135.8888588 C576.50959409 137.4371553 579.4117439 138.96951648 582.31432724 140.50165176 C598.2728081 148.96359601 613.84011649 157.96049586 629.28698349 167.31805801 C630.22380966 167.88379532 631.16063583 168.44953262 632.12585068 169.03241348 C660.1204458 185.98294225 687.08369912 204.54054134 712.98083115 224.53924942 C715.01927763 226.11156798 717.06317303 227.67622572 719.11120224 229.23602676 C729.88640564 237.45093906 740.28348099 246.09722185 750.59557724 254.8810463 C752.27990956 256.31204803 753.97044629 257.73542836 755.66198349 259.15790176 C764.09051474 266.27519437 772.16547113 273.72098587 780.16784286 281.31219864 C782.38356139 283.40947322 784.60758548 285.49761784 786.83385849 287.58368301 C787.58820175 288.29105606 788.34254501 288.99842911 789.11974716 289.7272377 C790.55955178 291.07734027 791.99978791 292.42698288 793.44054794 293.77606583 C804.98507047 304.62530442 804.98507047 304.62530442 809.66198349 310.19305801 C812.25332554 313.20273331 814.95953132 316.02894417 817.78698349 318.81805801 C821.83516826 322.82542075 825.59523704 326.98332636 829.28698349 331.31805801 C830.19148797 332.37052261 831.09647614 333.42257161 832.00182724 334.47430801 C834.58921408 337.48226699 837.16852964 340.49702774 839.7449913 343.51434708 C841.21178921 345.23010118 842.68272382 346.94222895 844.15417099 348.65399551 C850.45956772 356.01380641 856.47696502 363.56053597 862.28698349 371.31805801 C862.79567978 371.99546036 863.30437607 372.6728627 863.8284874 373.37079239 C877.81013719 392.03527141 891.26260722 410.95281745 902.99792099 431.12079239 C904.16633647 433.11240968 905.35810333 435.08597151 906.56823349 437.05243301 C916.89519909 453.84245462 926.30328608 470.96693937 933.2034874 489.45526505 C934.47222295 492.80749422 935.7891907 496.13882738 937.11120224 499.47040176 C937.6104173 500.72917938 938.1096034 501.98796848 938.60876083 503.24676895 C938.85632126 503.87095718 939.10388168 504.49514542 939.35894394 505.13824844 C940.53219913 508.09667334 941.70370454 511.05571028 942.86901474 514.01727676 C943.26322617 515.01589737 943.65743759 516.01451797 944.06359482 517.04339981 C945.05293071 519.69156632 945.97444194 522.3402769 946.86344528 525.02272415 C947.13084361 525.82848798 947.39824194 526.6342518 947.67374325 527.46443272 C947.87611253 528.07612906 948.07848181 528.68782541 948.28698349 529.31805801 C905.17765647 529.70733174 862.06853253 530.00680305 818.95779555 530.18616861 C813.86602459 530.20743014 808.77425709 530.22943367 803.6824913 530.2518959 C802.66883001 530.25635518 801.65516871 530.26081446 800.6107904 530.26540887 C784.20631427 530.33934384 767.80285286 530.47335832 751.39897832 530.62965555 C734.56179895 530.78874102 717.72515026 530.88307945 700.88725019 530.91756243 C690.50009346 530.94086815 680.11580473 531.01440986 669.7295312 531.15263795 C662.60312736 531.24263878 655.47820163 531.26963119 648.351271 531.24758143 C644.24057845 531.23670922 640.13488712 531.25311986 636.02508926 531.34455109 C612.02069996 531.85270866 612.02069996 531.85270866 605.82783222 527.64865184 C601.90942556 523.73924818 599.45478287 519.37595351 597.24980783 514.33978641 C595.82885969 511.3560945 593.94150483 509.12889092 591.78698349 506.63055801 C590.69063583 505.33118301 590.69063583 505.33118301 589.57213974 504.00555801 C588.4409874 502.67524551 588.4409874 502.67524551 587.28698349 501.31805801 C586.50194443 500.34868301 585.71690536 499.37930801 584.90807724 498.38055801 C578.15362003 490.13426441 570.73778296 482.5537742 563.22448349 475.00555801 C562.46456604 474.23787598 562.46456604 474.23787598 561.68929672 473.45468521 C555.63255475 467.34922391 549.44857826 461.63883777 542.71886826 456.26410294 C540.18349801 454.23524677 537.74373832 452.12500891 535.31237411 449.97430801 C521.80874414 438.0786647 506.9730197 427.99143949 492.03698349 418.00555801 C491.41589706 417.58935196 490.79481064 417.1731459 490.15490341 416.74432755 C427.00930689 374.51367473 355.6025334 344.63030637 282.28698349 325.31805801 C281.28943039 325.05505905 281.28943039 325.05505905 280.2717247 324.78674698 C234.99745917 312.89534789 188.96298194 305.14331747 142.34948349 301.06805801 C141.39883011 300.98479263 140.44817673 300.90152725 139.46871567 300.81573868 C115.56494775 298.75170089 91.77321424 298.11053069 67.78698349 298.13055801 C67.06978134 298.13082489 66.35257919 298.13109177 65.61364365 298.13136673 C42.78492499 298.14201445 20.04814164 298.43070649 -2.71301651 300.31805801 C-3.88634537 300.41280411 -3.88634537 300.41280411 -5.08337784 300.50946426 C-87.65307367 307.19699496 -170.41368576 324.18019655 -386.71301651 443.31805801 C-387.22332413 443.74199844 -387.73363174 444.16593887 -388.25940323 444.60272598 C-395.72204621 450.81289741 -402.99185248 457.19913669 -410.09582901 463.8185463 C-411.82385302 465.42082943 -413.5646292 467.00848147 -415.30676651 468.59540176 C-423.66528639 476.24822639 -431.53004737 484.22997144 -439.15539932 492.61200333 C-440.56653274 494.15761466 -441.99431923 495.68798109 -443.42395401 497.21649551 C-448.85999418 503.06409709 -453.84803679 509.15979413 -458.71765518 515.47699356 C-460.61464363 517.92464466 -462.53749751 520.34551707 -464.50061417 522.7404213 C-471.7847494 531.63949786 -478.38689599 540.84395583 -484.71301651 550.44305801 C-485.18824753 551.16005875 -485.66347855 551.87705948 -486.1531105 552.61578751 C-493.34281516 563.47372725 -500.24575979 574.43227982 -506.41711807 585.90839005 C-507.75574139 588.39750311 -509.1208444 590.87100863 -510.48645401 593.34540176 C-517.88239751 606.92378085 -523.95586473 620.97794267 -529.71301651 635.31805801 C-530.05316788 636.15514297 -530.39331924 636.99222794 -530.74377823 637.85467911 C-539.30128614 659.09859186 -545.23467403 681.69461521 -548.71301651 704.31805801 C-548.88655655 705.3752504 -548.88655655 705.3752504 -549.06360245 706.4538002 C-558.69746715 767.20146339 -547.87357276 842.76086316 -524.71301651 899.31805801 C-524.42378311 900.03364883 -524.13454971 900.74923965 -523.83655167 901.48651505 C-518.8045149 913.69607365 -511.75415107 923.89876458 -503.71301651 934.31805801 C-502.97897598 935.27953751 -502.97897598 935.27953751 -502.23010635 936.26044083 C-492.94351267 948.40914277 -483.0509505 960.052152 -472.71301651 971.31805801 C-472.22526749 971.85624161 -471.73751846 972.3944252 -471.23498917 972.94891739 C-457.73712309 987.83001538 -443.1620155 1001.48357041 -427.71301651 1014.31805801 C-427.10167862 1014.82901016 -426.49034073 1015.33996231 -425.86047745 1015.86639786 C-353.35473472 1076.31262571 -264.98812085 1116.90495638 -50.12256241 1164.05377579 C-47.85392768 1164.30260269 -45.58669443 1164.5616975 -43.31946182 1164.82294083 C7.08173221 1170.50980201 60.76130961 1169.91928074 111.15844345 1164.54266739 C113.29578247 1164.31712952 115.43407221 1164.10488214 117.5731163 1163.89618301 C203.99687556 1155.3898344 289.10864572 1132.56188585 468.28698349 1048.31805801 C469.42715927 1047.662892 470.56733505 1047.00772598 471.74206161 1046.33270645 C487.12253894 1037.48887975 502.24868089 1028.36184297 517.00866318 1018.50555801 C520.10357777 1016.44043776 523.20437909 1014.38453046 526.30703354 1012.33107376 C546.91597163 998.68863437 567.17891563 984.72589811 587.01794052 969.98041153 C587.7667247 969.43183487 588.51550888 968.88325821 589.28698349 968.31805801 C590.21929322 967.47117322 591.15160295 966.62428843 592.1121645 965.75174046 C597.37852308 962.03282098 603.13373232 962.64329177 609.35313034 962.71678543 C610.68736264 962.7146033 612.02159284 962.71022216 613.35581166 962.7038396 C617.01157931 962.69268406 620.66661154 962.7126241 624.32228553 962.73772991 C628.26834725 962.75935208 632.21436857 962.75201325 636.16047287 962.74821854 C642.99380863 962.74559865 649.8269054 962.76126634 656.66018105 962.78940773 C666.53986959 962.8300686 676.41944276 962.84306759 686.29920591 962.84934769 C702.32897004 962.86028681 718.35860684 962.89355065 734.38830185 962.94086075 C749.95828235 962.98676622 765.52822826 963.0221533 781.09826279 963.04339981 C782.0582363 963.04471343 783.01820981 963.04602705 784.00727343 963.04738047 C788.82324971 963.05390573 793.63922624 963.06022425 798.45520294 963.06643999 C838.39921893 963.1182611 878.3430928 963.206316 918.28698349 963.31805801 C921.10455984 969.88089303 923.91554783 976.44652127 926.72204208 983.01410294 C927.67691793 985.24651783 928.63328247 987.47829659 929.59118271 989.70941544 C930.97029837 992.92233963 932.34398819 996.13753737 933.71667099 999.35321426 C934.14382401 1000.34515289 934.57097702 1001.33709152 935.01107407 1002.3590889 C940.73751851 1015.81374796 940.73751851 1015.81374796 939.59045029 1019.64374161 C939.14354843 1020.3277504 938.69664658 1021.01175919 938.23620224 1021.71649551 C937.47787094 1022.9113356 937.47787094 1022.9113356 936.70421982 1024.13031387 C936.13340683 1024.97601944 935.56259384 1025.82172501 934.97448349 1026.69305801 C934.39142441 1027.59354874 933.80836533 1028.49403946 933.20763779 1029.42181778 C931.26126621 1032.40618628 929.27807892 1035.3633626 927.28698349 1038.31805801 C926.58347763 1039.37138321 925.87997177 1040.4247084 925.15514755 1041.50995255 C920.26404958 1048.82461703 915.30056469 1056.08688072 910.28698349 1063.31805801 C909.55850204 1064.37114151 909.55850204 1064.37114151 908.8153038 1065.44549942 C894.26302463 1086.40145256 878.23066127 1106.32359691 861.65954208 1125.70721817 C860.25379781 1127.35700485 858.8577124 1129.01460546 857.46276474 1130.67352676 C850.33437748 1139.11740694 842.87531965 1147.20508045 835.27087021 1155.22089005 C833.23825419 1157.36956979 831.21638307 1159.52790415 829.19713974 1161.68915176 C809.03711248 1183.25117806 809.03711248 1183.25117806 799.21276474 1191.61102676 C796.97561738 1193.59405596 794.88643697 1195.68999188 792.78698349 1197.81805801 C789.4344157 1201.210742 785.99222667 1204.40906485 782.37292099 1207.51337051 C780.03672848 1209.53457077 777.75733498 1211.6118464 775.47448349 1213.69305801 C771.17738522 1217.57156528 766.74939595 1221.24671769 762.24792099 1224.88446426 C759.58929293 1227.06958997 756.98649959 1229.30205552 754.39245224 1231.56244278 C747.37999945 1237.66371201 740.12584136 1243.36284205 732.70885849 1248.96258926 C729.71654726 1251.22275336 726.75016726 1253.51155124 723.80260849 1255.82977676 C723.04754013 1256.42290665 722.29247177 1257.01603653 721.51452255 1257.62714005 C720.11292933 1258.73041082 718.71351512 1259.8364611 717.31725693 1260.94647598 C703.46847855 1271.82099772 688.68839785 1281.51077191 674.03698349 1291.25555801 C673.18125748 1291.82521286 672.32553146 1292.39486771 671.44387436 1292.98178482 C658.87365276 1301.34313203 646.28965702 1309.63896089 633.28698349 1317.31805801 C632.31148544 1317.89491348 631.3359874 1318.47176895 630.3309288 1319.06610489 C552.86238165 1364.68088736 470.46288881 1399.8937417 171.32604599 1464.28290176 C170.65689163 1464.34562775 169.98773727 1464.40835373 169.29830551 1464.4729805 C133.96012741 1467.64153608 98.55652347 1468.67991378 63.09168625 1468.57600784 C60.16707996 1468.56789885 57.24248147 1468.56297084 54.31786728 1468.5586586 C25.59903306 1468.50997187 -3.0477597 1468.21782096 -31.71301651 1466.31805801 C-33.82222806 1466.18246793 -35.93144034 1466.04688899 -38.04065323 1465.91131973 C-132.27689152 1459.76415052 -225.87339632 1445.16742105 -379.71301651 1391.31805801 C-381.40950333 1390.59271866 -381.40950333 1390.59271866 -383.1402626 1389.85272598 C-409.50831935 1378.53355002 -435.45052127 1366.21392628 -460.24036026 1351.74383926 C-463.29069304 1349.98495859 -466.37923402 1348.30380969 -469.47473526 1346.62616348 C-503.86690977 1327.92503268 -536.40199953 1304.96169093 -567.38049698 1281.11151505 C-569.37347224 1279.57913109 -571.37122099 1278.05352235 -573.37317276 1276.53290176 C-584.8927509 1267.7540411 -596.10808302 1258.5973271 -607.12878799 1249.20111465 C-610.47074323 1246.35434095 -613.85710414 1243.5723217 -617.27551651 1240.81805801 C-622.34909144 1236.69115596 -627.15042793 1232.31703244 -631.94348526 1227.87274551 C-634.17220044 1225.81692079 -636.4206957 1223.80188845 -638.71301651 1221.81805801 C-643.5907688 1217.58396788 -648.33058132 1213.19988323 -653.07922745 1208.82245255 C-654.75940603 1207.2753425 -656.44299942 1205.73201376 -658.12707901 1204.18915176 C-663.18886724 1199.54423371 -668.21416187 1194.88874218 -673.02101517 1189.97761917 C-674.62604368 1188.40336334 -676.2833236 1186.96502653 -678.00378799 1185.51898575 C-684.73619943 1179.65603326 -690.94429117 1173.23030191 -697.24817276 1166.91571426 C-698.65471955 1165.50984235 -700.06141466 1164.10411881 -701.46825027 1162.69853592 C-704.40571415 1159.76254033 -707.34137733 1156.82475932 -710.27576065 1153.88568497 C-714.02003711 1150.13571178 -717.76878585 1146.39024671 -721.51890278 1142.6461153 C-724.42135091 1139.74729629 -727.32139386 1136.84608046 -730.22073555 1133.94415474 C-731.60137546 1132.56285206 -732.98274663 1131.18227986 -734.36488914 1129.8024807 C-747.14109134 1117.04319409 -747.14109134 1117.04319409 -752.41514969 1110.83830643 C-754.06893359 1108.90115671 -755.8321967 1107.10056846 -757.65051651 1105.31805801 C-758.31825089 1104.65805801 -758.98598526 1103.99805801 -759.67395401 1103.31805801 C-760.34684464 1102.65805801 -761.01973526 1101.99805801 -761.71301651 1101.31805801 C-766.37221072 1096.74812039 -770.83217668 1092.10736355 -775.09192276 1087.16180801 C-777.35547912 1084.58735355 -779.76003878 1082.21331862 -782.21301651 1079.81805801 C-785.95607541 1076.13095107 -789.49557765 1072.34282444 -792.90442276 1068.34540176 C-795.8153801 1065.08236319 -798.95610212 1062.05505361 -802.08801651 1059.00555801 C-804.78885192 1056.240417 -807.30822235 1053.36547605 -809.83899307 1050.4459877 C-812.99760677 1046.85942217 -816.29734659 1043.40806806 -819.58801651 1039.94305801 C-825.38652584 1033.80975103 -831.10337893 1027.6248156 -836.71301651 1021.31805801 C-838.25397727 1019.60908791 -839.79565539 1017.90076438 -841.33801651 1016.19305801 C-844.56124904 1012.61292776 -847.74700768 1009.00363037 -850.90832901 1005.36883926 C-852.94259792 1003.05717005 -855.01523961 1000.78274371 -857.08801651 998.50555801 C-860.16048424 995.10722249 -863.09744273 991.64215278 -865.96301651 988.06805801 C-870.61960463 982.30859376 -875.64135828 976.93857102 -880.70520401 971.54071426 C-883.55527221 968.5001147 -886.31790462 965.39457377 -889.04114151 962.23993301 C-891.07059724 959.90700727 -893.14066351 957.61294556 -895.21301651 955.31805801 C-897.90285082 952.33743081 -900.57612015 949.34560569 -903.21301651 946.31805801 C-909.56956222 939.02844137 -916.09177987 931.8888186 -922.63708878 924.76898575 C-925.41566545 921.74372427 -928.16738768 918.69686826 -930.90051651 915.63055801 C-945.26425016 899.69104218 -960.37009666 884.50185189 -975.5518837 869.34881973 C-978.62566345 866.2807942 -981.6948503 863.20821895 -984.76278305 860.13434792 C-987.15975007 857.73375194 -989.55911234 855.33556132 -991.95918655 852.9380722 C-993.09208104 851.80583754 -994.22425344 850.67287984 -995.35564041 849.53913879 C-1001.3013347 843.58376337 -1007.30796728 837.78398361 -1013.71301651 832.31805801 C-1015.05561118 831.08851168 -1016.39151113 829.85149336 -1017.71301651 828.59930801 C-1018.37301651 827.97669083 -1019.03301651 827.35407364 -1019.71301651 826.71258926 C-1021.04634984 825.44956843 -1022.37968318 824.1865476 -1023.71301651 822.92352676 C-1027.70735847 819.15542683 -1031.76681373 815.485007 -1035.9137001 811.88544083 C-1038.14889064 809.93836848 -1040.33771654 807.94311333 -1042.52551651 805.94305801 C-1046.79260551 802.09100503 -1051.19404901 798.44867953 -1055.66223526 794.83368301 C-1059.89117113 791.34657072 -1064.01131931 787.73952399 -1068.14075089 784.13568497 C-1072.82700703 780.05683972 -1077.59244904 776.10272108 -1082.44348526 772.22040176 C-1087.20998294 768.22507583 -1089.79042546 764.56379973 -1092.18176651 758.81805801 C-1092.49915787 758.07752686 -1092.81654922 757.3369957 -1093.1435585 756.5740242 C-1094.17600864 754.15920978 -1095.19473922 751.73887884 -1096.21301651 749.31805801 C-1096.92182385 747.65046947 -1097.63146585 745.98323546 -1098.34192276 744.31634903 C-1099.77833989 740.94381431 -1101.20988221 737.56926532 -1102.63879776 734.1935463 C-1104.54058251 729.71037361 -1106.47913218 725.24411574 -1108.43176651 720.78290176 C-1108.995117 719.49067099 -1109.55827417 718.19835591 -1110.12121964 716.90594864 C-1111.16227129 714.51855532 -1112.20766976 712.13305158 -1113.25793839 709.74969864 C-1113.94726456 708.15738419 -1113.94726456 708.15738419 -1114.65051651 706.53290176 C-1115.05141495 705.61629776 -1115.45231339 704.69969376 -1115.86536026 703.75531387 C-1116.71301651 701.31805801 -1116.71301651 701.31805801 -1116.71301651 697.31805801 C-1115.76555557 696.84239395 -1115.76555557 696.84239395 -1114.79895401 696.35712051 C-1102.78151054 690.08865576 -1092.16090307 681.89844794 -1081.71301651 673.31805801 C-1080.8196962 672.59876114 -1079.92637589 671.87946426 -1079.00598526 671.13837051 C-1073.53607451 666.71654057 -1068.23356018 662.15916048 -1063.03332901 657.42352676 C-1061.01147467 655.58888116 -1058.96623129 653.79037015 -1056.90051651 652.00555801 C-1049.17634772 645.27045961 -1041.60007882 638.33106768 -1034.43248367 631.00508499 C-1032.68049359 629.28614868 -1030.86294426 627.69091603 -1028.9984169 626.09515762 C-1024.81652163 622.45524812 -1020.87221316 618.6220945 -1016.95911026 614.69696426 C-1016.25456207 613.9933728 -1015.55001389 613.28978134 -1014.82411575 612.56486893 C-1013.34648284 611.08791153 -1011.87009194 609.60971059 -1010.39490128 608.13031387 C-1008.1563517 605.88640716 -1005.91251178 603.64789097 -1003.66809464 601.40985489 C-1002.22311247 599.96421183 -1000.77844059 598.51825856 -999.33411026 597.07196426 C-998.34319633 596.08408669 -998.34319633 596.08408669 -997.33226395 595.07625198 C-993.50060298 591.22555058 -989.85096813 587.27047045 -986.31813431 583.14336014 C-983.59977683 580.05210809 -980.65316414 577.19628207 -977.71301651 574.31805801 C-973.37037304 570.02563831 -969.16625866 565.70271228 -965.21692276 561.04071426 C-963.62195653 559.21375294 -961.94283809 557.51746515 -960.21301651 555.81805801 C-957.91975615 553.56007858 -955.74873623 551.25809298 -953.65051651 548.81805801 C-950.15189454 544.75870882 -946.50283734 540.85158652 -942.83801651 536.94305801 C-937.39100722 531.13038638 -932.01845663 525.2605491 -926.71301651 519.31805801 C-925.171772 517.60934381 -923.63010121 515.90101401 -922.08801651 514.19305801 C-918.86478398 510.61292776 -915.67902534 507.00363037 -912.51770401 503.36883926 C-910.4834351 501.05717005 -908.41079341 498.78274371 -906.33801651 496.50555801 C-903.2466485 493.08576473 -900.28842619 489.59847278 -897.40051651 486.00555801 C-893.51110493 481.19300511 -889.38558401 476.67207281 -885.15954971 472.15912247 C-881.21511212 467.92310943 -877.5482095 463.51170993 -873.92395401 458.99774551 C-871.60366701 456.18552487 -869.18230517 453.50008539 -866.71301651 450.81805801 C-862.69695804 446.45036309 -858.91916197 441.94956566 -855.19348526 437.33368301 C-851.71757305 433.10784958 -848.11452447 428.99715438 -844.51721573 424.87469864 C-841.28340352 421.15889216 -838.11990677 417.40181586 -835.02551651 413.56805801 C-831.19732555 408.840769 -827.16162533 404.34194825 -823.04504776 399.86493301 C-821.08896399 397.72864053 -819.17113954 395.57025144 -817.27551651 393.38055801 C-813.89069927 389.48602712 -810.40447088 385.68716177 -806.90954971 381.89178848 C-803.89932181 378.62076712 -800.92206901 375.32313053 -797.96301651 372.00555801 C-794.90695727 368.59603997 -791.75994857 365.331044 -788.49025345 362.12773514 C-786.74906396 360.35476345 -785.13287976 358.52207991 -783.51941299 356.63275528 C-779.6684114 352.20697733 -775.58852538 348.04917909 -771.43567276 343.90790176 C-770.66549316 343.13676544 -769.89531357 342.36562912 -769.1017952 341.57112503 C-767.48360278 339.95225648 -765.86416439 338.33463251 -764.24353409 336.7182045 C-761.78234419 334.26237083 -759.32653842 331.80124437 -756.87121964 329.33954239 C-755.28885784 327.75784148 -753.70618584 326.17645084 -752.12317276 324.59540176 C-751.39896637 323.86917114 -750.67475998 323.14294052 -749.92860794 322.39470291 C-745.87521978 318.35963165 -741.72791902 314.49680414 -737.38707352 310.77193069 C-735.3969602 309.04357176 -733.54346484 307.21387949 -731.71301651 305.31805801 C-728.60587729 302.16884921 -725.38811347 299.23828835 -722.03332901 296.35712051 C-719.67245639 294.28241427 -717.37332202 292.15294623 -715.0765419 290.00799942 C-709.67209587 284.96175047 -704.16160085 280.16083443 -698.39270401 275.52899551 C-695.58048336 273.20870851 -692.89504388 270.78734667 -690.21301651 268.31805801 C-684.88327258 263.4243157 -679.345314 258.85698486 -673.71301651 254.31805801 C-672.49474088 253.32036997 -671.27734344 252.32160891 -670.06067276 251.32196426 C-661.85653788 244.59357003 -653.52790786 238.06030836 -645.07629776 231.64618301 C-641.2988684 228.7757804 -637.55919422 225.85960165 -633.82556534 222.93255997 C-626.21822315 216.97249281 -618.52457899 211.20923623 -610.61481094 205.65724564 C-608.73672478 204.33475268 -606.86436654 203.00454786 -604.99353409 201.67181778 C-594.27641258 194.04869589 -583.4130644 186.66432685 -572.46301651 179.38055801 C-571.60861984 178.81156784 -570.75422318 178.24257767 -569.8739357 177.65634537 C-557.30223576 169.29023273 -544.6849531 161.05425307 -531.71301651 153.31805801 C-530.8511171 152.80066055 -529.98921768 152.28326309 -529.1012001 151.75018692 C-486.35704298 126.11596883 -442.47307626 103.05066137 -396.75653458 83.20538712 C-394.85239214 82.3785772 -392.94940591 81.54910594 -391.0465126 80.7194252 C-374.14215889 73.3684337 -357.02348992 66.64949291 -339.71301651 60.31805801 C-339.02078995 60.06433426 -338.32856339 59.8106105 -337.61536026 59.54919815 C-259.51125632 30.96353988 -178.0054027 12.15974171 -95.21301651 4.00555801 C-94.44955917 3.9299263 -93.68610184 3.85429459 -92.89950943 3.776371 C-87.17572635 3.22023984 -81.44661422 2.75990399 -75.71301651 2.31805801 C-74.65225906 2.23192245 -73.59150162 2.1457869 -72.49860001 2.05704117 C-48.33913963 0.13505848 -24.22529804 -0.04323028 0 0 Z " fill="#C5001E" transform="translate(1116.7130165100098,-0.3180580139160156)"/>
<path d="M0 0 C2.88860578 1.36093125 5.41021827 2.91452447 7.984375 4.80078125 C8.74693604 5.35942871 9.50949707 5.91807617 10.29516602 6.49365234 C11.10526123 7.09387207 11.91535645 7.6940918 12.75 8.3125 C14.01058228 9.24376709 14.01058228 9.24376709 15.29663086 10.19384766 C22.81317238 15.78679503 30.08914985 21.64401017 37.31054688 27.61035156 C39.62539676 29.51441595 41.96698144 31.38391133 44.3125 33.25 C57.11502009 43.47497445 69.65185275 53.98760136 81.78515625 65 C83.77412502 66.79603529 85.78563194 68.55953303 87.8125 70.3125 C93.05381805 74.88426844 98.13979334 79.62412807 103.23144531 84.36083984 C104.91546521 85.92165011 106.6089208 87.47150559 108.3046875 89.01953125 C118.14681829 98.06458321 127.6038726 107.4954561 137.0625 116.9375 C137.74689148 117.61930328 138.43128296 118.30110657 139.13641357 119.00357056 C152.37739562 132.20507525 152.37739562 132.20507525 157.71655273 138.49829102 C159.37664084 140.44069199 161.16257702 142.22593644 163 144 C166.14578336 147.10375954 169.07294016 150.31876298 171.953125 153.66796875 C174.58166848 156.66270244 177.28931423 159.57971009 180 162.5 C183.8313358 166.63193654 187.61636378 170.79039804 191.30078125 175.0546875 C193.29406428 177.3366529 195.33493027 179.57228574 197.375 181.8125 C200.48528851 185.25378205 203.46478312 188.76321298 206.375 192.375 C210.05701535 196.92940923 213.92900357 201.23747565 217.91577148 205.52124023 C220.8868675 208.73263407 223.69946588 212.02609763 226.4375 215.4375 C230.28303815 220.21862525 234.37346945 224.69645522 238.56494141 229.17041016 C241.62194583 232.45220856 244.51704106 235.80106665 247.3125 239.3125 C251.76685623 244.86619461 256.60448744 250.01355463 261.5090332 255.16723633 C265.20179792 259.05180756 268.78100115 263.00766199 272.29394531 267.05541992 C274.98324869 270.12071778 277.76987756 273.09153883 280.5625 276.0625 C281.79561956 277.37886256 283.02869114 278.69527007 284.26171875 280.01171875 C284.88353027 280.67478027 285.5053418 281.3378418 286.14599609 282.02099609 C288.49034292 284.52340265 290.82805426 287.03194605 293.16552734 289.54077148 C298.910697 295.70521874 304.66944698 301.85696327 310.4375 308 C311.41275635 309.04099854 311.41275635 309.04099854 312.40771484 310.10302734 C316.01225279 313.93718908 319.66861208 317.70239211 323.42333984 321.38989258 C325.0925072 323.09446965 326.6439662 324.86891827 328.1875 326.6875 C331.7417606 330.81942824 335.57318745 334.63431015 339.47338867 338.4362793 C342.2263218 341.14147105 344.82592623 343.91731941 347.34375 346.84375 C351.18419456 351.28347272 355.31371504 355.38860386 359.5 359.5 C360.95045284 360.92450556 362.39839265 362.35157464 363.84375 363.78125 C364.47474609 364.40064453 365.10574219 365.02003906 365.75585938 365.65820312 C367.59135389 367.5735712 369.31356514 369.51952978 371.03735352 371.53295898 C375.94601325 377.17674738 381.26705988 382.41126256 386.55859375 387.69140625 C387.67300218 388.80649011 388.78726229 389.92172222 389.90138245 391.03709412 C392.22536021 393.36253762 394.55111464 395.68618511 396.87817383 398.00854492 C399.84120451 400.96587903 402.7997217 403.92768128 405.75691128 406.89085484 C408.05352632 409.19110598 410.35254566 411.48894231 412.65226936 413.78608513 C413.74329806 414.87645297 414.83360177 415.9675468 415.92312431 417.05941963 C421.25624636 422.40152299 426.59678577 427.68827568 432.35585022 432.57603455 C435.04790795 434.90757225 437.51537989 437.45169331 440 440 C443.7712455 443.81760125 447.58733954 447.48104791 451.67578125 450.9609375 C455.02260237 453.89714023 458.25398941 456.95320877 461.5 460 C466.58695998 464.76547005 471.69584223 469.47586543 477 474 C478.0210281 474.87477272 479.04184071 475.74979699 480.0625 476.625 C481.83237774 478.14257871 483.6028262 479.65946057 485.37524414 481.17407227 C488.51401357 483.85822411 491.64083018 486.55446588 494.74609375 489.27734375 C501.25467723 494.97892391 507.82443992 500.53763142 514.66455078 505.83837891 C518.44279563 508.76691498 522.16553752 511.75291299 525.86108398 514.78515625 C540.11267882 526.47806374 555.00164362 537.29045562 570 548 C570.7729541 548.55413574 571.5459082 549.10827148 572.34228516 549.67919922 C598.89769681 568.67868329 626.74058442 586.07642024 655.45947266 601.62011719 C658.35896666 603.19497209 661.24715265 604.78981826 664.13671875 606.3828125 C704.68317278 628.58612145 747.2025583 646.60945102 791.00628662 661.3293457 C792.9671148 661.98893793 794.92630263 662.65321642 796.88525391 663.31835938 C881.4108242 691.93448103 970.58391219 706.31335461 1093 714 C1093.76072815 714.03760437 1094.5214563 714.07520874 1095.30523682 714.11395264 C1197.05018328 719.1038259 1299.9953129 711.5758795 1655.69824219 602.62744141 C1658.90129434 601.04865217 1662.11039501 599.48274073 1665.3203125 597.91796875 C1678.30930901 591.54688878 1690.93796482 584.66775144 1703.47265625 577.44726562 C1706.33773853 575.8065964 1709.22255171 574.20464001 1712.11279297 572.60888672 C1730.75266785 562.27376333 1748.58018328 550.74159613 1766.3125 538.9375 C1767.20088562 538.34730072 1768.08927124 537.75710144 1769.00457764 537.14901733 C1784.89676643 526.57787553 1800.46758158 515.60436583 1815.625 504 C1816.49688965 503.33411865 1817.3687793 502.6682373 1818.26708984 501.98217773 C1825.7293468 496.25756646 1833.05241675 490.37442136 1840.30859375 484.39160156 C1842.73677601 482.39381881 1845.18286415 480.41818576 1847.625 478.4375 C1857.43950612 470.38872212 1867.0022547 462.08649333 1876.31640625 453.46484375 C1878.6169365 451.35183852 1880.94659183 449.28894966 1883.3125 447.25 C1886.40159645 444.57490617 1889.27633676 441.74794662 1892.13623047 438.83129883 C1893.88642944 437.11159192 1895.6886046 435.52093611 1897.55859375 433.93359375 C1902.79471246 429.37924251 1907.66788852 424.47807341 1912.5625 419.5625 C1913.46935547 418.65951172 1914.37621094 417.75652344 1915.31054688 416.82617188 C1919.87356608 412.25653481 1924.31396596 407.64468007 1928.49389648 402.72045898 C1930.09008716 400.89709123 1931.77004626 399.19628129 1933.5 397.5 C1936.53594925 394.51127663 1939.34508659 391.38293521 1942.125 388.15625 C1944.17359094 385.80037042 1946.27203002 383.4949254 1948.375 381.1875 C1952.20036325 376.94423992 1955.8509409 372.59140503 1959.44140625 368.1484375 C1961.32262409 365.82188546 1963.23129752 363.52033191 1965.15234375 361.2265625 C1973.42727875 351.3219671 1981.29921294 341.16451682 1988.95507812 330.77441406 C1990.46924732 328.72008995 1991.98927033 326.67072135 1993.51367188 324.62402344 C1999.83545294 316.10700423 2005.87009653 307.43066631 2011.73486328 298.59326172 C2013.12667159 296.49748292 2014.52585741 294.40677037 2015.92578125 292.31640625 C2020.88352661 284.8838097 2025.67335375 277.38706691 2030.17776489 269.66955566 C2031.63753638 267.18201428 2032.95053002 265.04946998 2035 263 C2037.81757635 269.56283502 2040.62856434 276.12846325 2043.43505859 282.69604492 C2044.38993444 284.92845982 2045.34629898 287.16023858 2046.30419922 289.39135742 C2047.68331488 292.60428161 2049.0570047 295.81947935 2050.4296875 299.03515625 C2051.07041702 300.52306419 2051.07041702 300.52306419 2051.72409058 302.04103088 C2057.45053502 315.49568995 2057.45053502 315.49568995 2056.3034668 319.32568359 C2055.85656494 320.00969238 2055.40966309 320.69370117 2054.94921875 321.3984375 C2054.19088745 322.59327759 2054.19088745 322.59327759 2053.41723633 323.81225586 C2052.84642334 324.65796143 2052.27561035 325.50366699 2051.6875 326.375 C2051.10444092 327.27549072 2050.52138184 328.17598145 2049.9206543 329.10375977 C2047.97428272 332.08812827 2045.99109543 335.04530459 2044 338 C2043.29649414 339.0533252 2042.59298828 340.10665039 2041.86816406 341.19189453 C2036.97706609 348.50655902 2032.0135812 355.76882271 2027 363 C2026.27151855 364.0530835 2026.27151855 364.0530835 2025.52832031 365.12744141 C2010.97604114 386.08339454 1994.94367778 406.0055389 1978.37255859 425.38916016 C1976.96681432 427.03894684 1975.57072891 428.69654745 1974.17578125 430.35546875 C1967.04739399 438.79934893 1959.58833616 446.88702243 1951.98388672 454.90283203 C1949.9512707 457.05151177 1947.92939958 459.20984613 1945.91015625 461.37109375 C1925.75012899 482.93312005 1925.75012899 482.93312005 1915.92578125 491.29296875 C1913.68863389 493.27599795 1911.59945348 495.37193386 1909.5 497.5 C1906.14743221 500.89268399 1902.70524318 504.09100684 1899.0859375 507.1953125 C1896.74974499 509.21651276 1894.47035149 511.29378839 1892.1875 513.375 C1887.89040173 517.25350727 1883.46241246 520.92865968 1878.9609375 524.56640625 C1876.30230944 526.75153195 1873.6995161 528.9839975 1871.10546875 531.24438477 C1864.09301596 537.345654 1856.83885787 543.04478404 1849.421875 548.64453125 C1846.42956377 550.90469534 1843.46318377 553.19349323 1840.515625 555.51171875 C1839.76055664 556.10484863 1839.00548828 556.69797852 1838.22753906 557.30908203 C1836.82594584 558.41235281 1835.42653163 559.51840309 1834.03027344 560.62841797 C1820.18149506 571.50293971 1805.40141436 581.1927139 1790.75 590.9375 C1789.46641098 591.79198227 1789.46641098 591.79198227 1788.15689087 592.66372681 C1775.58666927 601.02507402 1763.00267353 609.32090288 1750 617 C1749.02450195 617.57685547 1748.04900391 618.15371094 1747.04394531 618.74804688 C1669.57539816 664.36282935 1587.17590532 699.57568369 1288.0390625 763.96484375 C1287.36990814 764.02756973 1286.70075378 764.09029572 1286.01132202 764.15492249 C1250.67314392 767.32347807 1215.26953998 768.36185576 1179.80470276 768.25794983 C1176.88009647 768.24984084 1173.95549798 768.24491282 1171.03088379 768.24060059 C1142.31204957 768.19191385 1113.66525681 767.89976294 1085 766 C1082.89078845 765.86440991 1080.78157617 765.72883098 1078.67236328 765.59326172 C984.43612499 759.44609251 890.83962019 744.84936303 737 691 C735.86900879 690.51644043 734.73801758 690.03288086 733.57275391 689.53466797 C707.20469716 678.21549201 681.26249524 665.89586826 656.47265625 651.42578125 C653.42232347 649.66690058 650.33378249 647.98575168 647.23828125 646.30810547 C612.84610674 627.60697467 580.31101698 604.64363292 549.33251953 580.79345703 C547.33954427 579.26107308 545.34179552 577.73546434 543.33984375 576.21484375 C531.82026561 567.43598308 520.60493349 558.27926909 509.58422852 548.88305664 C506.24227328 546.03628294 502.85591237 543.25426368 499.4375 540.5 C494.36392507 536.37309794 489.56258858 531.99897442 484.76953125 527.5546875 C482.54081607 525.49886278 480.29232081 523.48383043 478 521.5 C473.12224771 517.26590986 468.38243519 512.88182522 463.63378906 508.50439453 C461.95361048 506.95728448 460.27001709 505.41395575 458.5859375 503.87109375 C453.52414927 499.22617569 448.49885464 494.57068416 443.69200134 489.65956116 C442.08697283 488.08530533 440.42969291 486.64696852 438.70922852 485.20092773 C431.97681708 479.33797525 425.76872534 472.9122439 419.46484375 466.59765625 C418.05829696 465.19178434 416.65160185 463.7860608 415.24476624 462.38047791 C412.30730236 459.44448232 409.37163918 456.50670131 406.43725586 453.56762695 C402.6929794 449.81765377 398.94423066 446.07218869 395.19411373 442.32805729 C392.2916656 439.42923828 389.39162265 436.52802245 386.49228096 433.62609673 C385.11164105 432.24479405 383.73026988 430.86422185 382.34812737 429.48442268 C369.57192517 416.72513608 369.57192517 416.72513608 364.29786682 410.52024841 C362.64408292 408.58309869 360.88081981 406.78251045 359.0625 405 C358.39476562 404.34 357.72703125 403.68 357.0390625 403 C356.36617188 402.34 355.69328125 401.68 355 401 C350.34080579 396.43006238 345.88083983 391.78930554 341.62109375 386.84375 C339.35753739 384.26929553 336.95297773 381.8952606 334.5 379.5 C330.7569411 375.81289306 327.21743886 372.02476643 323.80859375 368.02734375 C320.89763641 364.76430517 317.75691439 361.73699559 314.625 358.6875 C311.92416459 355.92235899 309.40479416 353.04741804 306.87402344 350.12792969 C303.71540974 346.54136416 300.41566992 343.09001005 297.125 339.625 C291.32649067 333.49169301 285.60963758 327.30675759 280 321 C278.45903924 319.29102989 276.91736112 317.58270637 275.375 315.875 C272.15176747 312.29486975 268.96600883 308.68557236 265.8046875 305.05078125 C263.77041859 302.73911203 261.6977769 300.4646857 259.625 298.1875 C256.55253227 294.78916448 253.61557378 291.32409477 250.75 287.75 C246.09341188 281.99053574 241.07165823 276.62051301 236.0078125 271.22265625 C233.1577443 268.18205669 230.39511189 265.07651576 227.671875 261.921875 C225.64241927 259.58894926 223.572353 257.29488755 221.5 255 C218.81016569 252.01937279 216.13689636 249.02754767 213.5 246 C207.14345429 238.71038336 200.62123664 231.57076058 194.07592773 224.45092773 C191.29735106 221.42566625 188.54562883 218.37881025 185.8125 215.3125 C171.44876635 199.37298417 156.34291985 184.18379387 141.16113281 169.03076172 C138.08735306 165.96273619 135.01816621 162.89016094 131.95023346 159.8162899 C129.55326644 157.41569392 127.15390417 155.0175033 124.75382996 152.62001419 C123.62093547 151.48777953 122.48876307 150.35482182 121.3573761 149.22108078 C115.41168181 143.26570536 109.40504923 137.4659256 103 132 C101.65740533 130.77045367 100.32150538 129.53343535 99 128.28125 C98.01 127.34732422 98.01 127.34732422 97 126.39453125 C95.66666667 125.13151042 94.33333333 123.86848958 93 122.60546875 C89.00565804 118.83736882 84.94620278 115.16694898 80.79931641 111.56738281 C78.56412587 109.62031046 76.37529997 107.62505531 74.1875 105.625 C69.920411 101.77294701 65.5189675 98.13062151 61.05078125 94.515625 C56.82184538 91.02851271 52.7016972 87.42146598 48.57226562 83.81762695 C43.88600948 79.7387817 39.12056747 75.78466306 34.26953125 71.90234375 C29.50304842 67.90703026 26.92254361 64.24575175 24.53125 58.5 C24.21385864 57.75933289 23.89646729 57.01866577 23.56945801 56.2555542 C22.53717871 53.84080959 21.51851381 51.42057884 20.5 49 C19.79125564 47.33458145 19.08161328 45.66954479 18.37109375 44.00488281 C16.93407762 40.6347961 15.50215029 37.2626174 14.07421875 33.88867188 C12.16062847 29.37133672 10.22567552 24.86350987 8.28125 20.359375 C7.71806571 19.05339976 7.15491363 17.74741062 6.59179688 16.44140625 C5.54632791 14.01688222 4.50073487 11.59241182 3.45507812 9.16796875 C2.99552734 8.09675781 2.53597656 7.02554688 2.0625 5.921875 C1.66160156 4.98956055 1.26070313 4.05724609 0.84765625 3.09667969 C0 1 0 1 0 0 Z " fill="#000000" transform="translate(0,700)"/>
<path d="M0 0 C0.88111891 -0.00282738 1.76223782 -0.00565475 2.6700573 -0.00856781 C7.3533646 -0.02343325 12.03664223 -0.03273651 16.7199707 -0.03710938 C20.48797544 -0.04144623 24.255745 -0.05516841 28.02368164 -0.078125 C54.77730582 -0.23758737 81.2261002 0.75566016 107.87109375 3.203125 C109.01595245 3.30790161 110.16081116 3.41267822 111.34036255 3.52062988 C117.19624022 4.07381431 123.03487878 4.72257403 128.87109375 5.453125 C129.71033386 5.55572632 130.54957397 5.65832764 131.41424561 5.76403809 C164.97309603 9.89018345 198.01980022 16.24793918 230.87109375 24.203125 C231.59327087 24.37674561 232.315448 24.55036621 233.05950928 24.72924805 C268.34643596 33.22791466 303.30594276 44.38951289 336.87109375 58.203125 C338.3725293 58.81172363 338.3725293 58.81172363 339.90429688 59.43261719 C404.907077 85.84638045 468.75501809 120.68972215 520.3203125 168.8359375 C522.42303238 170.78731307 524.55724101 172.66316437 526.74609375 174.515625 C535.7425198 182.32384383 544.29417435 191.01376201 551.87109375 200.203125 C552.55655273 201.01789307 552.55655273 201.01789307 553.25585938 201.84912109 C554.90748998 203.81390333 556.54654681 205.78867971 558.18359375 207.765625 C558.692854 208.37196777 559.20211426 208.97831055 559.72680664 209.60302734 C560.2449292 210.23547363 560.76305176 210.86791992 561.296875 211.51953125 C561.85131098 212.17344062 562.40574696 212.82734999 562.97698402 213.50107479 C564.87109375 216.203125 564.87109375 216.203125 566.31564903 219.87866306 C568.30454618 224.57215436 570.56954633 228.32317623 574.87109375 231.203125 C583.98579174 233.98619001 594.14260539 233.19234387 603.59276462 233.02865231 C607.58596411 232.97599334 611.57855439 233.01039755 615.57189941 233.03399658 C622.48275664 233.06302904 629.39165908 233.03743303 636.30226517 232.97427177 C646.2933385 232.88303547 656.2831352 232.87489847 666.27455513 232.88675917 C682.48600983 232.90375963 698.69653917 232.85396211 714.90771484 232.76196289 C730.65125494 232.67276102 746.3943907 232.61513947 762.13818359 232.59985352 C763.10931692 232.59889966 764.08045024 232.5979458 765.08101185 232.59696304 C769.95311238 232.59237199 774.82521319 232.58840038 779.6973145 232.5847367 C820.08906576 232.5535625 860.47990589 232.4139004 900.87109375 232.203125 C901.26377441 233.25064941 901.65645508 234.29817383 902.06103516 235.37744141 C903.54505801 239.33359466 905.03340923 243.28810859 906.52294922 247.2421875 C907.16211738 248.94064941 907.80017349 250.6395303 908.43701172 252.33886719 C912.01118317 261.87374346 915.675585 271.32231583 919.81787109 280.62646484 C920.87109375 283.203125 920.87109375 283.203125 920.87109375 285.203125 C877.76176673 285.59239873 834.65264279 285.89187004 791.54190581 286.0712356 C786.45013485 286.09249713 781.35836735 286.11450065 776.26660156 286.13696289 C775.25294027 286.14142217 774.23927897 286.14588145 773.19490066 286.15047585 C756.79042453 286.22441083 740.38696312 286.35842531 723.98308858 286.51472253 C707.14590921 286.673808 690.30926052 286.76814643 673.47136045 286.80262941 C663.08420372 286.82593514 652.69991499 286.89947685 642.31364146 287.03770494 C635.18723762 287.12770577 628.06231189 287.15469818 620.93538126 287.13264842 C616.82468871 287.1217762 612.71899738 287.13818685 608.60919952 287.22961807 C584.60481022 287.73777564 584.60481022 287.73777564 578.41194248 283.53371882 C574.49353582 279.62431517 572.03889313 275.26102049 569.83391809 270.2248534 C568.41296995 267.24116149 566.52561509 265.0139579 564.37109375 262.515625 C563.27474609 261.21625 563.27474609 261.21625 562.15625 259.890625 C561.02509766 258.5603125 561.02509766 258.5603125 559.87109375 257.203125 C559.08605469 256.23375 558.30101562 255.264375 557.4921875 254.265625 C550.73773029 246.0193314 543.32189322 238.43884119 535.80859375 230.890625 C535.0486763 230.12294296 535.0486763 230.12294296 534.27340698 229.3397522 C528.21666501 223.2342909 522.03268852 217.52390476 515.30297852 212.14916992 C512.76760827 210.12031376 510.32784858 208.01007589 507.89648438 205.859375 C494.3928544 193.96373169 479.55712996 183.87650648 464.62109375 173.890625 C464.00000732 173.47441895 463.3789209 173.05821289 462.73901367 172.62939453 C399.59341715 130.39874172 328.18664366 100.51537336 254.87109375 81.203125 C254.20605835 81.02779236 253.54102295 80.85245972 252.85583496 80.67181396 C207.58156943 68.78041488 161.5470922 61.02838446 114.93359375 56.953125 C113.98294037 56.86985962 113.03228699 56.78659424 112.05282593 56.70080566 C88.14905801 54.63676788 64.3573245 53.99559767 40.37109375 54.015625 C39.29529053 54.01602531 39.29529053 54.01602531 38.19775391 54.01643372 C15.36903525 54.02708144 -7.3677481 54.31577348 -30.12890625 56.203125 C-30.91112549 56.26628906 -31.69334473 56.32945312 -32.49926758 56.39453125 C-115.06896341 63.08206195 -197.8295755 80.06526354 -414.12890625 199.203125 C-414.63921387 199.62706543 -415.14952148 200.05100586 -415.67529297 200.48779297 C-423.13793595 206.6979644 -430.40774222 213.08420368 -437.51171875 219.70361328 C-439.23974276 221.30589641 -440.98051894 222.89354846 -442.72265625 224.48046875 C-451.08117613 232.13329337 -458.94593711 240.11503843 -466.57128906 248.49707031 C-467.98242248 250.04268165 -469.41020897 251.57304808 -470.83984375 253.1015625 C-476.27588392 258.94916408 -481.26392653 265.04486112 -486.13354492 271.36206055 C-488.03053337 273.80971164 -489.95338725 276.23058405 -491.91650391 278.62548828 C-499.20063914 287.52456484 -505.80278573 296.72902281 -512.12890625 306.328125 C-512.84175278 307.4036261 -512.84175278 307.4036261 -513.56900024 308.50085449 C-520.7587049 319.35879424 -527.66164953 330.3173468 -533.83300781 341.79345703 C-535.17163113 344.2825701 -536.53673414 346.75607562 -537.90234375 349.23046875 C-545.29828725 362.80884783 -551.37175447 376.86300966 -557.12890625 391.203125 C-557.46905762 392.04020996 -557.80920898 392.87729492 -558.15966797 393.73974609 C-566.71717588 414.98365884 -572.65056377 437.57968219 -576.12890625 460.203125 C-576.24459961 460.90791992 -576.36029297 461.61271484 -576.47949219 462.33886719 C-585.9550678 522.08841667 -575.32451231 595.25514913 -553.609375 651.2421875 C-552.22099638 654.84793235 -551.13249296 658.47271977 -550.12890625 662.203125 C-552.55840512 659.96953196 -554.13990345 657.70896034 -555.765625 654.84375 C-556.25611328 653.98386475 -556.74660156 653.12397949 -557.25195312 652.23803711 C-558.02635742 650.85950562 -558.02635742 650.85950562 -558.81640625 649.453125 C-559.35458984 648.49865479 -559.89277344 647.54418457 -560.44726562 646.56079102 C-561.52542954 644.64317643 -562.6008376 642.7240095 -563.67333984 640.80322266 C-564.86051423 638.68255725 -566.06251407 636.57195721 -567.2734375 634.46484375 C-599.96450143 575.89622185 -617.86497429 499.68548557 -611.37890625 432.578125 C-611.29092773 431.65700928 -611.20294922 430.73589355 -611.11230469 429.78686523 C-604.61134734 366.58490118 -575.9527625 305.32573574 -539.12890625 254.203125 C-538.29311035 253.04272705 -538.29311035 253.04272705 -537.44042969 251.85888672 C-530.6054774 242.40903324 -523.66662381 233.10646812 -516.12890625 224.203125 C-515.2598677 223.16061363 -514.39140777 222.11761972 -513.5234375 221.07421875 C-507.70022048 214.10106917 -501.68142187 207.34293415 -495.49951172 200.68701172 C-494.12803697 199.20218387 -492.76928015 197.70670134 -491.4140625 196.20703125 C-483.15209914 187.077495 -474.69811635 178.08850082 -465.30859375 170.1015625 C-462.99134381 168.08331255 -460.74695107 165.99991206 -458.50195312 163.90209961 C-452.24810922 158.06221959 -445.83696365 152.52172195 -439.12890625 147.203125 C-438.08588889 146.36724816 -437.04292213 145.53130816 -436 144.6953125 C-364.07115485 87.33446884 -279.79766626 47.78126466 0 0 Z " fill="#000000" transform="translate(1144.12890625,243.796875)"/>
<path d="M0 0 C9.57 0 19.14 0 29 0 C34.61 15.84 40.22 31.68 46 48 C48.88346749 41.07967801 51.73390135 34.23631137 54.296875 27.20703125 C54.57597717 26.44952072 54.85507935 25.69201019 55.14263916 24.9115448 C56.31396209 21.73240128 57.47936511 18.55109849 58.64501953 15.36987305 C59.50590518 13.02309781 60.37002429 10.67753199 61.234375 8.33203125 C61.62964386 7.24786674 61.62964386 7.24786674 62.03289795 6.14179993 C63.88710361 1.11289639 63.88710361 1.11289639 65 0 C73.91 0 82.82 0 92 0 C92 26.07 92 52.14 92 79 C86.72 79 81.44 79 76 79 C75.67 60.52 75.34 42.04 75 23 C69.20718812 39.18334338 69.20718812 39.18334338 63.42260742 55.36962891 C62.69219149 57.40538001 61.96149726 59.44103129 61.23046875 61.4765625 C60.67051208 63.04990356 60.67051208 63.04990356 60.09924316 64.6550293 C59.73415649 65.66944092 59.36906982 66.68385254 58.99291992 67.72900391 C58.67981369 68.60392487 58.36670746 69.47884583 58.04411316 70.38027954 C56.86907382 73.32849887 55.41934595 76.16130809 54 79 C48.72 79 43.44 79 38 79 C35.20137489 72.11233313 32.58442977 65.18947945 30.109375 58.1796875 C29.79887207 57.30513916 29.48836914 56.43059082 29.16845703 55.52954102 C28.02678771 52.31213469 26.88858816 49.09349799 25.75 45.875 C23.1925 38.65625 20.635 31.4375 18 24 C17.67 42.15 17.34 60.3 17 79 C11.39 79 5.78 79 0 79 C0 52.93 0 26.86 0 0 Z " fill="#C6011F" transform="translate(1991,1243)"/>
<path d="M0 0 C21.12 0 42.24 0 64 0 C64 4.95 64 9.9 64 15 C56.08 15 48.16 15 40 15 C40 36.12 40 57.24 40 79 C34.72 79 29.44 79 24 79 C24 57.88 24 36.76 24 15 C16.08 15 8.16 15 0 15 C0 10.05 0 5.1 0 0 Z " fill="#C6011F" transform="translate(1914,1243)"/>
</svg>