<svg xmlns="http://www.w3.org/2000/svg" version="1.1" viewBox="684 715 2845 2666.22">
<path d="M0 0 C220.44 0 440.88 0 668 0 C668 33 668 66 668 100 C658.1 101.65 648.2 103.3 638 105 C586.76138194 117.67481605 541.94093096 144.67405069 513.59179688 190.26464844 C510.52977389 195.40785494 507.72791742 200.67357518 505 206 C504.61360352 206.7429834 504.22720703 207.4859668 503.82910156 208.25146484 C491.15559103 232.83892514 484.08867041 259.78207429 479.75 287 C479.59885742 287.93376465 479.44771484 288.8675293 479.29199219 289.82958984 C476.29108682 310.08739458 475.70262804 330.49301342 475.7215271 350.9365387 C475.71651006 353.4494963 475.71063022 355.96245231 475.70397437 358.47540611 C475.6915759 363.88857705 475.68512549 369.30170163 475.68421364 374.71488571 C475.68282408 382.76378052 475.66996047 390.81263006 475.6549259 398.86150951 C475.62993801 412.40819783 475.61398746 425.95488224 475.60334396 439.50158882 C475.5927887 452.89768875 475.57812066 466.293774 475.55806351 479.6898632 C475.55681464 480.52549817 475.55556577 481.36113313 475.55427906 482.22209037 C475.54791455 486.46655362 475.54147755 490.71101675 475.53501268 494.95547985 C475.48945531 524.9511879 475.45296277 554.94690071 475.421875 584.94262695 C475.39166906 614.06730854 475.35731115 643.19198044 475.31738281 672.31665039 C475.31615181 673.21577201 475.31492081 674.11489362 475.3136525 675.04126135 C475.30128472 684.07132452 475.28883308 693.10138756 475.27632002 702.13145053 C475.25083563 720.5236631 475.22591067 738.91587642 475.20132446 757.30809021 C475.20019355 758.15357327 475.19906264 758.99905633 475.19789747 759.87016009 C475.12255281 816.24676216 475.06028644 872.62338007 475 929 C475.56942668 928.6579635 476.13885336 928.31592701 476.72553539 927.96352577 C479.33857857 926.39417724 481.95188015 924.8252595 484.56518555 923.25634766 C485.46079948 922.71837051 486.35641342 922.18039337 487.27916718 921.62611389 C492.15997068 918.69633302 497.05008074 915.78418907 501.95703125 912.8984375 C503.90956117 911.72513408 505.86141514 910.55070485 507.8125 909.375 C509.30620117 908.50875 509.30620117 908.50875 510.83007812 907.625 C517.78518388 903.39185922 521.82203003 898.942336 526 892 C526.93745003 890.54600239 527.87619969 889.09284166 528.81640625 887.640625 C529.73414405 886.17857033 530.64943098 884.71497491 531.5625 883.25 C532.6076852 881.58439206 533.65327467 879.91903775 534.69921875 878.25390625 C535.23853027 877.3942627 535.7778418 876.53461914 536.33349609 875.64892578 C539.16338291 871.15079043 542.01945724 866.66937574 544.875 862.1875 C545.45967041 861.26936523 546.04434082 860.35123047 546.64672852 859.40527344 C547.83696707 857.53622568 549.02731568 855.66724799 550.21777344 853.79833984 C553.14654812 849.19976239 556.07320348 844.59983662 559 840 C562.52236094 834.46415742 566.04520379 828.92862463 569.5703125 823.39453125 C577.07363628 811.61314084 584.54914876 799.81463627 592 788 C593.95783019 784.89551558 595.91608234 781.79129836 597.875 778.6875 C598.36718018 777.90761719 598.85936035 777.12773438 599.36645508 776.32421875 C602.58604613 771.22692269 605.82084162 766.13952691 609.06274414 761.05639648 C616.47581027 749.43152552 623.8014782 737.75394027 631.09570312 726.05419922 C634.29041586 720.93037149 637.48836706 715.80856886 640.6875 710.6875 C641.31390381 709.68477051 641.94030762 708.68204102 642.58569336 707.64892578 C646.85285961 700.8230251 651.14439583 694.01295178 655.44873047 687.21044922 C661.36416264 677.85466933 667.21996918 668.46165688 673.08105469 659.07177734 C674.96048007 656.06326206 676.84297196 653.05669021 678.7265625 650.05078125 C685.8766041 638.63613288 692.97142375 627.18944773 700.01928711 615.71142578 C704.47972106 608.45327515 708.97646235 601.21896843 713.5 594 C724.4463709 576.52416428 735.22370418 558.94533659 745.92871094 541.32080078 C749.69168277 535.13144932 753.49030215 528.96542179 757.3125 522.8125 C767.84125037 505.85330802 778.16845861 488.76804555 788.41357422 471.63623047 C791.22874228 466.93416971 794.06469048 462.24545315 796.91796875 457.56640625 C804.98832711 444.33165511 812.94808341 431.04238292 820.76000977 417.65332031 C825.32280188 409.8368678 829.94915907 402.06208626 834.625 394.3125 C842.25905952 381.64166993 849.65008569 368.83720463 857 356 C857.99868778 354.25952792 858.99737679 352.51905655 859.99621582 350.77867126 C923.67531596 254.06483418 923.67531596 254.06483418 938.1796875 144.8828125 C933.4885522 130.65172138 923.83427898 120.72145405 910.7578125 113.81640625 C875.76074306 96.35411914 828.20743747 99.80460972 792 99 C792 66.33 792 33.66 792 0 C987.36 0 1182.72 0 1384 0 C1384 32.67 1384 65.34 1384 99 C1348.875 99.375 1348.875 99.375 1337.93310547 99.47802734 C1321.54991433 99.66115396 1305.27864376 99.93538672 1289 102 C1287.89140625 102.14018555 1286.7828125 102.28037109 1285.640625 102.42480469 C1283.09900023 102.7882748 1280.58462897 103.20864128 1278.0625 103.6875 C1277.1746582 103.85411133 1276.28681641 104.02072266 1275.37207031 104.19238281 C1258.1531876 107.60964095 1241.72250275 113.22997839 1226 121 C1224.8246167 121.57838623 1224.8246167 121.57838623 1223.62548828 122.16845703 C1206.00338448 130.93178608 1190.36115088 141.74087062 1175 154 C1174.41911621 154.46083984 1173.83823242 154.92167969 1173.23974609 155.39648438 C1163.41115168 163.29163204 1154.5505086 172.24400549 1145.625 181.125 C1145.01876801 181.72587433 1144.41253601 182.32674866 1143.78793335 182.9458313 C1137.10511603 189.5838514 1130.7092789 196.2588815 1124.86816406 203.66040039 C1123.03195517 205.95998087 1121.11064063 208.14152224 1119.125 210.3125 C1095.90988267 236.18863869 1076.52022249 266.11264402 1056.92236328 294.7331543 C1054.99122274 297.55303196 1053.0591094 300.37223834 1051.1262207 303.19091797 C1042.95320525 315.11606031 1034.83450651 327.07719639 1026.75 339.0625 C1026.11759399 339.99988007 1025.48518799 340.93726013 1024.83361816 341.90304565 C1015.4215913 355.86028653 1006.10461306 369.87040764 996.94921875 383.99755859 C993.76161043 388.90752943 990.55251789 393.80343203 987.34579468 398.70092773 C976.41969211 415.39300121 965.54672741 432.1158733 954.80493164 448.92724609 C951.01361784 454.85960705 947.20839397 460.78225298 943.375 466.6875 C937.45943288 475.80580515 931.63438603 484.9813526 925.80712891 494.15625 C924.01251801 496.98030129 922.21567158 499.80291608 920.41796875 502.625 C913.40584589 513.63317528 906.41708213 524.65568509 899.45458984 535.6953125 C898.00918211 537.98545164 896.56159316 540.27419657 895.11328125 542.5625 C887.6731075 554.32104393 880.29158885 566.11571097 872.92333984 577.91943359 C870.40647182 581.95063958 867.88768205 585.98064261 865.36865234 590.01049805 C864.12010416 592.00794677 862.87173253 594.00550587 861.62353516 596.00317383 C858.51351445 600.98042023 855.40146862 605.95637763 852.28515625 610.9296875 C845.13311255 622.34891694 838.03467987 633.7992001 830.98510742 645.28198242 C826.4843833 652.60666885 821.94240035 659.90423578 817.375 667.1875 C811.88905201 675.93875656 806.48473853 684.73602307 801.12841797 693.56713867 C797.28586547 699.89927042 793.40721241 706.20758104 789.5 712.5 C782.59596332 723.62381073 775.79514181 734.80944553 769 746 C761.76230479 757.91644346 754.50382431 769.81913365 747.1875 781.6875 C735.56147084 800.55423986 724.07859358 819.50592215 712.69238281 838.51831055 C707.71711875 846.81993576 702.70879887 855.10117186 697.6875 863.375 C697.31447754 863.99012451 696.94145508 864.60524902 696.55712891 865.23901367 C695.50107948 866.98011248 694.44392312 868.72053974 693.38671875 870.4609375 C692.78045654 871.45915527 692.17419434 872.45737305 691.54956055 873.48583984 C690.40263033 875.34673276 689.21254613 877.18118081 688 879 C688.81750732 879.08975098 689.63501465 879.17950195 690.47729492 879.27197266 C738.14645565 884.60730419 783.11418053 896.52703456 827 916 C827.80228027 916.35416992 828.60456055 916.70833984 829.43115234 917.07324219 C889.45741534 943.78406544 941.76661738 986.49951164 987.84619141 1032.71582031 C990.02261269 1034.89766908 992.20442239 1037.07402913 994.38671875 1039.25 C995.79980037 1040.66374152 997.21257223 1042.07779274 998.625 1043.4921875 C999.2636499 1044.12881317 999.9022998 1044.76543884 1000.56030273 1045.4213562 C1004.36224998 1049.24289401 1007.97936463 1053.17927645 1011.49990845 1057.26179504 C1013.41717248 1059.48339134 1015.39508318 1061.64672892 1017.375 1063.8125 C1021.25033743 1068.10608632 1024.9222131 1072.53088002 1028.55859375 1077.02734375 C1031.27720803 1080.3375285 1034.07121916 1083.57461422 1036.875 1086.8125 C1042.81418684 1093.70337773 1048.45580341 1100.78913261 1054 1108 C1054.60360352 1108.78294434 1055.20720703 1109.56588867 1055.82910156 1110.37255859 C1103.55771269 1172.35792227 1144.76150834 1239.28962292 1181.82421875 1308.1171875 C1183.85190114 1311.88173913 1185.89422673 1315.63739313 1187.95703125 1319.3828125 C1195.23048116 1332.59598283 1202.1977408 1345.95229039 1209.08554077 1359.3691864 C1210.71966799 1362.54412159 1212.37178974 1365.70801095 1214.05371094 1368.85791016 C1223.47339863 1386.52549621 1232.28544806 1404.50463329 1241.20800781 1422.4263916 C1243.96967435 1427.97292492 1246.73323748 1433.51850678 1249.5 1439.0625 C1249.88104763 1439.82613672 1250.26209526 1440.58977345 1250.65468979 1441.37655067 C1255.20465673 1450.48859408 1259.80859678 1459.56310352 1264.59915161 1468.55168152 C1269.06142327 1476.94189873 1273.25232732 1485.46689119 1277.4710083 1493.98138428 C1284.92766985 1509.01756416 1292.44456566 1523.97547542 1300.66992188 1538.60888672 C1302.10310139 1541.18534783 1303.49985717 1543.77931857 1304.890625 1546.37890625 C1327.19967823 1589.72302726 1327.19967823 1589.72302726 1360 1625 C1359.81824219 1623.81792969 1359.63648438 1622.63585938 1359.44921875 1621.41796875 C1357.67538002 1609.41419966 1356.40729759 1597.39862387 1355.375 1585.3125 C1355.31283295 1584.5954892 1355.25066589 1583.87847839 1355.18661499 1583.13973999 C1353.68791125 1565.72647858 1352.84020289 1548.35314221 1352.83203125 1530.875 C1352.82879662 1529.19238256 1352.82543116 1527.50976537 1352.82194519 1525.82714844 C1352.8160178 1522.32128248 1352.81409825 1518.81544091 1352.81469727 1515.30957031 C1352.81477786 1511.79844944 1352.80793102 1508.28746091 1352.79418945 1504.77636719 C1352.6724899 1473.12518898 1353.86876583 1441.74282641 1357.1875 1410.25 C1357.29226654 1409.239375 1357.39703308 1408.22875 1357.50497437 1407.1875 C1366.96747221 1316.61374925 1388.2190161 1227.19685877 1493.46289062 987.57763672 C1494.88220791 985.19753001 1496.28208673 982.80759357 1497.671875 980.41015625 C1506.8616298 964.56873507 1516.72493035 949.15723582 1527 934 C1527.42071777 933.37593262 1527.84143555 932.75186523 1528.27490234 932.10888672 C1538.93369842 916.31496228 1550.28644603 901.02514032 1562 886 C1562.87905219 884.8620919 1563.75795404 883.72406764 1564.63671875 882.5859375 C1569.81007901 875.91392669 1575.13692299 869.41121581 1580.66845703 863.03271484 C1583.60771526 859.64140915 1586.45753072 856.20197655 1589.25 852.6875 C1595.12538599 845.44723306 1601.64602832 838.7966564 1608.06787109 832.04541016 C1610.29986346 829.68255546 1612.49705689 827.29019633 1614.68725586 824.88867188 C1623.4134116 815.32235137 1632.38875025 805.88086762 1642.27734375 797.50390625 C1644.10430507 795.90894002 1645.80059287 794.22982158 1647.5 792.5 C1650.39616027 789.56505187 1653.3992918 786.82271401 1656.5234375 784.1328125 C1658.47642465 782.45090243 1660.41668465 780.75725094 1662.3515625 779.0546875 C1670.09431153 772.26061434 1677.97014472 765.71049006 1686.13720703 759.43310547 C1688.11588459 757.91084633 1690.08723699 756.37938136 1692.05859375 754.84765625 C1762.11374453 700.61350318 1843.57853075 661.6847787 1964 642 C1964.94343262 641.89558594 1965.88686523 641.79117188 1966.85888672 641.68359375 C2049.13750091 632.98356294 2137.99450225 640.29374495 2279.98046875 675.16015625 C2280.90635803 675.42780289 2281.83224731 675.69544952 2282.78619385 675.97120667 C2287.24671802 677.26229181 2291.70337087 678.56444999 2296.15380859 679.88989258 C2331.38812277 690.26442982 2371.37746742 697.17703437 2405.125 678.8125 C2432.67788816 661.93227208 2443.53661846 628.76980231 2451 599 C2453.08118407 590.31460929 2455.06153656 581.60485754 2457.0168457 572.89038086 C2457.20690186 572.04831589 2457.39695801 571.20625092 2457.59277344 570.33866882 C2457.95440091 568.73419693 2458.31283526 567.12900124 2458.66772461 565.52302551 C2459.88824026 560.11175974 2459.88824026 560.11175974 2461 559 C2495.98 559 2530.96 559 2567 559 C2567 803.2 2567 1047.4 2567 1299 C2536.64 1299 2506.28 1299 2475 1299 C2474.09147368 1294.45736839 2473.60362807 1290.03633545 2473.23828125 1285.43359375 C2473.09160344 1283.67376268 2472.94410412 1281.91399993 2472.79589844 1280.15429688 C2472.71786987 1279.22480225 2472.63984131 1278.29530762 2472.55944824 1277.33764648 C2464.77250664 1185.88823539 2445.65036211 1093.4679302 2409 1009 C2408.50709473 1007.85241211 2408.01418945 1006.70482422 2407.50634766 1005.52246094 C2391.78773422 969.07192275 2373.05542755 934.3775445 2350 902 C2349.39913574 901.154375 2348.79827148 900.30875 2348.17919922 899.4375 C2340.60615581 888.83564825 2332.64290696 878.74598067 2324 869 C2322.81205822 867.62538166 2321.6244873 866.25044262 2320.4375 864.875 C2309.02010841 851.92065185 2297.2517351 839.10953732 2284 828 C2283.10796875 827.21882813 2282.2159375 826.43765625 2281.296875 825.6328125 C2257.38418324 804.80326431 2230.40968226 787.57213848 2201.83691406 773.88378906 C2200.05867675 773.02823097 2198.29083137 772.15117693 2196.5234375 771.2734375 C2168.59927339 757.71381014 2138.36910744 748.99559803 2108 743 C2107.01386719 742.80422363 2106.02773437 742.60844727 2105.01171875 742.40673828 C2026.96300273 727.29074034 1943.66193343 734.89295591 1872 770 C1871.17483887 770.39767578 1870.34967773 770.79535156 1869.49951172 771.20507812 C1845.68797729 782.76132271 1823.85393297 798.57842243 1804 816 C1803.27401611 816.63695801 1802.54803223 817.27391602 1801.80004883 817.93017578 C1795.49234702 823.53296215 1789.44918999 829.3645639 1783.48608398 835.32861328 C1781.94076934 836.8717353 1780.38759554 838.40664306 1778.83398438 839.94140625 C1772.43691273 846.30252465 1766.60997657 852.92264893 1761 860 C1759.92752285 861.29397879 1758.85114349 862.58474103 1757.76953125 863.87109375 C1699.91380917 933.35943736 1664.54079806 1022.91955649 1641.63293457 1109.60693359 C1640.96362381 1112.13753496 1640.28787607 1114.66637585 1639.61230469 1117.1953125 C1613.24630451 1216.36153025 1600.44439441 1318.51909712 1593.8125 1420.75 C1593.73359528 1421.94675354 1593.65469055 1423.14350708 1593.57339478 1424.37652588 C1593.025707 1432.78765783 1592.54780415 1441.20134112 1592.12082291 1449.61933899 C1592.0377608 1451.25597165 1591.95374107 1452.8925559 1591.86892319 1454.52909851 C1589.90803682 1492.54525585 1589.65465495 1530.5204544 1589.68631965 1568.57547259 C1589.68975938 1574.12132947 1589.68030732 1579.66705953 1589.66381836 1585.21289062 C1589.56338734 1619.84833939 1589.87586172 1654.41645118 1591.375 1689.0234375 C1591.40588077 1689.74193469 1591.43676155 1690.46043188 1591.4685781 1691.20070171 C1595.63424658 1787.61350237 1606.02437309 1883.80097397 1666 2136 C1666.32744202 2136.99522675 1666.32744202 2136.99522675 1666.66149902 2138.01055908 C1686.82269546 2199.13220943 1712.85330776 2258.78670689 1746 2314 C1747.15373622 2315.94265466 1748.30738194 2317.88536306 1749.4609375 2319.828125 C1769.13686122 2352.76060202 1791.86515954 2384.12380682 1817.734375 2412.48828125 C1819.60547828 2414.56262506 1821.44510043 2416.65718748 1823.27734375 2418.765625 C1831.81971769 2428.54448531 1840.63156398 2438.25149078 1850.44921875 2446.765625 C1853.05991472 2449.05248273 1855.58854518 2451.40974911 1858.11572266 2453.7878418 C1864.53062246 2459.81674723 1871.08790014 2465.54121344 1878 2471 C1879.24501957 2472.01013583 1880.48979335 2473.02057465 1881.734375 2474.03125 C1894.88154429 2484.59166 1908.84707502 2493.86205688 1923 2503 C1923.73814941 2503.47808105 1924.47629883 2503.95616211 1925.23681641 2504.44873047 C1974.85097878 2536.27254266 2033.44668326 2556.18097053 2092 2562 C2093.37961914 2562.14139404 2093.37961914 2562.14139404 2094.78710938 2562.28564453 C2105.3413265 2563.23784069 2115.91118973 2563.24352675 2126.5 2563.25 C2127.49554901 2563.25067474 2128.49109802 2563.25134949 2129.51681519 2563.25204468 C2146.18809721 2563.2341694 2162.48733978 2562.47081926 2179 2560 C2180.1353418 2559.83371094 2181.27068359 2559.66742187 2182.44042969 2559.49609375 C2250.51473126 2549.20778621 2318.61857227 2519.28320961 2369.5234375 2472.265625 C2371.52227586 2470.4370347 2373.55004678 2468.66960629 2375.60546875 2466.90625 C2380.4328989 2462.6915408 2384.97866023 2458.20741884 2389.50854492 2453.67675781 C2390.92668284 2452.26080053 2392.35296665 2450.85301711 2393.77929688 2449.4453125 C2399.96174299 2443.27575543 2405.57711658 2436.8416728 2411 2430 C2412.00120557 2428.78033013 2413.0047446 2427.56256787 2414.01171875 2426.34765625 C2447.39049397 2385.58057285 2490.36585172 2318.3808894 2485 2263 C2483.56641311 2254.42217431 2479.55112553 2246.55647829 2472.6875 2241.0625 C2467.8290872 2237.68678899 2462.61605002 2234.84522184 2457.49853516 2231.88525391 C2447.01709418 2225.76021188 2437.83122016 2218.32143835 2429 2210 C2427.96939453 2209.06607422 2427.96939453 2209.06607422 2426.91796875 2208.11328125 C2409.24159532 2191.48284708 2398.5855335 2166.33307331 2397.796875 2142.22265625 C2397.33855649 2112.37718536 2406.1469412 2085.59952939 2426 2063 C2427.175625 2061.453125 2427.175625 2061.453125 2428.375 2059.875 C2443.28790851 2043.54181449 2465.37793951 2031.81779563 2487.5703125 2030.6171875 C2499.303988 2030.25991056 2509.86047768 2031.21629633 2521 2035 C2522.04027344 2035.350625 2523.08054687 2035.70125 2524.15234375 2036.0625 C2537.86266355 2041.25116242 2549.22206463 2050.295386 2560 2060 C2560.65355469 2060.58136719 2561.30710937 2061.16273438 2561.98046875 2061.76171875 C2592.37737564 2090.42578534 2608.65867166 2130.38821765 2610.12597656 2171.5324707 C2610.20670056 2175.43864355 2610.24660692 2179.34312906 2610.25 2183.25 C2610.25101212 2184.31513824 2610.25101212 2184.31513824 2610.25204468 2185.40179443 C2610.1135468 2278.68205956 2576.05243619 2373.5772835 2525 2451 C2524.56155762 2451.66725098 2524.12311523 2452.33450195 2523.67138672 2453.02197266 C2510.70471005 2472.63023663 2496.10049779 2491.126029 2480.265625 2508.48828125 C2479.02189097 2509.86711053 2477.78474783 2511.25240417 2476.57983398 2512.6652832 C2471.67881216 2518.39109145 2466.42151943 2523.73121377 2461.0847168 2529.0456543 C2459.56508332 2530.5599258 2458.05087483 2532.0794743 2456.53710938 2533.59960938 C2451.19758085 2538.94311876 2445.7688876 2544.11751375 2440 2549 C2438.99030898 2549.87694091 2437.98115839 2550.75450461 2436.97265625 2551.6328125 C2412.0550571 2572.97164238 2384.98813083 2591.28172973 2356.12353516 2606.85009766 C2354.06796677 2607.96319574 2352.02373621 2609.09498654 2349.98046875 2610.23046875 C2281.2254115 2648.0348845 2196.81291223 2666.10183636 2118.546875 2666.16796875 C2117.11224336 2666.1712026 2115.67761201 2666.17456802 2114.24298096 2666.17805481 C2111.25475302 2666.18398215 2108.2665537 2666.18590169 2105.27832031 2666.18530273 C2102.28086235 2666.18522204 2099.28355905 2666.19208577 2096.28613281 2666.20581055 C2076.76584133 2666.29370523 2057.45839016 2665.77529231 2038 2664 C2036.76772675 2663.88998154 2036.76772675 2663.88998154 2035.51055908 2663.77774048 C2030.89405996 2663.35761935 2026.29083984 2662.86079532 2021.6875 2662.3125 C2021.00563629 2662.23174225 2020.32377258 2662.1509845 2019.62124634 2662.06777954 C1991.40512555 2658.68123609 1963.47556865 2653.23344806 1936 2646 C1934.4536084 2645.5987793 1934.4536084 2645.5987793 1932.87597656 2645.18945312 C1893.81284527 2634.97735936 1856.3493066 2620.50110222 1820 2603 C1818.92556641 2602.48469727 1817.85113281 2601.96939453 1816.74414062 2601.43847656 C1801.68337348 2594.17623721 1787.1266703 2586.274428 1772.79150391 2577.67138672 C1770.13367608 2576.08003729 1767.46553799 2574.50783869 1764.79296875 2572.94140625 C1723.96512846 2548.90518137 1685.3174797 2519.89457225 1650.25390625 2488.0390625 C1648.2311731 2486.20913753 1646.18630565 2484.41118272 1644.125 2482.625 C1638.65651956 2477.85231031 1633.32323339 2472.93322597 1628 2468 C1627.3797998 2467.42636719 1626.75959961 2466.85273438 1626.12060547 2466.26171875 C1617.38291107 2458.16347358 1608.81203402 2449.91133035 1600.375 2441.5 C1599.13169922 2440.26358765 1599.13169922 2440.26358765 1597.86328125 2439.00219727 C1593.5681992 2434.69620291 1589.44496052 2430.30793439 1585.47900391 2425.69726562 C1583.73998667 2423.70161561 1581.90390573 2421.83825381 1580 2420 C1576.82910002 2416.87154036 1573.8743004 2413.63144648 1570.97265625 2410.25390625 C1569.0351462 2408.04015714 1567.0485561 2405.87757752 1565.04760742 2403.72119141 C1560.21815105 2398.51462801 1555.6355974 2393.18264588 1551.1796875 2387.6484375 C1549.02242601 2385.02724881 1546.78689 2382.50845719 1544.5 2380 C1539.79373348 2374.82800919 1535.39516324 2369.43652596 1531 2364 C1529.54221617 2362.22871427 1528.0838792 2360.45788366 1526.625 2358.6875 C1521.8462258 2352.84402482 1517.1801675 2346.91647126 1512.53613281 2340.96582031 C1510.92094259 2338.89882862 1509.30041162 2336.83609217 1507.6796875 2334.7734375 C1499.23702944 2324.00386563 1491.05246524 2313.06376856 1483 2302 C1482.4548877 2301.25250488 1481.90977539 2300.50500977 1481.34814453 2299.73486328 C1477.53988031 2294.50808069 1473.76157643 2289.26046414 1470 2284 C1469.50193848 2283.30583984 1469.00387695 2282.61167969 1468.49072266 2281.89648438 C1444.63436108 2248.55805253 1422.40124144 2213.95318065 1401 2179 C1400.34918457 2177.93942383 1399.69836914 2176.87884766 1399.02783203 2175.78613281 C1389.41097595 2160.09938184 1380.02265876 2144.30163105 1370.89892578 2128.32128906 C1369.26683946 2125.46671176 1367.62885085 2122.61570691 1365.98719788 2119.76663208 C1357.6183064 2105.24120127 1349.46100471 2090.61736694 1341.53369141 2075.84521484 C1339.52059042 2072.11062731 1337.47944271 2068.39174824 1335.43798828 2064.67260742 C1329.88652386 2054.55333377 1324.49046391 2044.36075488 1319.1796875 2034.11328125 C1316.97804821 2029.86707869 1314.75421147 2025.63305957 1312.52204895 2021.40286255 C1307.00723035 2010.94989358 1301.57452677 2000.45683351 1296.1875 1989.9375 C1295.7562381 1989.09582275 1295.3249762 1988.25414551 1294.88064575 1987.38696289 C1284.65621214 1967.42623995 1274.5616224 1947.4147427 1264.9375 1927.15625 C1262.79196978 1922.64589504 1260.62172837 1918.1479642 1258.4375 1913.65625 C1251.25358363 1898.87987101 1244.1902244 1884.05928829 1237.3046875 1869.140625 C1235.01597481 1864.18380941 1232.70812378 1859.236582 1230.3828125 1854.296875 C1230.07597031 1853.64500717 1229.76912811 1852.99313934 1229.45298767 1852.32151794 C1228.9893557 1851.33660118 1228.9893557 1851.33660118 1228.51635742 1850.33178711 C1220.1825407 1832.62690908 1212.04969977 1814.83561874 1204 1797 C1203.2822354 1795.41064054 1202.56446174 1793.82128517 1201.84667969 1792.23193359 C1185.93274204 1756.98440952 1170.26404368 1721.62971219 1154.64401245 1686.25117493 C1151.83258177 1679.8839246 1149.01851984 1673.51784213 1146.203125 1667.15234375 C1138.83752347 1650.49700561 1131.48361253 1633.83682574 1124.17260742 1617.15744019 C1114.58910406 1595.29500728 1104.90988587 1573.47574601 1095.19134521 1551.67303467 C1094.03416722 1549.07666137 1092.87760471 1546.48001474 1091.72119141 1543.88330078 C1083.52670264 1525.48644623 1075.27092294 1507.11963063 1066.86914062 1488.81640625 C1063.67687891 1481.86122814 1060.49778451 1474.90115411 1057.3671875 1467.91796875 C1048.44317423 1448.0407416 1038.98789617 1428.45105398 1029.37811279 1408.8969574 C1026.20418288 1402.43277446 1023.08647956 1395.94394482 1020 1389.4375 C1011.86299779 1372.33135591 1003.35384586 1355.41155835 994.43701172 1338.69873047 C992.79590816 1335.61671233 991.16595352 1332.52888959 989.53515625 1329.44140625 C981.95133687 1315.13019724 974.09795711 1301.01626442 965.82861328 1287.08642578 C963.89495872 1283.82270602 961.9759502 1280.55066217 960.05859375 1277.27734375 C948.38968483 1257.40104874 936.32129042 1237.81793937 923 1219 C922.50177734 1218.29456055 922.00355469 1217.58912109 921.49023438 1216.86230469 C910.57956494 1201.46100481 899.10533247 1186.48354823 887 1172 C886.57122559 1171.48630859 886.14245117 1170.97261719 885.70068359 1170.44335938 C880.34362347 1164.03541091 874.92072158 1157.7025633 869.29345703 1151.52880859 C867.87751981 1149.96756975 866.4693886 1148.39916062 865.07421875 1146.81933594 C859.07703999 1140.04485294 852.78529532 1133.5991048 846.38964844 1127.2043457 C844.62924948 1125.44175477 842.87703618 1123.67128961 841.125 1121.90039062 C835.17555123 1115.92155954 829.14859767 1110.28359811 822.53076172 1105.03417969 C820.07716939 1103.06202734 817.73832986 1101.00815286 815.40625 1098.89453125 C810.95563007 1094.89944768 806.29400318 1091.25970745 801.5 1087.6875 C800.2001416 1086.71756104 800.2001416 1086.71756104 798.87402344 1085.72802734 C790.81492384 1079.77136561 782.56433701 1074.20277182 774 1069 C773.06704102 1068.43321533 773.06704102 1068.43321533 772.11523438 1067.85498047 C721.92259563 1037.763248 664.57572551 1024.02072268 606.94287109 1037.72705078 C568.35866034 1047.53492413 531.31066173 1067.86307429 502.13671875 1095.01171875 C500.23815339 1096.77839109 498.2954721 1098.45490623 496.3125 1100.125 C495.68859375 1100.70121094 495.0646875 1101.27742188 494.421875 1101.87109375 C492 1104 492 1104 490.20898438 1105.31298828 C484.33008837 1109.62770869 478.03182879 1114.45221754 476.34825325 1121.87257195 C476.09406503 1125.18025526 476.05285347 1128.42475218 476.09204102 1131.74194336 C476.07793214 1132.96783896 476.06382326 1134.19373457 476.04928684 1135.45677853 C476.02146223 1138.02951813 476.00768442 1140.60244488 476.00737381 1143.17533493 C475.99813778 1147.96590317 475.89038071 1152.75139929 475.7805748 1157.5405283 C475.64506353 1163.67364415 475.55864355 1169.80753598 475.46484375 1175.94140625 C475.44352763 1177.28799547 475.42210105 1178.63458295 475.40056992 1179.98116875 C475.23768684 1190.17482369 475.08538281 1200.36861733 474.9375 1210.5625 C474.92642196 1211.32321682 474.91534392 1212.08393364 474.90393019 1212.86770248 C474.07405323 1269.90156545 473.72116353 1326.91531479 473.96986556 1383.9556607 C473.99578986 1389.93708972 474.01992436 1395.91852499 474.0435791 1401.89996338 C474.1592041 1431.09962533 474.28634404 1460.29922343 474.42215681 1489.49879837 C474.43730859 1492.77116074 474.45226862 1496.04352392 474.4671669 1499.31588745 C474.5943484 1527.20030337 474.7448442 1555.084454 474.93853027 1582.96849239 C474.98046287 1589.03117706 475.01931386 1595.09387232 475.05600387 1601.15659088 C475.11623156 1611.07808948 475.18666413 1620.99941821 475.27553064 1630.92070478 C475.31645681 1635.50194589 475.35350008 1640.08311011 475.37841606 1644.66446877 C475.59982996 1683.92007492 478.62106909 1722.45080159 491 1760 C491.27569824 1760.83821289 491.55139648 1761.67642578 491.83544922 1762.54003906 C500.03018972 1786.98221186 511.78098397 1810.64041159 529 1830 C530.07314453 1831.23556641 530.07314453 1831.23556641 531.16796875 1832.49609375 C533.40672856 1835.03599648 535.689888 1837.52488 538 1840 C538.79664063 1840.86238281 539.59328125 1841.72476563 540.4140625 1842.61328125 C552.20027478 1854.91580797 566.07612317 1864.85188386 581 1873 C581.61633301 1873.33837891 582.23266602 1873.67675781 582.86767578 1874.02539062 C616.37688085 1892.17223427 652.97546417 1898.60019225 690.6875 1899.5 C692.85721997 1899.55241224 695.02688132 1899.60602049 697.19648743 1899.66296387 C699.17738972 1899.71490035 701.15839462 1899.76288196 703.1394043 1899.81054688 C710.43151098 1900.09477385 717.71494923 1900.5714676 725 1901 C725 1933.34 725 1965.68 725 1999 C485.75 1999 246.5 1999 0 1999 C0 1966.66 0 1934.32 0 1901 C9.80495662 1900.42323785 19.46496831 1899.8999642 29.26245117 1899.70996094 C86.94763638 1898.58755828 140.26525728 1884.39602545 183 1844 C184.21236328 1842.86691406 184.21236328 1842.86691406 185.44921875 1841.7109375 C230.36941896 1798.41265975 247.70932169 1730.75727323 249.18364385 1670.15810919 C249.27626535 1664.1051202 249.26567756 1658.05271714 249.25168228 1651.99920654 C249.25377446 1649.67275798 249.25674131 1647.34631008 249.26049101 1645.01986361 C249.26822023 1638.6721002 249.26365045 1632.3243983 249.25693511 1625.97663599 C249.25136399 1619.76952983 249.25729834 1613.5624282 249.26188921 1607.35532296 C249.27104633 1594.52038035 249.27081023 1581.68545365 249.26532745 1568.85050964 C249.25981084 1555.85690489 249.25867555 1542.86331059 249.26280212 1529.8697052 C249.26306047 1529.0467881 249.26331881 1528.22387101 249.26358499 1527.37601703 C249.26465162 1524.0240031 249.26574905 1520.67198918 249.26688554 1517.31997527 C249.27744603 1486.15036726 249.27818966 1454.98076625 249.27259064 1423.81115723 C249.27242505 1422.88886684 249.27225946 1421.96657646 249.27208885 1421.01633789 C249.27192299 1420.09255973 249.27175713 1419.16878157 249.27158624 1418.21701014 C249.26653522 1390.0471384 249.26523925 1361.87726956 249.26763153 1333.70739746 C249.26778649 1331.81930847 249.2679408 1329.93121948 249.26809447 1328.04313049 C249.26871543 1320.45523905 249.26935277 1312.86734762 249.270014 1305.27945618 C249.2718478 1284.06958459 249.27298916 1262.85971298 249.27358627 1241.64984131 C249.27361356 1240.68408103 249.27364086 1239.71832075 249.27366897 1238.72329501 C249.27448725 1207.9607322 249.27223522 1177.1981704 249.26788712 1146.43560791 C249.26767637 1144.93948758 249.26767637 1144.93948758 249.26746136 1143.4131426 C249.26517161 1127.21689977 249.26273262 1111.02065696 249.26028102 1094.82441416 C249.25056872 1030.5925754 249.25101952 966.36074497 249.26074219 902.12890625 C249.26318467 885.94073487 249.26560681 869.75256349 249.26788712 853.56439209 C249.26802801 852.56755942 249.26816891 851.57072675 249.26831407 850.54368703 C249.27262794 819.81251078 249.27445471 789.08133523 249.27358627 758.35015869 C249.2735591 757.3851121 249.27353194 756.42006551 249.27350394 755.42577508 C249.27287892 734.23926899 249.27161152 713.05276296 249.26976527 691.86625693 C249.26910702 684.28524404 249.26848085 676.70423114 249.26786385 669.12321824 C249.26770907 667.23734663 249.26755161 665.35147502 249.26739145 663.46560341 C249.26500653 635.30495509 249.26703276 607.14431003 249.27208885 578.98366211 C249.27225444 578.06137173 249.27242003 577.13908135 249.27259064 576.18884277 C249.27283868 574.80797148 249.27283868 574.80797148 249.27309174 573.39920379 C249.27861391 542.31751886 249.27656734 511.23584232 249.26602915 480.15415859 C249.2649245 476.81287067 249.26385108 473.47158274 249.26280212 470.1302948 C249.26254171 469.31031395 249.2622813 468.4903331 249.26201299 467.64550435 C249.2580765 454.68994729 249.26080584 441.7344007 249.26634014 428.77884459 C249.27164579 416.02327359 249.26974617 403.26772016 249.26031196 390.51215138 C249.25546222 383.69602972 249.25391311 376.87994981 249.26112393 370.06382895 C249.26762912 363.85120475 249.26477595 357.63865471 249.2547626 351.42603582 C249.25276438 349.20406476 249.25403746 346.98208743 249.25917448 344.76012141 C249.30062045 325.44764883 248.31282206 306.15452623 245.25 287.0625 C245.08081055 285.99660645 244.91162109 284.93071289 244.73730469 283.83251953 C238.68017569 247.24767555 226.84102753 211.31640356 205 181 C204.3802832 180.1322998 204.3802832 180.1322998 203.74804688 179.24707031 C175.26525774 139.77290375 133.05326048 115.31290129 85.875 105.25 C84.94647217 105.05116211 84.01794434 104.85232422 83.0612793 104.64746094 C65.75322796 101.15197503 48.41433358 100.51004919 30.8125 99.9375 C27.35052957 99.8214819 23.88866653 99.70338666 20.42692566 99.58070374 C18.29125388 99.50532008 16.15543905 99.43385297 14.01948547 99.3669281 C13.05375107 99.33341751 12.08801666 99.29990692 11.09301758 99.26538086 C10.25160721 99.2381041 9.41019684 99.21082733 8.54328918 99.182724 C5.67575772 98.97670464 2.83580631 98.47263438 0 98 C0 65.66 0 33.32 0 0 Z " fill="#004587" transform="translate(684,715)"/>
<path d="M0 0 C15.18 0 30.36 0 46 0 C57.76610972 32.52205609 57.76610972 32.52205609 63.16796875 47.671875 C63.50981705 48.63046417 63.85166534 49.58905334 64.20387268 50.57669067 C65.88346401 55.28787656 67.56109815 59.99975071 69.23657227 64.71240234 C69.8503984 66.43588122 70.46424811 68.1593517 71.078125 69.8828125 C71.50069832 71.07411774 71.50069832 71.07411774 71.93180847 72.28948975 C73.30999661 76.20939156 73.30999661 76.20939156 75 80 C75.21360672 79.42546585 75.42721344 78.8509317 75.64729309 78.25898743 C85.35746916 52.14418354 95.0753675 26.0341809 105 0 C120.18 0 135.36 0 151 0 C151 41.91 151 83.82 151 127 C142.09 127 133.18 127 124 127 C123.67 95.65 123.34 64.3 123 32 C119.803125 40.848125 116.60625 49.69625 113.3125 58.8125 C107.01212923 76.22829806 100.70345089 93.64020514 94.25 111 C93.98055573 111.72579254 93.71111145 112.45158508 93.4335022 113.19937134 C89.19093156 124.61813687 89.19093156 124.61813687 88 127 C79.42 127 70.84 127 62 127 C56.3757031 113.50168744 56.3757031 113.50168744 54.52392578 108.15600586 C54.10644073 106.956931 53.68895569 105.75785614 53.25881958 104.52244568 C52.82096211 103.25325255 52.383127 101.9840517 51.9453125 100.71484375 C51.47635511 99.36490657 51.00701655 98.01510175 50.537323 96.66542053 C49.3105376 93.13772485 48.08781655 89.60863606 46.86633301 86.07910156 C44.92085945 80.45891581 42.97016858 74.84054455 41.01745224 69.22287178 C40.34961136 67.29923563 39.68428452 65.37472721 39.01907349 63.45018005 C35.47745706 53.24508819 31.73667324 43.14239878 28 33 C27.67 64.02 27.34 95.04 27 127 C18.09 127 9.18 127 0 127 C0 85.09 0 43.18 0 0 Z " fill="#004687" transform="translate(3378,3238)"/>
<path d="M0 0 C33.99 0 67.98 0 103 0 C103 7.59 103 15.18 103 23 C90.46 23 77.92 23 65 23 C65 57.32 65 91.64 65 127 C56.09 127 47.18 127 38 127 C38 92.68 38 58.36 38 23 C25.46 23 12.92 23 0 23 C0 15.41 0 7.82 0 0 Z " fill="#004687" transform="translate(3253,3238)"/>
</svg>