<svg xmlns="http://www.w3.org/2000/svg" version="1.1" viewBox="0.11 0 450.89 504">
<path d="M0 0 C-0.36351562 1.44052734 -0.36351562 1.44052734 -0.734375 2.91015625 C-9.7015306 39.18473638 -9.317824 70.11969712 1 106 C1.30115723 107.05703125 1.60231445 108.1140625 1.91259766 109.203125 C10.64277828 139.47851254 21.75131754 169.41130523 35 198 C35.66370605 199.44052734 35.66370605 199.44052734 36.34082031 200.91015625 C37.69628615 203.84078993 39.06306143 206.76572015 40.4375 209.6875 C40.85104736 210.56817139 41.26459473 211.44884277 41.69067383 212.35620117 C42.0802124 213.17064697 42.46975098 213.98509277 42.87109375 214.82421875 C43.21068115 215.53666748 43.55026855 216.24911621 43.90014648 216.9831543 C45.08679914 219.15916707 46.47001176 221.05356203 48 223 C95.59640075 135.21923598 95.59640075 135.21923598 113.125 38.375 C113.12306641 37.14620117 113.12113281 35.91740234 113.11914062 34.65136719 C113.07684048 25.73308616 112.7726483 16.88545544 112 8 C116.38340494 9.5021781 119.91329075 11.85421871 123.625 14.5625 C124.24109131 15.00867676 124.85718262 15.45485352 125.49194336 15.91455078 C134.28048476 22.33454105 142.48353082 29.30299306 150.41040039 36.75146484 C152.93968111 39.12543535 155.48745411 41.42765562 158.17578125 43.62109375 C160.51527151 45.59170173 162.43268951 47.47088202 164.375 49.8125 C166.67489803 52.52237986 169.03260134 55.00848781 171.625 57.4375 C175.78784527 61.53478865 179.31806047 66.06797735 182.875 70.6875 C183.44686035 71.42476318 184.0187207 72.16202637 184.60791016 72.92163086 C187.30889085 76.47922673 189.65319023 79.67827499 191 84 C189.94941406 84.36351563 188.89882813 84.72703125 187.81640625 85.1015625 C163.87082845 93.58383392 150.74987452 110.27942074 140.046875 132.6796875 C139.71623047 133.37932617 139.38558594 134.07896484 139.04492188 134.79980469 C137.9489824 137.10742305 136.82796343 139.40165276 135.703125 141.6953125 C129.20680543 155.02738009 123.37811777 168.62002214 117.58837891 182.27050781 C114.88406249 188.63225163 112.12752218 194.97150672 109.375 201.3125 C108.8255105 202.5790157 108.27603127 203.84553585 107.7265625 205.11206055 C106.65841478 207.57373065 105.58980272 210.03519778 104.52099609 212.49658203 C103.09222657 215.78756802 101.66504535 219.07923795 100.23828125 222.37109375 C87.25956514 252.29885987 87.25956514 252.29885987 82.7265625 261.78515625 C82.35418457 262.5652002 81.98180664 263.34524414 81.59814453 264.14892578 C80.88347185 265.63833033 80.16336788 267.12514494 79.43701172 268.60888672 C77.50181096 272.61872955 77.50181096 272.61872955 77 277 C79.0209235 278.82095206 81.01478005 280.44089795 83.1875 282.0625 C83.82171875 282.54783203 84.4559375 283.03316406 85.109375 283.53320312 C86.42718057 284.54055152 87.74802864 285.5439313 89.07177734 286.54345703 C91.89588035 288.67673109 94.69661764 290.83956353 97.5 293 C98.02730713 293.40476562 98.55461426 293.80953125 99.09790039 294.2265625 C104.89685279 298.67824807 110.65595174 303.17962031 116.38476562 307.72119141 C117.84155097 308.8745532 119.30329225 310.02164859 120.765625 311.16796875 C133.95607733 321.69268596 147.57743084 333.67202439 158 347 C157.86948242 346.35377686 157.73896484 345.70755371 157.60449219 345.04174805 C155.03570916 332.23494757 152.65581957 319.4237264 150.75 306.5 C150.58725586 305.39873779 150.42451172 304.29747559 150.25683594 303.1628418 C141.84589692 244.7550312 145.25764706 173.58326158 181.97265625 124.50170898 C194.33369944 108.51025495 194.33369944 108.51025495 201.82421875 106.0859375 C205.89942862 105.97566122 208.89283798 107.2305394 212.5 108.9375 C213.19996094 109.25887939 213.89992188 109.58025879 214.62109375 109.91137695 C233.38761616 118.69015591 249.15118432 130.6597054 264 145 C262.43444818 148.13110363 259.69159508 148.67665675 256.5625 150.125 C249.94956445 153.29086584 244.54506197 157.18898917 239 162 C238.16210938 162.64710938 237.32421875 163.29421875 236.4609375 163.9609375 C214.32619686 182.30115118 205.23578033 216.41970378 202.42553711 243.8359375 C201.59809147 252.97599233 201.60708002 262.14192547 201.625 271.3125 C201.62531723 272.82011398 201.62531723 272.82011398 201.62564087 274.35818481 C201.66095777 291.24853524 202.81322329 307.38285888 206 324 C206.17660156 324.98790527 206.35320312 325.97581055 206.53515625 326.99365234 C212.05551628 357.60609328 222.5318602 391.4519024 245 414 C245.90105469 414.93585938 245.90105469 414.93585938 246.8203125 415.890625 C252.9155257 421.74836237 260.51307261 425.2467877 268 429 C262.88355607 435.18732755 257.31167952 440.83734871 251.625 446.5 C250.7175 447.41136719 249.81 448.32273437 248.875 449.26171875 C244.29048056 453.83963225 239.65611747 458.28834788 234.73828125 462.50683594 C232.33435649 464.5717803 230.01510931 466.72476683 227.6875 468.875 C222.28527401 473.79554603 216.70041438 478.43079626 211 483 C209.7979911 483.971124 208.59617848 484.942491 207.39453125 485.9140625 C201.38134523 490.76442659 195.33777059 495.57416765 189.1875 500.25 C188.23230469 500.97703125 187.27710938 501.7040625 186.29296875 502.453125 C184 504 184 504 182 504 C181.8548999 502.94425781 181.7097998 501.88851563 181.56030273 500.80078125 C178.72628829 480.39748212 175.78829372 460.52769777 169 441 C168.74750488 440.24831543 168.49500977 439.49663086 168.23486328 438.72216797 C164.73089317 428.3506973 160.09363971 418.67526251 155 409 C154.484375 408.00097656 153.96875 407.00195312 153.4375 405.97265625 C145.39219444 390.73467262 134.82801394 377.00895474 123.17578125 364.36328125 C121.69441062 362.75425211 120.23409096 361.12564366 118.79296875 359.48046875 C113.55744375 353.51142011 108.00148981 348.19116207 102 343 C100.93846838 342.06418047 99.8772875 341.127963 98.81640625 340.19140625 C92.53918669 334.69003297 86.11293688 329.44983897 79.4375 324.4375 C78.77089355 323.93694092 78.10428711 323.43638184 77.41748047 322.9206543 C74.03680484 320.41414321 70.63029024 318.13854979 67 316 C65.97023423 337.06535279 65.81212088 358.10607706 65.81469727 379.19213867 C65.81479982 383.79829117 65.80100275 388.4042928 65.78392506 393.01040936 C65.7727205 396.62507294 65.77078042 400.2397005 65.77130699 403.85437965 C65.77014518 405.55209702 65.76582785 407.24981589 65.75797462 408.94751549 C65.65826901 432.66075721 68.40674573 453.80518163 85 472 C89.19939511 476.14539571 93.58693281 480.08474832 98 484 C94.37953368 486.19612441 90.68698958 486.658646 86.5546875 487.10546875 C85.7798703 487.18935349 85.0050531 487.27323822 84.20675659 487.35966492 C73.15870827 488.41829848 62.06093559 488.3347089 50.97265625 488.31567383 C47.16636933 488.31253412 43.36087788 488.33598305 39.5546875 488.36132812 C18.00280938 488.41642108 -4.05622487 487.55088777 -25 482 C-22.19700408 479.13901106 -19.39595527 476.47374261 -16.25 474 C2.63835379 457.57069604 8.8888002 431.09747035 10.6328125 407.2734375 C10.8175615 404.30823226 10.97550262 401.34217544 11.125 398.375 C11.18803818 397.16174545 11.18803818 397.16174545 11.25234985 395.92398071 C12.14925074 377.94462034 12.18836549 359.95449029 12.18758392 341.95740509 C12.18752827 340.45211023 12.1879554 338.94681527 12.18888092 337.44152069 C12.19900444 320.94216873 12.1839636 304.46584364 11 288 C10.92330078 286.8440332 10.84660156 285.68806641 10.76757812 284.49707031 C10.27752558 279.23705377 8.52999417 276.23721586 4.58203125 272.83984375 C0.93461517 269.95010765 -2.86478734 267.29145662 -6.68798828 264.64111328 C-10.29393867 262.08153583 -13.70976368 259.30648838 -17.125 256.5 C-17.78193848 255.96310547 -18.43887695 255.42621094 -19.11572266 254.87304688 C-37.69484009 239.62160088 -54.99999644 223.16520208 -71.9375 206.125 C-73.41056846 204.64689736 -74.8838747 203.16903165 -76.35742188 201.69140625 C-79.90768047 198.13031507 -83.45475699 194.56608418 -87 191 C-86.80664062 191.77053711 -86.61328125 192.54107422 -86.4140625 193.33496094 C-85.60703944 196.55606166 -84.80305084 199.77790684 -84 203 C-83.81050781 203.75603516 -83.62101562 204.51207031 -83.42578125 205.29101562 C-67.18814732 270.95600724 -82.70640629 337.29448176 -97.76953125 401.55859375 C-105.39837725 434.41048776 -107.9766688 467.36318653 -109 501 C-115.64413731 497.49512492 -121.81130653 493.52772042 -127.9375 489.1875 C-128.81776855 488.5672998 -129.69803711 487.94709961 -130.60498047 487.30810547 C-136.58006758 483.07247446 -142.36383911 478.6779105 -148 474 C-149.60399916 472.74978506 -151.20817275 471.49979389 -152.8125 470.25 C-162.07386467 462.84090826 -170.81898146 454.58204886 -179 446 C-179.845625 445.113125 -180.69125 444.22625 -181.5625 443.3125 C-183 441 -183 441 -182.78833008 438.73193359 C-181.85630897 435.50204317 -180.47810421 432.90498321 -178.82421875 429.9765625 C-178.50299042 429.40238586 -178.18176208 428.82820923 -177.85079956 428.2366333 C-177.1607441 427.00414774 -176.46780191 425.77327478 -175.77224731 424.54388428 C-173.92877261 421.28283483 -172.11003837 418.00802423 -170.2890625 414.734375 C-169.92247025 414.07641937 -169.55587799 413.41846375 -169.17817688 412.74057007 C-163.91030083 403.26906502 -158.89003429 393.67152381 -154 384 C-153.60264648 383.21608887 -153.20529297 382.43217773 -152.79589844 381.62451172 C-143.08157509 362.28267387 -134.81155454 341.86087861 -129 321 C-128.79181641 320.28682617 -128.58363281 319.57365234 -128.36914062 318.83886719 C-119.7333228 289.22130428 -116.33618699 255.02654281 -125 225 C-125.18723633 224.30116699 -125.37447266 223.60233398 -125.56738281 222.88232422 C-128.29639091 212.72277852 -132.2685675 203.37780555 -137 194 C-137.46019531 193.06929687 -137.92039063 192.13859375 -138.39453125 191.1796875 C-144.90230563 178.61424416 -153.28549593 167.24705722 -163 157 C-164.27772189 155.54769829 -165.54900136 154.08969269 -166.8125 152.625 C-169.1158726 149.97879985 -171.46707319 147.43160974 -174 145 C-170.06839214 133.77556514 -160.09361933 124.41467618 -152 116 C-151.13665039 115.09580322 -151.13665039 115.09580322 -150.25585938 114.17333984 C-139.87048676 103.34833085 -129.32772065 93.90987748 -116.3125 86.3125 C-115.41132446 85.78474976 -115.41132446 85.78474976 -114.49194336 85.24633789 C-113.03072835 84.42934847 -111.5183398 83.70517037 -110 83 C-107.23955834 84.38022083 -107.08718616 85.8276753 -105.96875 88.6796875 C-105.5754248 89.66219482 -105.18209961 90.64470215 -104.77685547 91.65698242 C-104.35549316 92.71892822 -103.93413086 93.78087402 -103.5 94.875 C-92.83966499 121.07759676 -78.18935484 145.30876937 -60 167 C-59.59410645 167.49467773 -59.18821289 167.98935547 -58.77001953 168.49902344 C-43.2872754 187.35599295 -25.95376143 203.04693179 -6 217 C-6 213.0055472 -7.28137392 209.57367736 -8.5 205.8125 C-8.76772217 204.97952393 -9.03544434 204.14654785 -9.3112793 203.28833008 C-9.89565732 201.47690809 -10.48259987 199.66631193 -11.07177734 197.85644531 C-11.69353128 195.94310469 -12.31100737 194.02836896 -12.92431641 192.11230469 C-23.92316057 157.76022041 -37.78155387 124.25663081 -62 97 C-62.84175781 96.04480469 -63.68351562 95.08960937 -64.55078125 94.10546875 C-70.86641913 87.37636849 -78.13220627 82.69346773 -86 78 C-82.87108191 56.25599958 -55.80677858 34.48775619 -39.1875 21.875 C-9.77906255 0 -9.77906255 0 0 0 Z " fill="#042046" transform="translate(183,0)"/>
<path d="M0 0 C-1.56282982 3.76603869 -3.9063475 6.13639151 -6.7890625 8.984375 C-7.25234955 9.44483215 -7.7156366 9.90528931 -8.19296265 10.37969971 C-9.66565898 11.84125078 -11.14517403 13.29567168 -12.625 14.75 C-13.62806322 15.74302611 -14.63067257 16.73651089 -15.6328125 17.73046875 C-18.08330835 20.15897941 -20.5399667 22.58114675 -23 25 C-23.33 24.01 -23.66 23.02 -24 22 C-20.90984779 18.86050859 -17.81325304 15.72756243 -14.71044922 12.60058594 C-13.65525491 11.5353174 -12.60186036 10.46826303 -11.55029297 9.39941406 C-10.04080273 7.86573784 -8.52501301 6.33854432 -7.0078125 4.8125 C-6.09660645 3.89082031 -5.18540039 2.96914062 -4.24658203 2.01953125 C-2 0 -2 0 0 0 Z " fill="#26455D" transform="translate(48,101)"/>
</svg>