<?xml version="1.0" encoding="utf-8"?>
<!-- Generator: Adobe Illustrator 23.0.1, SVG Export Plug-In . SVG Version: 6.00 Build 0)  -->
<svg version="1.1" id="Layer_1" xmlns="http://www.w3.org/2000/svg" xmlns:xlink="http://www.w3.org/1999/xlink" x="0px" y="0px"
	 viewBox="0 0 317 200" style="enable-background:new 0 0 317 200;" xml:space="preserve">
<style type="text/css">
	.st0{stroke:#000000;stroke-width:0.8187;stroke-miterlimit:10;}
	.st1{fill:#494949;}
	.st2{fill:none;stroke:#494949;stroke-width:1.2014;stroke-miterlimit:10;}
</style>
<g>
	<g>
		<g>
			<path class="st0" d="M50.8,87.1l3.5-0.9c3.9-1,5.4-2.1,9.2-11.5l27-73.1h13.4l28,73.6c3.4,9,5.2,10.2,8.9,11.3l3.1,0.7v5.2h-42.8
				v-5.2l3.7-0.9c3.5-0.9,4.8-2,4.8-4.5c0-2.2-0.9-4.7-2.4-8.5l-3-8.3H75.8l-2.9,8.3c-1.2,3.7-2.1,5.8-2.1,8c0,3.1,1.7,3.9,5.8,5
				l3.8,0.9v5.2H50.8V87.1z M78.3,57.8h23.4L90.2,25.4h-0.7L78.3,57.8z"/>
			<path class="st0" d="M123.2,104.5c0-5.6,3.4-9,9.6-9c6.9,0,9.7,3.1,11.4,12.7c0.5,2.8,1.2,3.5,2.9,3.5c4.1,0,5.6-2.1,5.6-10V17.2
				c0-8-1.2-8.4-5.2-9.4l-5-1V1.6h43.8v5.1l-4.7,1c-4.2,1-5.4,1.4-5.4,9.4v68.4c0,19-11.7,32.4-32.7,32.4
				C129.8,117.9,123.2,111.9,123.2,104.5z"/>
			<path class="st0" d="M187,47.7C187,13.8,210,0,236,0c10.3,0,19.6,1.4,25.4,3l1.4,27.1h-5.5c-4.1-8.3-6.9-14.1-10.5-18.5
				c-3.8-4.5-5.8-5-12.6-5c-16.2,0-22.5,9.7-22.5,38.4c0,33.9,7.2,42.2,22.4,42.2c8.4,0,11.4-2.5,15.2-7.7c3.4-5.1,5.9-9,9-17h5.4
				l-1.4,26.1c-6.4,2.6-16.5,5.4-28.2,5.4C206.4,93.9,187,78.9,187,47.7z"/>
		</g>
		<g>
			<path d="M0,155.3l0.9-0.2c1-0.3,1.3-0.5,2.3-2.9l6.7-18.1h3.3l6.9,18.2c0.8,2.2,1.3,2.5,2.2,2.8l0.8,0.2v1.3H12.5v-1.3l0.9-0.2
				c0.9-0.2,1.2-0.5,1.2-1.1c0-0.6-0.2-1.2-0.6-2.1l-0.7-2h-7l-0.7,2c-0.3,0.9-0.5,1.4-0.5,2c0,0.8,0.4,1,1.4,1.2l0.9,0.2v1.3H0
				V155.3z M6.8,148.1h5.8l-2.9-8H9.6L6.8,148.1z"/>
			<path d="M24.6,152.6v-10.5h-2.1v-1.2c2.6-0.9,4.1-2.8,5-5.5h2.2v4.4h4.5l-0.6,2.3h-4v10.1c0,1.6,0.6,2.2,2.2,2.2
				c0.8,0,1.8-0.2,2.4-0.4v1.3c-0.7,0.8-2.4,1.7-5.2,1.7C26.3,157,24.6,155.8,24.6,152.6z"/>
			<path d="M35.5,155.4l0.9-0.2c1.2-0.3,1.3-0.5,1.3-1.8v-17c0-1.5-0.1-1.7-1.1-2.1l-1.2-0.6v-1.1l7.3-0.6l0.5,0.3
				c0,0.3-0.1,0.6-0.1,1c-0.1,0.6-0.1,1.6-0.1,2.7v17.5c0,1.4,0.1,1.6,1.2,1.8l0.9,0.2v1.3h-9.5V155.4z"/>
			<path d="M46.4,152.7c0-2.8,1.7-4.4,6.8-5.6l2.6-0.6v-2.4c0-2.6-0.5-3.2-2.5-3.2c-1,0-1.2,0.3-1.3,1.2c-0.2,2.1-0.9,2.9-2.7,2.9
				c-1.5,0-2.2-0.7-2.2-2c0-2.2,2.8-3.6,7.3-3.6c4.2,0,6.5,1.3,6.5,4.4v8.7c0,1.2,0.1,1.6,0.8,2c0.4,0.2,1,0.3,1.6,0.3v1.2
				c-0.6,0.5-1.9,1.1-3.8,1.1c-1.9,0-3.1-0.7-3.4-2h-0.2c-0.8,1-2.3,2-4.5,2C48.3,157,46.4,155.4,46.4,152.7z M55.8,153.5v-5.1
				l-1.6,0.2c-2,0.1-2.9,1-2.9,3.3c0,2.1,1,2.6,2.3,2.6C54.8,154.5,55.5,154.1,55.8,153.5z"/>
			<path d="M64.4,155.4l0.9-0.2c1.1-0.3,1.2-0.5,1.2-1.8v-9.3c0-1.4-0.2-1.5-1.1-2.1l-1.1-0.7v-1l6.8-0.7l0.5,0.3l-0.2,2h0.2
				c1.8-1.2,4-2.3,6.5-2.3c3,0,4.4,1.4,4.4,4.3v9.6c0,1.4,0.2,1.6,1.2,1.8l0.9,0.2v1.3h-9.2v-1.3l0.9-0.2c1-0.3,1-0.4,1-1.9v-8.1
				c0-2-0.7-2.7-2.4-2.7c-1.3,0-2.5,0.4-3.2,0.6v10.3c0,1.6,0.1,1.6,1,1.9l0.9,0.2v1.3h-9.2V155.4z"/>
			<path d="M87.5,152.6v-10.5h-2.1v-1.2c2.6-0.9,4.1-2.8,5-5.5h2.2v4.4h4.5l-0.6,2.3h-4v10.1c0,1.6,0.6,2.2,2.2,2.2
				c0.8,0,1.8-0.2,2.4-0.4v1.3c-0.7,0.8-2.4,1.7-5.2,1.7C89.2,157,87.5,155.8,87.5,152.6z"/>
			<path d="M98.7,152.7c0-2.8,1.7-4.4,6.8-5.6l2.6-0.6v-2.4c0-2.6-0.5-3.2-2.5-3.2c-1,0-1.2,0.3-1.3,1.2c-0.2,2.1-0.9,2.9-2.7,2.9
				c-1.5,0-2.2-0.7-2.2-2c0-2.2,2.8-3.6,7.3-3.6c4.2,0,6.5,1.3,6.5,4.4v8.7c0,1.2,0.1,1.6,0.8,2c0.4,0.2,1,0.3,1.6,0.3v1.2
				c-0.6,0.5-1.9,1.1-3.8,1.1c-1.9,0-3.1-0.7-3.4-2h-0.2c-0.8,1-2.3,2-4.5,2C100.6,157,98.7,155.4,98.7,152.7z M108.2,153.5v-5.1
				l-1.6,0.2c-2,0.1-2.9,1-2.9,3.3c0,2.1,1,2.6,2.3,2.6C107.1,154.5,107.8,154.1,108.2,153.5z"/>
			<path d="M117.9,153.8c0-1.8,1.4-3.1,3.2-3.1c1.8,0,3.2,1.4,3.2,3.1c0,1.7-1.4,3.1-3.2,3.1C119.3,156.9,117.9,155.5,117.9,153.8z"
				/>
			<path d="M140.4,138h-0.1v14.3c0,2.4,0.2,2.6,1.6,2.8l1.2,0.2v1.3h-7.3v-1.3l1-0.2c1.1-0.3,1.4-0.4,1.4-2.7V138
				c0-2-0.3-2.1-1.3-2.3l-1.1-0.3v-1.3h8.9l8.8,13.2h0.1v-8.9c0-2.3-0.2-2.5-1.6-2.8l-1.3-0.3v-1.3h7.4v1.3l-1,0.2
				c-1.1,0.3-1.5,0.4-1.5,2.7v18.4H153L140.4,138z"/>
			<path d="M159.7,148.1c0-5.6,4.3-8.8,8.6-8.8c4.6,0,7.4,2.3,7.5,8.5h-11.1c0.3,4.8,2.2,6.3,5.6,6.3c2.2,0,3.7-0.6,5-1.2v1.5
				c-1.1,1.2-3.7,2.7-7,2.7C162.5,157,159.7,153.7,159.7,148.1z M164.8,146.2l5.9-0.3c0-3.9-0.5-4.9-2.6-4.9
				C166.3,141,164.9,142.4,164.8,146.2z"/>
			<path d="M178.9,143.8c-0.7-1.9-1.1-2.3-2-2.5l-0.6-0.2v-1.3h9.1v1.3l-0.7,0.2c-0.6,0.1-0.9,0.5-0.9,1c0,0.5,0.3,1.1,0.6,2
				l2.4,7.2h0.2l2.6-7.1l-0.2-0.6c-0.6-1.8-1-2.3-1.8-2.5l-0.6-0.2v-1.3h9v1.3l-0.9,0.2c-0.6,0.2-0.9,0.6-0.9,1.2
				c0,0.5,0.1,1,0.4,1.8l2.5,7.2h0.2l2.3-7.2c0.3-0.8,0.4-1.4,0.4-1.8c0-0.6-0.3-1-1-1.2l-0.9-0.2v-1.3h6.5v1.3l-0.6,0.2
				c-0.9,0.3-1.3,0.8-2,2.9l-4.6,12.5h-3.1l-3.4-9.8h-0.1l-3.6,9.8h-3.1L178.9,143.8z"/>
			<path d="M205.4,156.4l-0.3-5h1.3c0.6,1.2,1,1.9,1.9,2.8c0.6,0.6,1.5,1.1,3,1.1c1.8,0,2.8-0.7,2.8-2.1c0-1.5-1.2-2.1-4.1-3.2
				c-3-1.1-4.8-2.6-4.8-5.3c0-3.1,2.5-5.5,7-5.5c1.9,0,3.6,0.2,4.6,0.6l0.2,4.4h-1.2c-0.7-1.1-1.2-1.8-1.9-2.5
				c-0.5-0.5-0.9-0.8-2.2-0.8c-1.7,0-2.7,0.7-2.7,2.1c0,1.1,0.9,1.8,3.6,2.7c3.9,1.4,5.5,2.9,5.5,5.4c0,3.4-2.7,5.8-7.5,5.8
				C208.7,157,206.7,156.8,205.4,156.4z"/>
			<path d="M220.8,153.8c0-1.8,1.4-3.1,3.2-3.1c1.8,0,3.2,1.4,3.2,3.1c0,1.7-1.4,3.1-3.2,3.1C222.2,156.9,220.8,155.5,220.8,153.8z"
				/>
			<path d="M243.4,138h-0.1v14.3c0,2.4,0.2,2.6,1.6,2.8l1.2,0.2v1.3h-7.3v-1.3l1-0.2c1.1-0.3,1.4-0.4,1.4-2.7V138
				c0-2-0.3-2.1-1.3-2.3l-1.1-0.3v-1.3h8.9l8.8,13.2h0.1v-8.9c0-2.3-0.2-2.5-1.6-2.8l-1.3-0.3v-1.3h7.4v1.3l-1,0.2
				c-1.1,0.3-1.5,0.4-1.5,2.7v18.4h-2.7L243.4,138z"/>
			<path d="M262.6,148.2c0-6.2,4.4-8.9,9-8.9c4.8,0,9,2.8,9,8.8c0,6.2-4.4,8.9-9,8.9C266.8,157,262.6,154.2,262.6,148.2z
				 M275.2,148.2c0-6.1-1.3-7.2-3.7-7.2c-2.2,0-3.4,1.3-3.4,6.9c0,6.1,1.2,7.5,3.7,7.5C273.8,155.4,275.2,154.1,275.2,148.2z"/>
			<path d="M283.7,143.8c-0.7-1.9-1.1-2.3-2-2.5l-0.6-0.2v-1.3h9.1v1.3l-0.7,0.2c-0.6,0.1-0.9,0.5-0.9,1c0,0.5,0.3,1.1,0.6,2
				l2.4,7.2h0.2l2.6-7.1l-0.2-0.6c-0.6-1.8-1-2.3-1.8-2.5l-0.6-0.2v-1.3h9v1.3l-0.9,0.2c-0.6,0.2-0.9,0.6-0.9,1.2
				c0,0.5,0.1,1,0.4,1.8l2.5,7.2h0.2l2.3-7.2c0.3-0.8,0.4-1.4,0.4-1.8c0-0.6-0.3-1-1-1.2l-0.9-0.2v-1.3h6.5v1.3l-0.6,0.2
				c-0.9,0.3-1.3,0.8-2,2.9l-4.6,12.5h-3.1l-3.4-9.8h-0.1l-3.6,9.8h-3.1L283.7,143.8z"/>
			<path d="M308.2,153.8c0-1.8,1.4-3.1,3.2-3.1c1.8,0,3.2,1.4,3.2,3.1c0,1.7-1.4,3.1-3.2,3.1C309.6,156.9,308.2,155.5,308.2,153.8z"
				/>
		</g>
	</g>
	<g>
		<g>
			<path class="st1" d="M4.7,193.9l0.8-0.1c0.7-0.2,0.8-0.2,0.8-1.4v-10.1c-1.2,0-1.7,0.1-2.2,0.9c-0.5,0.7-0.7,1.4-1.3,2.7H2
				l0.2-4.6H14l0.2,4.6h-0.9c-0.5-1.3-0.8-2.1-1.3-2.7c-0.6-0.8-0.9-0.9-2.2-0.9v10.1c0,1.2,0.1,1.2,0.8,1.4l0.8,0.1v0.8H4.7V193.9z
				"/>
			<path class="st1" d="M14.9,193.9l0.6-0.1c0.6-0.2,0.7-0.3,0.7-1.1v-10.2c0-0.9-0.1-1-0.6-1.3l-0.7-0.4v-0.7l4.3-0.4l0.3,0.2
				c0,0.2-0.1,0.4-0.1,0.6c-0.1,0.4-0.1,1-0.1,1.6v1.5c0,0.5,0,1-0.1,1.3c0,0.2,0,0.4-0.1,0.6h0.1c1.1-0.7,2.4-1.3,3.8-1.3
				c1.8,0,2.6,0.9,2.6,2.6v5.8c0,0.9,0.1,1,0.7,1.1l0.5,0.1v0.8h-5.5v-0.8l0.5-0.1c0.6-0.2,0.6-0.2,0.6-1.1v-4.9
				c0-1.2-0.4-1.6-1.4-1.6c-0.8,0-1.5,0.2-1.9,0.4v6.1c0,0.9,0.1,1,0.6,1.1l0.5,0.1v0.8h-5.5V193.9z"/>
			<path class="st1" d="M27.7,189.6c0-3.3,2.5-5.3,5.2-5.3c2.7,0,4.5,1.4,4.5,5.1h-6.6c0.2,2.9,1.3,3.8,3.4,3.8c1.3,0,2.2-0.4,3-0.7
				v0.9c-0.7,0.7-2.2,1.6-4.2,1.6C29.4,194.9,27.7,192.9,27.7,189.6z M30.8,188.4l3.5-0.2c0-2.3-0.3-3-1.6-3
				C31.7,185.3,30.8,186.1,30.8,188.4z"/>
			<path class="st1" d="M43.4,193.9l0.5-0.1c0.6-0.2,0.8-0.3,1.4-1.7l4-10.9h2l4.2,10.9c0.5,1.3,0.8,1.5,1.3,1.7l0.5,0.1v0.8h-6.4
				v-0.8l0.5-0.1c0.5-0.1,0.7-0.3,0.7-0.7c0-0.3-0.1-0.7-0.4-1.3l-0.4-1.2h-4.2l-0.4,1.2c-0.2,0.5-0.3,0.9-0.3,1.2
				c0,0.5,0.3,0.6,0.9,0.7l0.6,0.1v0.8h-4.4V193.9z M47.4,189.6h3.5l-1.7-4.8h-0.1L47.4,189.6z"/>
			<path class="st1" d="M58.1,192.3V186h-1.3v-0.7c1.6-0.5,2.5-1.7,3-3.3h1.3v2.6h2.7l-0.3,1.4h-2.4v6c0,1,0.3,1.3,1.3,1.3
				c0.5,0,1.1-0.1,1.4-0.2v0.8c-0.4,0.5-1.5,1-3.1,1C59.1,194.9,58.1,194.2,58.1,192.3z"/>
			<path class="st1" d="M64.6,193.9l0.6-0.1c0.7-0.2,0.8-0.3,0.8-1.1v-10.2c0-0.9-0.1-1-0.7-1.3l-0.7-0.4v-0.7l4.4-0.4l0.3,0.2
				c0,0.2-0.1,0.4-0.1,0.6c-0.1,0.4-0.1,1-0.1,1.6v10.5c0,0.9,0,1,0.7,1.1l0.6,0.1v0.8h-5.7V193.9z"/>
			<path class="st1" d="M71.1,192.3c0-1.7,1-2.6,4.1-3.3l1.6-0.3v-1.5c0-1.6-0.3-1.9-1.5-1.9c-0.6,0-0.7,0.2-0.8,0.7
				c-0.1,1.2-0.5,1.7-1.6,1.7c-0.9,0-1.3-0.4-1.3-1.2c0-1.3,1.7-2.2,4.4-2.2c2.5,0,3.9,0.8,3.9,2.7v5.2c0,0.7,0.1,1,0.5,1.2
				c0.2,0.1,0.6,0.2,0.9,0.2v0.7c-0.4,0.3-1.1,0.7-2.3,0.7c-1.1,0-1.8-0.4-2-1.2h-0.1c-0.5,0.6-1.4,1.2-2.7,1.2
				C72.3,194.9,71.1,194,71.1,192.3z M76.8,192.8v-3.1l-1,0.1c-1.2,0.1-1.7,0.6-1.7,2c0,1.2,0.6,1.6,1.4,1.6
				C76.2,193.4,76.6,193.2,76.8,192.8z"/>
			<path class="st1" d="M82,193.9l0.6-0.1c0.6-0.2,0.7-0.3,0.7-1.1v-5.6c0-0.8-0.1-0.9-0.7-1.2l-0.7-0.4v-0.6l4.1-0.4l0.3,0.2
				l-0.1,1.2h0.1c1.1-0.7,2.4-1.4,3.9-1.4c1.8,0,2.6,0.9,2.6,2.6v5.8c0,0.9,0.1,1,0.7,1.1l0.5,0.1v0.8h-5.5v-0.8l0.5-0.1
				c0.6-0.2,0.6-0.2,0.6-1.1v-4.9c0-1.2-0.4-1.6-1.4-1.6c-0.8,0-1.5,0.2-1.9,0.4v6.1c0,0.9,0.1,1,0.6,1.1l0.5,0.1v0.8H82V193.9z"/>
			<path class="st1" d="M95.8,192.3V186h-1.3v-0.7c1.6-0.5,2.5-1.7,3-3.3h1.3v2.6h2.7l-0.3,1.4h-2.4v6c0,1,0.3,1.3,1.3,1.3
				c0.5,0,1.1-0.1,1.4-0.2v0.8c-0.4,0.5-1.5,1-3.1,1C96.8,194.9,95.8,194.2,95.8,192.3z"/>
			<path class="st1" d="M102.5,192.3c0-1.7,1-2.6,4.1-3.3l1.6-0.3v-1.5c0-1.6-0.3-1.9-1.5-1.9c-0.6,0-0.7,0.2-0.8,0.7
				c-0.1,1.2-0.5,1.7-1.6,1.7c-0.9,0-1.3-0.4-1.3-1.2c0-1.3,1.7-2.2,4.4-2.2c2.5,0,3.9,0.8,3.9,2.7v5.2c0,0.7,0.1,1,0.5,1.2
				c0.2,0.1,0.6,0.2,0.9,0.2v0.7c-0.4,0.3-1.1,0.7-2.3,0.7c-1.1,0-1.8-0.4-2-1.2h-0.1c-0.5,0.6-1.4,1.2-2.7,1.2
				C103.6,194.9,102.5,194,102.5,192.3z M108.2,192.8v-3.1l-1,0.1c-1.2,0.1-1.7,0.6-1.7,2c0,1.2,0.6,1.6,1.4,1.6
				C107.5,193.4,108,193.2,108.2,192.8z"/>
			<path class="st1" d="M115.8,196.5c0-0.8,0.5-1.3,1.4-1.3c1,0,1.4,0.5,1.7,1.9c0.1,0.4,0.2,0.5,0.4,0.5c0.6,0,0.8-0.3,0.8-1.5
				v-12.6c0-1.2-0.2-1.2-0.8-1.4l-0.7-0.2v-0.8h6.5v0.8l-0.7,0.2c-0.6,0.2-0.8,0.2-0.8,1.4v10.2c0,2.8-1.7,4.8-4.9,4.8
				C116.8,198.5,115.8,197.6,115.8,196.5z"/>
			<path class="st1" d="M125.9,189.7c0-3.7,2.7-5.3,5.4-5.3c2.9,0,5.4,1.7,5.4,5.3c0,3.7-2.6,5.4-5.4,5.4
				C128.4,194.9,125.9,193.2,125.9,189.7z M133.4,189.7c0-3.6-0.8-4.3-2.2-4.3c-1.3,0-2.1,0.8-2.1,4.1c0,3.7,0.7,4.5,2.2,4.5
				C132.6,193.9,133.4,193.2,133.4,189.7z"/>
			<path class="st1" d="M138.8,192.3V187c0-0.8,0-0.9-0.6-1.2l-0.7-0.4v-0.6l4.1-0.4l0.3,0.2v7c0,1.2,0.4,1.6,1.4,1.6
				c0.8,0,1.5-0.3,2-0.5V187c0-0.8-0.1-0.9-0.6-1.2l-0.7-0.4v-0.6l4.1-0.4l0.3,0.2v7.6c0,0.9,0.1,1.1,0.7,1.3l0.6,0.3v0.7l-4,0.6
				l-0.3-0.2l0.1-1.3h-0.1c-1.1,0.8-2.3,1.5-3.9,1.5C139.8,194.9,138.8,194.1,138.8,192.3z"/>
			<path class="st1" d="M150.3,193.9l0.6-0.1c0.6-0.2,0.7-0.3,0.7-1.1v-5.6c0-0.8-0.1-0.9-0.7-1.2l-0.7-0.4v-0.6l4.1-0.4l0.3,0.2
				l-0.1,1.3h0.1c0.6-0.7,1.8-1.5,3-1.5c0.9,0,1.5,0.5,1.5,1.4c0,0.9-0.5,1.5-1.3,1.5c-0.9,0-1.2-0.2-1.5-0.8
				c-0.1-0.2-0.3-0.3-0.5-0.3c-0.4,0-0.7,0.3-1,0.6v5.9c0,0.9,0.1,1,0.6,1.1l0.7,0.1v0.8h-5.7V193.9z"/>
			<path class="st1" d="M159.8,193.9l0.6-0.1c0.6-0.2,0.7-0.3,0.7-1.1v-5.6c0-0.8-0.1-0.9-0.7-1.2l-0.7-0.4v-0.6l4.1-0.4l0.3,0.2
				l-0.1,1.2h0.1c1.1-0.7,2.4-1.4,3.9-1.4c1.8,0,2.6,0.9,2.6,2.6v5.8c0,0.9,0.1,1,0.7,1.1l0.5,0.1v0.8h-5.5v-0.8l0.5-0.1
				c0.6-0.2,0.6-0.2,0.6-1.1v-4.9c0-1.2-0.4-1.6-1.4-1.6c-0.8,0-1.5,0.2-1.9,0.4v6.1c0,0.9,0.1,1,0.6,1.1l0.5,0.1v0.8h-5.5V193.9z"
				/>
			<path class="st1" d="M172.7,192.3c0-1.7,1-2.6,4.1-3.3l1.6-0.3v-1.5c0-1.6-0.3-1.9-1.5-1.9c-0.6,0-0.7,0.2-0.8,0.7
				c-0.1,1.2-0.5,1.7-1.6,1.7c-0.9,0-1.3-0.4-1.3-1.2c0-1.3,1.7-2.2,4.4-2.2c2.5,0,3.9,0.8,3.9,2.7v5.2c0,0.7,0.1,1,0.5,1.2
				c0.2,0.1,0.6,0.2,0.9,0.2v0.7c-0.4,0.3-1.1,0.7-2.3,0.7c-1.1,0-1.8-0.4-2-1.2h-0.1c-0.5,0.6-1.4,1.2-2.7,1.2
				C173.9,194.9,172.7,194,172.7,192.3z M178.4,192.8v-3.1l-1,0.1c-1.2,0.1-1.7,0.6-1.7,2c0,1.2,0.6,1.6,1.4,1.6
				C177.7,193.4,178.2,193.2,178.4,192.8z"/>
			<path class="st1" d="M183.5,193.9l0.6-0.1c0.7-0.2,0.8-0.3,0.8-1.1v-10.2c0-0.9-0.1-1-0.7-1.3l-0.7-0.4v-0.7l4.4-0.4l0.3,0.2
				c0,0.2-0.1,0.4-0.1,0.6c-0.1,0.4-0.1,1-0.1,1.6v10.5c0,0.9,0,1,0.7,1.1l0.6,0.1v0.8h-5.7V193.9z"/>
			<path class="st1" d="M190.4,188.1h4.4l-0.2,1.9h-4.4L190.4,188.1z"/>
			<path class="st1" d="M196.4,188.1c0-5,3.4-7.1,7.3-7.1c1.5,0,2.9,0.2,3.8,0.4l0.2,4h-0.8c-0.6-1.2-1-2.1-1.6-2.7
				c-0.6-0.7-0.9-0.7-1.9-0.7c-2.4,0-3.3,1.4-3.3,5.7c0,5,1.1,6.3,3.3,6.3c1.2,0,1.7-0.4,2.3-1.1c0.5-0.8,0.9-1.3,1.3-2.5h0.8
				l-0.2,3.9c-1,0.4-2.5,0.8-4.2,0.8C199.2,194.9,196.4,192.7,196.4,188.1z"/>
			<path class="st1" d="M209.1,189.7c0-3.7,2.7-5.3,5.4-5.3c2.9,0,5.4,1.7,5.4,5.3c0,3.7-2.6,5.4-5.4,5.4
				C211.6,194.9,209.1,193.2,209.1,189.7z M216.6,189.7c0-3.6-0.8-4.3-2.2-4.3c-1.3,0-2.1,0.8-2.1,4.1c0,3.7,0.7,4.5,2.2,4.5
				C215.8,193.9,216.6,193.2,216.6,189.7z"/>
			<path class="st1" d="M220.8,193.9l0.6-0.1c0.6-0.2,0.7-0.3,0.7-1.1v-5.6c0-0.8-0.1-0.9-0.7-1.2l-0.7-0.4v-0.6l4.1-0.4l0.3,0.2
				l-0.1,1.2h0.1c1.1-0.7,2.4-1.4,3.9-1.4c1.8,0,2.6,0.9,2.6,2.6v5.8c0,0.9,0.1,1,0.7,1.1l0.5,0.1v0.8h-5.5v-0.8l0.5-0.1
				c0.6-0.2,0.6-0.2,0.6-1.1v-4.9c0-1.2-0.4-1.6-1.4-1.6c-0.8,0-1.5,0.2-1.9,0.4v6.1c0,0.9,0.1,1,0.6,1.1l0.5,0.1v0.8h-5.5V193.9z"
				/>
			<path class="st1" d="M234,194.6l-0.2-3h0.8c0.4,0.7,0.6,1.1,1.1,1.7c0.4,0.4,0.9,0.7,1.8,0.7c1.1,0,1.7-0.4,1.7-1.3
				c0-0.9-0.7-1.3-2.4-1.9c-1.8-0.7-2.9-1.5-2.9-3.2c0-1.8,1.5-3.3,4.2-3.3c1.2,0,2.1,0.1,2.7,0.3l0.1,2.6h-0.7
				c-0.4-0.7-0.7-1.1-1.1-1.5c-0.3-0.3-0.5-0.5-1.3-0.5c-1,0-1.6,0.4-1.6,1.3c0,0.7,0.5,1.1,2.2,1.6c2.3,0.8,3.3,1.7,3.3,3.2
				c0,2-1.6,3.5-4.5,3.5C236,194.9,234.8,194.8,234,194.6z"/>
			<path class="st1" d="M243.6,192.3V186h-1.3v-0.7c1.6-0.5,2.4-1.7,3-3.3h1.3v2.6h2.7l-0.3,1.4h-2.4v6c0,1,0.3,1.3,1.3,1.3
				c0.5,0,1.1-0.1,1.4-0.2v0.8c-0.4,0.5-1.5,1-3.1,1C244.6,194.9,243.6,194.2,243.6,192.3z"/>
			<path class="st1" d="M250.1,193.9l0.6-0.1c0.6-0.2,0.7-0.3,0.7-1.1v-5.6c0-0.8-0.1-0.9-0.7-1.2l-0.7-0.4v-0.6l4.3-0.4l0.3,0.2
				c0,0.6-0.2,1.2-0.2,2.8v5.4c0,0.9,0.1,1,0.7,1.1l0.6,0.1v0.8h-5.6V193.9z M251,181.4c0-1,0.8-1.7,1.9-1.7c1,0,1.8,0.7,1.8,1.7
				c0,1-0.8,1.7-1.8,1.7C251.8,183.1,251,182.4,251,181.4z"/>
			<path class="st1" d="M257.5,192.3V186h-1.3v-0.7c1.6-0.5,2.4-1.7,3-3.3h1.3v2.6h2.7l-0.3,1.4h-2.4v6c0,1,0.3,1.3,1.3,1.3
				c0.5,0,1.1-0.1,1.4-0.2v0.8c-0.4,0.5-1.5,1-3.1,1C258.5,194.9,257.5,194.2,257.5,192.3z"/>
			<path class="st1" d="M265.2,192.3V187c0-0.8,0-0.9-0.6-1.2l-0.7-0.4v-0.6l4.1-0.4l0.3,0.2v7c0,1.2,0.4,1.6,1.4,1.6
				c0.8,0,1.5-0.3,2-0.5V187c0-0.8-0.1-0.9-0.6-1.2l-0.7-0.4v-0.6l4.1-0.4l0.3,0.2v7.6c0,0.9,0.1,1.1,0.7,1.3l0.6,0.3v0.7l-4,0.6
				l-0.3-0.2l0.1-1.3h-0.1c-1.1,0.8-2.3,1.5-3.9,1.5C266.2,194.9,265.2,194.1,265.2,192.3z"/>
			<path class="st1" d="M277.8,192.3V186h-1.3v-0.7c1.6-0.5,2.4-1.7,3-3.3h1.3v2.6h2.7l-0.3,1.4h-2.4v6c0,1,0.3,1.3,1.3,1.3
				c0.5,0,1.1-0.1,1.4-0.2v0.8c-0.4,0.5-1.5,1-3.1,1C278.8,194.9,277.8,194.2,277.8,192.3z"/>
			<path class="st1" d="M284.3,193.9l0.6-0.1c0.6-0.2,0.7-0.3,0.7-1.1v-5.6c0-0.8-0.1-0.9-0.7-1.2l-0.7-0.4v-0.6l4.3-0.4l0.3,0.2
				c0,0.6-0.2,1.2-0.2,2.8v5.4c0,0.9,0.1,1,0.7,1.1l0.6,0.1v0.8h-5.6V193.9z M285.2,181.4c0-1,0.8-1.7,1.9-1.7c1,0,1.8,0.7,1.8,1.7
				c0,1-0.8,1.7-1.8,1.7C285.9,183.1,285.2,182.4,285.2,181.4z"/>
			<path class="st1" d="M290.8,189.7c0-3.7,2.7-5.3,5.4-5.3c2.9,0,5.4,1.7,5.4,5.3c0,3.7-2.6,5.4-5.4,5.4
				C293.3,194.9,290.8,193.2,290.8,189.7z M298.3,189.7c0-3.6-0.8-4.3-2.2-4.3c-1.3,0-2.1,0.8-2.1,4.1c0,3.7,0.7,4.5,2.2,4.5
				C297.5,193.9,298.3,193.2,298.3,189.7z"/>
			<path class="st1" d="M302.5,193.9l0.6-0.1c0.6-0.2,0.7-0.3,0.7-1.1v-5.6c0-0.8-0.1-0.9-0.7-1.2l-0.7-0.4v-0.6l4.1-0.4l0.3,0.2
				l-0.1,1.2h0.1c1.1-0.7,2.4-1.4,3.9-1.4c1.8,0,2.6,0.9,2.6,2.6v5.8c0,0.9,0.1,1,0.7,1.1l0.5,0.1v0.8h-5.5v-0.8l0.5-0.1
				c0.6-0.2,0.6-0.2,0.6-1.1v-4.9c0-1.2-0.4-1.6-1.4-1.6c-0.8,0-1.5,0.2-1.9,0.4v6.1c0,0.9,0.1,1,0.6,1.1l0.5,0.1v0.8h-5.5V193.9z"
				/>
		</g>
		<line class="st2" x1="0.6" y1="169.6" x2="314.5" y2="169.6"/>
	</g>
</g>
</svg>
