<svg xmlns="http://www.w3.org/2000/svg" width="40" height="40" viewBox="0 0 40 40">
    <path fill="#3b5998" fill-rule="nonzero" d="M34.592 0H5.387A5.387 5.387 0 0 0 0 5.387v29.205a5.387 5.387 0 0 0 5.387 5.387h14.404l.024-14.286h-3.711a.876.876 0 0 1-.876-.873l-.018-4.605a.876.876 0 0 1 .876-.879h3.705v-4.45c0-5.163 3.154-7.975 7.76-7.975h3.78c.484 0 .876.392.876.876v3.883a.876.876 0 0 1-.875.876h-2.32c-2.505 0-2.99 1.191-2.99 2.938v3.852h5.504c.525 0 .932.458.87.98l-.546 4.604a.876.876 0 0 1-.87.773h-4.934l-.024 14.286h8.57a5.387 5.387 0 0 0 5.387-5.387V5.387A5.387 5.387 0 0 0 34.592 0z"/>
</svg>
