<svg width="173" height="119" viewBox="0 0 173 119" fill="none" xmlns="http://www.w3.org/2000/svg">
    <path d="M188.987-31.286c.54.937 1.067 1.882 1.579 2.837a3.483 3.483 0 0 1-1.579-2.837zM169.9-55.352c1.624 1.525 3.2 3.1 4.724 4.725a3.485 3.485 0 1 1-4.724-4.724zM147.722-71.293c.954.512 1.9 1.038 2.836 1.579a3.483 3.483 0 0 1-2.836-1.58zM46.147-69.714c.937-.54 1.882-1.067 2.837-1.58a3.483 3.483 0 0 1-2.837 1.58zM22.081-50.627c1.524-1.625 3.1-3.2 4.724-4.725a3.486 3.486 0 1 1-4.724 4.724zM6.14-28.45c.512-.954 1.038-1.9 1.579-2.836a3.483 3.483 0 0 1-1.58 2.837zM190.566 70.289c-.512.954-1.039 1.9-1.579 2.836a3.483 3.483 0 0 1 1.579-2.836zM174.624 92.467a3.485 3.485 0 1 0-4.724 4.724c1.624-1.524 3.2-3.1 4.724-4.724zM150.558 111.554a3.483 3.483 0 0 0-2.836 1.579c.954-.512 1.9-1.039 2.836-1.579zM48.983 113.133a3.483 3.483 0 0 0-2.836-1.579c.937.54 1.882 1.067 2.837 1.579zM26.805 97.191a3.486 3.486 0 1 0-4.724-4.724c1.524 1.624 3.1 3.2 4.724 4.724zM7.719 73.125a3.483 3.483 0 0 0-1.58-2.836c.513.954 1.04 1.9 1.58 2.836zM70.466-73.2a3.486 3.486 0 1 1-6.972 0 3.486 3.486 0 0 1 6.972 0zM91.38-73.2a3.486 3.486 0 1 1-6.97 0 3.486 3.486 0 0 1 6.97 0zM112.296-73.2a3.485 3.485 0 1 1-6.971.002 3.485 3.485 0 0 1 6.971-.001zM133.212-73.2a3.486 3.486 0 1 1-6.972 0 3.486 3.486 0 0 1 6.972 0zM49.55-52.284a3.486 3.486 0 1 1-6.972 0 3.486 3.486 0 0 1 6.972 0zM70.466-52.284a3.486 3.486 0 1 1-6.972 0 3.486 3.486 0 0 1 6.972 0zM91.38-52.284a3.486 3.486 0 1 1-6.97 0 3.486 3.486 0 0 1 6.97 0zM112.296-52.284a3.485 3.485 0 1 1-6.971.001 3.485 3.485 0 0 1 6.971 0zM133.212-52.284a3.486 3.486 0 1 1-6.972 0 3.486 3.486 0 0 1 6.972 0zM154.127-52.284a3.486 3.486 0 1 1-6.972 0 3.486 3.486 0 0 1 6.972 0zM28.635-31.369a3.486 3.486 0 1 1-6.972 0 3.486 3.486 0 0 1 6.972 0zM49.55-31.369a3.486 3.486 0 1 1-6.972 0 3.486 3.486 0 0 1 6.972 0zM70.466-31.369a3.486 3.486 0 1 1-6.972 0 3.486 3.486 0 0 1 6.972 0zM91.38-31.369a3.486 3.486 0 1 1-6.97 0 3.486 3.486 0 0 1 6.97 0zM112.296-31.369a3.485 3.485 0 1 1-6.971.001 3.485 3.485 0 0 1 6.971 0zM133.212-31.369a3.486 3.486 0 1 1-6.972 0 3.486 3.486 0 0 1 6.972 0zM154.127-31.369a3.486 3.486 0 1 1-6.972 0 3.486 3.486 0 0 1 6.972 0zM175.042-31.369a3.485 3.485 0 1 1-6.971.001 3.485 3.485 0 0 1 6.971 0zM7.72-10.453a3.486 3.486 0 1 1-6.972 0 3.486 3.486 0 0 1 6.972 0zM28.635-10.453a3.486 3.486 0 1 1-6.972 0 3.486 3.486 0 0 1 6.972 0zM49.55-10.453a3.486 3.486 0 1 1-6.972 0 3.486 3.486 0 0 1 6.972 0zM70.466-10.453a3.486 3.486 0 1 1-6.972 0 3.486 3.486 0 0 1 6.972 0zM91.38-10.453a3.486 3.486 0 1 1-6.97 0 3.486 3.486 0 0 1 6.97 0zM112.296-10.453a3.485 3.485 0 1 1-6.971 0 3.485 3.485 0 0 1 6.971 0zM133.212-10.453a3.486 3.486 0 1 1-6.972 0 3.486 3.486 0 0 1 6.972 0zM154.127-10.453a3.486 3.486 0 1 1-6.972 0 3.486 3.486 0 0 1 6.972 0zM175.042-10.453a3.485 3.485 0 1 1-6.971 0 3.485 3.485 0 0 1 6.971 0zM195.958-10.453a3.486 3.486 0 1 1-6.972 0 3.486 3.486 0 0 1 6.972 0zM7.72 10.462a3.486 3.486 0 1 1-6.972 0 3.486 3.486 0 0 1 6.972 0zM28.635 10.462a3.486 3.486 0 1 1-6.972 0 3.486 3.486 0 0 1 6.972 0zM49.55 10.462a3.486 3.486 0 1 1-6.972 0 3.486 3.486 0 0 1 6.972 0zM70.466 10.462a3.486 3.486 0 1 1-6.972 0 3.486 3.486 0 0 1 6.972 0zM91.38 10.462a3.486 3.486 0 1 1-6.97 0 3.486 3.486 0 0 1 6.97 0zM112.296 10.462a3.485 3.485 0 1 1-6.971.001 3.485 3.485 0 0 1 6.971 0zM133.212 10.462a3.486 3.486 0 1 1-6.972 0 3.486 3.486 0 0 1 6.972 0zM154.127 10.462a3.486 3.486 0 1 1-6.972 0 3.486 3.486 0 0 1 6.972 0zM175.042 10.462a3.485 3.485 0 1 1-6.971.001 3.485 3.485 0 0 1 6.971 0zM195.958 10.462a3.486 3.486 0 1 1-6.972 0 3.486 3.486 0 0 1 6.972 0zM7.72 31.378a3.486 3.486 0 1 1-6.972 0 3.486 3.486 0 0 1 6.972 0zM28.635 31.378a3.486 3.486 0 1 1-6.972 0 3.486 3.486 0 0 1 6.972 0zM49.55 31.378a3.486 3.486 0 1 1-6.972 0 3.486 3.486 0 0 1 6.972 0zM70.466 31.378a3.486 3.486 0 1 1-6.972 0 3.486 3.486 0 0 1 6.972 0zM91.38 31.378a3.486 3.486 0 1 1-6.97 0 3.486 3.486 0 0 1 6.97 0zM112.296 31.378a3.485 3.485 0 1 1-6.971 0 3.485 3.485 0 0 1 6.971 0zM133.212 31.378a3.486 3.486 0 1 1-6.972-.001 3.486 3.486 0 0 1 6.972 0zM154.127 31.378a3.486 3.486 0 1 1-6.972-.001 3.486 3.486 0 0 1 6.972 0zM175.042 31.378a3.485 3.485 0 1 1-6.971 0 3.485 3.485 0 0 1 6.971 0zM195.958 31.378a3.486 3.486 0 1 1-6.972-.001 3.486 3.486 0 0 1 6.972 0zM7.72 52.293a3.486 3.486 0 1 1-6.972 0 3.486 3.486 0 0 1 6.972 0zM28.635 52.293a3.486 3.486 0 1 1-6.972 0 3.486 3.486 0 0 1 6.972 0zM49.55 52.293a3.486 3.486 0 1 1-6.971 0 3.486 3.486 0 0 1 6.971 0zM70.466 52.293a3.486 3.486 0 1 1-6.972 0 3.486 3.486 0 0 1 6.972 0zM91.38 52.293a3.486 3.486 0 1 1-6.97 0 3.486 3.486 0 0 1 6.97 0zM112.296 52.293a3.485 3.485 0 1 1-6.97 0 3.485 3.485 0 0 1 6.97 0zM133.212 52.293a3.486 3.486 0 1 1-6.972 0 3.486 3.486 0 0 1 6.972 0zM154.127 52.293a3.486 3.486 0 1 1-6.972 0 3.486 3.486 0 0 1 6.972 0zM175.042 52.293a3.485 3.485 0 1 1-6.97 0 3.485 3.485 0 0 1 6.97 0zM195.958 52.293a3.486 3.486 0 1 1-6.972 0 3.486 3.486 0 0 1 6.972 0zM28.635 73.208a3.486 3.486 0 1 1-6.972 0 3.486 3.486 0 0 1 6.972 0zM49.55 73.208a3.486 3.486 0 1 1-6.972 0 3.486 3.486 0 0 1 6.972 0zM70.466 73.208a3.486 3.486 0 1 1-6.972 0 3.486 3.486 0 0 1 6.972 0zM91.38 73.208a3.486 3.486 0 1 1-6.97 0 3.486 3.486 0 0 1 6.97 0zM112.296 73.208a3.485 3.485 0 1 1-6.971.001 3.485 3.485 0 0 1 6.971 0zM133.212 73.208a3.486 3.486 0 1 1-6.972 0 3.486 3.486 0 0 1 6.972 0zM154.127 73.208a3.486 3.486 0 1 1-6.972 0 3.486 3.486 0 0 1 6.972 0zM175.042 73.208a3.485 3.485 0 1 1-6.971.001 3.485 3.485 0 0 1 6.971 0zM49.55 94.124a3.486 3.486 0 1 1-6.972 0 3.486 3.486 0 0 1 6.972 0zM70.466 94.124a3.486 3.486 0 1 1-6.972 0 3.486 3.486 0 0 1 6.972 0zM91.38 94.124a3.486 3.486 0 1 1-6.97 0 3.486 3.486 0 0 1 6.97 0zM112.296 94.124a3.485 3.485 0 1 1-6.971 0 3.485 3.485 0 0 1 6.971 0zM133.212 94.124a3.486 3.486 0 1 1-6.972-.001 3.486 3.486 0 0 1 6.972 0zM154.127 94.124a3.486 3.486 0 1 1-6.972-.001 3.486 3.486 0 0 1 6.972 0zM70.466 115.039a3.486 3.486 0 1 1-6.973 0 3.486 3.486 0 0 1 6.973 0zM91.38 115.039a3.486 3.486 0 1 1-6.971 0 3.486 3.486 0 0 1 6.972 0zM112.296 115.039a3.486 3.486 0 1 1-6.971 0 3.486 3.486 0 0 1 6.971 0zM133.212 115.039a3.486 3.486 0 1 1-6.973 0 3.486 3.486 0 0 1 6.973 0z" fill="#FFECC9"/>
</svg>
