<svg width="121" height="118" viewBox="0 0 121 118" fill="none" xmlns="http://www.w3.org/2000/svg">
    <path d="M188.566-31.975c.54.936 1.067 1.882 1.579 2.836a3.48 3.48 0 0 1-1.579-2.836zM169.479-56.041c1.624 1.524 3.2 3.1 4.724 4.724a3.486 3.486 0 1 1-4.724-4.724zM147.301-71.983c.954.512 1.9 1.038 2.836 1.58a3.483 3.483 0 0 1-2.836-1.58zM45.726-70.404c.937-.54 1.882-1.067 2.836-1.579a3.483 3.483 0 0 1-2.836 1.58zM21.66-51.317c1.524-1.624 3.1-3.2 4.724-4.724a3.486 3.486 0 1 1-4.724 4.724zM5.719-29.139c.512-.954 1.038-1.9 1.578-2.836A3.483 3.483 0 0 1 5.72-29.14zM190.145 69.6c-.512.954-1.039 1.9-1.579 2.836a3.481 3.481 0 0 1 1.579-2.837zM174.203 91.777a3.486 3.486 0 1 0-4.724 4.724c1.624-1.524 3.2-3.1 4.724-4.724zM150.137 110.864a3.483 3.483 0 0 0-2.836 1.579c.954-.512 1.9-1.038 2.836-1.579zM48.562 112.443a3.483 3.483 0 0 0-2.836-1.579c.937.541 1.882 1.067 2.836 1.579zM26.384 96.502a3.486 3.486 0 1 0-4.724-4.724c1.524 1.624 3.1 3.2 4.724 4.724zM7.297 72.436a3.483 3.483 0 0 0-1.578-2.837c.512.955 1.038 1.9 1.578 2.837zM70.044-73.889a3.486 3.486 0 1 1-6.971 0 3.486 3.486 0 0 1 6.971 0zM90.96-73.889a3.486 3.486 0 1 1-6.972 0 3.486 3.486 0 0 1 6.972 0zM111.875-73.889a3.486 3.486 0 1 1-6.972 0 3.486 3.486 0 0 1 6.972 0zM132.79-73.889a3.485 3.485 0 1 1-6.97.001 3.485 3.485 0 0 1 6.97 0zM49.13-52.974a3.486 3.486 0 1 1-6.973 0 3.486 3.486 0 0 1 6.972 0zM70.044-52.974a3.486 3.486 0 1 1-6.971 0 3.486 3.486 0 0 1 6.971 0zM90.96-52.974a3.486 3.486 0 1 1-6.972 0 3.486 3.486 0 0 1 6.972 0zM111.875-52.974a3.486 3.486 0 1 1-6.972 0 3.486 3.486 0 0 1 6.972 0zM132.79-52.974a3.485 3.485 0 1 1-6.97.002 3.485 3.485 0 0 1 6.97-.002zM153.706-52.974a3.486 3.486 0 1 1-6.972 0 3.486 3.486 0 0 1 6.972 0zM28.214-32.058a3.486 3.486 0 1 1-6.972 0 3.486 3.486 0 0 1 6.972 0zM49.13-32.058a3.486 3.486 0 1 1-6.973 0 3.486 3.486 0 0 1 6.972 0zM70.044-32.058a3.486 3.486 0 1 1-6.971 0 3.486 3.486 0 0 1 6.971 0zM90.96-32.058a3.486 3.486 0 1 1-6.972 0 3.486 3.486 0 0 1 6.972 0zM111.875-32.058a3.486 3.486 0 1 1-6.972 0 3.486 3.486 0 0 1 6.972 0zM132.79-32.058a3.485 3.485 0 1 1-6.97.001 3.485 3.485 0 0 1 6.97-.001zM153.706-32.058a3.486 3.486 0 1 1-6.972 0 3.486 3.486 0 0 1 6.972 0zM174.621-32.058a3.486 3.486 0 1 1-6.972 0 3.486 3.486 0 0 1 6.972 0zM7.298-11.143a3.486 3.486 0 1 1-6.971 0 3.486 3.486 0 0 1 6.971 0zM28.214-11.143a3.486 3.486 0 1 1-6.972 0 3.486 3.486 0 0 1 6.972 0zM49.13-11.143a3.486 3.486 0 1 1-6.973 0 3.486 3.486 0 0 1 6.972 0zM70.044-11.143a3.486 3.486 0 1 1-6.971 0 3.486 3.486 0 0 1 6.971 0zM90.96-11.143a3.486 3.486 0 1 1-6.972 0 3.486 3.486 0 0 1 6.972 0zM111.875-11.143a3.486 3.486 0 1 1-6.972 0 3.486 3.486 0 0 1 6.972 0zM132.79-11.143a3.485 3.485 0 1 1-6.97.001 3.485 3.485 0 0 1 6.97 0zM153.706-11.143a3.486 3.486 0 1 1-6.972 0 3.486 3.486 0 0 1 6.972 0zM174.621-11.143a3.486 3.486 0 1 1-6.972 0 3.486 3.486 0 0 1 6.972 0zM195.536-11.143a3.485 3.485 0 1 1-6.97.001 3.485 3.485 0 0 1 6.97 0zM7.298 9.772a3.486 3.486 0 1 1-6.971 0 3.486 3.486 0 0 1 6.971 0zM28.214 9.772a3.486 3.486 0 1 1-6.972 0 3.486 3.486 0 0 1 6.972 0zM49.13 9.772a3.486 3.486 0 1 1-6.973 0 3.486 3.486 0 0 1 6.972 0zM70.044 9.772a3.486 3.486 0 1 1-6.971 0 3.486 3.486 0 0 1 6.971 0zM90.96 9.772a3.486 3.486 0 1 1-6.972 0 3.486 3.486 0 0 1 6.972 0zM111.875 9.772a3.486 3.486 0 1 1-6.972 0 3.486 3.486 0 0 1 6.972 0zM132.79 9.772a3.485 3.485 0 1 1-6.97.002 3.485 3.485 0 0 1 6.97-.002zM153.706 9.772a3.486 3.486 0 1 1-6.972 0 3.486 3.486 0 0 1 6.972 0zM174.621 9.772a3.486 3.486 0 1 1-6.972 0 3.486 3.486 0 0 1 6.972 0zM195.536 9.772a3.485 3.485 0 1 1-6.97.002 3.485 3.485 0 0 1 6.97-.002zM7.298 30.688a3.486 3.486 0 1 1-6.971 0 3.486 3.486 0 0 1 6.971 0zM28.214 30.688a3.486 3.486 0 1 1-6.972 0 3.486 3.486 0 0 1 6.972 0zM49.13 30.688a3.486 3.486 0 1 1-6.973 0 3.486 3.486 0 0 1 6.972 0zM70.044 30.688a3.486 3.486 0 1 1-6.971 0 3.486 3.486 0 0 1 6.971 0zM90.96 30.688a3.486 3.486 0 1 1-6.972 0 3.486 3.486 0 0 1 6.972 0zM111.875 30.688a3.486 3.486 0 1 1-6.972 0 3.486 3.486 0 0 1 6.972 0zM132.79 30.688a3.485 3.485 0 1 1-6.97.001 3.485 3.485 0 0 1 6.97-.001zM153.706 30.688a3.486 3.486 0 1 1-6.972 0 3.486 3.486 0 0 1 6.972 0zM174.621 30.688a3.486 3.486 0 1 1-6.972 0 3.486 3.486 0 0 1 6.972 0zM195.536 30.688a3.485 3.485 0 1 1-6.97.001 3.485 3.485 0 0 1 6.97-.001zM7.298 51.603a3.486 3.486 0 1 1-6.971 0 3.486 3.486 0 0 1 6.971 0zM28.214 51.603a3.486 3.486 0 1 1-6.972 0 3.486 3.486 0 0 1 6.972 0zM49.13 51.603a3.486 3.486 0 1 1-6.973 0 3.486 3.486 0 0 1 6.972 0zM70.044 51.603a3.486 3.486 0 1 1-6.971 0 3.486 3.486 0 0 1 6.971 0zM90.96 51.603a3.486 3.486 0 1 1-6.972 0 3.486 3.486 0 0 1 6.972 0zM111.875 51.603a3.486 3.486 0 1 1-6.972 0 3.486 3.486 0 0 1 6.972 0zM132.79 51.603a3.485 3.485 0 1 1-6.97.001 3.485 3.485 0 0 1 6.97 0zM153.706 51.603a3.486 3.486 0 1 1-6.972 0 3.486 3.486 0 0 1 6.972 0zM174.621 51.603a3.486 3.486 0 1 1-6.972 0 3.486 3.486 0 0 1 6.972 0zM195.536 51.603a3.485 3.485 0 1 1-6.97.001 3.485 3.485 0 0 1 6.97 0zM28.214 72.519a3.486 3.486 0 1 1-6.972 0 3.486 3.486 0 0 1 6.972 0zM49.13 72.519a3.486 3.486 0 1 1-6.973 0 3.486 3.486 0 0 1 6.972 0zM70.044 72.519a3.486 3.486 0 1 1-6.971 0 3.486 3.486 0 0 1 6.971 0zM90.96 72.519a3.486 3.486 0 1 1-6.972 0 3.486 3.486 0 0 1 6.972 0zM111.875 72.519a3.486 3.486 0 1 1-6.972-.001 3.486 3.486 0 0 1 6.972 0zM132.79 72.519a3.485 3.485 0 1 1-6.97 0 3.485 3.485 0 0 1 6.97 0zM153.706 72.519a3.486 3.486 0 1 1-6.972-.001 3.486 3.486 0 0 1 6.972 0zM174.621 72.519a3.486 3.486 0 1 1-6.972-.001 3.486 3.486 0 0 1 6.972 0zM49.13 93.434a3.486 3.486 0 1 1-6.973 0 3.486 3.486 0 0 1 6.972 0zM70.044 93.434a3.486 3.486 0 1 1-6.971 0 3.486 3.486 0 0 1 6.971 0zM90.96 93.434a3.486 3.486 0 1 1-6.972 0 3.486 3.486 0 0 1 6.972 0zM111.875 93.434a3.486 3.486 0 1 1-6.972 0 3.486 3.486 0 0 1 6.972 0zM132.79 93.434a3.485 3.485 0 1 1-6.97.001 3.485 3.485 0 0 1 6.97-.001zM153.706 93.434a3.486 3.486 0 1 1-6.972 0 3.486 3.486 0 0 1 6.972 0zM70.044 114.349a3.486 3.486 0 1 1-6.972 0 3.486 3.486 0 0 1 6.972 0zM90.96 114.349a3.486 3.486 0 1 1-6.972 0 3.486 3.486 0 0 1 6.972 0zM111.875 114.349a3.486 3.486 0 1 1-6.973 0 3.486 3.486 0 0 1 6.973 0zM132.79 114.349a3.485 3.485 0 1 1-6.971.001 3.485 3.485 0 0 1 6.971-.001z" fill="#FFECC9"/>
</svg>
