<svg xmlns="http://www.w3.org/2000/svg" xmlns:xlink="http://www.w3.org/1999/xlink" width="35" height="35" viewBox="0 0 35 35">
    <defs>
        <path id="a" d="M.08.065h34.853v34.932H.079z"/>
    </defs>
    <g fill="none" fill-rule="evenodd">
        <g>
            <mask id="b" fill="#fff">
                <use xlink:href="#a"/>
            </mask>
            <path fill="#2E81B7" d="M17.466 34.997C7.836 34.997 0 27.162 0 17.531 0 7.901 7.837.065 17.466.065c9.631 0 17.467 7.836 17.467 17.466 0 9.631-7.836 17.466-17.467 17.466zm0-33.872C8.42 1.125 1.06 8.485 1.06 17.53c0 9.051 7.36 16.413 16.406 16.413 9.052 0 16.413-7.362 16.413-16.413 0-9.046-7.361-16.406-16.413-16.406z" mask="url(#b)"/>
        </g>
        <path fill="#2E81B7" d="M17 35c-3.517 0-6.9-1.129-9.782-3.273a.55.55 0 0 1-.213-.507.536.536 0 0 1 .329-.434c4.248-1.643 4.933-2.976 4.933-5.533 0-.68-.145-.9-.405-1.301-.35-.529-.826-1.256-1.156-3.149-.05-.271-.095-.293-.325-.408-.62-.313-1.19-.763-1.341-2.818 0-.993.325-1.543.6-1.825-.06-.356-.16-.967-.25-1.631-.464-2.971-.485-6.616 3.517-8.31 3.488-1.475 6.274-.669 7.15.294.614.02 2.21.192 3.322 1.542 1.71 2.076 1.165 6.814.98 8.095.27.282.6.826.6 1.798-.144 2.092-.716 2.542-1.34 2.855-.23.115-.276.137-.326.408-.33 1.893-.806 2.62-1.155 3.149-.26.401-.405.621-.405 1.301 0 2.557.685 3.89 4.932 5.533.18.068.305.235.33.434a.545.545 0 0 1-.21.507C23.905 33.87 20.523 35 17 35zm-8.386-3.581c2.527 1.647 5.404 2.515 8.385 2.515 2.982 0 5.864-.868 8.385-2.515-3.556-1.533-4.677-3.07-4.677-6.166 0-1.01.285-1.443.59-1.904.31-.475.696-1.066.99-2.74.145-.804.591-1.03.89-1.18.317-.159.646-.326.762-1.93 0-.822-.355-1.041-.365-1.052a.574.574 0 0 1-.27-.575c.249-1.422.67-5.863-.701-7.53-.935-1.134-2.412-1.167-2.691-1.156-.045-.005-.091-.005-.136-.016-.134-.036-.36-.157-.43-.282-.276-.497-2.701-1.501-6.053-.083-3.312 1.401-3.317 4.403-2.887 7.154.14 1.024.295 1.913.295 1.913a.544.544 0 0 1-.29.586c.005 0-.345.225-.345 1.078.115 1.567.44 1.73.76 1.892.295.146.746.371.885 1.181.296 1.67.685 2.26.997 2.735.305.46.585.9.585 1.904 0 3.101-1.116 4.644-4.679 6.171z"/>
    </g>
</svg>
