<?xml version="1.0" encoding="UTF-8"?>
<svg width="50px" height="50px" viewBox="0 0 50 50" version="1.1" xmlns="http://www.w3.org/2000/svg" xmlns:xlink="http://www.w3.org/1999/xlink">
    <!-- Generator: sketchtool 63.1 (101010) - https://sketch.com -->
    <title>147DFB52-C09C-49CA-8D67-CE9D8077787F</title>
    <desc>Created with sketchtool.</desc>
    <g id="Voter-Guide" stroke="none" stroke-width="1" fill="none" fill-rule="evenodd">
        <g id="M-2020-Voter-Guide" transform="translate(-178.000000, -8552.000000)" fill="#313132" fill-rule="nonzero">
            <g id="Q2" transform="translate(18.000000, 8552.000000)">
                <g id="Questions" transform="translate(160.000000, 0.000000)">
                    <g id="communications">
                        <path d="M50,33.8378906 C50,27.6332855 46.440506,22.095871 41.1094666,19.4023133 C40.9439087,31.2988281 31.2988281,40.9439087 19.4023133,41.1094666 C22.095871,46.440506 27.6332855,50 33.8378906,50 C36.7469787,50 39.5759582,49.225235 42.061615,47.7531434 L49.9294281,49.9294281 L47.7531434,42.061615 C49.225235,39.5759582 50,36.7469787 50,33.8378906 L50,33.8378906 Z" id="Path"></path>
                        <path d="M38.1835938,19.0917969 C38.1835938,8.56437686 29.6192169,0 19.0917969,0 C8.56437686,0 0,8.56437686 0,19.0917969 C0,22.5227355 0.913238477,25.863266 2.6473999,28.7960053 L0.0701904297,38.1130219 L9.38758848,35.5361938 C12.3203277,37.2703553 15.6608582,38.1835938 19.0917969,38.1835938 C29.6192169,38.1835938 38.1835938,29.6192169 38.1835938,19.0917969 Z M16.1621094,14.6484375 L13.2324219,14.6484375 C13.2324219,11.4173889 15.8607482,8.7890625 19.0917969,8.7890625 C22.3228455,8.7890625 24.9511719,11.4173889 24.9511719,14.6484375 C24.9511719,16.2883759 24.256897,17.8646088 23.0457306,18.9723969 L20.5566406,21.2505341 L20.5566406,23.5351562 L17.6269531,23.5351562 L17.6269531,19.9604034 L21.0678101,16.8109894 C21.6827393,16.2483215 22.0214844,15.4804229 22.0214844,14.6484375 C22.0214844,13.0329132 20.7073212,11.71875 19.0917969,11.71875 C17.4762726,11.71875 16.1621094,13.0329132 16.1621094,14.6484375 Z M17.6269531,26.4648438 L20.5566406,26.4648438 L20.5566406,29.3945312 L17.6269531,29.3945312 L17.6269531,26.4648438 Z" id="Shape"></path>
                    </g>
                </g>
            </g>
        </g>
    </g>
</svg>