<?xml version="1.0" encoding="utf-8"?>
<!-- Generator: Adobe Illustrator 28.0.0, SVG Export Plug-In . SVG Version: 6.00 Build 0)  -->
<svg version="1.1" id="Layer_1" xmlns="http://www.w3.org/2000/svg" xmlns:xlink="http://www.w3.org/1999/xlink" x="0px" y="0px"
	 viewBox="0 0 591 71" style="enable-background:new 0 0 591 71;" xml:space="preserve">
<style type="text/css">
	.st0{fill:#231F20;}
</style>
<g>
	<g>
		<g>
			<g>
				<path class="st0" d="M254.2,37.8c-1.8,0-3.6-0.2-5.4-0.2c-1.8,0-3.6,0.2-5.4,0.2v-1.4l1-0.1c1.3-0.1,1.6-1,1.6-2.7V22.1
					c0-2-0.9-3.9-3.2-3.9c-1.1,0-2.2,0.7-3,1.3c-0.8,0.7-1.2,1.3-1.2,2.3v11.8c0,1.7,0.3,2.5,1.6,2.7l1,0.1v1.4
					c-1.8,0-3.6-0.2-5.4-0.2c-1.8,0-3.6,0.2-5.4,0.2v-1.4l1-0.1c1.3-0.1,1.6-1,1.6-2.7v-13c0-1.4-0.2-2.1-1.1-2.1l-1.7-0.1v-1.2
					l8.6-2.6L239,15c-0.2,0.5-0.4,1.2-0.4,1.9v1.6h0.1c0.8-0.7,1.3-1,2.4-1.9c1.1-0.9,2.6-1.8,4.5-1.8c3.9,0,6,2.7,6,6.4v12.3
					c0,1.7,0.3,2.5,1.6,2.7l1,0.1V37.8L254.2,37.8z"/>
				<path class="st0" d="M210.1,35.4c-2.3,2-4.1,2.9-7,2.9c-3.7,0-5.2-1.8-5.2-5.5V16.5h-1.7c-1,0-1.4,0.4-2.4,2.9l-9.6,23.4
					c-1.2,3-3.1,4.2-5.2,4.2c-2.1,0-3.5-1.2-3.5-2.7c0-1.7,1.3-2.8,2.9-2.8c1.6,0,2.3,1.5,3.1,1.5c0.5,0,0.8-0.4,1.1-1.1l1.6-3.9
					l-7.4-19c-0.8-2-1.3-2.5-2.2-2.6l-1-0.1V15c2,0,4,0.2,6.1,0.2c1.9,0,3.7-0.2,5.6-0.2v1.4l-1,0.1c-1,0.1-1.6,0.5-1.6,1.5
					c0,0.3,0.1,0.8,0.2,1.1l4.2,11.6l4.4-11.2c0.1-0.4,0.3-1.1,0.3-1.5c0-1-0.4-1.4-1.5-1.5l-1-0.1V15c1.5,0,2.5,0.2,4,0.2
					c0.7,0,1.4-0.1,2.1-0.1c1.3-1.1,8-6.7,8-6.7l0.4,0.5c-0.1,0.3-0.5,0.9-0.5,2v0.9V15h5.9l-0.7,2.3h-0.1c-0.4-0.1-1.6-0.4-3.1-0.4
					h-2v15.2c0,2.1,0.9,2.9,2.3,2.9c1.6,0,3.5-0.9,3.9-1.2L210.1,35.4L210.1,35.4z"/>
				<path class="st0" d="M229.7,26.4c0,7.1-4,11.9-10.4,11.9c-6,0-10.3-4.8-10.3-11.8c0-7,4.3-11.9,10.3-11.9
					C225.2,14.6,229.7,19.1,229.7,26.4L229.7,26.4z M223.8,26.6c0-5.5-1.3-10.4-4.4-10.4c-3.1,0-4.4,4.8-4.4,10
					c0,6,1.7,10.5,4.4,10.5C222.1,36.7,223.8,32,223.8,26.6L223.8,26.6z"/>
				<path class="st0" d="M175.8,37.8c-2,0-5.5,0.2-7.4,0.3c-0.2-1-0.5-2.1-0.5-3.2h-0.1c-0.5,0.4-1.2,0.9-2.4,1.8
					c-1.3,0.9-2.9,1.7-5.1,1.7c-2.9,0-4.7-2-4.7-4.9c0-2.8,2.1-4.7,6.5-7l5.5-2.9v-1c0-2.9-1.7-4.5-4.4-4.5c-2.1,0-3.2,0.5-4.9,1.5
					l-0.7-1.6c2.6-2,4.9-3.1,7.1-3.1c5,0,8.4,1.8,8.4,7.8v11.7c0,1.3,0.4,2.2,1.5,2.3l1.2,0.1V37.8L175.8,37.8z M167.6,31.5v-5.9
					l-2.8,1.5c-2,1.1-3.3,2.4-3.3,5.3c0,1.6,0.8,2.8,2.4,2.8c0.9,0,2-0.5,2.8-1.3C167.4,33.1,167.6,32.5,167.6,31.5L167.6,31.5z"/>
				<path class="st0" d="M155.5,21.7c0,10.1-5.3,16.1-15.7,16.1c-2.2,0-5.2-0.2-7.6-0.2c-2,0-4.1,0.2-6.1,0.2v-1.5l0.7-0.1
					c2.1-0.2,2.7-0.6,2.7-3V10.4c0-1.6-0.6-2.3-1.8-2.5l-1.9-0.2V6.3c2.4,0,5.6,0.2,6.8,0.2c3.4,0,2.2-0.2,6.6-0.2
					C149.4,6.3,155.5,11.2,155.5,21.7L155.5,21.7z M148.8,22.1c0-10.6-3.9-14.1-9-14.1c-1.7,0-3.3,0.3-3.9,0.4v25.7
					c0,1.5,0.5,2,2.1,2h2.8C145.1,36.1,148.8,30.6,148.8,22.1L148.8,22.1z"/>
				<path class="st0" d="M362.4,16.4l-0.8,0.1c-1,0.1-1.4,0.5-2.4,3l-9.6,23.4c-1.2,3-3.2,4.2-5.2,4.2c-2.1,0-3.5-1.2-3.5-2.7
					c0-1.7,1.3-2.8,2.9-2.8c1.6,0,2.3,1.5,3.1,1.5c0.5,0,0.8-0.4,1.1-1.1l1.6-3.9l-7.4-19c-0.8-2-1.3-2.5-2.2-2.6l-1-0.1V15
					c2,0,4,0.2,6.1,0.2c1.9,0,3.8-0.2,5.7-0.2v1.4l-1,0.1c-1,0.1-1.6,0.5-1.6,1.5c0,0.3,0.1,0.8,0.2,1.1l4.3,11.6l4.4-11.2
					c0.1-0.4,0.3-1.1,0.3-1.5c0-1-0.4-1.4-1.4-1.5l-1-0.1V15c1.5,0,2.4,0.2,3.9,0.2c0.7,0,2.3-0.2,3.5-0.2V16.4L362.4,16.4z"/>
				<path class="st0" d="M326.4,8.5c0,1.8-1.5,3.3-3.3,3.3c-1.8,0-3.3-1.4-3.3-3.3c0-1.8,1.5-3.3,3.3-3.3
					C325,5.2,326.4,6.7,326.4,8.5L326.4,8.5z"/>
				<path class="st0" d="M339.9,37.9c-1.8,0-3.6-0.2-5.4-0.2c-1.8,0-3.6,0.2-5.5,0.2v-1.4l1-0.1c1.3-0.1,1.6-1,1.6-2.7v-3.6v-20
					c0-1.4-0.2-2.1-1.1-2.1l-1.7-0.1V6.6l8.6-2.6l0.2,0.5c-0.1,0.3-0.4,1.1-0.4,2.2v23.4v3.6c0,1.7,0.3,2.5,1.6,2.7l1,0.1V37.9
					L339.9,37.9z"/>
				<path class="st0" d="M328.3,37.9c-1.8,0-3.6-0.2-5.4-0.2c-1.8,0-3.6,0.2-5.5,0.2v-1.4l1-0.1c1.3-0.1,1.6-1,1.6-2.7v-3.6v-9.4
					c0-1.4-0.2-2.1-1.1-2.1l-1.7-0.1v-1.2l8.6-2.6l0.2,0.5c-0.2,0.3-0.4,1.1-0.4,2.2v12.8v3.6c0,1.7,0.3,2.5,1.6,2.7l1,0.1V37.9
					L328.3,37.9z"/>
				<path class="st0" d="M316.9,37.8c-2,0-5.5,0.2-7.4,0.3c-0.2-1-0.5-2.1-0.5-3.2h-0.1c-0.5,0.4-1.2,0.9-2.4,1.8
					c-1.3,0.9-2.9,1.7-5.1,1.7c-2.9,0-4.7-2-4.7-4.9c0-2.8,2.1-4.7,6.5-7l5.5-2.9v-1c0-2.9-1.7-4.5-4.4-4.5c-2.1,0-3.2,0.5-4.9,1.5
					l-0.7-1.6c2.6-2,4.9-3.1,7.1-3.1c5,0,8.4,1.8,8.4,7.8v11.7c0,1.3,0.4,2.2,1.5,2.3l1.2,0.1V37.8L316.9,37.8z M308.6,31.5v-5.9
					l-2.8,1.5c-2,1.1-3.3,2.4-3.3,5.3c0,1.6,0.8,2.8,2.4,2.8c0.9,0,2-0.5,2.8-1.3C308.4,33.1,308.6,32.5,308.6,31.5L308.6,31.5z"/>
				<path class="st0" d="M296.5,21.7c0,10.1-5.3,16.1-15.7,16.1c-2.2,0-5.2-0.2-7.6-0.2c-2,0-4.1,0.2-6.1,0.2v-1.5l0.7-0.1
					c2.1-0.2,2.7-0.6,2.7-3V10.4c0-1.6-0.6-2.3-1.8-2.5l-1.9-0.2V6.3c2.4,0,5.6,0.2,6.8,0.2c3.4,0,2.2-0.2,6.6-0.2
					C290.4,6.3,296.5,11.2,296.5,21.7L296.5,21.7z M289.8,22.1c0-10.6-3.9-14.1-9-14.1c-1.7,0-3.3,0.3-3.9,0.4v25.7
					c0,1.5,0.5,2,2.1,2h2.8C286.1,36.1,289.8,30.6,289.8,22.1L289.8,22.1z"/>
				<path class="st0" d="M465.3,31.3c0,4.2-3.7,7-8.9,7c-3.8,0-5.7-0.8-6.8-0.8c-0.3,0-0.6,0.1-0.7,0.1v-7.4h1.4l0.3,1.3
					c0.9,3.4,3.2,5.2,5.7,5.2c2.3,0,3.9-1.1,3.9-3.3c0-2-0.7-3.5-4.6-5.5l-1.4-0.7c-2.4-1.3-5-3.3-5-6.6c0-3.3,2.8-6.1,9.1-6.1
					c1.9,0,3.6,0.5,5.1,0.5c0.2,0,0.5,0,0.7,0v6h-1.5l-0.2-1.3c-0.3-1.9-1.9-3.6-4.3-3.6c-2.1,0-3.6,1-3.6,2.9c0,2,1.9,3.1,4.1,4.3
					l1.8,1C462.8,25.7,465.3,27.8,465.3,31.3L465.3,31.3z"/>
				<path class="st0" d="M449.3,16.4l-0.9,0.1c-1,0.1-1.6,0.7-2.3,2.9l-5,16.4c-0.2,0.7-0.5,1.8-0.5,2.3h-3.7l-4.1-13.8h-0.1L429,36
					c-0.2,0.7-0.4,1.6-0.4,2.1h-3.8l-5.6-19c-0.7-2.3-1.5-2.5-2.3-2.6l-1-0.1V15c1.9,0,4.1,0.2,6,0.2c1.9,0,3.5-0.2,5.3-0.2v1.4
					l-0.7,0.1c-0.9,0.2-1.4,0.5-1.4,1.5c0,0.3,0.1,0.7,0.2,1.1l3.3,11.6h0.1l2.9-9.9l-0.5-1.7c-0.6-2.3-1.5-2.6-2.2-2.7l-0.7-0.1V15
					c1.8,0,3.8,0.2,5.6,0.2c1.8,0,3.7-0.2,5.5-0.2v1.4l-0.8,0.1c-0.9,0.1-1.4,0.6-1.4,1.4c0,0.3,0.1,0.9,0.2,1.3l3.3,11.6h0.1
					l3.3-11.2c0.1-0.4,0.2-1,0.2-1.4c0-1-0.4-1.4-1.4-1.5l-1-0.1V15c1.4,0,2.6,0.2,4,0.2c1.1,0,2.3-0.2,3.4-0.2V16.4L449.3,16.4z"/>
				<path class="st0" d="M398.9,7.8l-1.4,0.3c-1.2,0.2-2,0.9-2,3.2v24.3c0,1.2,0.1,2.3,0.2,2.7h-3.2l-15.1-25h-0.1v19.6
					c0,2.2,0.8,3,2,3.2l1.7,0.3v1.5c-1.7,0-3.4-0.2-5.1-0.2c-1.5,0-3,0.2-4.4,0.2v-1.5l1.4-0.2c1.2-0.2,2.1-1,2.1-3.2V10.6
					c0-1.7-1-2.4-2.3-2.6l-1.2-0.2V6.4c1.6,0,4.3,0.1,5.9,0.1c1.3,0,2.7-0.1,3.6-0.1c0.1,0.5,0.6,1.3,1.1,2.1l11,18.1h0.1V11.2
					c0-2.2-0.8-3-2-3.2l-1.4-0.3V6.3c1.6,0,3.3,0.2,4.9,0.2c1.4,0,3-0.2,4.5-0.2V7.8L398.9,7.8z"/>
				<path class="st0" d="M417.4,24.7c0,0.2,0,0.5,0,0.7h-13.6c0,7.2,2.4,9.8,6,9.8c2.7,0,4.3-1,6.3-2.4l0.6,1.8
					c-2.5,2.5-5,3.8-7.8,3.8c-6.9,0-11-4.9-11-11.7c0-7.9,5-12,10.5-12C413.1,14.6,417.4,17.7,417.4,24.7L417.4,24.7z M411.8,23.7
					c0,0,0-0.3,0-0.5c0-4-1.4-7-3.9-7c-2.7,0-4.1,3.9-4.1,7.5H411.8L411.8,23.7z"/>
			</g>
		</g>
	</g>
	<polygon class="st0" points="215.8,56.2 212.5,56.2 212.5,65.8 210.5,65.8 210.5,56.2 207.3,56.2 207.3,54.4 215.8,54.4 	"/>
	<path class="st0" d="M220.6,60h2c1.4,0,2-0.8,2-1.9c0-1-0.6-1.9-1.8-1.9h-2.3V60z M221.6,61.7h-1v4.1h-2V54.4h4.5
		c2.5,0,3.6,1.8,3.6,3.6c0,1.6-0.8,3.2-2.8,3.5l3,4.2h-2.4L221.6,61.7z"/>
	<path class="st0" d="M229.8,61.8v-7.4h2v7.3c0,1.6,1.1,2.3,2.3,2.3c1.2,0,2.3-0.7,2.3-2.3v-7.3h2v7.4c0,2.6-2,4.2-4.3,4.2
		C231.8,66,229.8,64.4,229.8,61.8"/>
	<path class="st0" d="M241.5,62.5h2c0,0.9,0.9,1.7,2.1,1.7c1.2,0,1.9-0.7,1.9-1.6c0-0.8-0.7-1.3-1.6-1.5l-1.4-0.4
		c-2.4-0.6-2.9-2.1-2.9-3.1c0-2,1.8-3.3,3.9-3.3c2.1,0,3.7,1.3,3.7,3.4h-2c0-0.9-0.7-1.6-1.8-1.6c-1,0-1.8,0.6-1.8,1.5
		c0,0.3,0.1,1,1.4,1.3l1.4,0.4c1.8,0.5,3.2,1.5,3.2,3.3c0,2.1-1.7,3.4-4,3.4C243.1,66,241.5,64.4,241.5,62.5"/>
	<polygon class="st0" points="259.9,56.2 256.6,56.2 256.6,65.8 254.6,65.8 254.6,56.2 251.4,56.2 251.4,54.4 259.9,54.4 	"/>
	<polygon class="st0" points="269.8,64 269.8,65.8 262.7,65.8 262.7,54.4 269.7,54.4 269.7,56.2 264.7,56.2 264.7,59.3 269,59.3 
		269,61.1 264.7,61.1 264.7,64 	"/>
	<path class="st0" d="M277.6,64c2.1,0,3.1-1.8,3.1-3.9c0-2.1-1.1-3.9-3.1-3.9h-2.4V64H277.6z M273.1,54.4h4.5c3.3,0,5.2,2.5,5.2,5.7
		c0,3.2-1.9,5.7-5.2,5.7h-4.5V54.4z"/>
	<path class="st0" d="M291,62.5h2c0,0.9,0.9,1.7,2.1,1.7c1.2,0,1.9-0.7,1.9-1.6c0-0.8-0.7-1.3-1.6-1.5l-1.4-0.4
		c-2.4-0.6-2.9-2.1-2.9-3.1c0-2,1.8-3.3,3.9-3.3c2.1,0,3.7,1.3,3.7,3.4h-2c0-0.9-0.7-1.6-1.8-1.6c-1,0-1.8,0.6-1.8,1.5
		c0,0.3,0.1,1,1.4,1.3l1.4,0.4c1.8,0.5,3.2,1.5,3.2,3.3c0,2.1-1.7,3.4-4,3.4C292.6,66,291,64.4,291,62.5"/>
	<rect x="302.2" y="54.4" class="st0" width="2" height="11.4"/>
	<polygon class="st0" points="316.5,54.4 316.5,65.8 314.7,65.8 310.1,58.2 310.1,65.8 308.1,65.8 308.1,54.4 310,54.4 314.5,62 
		314.5,54.4 	"/>
	<path class="st0" d="M319.7,60.1c0-3.2,2.6-5.8,5.8-5.8c1.9,0,3.5,0.9,4.5,2.2l-1.5,1.2c-0.7-0.9-1.7-1.5-3-1.5
		c-2.2,0-3.8,1.8-3.8,3.9c0,2.2,1.6,3.9,3.8,3.9c1.2,0,2.3-0.6,3-1.5l1.5,1.1c-1,1.4-2.7,2.2-4.5,2.2
		C322.2,66,319.7,63.4,319.7,60.1"/>
	<polygon class="st0" points="340,64 340,65.8 332.9,65.8 332.9,54.4 339.9,54.4 339.9,56.2 334.9,56.2 334.9,59.3 339.2,59.3 
		339.2,61.1 334.9,61.1 334.9,64 	"/>
	<polygon class="st0" points="352.9,54.1 352.9,65.8 350.9,65.8 350.9,56.9 348.3,58 348.3,56 352.8,54.1 	"/>
	<path class="st0" d="M359.3,57.3c0,0.7,0.7,1.3,1.5,1.3c0.8,0,1.5-0.6,1.5-1.3c0-0.7-0.6-1.4-1.5-1.4
		C359.9,55.9,359.3,56.5,359.3,57.3 M363,62.2c0-1.1-1-2-2.3-2c-1.3,0-2.3,0.8-2.3,2c0,1.1,1,1.9,2.3,1.9
		C362.1,64.1,363,63.3,363,62.2 M365.2,62.4c0,2.2-1.9,3.6-4.4,3.6c-2.5,0-4.4-1.5-4.4-3.6c0-1.5,0.9-2.7,2.2-3.1
		c-0.7-0.4-1.3-1.2-1.3-2.2c0-1.7,1.5-2.9,3.5-2.9c2,0,3.5,1.2,3.5,2.9c0,1-0.5,1.8-1.3,2.2C364.3,59.7,365.2,60.9,365.2,62.4"/>
	<path class="st0" d="M374.3,58.1c0-1.1-0.9-2-2.1-2c-1.3,0-2.2,0.8-2.2,2c0,1.1,0.9,1.9,2,1.9C373.3,59.9,374.2,59.2,374.3,58.1
		 M376.5,59.7c0,3.2-1.5,6.3-4.9,6.3c-1.4,0-2.9-0.6-3.7-2.3l1.7-0.9c0.4,0.9,1.2,1.3,1.9,1.3c1.6,0,2.7-1.5,2.7-3.5
		c-0.6,0.7-1.4,1.1-2.6,1.1c-2.3,0-3.9-1.7-3.9-3.7c0-2.1,1.6-3.9,4.2-3.9C374.9,54.1,376.5,56.4,376.5,59.7"/>
	<path class="st0" d="M382.2,57.3c0,0.7,0.7,1.3,1.5,1.3c0.8,0,1.5-0.6,1.5-1.3c0-0.7-0.6-1.4-1.5-1.4
		C382.9,55.9,382.2,56.5,382.2,57.3 M386,62.2c0-1.1-1-2-2.3-2c-1.3,0-2.3,0.8-2.3,2c0,1.1,1,1.9,2.3,1.9
		C385.1,64.1,386,63.3,386,62.2 M388.1,62.4c0,2.2-1.9,3.6-4.4,3.6c-2.5,0-4.4-1.5-4.4-3.6c0-1.5,0.9-2.7,2.2-3.1
		c-0.7-0.4-1.3-1.2-1.3-2.2c0-1.7,1.5-2.9,3.5-2.9c2,0,3.5,1.2,3.5,2.9c0,1-0.5,1.8-1.3,2.2C387.2,59.7,388.1,60.9,388.1,62.4"/>
</g>
</svg>
