<?xml version="1.0" encoding="UTF-8"?><svg id="Layer_1" xmlns="http://www.w3.org/2000/svg" viewBox="0 0 1040.45 137.84"><defs><style>.cls-1{fill:#6d6e71;}.cls-2{fill:#0076ad;}</style></defs><g><g><path class="cls-2" d="M22.24,84.14v-6.25h6.31c2.28,0,3.12-.96,3.12-3.24v-20.66c-1.86,3.3-6.79,5.17-11.65,5.17v-7.51c8.17-.9,13.45-6.85,14.65-13.75h11.11v36.76c0,2.28,.78,3.24,3.06,3.24h4.8v6.25H22.24Z"/><path class="cls-2" d="M82.78,84.92c-3.24,0-5.29-.66-8.35-2.34-2.82-1.56-4.74-2.46-7.21-2.46-1.86,0-3.9,1.62-3.9,4.02h-8.23v-6.85c0-4.75,2.46-10.51,9.31-14.95,1.68-1.08,3.12-1.98,4.38-2.7,5.77-3.48,7.33-5.83,7.33-10.09,0-3.6-1.38-5.95-5.47-5.95-2.88,0-4.2,1.38-4.74,3l.78,.06c2.76,.24,4.5,2.76,4.5,5.41,0,4.14-3.3,6.67-7.39,6.67-5.59,0-8.95-3.36-8.95-9.37,0-7.15,7.15-12.25,18.44-12.25,12.49,0,18.8,4.62,18.8,13.27,0,7.15-4.5,10.99-15.8,14.41-1.68,.48-3.6,1.14-5.41,1.8-4.68,1.8-8.59,5.59-8.59,10.15v1.2c1.32-4.99,5.29-8.05,10.87-8.05,1.74,0,3.36,.36,5.89,1.62,2.28,1.14,3.06,1.56,4.92,1.56,1.38,0,2.16-.96,2.16-2.58v-2.58h6.97v5.58c0,6.73-3.72,11.41-10.33,11.41Z"/><path class="cls-2" d="M112.75,84.92c-11.17,0-18.38-4.62-18.38-12.43,0-6.01,3.96-8.05,7.75-8.05,4.38,0,7.15,2.4,7.15,6.31,0,2.52-1.44,4.32-3.84,5.1,.54,2.04,2.88,2.82,4.56,2.82,4.62,0,6.31-3.48,6.31-10.45,0-6.37-1.74-9.07-6.01-9.07-2.88,0-4.2,1.56-4.38,2.58h-8.53l2.58-24.26h4.56s4.26,2.04,13.15,2.04c7.69,0,11.89-1.74,13.03-1.74,.42,0,.84,.3,.84,.84,0,.84-1.44,3.36-3.9,5.83-3.54,3.54-8.05,5.35-15.86,5.35-2.82,0-5.23-.42-6.01-.84l-.84,7.27c1.38-2.16,5.71-3.42,9.79-3.42,9.25,0,17.06,5.04,17.06,15.98,0,10.09-7.75,16.16-19.04,16.16Z"/></g><g><path class="cls-1" d="M23.55,28.13h-2.91v-2.8h9.13v2.8h-2.91v7.09h-3.31v-7.09Z"/><path class="cls-1" d="M31.37,25.33h4.83c1.75,0,2.87,.44,3.56,1.13,.59,.59,.9,1.33,.9,2.35v.03c0,1.44-.75,2.44-1.95,3.02l2.3,3.36h-3.77l-1.87-2.83h-.71v2.83h-3.31v-9.89Zm4.73,4.71c.79,0,1.27-.35,1.27-.96v-.03c0-.64-.49-.95-1.26-.95h-1.44v1.94h1.43Z"/><path class="cls-1" d="M42.23,30.78v-5.45h3.36v5.41c0,1.23,.64,1.75,1.53,1.75s1.53-.48,1.53-1.68v-5.48h3.36v5.38c0,3.38-1.96,4.71-4.92,4.71s-4.86-1.36-4.86-4.63Z"/><path class="cls-1" d="M53.08,33.74l1.77-2.11c1.07,.82,2.3,1.16,3.46,1.16,.59,0,.85-.16,.85-.42v-.03c0-.28-.31-.44-1.37-.65-2.22-.45-4.17-1.09-4.17-3.18v-.03c0-1.88,1.47-3.33,4.2-3.33,1.91,0,3.32,.45,4.47,1.36l-1.61,2.23c-.93-.68-2.05-.97-2.97-.97-.49,0-.72,.17-.72,.41v.03c0,.27,.27,.44,1.31,.64,2.53,.47,4.22,1.2,4.22,3.19v.03c0,2.08-1.71,3.35-4.37,3.35-2.01,0-3.81-.57-5.07-1.67Z"/><path class="cls-1" d="M66.3,28.13h-2.91v-2.8h9.13v2.8h-2.91v7.09h-3.31v-7.09Z"/><path class="cls-1" d="M74.11,25.33h8.44v2.71h-5.19v1h4.83v2.39h-4.83v1.07h5.26v2.71h-8.51v-9.89Z"/><path class="cls-1" d="M84.35,25.33h3.79c3.93,0,5.89,1.94,5.89,4.86v.03c0,2.92-2.01,5-6.01,5h-3.67v-9.89Zm3.31,2.88v4.13h.55c1.51,0,2.49-.62,2.49-2.05v-.03c0-1.43-.97-2.05-2.49-2.05h-.55Z"/><path class="cls-1" d="M100.22,25.33h8.28v2.83h-4.97v1.26h4.62v2.57h-4.62v3.24h-3.31v-9.89Z"/><path class="cls-1" d="M109.89,30.3v-.03c0-2.87,2.36-5.16,5.41-5.16s5.38,2.26,5.38,5.13v.03c0,2.87-2.36,5.16-5.41,5.16s-5.38-2.26-5.38-5.13Zm7.46,0v-.03c0-1.17-.81-2.23-2.08-2.23s-2.05,1.05-2.05,2.2v.03c0,1.17,.81,2.23,2.08,2.23s2.05-1.05,2.05-2.2Z"/><path class="cls-1" d="M122.44,25.33h4.83c1.75,0,2.87,.44,3.56,1.13,.59,.59,.9,1.33,.9,2.35v.03c0,1.44-.75,2.44-1.95,3.02l2.3,3.36h-3.77l-1.87-2.83h-.71v2.83h-3.31v-9.89Zm4.73,4.71c.79,0,1.27-.35,1.27-.96v-.03c0-.64-.49-.95-1.26-.95h-1.44v1.94h1.43Z"/></g><g><path class="cls-1" d="M28.58,100.72l-7.53-12.9h7.48l3.42,6.56,3.45-6.56h7.39l-7.53,12.81v7.16h-6.68v-7.08Z"/><path class="cls-1" d="M44.61,87.82h17.03v5.48h-10.47v2.03h9.76v4.82h-9.76v2.17h10.61v5.48h-17.18v-19.97Z"/><path class="cls-1" d="M72.27,87.68h6.62l8.42,20.12h-7.25l-1.06-2.68h-6.99l-1.03,2.68h-7.13l8.42-20.12Zm5.08,12.7l-1.83-4.85-1.83,4.85h3.65Z"/><path class="cls-1" d="M89.27,87.82h9.76c3.54,0,5.79,.88,7.19,2.28,1.2,1.2,1.83,2.68,1.83,4.74v.06c0,2.91-1.51,4.94-3.94,6.11l4.65,6.79h-7.62l-3.77-5.71h-1.43v5.71h-6.68v-19.97Zm9.56,9.5c1.6,0,2.57-.71,2.57-1.94v-.06c0-1.28-1-1.91-2.54-1.91h-2.91v3.91h2.88Z"/><path class="cls-1" d="M109.17,104.8l3.57-4.25c2.17,1.66,4.65,2.34,6.99,2.34,1.2,0,1.71-.31,1.71-.86v-.06c0-.57-.63-.88-2.77-1.31-4.48-.91-8.42-2.2-8.42-6.42v-.06c0-3.79,2.97-6.73,8.47-6.73,3.85,0,6.71,.91,9.02,2.74l-3.25,4.51c-1.88-1.37-4.14-1.97-5.99-1.97-1,0-1.46,.34-1.46,.83v.06c0,.54,.54,.88,2.65,1.28,5.11,.94,8.53,2.43,8.53,6.45v.06c0,4.19-3.45,6.76-8.82,6.76-4.05,0-7.7-1.14-10.24-3.37Z"/></g></g><g><path d="M476.12,106.93c-4.64,0-9.25-.52-13.9-.52s-9.36,.52-14.05,.52v-3.6l2.57-.3c3.33-.38,4.12-2.49,4.12-6.84v-29.87c0-5.28-2.24-10.08-8.24-10.08-2.81,0-5.78,1.7-7.73,3.46-2.01,1.82-3.02,3.41-3.02,5.96v30.53c0,4.35,.79,6.46,4.12,6.84l2.57,.3v3.6c-4.64,0-9.25-.52-13.9-.52s-9.37,.52-14.05,.52v-3.6l2.57-.3c3.33-.38,4.12-2.49,4.12-6.84V62.65c0-3.54-.5-5.35-2.94-5.51l-4.26-.3v-3.17l22.06-6.69,.74,1.25c-.59,1.18-1.03,3.17-1.03,4.86v4.12h.22c2.06-1.69,3.33-2.57,6.11-4.79,2.84-2.26,6.63-4.63,11.62-4.63,10.12,0,15.6,6.84,15.6,16.62v31.78c0,4.35,.79,6.46,4.11,6.84l2.58,.3v3.6h0Z"/><path d="M362.46,100.75c-6.04,5.15-10.51,7.35-18.02,7.35-9.49,0-13.54-4.65-13.54-14.27V52.05h-4.41c-2.52,0-3.57,1.12-6.18,7.51l-24.64,60.31c-3.17,7.76-7.95,10.82-13.39,10.82s-8.9-3.01-8.9-7.06c0-4.41,3.39-7.13,7.35-7.13s5.96,3.97,7.87,3.97c1.25,0,2.03-1.01,2.72-2.72l4.05-10-19.05-48.92c-1.99-5.11-3.45-6.46-5.59-6.77l-2.58-.37v-3.6c5.23,0,10.43,.51,15.67,.51,4.95,0,9.63-.51,14.57-.51v3.6l-2.58,.37c-2.66,.38-4.12,1.33-4.12,3.83,0,.81,.23,1.96,.58,2.94l10.9,29.94,11.47-28.84c.38-.97,.88-2.86,.88-3.97,0-2.5-1.09-3.67-3.75-3.98l-2.58-.29v-3.6c3.86,0,6.51,.44,10.37,.44,1.75,0,3.7-.17,5.44-.29,3.25-2.72,20.6-17.22,20.6-17.22l1.02,1.32c-.37,.66-1.17,2.43-1.17,5.22v10.52h15.22l-1.91,6.03h-.15c-1.03-.37-4.12-.96-7.95-.96h-5.22v39.28c0,5.37,2.28,7.43,5.96,7.43,4.04,0,9.04-2.42,10.15-3.16l.88,4.04h0Z"/><path d="M413,77.58c0,18.31-10.37,30.67-26.92,30.67-15.46,0-26.49-12.36-26.49-30.52s11.04-30.68,26.64-30.68,26.77,11.62,26.77,30.53h0Zm-15.3,.37c0-14.27-3.45-26.7-11.4-26.7s-11.4,12.43-11.4,25.75c0,15.37,4.34,27.14,11.26,27.14s11.55-12.06,11.55-26.19h0Z"/><path d="M273.97,106.93c-5.07,0-14.27,.51-19.05,.88-.59-2.5-1.18-5.51-1.33-8.24h-.14c-1.25,1.11-3.14,2.44-6.25,4.56-3.24,2.21-7.5,4.27-13.09,4.27-7.36,0-12.13-5.18-12.13-12.72s5.33-12.13,16.7-18.17l14.12-7.5v-2.65c0-7.43-4.33-11.7-11.25-11.7-5.29,0-8.17,1.25-12.72,3.75l-1.69-4.19c6.62-5.07,12.58-8.02,18.39-8.02,12.8,0,21.7,4.63,21.7,20.01v30.16c0,3.45,1.13,5.55,3.76,5.81l3.02,.29v3.46h0Zm-21.19-16.25v-15.23l-7.21,3.89c-5.08,2.75-8.6,6.26-8.6,13.54,0,4.04,2.13,7.13,6.26,7.13,2.42,0,5.22-1.18,7.13-3.23,1.79-1.91,2.42-3.42,2.42-6.1h0Z"/><path d="M221.52,65.44c0,26.11-13.61,41.49-40.53,41.49-5.62,0-13.45-.52-19.71-.52-5.13,0-10.68,.52-15.82,.52v-3.9l1.91-.14c5.4-.41,6.99-1.44,6.99-7.65V36.31c0-4.04-1.65-6.05-4.71-6.33l-4.93-.44v-3.83c6.12,0,14.4,.53,17.51,.52,8.76-.04,5.55-.52,17.07-.52,26.5,0,42.23,12.65,42.23,39.72h0Zm-17.29,1.11c0-27.22-10.18-36.49-23.25-36.49-4.33,0-8.54,.74-10.15,1.1V97.45c0,3.75,1.25,5.15,5.44,5.15h7.14c11.19,0,20.82-14.28,20.82-36.05h0Z"/><path d="M754.99,51.69l-2.13,.14c-2.51,.17-3.57,1.34-6.18,7.73l-24.65,60.31c-3.17,7.76-8.17,10.82-13.32,10.82-5.52,0-8.98-3.01-8.98-7.06,0-4.41,3.39-7.13,7.37-7.13,4.19,0,5.88,3.97,7.87,3.97,1.25,0,2.03-1.01,2.72-2.72l4.05-10-19.06-48.92c-1.99-5.1-3.44-6.46-5.58-6.77l-2.58-.37v-3.6c5.22,0,10.43,.51,15.67,.51,4.95,0,9.85-.51,14.79-.51v3.6l-2.57,.37c-2.67,.38-4.13,1.33-4.13,3.83,0,.81,.24,1.97,.59,2.94l10.96,29.94,11.4-28.84c.38-.96,.88-2.86,.88-3.97,0-2.5-1.09-3.67-3.74-3.98l-2.59-.29v-3.6c3.87,0,6.29,.44,10.15,.44,1.75,0,5.89-.44,9.05-.44v3.6h0Z"/><path d="M662.38,31.31c0,4.66-3.81,8.38-8.45,8.38s-8.47-3.72-8.47-8.38,3.81-8.46,8.47-8.46,8.45,3.8,8.45,8.46h0Z"/><path d="M697.1,107.08c-4.64,0-9.25-.51-13.9-.51s-9.38,.51-14.06,.51v-3.6l2.58-.29c3.33-.38,4.12-2.5,4.12-6.84V35.5c0-3.54-.51-5.35-2.94-5.52l-4.27-.29v-3.16l22.22-6.77,.6,1.32c-.3,.81-1.03,2.79-1.03,5.74V96.34c0,4.35,.79,6.46,4.12,6.84l2.58,.29v3.6h0Z"/><path d="M667.24,107.08c-4.64,0-9.25-.51-13.9-.51s-9.37,.51-14.06,.51v-3.6l2.58-.29c3.33-.38,4.11-2.5,4.11-6.84V62.8c0-3.54-.5-5.35-2.94-5.52l-4.27-.3v-3.16l22.21-6.77,.59,1.33c-.44,.88-1.03,2.72-1.03,5.66v42.3c0,4.35,.79,6.46,4.12,6.84l2.58,.29v3.6h0Z"/><path d="M637.66,106.93c-5.09,0-14.27,.51-19.06,.88-.59-2.5-1.17-5.51-1.32-8.24h-.15c-1.25,1.11-3.15,2.44-6.25,4.56-3.24,2.21-7.51,4.27-13.09,4.27-7.36,0-12.13-5.18-12.13-12.72s5.33-12.13,16.69-18.17l14.13-7.5v-2.65c0-7.43-4.34-11.7-11.26-11.7-5.3,0-8.17,1.25-12.72,3.75l-1.7-4.19c6.62-5.07,12.58-8.02,18.39-8.02,12.8,0,21.71,4.63,21.71,20.01v30.16c0,3.45,1.12,5.55,3.75,5.81l3.02,.29v3.46h0Zm-21.18-16.25v-15.23l-7.21,3.89c-5.09,2.75-8.61,6.26-8.61,13.54,0,4.05,2.13,7.13,6.25,7.13,2.43,0,5.23-1.18,7.14-3.23,1.79-1.91,2.43-3.42,2.43-6.1h0Z"/><path d="M585.22,65.44c0,26.11-13.61,41.49-40.54,41.49-5.62,0-13.45-.52-19.71-.52-5.13,0-10.68,.52-15.81,.52v-3.9l1.91-.14c5.4-.41,6.99-1.44,6.99-7.65V36.31c0-4.04-1.65-6.05-4.71-6.33l-4.93-.44v-3.83c6.12,0,14.41,.53,17.51,.52,8.77-.04,5.56-.52,17.08-.52,26.5,0,42.22,12.65,42.22,39.72h0Zm-17.29,1.11c0-27.22-10.18-36.49-23.25-36.49-4.32,0-8.53,.74-10.15,1.1V97.45c0,3.75,1.25,5.15,5.44,5.15h7.13c11.19,0,20.82-14.28,20.82-36.05h0Z"/><path d="M1020.43,90.16c0,10.88-9.57,18.02-22.96,18.02-9.86,0-14.78-1.99-17.57-1.99-.67,0-1.48,.14-1.85,.14v-19.05h3.6l.82,3.24c2.21,8.85,8.38,13.54,14.78,13.54,5.88,0,9.93-2.8,9.93-8.46,0-5.22-1.87-8.91-11.84-14.2l-3.62-1.92c-6.14-3.26-12.93-8.46-12.93-16.99s7.13-15.74,23.54-15.74c5.03,0,9.39,1.33,13.23,1.32,.6,0,1.19,0,1.77-.07v15.52h-3.89l-.51-3.24c-.77-4.85-5-9.27-10.96-9.27-5.38,0-9.35,2.5-9.35,7.36,0,5.21,4.85,7.9,10.52,11.11l4.56,2.57c6.26,3.54,12.74,9.02,12.74,18.1h0Z"/><path d="M979.15,51.68l-2.28,.3c-2.63,.34-4.23,1.72-6.02,7.58l-13.02,42.37c-.58,1.87-1.17,4.73-1.25,5.95h-9.56l-10.52-35.6h-.29l-9.26,30.09c-.56,1.8-1.11,4.16-1.11,5.52h-9.71l-14.35-49.06c-1.71-5.88-3.74-6.46-5.89-6.77l-2.59-.37v-3.6c4.95,0,10.52,.51,15.46,.51s8.99-.51,13.75-.51v3.6l-1.84,.3c-2.44,.39-3.53,1.41-3.53,3.9,0,.81,.23,1.9,.52,2.94l8.46,29.87h.14l7.57-25.46-1.25-4.42c-1.67-5.89-3.89-6.7-5.73-6.91l-1.92-.23v-3.6c4.6,0,9.82,.51,14.43,.51s9.46-.51,14.2-.51v3.6l-2.14,.3c-2.38,.33-3.6,1.47-3.6,3.61,0,.8,.34,2.34,.58,3.23l8.47,29.87h.14l8.61-28.99c.31-1.05,.59-2.56,.59-3.68,0-2.5-1.02-3.59-3.68-3.97l-2.58-.37v-3.6c3.71,0,6.66,.44,10.39,.44,2.93,0,5.86-.44,8.82-.44v3.6h0Z"/><path d="M849.31,29.48l-3.74,.73c-3.12,.61-5.23,2.43-5.23,8.24v62.6c0,3.09,.29,5.81,.59,7.06h-8.24l-38.99-64.51h-.29v50.54c0,5.75,2.07,7.75,5.21,8.24l4.28,.66v3.9c-4.41,0-8.77-.52-13.17-.52-3.84,0-7.65,.52-11.47,.52v-3.9l3.52-.59c3.15-.52,5.37-2.5,5.37-8.31V36.76c0-4.35-2.64-6.21-5.96-6.7l-3.01-.44v-3.61c4.14,0,11.06,.37,15.23,.37,3.38,0,7.06-.22,9.34-.37,.29,1.25,1.48,3.34,2.79,5.52l28.25,46.64h.22V38.45c0-5.76-2.1-7.62-5.22-8.24l-3.68-.73v-3.83c4.24,0,8.43,.51,12.65,.51,3.68,0,7.86-.51,11.55-.51v3.83h0Z"/><path d="M896.91,73.02c0,.6,0,1.4-.08,1.91h-35.09c0,18.61,6.3,25.15,15.37,25.15,7.06,0,11.21-2.49,16.33-6.25l1.47,4.56c-6.32,6.4-12.8,9.71-20.14,9.71-17.82,0-28.4-12.57-28.4-30.23,0-20.45,12.89-30.9,27.07-30.9,12.5,0,23.46,8.09,23.46,26.04h0Zm-14.5-2.42v-1.25c0-10.39-3.53-18.1-9.99-18.1-7.06,0-10.59,9.93-10.59,19.35h20.59Z"/></g></svg>