<?xml version="1.0" encoding="utf-8"?>
<!-- Generator: Adobe Illustrator 23.0.6, SVG Export Plug-In . SVG Version: 6.00 Build 0)  -->
<svg version="1.1" id="Layer_1" xmlns="http://www.w3.org/2000/svg" xmlns:xlink="http://www.w3.org/1999/xlink" x="0px" y="0px"
	 viewBox="0 0 500 65" style="enable-background:new 0 0 500 65;" xml:space="preserve">
<style type="text/css">
	.st0{fill:#FFFFFF;}
</style>
<title>DDN</title>
<path class="st0" d="M189.2,49.8c-2.7,0-5.2-0.2-7.9-0.2s-5.4,0.2-8,0.2v-2.1l1.5-0.1c1.9-0.2,2.3-1.5,2.3-3.9V26.7
	c0-3-1.2-5.7-4.8-5.7c-1.6,0.1-3.2,0.8-4.4,2c-1.1,0.8-1.7,2.1-1.7,3.4v17.4c0,2.4,0.5,3.7,2.3,3.9l1.5,0.1v2.1
	c-2.7,0-5.2-0.2-7.9-0.2s-5.4,0.2-8,0.2v-2.1l1.5-0.1c2-0.2,2.3-1.5,2.3-3.9V24.5c0-2.1-0.2-3-1.7-3.2l-2.4-0.2v-1.8l12.6-3.8
	l0.4,0.7c-0.4,0.8-0.6,1.8-0.6,2.7v2.3h0.1c1.2-1,1.9-1.5,3.5-2.7c1.8-1.6,4.2-2.5,6.6-2.7c5.7,0,8.9,3.9,8.9,9.5v18.1
	c0,2.4,0.5,3.7,2.3,3.9l1.5,0.1L189.2,49.8L189.2,49.8z"/>
<path class="st0" d="M124.4,46.3c-3.4,2.9-6,4.1-10.2,4.1c-5.5,0-7.7-2.7-7.7-8.2V18.4h-2.6c-1.5,0-2.1,0.6-3.5,4.3L86.3,57.1
	c-1.8,4.5-4.6,6.2-7.7,6.2s-5.1-1.7-5.1-4c0-2.2,1.7-3.9,3.9-4h0.2c2.3,0,3.4,2.3,4.5,2.3c0.7,0,1.1-0.6,1.6-1.6l2.3-5.8L75,22.4
	c-1.1-2.9-2-3.6-3.2-3.9l-1.5-0.2v-2.1c3,0,6,0.2,8.9,0.2s5.5-0.2,8.3-0.2v2.1l-1.5,0.2c-1.5,0.2-2.3,0.7-2.3,2.2
	c0,0.6,0.1,1.2,0.4,1.7l6.3,17.1L97,23c0.3-0.8,0.4-1.5,0.5-2.4c0-1.5-0.6-2.1-2.2-2.3l-1.5-0.1v-2c2.2,0,3.7,0.2,6,0.2
	c1,0,2.1-0.1,3-0.1l11.7-9.9l0.6,0.7c-0.5,0.9-0.7,2-0.7,3v6h8.6l-1,3.4l0,0c-1.5-0.4-3-0.6-4.5-0.5h-3v22.4c0,3,1.3,4.3,3.4,4.3
	c2.1-0.1,4.1-0.7,5.8-1.8L124.4,46.3L124.4,46.3z"/>
<path class="st0" d="M153.1,33c0,10.5-6,17.5-15.4,17.5c-8.8,0-15.1-7.1-15.1-17.4s6.3-17.5,15.2-17.5
	C146.6,15.6,153.1,22.2,153.1,33z M144.5,33.2c0-8.2-2-15.2-6.5-15.2s-6.4,7.1-6.4,14.7c0,8.8,2.4,15.5,6.4,15.5
	S144.5,41.3,144.5,33.2L144.5,33.2z"/>
<path class="st0" d="M73.8,49.8c-2.9,0-8.2,0.2-11,0.5c-0.4-1.6-0.6-3.2-0.7-4.8l0,0c-1.2,0.9-2.4,1.8-3.7,2.6
	c-2.2,1.6-4.8,2.4-7.5,2.4c-4.2,0-7-2.9-7-7.3c0-4.1,3-6.9,9.5-10.3l8-4.3v-1.5c0-4.3-2.4-6.7-6.5-6.7c-3,0-4.6,0.7-7.3,2.2l-1-2.4
	c3.9-2.9,7.3-4.6,10.6-4.6c7.3,0,12.4,2.7,12.4,11.4v17.2c0,2,0.6,3.2,2.2,3.3l1.7,0.1L73.8,49.8z M61.7,40.5v-8.7L57.5,34
	c-2.9,1.6-4.9,3.5-4.9,7.7c0,2.3,1.2,4,3.5,4c1.5,0,3-0.7,4-1.8C61.2,43.1,61.8,41.8,61.7,40.5L61.7,40.5z"/>
<path class="st0" d="M43.9,26.1c0,14.9-7.8,23.6-23.1,23.6c-3.2,0-7.7-0.2-11.2-0.2c-2.9,0-6.1,0.2-9,0.2v-2.2h1
	c3.1-0.2,3.9-0.8,3.9-4.4V9.4c0-2.3-0.9-3.4-2.7-3.7L0,5.6V3.4c3.5,0,8.2,0.3,10,0.3c5,0,3.2-0.2,9.8-0.2
	C34.8,3.4,43.9,10.6,43.9,26.1L43.9,26.1z M34,26.7c0-15.5-5.9-20.8-13.3-20.8c-2,0-3.9,0.2-5.9,0.6v37.9c0,2.2,0.7,2.9,3,2.9h4
	C28.5,47.3,34,39.1,34,26.7z"/>
<path class="st0" d="M348.4,18.2l-1.2,0.1c-1.5,0.1-2.1,0.7-3.5,4.4l-14.1,34.5c-1.8,4.4-4.6,6.2-7.5,6.2c-3.2,0-5.1-1.7-5.1-4
	c0-2.2,1.7-3.9,3.9-4h0.2c2.4,0,3.4,2.3,4.5,2.3c0.7,0,1.1-0.6,1.6-1.6l2.3-5.7l-11-27.9c-1.1-2.9-2-3.6-3.2-3.9l-1.5-0.2v-2.1
	c3,0,6,0.2,8.9,0.2s5.6-0.2,8.4-0.2v2.1l-1.5,0.2c-1.5,0.2-2.3,0.7-2.3,2.2c0,0.6,0.1,1.2,0.4,1.7l6.2,17.1l6.5-16.5
	c0.3-0.7,0.5-1.5,0.5-2.3c0-1.5-0.6-2.1-2.2-2.3l-1.5-0.1v-2c2.2,0,3.6,0.2,5.9,0.2c1,0,3.4-0.2,5.1-0.2L348.4,18.2L348.4,18.2z"/>
<path class="st0" d="M295.6,6.6c0,2.7-2.2,4.9-4.9,4.8c-2.7,0-4.9-2.2-4.8-4.9c0-2.7,2.2-4.8,4.9-4.8l0,0
	C293.4,1.7,295.6,3.9,295.6,6.6L295.6,6.6z"/>
<path class="st0" d="M315.4,49.8c-2.7,0-5.2-0.2-7.9-0.2s-5.4,0.2-8,0.2v-2.1l1.5-0.1c2-0.2,2.3-1.5,2.3-3.9V9c0-2.1-0.2-3-1.7-3.2
	l-2.4-0.1V3.9L311.9,0l0.4,0.7c-0.4,1-0.6,2.1-0.6,3.3v39.7c0,2.4,0.5,3.7,2.3,3.9l1.5,0.1V49.8z"/>
<path class="st0" d="M298.4,49.8c-2.7,0-5.2-0.2-7.9-0.2s-5.4,0.2-8,0.2v-2.1l1.5-0.1c2-0.2,2.3-1.5,2.3-3.9V24.6
	c0-2.1-0.2-3-1.7-3.2l-2.5-0.1v-1.8l12.7-3.9l0.4,0.9c-0.5,1-0.7,2.2-0.6,3.3v24.1c0,2.4,0.5,3.7,2.3,3.9l1.5,0.1v2H298.4z"/>
<path class="st0" d="M281.4,49.8c-2.9,0-8.2,0.2-11,0.5c-0.4-1.6-0.6-3.2-0.7-4.8h-0.1c-1.1,1-2.3,1.8-3.5,2.6
	c-2.2,1.6-4.8,2.4-7.4,2.4c-4.1,0-7-2.9-7-7.3c0-4.1,3.1-6.9,9.5-10.4l8.2-4.2v-1.5c0-4.3-2.4-6.7-6.5-6.7c-3,0-4.6,0.7-7.3,2.2
	l-1-2.4c3.8-2.9,7.2-4.6,10.5-4.6c7.3,0,12.4,2.7,12.4,11.4v17.2c0,2,0.6,3.2,2.2,3.3l1.7,0.1L281.4,49.8z M269.4,40.5v-8.7
	l-4.1,2.2c-2.9,1.6-4.9,3.5-4.9,7.7c0,2.3,1.2,4,3.5,4c1.5,0,3-0.7,4-1.8C269,43.1,269.5,41.7,269.4,40.5L269.4,40.5z"/>
<path class="st0" d="M251.6,26.1c0,14.9-7.8,23.6-23.1,23.6c-3.2,0-7.7-0.2-11.2-0.2c-2.9,0-6.1,0.2-9,0.2v-2.2l1.1-0.1
	c3-0.2,4-0.9,4-4.4V9.4c0-2.3-0.9-3.4-2.7-3.7l-2.8-0.2V3.4c3.5,0,8.2,0.2,10,0.2c5,0,3.2-0.2,9.8-0.2
	C242.6,3.4,251.5,10.6,251.6,26.1L251.6,26.1z M241.7,26.7c0-15.6-5.9-20.8-13.3-20.8c-2,0-3.9,0.2-5.8,0.6v37.9
	c0,2.2,0.7,2.9,3,2.9h4C236.1,47.3,241.7,39.1,241.7,26.7L241.7,26.7z"/>
<path class="st0" d="M500,40.2c0,6.2-5.5,10.3-13.2,10.3c-5.6,0-8.4-1.1-10-1.1c-0.4,0-0.9,0.1-1.1,0.1v-11h2l0.5,1.8
	c1.2,5,4.8,7.7,8.4,7.7c3.4,0,5.7-1.6,5.7-4.9c0-3-1.1-5.1-6.8-8.2l-2.1-1.1c-3.5-1.8-7.4-4.9-7.4-9.8s4-9,13.4-9
	c2.9,0,5.4,0.7,7.5,0.7h1v8.9h-2.2l-0.2-1.9c-0.5-3.1-3.1-5.3-6.2-5.2c-3,0-5.4,1.5-5.4,4.3s2.7,4.5,6,6.3l2.6,1.5
	C496.4,31.9,500.2,35.1,500,40.2L500,40.2z"/>
<path class="st0" d="M476.5,18.2l-1.3,0.1c-1.5,0.2-2.4,1-3.4,4.3l-7.4,24.2c-0.4,1.1-0.6,2.2-0.7,3.4h-5.5l-6-20.4H452L446.8,47
	c-0.4,1-0.6,2.1-0.6,3.2h-5.6l-8.2-28c-1-3.4-2.2-3.7-3.4-3.9l-1.5-0.2v-2c2.8,0,6,0.2,8.8,0.2s5.1-0.2,7.8-0.2v2l-1.1,0.1
	c-1.3,0.2-2.1,0.9-2.1,2.2c0,0.6,0.1,1.2,0.2,1.7l4.8,17.1h0.1l4.3-14.6l-0.7-2.6c-1-3.4-2.2-3.8-3.3-3.9l-1.1-0.1V16
	c2.7,0,5.6,0.2,8.2,0.2s5.4-0.2,8.2-0.2v2l-1.2,0.1c-1.3,0.2-2.1,0.9-2.1,2.1c0,0.6,0.1,1.2,0.4,1.8l4.9,17h0.1l5-16.5
	c0.2-0.7,0.4-1.4,0.4-2.1c0-1.5-0.6-2.1-2.1-2.3l-1.5-0.2v-2c2.1,0,3.8,0.2,6,0.2c1.7,0,3.3-0.2,5-0.2L476.5,18.2L476.5,18.2z"/>
<path class="st0" d="M402.3,5.6L400.1,6c-1.7,0.4-2.9,1.3-2.9,4.8v35.7c0,1.3,0.1,2.7,0.4,4h-4.6l-22.3-36.7h-0.1v28.8
	c0,3.3,1.2,4.4,3,4.8l2.5,0.4v2.2c-2.6,0-5-0.2-7.5-0.2c-2.2,0-4.4,0.2-6.6,0.2v-2.3l2.1-0.4c1.8-0.2,3-1.5,3-4.8V9.8
	c0.1-1.9-1.3-3.6-3.2-3.8h-0.2l-1.7-0.2V3.5c2.3,0,6.3,0.2,8.6,0.2c2,0,4-0.1,5.4-0.2c0.4,1.1,0.9,2.2,1.6,3.1l16.1,26.7h0.1V10.7
	c0-3.3-1.2-4.4-3-4.8l-2.1-0.4V3.4c2.4,0,4.8,0.2,7.2,0.2c2.1,0,4.5-0.2,6.6-0.2L402.3,5.6L402.3,5.6z"/>
<path class="st0" d="M429.6,30.5v1.1h-20c0,10.6,3.6,14.4,8.8,14.4c4,0,6.3-1.5,9.4-3.5l0.9,2.6c-3.6,3.7-7.3,5.5-11.5,5.5
	c-10.1,0-16.2-7.2-16.2-17.3c0-11.7,7.3-17.7,15.5-17.7C423.3,15.5,429.6,20.1,429.6,30.5L429.6,30.5z M421.3,29v-0.7
	c0-6-2.1-10.4-5.7-10.4c-4,0-6.1,5.7-6.1,11.1H421.3z"/>
</svg>
