<?xml version="1.0" encoding="utf-8"?>
<!-- Generator: Adobe Illustrator 26.0.3, SVG Export Plug-In . SVG Version: 6.00 Build 0)  -->
<svg version="1.1" xmlns="http://www.w3.org/2000/svg" xmlns:xlink="http://www.w3.org/1999/xlink" x="0px" y="0px"
	 viewBox="0 0 217 53" style="enable-background:new 0 0 217 53;" xml:space="preserve">
<g id="Layer_2">
</g>
<g id="Layer_1">
	<g>
		<g>
			<g>
				<path d="M207.9,43.6c-0.8,0-1.4,0.5-1.4,1.3c0,0.7,0.6,1.3,1.3,1.3c0.8,0,1.3-0.5,1.3-1.3C209.3,44.2,208.7,43.6,207.9,43.6z
					 M202,42.2c0.1-0.7,0.3-1,0.9-1c0.5,0,0.8,0.3,0.8,1H202z M206.1,43.4c0-0.2,0-0.4,0-0.5c0-1-0.4-2-1-2.5
					c-0.5-0.4-1.3-0.6-2.3-0.6c-2.3,0-3.4,1.1-3.4,3.3c0,2.1,1.1,3.1,3.3,3.1c1.7,0,2.7-0.5,3.1-1.7l-2.2-0.4
					c-0.1,0.5-0.4,0.8-0.8,0.8c-0.6,0-0.8-0.4-0.8-1.2v-0.2H206.1z M198.7,36.9h-2.5V46h2.5V36.9z M191.7,41.6c0.7,0,1,0.5,1,1.5
					c0,0.9-0.4,1.4-1,1.4c-0.6,0-1-0.5-1-1.4C190.7,42.1,191.1,41.6,191.7,41.6z M190.7,36.9h-2.5V46h2.2l0.3-0.5
					c0.7,0.5,1.1,0.7,1.8,0.7c1.8,0,2.9-1.3,2.9-3.3c0-1.1-0.3-2-0.9-2.5c-0.5-0.4-1.1-0.6-1.8-0.6c-0.8,0-1.3,0.2-1.9,0.7V36.9z
					 M183.6,41.6c0.7,0,1,0.5,1,1.4c0,1-0.3,1.4-1,1.4c-0.6,0-1-0.5-1-1.4C182.7,42.1,183,41.6,183.6,41.6z M187.2,39.9h-2.5v0.7
					c-0.4-0.7-0.8-0.9-1.7-0.9c-0.8,0-1.5,0.2-2,0.7c-0.6,0.6-0.9,1.4-0.9,2.6c0,2,1,3.2,2.7,3.2c0.4,0,0.8-0.1,1.1-0.2
					c0.3-0.1,0.5-0.2,0.8-0.6V46h2.5V39.9z M175.7,41.6c0.7,0,1,0.5,1,1.4c0,0.9-0.3,1.4-1,1.4c-0.6,0-1-0.5-1-1.4
					C174.7,42.1,175.1,41.6,175.7,41.6z M179.2,36.9h-2.5v3.6c-0.4-0.5-0.9-0.7-1.7-0.7c-0.8,0-1.5,0.2-2,0.7
					c-0.6,0.6-0.9,1.4-0.9,2.6c0,2,1,3.2,2.7,3.2c0.8,0,1.3-0.2,1.9-0.7V46h2.5V36.9z M167,39.9h-2.5V46h2.5v-2.7
					c0-1.1,0.2-1.5,1-1.5c0.3,0,0.5,0.1,0.7,0.3c0.1,0.2,0.2,0.4,0.2,1V46h2.5v-3.9c0-0.8-0.1-1.2-0.3-1.6c-0.4-0.5-1.1-0.8-1.9-0.8
					c-0.9,0-1.4,0.2-2.1,1V39.9z M159.6,42.2c0.1-0.7,0.3-1,0.9-1c0.5,0,0.8,0.3,0.8,1H159.6z M163.7,43.4c0-0.2,0-0.4,0-0.5
					c0-1-0.4-2-1-2.5c-0.5-0.4-1.3-0.6-2.3-0.6c-2.3,0-3.4,1.1-3.4,3.3c0,2.1,1.1,3.1,3.3,3.1c1.7,0,2.7-0.5,3.1-1.7l-2.2-0.4
					c-0.1,0.5-0.4,0.8-0.8,0.8c-0.6,0-0.8-0.4-0.8-1.2v-0.2H163.7z M152.9,41.6c0.7,0,1,0.5,1,1.5c0,0.9-0.4,1.4-1,1.4
					c-0.6,0-1-0.5-1-1.4C151.8,42.1,152.2,41.6,152.9,41.6z M151.8,39.9h-2.5v8.9h2.5v-3.3c0.7,0.5,1.1,0.7,1.8,0.7
					c1.8,0,2.9-1.3,2.9-3.3c0-2-1-3.2-2.8-3.2c-0.8,0-1.3,0.2-1.9,0.8V39.9z M144.5,42.2c0.1-0.7,0.3-1,0.9-1c0.5,0,0.8,0.3,0.8,1
					H144.5z M148.6,43.4c0-0.2,0-0.4,0-0.5c0-1-0.4-2-1-2.5c-0.5-0.4-1.3-0.6-2.3-0.6c-2.3,0-3.4,1.1-3.4,3.3c0,2.1,1.1,3.1,3.3,3.1
					c1.7,0,2.7-0.5,3.1-1.7l-2.2-0.4c-0.1,0.5-0.4,0.8-0.8,0.8c-0.6,0-0.8-0.4-0.8-1.2v-0.2H148.6z M135.9,39.4h0.6
					c0.6,0,0.9,0.1,1.2,0.2c0.5,0.3,0.9,1,0.9,1.9c0,0.8-0.2,1.6-0.7,2c-0.3,0.3-0.7,0.4-1.4,0.4h-0.6V39.4z M133.2,37.3V46h3.9
					c2.8,0,4.3-1.6,4.3-4.5c0-1.7-0.4-2.7-1.5-3.5c-0.7-0.5-1.7-0.8-2.6-0.8H133.2z M128.2,43.6c-0.8,0-1.4,0.5-1.4,1.3
					c0,0.7,0.6,1.3,1.3,1.3c0.8,0,1.3-0.5,1.3-1.3C129.5,44.2,128.9,43.6,128.2,43.6z M121.6,36.9h-2.5V46h2.5v-2.7
					c0-0.6,0-0.9,0.2-1.1c0.1-0.2,0.4-0.4,0.8-0.4c0.3,0,0.5,0.1,0.7,0.3c0.1,0.2,0.2,0.4,0.2,1V46h2.5v-3.9c0-0.8-0.1-1.2-0.3-1.6
					c-0.4-0.5-1.1-0.8-1.9-0.8c-0.9,0-1.4,0.2-2.1,1V36.9z M116.9,37.6l-2.5,0.8v1.5h-0.8v1.9h0.8v1.4c0,0.9,0.1,1.4,0.3,1.8
					c0.3,0.7,1,1,2.1,1h0.7h0.5l0.5-2c-0.5,0-0.8-0.1-1.1-0.2c-0.3-0.2-0.4-0.5-0.4-1.1v-0.8h1.3v-1.9h-1.3V37.6z M109.6,41.6
					c0.7,0,1,0.5,1,1.5c0,0.9-0.4,1.4-1,1.4c-0.6,0-1-0.5-1-1.4C108.6,42.1,109,41.6,109.6,41.6z M108.6,39.9h-2.5v8.9h2.5v-3.3
					c0.7,0.5,1.1,0.7,1.8,0.7c1.8,0,2.9-1.3,2.9-3.3c0-2-1-3.2-2.8-3.2c-0.8,0-1.3,0.2-1.9,0.8V39.9z M101.2,42.2
					c0.1-0.7,0.3-1,0.9-1c0.5,0,0.8,0.3,0.8,1H101.2z M105.3,43.4c0-0.2,0-0.4,0-0.5c0-1-0.4-2-1-2.5c-0.5-0.4-1.3-0.6-2.3-0.6
					c-2.3,0-3.4,1.1-3.4,3.3c0,2.1,1.1,3.1,3.3,3.1c1.7,0,2.7-0.5,3.1-1.7l-2.2-0.4c-0.1,0.5-0.4,0.8-0.8,0.8
					c-0.6,0-0.8-0.4-0.8-1.2v-0.2H105.3z M92.6,39.4h0.6c0.6,0,0.9,0.1,1.2,0.2c0.5,0.3,0.9,1,0.9,1.9c0,0.8-0.2,1.6-0.7,2
					c-0.3,0.3-0.7,0.4-1.4,0.4h-0.6V39.4z M89.9,37.3V46h3.9c2.8,0,4.3-1.6,4.3-4.5c0-1.7-0.4-2.7-1.5-3.5C96,37.6,95,37.3,94,37.3
					H89.9z M85.1,42v1.6h3.6V42H85.1z M79.7,39.9h-2.5V46h2.5v-2.7c0-1.1,0.2-1.5,1-1.5c0.3,0,0.5,0.1,0.7,0.3
					c0.1,0.2,0.2,0.4,0.2,1V46H84v-3.9c0-0.8-0.1-1.2-0.3-1.6c-0.4-0.5-1.1-0.8-1.9-0.8c-0.9,0-1.4,0.2-2.1,1V39.9z M76,37.3h-2.7
					V46H76V37.3z M68.3,43.6c-0.8,0-1.4,0.5-1.4,1.3c0,0.7,0.6,1.3,1.3,1.3c0.8,0,1.3-0.5,1.3-1.3C69.6,44.2,69.1,43.6,68.3,43.6z
					 M62.3,42.2c0.1-0.7,0.3-1,0.9-1c0.5,0,0.8,0.3,0.8,1H62.3z M66.4,43.4c0-0.2,0-0.4,0-0.5c0-1-0.4-2-1-2.5
					c-0.5-0.4-1.3-0.6-2.3-0.6c-2.3,0-3.4,1.1-3.4,3.3c0,2.1,1.1,3.1,3.3,3.1c1.7,0,2.7-0.5,3.1-1.7L64,44c-0.1,0.5-0.4,0.8-0.8,0.8
					c-0.6,0-0.8-0.4-0.8-1.2v-0.2H66.4z M57.9,37.6l-2.5,0.8v1.5h-0.8v1.9h0.8v1.4c0,0.9,0.1,1.4,0.3,1.8c0.3,0.7,1,1,2.1,1h0.7H59
					l0.5-2c-0.5,0-0.8-0.1-1.1-0.2c-0.3-0.2-0.4-0.5-0.4-1.1v-0.8h1.3v-1.9h-1.3V37.6z M50.1,42.2c0.1-0.7,0.3-1,0.9-1
					c0.5,0,0.8,0.3,0.8,1H50.1z M54.2,43.4c0-0.2,0-0.4,0-0.5c0-1-0.4-2-1-2.5C52.8,40,52,39.8,51,39.8c-2.3,0-3.4,1.1-3.4,3.3
					c0,2.1,1.1,3.1,3.3,3.1c1.7,0,2.7-0.5,3.1-1.7L51.8,44c-0.1,0.5-0.4,0.8-0.8,0.8c-0.6,0-0.8-0.4-0.8-1.2v-0.2H54.2z M46.8,36.9
					h-2.5V46h2.5V36.9z M39.9,41.6c0.7,0,1,0.5,1,1.5c0,0.9-0.4,1.4-1,1.4c-0.6,0-1-0.5-1-1.4C38.8,42.1,39.2,41.6,39.9,41.6z
					 M38.8,39.9h-2.5v8.9h2.5v-3.3c0.7,0.5,1.1,0.7,1.8,0.7c1.8,0,2.9-1.3,2.9-3.3c0-2-1-3.2-2.8-3.2c-0.8,0-1.3,0.2-1.9,0.8V39.9z
					 M24.7,39.9V46h2.5v-2.7c0-1.1,0.2-1.5,0.8-1.5c0.5,0,0.7,0.4,0.7,1.2v3h2.5v-2.9c0-0.9,0.2-1.3,0.8-1.3c0.5,0,0.7,0.3,0.7,1.1
					v3h2.5v-4c0-0.6-0.1-1.2-0.4-1.5c-0.4-0.5-1-0.8-1.8-0.8c-0.9,0-1.4,0.2-2.1,0.9c-0.5-0.7-1-0.9-1.9-0.9c-0.8,0-1.3,0.2-1.9,0.9
					v-0.7H24.7z M20.3,41.5c0.6,0,1,0.5,1,1.5c0,0.9-0.4,1.4-1,1.4c-0.6,0-1-0.5-1-1.4C19.3,42.1,19.7,41.5,20.3,41.5z M20.4,39.8
					c-1.4,0-2.2,0.2-2.8,0.7c-0.7,0.5-1,1.4-1,2.6c0,1.2,0.4,2.1,1,2.6c0.5,0.4,1.3,0.5,2.4,0.5c1.4,0,2.3-0.2,2.9-0.7
					c0.6-0.6,1-1.5,1-2.6c0-1.1-0.4-2-1-2.5C22.4,40,21.6,39.8,20.4,39.8z M16.3,39.8c-0.3-2-1.3-2.7-3.6-2.7
					c-1.5,0-2.5,0.3-3.4,1.1c-1,0.9-1.3,1.9-1.3,3.5c0,3.1,1.5,4.5,4.5,4.5c1.1,0,1.9-0.2,2.5-0.7c0.7-0.5,1-1,1.2-2l-2.5-0.9
					c-0.1,0.5-0.2,0.8-0.4,1c-0.2,0.3-0.6,0.5-1,0.5c-1,0-1.5-0.9-1.5-2.4c0-0.8,0.2-1.6,0.5-2.1c0.2-0.3,0.6-0.5,1.1-0.5
					c0.4,0,0.8,0.1,1,0.4c0.2,0.2,0.3,0.5,0.4,1.1L16.3,39.8z"/>
			</g>
		</g>
		<g>
			<g>
				<g>
					<path d="M82.8,25.2c-1.1,0-2.1-0.1-3.2-0.1c-1.1,0-2.2,0.1-3.2,0.1v-0.8l0.6-0.1c0.8-0.1,0.9-0.6,0.9-1.6v-6.9
						c0-1.2-0.5-2.3-1.9-2.3c-0.6,0-1.3,0.4-1.8,0.8c-0.5,0.4-0.7,0.8-0.7,1.4v7c0,1,0.2,1.5,0.9,1.6l0.6,0.1v0.8
						c-1.1,0-2.1-0.1-3.2-0.1c-1.1,0-2.2,0.1-3.2,0.1v-0.8l0.6-0.1c0.8-0.1,0.9-0.6,0.9-1.6V15c0-0.8-0.1-1.2-0.7-1.3l-1-0.1V13
						l5.1-1.5l0.2,0.3c-0.1,0.3-0.2,0.7-0.2,1.1v0.9h0.1c0.5-0.4,0.8-0.6,1.4-1.1c0.7-0.5,1.5-1.1,2.7-1.1c2.3,0,3.6,1.6,3.6,3.8
						v7.3c0,1,0.2,1.5,0.9,1.6l0.6,0.1V25.2L82.8,25.2z"/>
					<path d="M56.7,23.8c-1.4,1.2-2.4,1.7-4.1,1.7c-2.2,0-3.1-1.1-3.1-3.3v-9.6h-1c-0.6,0-0.8,0.3-1.4,1.7l-5.7,13.8
						c-0.7,1.8-1.8,2.5-3.1,2.5c-1.2,0-2-0.7-2-1.6c0-1,0.8-1.6,1.7-1.6c0.9,0,1.4,0.9,1.8,0.9c0.3,0,0.5-0.2,0.6-0.6l0.9-2.3
						L37,14.2c-0.5-1.2-0.8-1.5-1.3-1.6l-0.6-0.1v-0.8c1.2,0,2.4,0.1,3.6,0.1c1.1,0,2.2-0.1,3.3-0.1v0.8l-0.6,0.1
						c-0.6,0.1-0.9,0.3-0.9,0.9c0,0.2,0.1,0.5,0.1,0.7l2.5,6.9l2.6-6.6c0.1-0.2,0.2-0.7,0.2-0.9c0-0.6-0.2-0.8-0.9-0.9l-0.6-0.1
						v-0.8c0.9,0,1.5,0.1,2.4,0.1c0.4,0,0.8,0,1.2-0.1c0.7-0.6,4.7-4,4.7-4l0.2,0.3c-0.1,0.2-0.3,0.6-0.3,1.2v0.5v1.9h3.5l-0.4,1.4
						h0c-0.2-0.1-0.9-0.2-1.8-0.2h-1.2v9c0,1.2,0.5,1.7,1.4,1.7c0.9,0,2.1-0.6,2.3-0.7L56.7,23.8L56.7,23.8z"/>
					<path d="M68.3,18.5c0,4.2-2.4,7-6.2,7c-3.6,0-6.1-2.8-6.1-7c0-4.1,2.5-7,6.1-7C65.7,11.5,68.3,14.1,68.3,18.5L68.3,18.5z
						 M64.8,18.5c0-3.3-0.8-6.1-2.6-6.1c-1.8,0-2.6,2.9-2.6,5.9c0,3.5,1,6.2,2.6,6.2C63.8,24.6,64.8,21.8,64.8,18.5L64.8,18.5z"/>
					<path d="M36.4,25.2c-1.2,0-3.3,0.1-4.4,0.2c-0.1-0.6-0.3-1.3-0.3-1.9h0c-0.3,0.3-0.7,0.6-1.4,1c-0.7,0.5-1.7,1-3,1
						c-1.7,0-2.8-1.2-2.8-2.9c0-1.7,1.2-2.8,3.8-4.2l3.2-1.7v-0.6c0-1.7-1-2.7-2.6-2.7c-1.2,0-1.9,0.3-2.9,0.9l-0.4-1
						c1.5-1.2,2.9-1.8,4.2-1.8c2.9,0,5,1.1,5,4.6V23c0,0.8,0.3,1.3,0.9,1.3l0.7,0.1V25.2L36.4,25.2z M31.5,21.5V18l-1.7,0.9
						c-1.2,0.6-2,1.4-2,3.1c0,0.9,0.5,1.6,1.4,1.6c0.6,0,1.2-0.3,1.6-0.7C31.4,22.4,31.5,22.1,31.5,21.5L31.5,21.5z"/>
					<path d="M24.4,15.7c0,6-3.1,9.5-9.3,9.5c-1.3,0-3.1-0.1-4.5-0.1c-1.2,0-2.5,0.1-3.6,0.1v-0.9l0.4,0c1.2-0.1,1.6-0.3,1.6-1.8V9
						c0-0.9-0.4-1.4-1.1-1.5L6.7,7.4V6.6c1.4,0,3.3,0.1,4,0.1c2,0,1.3-0.1,3.9-0.1C20.8,6.6,24.4,9.5,24.4,15.7L24.4,15.7z
						 M20.4,15.9c0-6.3-2.3-8.4-5.3-8.4c-1,0-2,0.2-2.3,0.3V23c0,0.9,0.3,1.2,1.2,1.2h1.6C18.2,24.2,20.4,20.9,20.4,15.9L20.4,15.9z
						"/>
					<path d="M146.9,12.5l-0.5,0c-0.6,0-0.8,0.3-1.4,1.8l-5.7,13.8c-0.7,1.8-1.9,2.5-3.1,2.5c-1.3,0-2.1-0.7-2.1-1.6
						c0-1,0.8-1.6,1.7-1.6c1,0,1.3,0.9,1.8,0.9c0.3,0,0.5-0.2,0.6-0.6l0.9-2.3l-4.4-11.2c-0.5-1.2-0.8-1.5-1.3-1.6l-0.6-0.1v-0.8
						c1.2,0,2.4,0.1,3.6,0.1c1.1,0,2.3-0.1,3.4-0.1v0.8l-0.6,0.1c-0.6,0.1-0.9,0.3-0.9,0.9c0,0.2,0.1,0.5,0.1,0.7l2.5,6.9l2.6-6.6
						c0.1-0.2,0.2-0.7,0.2-0.9c0-0.6-0.3-0.8-0.9-0.9l-0.6-0.1v-0.8c0.9,0,1.4,0.1,2.3,0.1c0.4,0,1.4-0.1,2.1-0.1V12.5L146.9,12.5z"
						/>
					<path d="M125.6,7.8c0,1.1-0.9,1.9-1.9,1.9c-1.1,0-1.9-0.9-1.9-1.9c0-1.1,0.9-1.9,1.9-1.9C124.7,5.9,125.6,6.8,125.6,7.8
						L125.6,7.8z"/>
					<path d="M133.6,25.2c-1.1,0-2.1-0.1-3.2-0.1c-1.1,0-2.2,0.1-3.2,0.1v-0.8l0.6-0.1c0.8-0.1,0.9-0.6,0.9-1.6v-2.1V8.8
						c0-0.8-0.1-1.2-0.7-1.3l-1-0.1V6.7l5.1-1.6l0.1,0.3c-0.1,0.2-0.2,0.6-0.2,1.3v13.8v2.1c0,1,0.2,1.5,0.9,1.6l0.6,0.1V25.2
						L133.6,25.2z"/>
					<path d="M126.7,25.2c-1.1,0-2.1-0.1-3.2-0.1c-1.1,0-2.2,0.1-3.2,0.1v-0.8l0.6-0.1c0.8-0.1,0.9-0.6,0.9-1.6v-2.1v-5.6
						c0-0.8-0.1-1.2-0.7-1.3l-1-0.1V13l5.1-1.6l0.1,0.3c-0.1,0.2-0.2,0.6-0.2,1.3v7.6v2.1c0,1,0.2,1.5,0.9,1.6l0.6,0.1V25.2
						L126.7,25.2z"/>
					<path d="M119.9,25.2c-1.2,0-3.3,0.1-4.4,0.2c-0.1-0.6-0.3-1.3-0.3-1.9h0c-0.3,0.3-0.7,0.6-1.4,1c-0.7,0.5-1.7,1-3,1
						c-1.7,0-2.8-1.2-2.8-2.9c0-1.7,1.2-2.8,3.8-4.2l3.2-1.7v-0.6c0-1.7-1-2.7-2.6-2.7c-1.2,0-1.9,0.3-2.9,0.9l-0.4-1
						c1.5-1.2,2.9-1.8,4.2-1.8c2.9,0,5,1.1,5,4.6V23c0,0.8,0.3,1.3,0.9,1.3l0.7,0.1V25.2L119.9,25.2z M115.1,21.5V18l-1.7,0.9
						c-1.2,0.6-2,1.4-2,3.1c0,0.9,0.5,1.6,1.4,1.6c0.6,0,1.2-0.3,1.6-0.7C114.9,22.4,115.1,22.1,115.1,21.5L115.1,21.5z"/>
					<path d="M107.9,15.7c0,6-3.1,9.5-9.3,9.5c-1.3,0-3.1-0.1-4.5-0.1c-1.2,0-2.5,0.1-3.6,0.1v-0.9l0.4,0c1.2-0.1,1.6-0.3,1.6-1.8V9
						c0-0.9-0.4-1.4-1.1-1.5l-1.1-0.1V6.6c1.4,0,3.3,0.1,4,0.1c2,0,1.3-0.1,3.9-0.1C104.3,6.6,107.9,9.5,107.9,15.7L107.9,15.7z
						 M103.9,15.9c0-6.3-2.3-8.4-5.3-8.4c-1,0-2,0.2-2.3,0.3V23c0,0.9,0.3,1.2,1.2,1.2h1.6C101.7,24.2,103.9,20.9,103.9,15.9
						L103.9,15.9z"/>
					<path d="M207.8,21.4c0,2.5-2.2,4.1-5.3,4.1c-2.3,0-3.4-0.5-4-0.5c-0.2,0-0.3,0-0.4,0v-4.4h0.8l0.2,0.7c0.5,2,1.9,3.1,3.4,3.1
						c1.3,0,2.3-0.6,2.3-1.9c0-1.2-0.4-2-2.7-3.3l-0.8-0.4c-1.4-0.7-3-1.9-3-3.9c0-2,1.6-3.6,5.4-3.6c1.2,0,2.2,0.3,3,0.3
						c0.1,0,0.3,0,0.4,0v3.6h-0.9l-0.1-0.7c-0.2-1.1-1.1-2.1-2.5-2.1c-1.2,0-2.1,0.6-2.1,1.7c0,1.2,1.1,1.8,2.4,2.6l1,0.6
						C206.3,18,207.8,19.3,207.8,21.4L207.8,21.4z"/>
					<path d="M198.3,12.5l-0.5,0.1c-0.6,0.1-1,0.4-1.4,1.7l-3,9.7c-0.1,0.4-0.3,1.1-0.3,1.4H191l-2.4-8.2h-0.1l-2.1,6.9
						c-0.1,0.4-0.3,1-0.3,1.3h-2.2l-3.3-11.3c-0.4-1.4-0.9-1.5-1.4-1.6l-0.6-0.1v-0.8c1.1,0,2.4,0.1,3.5,0.1c1.1,0,2.1-0.1,3.2-0.1
						v0.8l-0.4,0.1c-0.6,0.1-0.8,0.3-0.8,0.9c0,0.2,0.1,0.4,0.1,0.7l1.9,6.9h0l1.7-5.8l-0.3-1c-0.4-1.4-0.9-1.5-1.3-1.6l-0.4-0.1
						v-0.8c1.1,0,2.3,0.1,3.3,0.1c1.1,0,2.2-0.1,3.3-0.1v0.8l-0.5,0.1c-0.5,0.1-0.8,0.3-0.8,0.8c0,0.2,0.1,0.5,0.1,0.7l1.9,6.9h0
						l2-6.7c0.1-0.2,0.1-0.6,0.1-0.8c0-0.6-0.2-0.8-0.8-0.9l-0.6-0.1v-0.8c0.9,0,1.5,0.1,2.4,0.1c0.7,0,1.3-0.1,2-0.1V12.5
						L198.3,12.5z"/>
					<path d="M168.5,7.4l-0.9,0.2c-0.7,0.1-1.2,0.6-1.2,1.9v14.4c0,0.7,0.1,1.3,0.1,1.6h-1.9l-9-14.8h-0.1v11.6
						c0,1.3,0.5,1.8,1.2,1.9l1,0.2v0.9c-1,0-2-0.1-3-0.1c-0.9,0-1.8,0.1-2.6,0.1v-0.9l0.8-0.1c0.7-0.1,1.2-0.6,1.2-1.9V9.1
						c0-1-0.6-1.4-1.4-1.5l-0.7-0.1V6.6c1,0,2.5,0.1,3.5,0.1c0.8,0,1.6-0.1,2.1-0.1c0.1,0.3,0.3,0.8,0.6,1.3l6.5,10.7h0.1V9.5
						c0-1.3-0.5-1.7-1.2-1.9L163,7.4V6.5c1,0,1.9,0.1,2.9,0.1c0.8,0,1.8-0.1,2.7-0.1V7.4L168.5,7.4z"/>
					<path d="M179.5,17.4c0,0.1,0,0.3,0,0.4h-8.1c0,4.3,1.4,5.8,3.5,5.8c1.6,0,2.6-0.6,3.7-1.4l0.3,1c-1.5,1.5-2.9,2.2-4.6,2.2
						c-4.1,0-6.5-2.9-6.5-6.9c0-4.7,3-7.1,6.2-7.1C176.9,11.4,179.5,13.3,179.5,17.4L179.5,17.4z M176.1,16.9c0,0,0-0.2,0-0.3
						c0-2.4-0.8-4.2-2.3-4.2c-1.6,0-2.4,2.3-2.4,4.4H176.1L176.1,16.9z"/>
				</g>
			</g>
		</g>
	</g>
</g>
</svg>
