<?xml version="1.0" encoding="utf-8"?>
<!-- Generator: Adobe Illustrator 23.0.1, SVG Export Plug-In . SVG Version: 6.00 Build 0)  -->
<svg version="1.1" id="Layer_1" xmlns="http://www.w3.org/2000/svg" xmlns:xlink="http://www.w3.org/1999/xlink" x="0px" y="0px"
	 viewBox="90 0 510 68" style="enable-background:new 0 0 597 68;" xml:space="preserve">
<style type="text/css">
	.st0{fill:#fff;}
</style>
<path class="st0" d="M282.7,51.3c-2.6,0-5.3-0.3-7.9-0.3s-5.4,0.3-8,0.3v-2.1l1.5-0.2c1.9-0.2,2.4-1.4,2.4-3.9v-17
	c0-3-1.3-5.8-4.7-5.8c-1.7,0.1-3.2,0.8-4.4,2c-1.1,0.8-1.7,2.1-1.7,3.4v17.4c0,2.5,0.4,3.7,2.4,3.9l1.5,0.2v2.1
	c-2.6,0-5.3-0.3-7.9-0.3c-2.6,0-5.4,0.3-8,0.3v-2.1l1.5-0.2c1.9-0.2,2.4-1.4,2.4-3.9V26c0-2-0.3-3.1-1.7-3.1l-2.4-0.2v-1.8l12.6-3.8
	l0.4,0.7c-0.4,0.9-0.6,1.8-0.6,2.8V23h0.1c1.2-1,1.9-1.5,3.5-2.7c1.8-1.6,4.1-2.6,6.5-2.7c5.8,0,8.9,3.9,8.9,9.5v18.2
	c0,2.5,0.5,3.7,2.4,3.9l1.5,0.2L282.7,51.3L282.7,51.3z"/>
<path class="st0" d="M217.7,47.8c-3.4,2.9-6,4.2-10.3,4.2c-5.4,0-7.7-2.7-7.7-8.2V19.9h-2.5c-1.4,0-2,0.6-3.5,4.3l-14.1,34.5
	c-1.8,4.4-4.5,6.2-7.6,6.2s-5.1-1.7-5.1-4c0-2.2,1.7-4,3.9-4.1c0.1,0,0.2,0,0.3,0c2.4,0,3.4,2.3,4.5,2.3c0.7,0,1.2-0.6,1.6-1.5
	l2.3-5.7l-10.9-28c-1.1-2.9-2-3.7-3.2-3.9l-1.4-0.2v-2.1c3,0,6,0.3,8.9,0.3c2.8,0,5.5-0.3,8.3-0.3v2.1l-1.5,0.2
	c-1.5,0.2-2.4,0.8-2.4,2.2c0,0.6,0.1,1.1,0.3,1.7l6.2,17.1l6.6-16.5c0.3-0.7,0.4-1.5,0.5-2.3c0-1.4-0.6-2.1-2.1-2.3l-1.5-0.2v-2.1
	c2.2,0,3.7,0.2,5.9,0.2c1,0,2.1-0.1,3.1-0.2l11.8-9.8l0.6,0.8c-0.5,0.9-0.7,2-0.7,3v6h8.7l-1.1,3.4h-0.1c-1.5-0.4-3-0.6-4.5-0.5h-3
	v22.4c0,3.1,1.3,4.2,3.4,4.2c2-0.2,4-0.8,5.8-1.8L217.7,47.8z"/>
<path class="st0" d="M246.6,34.5c0,10.5-5.9,17.5-15.4,17.5c-8.8,0-15.1-7.1-15.1-17.4s6.3-17.5,15.2-17.5
	C240,17.1,246.6,23.7,246.6,34.5 M237.9,34.7c0-8.1-2-15.2-6.5-15.2s-6.5,7.1-6.5,14.7c0,8.8,2.5,15.5,6.4,15.5
	S237.9,42.8,237.9,34.7"/>
<path class="st0" d="M167.2,51.3c-2.9,0-8.1,0.3-10.9,0.5c-0.4-1.5-0.6-3.1-0.8-4.7h-0.1c-1.1,0.9-2.3,1.8-3.6,2.6
	c-2.2,1.6-4.8,2.4-7.5,2.4c-4.2,0-6.9-3-6.9-7.3c0-4.1,3-6.9,9.5-10.4l8.1-4.3v-1.5c0-4.2-2.5-6.7-6.4-6.7c-3,0-4.7,0.7-7.3,2.1
	l-1-2.4c3.8-2.9,7.2-4.6,10.5-4.6c7.3,0,12.4,2.6,12.4,11.4v17.2c0,2,0.6,3.2,2.1,3.3l1.7,0.2L167.2,51.3L167.2,51.3z M155.1,42
	v-8.7l-4.1,2.2c-2.9,1.6-4.9,3.6-4.9,7.7c0,2.3,1.2,4.1,3.6,4.1c1.5,0,3-0.7,4.1-1.8C154.7,44.6,155.2,43.3,155.1,42"/>
<path class="st0" d="M137.2,27.6c0,14.9-7.8,23.7-23.2,23.7c-3.2,0-7.7-0.3-11.3-0.3c-2.9,0-6.1,0.3-9,0.3v-2.2l1.1-0.1
	c3.1-0.2,4-0.8,4-4.4V10.9c0-2.3-1-3.4-2.7-3.6l-2.8-0.2V4.9c3.5,0,8.2,0.3,10,0.3c5,0,3.2-0.3,9.8-0.3
	C128.2,4.9,137.2,12.1,137.2,27.6 M127.4,28.2c0-15.6-5.8-20.8-13.3-20.8c-1.9,0-3.9,0.2-5.8,0.6v37.9c0,2.2,0.7,2.9,3.1,2.9h4.1
	C121.9,48.8,127.4,40.7,127.4,28.2"/>
<path class="st0" d="M441.9,19.7l-1.2,0.1c-1.4,0.1-2,0.8-3.5,4.4l-14.1,34.5c-1.8,4.4-4.7,6.2-7.6,6.2c-3.1,0-5.1-1.7-5.1-4
	c0-2.2,1.7-4,3.9-4.1c0.1,0,0.2,0,0.3,0c2.4,0,3.4,2.3,4.5,2.3c0.7,0,1.2-0.6,1.5-1.5l2.3-5.7l-10.9-28c-1.1-2.9-2-3.7-3.2-3.9
	l-1.5-0.2v-2.1c3,0,6,0.3,9,0.3c2.8,0,5.6-0.3,8.4-0.3v2.1l-1.5,0.2c-1.5,0.2-2.4,0.8-2.4,2.2c0,0.6,0.1,1.1,0.3,1.7l6.3,17.1
	l6.5-16.5c0.3-0.7,0.4-1.5,0.5-2.3c0-1.4-0.6-2.1-2.1-2.3l-1.5-0.2v-2.1c2.2,0,3.6,0.2,5.8,0.2c1,0,3.4-0.2,5.2-0.2L441.9,19.7
	L441.9,19.7z"/>
<path class="st0" d="M408.9,51.4c-2.6,0-5.3-0.3-7.9-0.3s-5.4,0.3-8,0.3v-2l1.5-0.2c1.9-0.2,2.4-1.4,2.4-3.9V10.5
	c0-2-0.3-3.1-1.7-3.2l-2.4-0.2V5.4l12.5-3.9l0.3,0.8c-0.4,1-0.6,2.1-0.6,3.2v39.7c0,2.5,0.5,3.7,2.4,3.9l1.5,0.2L408.9,51.4
	L408.9,51.4z"/>
<path class="st0" d="M391.8,51.4c-2.6,0-5.3-0.3-7.9-0.3s-5.4,0.3-8,0.3v-2l1.5-0.2c1.9-0.2,2.4-1.4,2.4-3.9V26.1
	c0-2-0.3-3.1-1.7-3.1l-2.4-0.2V21l12.7-3.9l0.3,0.8c-0.4,1-0.6,2.1-0.6,3.2v24.2c0,2.5,0.5,3.7,2.4,3.9l1.5,0.2L391.8,51.4
	L391.8,51.4z"/>
<path class="st0" d="M374.9,51.3c-2.9,0-8.1,0.3-10.9,0.5c-0.4-1.5-0.6-3.1-0.8-4.7h-0.1c-1.1,0.9-2.3,1.8-3.6,2.6
	c-2.2,1.6-4.8,2.4-7.5,2.4c-4.2,0-6.9-3-6.9-7.3c0-4.1,3-6.9,9.5-10.4l8.1-4.3v-1.5c0-4.2-2.5-6.7-6.4-6.7c-3,0-4.7,0.7-7.3,2.1
	l-1-2.4c3.8-2.9,7.2-4.6,10.5-4.6c7.3,0,12.4,2.6,12.4,11.4v17.2c0,2,0.6,3.2,2.1,3.3l1.7,0.2L374.9,51.3L374.9,51.3z M362.8,42
	v-8.7l-4.1,2.2c-2.9,1.6-4.9,3.6-4.9,7.7c0,2.3,1.2,4.1,3.6,4.1c1.5,0,3-0.7,4.1-1.8C362.4,44.6,362.9,43.3,362.8,42"/>
<path class="st0" d="M345,27.6c0,14.9-7.8,23.7-23.1,23.7c-3.2,0-7.7-0.3-11.3-0.3c-2.9,0-6.1,0.3-9,0.3v-2.2l1.1-0.1
	c3.1-0.2,4-0.8,4-4.4V10.9c0-2.3-0.9-3.4-2.7-3.6l-2.8-0.2V4.9c3.5,0,8.2,0.3,10,0.3c5,0,3.2-0.3,9.8-0.3C336,4.9,345,12.1,345,27.6
	 M335.1,28.2c0-15.6-5.8-20.8-13.3-20.8c-1.9,0-3.9,0.2-5.8,0.6v37.9c0,2.2,0.7,2.9,3.1,2.9h4.1C329.6,48.8,335.1,40.7,335.1,28.2"
	/>
<path class="st0" d="M593.6,41.7c0,6.2-5.5,10.3-13.1,10.3c-5.6,0-8.5-1.1-10-1.1c-0.4,0-0.8,0.1-1.1,0.1V40.1h2.1l0.5,1.8
	c1.3,5.1,4.8,7.7,8.4,7.7c3.4,0,5.7-1.6,5.7-4.8c0-3-1.1-5.1-6.8-8.1l-2.1-1.1c-3.5-1.9-7.4-4.8-7.4-9.7s4.1-9,13.4-9
	c2.9,0,5.4,0.8,7.6,0.8c0.3,0,0.7,0,1,0v8.8h-2.2l-0.3-1.9c-0.5-3.1-3.2-5.3-6.3-5.3s-5.3,1.4-5.3,4.2c0,3,2.8,4.5,6,6.3l2.6,1.5
	C589.9,33.4,593.6,36.5,593.6,41.7"/>
<path class="st0" d="M570,19.7l-1.3,0.2c-1.5,0.2-2.4,1-3.4,4.3l-7.4,24.2c-0.3,1.1-0.6,2.2-0.7,3.4h-5.5l-6-20.3h-0.2l-5.3,17.2
	c-0.3,1-0.6,2.1-0.6,3.2h-5.5l-8.2-28c-1-3.4-2.1-3.7-3.4-3.9l-1.5-0.2v-2c2.8,0,6,0.3,8.8,0.3s5.1-0.3,7.8-0.3v2l-1,0.2
	c-1.4,0.2-2,0.8-2,2.2c0,0.6,0.1,1.1,0.3,1.7l4.8,17.1h0.1l4.3-14.5l-0.7-2.5c-1-3.4-2.2-3.8-3.3-4l-1.1-0.1v-2
	c2.6,0,5.6,0.3,8.2,0.3s5.4-0.3,8.1-0.3v2l-1.2,0.2c-1.4,0.2-2.1,0.8-2.1,2.1c0,0.6,0.2,1.2,0.3,1.8l4.8,17.1h0.1l4.9-16.5
	c0.2-0.7,0.3-1.4,0.3-2.1c0-1.4-0.6-2-2.1-2.3l-1.5-0.2v-2c2.1,0,3.8,0.2,5.9,0.2c1.7,0,3.3-0.2,5-0.2L570,19.7L570,19.7z"/>
<path class="st0" d="M495.8,7.1l-2.1,0.4c-1.8,0.3-3,1.4-3,4.7v35.7c0,1.3,0.1,2.7,0.3,4h-4.7l-22.2-36.8h-0.2V44
	c0,3.3,1.2,4.4,3,4.7l2.4,0.4v2.2c-2.5,0-5-0.3-7.5-0.3c-2.2,0-4.4,0.3-6.5,0.3v-2.2l2-0.3c1.8-0.3,3.1-1.4,3.1-4.8V11.2
	c0.1-2-1.3-3.7-3.3-3.8H457l-1.7-0.2V5.1c2.4,0,6.3,0.2,8.7,0.2c1.9,0,4-0.1,5.3-0.2c0.4,1.1,0.9,2.2,1.6,3.2l16,26.6h0.1V12.2
	c0-3.3-1.2-4.4-3-4.7l-2.1-0.4V4.9c2.4,0,4.8,0.3,7.2,0.3c2.1,0,4.5-0.3,6.6-0.3L495.8,7.1L495.8,7.1z"/>
<path class="st0" d="M523,31.9c0,0.4,0,0.7,0,1.1h-20.1c0,10.6,3.6,14.4,8.8,14.4c4,0,6.4-1.4,9.3-3.6l0.8,2.6
	c-3.6,3.7-7.3,5.5-11.5,5.5c-10.2,0-16.2-7.2-16.2-17.3c0-11.7,7.4-17.6,15.5-17.6C516.7,17.1,523,21.7,523,31.9 M514.7,30.5v-0.7
	c0-5.9-2-10.3-5.7-10.3c-4,0-6,5.7-6,11.1h11.7V30.5z"/>
<circle class="st0" cx="382.3" cy="9.8" r="4.4"/>
</svg>

