<svg xmlns="http://www.w3.org/2000/svg" xmlns:xlink="http://www.w3.org/1999/xlink" width="654" height="83" viewBox="0 0 654 83">
    <defs>
        <path id="a" d="M0 .852h57.407v61.144H0z"/>
    </defs>
    <g fill="none" fill-rule="evenodd">
        <path fill="#000" d="M247 65c-3.442 0-6.858-.389-10.313-.389-3.492 0-6.946.389-10.423.389v-2.704l1.909-.223c2.47-.282 3.056-1.87 3.056-5.135V34.52c0-3.963-1.658-7.563-6.11-7.563-2.086 0-4.288 1.273-5.732 2.594-1.493 1.365-2.238 2.557-2.238 4.472v22.915c0 3.266.587 4.853 3.058 5.135l1.908.223V65c-3.441 0-6.859-.389-10.31-.389-3.492 0-6.947.389-10.423.389v-2.704l1.909-.223c2.47-.282 3.054-1.87 3.054-5.135V31.762c0-2.657-.374-4.014-2.184-4.138l-3.161-.22v-2.38L217.367 20l.546.94c-.439.882-.764 2.38-.764 3.645v3.093h.164c1.528-1.272 2.467-1.932 4.534-3.594 2.107-1.695 4.918-3.477 8.622-3.477 7.508 0 11.569 5.134 11.569 12.478v23.853c0 3.266.583 4.853 3.05 5.135l1.912.223V65zM162 60.774c-4.48 3.82-7.8 5.46-13.374 5.46-7.047 0-10.05-3.457-10.05-10.592V24.619h-3.275c-1.869 0-2.648.831-4.59 5.573l-18.286 44.776c-2.353 5.76-5.901 8.032-9.941 8.032-3.93 0-6.604-2.235-6.604-5.241 0-3.277 2.512-5.294 5.458-5.294 3.058 0 4.422 2.945 5.843 2.945.927 0 1.508-.75 2.02-2.022l3.005-7.424-14.142-36.32c-1.48-3.796-2.564-4.796-4.15-5.025L92 24.347v-2.673c3.88 0 7.744.38 11.632.38 3.672 0 7.15-.38 10.812-.38v2.673l-1.913.272c-1.973.284-3.056.989-3.056 2.844 0 .597.17 1.458.433 2.18l8.087 22.227 8.515-21.407c.283-.717.652-2.124.652-2.947 0-1.855-.807-2.723-2.78-2.952l-1.913-.217v-2.673c2.863 0 4.832.324 7.699.324 1.298 0 2.746-.122 4.04-.217L149.499 9l.76.983c-.27.492-.87 1.805-.87 3.88v7.811h11.298l-1.414 4.477h-.112c-.766-.275-3.058-.713-5.9-.713h-3.872v29.163c0 3.986 1.689 5.515 4.423 5.515 3.002 0 6.71-1.797 7.53-2.345l.658 3.003z"/>
        <path fill="#000" d="M188.54 43.22c0-10.725-2.584-20.068-8.54-20.068-5.951 0-8.54 9.343-8.54 19.352 0 11.553 3.252 20.4 8.43 20.4 5.359 0 8.65-9.067 8.65-19.683m11.46-.275C200 56.71 192.23 66 179.837 66 168.255 66 160 56.71 160 43.059 160 29.567 168.272 20 179.948 20 191.294 20 200 28.737 200 42.946M81.11 52.678V41.234l-5.406 2.926c-3.81 2.069-6.452 4.707-6.452 10.177 0 3.04 1.6 5.36 4.692 5.36 1.815 0 3.913-.891 5.348-2.433 1.34-1.438 1.818-2.57 1.818-4.586zM97 64.895c-3.804 0-10.703.385-14.289.663-.439-1.88-.883-4.143-.995-6.19h-.108c-.938.832-2.356 1.837-4.689 3.426C74.493 64.454 71.293 66 67.1 66 61.582 66 58 62.105 58 56.437c0-5.42 3.996-9.117 12.521-13.657l10.59-5.638v-1.99c0-5.588-3.25-8.792-8.44-8.792-3.97 0-6.127.94-9.543 2.816l-1.27-3.15C66.823 22.211 71.294 20 75.65 20c9.6 0 16.273 3.48 16.273 15.039V57.71c0 2.596.848 4.175 2.817 4.368l2.26.22v2.596z"/>
        <g transform="translate(0 3)">
            <mask id="b" fill="#fff">
                <use xlink:href="#a"/>
            </mask>
            <path fill="#000" d="M44.484 31.59c0-20.493-7.61-27.473-17.375-27.473-3.234 0-6.38.555-7.588.83v49.908c0 2.822.935 3.876 4.066 3.876h5.334c8.36 0 15.563-10.749 15.563-27.14m12.923-.833c0 19.66-10.173 31.238-30.298 31.238-4.202 0-10.055-.39-14.734-.39-3.836 0-7.985.39-11.825.39V59.06l1.43-.108c4.035-.312 5.226-1.085 5.226-5.76V8.827c0-3.044-1.237-4.557-3.522-4.762L0 3.734V.851c4.574 0 10.766.398 13.087.388 6.548-.033 4.148-.388 12.757-.388 19.806 0 31.563 9.525 31.563 29.906" mask="url(#b)"/>
        </g>
        <path fill="#000" d="M456 23.703l-1.583.108c-1.87.132-2.659 1.006-4.598 5.8L431.475 74.88c-2.36 5.823-6.08 8.121-9.91 8.121-4.105 0-6.685-2.26-6.685-5.299 0-3.312 2.523-5.352 5.483-5.352 3.121 0 4.375 2.977 5.854 2.977.931 0 1.511-.76 2.026-2.044l3.015-7.505-14.183-36.72c-1.482-3.824-2.562-4.848-4.157-5.08L411 23.703V21c3.884 0 7.764.384 11.661.384 3.681 0 7.331-.384 11.005-.384v2.703l-1.914.274c-1.986.288-3.071 1-3.071 2.875 0 .605.178 1.477.437 2.206l8.16 22.47 8.482-21.642c.286-.721.659-2.148.659-2.98 0-1.875-.813-2.753-2.782-2.984l-1.924-.22V21c2.877 0 4.681.328 7.555.328 1.304 0 4.38-.328 6.732-.328v2.703zM387 8.53c0 3.597-2.923 6.47-6.495 6.47-3.583 0-6.505-2.873-6.505-6.47 0-3.596 2.925-6.53 6.505-6.53C384.077 2 387 4.934 387 8.53M412 65c-3.422 0-6.825-.382-10.249-.382-3.475 0-6.916.382-10.368.382v-2.682l1.9-.217c2.455-.284 3.035-1.858 3.035-5.094V11.718c0-2.632-.372-3.982-2.17-4.107L391 7.39V5.04L407.384 0l.439.986c-.223.603-.76 2.074-.76 4.272v51.75c0 3.235.581 4.809 3.037 5.093l1.9.217V65zM390 65c-3.426 0-6.823-.385-10.251-.385-3.476 0-6.912.385-10.368.385v-2.7l1.901-.22c2.452-.285 3.033-1.87 3.033-5.13V31.804c0-2.65-.37-4.011-2.167-4.135L369 27.446v-2.372L385.386 20l.432.995c-.326.661-.759 2.035-.759 4.242V56.95c0 3.259.584 4.844 3.04 5.13l1.901.218V65zM352.113 52.678V41.234l-5.41 2.926c-3.814 2.069-6.454 4.707-6.454 10.177 0 3.041 1.597 5.36 4.689 5.36 1.824 0 3.92-.891 5.351-2.433 1.34-1.438 1.824-2.57 1.824-4.586zM368 64.895c-3.815 0-10.704.385-14.292.663-.44-1.88-.88-4.143-.988-6.19h-.115c-.935.832-2.36 1.837-4.685 3.426-2.428 1.66-5.633 3.206-9.82 3.206-5.518 0-9.1-3.895-9.1-9.563 0-5.42 3.996-9.117 12.519-13.657l10.594-5.638v-1.99c0-5.588-3.255-8.792-8.441-8.792-3.972 0-6.128.94-9.544 2.816l-1.272-3.15c4.966-3.814 9.431-6.026 13.79-6.026 9.599 0 16.28 3.48 16.28 15.039V57.71c0 2.596.841 4.175 2.81 4.368l2.264.22v2.596zM316.17 34.667c0-20.446-7.556-27.409-17.256-27.409-3.21 0-6.331.553-7.531.828v49.79c0 2.816.928 3.867 4.04 3.867h5.293c8.302 0 15.453-10.723 15.453-27.076m12.831-.83C329 53.45 318.9 65 298.914 65c-4.172 0-9.983-.389-14.629-.389-3.807 0-7.926.389-11.735.389v-2.929l1.416-.108c4.006-.31 5.187-1.082 5.187-5.745V11.955c0-3.036-1.225-4.546-3.494-4.75L272 6.875V4c4.542 0 10.694.4 12.992.388 6.505-.034 4.125-.388 12.671-.388C317.327 4 329 13.503 329 33.836M654 52.503C654 60.653 646.774 66 636.663 66c-7.447 0-11.158-1.488-13.269-1.488-.504 0-1.114.108-1.394.108V50.352h2.721l.619 2.425c1.667 6.626 6.326 10.137 11.158 10.137 4.439 0 7.5-2.093 7.5-6.337 0-3.912-1.41-6.672-8.944-10.632l-2.729-1.435c-4.635-2.441-9.765-6.333-9.765-12.722 0-6.445 5.385-11.788 17.773-11.788 3.796 0 7.094.995 9.99.991.453 0 .9-.003 1.336-.055v11.623h-2.938l-.389-2.425a8.325 8.325 0 0 0-8.278-6.941c-4.06 0-7.062 1.873-7.062 5.51 0 3.901 3.664 5.916 7.945 8.318l3.446 1.927C649.113 41.6 654 45.703 654 52.503M623 23.708l-1.702.222c-1.961.257-3.155 1.292-4.487 5.705l-9.708 31.884c-.43 1.405-.869 3.56-.935 4.481h-7.13l-7.842-26.79h-.22l-6.906 22.64c-.414 1.354-.83 3.128-.824 4.15h-7.237l-10.693-36.921c-1.278-4.424-2.791-4.861-4.388-5.094L559 23.708V21c3.688 0 7.84.386 11.522.386 3.557 0 6.705-.386 10.251-.386v2.708l-1.37.222c-1.815.296-2.63 1.057-2.63 2.938 0 .607.17 1.428.39 2.21l6.307 22.48h.105l5.641-19.156-.928-3.323c-1.246-4.434-2.898-5.044-4.273-5.202l-1.433-.17V21c3.427 0 7.32.386 10.753.386 3.551 0 7.054-.386 10.586-.386v2.708l-1.595.222c-1.776.246-2.685 1.107-2.685 2.716 0 .606.25 1.763.431 2.433l6.316 22.48h.107l6.416-21.815c.234-.79.44-1.931.44-2.768 0-1.879-.756-2.702-2.744-2.99l-1.922-.278V21c2.768 0 4.969.329 7.743.329 2.183 0 4.366-.329 6.572-.329v2.708zM526 6.877l-2.785.55c-2.327.46-3.9 1.825-3.9 6.198v47.067c0 2.324.219 4.366.442 5.308h-6.139l-29.053-48.504h-.22v37.998c0 4.326 1.54 5.828 3.884 6.192l3.19.499v2.931c-3.286 0-6.537-.39-9.815-.39-2.858 0-5.697.39-8.547.39v-2.931l2.62-.443c2.346-.39 4.004-1.878 4.004-6.248V12.352c0-3.272-1.969-4.67-4.441-5.037L473 6.986V4.274c3.084 0 8.243.276 11.346.276 2.516 0 5.257-.167 6.96-.276.219.94 1.099 2.513 2.082 4.148l21.05 35.067h.165V13.625c0-4.335-1.562-5.73-3.892-6.198l-2.741-.55V4c3.156 0 6.282.383 9.426.383 2.741 0 5.859-.383 8.604-.383v2.877zM551.098 37.772v-.943c0-7.82-2.652-13.619-7.516-13.619-5.31 0-7.966 7.472-7.966 14.562h15.482zM562 39.596c0 .452 0 1.055-.058 1.44h-26.384c0 14.004 4.74 18.93 11.561 18.93 5.309 0 8.43-1.877 12.278-4.702l1.106 3.433C555.747 63.513 550.876 66 545.358 66 531.96 66 524 56.538 524 43.251 524 27.864 533.694 20 544.356 20 553.758 20 562 26.09 562 39.596z"/>
    </g>
</svg>
