<svg width="120" height="120" viewBox="0 0 120 120" xmlns="http://www.w3.org/2000/svg">
    <g fill="#FFF" fill-rule="nonzero">
        <path d="M115.364 0h-25.5a4.638 4.638 0 0 0-4.637 4.636 4.638 4.638 0 0 0 4.636 4.637h14.308L70.358 43.086a4.635 4.635 0 1 0 6.556 6.556l33.813-33.813v14.307a4.638 4.638 0 0 0 4.637 4.637A4.638 4.638 0 0 0 120 30.136v-25.5A4.638 4.638 0 0 0 115.364 0zM115.364 85.227a4.638 4.638 0 0 0-4.637 4.636v14.308L76.914 70.358a4.635 4.635 0 1 0-6.556 6.556l33.813 33.813H89.863a4.638 4.638 0 0 0-4.636 4.637A4.638 4.638 0 0 0 89.863 120h25.5a4.638 4.638 0 0 0 4.637-4.636v-25.5a4.638 4.638 0 0 0-4.636-4.637zM15.829 9.273h14.308a4.638 4.638 0 0 0 4.636-4.637A4.638 4.638 0 0 0 30.137 0h-25.5A4.638 4.638 0 0 0 0 4.636v25.5a4.638 4.638 0 0 0 4.636 4.637 4.638 4.638 0 0 0 4.637-4.637V15.83l33.813 33.813A4.618 4.618 0 0 0 46.364 51a4.635 4.635 0 0 0 3.278-7.914L15.83 9.273zM43.086 70.358 9.273 104.17V89.863a4.638 4.638 0 0 0-4.637-4.636A4.638 4.638 0 0 0 0 89.863v25.5A4.638 4.638 0 0 0 4.636 120h25.5a4.638 4.638 0 0 0 4.637-4.636 4.638 4.638 0 0 0-4.636-4.637H15.829l33.813-33.813a4.635 4.635 0 1 0-6.556-6.556z"/>
    </g>
</svg>
