<svg width="15" height="15" xmlns="http://www.w3.org/2000/svg">
    <g fill="#3299AD" fill-rule="nonzero">
        <path d="M13.332.98a3.348 3.348 0 0 0-4.735 0l-2.799 2.8c-1.352 1.352-1.227 3.507 0 4.734.206.206.433.373.673.51l.511-.51c.335-.335.217-.727.211-1.01a1.616 1.616 0 0 1-.211-.174c-.63-.63-.658-1.709 0-2.367L9.78 2.164a1.676 1.676 0 0 1 2.368 0 1.676 1.676 0 0 1 0 2.368l-1.85 1.85c.054.296.375.997.21 2.153.008-.008.017-.013.025-.02l2.799-2.8a3.348 3.348 0 0 0 0-4.734z"/>
        <path d="M8.758 5.555a3.187 3.187 0 0 0-.673-.511l-.511.51c-.335.336-.217.727-.211 1.01.073.052.145.108.21.174.63.63.66 1.71 0 2.368L4.56 12.121a1.676 1.676 0 0 1-2.368 0 1.676 1.676 0 0 1 0-2.367l2.067-2.067c-.054-.296-.375-.997-.21-2.153-.008.008-.017.013-.025.02L1.007 8.57a3.348 3.348 0 0 0 4.735 4.735l3.016-3.015c1.327-1.328 1.255-3.48 0-4.735z"/>
    </g>
</svg>
