<svg xmlns="http://www.w3.org/2000/svg" xmlns:xlink="http://www.w3.org/1999/xlink" width="21" height="22" viewBox="0 0 21 22">
    <g fill="none" fill-rule="evenodd">
        <g>
            <g>
                <g>
                    <g>
                        <g transform="translate(-1574 -125) translate(60 20) translate(0 86) translate(1514 19)">
                            <mask id="3218e5xuab" fill="#fff">
                               <path id="x66zu0qra" d="M0.003 0.021L17.596 0.021 17.596 18.411 0.003 18.411z"/>
                            </mask>
                            <path fill="#212126" d="M8.798 17.491C4.432 17.491.88 13.78.88 9.216.88 4.653 4.432.94 8.798.94s7.918 3.713 7.918 8.276-3.552 8.275-7.918 8.275zm0-17.47C3.947.02 0 4.146 0 9.216s3.947 9.195 8.798 9.195 8.798-4.125 8.798-9.195S13.649.02 8.798.02z" mask="url(#3218e5xuab)"/>
                        </g>
                        <path fill="#212126" d="M16.258 16.924L16.761 16.323 21 21.398 20.497 22 16.258 16.924" transform="translate(-1574 -125) translate(60 20) translate(0 86) translate(1514 19)"/>
                    </g>
                </g>
            </g>
        </g>
    </g>
</svg>
