<?xml version="1.0" encoding="UTF-8"?><svg id="Layer_1" xmlns="http://www.w3.org/2000/svg" viewBox="0 0 591.57 71"><defs><style>.cls-1{fill:#6d6e71;}.cls-2{fill:#0076ad;}</style></defs><g><path class="cls-2" d="M10.02,44.39v-3.73h3.97c1.44,0,1.96-.57,1.96-1.94v-12.33c-1.17,1.97-4.27,3.08-7.33,3.08v-4.48c5.14-.54,8.46-4.09,9.22-8.21h6.99v21.94c0,1.36,.49,1.94,1.93,1.94h3.02v3.73H10.02Z"/><path class="cls-2" d="M48.09,44.86c-2.04,0-3.32-.39-5.25-1.4-1.78-.93-2.98-1.47-4.53-1.47-1.17,0-2.46,.97-2.46,2.4h-5.17v-4.09c0-2.83,1.55-6.27,5.85-8.93,1.06-.65,1.96-1.18,2.76-1.61,3.63-2.08,4.61-3.48,4.61-6.02,0-2.15-.87-3.55-3.44-3.55-1.81,0-2.64,.82-2.98,1.79l.49,.04c1.74,.14,2.83,1.65,2.83,3.23,0,2.47-2.08,3.98-4.65,3.98-3.51,0-5.63-2.01-5.63-5.59,0-4.27,4.49-7.31,11.6-7.31,7.86,0,11.82,2.76,11.82,7.92,0,4.27-2.83,6.56-9.93,8.6-1.06,.29-2.27,.68-3.4,1.08-2.95,1.08-5.4,3.33-5.4,6.06v.72c.83-2.98,3.32-4.8,6.84-4.8,1.1,0,2.12,.22,3.7,.97,1.44,.68,1.93,.93,3.1,.93,.87,0,1.36-.57,1.36-1.54v-1.54h4.38v3.33c0,4.01-2.34,6.81-6.5,6.81Z"/><path class="cls-2" d="M66.94,44.86c-7.03,0-11.56-2.76-11.56-7.42,0-3.58,2.49-4.8,4.87-4.8,2.76,0,4.49,1.43,4.49,3.76,0,1.5-.91,2.58-2.42,3.05,.34,1.22,1.81,1.69,2.87,1.69,2.91,0,3.97-2.08,3.97-6.24,0-3.8-1.1-5.41-3.78-5.41-1.81,0-2.64,.93-2.76,1.54h-5.36l1.62-14.48h2.87s2.68,1.22,8.27,1.22c4.83,0,7.48-1.04,8.2-1.04,.26,0,.53,.18,.53,.5,0,.5-.91,2.01-2.46,3.48-2.23,2.12-5.06,3.19-9.97,3.19-1.78,0-3.29-.25-3.78-.5l-.53,4.34c.87-1.29,3.59-2.04,6.16-2.04,5.82,0,10.73,3.01,10.73,9.54,0,6.02-4.87,9.64-11.97,9.64Z"/></g><g><path class="cls-1" d="M10.62,11.08h-2v-1.93h6.29v1.93h-2v4.88h-2.28v-4.88Z"/><path class="cls-1" d="M15.2,9.16h3.33c1.21,0,1.98,.3,2.45,.78,.41,.41,.62,.91,.62,1.62v.02c0,.99-.52,1.68-1.34,2.08l1.59,2.32h-2.6l-1.28-1.95h-.49v1.95h-2.28v-6.81Zm3.26,3.24c.54,0,.88-.24,.88-.66v-.02c0-.44-.34-.65-.87-.65h-.99v1.33h.98Z"/><path class="cls-1" d="M22.11,12.91v-3.76h2.32v3.73c0,.85,.44,1.21,1.05,1.21s1.05-.33,1.05-1.16v-3.78h2.32v3.71c0,2.33-1.35,3.24-3.39,3.24s-3.35-.93-3.35-3.19Z"/><path class="cls-1" d="M29.11,14.95l1.22-1.45c.74,.56,1.59,.8,2.38,.8,.41,0,.58-.11,.58-.29v-.02c0-.19-.21-.3-.94-.45-1.53-.31-2.87-.75-2.87-2.19v-.02c0-1.29,1.01-2.3,2.89-2.3,1.31,0,2.29,.31,3.07,.93l-1.11,1.54c-.64-.47-1.41-.67-2.04-.67-.34,0-.5,.12-.5,.28v.02c0,.18,.18,.3,.9,.44,1.74,.32,2.91,.83,2.91,2.2v.02c0,1.43-1.18,2.31-3.01,2.31-1.38,0-2.63-.39-3.49-1.15Z"/><path class="cls-1" d="M37.76,11.08h-2v-1.93h6.29v1.93h-2v4.88h-2.28v-4.88Z"/><path class="cls-1" d="M42.51,9.16h5.81v1.87h-3.57v.69h3.33v1.64h-3.33v.74h3.62v1.87h-5.86v-6.81Z"/><path class="cls-1" d="M48.9,9.16h2.61c2.7,0,4.06,1.33,4.06,3.35v.02c0,2.01-1.38,3.44-4.14,3.44h-2.53v-6.81Zm2.28,1.98v2.84h.38c1.04,0,1.71-.43,1.71-1.41v-.02c0-.98-.67-1.41-1.71-1.41h-.38Z"/><path class="cls-1" d="M58.52,9.16h5.7v1.95h-3.42v.87h3.18v1.77h-3.18v2.23h-2.28v-6.81Z"/><path class="cls-1" d="M64.35,12.58v-.02c0-1.97,1.62-3.55,3.73-3.55s3.71,1.56,3.71,3.53v.02c0,1.97-1.62,3.55-3.73,3.55s-3.71-1.56-3.71-3.53Zm5.14,0v-.02c0-.81-.55-1.54-1.43-1.54s-1.41,.72-1.41,1.52v.02c0,.81,.55,1.54,1.43,1.54s1.41-.72,1.41-1.52Z"/><path class="cls-1" d="M72.27,9.16h3.33c1.21,0,1.98,.3,2.45,.78,.41,.41,.62,.91,.62,1.62v.02c0,.99-.52,1.68-1.34,2.08l1.59,2.32h-2.6l-1.28-1.95h-.49v1.95h-2.28v-6.81Zm3.26,3.24c.54,0,.88-.24,.88-.66v-.02c0-.44-.34-.65-.87-.65h-.99v1.33h.98Z"/></g><g><path d="M272.67,55.41c-2.65,0-5.28-.3-7.94-.3s-5.35,.3-8.03,.3v-2.06l1.47-.17c1.9-.22,2.35-1.42,2.35-3.91v-17.06c0-3.02-1.28-5.76-4.71-5.76-1.61,0-3.3,.97-4.42,1.97-1.15,1.04-1.72,1.95-1.72,3.4v17.44c0,2.49,.45,3.69,2.35,3.91l1.47,.17v2.06c-2.65,0-5.28-.3-7.94-.3s-5.35,.3-8.03,.3v-2.06l1.47-.17c1.9-.22,2.35-1.42,2.35-3.91V30.11c0-2.02-.29-3.06-1.68-3.15l-2.43-.17v-1.81l12.61-3.82,.42,.71c-.34,.67-.59,1.81-.59,2.77v2.35h.13c1.18-.97,1.9-1.47,3.49-2.73,1.62-1.29,3.79-2.65,6.64-2.65,5.78,0,8.91,3.91,8.91,9.5v18.16c0,2.49,.45,3.69,2.35,3.91l1.47,.17v2.06h0Z"/><path d="M207.73,51.88c-3.45,2.94-6,4.2-10.3,4.2-5.42,0-7.73-2.66-7.73-8.15V24.06h-2.52c-1.44,0-2.04,.64-3.53,4.29l-14.08,34.46c-1.81,4.43-4.54,6.18-7.65,6.18s-5.08-1.72-5.08-4.03c0-2.52,1.93-4.07,4.2-4.07s3.4,2.27,4.5,2.27c.71,0,1.16-.58,1.56-1.56l2.31-5.71-10.89-27.95c-1.14-2.92-1.97-3.69-3.2-3.87l-1.47-.21v-2.06c2.99,0,5.96,.29,8.95,.29,2.83,0,5.5-.29,8.32-.29v2.06l-1.47,.21c-1.52,.22-2.35,.76-2.35,2.19,0,.46,.13,1.12,.33,1.68l6.23,17.11,6.55-16.47c.22-.55,.5-1.64,.5-2.27,0-1.43-.62-2.1-2.14-2.27l-1.47-.17v-2.06c2.2,0,3.72,.25,5.93,.25,1,0,2.11-.09,3.11-.17,1.86-1.55,11.77-9.84,11.77-9.84l.59,.76c-.21,.38-.67,1.39-.67,2.99v6.01h8.7l-1.09,3.45h-.09c-.59-.21-2.35-.55-4.54-.55h-2.98v22.44c0,3.07,1.3,4.24,3.4,4.24,2.31,0,5.17-1.38,5.8-1.81l.51,2.31h0Z"/><path d="M236.6,38.64c0,10.46-5.93,17.53-15.38,17.53-8.84,0-15.13-7.06-15.13-17.44s6.31-17.53,15.22-17.53,15.3,6.64,15.3,17.44h0Zm-8.74,.21c0-8.15-1.97-15.26-6.51-15.26s-6.51,7.1-6.51,14.71c0,8.78,2.48,15.51,6.43,15.51s6.6-6.89,6.6-14.96h0Z"/><path d="M157.17,55.41c-2.9,0-8.15,.29-10.89,.5-.34-1.43-.67-3.15-.76-4.71h-.08c-.71,.63-1.8,1.4-3.57,2.6-1.85,1.26-4.29,2.44-7.48,2.44-4.2,0-6.93-2.96-6.93-7.27s3.04-6.93,9.54-10.38l8.07-4.29v-1.51c0-4.25-2.48-6.68-6.43-6.68-3.03,0-4.67,.71-7.27,2.14l-.97-2.39c3.78-2.9,7.19-4.58,10.51-4.58,7.31,0,12.4,2.65,12.4,11.43v17.23c0,1.97,.65,3.17,2.15,3.32l1.72,.17v1.97h0Zm-12.11-9.29v-8.7l-4.12,2.22c-2.9,1.57-4.92,3.58-4.92,7.74,0,2.31,1.22,4.07,3.57,4.07,1.38,0,2.98-.68,4.07-1.85,1.02-1.09,1.38-1.95,1.38-3.49h0Z"/><path d="M127.2,31.71c0,14.92-7.78,23.71-23.16,23.71-3.21,0-7.69-.3-11.26-.3-2.93,0-6.1,.3-9.04,.3v-2.23l1.09-.08c3.08-.24,3.99-.82,3.99-4.37V15.06c0-2.31-.95-3.46-2.69-3.61l-2.82-.25v-2.19c3.5,0,8.23,.3,10,.3,5.01-.03,3.17-.3,9.75-.3,15.14,0,24.13,7.23,24.13,22.7h0Zm-9.88,.63c0-15.55-5.82-20.85-13.28-20.85-2.47,0-4.88,.42-5.8,.63V49.99c0,2.14,.71,2.94,3.11,2.94h4.08c6.39,0,11.9-8.16,11.9-20.6h0Z"/><path d="M432,23.85l-1.22,.08c-1.44,.1-2.04,.77-3.53,4.42l-14.08,34.46c-1.81,4.43-4.67,6.18-7.61,6.18-3.15,0-5.13-1.72-5.13-4.03,0-2.52,1.94-4.07,4.21-4.07,2.4,0,3.36,2.27,4.5,2.27,.71,0,1.16-.58,1.56-1.56l2.31-5.71-10.89-27.95c-1.14-2.91-1.97-3.69-3.19-3.87l-1.47-.21v-2.06c2.98,0,5.96,.29,8.95,.29,2.83,0,5.63-.29,8.45-.29v2.06l-1.47,.21c-1.52,.22-2.36,.76-2.36,2.19,0,.46,.14,1.12,.34,1.68l6.26,17.11,6.51-16.47c.22-.55,.51-1.64,.51-2.27,0-1.43-.62-2.1-2.14-2.27l-1.48-.17v-2.06c2.21,0,3.59,.25,5.8,.25,1,0,3.36-.25,5.17-.25v2.06h0Z"/><path d="M379.09,12.2c0,2.66-2.17,4.79-4.83,4.79s-4.84-2.13-4.84-4.79,2.17-4.83,4.84-4.83,4.83,2.17,4.83,4.83h0Z"/><path d="M398.93,55.49c-2.65,0-5.29-.29-7.94-.29s-5.36,.29-8.03,.29v-2.06l1.47-.17c1.9-.22,2.35-1.43,2.35-3.91V14.6c0-2.02-.29-3.06-1.68-3.15l-2.44-.17v-1.81l12.69-3.87,.34,.76c-.17,.46-.59,1.59-.59,3.28V49.36c0,2.48,.45,3.69,2.35,3.91l1.47,.17v2.06h0Z"/><path d="M381.86,55.49c-2.65,0-5.29-.29-7.94-.29s-5.35,.29-8.03,.29v-2.06l1.47-.17c1.9-.22,2.35-1.43,2.35-3.91V30.19c0-2.02-.29-3.06-1.68-3.15l-2.44-.17v-1.81l12.69-3.87,.34,.76c-.25,.5-.59,1.55-.59,3.23v24.17c0,2.48,.45,3.69,2.35,3.91l1.47,.17v2.06h0Z"/><path d="M364.96,55.41c-2.91,0-8.15,.29-10.89,.5-.34-1.43-.67-3.15-.75-4.71h-.09c-.71,.63-1.8,1.4-3.57,2.6-1.85,1.26-4.29,2.44-7.48,2.44-4.2,0-6.93-2.96-6.93-7.27s3.04-6.93,9.54-10.38l8.07-4.29v-1.51c0-4.25-2.48-6.68-6.43-6.68-3.03,0-4.67,.71-7.27,2.14l-.97-2.39c3.78-2.9,7.19-4.58,10.51-4.58,7.31,0,12.4,2.65,12.4,11.43v17.23c0,1.97,.64,3.17,2.14,3.32l1.73,.17v1.97h0Zm-12.1-9.29v-8.7l-4.12,2.22c-2.91,1.57-4.92,3.58-4.92,7.74,0,2.31,1.22,4.07,3.57,4.07,1.39,0,2.99-.68,4.08-1.85,1.02-1.09,1.39-1.95,1.39-3.49h0Z"/><path d="M335,31.71c0,14.92-7.78,23.71-23.16,23.71-3.21,0-7.69-.3-11.26-.3-2.93,0-6.1,.3-9.03,.3v-2.23l1.09-.08c3.08-.24,3.99-.82,3.99-4.37V15.06c0-2.31-.94-3.46-2.69-3.61l-2.82-.25v-2.19c3.5,0,8.23,.31,10,.3,5.01-.03,3.18-.3,9.76-.3,15.14,0,24.12,7.23,24.12,22.7h0Zm-9.88,.63c0-15.55-5.82-20.85-13.28-20.85-2.47,0-4.87,.42-5.8,.63V49.99c0,2.14,.71,2.94,3.11,2.94h4.07c6.39,0,11.9-8.16,11.9-20.6h0Z"/><path d="M583.66,45.83c0,6.22-5.47,10.3-13.12,10.3-5.63,0-8.44-1.14-10.04-1.14-.38,0-.84,.08-1.05,.08v-10.89h2.06l.47,1.85c1.26,5.06,4.79,7.73,8.44,7.73,3.36,0,5.67-1.6,5.67-4.84,0-2.98-1.07-5.09-6.77-8.11l-2.07-1.09c-3.51-1.86-7.39-4.83-7.39-9.71s4.07-8.99,13.45-8.99c2.87,0,5.37,.76,7.56,.76,.34,0,.68,0,1.01-.04v8.87h-2.22l-.29-1.85c-.44-2.77-2.86-5.3-6.26-5.3-3.07,0-5.34,1.43-5.34,4.2,0,2.98,2.77,4.51,6.01,6.35l2.61,1.47c3.58,2.02,7.28,5.15,7.28,10.34h0Z"/><path d="M560.07,23.85l-1.3,.17c-1.5,.2-2.42,.98-3.44,4.33l-7.44,24.21c-.33,1.07-.67,2.7-.72,3.4h-5.46l-6.01-20.34h-.17l-5.29,17.19c-.32,1.03-.64,2.38-.63,3.15h-5.55l-8.2-28.03c-.98-3.36-2.14-3.69-3.36-3.87l-1.48-.21v-2.06c2.83,0,6.01,.29,8.83,.29s5.14-.29,7.86-.29v2.06l-1.05,.17c-1.39,.22-2.02,.8-2.02,2.23,0,.46,.13,1.08,.3,1.68l4.83,17.07h.08l4.33-14.54-.71-2.52c-.95-3.37-2.22-3.83-3.28-3.95l-1.1-.13v-2.06c2.63,0,5.61,.29,8.24,.29s5.41-.29,8.11-.29v2.06l-1.22,.17c-1.36,.19-2.06,.84-2.06,2.06,0,.46,.19,1.34,.33,1.85l4.84,17.07h.08l4.92-16.56c.18-.6,.34-1.47,.34-2.1,0-1.43-.58-2.05-2.1-2.27l-1.47-.21v-2.06c2.12,0,3.81,.25,5.93,.25,1.67,0,3.35-.25,5.04-.25v2.06h0Z"/><path d="M485.89,11.16l-2.14,.42c-1.78,.35-2.99,1.39-2.99,4.71V52.05c0,1.77,.17,3.32,.34,4.03h-4.71l-22.27-36.86h-.17v28.87c0,3.29,1.18,4.43,2.98,4.71l2.45,.38v2.23c-2.52,0-5.01-.3-7.53-.3-2.19,0-4.37,.3-6.55,.3v-2.23l2.01-.34c1.8-.3,3.07-1.43,3.07-4.75V15.32c0-2.49-1.51-3.55-3.4-3.83l-1.72-.25v-2.06c2.36,0,6.32,.21,8.7,.21,1.93,0,4.03-.13,5.34-.21,.17,.72,.84,1.91,1.6,3.15l16.14,26.65h.13V16.28c0-3.29-1.2-4.35-2.98-4.71l-2.1-.42v-2.19c2.42,0,4.82,.29,7.23,.29,2.1,0,4.49-.29,6.6-.29v2.19h0Z"/><path d="M513.08,36.04c0,.34,0,.8-.04,1.09h-20.05c0,10.63,3.6,14.37,8.78,14.37,4.03,0,6.41-1.42,9.33-3.57l.84,2.61c-3.61,3.66-7.31,5.55-11.51,5.55-10.18,0-16.23-7.18-16.23-17.27,0-11.68,7.36-17.65,15.47-17.65,7.14,0,13.41,4.62,13.41,14.88h0Zm-8.28-1.39v-.72c0-5.94-2.01-10.34-5.71-10.34-4.04,0-6.05,5.67-6.05,11.06h11.76Z"/></g><g><path class="cls-1" d="M14.59,52.43c-1.89-2.68-2.84-4.02-4.74-6.7h4.7c.86,1.36,1.29,2.04,2.15,3.41,.87-1.36,1.3-2.04,2.17-3.41h4.65c-1.9,2.66-2.84,3.99-4.74,6.65v3.72h-4.2v-3.67Z"/><path class="cls-1" d="M24.68,45.73h10.71v2.84h-6.59v1.05h6.14v2.5h-6.14v1.13h6.68v2.84h-10.8v-10.37Z"/><path class="cls-1" d="M42.07,45.66h4.16c2.12,4.18,3.18,6.27,5.29,10.44h-4.56c-.27-.56-.4-.84-.66-1.39h-4.4c-.26,.56-.39,.84-.65,1.39h-4.49c2.12-4.18,3.18-6.27,5.29-10.44Zm3.19,6.59c-.46-1.01-.69-1.51-1.15-2.52-.46,1.01-.69,1.51-1.15,2.52h2.3Z"/><path class="cls-1" d="M52.77,45.73h6.14c2.23,0,3.64,.46,4.52,1.18,.75,.62,1.15,1.39,1.15,2.46v.03c0,1.51-.95,2.56-2.48,3.17,1.17,1.41,1.76,2.12,2.93,3.53h-4.79c-.95-1.19-1.42-1.78-2.37-2.96h-.9v2.96h-4.2v-10.37Zm6.01,4.93c1.01,0,1.62-.37,1.62-1.01v-.03c0-.67-.63-.99-1.6-.99h-1.83v2.03h1.81Z"/><path class="cls-1" d="M65.28,54.55c.9-.88,1.35-1.32,2.24-2.21,1.36,.86,2.93,1.21,4.4,1.21,.75,0,1.08-.16,1.08-.44v-.03c0-.3-.4-.46-1.74-.68-2.81-.47-5.29-1.14-5.29-3.33v-.03c0-1.97,1.87-3.5,5.33-3.5,2.42,0,4.22,.47,5.67,1.42-.82,.94-1.23,1.4-2.05,2.34-1.18-.71-2.6-1.02-3.77-1.02-.63,0-.92,.18-.92,.43v.03c0,.28,.34,.46,1.67,.67,3.21,.49,5.37,1.26,5.37,3.35v.03c0,2.18-2.17,3.51-5.55,3.51-2.55,0-4.85-.59-6.44-1.75Z"/></g></svg>