<svg id="Layer_1" data-name="Layer 1" xmlns="http://www.w3.org/2000/svg" viewBox="0 0 565.52 108.17"><defs><style>.cls-1{fill:#fff;fill-rule:evenodd;}</style></defs><title>Dayton_White</title><path class="cls-1" d="M271.73,39.25a18.2,18.2,0,0,0-5,0c-7,1.1-11.52,6.68-11.52,14.52,0,9.45,6.22,15.44,14.35,15.44,7.78,0,14.17-5.76,14.17-15.44C283.73,46.34,278.83,40.4,271.73,39.25Z"/><polygon class="cls-1" points="111.53 59.24 129.68 59.24 120.63 41.09 111.53 59.24"/><path class="cls-1" d="M438.07,39.25a18.2,18.2,0,0,0-5,0c-7,1.1-11.52,6.68-11.52,14.52h0c0,9.45,6.22,15.44,14.35,15.44,7.78,0,14.17-5.76,14.17-15.44C450.07,46.34,445.17,40.4,438.07,39.25Z"/><path class="cls-1" d="M0,0V108.17H565.52V0ZM67.56,72.55H55a2.61,2.61,0,0,1-2.65-2.48V38.33A2.57,2.57,0,0,1,55,35.91H67.56c11.46,0,17.17,9.16,17.17,18.32S79,72.55,67.56,72.55ZM136,71.78l-4.49-8.93H109.8v0L105.13,72c-1,2.13-4.84.64-3.8-1.67L118.73,36a2.14,2.14,0,0,1,3.74,0l17.34,34.11C141.31,72.59,137,74,136,71.78Zm49.51-33.46L171,57.74V70.65a2.08,2.08,0,0,1-2,2.13h-.1a2,2,0,0,1-2.13-1.86,1.22,1.22,0,0,1,0-.27V57.74h0l-14.58-19.3c-1.73-2.3,2.07-4.44,3.63-2.13l13,17.8L182,36.25C183.44,34.06,187,35.91,185.46,38.32ZM234,39.85H221.17c0,10.37.06,20.92.06,31.29a2.13,2.13,0,0,1-2.16,2.1H219a2,2,0,0,1-2-2V39.83H204.17a2,2,0,0,1,0-4H234v0a2,2,0,0,1,0,4Zm35.56,33.34c-10.37,0-18.67-7.37-18.67-19.59h0a18,18,0,0,1,15.27-18.21,24,24,0,0,1,6.11,0A18.34,18.34,0,0,1,288,53.6C288,65.6,279.36,73.19,269.56,73.19Zm70.7-2.83c0,2.88-4,3.17-5.19,1.15L313.53,42.65l.46,8V70.94c0,2.82-4.38,2.88-4.38,0v-33c0-2.88,3.23-3.34,4.67-1.21L336.46,66.4l-.58-8.7V37.29c0-2.42,4.38-2.54,4.38,0Zm16.16-16.52h0A2.42,2.42,0,1,1,354,51.42h0a2.41,2.41,0,0,1,2.42,2.4ZM397.76,66a16.4,16.4,0,0,1-6.22,5.13h0a21.58,21.58,0,0,1-8.64,2.07c-9.85,0-18.72-8.07-18.72-19.48a18.36,18.36,0,0,1,15.61-18.32c6.74-.92,12.62.75,17.17,5.53,1.73,2-1.38,4.32-3,2.59-3.92-4.15-8.47-4.78-13.54-4.21-7.09,1.1-12.1,6.11-12.1,14.46,0,8.76,6.74,15.44,14.69,15.44a15.25,15.25,0,0,0,6.68-1.67,14.6,14.6,0,0,0,4.73-3.86C395.75,61.66,399.26,63.83,397.76,66Zm38.14,7.22c-10.37,0-18.67-7.37-18.67-19.59h0A18,18,0,0,1,432.5,35.39a24,24,0,0,1,6.11,0A18.34,18.34,0,0,1,454.34,53.6C454.34,65.6,445.7,73.19,435.9,73.19ZM513.19,71A2.1,2.1,0,0,1,509,71V44.78L497.21,63.16a2.2,2.2,0,0,1-4,0L481.48,44.84V71a2.11,2.11,0,0,1-4.21,0V37.81a2,2,0,0,1,3.92-1L495.25,58.7l13.94-21.93c1.33-2.08,4-1.38,4,1Z"/><path class="cls-1" d="M67.56,39.59H56.5V68.8H67.56c8.64,0,13-7.32,13-14.58S76.24,39.59,67.56,39.59Z"/></svg>