<?xml version="1.0" encoding="utf-8"?>
<!-- Generator: Adobe Illustrator 23.0.1, SVG Export Plug-In . SVG Version: 6.00 Build 0)  -->
<svg version="1.1" id="Layer_1" xmlns="http://www.w3.org/2000/svg" xmlns:xlink="http://www.w3.org/1999/xlink" x="0px" y="0px"
	 viewBox="0 0 565.5 108.2" style="enable-background:new 0 0 565.5 108.2;" xml:space="preserve">
<style type="text/css">
	.st0{fill:#FFFFFF;}
</style>
<title>dayton.com_logo</title>
<g>
	<polygon class="st0" points="111.5,59.3 129.7,59.3 120.6,41.1 	"/>
	<path class="st0" d="M271.7,39.3c-1.7-0.2-3.3-0.2-5,0c-7,1-11.5,6.6-11.5,14.5c0,9.5,6.2,15.4,14.3,15.4c7.8,0,14.2-5.8,14.2-15.4
		C283.7,46.4,278.8,40.4,271.7,39.3z"/>
	<path class="st0" d="M67.6,39.6H56.5v29.2h11.1c8.6,0,13-7.3,13-14.6S76.3,39.6,67.6,39.6z"/>
	<path class="st0" d="M438.1,39.3c-1.7-0.2-3.3-0.2-5,0c-7,1-11.5,6.6-11.6,14.5c0,9.5,6.2,15.4,14.4,15.4c7.8,0,14.2-5.8,14.2-15.4
		C450.1,46.4,445.2,40.4,438.1,39.3z"/>
	<path class="st0" d="M0,0v108.2h565.5V0H0z M67.6,72.6H55c-1.4,0-2.6-1.1-2.7-2.5V38.3c0.1-1.4,1.3-2.5,2.7-2.4h12.6
		c11.5,0,17.2,9.2,17.2,18.3S79,72.6,67.6,72.6z M135.8,71.8l-4.5-8.9h-21.5l-4.7,9.1c-1,2.1-4.8,0.6-3.8-1.7L118.7,36
		c0.4-0.7,1.1-1.1,1.9-1.1c0.8,0,1.5,0.4,1.8,1.1l17.3,34.1C141.2,72.6,136.9,74,135.8,71.8z M185.5,38.3L171,57.7v12.9
		c0,1.1-0.9,2.1-2,2.1h-0.1c-1.1,0.1-2.1-0.8-2.1-1.9c0-0.1,0-0.2,0-0.3l-0.1-12.8l-14.6-19.3c-1.7-2.3,2.1-4.4,3.6-2.1l13,17.8
		L182,36.2C183.4,34,187,35.9,185.5,38.3z M234,39.8h-12.8c0,10.4,0.1,20.9,0.1,31.3c0,1.2-1,2.1-2.2,2.1c0,0,0,0-0.1,0
		c-1.1,0-2-0.9-2-2v-0.1V39.8h-12.8c-1.1,0-2-0.9-2-2c0-1.1,0.9-2,2-2H234c1.1,0,2,0.9,2,2C236,38.9,235.1,39.8,234,39.8z
		 M269.6,73.2c-10.4,0-18.7-7.4-18.7-19.6c-0.2-9,6.3-16.8,15.3-18.2c2-0.3,4.1-0.3,6.1,0c9,1.3,15.7,9.1,15.7,18.2
		C288,65.6,279.4,73.2,269.6,73.2z M340.3,70.4c0,2.9-4,3.2-5.2,1.2l-21.5-28.9l0.5,8V71c0,2.8-4.4,2.9-4.4,0V38
		c0-2.9,3.2-3.3,4.7-1.2l22.2,29.7l-0.6-8.7V37.3h-0.1c0-2.4,4.4-2.5,4.4,0V70.4z M354,56.2c-1.3,0-2.4-1.1-2.4-2.4
		c0-1.3,1.1-2.4,2.4-2.4s2.4,1.1,2.4,2.4C356.4,55.1,355.3,56.2,354,56.2z M397.8,65.9c-1.7,2.3-3.8,4-6.3,5.2
		c-2.7,1.3-5.6,2-8.6,2.1c-9.9,0-18.7-8.1-18.7-19.5c-0.1-9.1,6.6-17,15.6-18.3c6.7-0.9,12.6,0.8,17.2,5.5c1.7,2-1.4,4.3-3,2.6
		c-3.9-4.2-8.5-4.8-13.5-4.2c-7.1,1.1-12.1,6.1-12.1,14.5c0,8.8,6.7,15.4,14.7,15.4c2.3,0,4.6-0.6,6.7-1.7c1.8-0.9,3.4-2.3,4.7-3.9
		C395.8,61.6,399.3,63.8,397.8,65.9z M435.9,73.2c-10.4,0-18.7-7.4-18.7-19.6c-0.2-9,6.3-16.8,15.3-18.2c2-0.3,4.1-0.3,6.1,0
		c9,1.3,15.8,9.1,15.7,18.2C454.3,65.6,445.7,73.2,435.9,73.2z M513.2,71c-0.1,1.2-1.1,2-2.2,2c-1-0.1-1.9-0.9-2-2V44.8l-11.8,18.4
		c-0.5,1.1-1.8,1.6-2.9,1.1c-0.5-0.2-0.9-0.6-1.1-1.1l-11.7-18.3V71c0,1.2-0.9,2.1-2.1,2.1s-2.1-0.9-2.1-2.1V37.8
		c-0.3-1.1,0.4-2.2,1.5-2.5c1.1-0.3,2.2,0.4,2.5,1.5l14.1,21.9l13.8-21.9c1.3-2.1,4-1.4,4,1V71z"/>
</g>
</svg>
