<svg xmlns="http://www.w3.org/2000/svg" width="566" height="109" viewBox="0 0 566 109">
    <g fill="none" fill-rule="evenodd">
        <path fill="#22ABAA" d="M0 0h565.52v108.17H0z"/>
        <path fill="#FFF" fill-rule="nonzero" d="M55 72.55a2.61 2.61 0 0 1-2.65-2.48V38.33A2.57 2.57 0 0 1 55 35.91h12.56c11.46 0 17.17 9.16 17.17 18.32S79 72.55 67.56 72.55H55zm1.5-3.75h11.06c8.64 0 13-7.32 13-14.58s-4.32-14.63-13-14.63H56.5v29.22-.01zM109.8 62.87L105.13 72c-1 2.13-4.84.64-3.8-1.67L118.73 36a2 2 0 0 1 1.9-1.1 2 2 0 0 1 1.84 1.1l17.34 34.11c1.5 2.48-2.77 3.92-3.86 1.67l-4.49-8.93H109.8v.02zm10.83-21.78l-9.1 18.15h18.15l-9.05-18.15z"/>
        <path fill="#FFF" d="M166.72 57.74l-14.58-19.3c-1.73-2.3 2.07-4.44 3.63-2.13l13 17.8L182 36.25c1.44-2.19 5-.34 3.46 2.07L171 57.74v12.91a2.08 2.08 0 0 1-2.13 2.13 2 2 0 0 1-2.13-2.13V57.74h-.02zM234 35.85a2 2 0 0 1 0 4h-12.83c0 10.37.06 20.92.06 31.29a2.13 2.13 0 0 1-2.23 2.1 2 2 0 0 1-2-2.13V39.83h-12.83a2 2 0 0 1 0-4H234v.02z"/>
        <path fill="#FFF" fill-rule="nonzero" d="M250.9 53.6c-.21-9.045 6.327-16.84 15.27-18.21a24 24 0 0 1 6.11 0c9.045 1.306 15.749 9.071 15.72 18.21 0 12-8.64 19.59-18.44 19.59-10.37 0-18.67-7.37-18.67-19.59m4.32.17c0 9.45 6.22 15.44 14.35 15.44 7.78 0 14.17-5.76 14.17-15.44 0-7.43-4.9-13.37-12-14.52a18.26 18.26 0 0 0-5 0c-7 1.1-11.52 6.68-11.52 14.52"/>
        <path fill="#FFF" d="M335.88 37.29c0-2.42 4.38-2.54 4.38 0v33.07c0 2.88-4 3.17-5.19 1.15l-21.54-28.86.46 8v20.29c0 2.82-4.38 2.88-4.38 0v-33c0-2.88 3.23-3.34 4.67-1.21l22.18 29.67-.58-8.7V37.29z"/>
        <path fill="#556771" d="M356.4 53.84a2.42 2.42 0 1 1-2.4-2.42 2.41 2.41 0 0 1 2.42 2.42M391.54 71.11a21.59 21.59 0 0 1-8.64 2.07c-9.85 0-18.72-8.07-18.72-19.48-.083-9.141 6.571-16.951 15.61-18.32 6.74-.92 12.62.75 17.17 5.53 1.73 2-1.38 4.32-3 2.59-3.92-4.15-8.47-4.78-13.54-4.21-7.09 1.1-12.1 6.11-12.1 14.46 0 8.76 6.74 15.44 14.69 15.44a15.28 15.28 0 0 0 6.68-1.67 14.63 14.63 0 0 0 4.73-3.86c1.33-2 4.84.17 3.34 2.31a16.42 16.42 0 0 1-6.22 5.13"/>
        <path fill="#556771" fill-rule="nonzero" d="M417.23 53.6c-.21-9.045 6.327-16.84 15.27-18.21a24 24 0 0 1 6.11 0c9.05 1.301 15.758 9.068 15.73 18.21 0 12-8.64 19.59-18.44 19.59-10.37 0-18.67-7.37-18.67-19.59m4.32.17c0 9.45 6.22 15.44 14.35 15.44 7.78 0 14.17-5.76 14.17-15.44 0-7.43-4.9-13.37-12-14.52a18.26 18.26 0 0 0-5 0c-7 1.1-11.52 6.68-11.52 14.52"/>
        <path fill="#556771" d="M509.19 36.77c1.33-2.08 4-1.38 4 1V71a2.1 2.1 0 0 1-4.19 0V44.78l-11.79 18.38a2.2 2.2 0 0 1-4 0l-11.73-18.32V71a2.105 2.105 0 0 1-4.21 0V37.81a2.023 2.023 0 0 1 3.92-1l14.06 21.89 13.94-21.93z"/>
    </g>
</svg>
