<svg xmlns="http://www.w3.org/2000/svg" xmlns:xlink="http://www.w3.org/1999/xlink" width="598" height="337" viewBox="0 0 598 337">
    <defs>
        <path id="prefix__a" d="M7.692 0h582.616c2.675 0 3.645.278 4.623.801.977.523 1.745 1.29 2.268 2.268.523.978.801 1.948.801 4.623v321.187c0 2.675-.278 3.645-.801 4.623-.523.977-1.29 1.745-2.268 2.268-.978.523-1.948.801-4.623.801H7.692c-2.675 0-3.645-.278-4.623-.801-.977-.523-1.745-1.29-2.268-2.268-.523-.978-.801-1.948-.801-4.623V7.692c0-2.675.278-3.645.801-4.623.523-.977 1.29-1.745 2.268-2.268C4.047.278 5.017 0 7.692 0z"/>
    </defs>
    <g fill="none" fill-rule="evenodd">
        <mask id="prefix__b" fill="#fff">
            <use xlink:href="#prefix__a"/>
        </mask>
        <use fill="#DEDEDE" fill-rule="nonzero" xlink:href="#prefix__a"/>
        <g fill="#FFF" mask="url(#prefix__b)">
            <g>
                <path fill-rule="nonzero" d="M42.046 56c-1.087.018-1.992-.82-2.046-1.895V29.85c.062-1.063.97-1.884 2.046-1.849h9.697c8.848 0 13.257 7 13.257 14S60.576 56 51.743 56h-9.697zm1.158-2.866h8.54c6.67 0 10.036-5.593 10.036-11.141s-3.335-11.18-10.037-11.18h-8.539v22.329-.008zM84.656 48.275l-3.595 6.944c-.77 1.62-3.725.486-2.925-1.27l13.394-26.11c.275-.542.85-.87 1.463-.837.596-.015 1.148.31 1.416.837l13.348 25.942c1.154 1.886-2.132 2.982-2.971 1.27l-3.457-6.791H84.656v.015zm8.337-16.565l-7.005 13.804h13.971L92.993 31.71z" transform="translate(82 127)"/>
                <path d="M128.44 44.369l-11.103-14.921c-1.318-1.779 1.576-3.433 2.764-1.647l9.9 13.761 10.076-13.808c1.096-1.693 3.807-.262 2.635 1.6L131.7 44.37v9.98c.01.44-.157.866-.464 1.177-.306.311-.725.481-1.159.47-.438.03-.868-.133-1.179-.449-.31-.315-.472-.752-.443-1.197v-9.981h-.015zM179.463 28.016c.849 0 1.537.694 1.537 1.55 0 .856-.688 1.55-1.537 1.55h-9.86c0 8.038.046 16.216.046 24.254-.006.448-.192.874-.515 1.18-.323.308-.756.47-1.2.448-.425.001-.832-.176-1.123-.489-.291-.313-.441-.734-.413-1.162V31.101h-9.86c-.85 0-1.538-.695-1.538-1.55 0-.857.688-1.551 1.537-1.551h22.926v.016z" transform="translate(82 127)"/>
                <path fill-rule="nonzero" d="M193.008 41.048c-.164-6.904 4.944-12.854 11.933-13.899 1.585-.199 3.19-.199 4.774 0 7.069.996 12.308 6.924 12.285 13.899C222 50.207 215.248 56 207.59 56 199.486 56 193 50.375 193 41.048m3.376.13c0 7.212 4.86 11.784 11.214 11.784 6.08 0 11.073-4.396 11.073-11.784 0-5.671-3.829-10.205-9.377-11.083-1.297-.175-2.611-.175-3.908 0-5.47.84-9.002 5.099-9.002 11.083" transform="translate(82 127)"/>
                <path d="M258.57 28.452c0-1.863 3.43-1.956 3.43 0v25.456c0 2.217-3.132 2.44-4.064.885L241.07 32.578l.36 6.158v15.619c0 2.17-3.429 2.217-3.429 0V28.952c0-2.217 2.53-2.571 3.657-.931l17.367 22.839-.454-6.697V28.452zM273.984 41c0 .81-.488 1.54-1.234 1.85-.746.308-1.604.134-2.172-.442-.569-.575-.735-1.438-.422-2.185.314-.747 1.045-1.23 1.852-1.223.53-.002 1.037.208 1.411.583.374.376.583.886.581 1.417M300.956 54.422c-2.072.977-4.326 1.514-6.618 1.578-7.544 0-14.337-6.152-14.337-14.85-.064-6.968 5.033-12.922 11.955-13.965 5.163-.702 9.666.571 13.151 4.215 1.325 1.525-1.057 3.293-2.298 1.975-3.002-3.164-6.487-3.644-10.37-3.21-5.43.839-9.268 4.658-9.268 11.023 0 6.678 5.163 11.77 11.252 11.77 1.78-.031 3.53-.466 5.116-1.273 1.402-.716 2.636-1.719 3.623-2.942 1.018-1.525 3.707.13 2.558 1.76-1.237 1.678-2.874 3.022-4.764 3.911" transform="translate(82 127)"/>
                <path fill-rule="nonzero" d="M320.004 41.048c-.164-6.904 4.943-12.854 11.931-13.899 1.585-.199 3.19-.199 4.774 0 7.07.993 12.313 6.921 12.291 13.899C349 50.207 342.249 56 334.592 56c-8.103 0-14.588-5.625-14.588-14.952m3.375.13c0 7.212 4.86 11.784 11.213 11.784 6.079 0 11.072-4.396 11.072-11.784 0-5.671-3.83-10.205-9.377-11.083-1.296-.175-2.61-.175-3.906 0-5.47.84-9.002 5.099-9.002 11.083" transform="translate(82 127)"/>
                <path d="M391.887 28.137c1.035-1.595 3.113-1.058 3.113.767v25.482c-.06.844-.771 1.5-1.63 1.5-.859 0-1.571-.656-1.63-1.5V34.279l-9.175 14.095c-.279.6-.887.984-1.556.984-.67 0-1.278-.384-1.556-.984l-9.128-14.049v20.06c0 .892-.733 1.615-1.638 1.615-.905 0-1.638-.723-1.638-1.614V28.935c-.14-.537.023-1.107.426-1.494.402-.387.983-.533 1.525-.383.541.15.96.573 1.1 1.11l10.94 16.786 10.847-16.817z" transform="translate(82 127)"/>
            </g>
        </g>
    </g>
</svg>
