<svg xmlns="http://www.w3.org/2000/svg" xmlns:xlink="http://www.w3.org/1999/xlink" version="1.1" id="Layer_1" x="0px" y="0px" style="enable-background:new 0 0 1028 800;" xml:space="preserve" viewBox="167 53 694 694">
<style type="text/css">
	.st0{fill:#0085CA;}
	.st1{fill:#FFFFFF;}
</style>
<circle cx="514" cy="400" r="347"/>
<circle class="st0" cx="514" cy="400" r="194.3"/>
<path class="st1" d="M514,726.2c-179.9,0-326.2-146.3-326.2-326.2S334.1,73.8,514,73.8S840.2,220.1,840.2,400S693.9,726.2,514,726.2  z M833.2,400C833.2,224,690,80.8,514,80.8S194.8,224,194.8,400S338,719.2,514,719.2S833.2,576,833.2,400z"/>
<path class="st1" d="M514,622.1c-122.5,0-222.1-99.6-222.1-222.1S391.5,177.9,514,177.9S736.1,277.5,736.1,400  S636.5,622.1,514,622.1z M729.1,400c0-118.6-96.5-215.1-215.1-215.1S298.9,281.4,298.9,400S395.4,615.1,514,615.1  S729.1,518.6,729.1,400z"/>
<path class="st1" d="M603.2,498.4l-4.2,11.9c-0.5,1.5-1.6,2.7-3.1,3.3c-7.3,3-32.2,11.6-79.4,11.6c-47.8,0-76.6-9.4-84.7-12.5  c-1.5-0.6-2.7-1.8-3.2-3.3l-4-11.7c-0.3-0.9,0.2-2,1.1-2.3c0.3-0.1,0.7-0.1,1.1,0c28.4,7.7,57.8,11.5,87.2,11.4  c29.3,0.1,58.6-3.5,87-10.7c1-0.3,1.9,0.3,2.2,1.3C603.3,497.6,603.3,498,603.2,498.4z M514,492.8c47.2,0,83.4-10.1,93.2-13.1  c1.7-0.5,3-1.8,3.6-3.5L660,333.6c-0.4-1.4-1.4-2.5-2.7-3.1c-2.4-1.2-5.2-0.3-6.6,2c-10.9,18.5-21.9,24.2-25.5,26l-0.1,0.1  c-2.3,1.2-3.5,3.8-2.9,6.3c0,0,0,0.1,0,0.2v0.1c0.2,0.9,0.5,2.2,0.7,3.8c0.2,1.4,0.3,3.2,0.5,5.2c0.3,4.2,0.2,8.4-0.4,12.5  c-10.3,6.4-24.2,12.5-35.2,8.5c-8.7-3.2-15.4-16.9-17.8-45.5c2.8-5.4,6.5-10.3,11-14.5l0.1-0.1c1.9-1.8,2.4-4.5,1.2-6.8  c0,0,0-0.1-0.1-0.1l-0.1-0.1c-0.4-0.8-1-2-1.7-3.5c-0.5-1.3-1.1-3-1.8-4.9c-1.9-6-3.5-14.9-2.6-27.5c0.3-2.6-1.4-5.1-4-5.8  c-2.7-0.6-5.4,0.9-6.1,3.6c-5.8,20.8-14.9,29.2-17.9,32l-0.1,0.1c-1.9,1.7-2.4,4.5-1.2,6.8l0.1,0.1l0.1,0.1c0.4,0.8,1,2,1.7,3.5  c0.5,1.3,1.1,3,1.8,4.9c1,3.4,1.8,6.9,2.2,10.4c-14.6,27.2-25.3,36.7-38.6,36.8c-13.3-0.1-24-9.6-38.6-36.8c0.4-3.5,1.2-7,2.2-10.4  c0.6-1.9,1.3-3.5,1.8-4.9c0.7-1.5,1.3-2.7,1.7-3.5l0.1-0.1l0.1-0.1c1.2-2.3,0.7-5.1-1.2-6.8l-0.1-0.1c-3-2.8-12.1-11.2-17.9-32  c-0.7-2.6-3.4-4.2-6.1-3.6c-2.6,0.7-4.2,3.1-4,5.8c0.9,12.5-0.7,21.5-2.6,27.5c-0.6,1.9-1.3,3.5-1.8,4.9c-0.7,1.5-1.3,2.7-1.7,3.5  l-0.1,0.1c0,0.1,0,0.1-0.1,0.1c-1.2,2.3-0.7,5.1,1.2,6.8l0.1,0.1c4.5,4.1,8.2,9,11,14.5c-2.4,28.6-9.1,42.4-17.8,45.5  c-11,4-24.9-2.2-35.2-8.5c-0.6-4.1-0.8-8.4-0.4-12.5c0.1-2,0.3-3.7,0.5-5.2c0.2-1.6,0.5-2.9,0.7-3.8v-0.1c0,0,0-0.1,0-0.2  c0.5-2.5-0.7-5.1-2.9-6.3l-0.1-0.1c-3.6-1.9-14.6-7.6-25.5-26c-1.3-2.3-4.2-3.2-6.6-2c-1.3,0.6-2.3,1.8-2.7,3.1l48.9,141.7  c0.6,1.6,1.8,2.9,3.5,3.4C430.1,481.9,466.9,492.8,514,492.8z M444.1,443.8c6.6,0,11.9,5.3,11.9,11.9s-5.3,11.9-11.9,11.9  c-6.6,0-11.9-5.3-11.9-11.9l0,0C432.2,449.1,437.5,443.8,444.1,443.8C444.1,443.8,444.1,443.8,444.1,443.8L444.1,443.8z   M583.9,443.8c6.6,0,11.9,5.4,11.8,11.9c0,6.6-5.4,11.9-11.9,11.8s-11.9-5.4-11.8-11.9c0,0,0,0,0,0  C572,449.1,577.3,443.8,583.9,443.8C583.9,443.8,583.9,443.8,583.9,443.8L583.9,443.8z M490.7,449.4c6.6,0,11.9,5.3,11.9,11.9  c0,6.6-5.3,11.9-11.9,11.9c-6.6,0-11.9-5.3-11.9-11.9c0,0,0,0,0,0C478.8,454.7,484.1,449.3,490.7,449.4  C490.7,449.3,490.7,449.3,490.7,449.4L490.7,449.4z M537.3,449.4c6.6,0,11.9,5.3,11.9,11.9s-5.3,11.9-11.9,11.9s-11.9-5.3-11.9-11.9  l0,0C525.4,454.7,530.7,449.3,537.3,449.4C537.3,449.3,537.3,449.3,537.3,449.4L537.3,449.4z"/>
<path class="st1" d="M321,232.4c0.4,5.5-1.7,12.2-6.6,17.8c-7.2,8.4-19.5,8.4-28.9,0.3c-9.7-8.3-11.1-20.8-3.8-29.4  c3.6-4.2,8.4-7.2,13.6-8.8l0.1-0.2l-8.2-7.1c-3.9,2.4-7.5,5.5-10.5,9c-12,14-12.8,33.2,2,45.9c12.7,10.9,30,10.4,41.6-3.1  c4.3-4.8,7.3-10.7,8.7-17l-7.9-7.6L321,232.4z"/>
<path class="st1" d="M366.4,188.2l-16.6-19.8c-4.7-5.6-7-9.5-9-14.7l-11.9,9.9c4.7,2.9,8.2,5.9,12.9,11.5l5.3,6.4l-18.2,15.2  l-5.3-6.3c-4.7-5.6-7.1-9.5-9-14.7l-11.9,9.9c4.7,2.9,8.2,5.9,12.9,11.5l16.3,19.4c4.7,5.6,7,9.5,9,14.7l11.5-10.3  c-4.7-2.9-8.2-5.9-12.9-11.5l-5-6l18.2-15.2l5.1,6.1c4.7,5.6,7,9.5,9,14.7l12.5-9.2C374.5,196.8,371,193.8,366.4,188.2z"/>
<path class="st1" d="M473.6,136c6.2-4.7,9.1-10.6,7.8-17.6c-1.7-9.2-10.8-15.6-26.2-12.8l-14.4,2.6c2.7,4.8,4.2,9.2,5.5,16.3  l4.5,24.9c1.3,7.1,1.4,11.8,0.5,17.2l15.4-3.6c-2.7-4.8-4.2-9.2-5.5-16.3l-1.7-9.3c6.5,6.8,12.4,12.5,17.7,17  c3.8,3.2,7.1,5.1,9.3,5.5l9.9-1l0-0.3C486.9,150.2,480.2,143.9,473.6,136z M459.4,136.4l-4.4-24.3c7.6-1.4,14.5,2.1,15.9,9.4  C471.9,127.1,468.2,132.6,459.4,136.4L459.4,136.4z"/>
<path class="st1" d="M521.8,151.4l1.4-34.4c0.3-7.2,1.2-11.8,3.2-16.9l-15.7-0.6c1.6,5.3,2.1,9.9,1.9,17.2l-1,25  c-0.3,7.2-1.2,11.8-3.2,17l30.7,1.1l5.8-12.7l-0.1-0.1C539.6,149.1,529.2,151.1,521.8,151.4z"/>
<path class="st1" d="M598.1,111c-17.1-5-34.2,4.4-38.9,20.7c-4.4,14.9,3,32.4,21.6,37.8c17.3,5,34.4-3.5,39.5-20.9  S614.8,115.9,598.1,111z M608.2,148c-3.1,10.7-12.7,17.3-23.1,14.2c-12.6-3.6-17.6-17.4-13.9-29.8c3.4-11.8,13.5-16.8,22.7-14.1  C605.7,121.7,611.9,135.3,608.2,148z"/>
<path class="st1" d="M673.9,159.1l10.1-7.7l-40.4-23.1l-9.3,8.9l0.1,0.2c6.6,0.2,13.1,2.1,18.8,5.4l-16.7,29.3  c-3.6,6.3-6.4,10-10.7,13.6l13.7,7.8c1-5.4,2.7-9.8,6.2-16.1l16.7-29.3C668.1,151.6,671.5,154.9,673.9,159.1z"/>
<path class="st1" d="M721.3,198.5l11.5-5.4l-34.7-31l-10.9,6.8v0.2c6.4,1.6,12.3,4.8,17.2,9.3l-22.4,25c-4.8,5.4-8.4,8.4-13.3,11  l11.7,10.5c2.1-5.1,4.7-9,9.5-14.4l22.5-25C717.2,189.9,719.8,193.9,721.3,198.5z"/>
<path class="st1" d="M430.3,159.7L405,136.2c-3.9-3.4-7.5-7.2-10.9-11.2l-8.4,3.8c0.8,5.2,1.1,10.4,1,15.7v35  c0,7.4-0.5,11.7-1.7,15.9l0.1,0.2l14.5-8.3c-0.4-0.6-0.7-1.1-1-1.7c-0.9-2.1-1.4-4.8-1.6-8.9l23.9-10.9c3.2,3.1,4.8,5,5.7,7.1  c0.3,0.6,0.5,1.2,0.6,1.9l15.6-5.8l-0.1-0.2C438.3,166.4,434,163.4,430.3,159.7z M414.4,159.2l-17.4,7.9l-0.4-24.9L414.4,159.2z"/>
<path class="st1" d="M743.6,206.1c-3.1,4.6-6.3,7.9-12.1,12.3l-19.9,15.1c-5.8,4.4-9.9,6.6-15.2,8.3l24.1,32.7l13-3.4v-0.2  c-6.8-3.9-13-9.6-19.7-18.8l-3.3-4.5l14.6-11l3.3,4.4c3.8,5.3,6.7,10.6,7.5,14.1l11.8-1.4L731.3,232l14.3-10.8l3.4,4.4  c4,5.2,6.6,11.4,7.5,17.9l12.1-2.7L743.6,206.1z"/>
<path class="st1" d="M292.2,550.6l11.2-7.7c2.5,3.6,4.4,7.8,4.7,10.6l8.2-1l-13.9-20.2c-2.4,3.3-5.5,6.1-8.9,8.4l-14.8,10.2  c-3.3,2.5-7,4.3-11,5.4l6.3,9.2c2.4-3.3,5.5-6.1,9-8.4l4.9-3.4c2.6,3.8,4,6.8,4.2,9.5l8.1-1.1L292.2,550.6z"/>
<path class="st1" d="M335.7,573.5c-8.8-9-22.7-9.2-31.3-0.8c-7.9,7.7-9.4,21.1,0.1,30.9c8.9,9.2,22.5,9.8,31.7,0.9  S344.3,582.3,335.7,573.5z M329.1,599.8c-5.7,5.5-13.9,6.2-19.2,0.7c-6.5-6.6-4.8-16.9,1.8-23.3c6.2-6.1,14.2-5.7,18.9-0.8  C336.7,582.7,335.8,593.3,329.1,599.8z"/>
<path class="st1" d="M375.8,606.9c-10.5-7-24.1-4.3-30.8,5.6c-6.1,9.2-4.9,22.5,6.5,30.2c10.6,7.1,24,5,31.2-5.7  S386,613.7,375.8,606.9z M374.7,634c-4.4,6.5-12.3,9-18.6,4.7c-7.7-5.2-8.1-15.5-3-23.1c4.9-7.2,12.7-8.5,18.4-4.7  C378.6,615.7,379.9,626.2,374.7,634z"/>
<path class="st1" d="M401.3,623l-5.9,7l0,0.1c4.7-0.3,9.4,0.5,13.7,2.4l-9.7,22.5c-1.5,3.8-3.7,7.4-6.5,10.4l10.3,4.5  c0.3-4.1,1.4-8.1,3.2-11.9l9.7-22.5c3.5,1.4,6.6,3.7,8.9,6.8l6.6-6.2L401.3,623z"/>
<path class="st1" d="M536.3,685.1l-2-24.3c-0.5-4.1-0.2-8.2,0.8-12.2l-11.1,0.9c1.7,3.8,2.6,7.8,2.8,11.9l1.5,17.9  c0.5,4.1,0.2,8.2-0.8,12.2l21.6-1.8l3.1-9.8l-0.1-0.1C548.7,681.9,541.5,684.2,536.3,685.1z"/>
<path class="st1" d="M575.6,679.3l-5.4-23.8c-1-4-1.4-8.1-0.9-12.2l-10.9,2.5c2.2,3.5,3.7,7.4,4.4,11.4l4,17.5c1,4,1.4,8.1,0.9,12.2  l21.2-4.8l1.7-10.2l-0.1-0.1C587.4,674.4,580.7,677.7,575.6,679.3z"/>
<path class="st1" d="M653.3,644.8c-1.8,4.4-5.2,7.9-9.5,9.9c-7.2,3.5-15.3,0.2-19.2-7.8c-4-8.2-1.4-16.7,6-20.3  c3.6-1.7,7.6-2.4,11.6-2l0.1-0.1l-3.4-6.9c-3.3,0.5-6.5,1.5-9.5,3.1c-12,5.9-18,18.3-11.9,30.7c5.2,10.7,16.8,15.1,28.4,9.4  c4.3-2,7.9-5,10.7-8.8l-3.1-7.2L653.3,644.8z"/>
<path class="st1" d="M688.4,621.9c-1.9,3.5-6.8,9.2-10.9,12.6l-14.1-19.9c-2.5-3.3-4.4-7-5.5-10.9l-9.1,6.4c3.3,2.4,6.2,5.4,8.5,8.8  l10.4,14.7c2.5,3.3,4.4,7,5.5,10.9l17.7-12.5l-2.3-10L688.4,621.9z"/>
<path class="st1" d="M707.5,576.5c-3-2.8-5.4-6.2-7.1-9.9l-8,7.8c3.7,1.9,7,4.4,9.7,7.4l10.4,10.7c3.5,3.5,3.5,9.1,0.1,12.6  c-0.1,0.1-0.2,0.2-0.3,0.2c-3.4,3.3-8,3.3-12.8-1.7l-9.7-10c-3-2.8-5.4-6.2-7.1-9.9l-8,7.8c3.7,1.9,7,4.4,9.7,7.4l9.6,9.9  c7.6,7.9,14.9,8.8,20.8,3c2.7-2.7,4.6-6.5,5.6-11.8c1,1,1.9,2.1,2.7,3.3l6.8-6.6c-3.7-1.9-7-4.4-9.7-7.4L707.5,576.5z"/>
<path class="st1" d="M455,642.5l-14.2-3.9c0.3,4.1-0.2,8.2-1.4,12.2l-4.7,17.4c-0.9,4-2.6,7.8-4.9,11.2l14.3,3.9  c8.2,2.2,16.4-0.6,18.2-7.5c1.2-4.4-0.4-8.1-4.4-12.2c3.8-1.2,6.6-3.6,7.5-6.9C467,650.6,463,644.7,455,642.5z M454.7,673.8  c-1.1,4-5.6,6.4-11.6,4.8l-3.1-0.9l4.3-15.7C453.1,664.5,455.9,669.4,454.7,673.8L454.7,673.8z M457.8,655c-0.9,3.4-6,5-12.6,3.2  l3.5-13l3.1,0.9C456.2,647.2,458.9,651.2,457.8,655z"/>
<path class="st1" d="M751.2,550c-3.7-2.8-7.6-2.6-13-0.4c0.3-4-0.9-7.5-3.7-9.5c-5-3.8-12-2.2-17,4.4l-8.8,11.8  c3.9,1.3,7.6,3.2,10.8,5.8l14.4,10.8c3.4,2.4,6.3,5.3,8.6,8.7l8.9-11.8C756.5,562.9,756.9,554.3,751.2,550z M717.8,551.2l2-2.6  c2.6-3.5,7.3-4.5,10.5-2.2c2.8,2.1,2.4,7.4-1.7,12.9L717.8,551.2z M746.7,568.9l-2,2.6l-13-9.8c5.5-7.4,11.2-8.1,14.8-5.4  C749.8,558.8,750.4,563.9,746.7,568.9L746.7,568.9z"/>
<path class="st1" d="M501.3,659.6c-1.3-3.5-2.3-7-3-10.7l-6.6-0.5c-1.3,3.5-3,6.9-4.9,10.1L475,679.5c-1.7,3.4-4,6.5-6.6,9.3v0.2  l11.5,0.9c0-0.5,0-0.9,0-1.4c0.1-1.8,0.9-3.9,2.6-7l0.2-0.4l18.1,1.4l0.1,0.3c1.2,3.7,1.6,5.7,1.5,7.5c0,0.5-0.1,0.9-0.3,1.4  l11.7,0.9v-0.2c-2.2-3-3.8-6.4-4.9-10L501.3,659.6z M485.9,675l7.8-14.7h0.3l4.9,15.6L485.9,675z"/>
<path class="st0" d="M770,313.9c2.7-0.9,5.7,0.7,6.5,3.4c0.9,2.7-0.6,5.6-3.3,6.5c0,0-0.1,0-0.1,0c-1.3,0.4-2.7,0.3-4-0.3  c-1.3-0.6-2.2-1.7-2.6-3.1C765.8,317.7,767.3,314.8,770,313.9L770,313.9z"/>
<path class="st0" d="M769,338.5l11.8,9.1c2.5,1.9,3.8,2.4,5.5,2c1.9-0.4,2.9-2,2.4-4.3c-0.4-2-1.9-3.3-3.8-2.9  c-0.6,0.1-1.1,0.4-1.6,0.7l-2.4-6.3c0.9-0.6,1.9-1,2.9-1.2c2.2-0.4,4.5,0.2,6.3,1.7c2.1,1.8,3.5,4.3,3.9,7  c1.3,6.4-1.1,10.8-5.7,11.7c-3.3,0.7-6-0.4-9.9-3.3l-6.3-4.7l2.2,10.9l-5.4,1.1l-4.1-20.6L769,338.5z"/>
<path class="st0" d="M786,396.7c-3.8,0.4-7.5-0.8-10.4-3.3c-5.4-5.4-5.9-14-1.1-19.9c2.4-2.7,5.8-4.1,10-4.4s7.7,0.9,10.4,3.3  c5.4,5.4,5.8,14,1,19.9C793.4,395.1,789.8,396.6,786,396.7z M777,383.3c0,1.9,0.9,3.7,2.5,4.9c1.8,1.2,4,1.8,6.1,1.6  c2.2,0,4.3-0.8,6-2.2c1.4-1.3,2.1-3.2,1.9-5.1c0-1.9-0.9-3.7-2.5-4.9c-1.8-1.2-3.9-1.8-6.1-1.6c-2.2,0-4.3,0.8-5.9,2.2  C777.6,379.5,776.9,381.4,777,383.3L777,383.3z"/>
<path class="st0" d="M776,408.6l9,11.9c1.9,2.5,3,3.3,4.7,3.4c1.9,0.1,3.3-1.2,3.5-3.5c0.2-2-1-3.7-2.9-3.8c-0.6,0-1.2,0.1-1.7,0.3  l-0.6-6.8c1-0.3,2-0.4,3.1-0.4c2.3,0.2,4.3,1.4,5.6,3.2c1.6,2.3,2.2,5.1,1.9,7.8c-0.5,6.5-3.9,10.1-8.5,9.8c-3.4-0.2-5.7-2-8.7-5.8  l-4.8-6.3l-0.8,11.1l-5.5-0.4l1.5-20.9L776,408.6z"/>
<path class="st0" d="M772.7,442.4l7.4,13c1.5,2.7,2.6,3.6,4.2,4c1.8,0.4,3.4-0.7,3.9-3c0.4-2-0.5-3.8-2.3-4.2  c-0.6-0.1-1.2-0.1-1.8,0l0.2-6.8c1-0.2,2.1-0.2,3.1,0c2.2,0.5,4.1,2,5.2,4c1.2,2.5,1.6,5.3,0.9,8c-1.3,6.4-5.2,9.5-9.7,8.6  c-3.3-0.7-5.4-2.7-7.8-6.8l-4-6.9l-2.2,10.9l-5.4-1.1l4.1-20.6L772.7,442.4z"/>
<path class="st0" d="M772.8,477.5c2.7,0.9,4.3,3.8,3.4,6.6c-0.8,2.7-3.7,4.3-6.4,3.4c0,0-0.1,0-0.1,0c-2.7-0.9-4.2-3.8-3.4-6.6  c0.4-1.3,1.3-2.4,2.6-3C770,477.2,771.5,477,772.8,477.5z"/>
<path class="st0" d="M269.1,481.8l-26.1,7.1l-1.8-6.5l17-12.9l-21.2-2.5l-1.8-6.5l26.1-7.1l1.6,5.9l-14.3,3.9l4.3,0.2l11.6,1.5  l1.5,5.5l-9.2,7.2l-3.6,2.3l14.3-3.9L269.1,481.8z"/>
<path class="st0" d="M260,443.8l-26.7,4.3l-1-6.2l26.7-4.3L260,443.8z"/>
<path class="st0" d="M257.5,427.9l-27,1.7l-0.4-6.2l14.7-10.8c0.6-0.5,1.3-0.9,2-1.3l-17.4,1.1l-0.4-6.1l27-1.7l0.4,6.2l-14.8,10.8  c-0.7,0.5-1.3,0.9-2.1,1.3l17.6-1.1L257.5,427.9z"/>
<path class="st0" d="M234.5,396l-5.5-0.3l1.2-22.2l5.5,0.3l-0.4,8l21.5,1.1l-0.3,6.2l-21.5-1.2L234.5,396z"/>
<path class="st0" d="M258.1,367.5l-26.7-4.4l3.2-19.5l5.4,0.9l-2.2,13.3l4.8,0.8l2-12.2l5.3,0.9l-2,12.2l5.8,1l2.2-13.5l5.4,0.9  L258.1,367.5z"/>
<path class="st0" d="M263.1,339.9l-26-7.5l2.4-8.4c1.2-4.3,3.4-7.5,6.3-9.6s6.6-2.4,10.8-1.2c4.2,1.2,7.1,3.5,8.5,6.8  c1.4,3.3,1.6,7.1,0.3,11.5L263.1,339.9z M260.2,329.4c1.4-4.9-0.5-8.7-5.3-10.1s-8.4,0.8-9.9,5.7l-0.8,2.9l15.2,4.4L260.2,329.4z"/>
</svg>