<svg xmlns="http://www.w3.org/2000/svg" xmlns:xlink="http://www.w3.org/1999/xlink" version="1.1" id="Layer_1" x="0px" y="0px" style="enable-background:new 0 0 1290 927.9;" xml:space="preserve" viewBox="420.7 63.9 448.6 800.1">
<style type="text/css">
	.st0{fill:#FEDD00;}
	.st1{fill:#FFFFFF;}
</style>
<g id="SHIELD">
	<polygon id="OUTLINE" class="st0" points="420.7,158.6 869.3,158.6 801.9,800.2 645,709.6 488.1,800.2  "/>
	<path id="FLAG" d="M440.7,176.7l62.4,594l141.9-82l141.8,81.9l62.4-594L440.7,176.7z"/>
</g>
<g id="DETAIL">
	<path class="st1" d="M801.1,334.2L810,249l-70.8-40.9H550.8L480,249l49.4,470.2l246.1-142.1l11-104.7l-70.8-40.9l-9.2,87.1   l-116.1,67l-30.7-292.2h170.5l-9.2,87.1L801.1,334.2z M709.5,697.4l-7.9-4.5v-6.8l7.9-4.6l0.1,8l15.7-0.1l-0.1-16.5l-10.3,6.2   l-13.3-7.5v-23.8l7.9-4.6h15.8l8,4.5v45.2l-8,4.6L709.5,697.4z M709.6,666.7l5.3,3l10.3-6.1V651l-15.6,0.1V666.7z M749.1,697.4   l-7.9-4.5l-0.1-45.2l7.9-4.6h15.8l8,4.5v6.8l-8,4.6l-0.1-7.9l-15.7,0.1l0.1,16.4l10.4-6.1l13.3,7.5v23.7l-8,4.6L749.1,697.4z    M749.1,676.8v12.7l15.7-0.1l-0.1-15.6l-5.2-2.9L749.1,676.8z"/>
	<path d="M736.7,863.9L719,853.8l-17.5,10.1h-10.3l-0.1-66.2l10.3-6l0.1,60.2l12.5-7.2v-47l10.3-0.1l0.1,47.2l12.4,7.2l-0.1-60.1   l10.5,5.8V864L736.7,863.9z M645.5,863.9l-0.1-70.7l31.7-0.1l6,10.4l-27.4,0.1l0.1,19.8l15.4-0.1l6,10.4l-21.5,0.2l0.1,19.7   l27.2-0.1l0.1,10.4L645.5,863.9z M625.1,863.9l-0.1-25.2l-8.2-4.7l-12.3,7.1v22.8l-10.3,0.1l-0.1-70.7l30.9-0.1l10.4,5.9v24.1   L627,828l8.3,4.6v31.3H625.1z M604.6,829.2l20.4-12v-13.5l-20.4,0.1V829.2z M553.2,863.9l-10.3-5.9v-58.9l10.3-6h20.6l10.4,5.9v8.9   l-10.4,6l-0.1-10.3l-20.5,0.1l0.1,49.9l20.5-0.1l-0.1-10.2l10.5,5.8v8.9l-10.4,6L553.2,863.9z M818.3,136.1l-10.3-5.9v-8.9l10.3-6   l0.1,10.4l20.5-0.1l-0.1-14.5L808,93.4V71.3l10.3-6h20.6l10.4,5.9v8.9l-10.4,6l-0.1-10.3l-20.5,0.1l0.1,11.6l30.9,17.6v25l-10.4,6   H818.3z M767,136.1l-10.3-5.9V69.9l10.3-6l0.1,61.8l20.5-0.1L787.5,64l10.5,5.8v60.3l-10.4,6H767z M705.4,136.1l-0.1-70.7l30.9-0.1   l10.4,5.9v21.6l-8.4,4.8l8.3,4.6v27.9l-10.4,6H705.4z M715.7,110.8v15l20.5-0.1l-0.1-17.4l-8.1-4.6L715.7,110.8z M715.7,98.8   l20.5-12v-11l-20.4,0.1L715.7,98.8z M684.9,136.1l-0.1-58.7L672,85v51l-10.3,0.1l-0.1-51.2l-13-7.4l0.1,58.5l-10.3,0.1l-0.1-70.7   l10.3-0.1l18.2,10.6l18.1-10.6h10.4l0.1,70.8H684.9z M597.3,136.1l-10.3-5.9V69.9l10.3-6l0.1,61.8l20.5-0.1l-0.1-61.7l10.5,5.8V130   l-10.4,6L597.3,136.1z M543.4,136.1l-0.1-70.7l10.3-0.1l0.1,60.4l27.2-0.1l-5.8,10.4L543.4,136.1L543.4,136.1z M502.3,136.1   l-10.3-5.9V71.3l10.3-6H523l10.4,5.9v58.9l-10.4,6C523,136.1,502.3,136.1,502.3,136.1z M502.4,125.8l20.5-0.1l-0.1-49.9l-20.4,0.1   V125.8z M451,136.1l-10.3-5.9V71.3l10.3-6h20.6l10.4,5.9v8.9l-10.4,6l-0.1-10.3L451,75.9l0.1,49.9l20.5-0.1l-0.1-10.3l10.5,5.8v8.9   l-10.4,6H451z"/>
</g>
</svg>