<svg xmlns="http://www.w3.org/2000/svg" xmlns:xlink="http://www.w3.org/1999/xlink" version="1.0" id="katman_1" x="0px" y="0px" style="enable-background:new 0 0 329 244;" xml:space="preserve" viewBox="83 21.8 163 200.1">
<style type="text/css">
	.st0{fill:#101820;}
	.st1{fill:#FF6B00;}
	.st2{fill:#FFFFFF;}
</style>
<g>
	<path class="st0" d="M164.1,22.1c-0.1,0.1-18.2,11.2-40.4,24.8S83.3,71.8,83.2,71.9L83,72.1c0,97.7,0,99.8,0.1,99.9   c0.1,0.1,18.4,11.3,40.7,25c22.3,13.7,40.6,24.9,40.7,24.9c0.1,0,17.6-10.7,40.7-24.9c22.3-13.7,40.6-24.9,40.7-25   c0.1-0.2,0.1-2.2,0.1-50.1s0-49.9-0.1-50.1c-0.1-0.1-14.9-9.2-32.9-20.3c-18-11.1-36.2-22.2-40.5-24.9c-6.1-3.8-7.8-4.8-8-4.8   C164.3,22,164.2,22,164.1,22.1z"/>
	<path class="st1" d="M125.9,50.9L87.4,74.5v94.9c59.5,36.6,76.9,47.2,76.9,47.3c0.1,0.1,5.6-3.3,38.7-23.6l38.6-23.7l0-94.8   c-59.7-36.7-77.1-47.3-77.1-47.3C164.5,27.2,147.1,37.9,125.9,50.9z"/>
	<path class="st0" d="M127.4,53.5L90.3,76.3v91.3c57.4,35.3,74.1,45.5,74.2,45.5c0,0,16.8-10.2,37.2-22.8l37.1-22.8V76.3   c-56-34.4-72.8-44.7-73.3-45l-1-0.6L127.4,53.5z"/>
	<path class="st1" d="M140.7,60.8c-0.5,0.5-1,1-1,1c0,0,0.8,0.9,1.8,1.9l1.8,1.8l0,26.6l-5.3,5.3l5.4,5.3l0,7.9h2.9v-9.1l-4.1-4.1   l4.1-4.1V64.2c-3.4-3.4-4.4-4.4-4.4-4.4C141.7,59.8,141.2,60.2,140.7,60.8z M150.9,62l-2.2,2.2l0,32h38.5V84.2h-2.9l0,9l-32.6,0   V65.4l3.6-3.5c-1.5-1.6-2-2.1-2-2.1C153.1,59.8,152.1,60.8,150.9,62z M181.7,60.8l-1,1l3.6,3.5v5.6h2.9v-6.7   c-3.4-3.4-4.4-4.4-4.4-4.4C182.7,59.8,182.2,60.3,181.7,60.8z M191.9,62l-2.2,2.2l0,6.7h2.9v-5.5c2.7-2.7,3.5-3.5,3.5-3.6   c0,0-0.4-0.5-1-1c-0.5-0.5-1-1-1-1C194.1,59.8,193.1,60.8,191.9,62z M118.2,68.8l-1,1c1.3,1.3,2.7,2.8,4,4.1l2.4,2.4h17.1v-2.9   h-15.9c-4.4-4.4-5.6-5.6-5.7-5.6C119.2,67.8,118.7,68.2,118.2,68.8z M154.1,74.9v1.4H201l9.7,9.8v22.6l-9.7,9.8h-6v2.9h7.1   l11.5-11.5V84.9l-11.4-11.5h-48.1V74.9z M123.7,97.4V116l2.9,0l0-37.1h-2.9V97.4z M129.1,97.4V116h52.6V113H132V81.8l8.8,0l0-2.9   h-11.6V97.4z M154.1,80.3l0,1.4l44.7,0l6.6,6.6v18l-6.6,6.6h-3.6v2.9h4.8l8.4-8.4V87.1l-8.3-8.3h-45.9L154.1,80.3z M189.7,88.7v4.5   l4.2,4.2l-4.2,4.2v29l4.5,4.5l2-2l-3.6-3.6v-26.6c4.2-4.1,5.4-5.3,5.4-5.3c0-0.1-1.2-1.3-2.7-2.7l-2.6-2.7v-7.8h-2.9V88.7z    M148.7,104.6v6l2.9,0l0-9h32.7v27.8l-3.6,3.6l2.1,2.1l4.4-4.4v-32h-38.5V104.6z M120.5,121.6c-1.8,1.8-3.2,3.2-3.2,3.3   c0,0,0.5,0.5,1,1.1l1,1l5.8-5.7h56.8v-2.9l-58.1,0L120.5,121.6z M143.3,126.6v2.7c-3.4,3.4-3.6,3.6-3.5,3.8c0.1,0.1,0.5,0.6,1.1,1   l0.9,0.9l4.4-4.4v-6.7h-2.9V126.6z M148.7,127.2l0,3.4l4.4,4.4l2-2c-0.7-0.8-1.5-1.6-2.2-2.3l-1.3-1.3v-5.5h-2.9V127.2z"/>
	<path class="st2" d="M102.6,151.9v9.9h3.5v-8.7h7.2v8.7h3.5V142h-3.5l0,7.9l-7.1,0V142h-3.5V151.9z M123.2,143.6l-1.7,1.7l0,13.2   l3.3,3.3h8l3.4-3.4v-13.1l-3.4-3.4h-8L123.2,143.6z M140.9,150.3v8.3l3.3,3.3h7.7l3.3-3.3V142h-3.3l0,15.1l-1.5,1.5l-4.5,0   l-1.5-1.5V142h-3.5L140.9,150.3z M161.1,143.7l-1.7,1.7l0,4.8l3.3,3.3h6l1.5,1.5v2l-1.5,1.5h-4.9l-2.5-2.4l-2.5,2.5l3.3,3.2l8.3,0   l3.3-3.3v-5l-3.3-3.3h-5.9l-1.6-1.6v-1.8l1.5-1.5h4.2l2.2,2.2l2.4-2.5l-3.1-3.1h-7.5L161.1,143.7z M175.8,142.1c0,0.1,0,0.8,0,1.7   l0,1.5l5.5,0v16.5h3.6v-16.5h5.5V142C177.3,142,175.8,142,175.8,142.1z M194.5,143.6l-1.7,1.7l0,13.2l3.3,3.3h8l3.3-3.3v-13.2   l-3.3-3.3h-8L194.5,143.6z M212.3,151.9v9.9h3.3c0-11.9,0-13.2,0.1-13.1c0.1,0.1,1.6,3.1,3.4,6.6l3.3,6.5h3.9V142h-3.3   c0,12.6,0,13.3-0.1,13.2c-0.1-0.1-1.6-3.1-3.4-6.7l-3.3-6.5h-4.1V151.9z"/>
	<path class="st0" d="M125.8,146.1l-0.7,0.7l0,10.3l1.5,1.5h4.6l1.5-1.5v-10.3l-1.4-1.4h-4.7L125.8,146.1z M197.1,146.1l-0.7,0.7   l0,10.3l1.5,1.5h4.6l1.5-1.5l0-10.3l-1.4-1.4h-4.7L197.1,146.1z"/>
	<path class="st2" d="M177.6,167.4l-0.8,0.8l0,6.9l1.6,1.6l5,0l1.6-1.6v-7l-1.5-1.5h-5.1L177.6,167.4z M200.5,167.4l-0.8,0.8l0,6.9   l1.6,1.6l5.1,0l1.5-1.5c-1.3-1.3-1.7-1.7-1.8-1.7c0,0-0.3,0.3-0.7,0.6l-0.6,0.6l-1.8,0l-0.5-0.5l0-5c0.4-0.4,0.5-0.4,1.4-0.4h0.9   l1.1,1l1.9-1.7l-1.5-1.5h-4.9L200.5,167.4z M121.6,171.7v5h6.6l1.6-1.6v-6.8l-1.6-1.6h-6.6V171.7z M131.4,166.8   c0,0,0.7,1.5,1.5,3.3l1.5,3.3v3.3h3v-3.3c2.3-5,2.9-6.5,2.9-6.6c0-0.1-0.3-0.1-1.2-0.1h-1.2c-1.2,2.9-1.6,3.9-1.6,4.2   s-0.1,0.5-0.2,0.5c0,0-0.1,0-0.1-0.1c0,0-0.1-0.3-0.1-0.6c-0.1-0.3-0.4-1.3-0.8-2.2l-0.7-1.7C132.1,166.7,131.4,166.8,131.4,166.8z    M142,171.7v5h2.4c0-4.8,0-6.2,0.1-6.2s0.1,0.2,0.2,0.5c0.1,0.3,0.5,1.7,1,3.1c0.5,1.4,0.9,2.5,0.9,2.6s0.8,0,1.8,0h1.8v-10h-2.4   c0,4.9,0,6.2-0.1,6.2c0,0-0.1-0.3-0.2-0.6c-0.1-0.3-0.5-1.5-0.9-2.8s-0.9-2.4-0.9-2.5l-0.1-0.2H142V171.7z M153.6,171.6   c-0.7,2.7-1.3,4.9-1.4,5c0,0.1,0.1,0.1,1.3,0.1l1.3,0l0.4-1.9h2.4c0.1,0.4,0.2,0.8,0.3,1.2l0.2,0.7c2.9,0,3,0,2.9-0.1   c0-0.1-0.7-2.3-1.5-4.9c-0.8-2.6-1.4-4.8-1.4-4.8c0,0-0.7-0.1-1.6-0.1h-1.6L153.6,171.6z M163.3,171.7v5h2.3c0-4.8,0-5.9,0.1-5.9   s0.1,0.1,0.1,0.2c0,0.1,0.1,0.4,0.1,0.6c0,0.2,0.4,1.5,0.8,2.7l0.7,2.3h2.1c1.1-3.7,1.5-5,1.5-5.3c0.1-0.3,0.1-0.6,0.2-0.6   c0,0,0.1,1.4,0.1,3v3h2.7v-10c-2.8,0-3.6,0-3.6,0.1c0,0-0.3,1-0.6,2.1c-0.3,1.1-0.6,2.3-0.7,2.7c-0.1,0.4-0.2,0.9-0.2,1.1   c-0.1,0.3-0.1,0.5-0.2,0.5c0,0-0.1-0.2-0.2-0.5c-0.1-0.3-0.4-1.6-0.8-2.9c-0.4-1.3-0.7-2.5-0.7-2.7l-0.1-0.4h-3.7V171.7z    M190.9,171.7v5h2.7v-3.4h3.5v-2.1l-3.5,0l0-2.2h4v-2.2h-6.7V171.7z"/>
	<path class="st0" d="M124.3,171.7v2.9c2.2,0,2.2,0,2.5-0.2l0.2-0.2v-5c-0.4-0.4-0.4-0.4-1.6-0.4l-1.1,0V171.7z M179.7,169l-0.2,0.2   l0,5.1c0.4,0.4,0.5,0.5,1.4,0.5c0.9,0,0.9,0,1.2-0.2l0.2-0.2c0-5.1,0-5.1-0.2-5.3c-0.2-0.2-0.3-0.2-1.2-0.2   C179.9,168.8,179.9,168.8,179.7,169z M156.4,169.2c0,0-0.1,0.3-0.1,0.7s-0.2,1.2-0.4,1.7c-0.2,0.6-0.3,1.1-0.3,1.1   c0,0,0.4,0.1,0.9,0.1s0.9,0,0.9-0.1c0,0-0.1-0.5-0.3-1.2c-0.2-0.6-0.3-1.4-0.4-1.8C156.6,169.5,156.6,169.2,156.4,169.2   C156.5,169.2,156.4,169.2,156.4,169.2z"/>
	<path class="st1" d="M165.4,188.4c-3.2,3.5-5.8,6.4-5.8,6.4c0,0,1.6,0.1,3.5,0.1c2,0,3.5,0,3.5,0.1c0,0-1.1,2.2-2.4,4.9   c-1.3,2.6-2.3,4.8-2.3,4.8c0,0,2.7-2.8,5.8-6.3c3.2-3.5,5.8-6.4,5.8-6.4s-1.6-0.1-3.5-0.1c-1.9,0-3.5,0-3.5-0.1   c0,0,1.1-2.2,2.4-4.9c1.3-2.6,2.4-4.8,2.3-4.8C171.2,182.1,168.6,184.9,165.4,188.4z"/>
</g>
</svg>