<svg xmlns="http://www.w3.org/2000/svg" xmlns:xlink="http://www.w3.org/1999/xlink" version="1.0" id="katman_1" x="0px" y="0px" style="enable-background:new 0 0 560 400;" xml:space="preserve" viewBox="134 56 287 287">
<style type="text/css">
	.st0{fill:#231F20;}
	.st1{fill:#F7B5CD;}
	.st2{fill:#FFFFFF;}
</style>
<circle class="st0" cx="277.5" cy="199.5" r="140.9"/>
<path class="st1" d="M277.5,343C198.4,343,134,278.6,134,199.5S198.4,56,277.5,56S421,120.4,421,199.5S356.6,343,277.5,343z   M277.5,61.1c-76.3,0-138.4,62.1-138.4,138.4s62.1,138.4,138.4,138.4s138.4-62.1,138.4-138.4S353.8,61.1,277.5,61.1z"/>
<polygon class="st1" points="352.3,293.3 350.7,285.9 349.1,293.3 341.7,294.9 349.1,296.5 350.7,303.8 352.3,296.5 359.7,294.9 "/>
<polygon class="st1" points="205.9,293.3 204.3,285.9 202.7,293.3 195.3,294.9 202.7,296.5 204.3,303.8 205.9,296.5 213.3,294.9 "/>
<circle class="st0" cx="277.5" cy="199.5" r="101.4"/>
<path class="st1" d="M277.5,302.1c-56.6,0-102.6-46-102.6-102.6s46-102.6,102.6-102.6s102.6,46,102.6,102.6S334.1,302.1,277.5,302.1  z M277.5,99.4c-55.2,0-100.1,44.9-100.1,100.1s44.9,100.1,100.1,100.1s100.1-44.9,100.1-100.1S332.7,99.4,277.5,99.4L277.5,99.4z"/>
<path class="st0" d="M205,115.2v82.7c0,46.3,26.7,88.4,68.5,108.2l4.2,2l4.4-2.1c41.5-19.9,67.9-61.9,67.9-108v-82.8H205z"/>
<path class="st1" d="M327.9,259.5c11.6-18.4,17.7-39.7,17.7-61.4v-78.4H209.4v78.3c0,44.6,25.7,85.2,66,104.3l2.3,1.1l2.5-1.2  C299.8,292.7,316.3,277.9,327.9,259.5z M279.1,299.8l-1.4,0.7l-1.2-0.6c-39.4-18.7-64.5-58.4-64.5-102v-75.7H343v75.8  C343.1,241.4,318.2,281,279.1,299.8z"/>
<path class="st1" d="M277.5,186.4c-3.9,0-7.3-1.7-8.9-4.2c0,4.9,4,8.9,8.9,8.9c4.9,0,8.9-4,8.9-8.9  C284.8,184.6,281.4,186.4,277.5,186.4z"/>
<path class="st1" d="M295.4,182.1l-8.9-3.7l6.3-5.6l-8.6,2.2l2.3-8.5l-6.6,6.1l-2.4-8.5l-2.4,8.5l-6.6-6.1l2.3,8.5l-8.6-2.2l6.3,5.6  l-8.9,3.7h9l0,0c0-4.9,4-8.9,8.9-8.9s8.9,4,8.9,8.9l0,0l0,0L295.4,182.1z"/>
<path class="st2" d="M316,179.6c-1.7-1.7-3.9-2.6-6.3-2.6h-3.9c-1.4,0-2.6-1-2.7-2.4c-0.1-1.4,1-2.7,2.4-2.8c0.1,0,0.1,0,0.2,0h23.7  l-18.6-3.4c-0.4-1.1-1.4-1.8-2.5-1.8h-15.6l7.6,2.1c-1.5,1.5-2.4,3.5-2.4,5.7c0.1,4.3,3.6,7.7,7.9,7.7h3.9c0.6,0,1.2,0.1,1.8,0.4  c1.9,1,2.6,3.3,1.6,5.2c-0.6,1.2-1.8,2-3.2,2.1h-12.1c-6.7,0-12.9,3.5-16.4,9.3c-1.7,2.8-2.5,6-2.5,9.3l0,0l13.4-13.3h4l-17.4,17.4  v6.2l23.6-23.6h4l-27.6,27.6v7l34.8-34.8l2.4-2.4l0,0C319.6,188.7,319.5,183.1,316,179.6L316,179.6z M305.1,168.4h3.1v1.7h-3.1  V168.4z"/>
<path class="st2" d="M236.3,185.9c0,2.3,0.9,4.6,2.6,6.2l0,0l2.4,2.4l34.8,34.8v-7l-27.6-27.6h4l23.6,23.6v-6.2l-17.4-17.4h4  l13.4,13.3l0,0c0-3.3-0.8-6.5-2.5-9.3c-3.5-5.8-9.7-9.3-16.4-9.3h-12.1c-2.1-0.1-3.7-2-3.6-4.1c0.1-1.3,0.8-2.5,2-3.1  c0.5-0.3,1.1-0.4,1.8-0.4h3.9c4.3,0,7.8-3.4,7.9-7.7c0-2.1-0.8-4.2-2.4-5.7l7.6-2.1h-15.5c-1.1,0-2.1,0.7-2.5,1.8l-18.6,3.4h23.7  c1.4,0,2.6,1.2,2.6,2.6c0,0.1,0,0.1,0,0.2c-0.1,1.4-1.3,2.4-2.7,2.4h-3.9C240.4,177,236.3,181,236.3,185.9L236.3,185.9z   M249.9,170.1h-3.1v-1.7h3.1V170.1z"/>
<path class="st1" d="M303.3,220.6V209l-2.6,2.6v7.9l-5.3,5.3v-7.9l-2.6,2.6v7.9l-15.4,15.4l-15.4-15.4v-7.9l-2.6-2.6v7.9l-5.3-5.3  v-7.9l-2.6-2.6v11.5l7.8,7.8v40.8h-7.9v2.6h10.4v-40.8l13.6,13.6l-6.8,6.8l8.6,8.6l8.6-8.6l-6.8-6.8l13.6-13.6v40.8h10.4v-2.6h-7.8  v-40.8L303.3,220.6z M282.5,251.3l-5,5l-5-5l5-5L282.5,251.3z"/>
<rect x="256.2" y="136.6" class="st1" width="5.2" height="18"/>
<polygon class="st1" points="246.3,136.6 246.3,136.6 246.3,136.6 239.1,143.8 231.9,136.6 231.9,136.6 231.9,136.6 231.9,136.6   231.9,136.6 226.7,136.6 226.7,154.6 231.9,154.6 231.9,143.7 239.1,150.9 246.3,143.7 246.3,154.6 251.5,154.6 251.5,136.6 "/>
<path class="st1" d="M281.2,136.6h-7.4l-8.9,18h5.5l2.4-4.9l4.6,4.6l4.6-4.6l2.4,4.9h5.5L281.2,136.6z M277.5,148.5l-2.7-2.7  l2.7-5.4l2.7,5.4L277.5,148.5z"/>
<rect x="323.1" y="136.6" class="st1" width="5.2" height="18"/>
<polygon class="st1" points="313.2,136.6 313.2,136.6 313.2,136.6 306,143.8 298.8,136.6 298.8,136.6 298.8,136.6 298.8,136.6   298.8,136.6 293.6,136.6 293.6,154.6 298.8,154.6 298.8,143.7 306,150.9 313.2,143.7 313.2,154.6 318.4,154.6 318.4,136.6 "/>
<path class="st2" d="M179.1,269.2c-3.8,2.3-8.8,1.1-11.1-2.8c-1.5-2.5-1.5-5.6-0.1-8.1l3,1.7c-1.3,2.2-0.6,5,1.6,6.3s5,0.6,6.3-1.6  c1.3-2.2,0.6-5-1.6-6.3c-0.8-0.5-1.8-0.7-2.8-0.6l-0.2-3.5c4.5-0.2,8.3,3.2,8.5,7.6C182.9,264.9,181.5,267.7,179.1,269.2  L179.1,269.2z"/>
<path class="st2" d="M160.3,251.5l-1.3-3.2l11.2-4.5l-2.4-5.9l3.1-1.2l3.7,9.1L160.3,251.5z"/>
<path class="st2" d="M163.4,233.3l-9.1,2.2l-0.8-3.4l9.1-2.2c1.8-0.4,2.6-1.8,2.2-3.5c-0.4-1.7-1.8-2.5-3.6-2.1l-9.1,2.2l-0.8-3.4  l9.1-2.2c3.7-0.9,6.8,1.1,7.7,4.7C169,229.2,167.1,232.4,163.4,233.3z"/>
<path class="st2" d="M149.9,212.2l-0.3-5.8c-0.1-2.5,1.8-4.7,4.3-4.8c1-0.1,2,0.3,2.7,1c0.6-1.4,2-2.3,3.5-2.4  c2.5-0.1,4.7,1.8,4.8,4.3c0,0,0,0.1,0,0.1l0.4,6.8L149.9,212.2z M155.9,206.5c0-0.9-0.7-1.5-1.6-1.5c0,0,0,0,0,0  c-0.9,0.1-1.5,0.8-1.5,1.7c0,0,0,0,0,0l0.1,1.9l3.1-0.2L155.9,206.5z M161.8,205.1c0-0.9-0.7-1.5-1.5-1.5c-0.9,0-1.5,0.7-1.5,1.5  c0,0.1,0,0.1,0,0.2l0.2,3l3.1-0.2L161.8,205.1z"/>
<path class="st2" d="M151.1,178.4l0.6-3.4l15.2,2.7l-0.6,3.4L151.1,178.4z"/>
<path class="st2" d="M172.4,158.6l-11.5,4l9,3.1l-1.1,3.3l-14.6-5.1l1-2.8l11.4-3.9l-9-3.1l1.1-3.3l14.6,5.1L172.4,158.6z"/>
<path class="st2" d="M167.8,139.9l-1.9,3.4l-2.9-1.6l5.6-9.9l2.9,1.6l-1.9,3.5l10.6,5.9l-1.7,3L167.8,139.9z"/>
<path class="st2" d="M173.8,124.1l6-7.7l2.6,2l-3.9,5l2.2,1.7l3.1-3.9l2.6,2l-3.1,3.9l2.2,1.7l3.9-4.9l2.6,2l-6,7.7L173.8,124.1z"/>
<path class="st2" d="M187.9,107.8l4.5-4c2.2-1.9,4.9-1.6,6.7,0.3c1.3,1.5,1.4,3.2,0.4,5l8.6,1.4l-3.1,2.8l-8.1-1.3l-0.4,0.4l4.2,4.7  l-2.6,2.3L187.9,107.8z M196.3,108.5c0.8-0.7,0.9-1.6,0.3-2.3c-0.6-0.7-1.5-0.6-2.3,0.1l-1.7,1.5l2,2.2L196.3,108.5z"/>
<path class="st2" d="M222.9,100.8l-11.3-4.3l4.9,8.2l-3,1.8l-8-13.2l2.5-1.5l11.3,4.3l-4.9-8.1l3-1.8l8,13.2L222.9,100.8z"/>
<path class="st2" d="M232.9,79.4l2.9-1.1l11.4,12.3l-3.4,1.2l-2.4-2.6l-6,2.2l-0.2,3.5l-3.4,1.2L232.9,79.4z M239.3,86.8l-3.4-3.7  l-0.3,5L239.3,86.8z"/>
<path class="st2" d="M252,81.6c-0.6-4.4,2.5-8.5,6.9-9.1c2.9-0.4,5.7,0.8,7.5,3.1l-2.8,2.1c-1.5-2.1-4.4-2.5-6.5-1.1  c-2.1,1.5-2.5,4.4-1.1,6.5c1.5,2.1,4.4,2.5,6.5,1.1c0.8-0.6,1.4-1.4,1.7-2.3l3.2,1.2c-1.5,4.2-6.2,6.3-10.4,4.8  C254.4,86.8,252.4,84.5,252,81.6L252,81.6z"/>
<path class="st2" d="M275.9,71.4h3.4v15.4h-3.5L275.9,71.4z"/>
<path class="st2" d="M287.7,79.3c0.6-4.4,4.7-7.4,9-6.7c4.4,0.6,7.4,4.7,6.7,9c-0.6,4.4-4.7,7.4-9,6.7c0,0,0,0,0,0  C290.1,87.7,287.1,83.6,287.7,79.3z M300,81.1c0.3-2.5-1.5-4.7-3.9-5c-2.5-0.3-4.7,1.5-5,3.9c-0.3,2.4,1.4,4.6,3.8,5  C297.4,85.4,299.7,83.6,300,81.1L300,81.1z"/>
<path class="st2" d="M319.1,94.7l-3.9-11.5l-3.2,9l-3.3-1.2l5.2-14.5l2.8,1l3.9,11.5l3.2-9l3.3,1.2l-5.2,14.5L319.1,94.7z"/>
<path class="st2" d="M341.5,88.6l2.7,1.6l-2.2,16.6l-3.1-1.9l0.5-3.5l-5.5-3.3l-2.8,2.1l-3.1-1.8L341.5,88.6z M339.9,98.2l0.7-5  l-4,3L339.9,98.2z"/>
<path class="st2" d="M357.4,99.3l2.6,2.2l-7.9,9.2l4.9,4.2l-2.1,2.5l-7.5-6.4L357.4,99.3z"/>
<path class="st2" d="M378.5,120.5l3,4.3c2.5,3.4,1.8,8.3-1.7,10.8c-3.4,2.5-8.3,1.8-10.8-1.7c0-0.1-0.1-0.1-0.1-0.2l-3-4.3  L378.5,120.5z M371.5,131.8c1.5,2.1,4.2,2.4,6.2,0.9c2-1.4,2.7-4,1.2-6.2l-1-1.5l-7.4,5.3L371.5,131.8z"/>
<path class="st2" d="M390.6,139.2l4.3,8.8l-3,1.4l-2.8-5.7l-2.5,1.2l2.2,4.5l-3,1.5l-2.2-4.5l-2.5,1.2l2.8,5.7l-3,1.5l-4.3-8.8  L390.6,139.2z"/>
<path class="st2" d="M401.6,167.5l2,9.3l-3.2,0.7l-1.3-5.9l-2.7,0.6l1,4.6l-3.2,0.7l-1-4.6l-5.9,1.3l-0.7-3.4L401.6,167.5z"/>
<path class="st2" d="M395.7,185.8l9.3-0.6l0.2,3.4l-9.3,0.6c-1.8,0.1-2.9,1.4-2.8,3.1s1.3,2.8,3.1,2.7l9.3-0.6l0.2,3.4l-9.3,0.6  c-3.8,0.2-6.5-2.3-6.7-5.9C389.5,188.8,391.8,186,395.7,185.8z M410.1,191.7l0.2,3.6l-3.6-2.5l-0.1-2.4L410.1,191.7z"/>
<path class="st2" d="M401.9,209.7l0.4-3.9l3.3,0.3l-1.1,11.3l-3.3-0.3l0.4-4l-12.1-1.1l0.3-3.5L401.9,209.7z"/>
<path class="st2" d="M402.9,226.2l-1.4,5.6c-0.6,2.4-3.1,3.9-5.6,3.3c-1-0.2-1.8-0.9-2.3-1.7c-1,1.1-2.6,1.6-4.1,1.2  c-2.4-0.6-3.9-3.1-3.3-5.5c0,0,0-0.1,0-0.1l1.7-6.6L402.9,226.2z M389.4,229.5c-0.2,0.8,0.2,1.7,1,1.9c0,0,0,0,0,0  c0.8,0.2,1.7-0.3,1.9-1.2c0,0,0,0,0,0l0.7-2.9l-3-0.8L389.4,229.5z M395.5,229.9c-0.2,0.8,0.2,1.7,1,1.9c0,0,0,0,0,0  c0.8,0.2,1.7-0.3,1.9-1.1c0,0,0,0,0,0l0.5-1.9l-3-0.8L395.5,229.9z"/>
<path class="st2" d="M390.2,242.6c4,1.8,5.7,6.6,3.9,10.6c-1.8,4-6.6,5.7-10.6,3.9c-4-1.8-5.7-6.6-3.9-10.6c0,0,0,0,0,0  C381.5,242.5,386.2,240.8,390.2,242.6z M385,253.9c2.3,1,4.9-0.1,5.9-2.4c1-2.3-0.1-4.9-2.4-5.9c-2.2-0.9-4.8,0.1-5.8,2.3  C381.7,250.2,382.7,252.9,385,253.9z"/>
<path class="st2" d="M385.6,268.3l-2,2.8l-10-6.8l-3.6,5.3l-2.7-1.9l5.6-8.1L385.6,268.3z"/>
<path class="st2" d="M240.3,312.4l-2.6,9.3l-3.3-1.1l4.2-14.9l3,1l2.8,7.6l6.4-5l3.1,0.7l-4.2,15l-3.4-0.8l2.6-9.3l-6,4.8  L240.3,312.4z"/>
<path class="st2" d="M263.8,317.4l-0.7,9.7l-3.4-0.5l1.1-15.5l3.2,0.4l4.3,6.9l5.3-6.3l3.2,0.1l-1.1,15.5l-3.5,0l0.7-9.7l-4.9,5.9  L263.8,317.4z"/>
<path class="st2" d="M290.9,321.6l-3.4,5.8l-3.9,0.3l4.9-8.5l-6.3-7l4.1-0.3l4,4.4l2.8-5.2l4.1-0.7l-4.6,8.3l6.7,7.2l-3.8,0.6  L290.9,321.6z"/>
<path class="st2" d="M311.5,317.4l-2.4,6.3l-3.8,0.9l3.4-9.2l-7.5-5.9l4-1l4.7,3.7l1.9-5.7l3.9-1.4l-3.1,9l7.8,5.9l-3.7,1.3  L311.5,317.4z"/>
</svg>