<svg xmlns="http://www.w3.org/2000/svg" xmlns:xlink="http://www.w3.org/1999/xlink" version="1.0" id="katman_1" x="0px" y="0px" style="enable-background:new 0 0 841.89 595.28;" xml:space="preserve" viewBox="180.59 57.36 480 480">
<style type="text/css">
	.st0{clip-path:url(#SVGID_00000173143238325009114140000012258613215896654000_);}
	.st1{fill:#184496;}
	.st2{fill:#010202;}
	.st3{fill:#C2C6C9;}
	.st4{fill:#FFFFFF;}
</style>
<g>
	<defs>
		<rect id="SVGID_1_" x="180.59" y="57.36" width="480" height="480"/>
	</defs>
	<clipPath id="SVGID_00000020377337073609397600000000847935213633120158_">
		<use xlink:href="#SVGID_1_" style="overflow:visible;"/>
	</clipPath>
	<g style="clip-path:url(#SVGID_00000020377337073609397600000000847935213633120158_);">
		<path class="st1" d="M420.59,537.36c132.55,0,240-107.45,240-240s-107.45-240-240-240s-240,107.45-240,240    S288.04,537.36,420.59,537.36z"/>
		<path class="st2" d="M420.59,420.91c68.24,0,123.56-55.32,123.56-123.56S488.83,173.8,420.59,173.8s-123.56,55.32-123.56,123.56    S352.35,420.91,420.59,420.91z"/>
		<path class="st2" d="M646.15,297.36c0-124.56-100.98-225.56-225.56-225.56s-225.56,101-225.56,225.56    c0,22.11,3.2,43.47,9.13,63.64l-6.89,2.38c28.47,96.42,117.67,166.78,223.31,166.78S615.43,459.8,643.9,363.38l-6.89-2.38    c5.93-20.2,9.13-41.56,9.13-63.67V297.36z M205.26,297.36c0-118.93,96.4-215.33,215.33-215.33s215.33,96.4,215.33,215.33    c0,20.93-3,41.18-8.58,60.33l-206.78-71.31l-206.73,71.29C208.26,338.54,205.26,318.29,205.26,297.36L205.26,297.36z"/>
		<path class="st3" d="M420.59,57.36c-132.56,0-240,107.44-240,240s107.44,240,240,240s240-107.44,240-240    S553.15,57.36,420.59,57.36z M420.59,522.91c-124.58,0-225.56-100.98-225.56-225.56S296.01,71.8,420.59,71.8    s225.56,100.98,225.56,225.56S545.17,522.91,420.59,522.91z"/>
		<path class="st1" d="M299.21,341.49l-19.76,6.82v111.71c24.76,21.49,54.47,37.42,87.18,45.87v-91.2    C335.48,400.34,311.01,373.96,299.21,341.49L299.21,341.49z"/>
		<path class="st1" d="M561.68,348.29l-19.73-6.8c-11.8,32.47-36.27,58.85-67.42,73.2v91.18c32.71-8.44,62.42-24.38,87.18-45.87    V348.29H561.68z"/>
		<path class="st2" d="M420.59,426.47c-19.27,0-37.53-4.22-53.96-11.78v91.2c17.24,4.45,35.33,6.82,53.96,6.82    s36.71-2.38,53.96-6.82v-91.18c-16.42,7.56-34.69,11.78-53.96,11.78V426.47z"/>
		<path class="st2" d="M217.68,369.6c12.56,35.29,34.07,66.33,61.8,90.4V348.29L217.68,369.6z"/>
		<path class="st2" d="M623.5,369.63l-61.82-21.31v111.71C589.41,435.96,610.92,404.91,623.5,369.63z"/>
		<path class="st4" d="M372.1,459.6c0.85-0.09,2.02-0.27,2.78-0.04l2.78,0.8c0.89,0.27,1.07,0.53,0.87,1.27l-6.55,22.67    c-0.22,0.73-0.53,0.87-1.4,0.62l-4.6-1.33c-0.89-0.24-1.07-0.53-0.87-1.27l4.76-16.47l-5.22-1.49c-0.89-0.27-1.07-0.53-0.87-1.27    l0.49-1.71c0.11-0.42,0.24-0.69,0.89-0.84C365.15,460.54,371.26,459.69,372.1,459.6L372.1,459.6z"/>
		<path class="st4" d="M391.99,472.56c0.49-4.98,5.07-8.71,11.18-8.09c9.02,0.91,10.78,6.85,10.07,13.96    c-0.73,7.31-4.51,13.24-13.27,12.36c-3.56-0.36-6.27-1.84-8.6-4.38c-0.56-0.6-0.36-0.84,0.27-1.38l2.56-2.07    c0.62-0.49,0.96-0.6,1.53,0.04c1.38,1.53,2.82,2.44,5.31,2.69c2.89,0.29,5.2-2.04,5.6-6c-0.89,0.91-2.51,2.09-6.78,1.67    c-4.76-0.47-8.36-3.56-7.85-8.82L391.99,472.56z M398.46,472.8c-0.2,2.11,1.51,3.93,3.82,4.16c2.6,0.27,4.36-1.22,4.58-3.33    c0.22-2.22-1.22-3.93-3.82-4.2c-2.51-0.24-4.36,1.13-4.58,3.36V472.8z"/>
		<path class="st4" d="M426.59,474.76c-0.47-4.98,3.31-9.51,9.42-10.09c9.05-0.84,11.89,4.64,12.56,11.78    c0.69,7.31-1.89,13.87-10.64,14.69c-3.56,0.33-6.51-0.6-9.29-2.65c-0.64-0.49-0.51-0.76,0-1.4l2.11-2.51    c0.51-0.6,0.82-0.78,1.51-0.24c1.64,1.24,3.24,1.87,5.71,1.62c2.89-0.27,4.71-3,4.36-6.98c-0.71,1.07-2.07,2.53-6.33,2.93    c-4.76,0.44-8.89-1.89-9.38-7.16H426.59z M432.99,473.76c0.2,2.11,2.22,3.58,4.56,3.36c2.6-0.25,4.04-2.02,3.84-4.13    c-0.2-2.22-1.96-3.62-4.56-3.38c-2.51,0.25-4.04,1.96-3.84,4.18V473.76z"/>
		<path class="st4" d="M466.3,475.18c-0.82,0.22-1.11,0.09-1.31-0.67l-0.76-2.67c-0.2-0.73-0.04-1.02,0.78-1.25l3.22-0.89    c2.71-0.76,3.44-2.29,3.09-3.6c-0.51-1.82-1.89-2.58-4.6-1.82c-2.4,0.67-3.11,1.73-4.18,3.6c-0.4,0.69-0.8,0.69-1.49,0.31    l-2.73-1.55c-0.69-0.42-0.93-0.62-0.49-1.31c1.87-2.91,3.73-4.96,7.49-6c4.4-1.24,10.62-0.67,12.07,4.51    c0.69,2.49-0.36,4.73-1.8,6.22v0.05c2.2,0.38,4.58,1.15,5.44,4.24c1.45,5.18-2.69,8.87-8.58,10.51    c-3.76,1.05-6.93,0.42-10.02-1.09c-0.73-0.36-0.64-0.64-0.27-1.38l1.53-2.71c0.4-0.69,0.76-0.87,1.45-0.51    c1.98,0.93,3.53,1.4,5.91,0.73c3.49-0.98,4.09-2.51,3.58-4.33c-0.36-1.31-1.91-2.2-4.62-1.44l-3.76,1.04H466.3z"/>
		<path class="st4" d="M258.12,252.05c-0.49-0.82-0.27-1.22,0.51-1.73l3.47-2.24c0.8-0.51,1.13-0.62,1.62,0.2    c2,3.51,2.69,8.53,1.73,13c-1.96,9.09-10.44,15.13-18.78,13.33c-8.33-1.8-13.6-10.78-11.67-19.87c0.96-4.47,3.64-8.78,6.91-11.16    c0.78-0.55,1.02-0.31,1.56,0.49l2.24,3.47c0.49,0.78,0.53,1.22-0.24,1.78c-2.4,1.6-3.93,3.84-4.56,6.69    c-1.22,5.71,2.73,10,7.38,11c4.58,0.98,10-1.27,11.24-7c0.62-2.87,0.13-5.51-1.4-7.98L258.12,252.05z"/>
		<path class="st4" d="M276.43,225.47c0.8,0.42,0.89,0.8,0.42,1.67l-2.4,4.55c-0.47,0.87-0.82,1-1.62,0.6l-24.53-12.87    c-0.8-0.42-0.89-0.8-0.42-1.67l9.96-18.98c0.47-0.87,0.82-1,1.62-0.6l3.2,1.67c0.8,0.42,0.89,0.8,0.42,1.67l-6.98,13.29l5.36,2.8    l6.76-12.87c0.47-0.87,0.82-1,1.62-0.58l3.2,1.67c0.8,0.42,0.89,0.78,0.42,1.67l-6.76,12.87L276.43,225.47L276.43,225.47z"/>
		<path class="st4" d="M328.52,165.8c0,0.89,0,1.44-0.35,1.69l-0.49,0.36c-0.36,0.24-0.87,0.09-1.71-0.2l-15.49-4.82l5.84,11.07    c0.44,0.85,0.44,1.11-0.36,1.69l-4.18,3c-0.8,0.58-1.33,0.58-1.71-0.2l-13.64-25.96c-0.13-0.27-0.15-0.38,0.11-0.56l0.31-0.22    c0.15-0.11,0.31-0.13,0.69,0l24.33,7.6l0.58-25.49c0-0.38,0.09-0.53,0.24-0.64l0.31-0.22c0.27-0.2,0.36-0.16,0.58,0.07l20.2,21.24    c0.58,0.64,0.44,1.11-0.36,1.69l-4.18,3c-0.8,0.58-1.09,0.51-1.71-0.2l-8.51-9.36l-0.47,16.49L328.52,165.8z"/>
		<path class="st4" d="M365.9,114.76c8.91-2.67,18.29,1.87,20.73,10.04c2.44,8.18-2.89,17.13-11.8,19.8    c-8.91,2.67-18.29-1.87-20.73-10.04C351.66,126.38,356.99,117.43,365.9,114.76L365.9,114.76z M373.1,138.8    c5.78-1.73,7.42-7.29,6.09-11.76c-1.36-4.56-5.76-8.22-11.56-6.49c-5.6,1.67-7.44,7.2-6.09,11.76    C362.88,136.8,367.48,140.47,373.1,138.8z"/>
		<path class="st4" d="M483.99,117.69c0.96,0.27,1.15,0.58,0.91,1.47l-1.04,3.76c-0.24,0.87-0.58,1.04-1.53,0.78l-8.95-2.49    l-6.05,21.82c-0.24,0.87-0.58,1.04-1.53,0.78l-4.96-1.38c-0.95-0.27-1.15-0.58-0.91-1.44l6.04-21.82l-8.96-2.49    c-0.95-0.27-1.15-0.58-0.91-1.47l1.04-3.76c0.24-0.87,0.58-1.04,1.53-0.78l25.31,7V117.69z M413.54,136.45    c0,0.91-0.29,1.16-1.27,1.16h-5.13c-1,0-1.27-0.27-1.27-1.16V107.4c0-0.29,0.09-0.38,0.42-0.38h0.47c0.33,0,0.56,0.13,0.89,0.38    l20,16.42v-15.09c0-0.91,0.29-1.16,1.27-1.16h5.13c1,0,1.27,0.27,1.27,1.16v29.04c0,0.29-0.09,0.38-0.42,0.38h-0.47    c-0.33,0-0.55-0.13-0.89-0.38l-20-16.64V136.45z"/>
		<path class="st4" d="M514.23,152.2l1.11,13.67c0.07,1.29-0.85,1.24-1.71,0.73l-4.09-2.44c-0.85-0.51-1.16-1.09-1.27-2.11    l-1.07-13.29l-2.27-1.36l-5.58,9.31c-0.47,0.78-0.85,0.84-1.69,0.33l-4.42-2.64c-0.85-0.51-0.96-0.87-0.49-1.64l14.22-23.78    c0.47-0.78,0.84-0.84,1.69-0.33l10.09,6.02c4.62,2.76,9.27,7.93,5.69,13.91c-2.47,4.13-6.45,4.64-10.24,3.62H514.23z     M512.3,145.05c2.85,1.69,4.65,1.62,5.78-0.29c1.16-1.91,0.35-3.53-2.49-5.22l-4.38-2.62l-3.31,5.51l4.38,2.62H512.3z"/>
		<path class="st4" d="M528.92,179.25c-0.69-0.71-0.69-1.09-0.04-1.71l20.02-19.16c0.64-0.62,1.02-0.6,1.71,0.11l14.8,15.47    c0.69,0.71,0.69,1.09,0.04,1.71l-2.6,2.49c-0.65,0.62-1.02,0.6-1.71-0.11l-10.38-10.85l-4.38,4.18l9.96,10.4    c0.69,0.71,0.69,1.09,0.04,1.71l-2.6,2.49c-0.64,0.62-1.02,0.6-1.71-0.11l-9.96-10.4l-4.49,4.29l10.38,10.84    c0.69,0.71,0.69,1.09,0.05,1.71l-2.6,2.49c-0.65,0.62-1.02,0.6-1.71-0.11l-14.8-15.47L528.92,179.25z M564.39,163.34    c-0.71-0.11-1.33-0.42-1.87-0.96l-2.73-2.87c-0.58-0.62-0.44-1.02,0.96-0.98l8.35,0.18c0.91-0.02,1.16,0.6,0.96,1.55l-0.65,3.04    c-0.2,0.78-0.42,0.98-1.47,0.82l-3.53-0.78L564.39,163.34z"/>
		<path class="st4" d="M571.41,238.23c-0.33,0.55-1.07,0.44-1.4-0.18l-2.8-5.36c-0.4-0.75-0.29-1.11,0.27-2l2.76-4.27l-6.16-11.76    l-5.07-0.18c-1.04-0.04-1.4-0.18-1.8-0.93l-2.8-5.36c-0.33-0.62,0.02-1.24,0.65-1.24l32.71,1.53c0.87,0.09,1.31,0,1.51,0.38    l0.07,0.13c0.2,0.38-0.11,0.69-0.56,1.47l-17.4,27.73L571.41,238.23z M579.95,213.58l-10.07-0.15l4.51,8.62l5.6-8.36l-0.04-0.09    V213.58z"/>
		<path class="st4" d="M584.9,273.27c0.2,0.98,0,1.29-0.87,1.49l-3.53,0.73c-0.89,0.18-1.2-0.04-1.4-1l-4.02-19.02    c-0.2-0.98,0-1.29,0.87-1.49l27.11-5.71c0.89-0.18,1.2,0.04,1.4,1l1.07,5.02c0.2,0.98,0,1.29-0.87,1.49l-22.47,4.73l2.69,12.73    L584.9,273.27z"/>
		<path class="st2" d="M474.55,383.96c5.24-6.98,10.15-14.53,14.64-22.6c19.91-35.82,30.64-78.89,31.07-124.53    c0.04-5.96-0.13-12.93-0.51-19.73c-8.98-2.78-25.13-7.29-45.22-10.67L474.55,384V383.96z M474.55,404.18    c-2,2.22-4.02,4.38-6.09,6.45l-0.05,0.04c-4.11,4.13-8.33,7.98-12.71,11.56c-0.07,0.04-0.13,0.11-0.2,0.15    c-3.27,2.64-6.6,5.13-9.98,7.45c-0.02,0-0.04,0.04-0.09,0.04c-1.07,0.73-2.13,1.42-3.2,2.11c-0.13,0.09-0.24,0.16-0.38,0.24    c-1.07,0.67-2.11,1.33-3.18,1.98c-0.04,0.02-0.11,0.07-0.16,0.11c-2.29,1.38-4.62,2.67-6.96,3.87c-0.09,0.05-0.2,0.09-0.29,0.16    c-1.02,0.53-2.07,1.04-3.11,1.53c-0.2,0.09-0.38,0.18-0.58,0.27c-1.02,0.49-2.04,0.95-3.07,1.4c-0.13,0.07-0.24,0.11-0.38,0.18    c-1.18,0.51-2.36,1-3.53,1.49c-0.42-0.18-0.84-0.35-1.27-0.53c-0.62-0.27-1.27-0.51-1.89-0.78c-0.56-0.24-1.13-0.49-1.69-0.75    c-0.53-0.25-1.04-0.47-1.58-0.73c-0.58-0.27-1.16-0.55-1.73-0.82c-0.51-0.24-1-0.49-1.51-0.75c-0.58-0.29-1.18-0.58-1.76-0.89    c-0.49-0.24-0.96-0.51-1.42-0.78c-1.09-0.6-2.2-1.2-3.29-1.82c-0.45-0.24-0.87-0.49-1.31-0.76c-0.62-0.35-1.22-0.73-1.82-1.11    c-0.42-0.27-0.87-0.53-1.29-0.8c-0.62-0.38-1.22-0.78-1.82-1.18c-0.42-0.27-0.82-0.53-1.24-0.82c-0.62-0.42-1.24-0.82-1.87-1.24    c-0.31-0.22-0.64-0.44-0.95-0.67c-1.31-0.91-2.6-1.85-3.87-2.8c-0.27-0.2-0.53-0.4-0.82-0.6c-0.65-0.49-1.27-0.98-1.91-1.49    c-0.36-0.27-0.71-0.56-1.05-0.82c-0.62-0.51-1.24-1.02-1.87-1.53c-0.33-0.27-0.67-0.55-1-0.84c-0.64-0.53-1.29-1.09-1.93-1.64    c-0.2-0.16-0.38-0.33-0.58-0.51c-1.45-1.27-2.89-2.58-4.31-3.91c-0.13-0.11-0.27-0.24-0.38-0.35c-0.65-0.62-1.31-1.24-1.96-1.89    c-0.27-0.27-0.55-0.53-0.82-0.8c-0.62-0.62-1.27-1.27-1.89-1.89c-0.27-0.27-0.51-0.53-0.78-0.8c-0.64-0.67-1.29-1.36-1.93-2.04    c-0.09-0.09-0.16-0.18-0.24-0.27c-0.73-0.8-1.47-1.58-2.2-2.4c-1.07-1.2-2.13-2.42-3.18-3.64c-0.25-0.29-0.49-0.58-0.73-0.89    c-2.09-2.49-4.13-5.05-6.13-7.69c-0.24-0.31-0.47-0.62-0.71-0.96c-1.98-2.64-3.91-5.38-5.78-8.18c-0.22-0.33-0.47-0.69-0.69-1.02    c-0.93-1.4-1.84-2.82-2.76-4.27c-0.91-1.45-1.8-2.91-2.67-4.38c-0.22-0.36-0.44-0.73-0.64-1.11c-0.87-1.49-1.73-2.98-2.58-4.49    c-20.96-37.69-32.24-82.89-32.69-130.67c-0.04-5.18,0.09-10.89,0.33-16.51c0.2-4.4,0.47-8.78,0.8-12.84c0,0,0.05,0,0.13-0.05    c0.04,0,0.09-0.04,0.15-0.07c0.05,0,0.11-0.04,0.18-0.07c0.07-0.02,0.15-0.04,0.24-0.09c0.07-0.02,0.16-0.05,0.25-0.09    c0.07-0.02,0.13-0.04,0.2-0.07c0.11-0.04,0.22-0.09,0.36-0.11c0.07,0,0.11-0.04,0.18-0.07c0.2-0.07,0.4-0.13,0.62-0.22    c0.07,0,0.11-0.04,0.18-0.07c0.18-0.07,0.38-0.13,0.6-0.2c0.07-0.02,0.16-0.04,0.22-0.07c0.56-0.18,1.18-0.4,1.87-0.62    c0.07-0.02,0.16-0.05,0.22-0.07c0.31-0.09,0.62-0.2,0.96-0.31c0.07,0,0.11-0.04,0.18-0.07c0.4-0.13,0.82-0.27,1.24-0.4    c0,0,0,0,0.02,0c0.42-0.13,0.85-0.27,1.29-0.4c0.07-0.02,0.16-0.04,0.24-0.07c0.44-0.13,0.89-0.27,1.36-0.42c0.02,0,0.04,0,0.07,0    c0.51-0.15,1.04-0.31,1.58-0.47c0.04,0,0.09-0.02,0.13-0.04c0.49-0.15,1-0.29,1.53-0.44c0.07,0,0.16-0.04,0.22-0.07    c1.13-0.33,2.36-0.67,3.62-1.02c0.07,0,0.15-0.04,0.22-0.07c0.58-0.15,1.16-0.31,1.76-0.49c0.07,0,0.13-0.04,0.22-0.07    c1.33-0.36,2.71-0.73,4.15-1.09c0.09-0.02,0.18-0.05,0.29-0.07c0.69-0.18,1.38-0.36,2.09-0.53c0.04,0,0.07,0,0.11-0.02    c0.78-0.2,1.56-0.38,2.36-0.58c0,0,0.02,0,0.04,0c0.76-0.18,1.51-0.36,2.29-0.56c0.11-0.02,0.2-0.04,0.31-0.07    c1.62-0.38,3.29-0.76,5-1.13c0.09,0,0.18-0.04,0.27-0.07c0.78-0.18,1.58-0.33,2.35-0.51c0.11-0.02,0.2-0.04,0.31-0.07    c1.76-0.38,3.53-0.73,5.38-1.11c0.13-0.02,0.29-0.04,0.42-0.09c0.85-0.16,1.69-0.33,2.56-0.49c0.07,0,0.16-0.02,0.22-0.04    c0.96-0.18,1.93-0.36,2.91-0.53c0.04,0,0.07,0,0.11,0c0.91-0.15,1.82-0.31,2.73-0.49c0.15-0.02,0.33-0.07,0.49-0.09    c0.96-0.15,1.93-0.33,2.89-0.49c0,0,0.11,0,0.15-0.02c1.78-0.29,3.58-0.55,5.42-0.82c0.22-0.04,0.47-0.07,0.69-0.09    c1.8-0.27,3.62-0.51,5.47-0.76c0.13,0,0.27-0.04,0.4-0.04c1.91-0.24,3.87-0.47,5.82-0.69c0.22-0.02,0.45-0.04,0.67-0.07    c1.93-0.2,3.91-0.4,5.89-0.58c0.09,0,0.2,0,0.29-0.02c2.04-0.18,4.09-0.33,6.18-0.49c0.2,0,0.42-0.02,0.65-0.05    c2.07-0.13,4.15-0.27,6.27-0.35c0.05,0,0.11,0,0.16,0c2.13-0.11,4.31-0.18,6.47-0.22c0.2,0,0.38,0,0.58,0    c2.2-0.04,4.4-0.09,6.62-0.09c0.6,0,2.27,0,2.27,0s1.65,0,2.27,0c2.24,0,4.47,0.02,6.67,0.09c0.15,0,0.31,0,0.47,0    c4.45,0.11,8.8,0.31,13.11,0.6c0.11,0,0.22,0,0.33,0c4.35,0.29,8.62,0.69,12.78,1.13c0.04,0,0.07,0,0.11,0    c6.33,0.69,12.42,1.53,18.22,2.47c0.98,0.15,1.96,0.33,2.93,0.49c0.16,0.02,0.31,0.04,0.47,0.09c0.93,0.16,1.84,0.31,2.76,0.49    c0.04,0,0.07,0,0.11,0c0.98,0.18,1.98,0.36,2.93,0.53c0.07,0,0.13,0.02,0.2,0.04c0.87,0.16,1.73,0.33,2.58,0.49    c0.13,0.02,0.27,0.04,0.42,0.09c1.84,0.36,3.64,0.73,5.38,1.11c0.11,0,0.2,0.04,0.31,0.07c0.8,0.18,1.58,0.33,2.36,0.51    c0.09,0,0.18,0.04,0.29,0.07c1.71,0.38,3.38,0.76,4.98,1.13c0.11,0.02,0.2,0.04,0.31,0.07c0.78,0.18,1.53,0.36,2.27,0.56    c0,0,0.04,0,0.07,0c0.8,0.2,1.6,0.4,2.38,0.58c0.02,0,0.04,0,0.07,0c0.71,0.18,1.42,0.35,2.11,0.53c0.09,0.02,0.2,0.04,0.29,0.07    c1.44,0.38,2.84,0.73,4.18,1.11c0.07,0,0.13,0.04,0.2,0.04c0.6,0.16,1.2,0.33,1.78,0.49c0.09,0,0.16,0.04,0.24,0.07    c1.27,0.35,2.47,0.69,3.6,1.02c0.09,0.02,0.16,0.04,0.24,0.07c0.53,0.15,1.04,0.31,1.53,0.44c0.02,0,0.07,0,0.09,0.02    c0.55,0.16,1.09,0.31,1.6,0.47c0,0,0.04,0,0.07,0c0.47,0.13,0.93,0.29,1.38,0.42c0.07,0.02,0.16,0.04,0.22,0.07    c0.45,0.13,0.89,0.27,1.31,0.4c0.45,0.13,0.84,0.27,1.24,0.4c0.07,0,0.13,0.04,0.2,0.07c0.31,0.11,0.62,0.2,0.91,0.29    c0.09,0.02,0.18,0.04,0.24,0.09c0.69,0.22,1.31,0.42,1.87,0.62c0.07,0.02,0.16,0.04,0.22,0.07c0.2,0.07,0.4,0.13,0.58,0.2    c0.07,0,0.13,0.04,0.2,0.07c0.22,0.07,0.42,0.15,0.62,0.22c0.07,0.02,0.13,0.04,0.18,0.07c0.13,0.04,0.24,0.09,0.36,0.13    c0.07,0.02,0.13,0.04,0.2,0.07c0.09,0.02,0.15,0.07,0.22,0.09c0.11,0.04,0.22,0.09,0.31,0.11c0.04,0,0.09,0.02,0.11,0.04    c0.2,0.07,0.31,0.11,0.31,0.11c0.47,5.76,0.82,12.18,1.02,18.45c0.11,3.75,0.16,7.44,0.11,10.91    c-0.4,43.8-9.93,85.42-27.64,121.09c-1.62,3.24-3.29,6.44-5.02,9.58c-0.85,1.51-1.69,3-2.56,4.47c-0.22,0.38-0.44,0.73-0.64,1.11    c-0.87,1.47-1.76,2.93-2.67,4.38c-0.91,1.45-1.82,2.85-2.76,4.24c-0.22,0.36-0.47,0.69-0.69,1.04c-1.87,2.8-3.8,5.51-5.78,8.16    c-0.24,0.33-0.49,0.64-0.73,0.98c-1.98,2.62-4.02,5.18-6.11,7.67c-0.24,0.31-0.51,0.6-0.76,0.91c-1.04,1.22-2.09,2.44-3.18,3.64    L474.55,404.18z M366.66,383.96V206.4c0,0-0.02,0-0.04,0c-20.04,3.38-36.2,7.87-45.18,10.67c-0.38,6.8-0.55,13.78-0.51,19.73    c0.42,45.64,11.16,88.71,31.07,124.53c4.49,8.07,9.4,15.62,14.64,22.62H366.66z"/>
		<path class="st1" d="M321.43,217.07c-0.38,6.8-0.55,13.78-0.51,19.73c0.42,45.64,11.16,88.71,31.07,124.53    c4.49,8.07,9.4,15.62,14.64,22.62V206.4C346.57,209.78,330.41,214.27,321.43,217.07L321.43,217.07z"/>
		<path class="st1" d="M489.19,361.36c19.91-35.82,30.64-78.89,31.07-124.53c0.04-5.96-0.13-12.93-0.51-19.73    c-8.98-2.78-25.13-7.29-45.22-10.67v177.56c5.27-6.98,10.18-14.53,14.67-22.6V361.36z"/>
		<path class="st4" d="M517.41,290.63c-22.04-3.56-42.98,15.91-58.62,53c-8.51,20.2-11.78,33.24-14.73,49.49    c-5.33,0.04-13.6,0-13.6,0s1.53-10.78,5.13-26.11c3.58-15.31,18-53.69,23.2-71.96c0.73-2.53,1.29-5.02,1.71-7.47    c6.4-37.22-20.93-62.11-39.91-74.62c-19,12.51-46.36,37.4-39.93,74.62c0.42,2.47,0.96,4.96,1.69,7.47    c5.2,18.29,19.62,56.64,23.22,71.96c3.58,15.33,5.13,26.11,5.13,26.11s-8.29,0.04-13.6,0c-2.98-16.25-6.24-29.27-14.76-49.49    c-15.62-37.09-36.56-56.53-58.62-53c-2.04,0.33-4.04,0.87-5.98,1.58c4.67,23.31,12.15,45.38,22.31,65.47    c0.07,0,0.11-0.02,0.18-0.02c10.93-1.73,21.62,1.18,29.2,8.13c11.73,10.78,11.78,27.31,11.78,27.31h-18.67    c5.62,7.09,11.62,13.6,17.91,19.45c11.18,0,23.53,0,27.15,0c-0.89,5.22-4.67,9.98-10.04,13.73c7.42,5.09,15.13,9.33,23.02,12.62    c7.89-3.27,15.6-7.51,23-12.6c-5.38-3.76-9.18-8.53-10.07-13.76c3.62,0,16.02,0,27.2,0c6.29-5.85,12.29-12.33,17.91-19.45H459.9    c0,0,0.04-16.53,11.8-27.31c7.58-6.95,18.22-9.87,29.18-8.13c0.09,0,0.15,0.02,0.24,0.04c10.16-20.09,17.67-42.15,22.33-65.47    C521.48,291.49,519.48,290.96,517.41,290.63L517.41,290.63z"/>
		<path class="st3" d="M380.63,287.56c0.42,2.47,0.96,4.96,1.69,7.47c5.2,18.29,19.62,56.64,23.22,71.96    c3.58,15.33,5.13,26.11,5.13,26.11h9.89V212.94C401.57,225.45,374.21,250.34,380.63,287.56L380.63,287.56z"/>
		<path class="st3" d="M628.5,353.67l-79.51-27.42c2.09-9.29,3.2-18.96,3.2-28.89c0-22.07-5.44-42.89-15.04-61.16    c0.04-8.84-0.38-19.58-1.16-28.95l-0.2-2.56l-2.4-0.89c-0.24-0.09-11.69-4.29-29.93-8.69c-22.62-18.36-51.45-29.36-82.85-29.36    s-60.24,11-82.87,29.36c-18.22,4.4-29.69,8.6-29.93,8.69l-2.4,0.89l-0.2,2.56c-0.78,9.38-1.2,20.11-1.15,28.95    c-9.6,18.27-15.07,39.09-15.07,61.16c0,9.93,1.13,19.58,3.2,28.87l-79.51,27.42c0.71,2.62,1.47,5.2,2.27,7.78l79.24-27.33    c12.09,41.62,44.18,74.73,85.16,88.24c12.38,10.71,25.78,19.04,39.76,24.62l1.49,0.6l1.49-0.6c13.98-5.58,27.38-13.93,39.76-24.62    c40.98-13.51,73.07-46.62,85.16-88.22l79.24,27.33C627.03,358.87,627.79,356.27,628.5,353.67L628.5,353.67z M420.59,173.8    c22.4,0,43.89,5.93,62.69,17.02c-17.56-3.24-38.42-5.85-60.42-5.85h-2.27h-2.24c-22,0-42.87,2.58-60.44,5.85    C376.7,179.71,398.19,173.8,420.59,173.8L420.59,173.8z M333.21,384.74c-23.33-23.33-36.2-54.36-36.2-87.38    c0-14.91,2.64-29.42,7.67-43c2.71,42,13.84,81.53,32.55,115.2c7.8,14.02,16.8,26.69,26.73,37.69    C352.77,401.45,342.39,393.91,333.21,384.74L333.21,384.74z M328.9,332c0.78,2.11,1.58,4.2,2.4,6.29    C330.48,336.2,329.68,334.11,328.9,332z M331.48,338.71c0.84,2.11,1.71,4.2,2.62,6.29C333.21,342.94,332.32,340.83,331.48,338.71    L331.48,338.71z M334.1,345.03c1.87,4.29,3.85,8.51,5.93,12.62C337.95,353.51,335.97,349.31,334.1,345.03z M397.95,426.56    c0.8,0.56,1.6,1.09,2.4,1.62c-0.51-0.33-1.04-0.67-1.56-1.02C398.5,426.96,398.23,426.76,397.95,426.56L397.95,426.56z     M420.59,438.91c-0.96-0.4-1.93-0.82-2.89-1.24C418.66,438.09,419.63,438.51,420.59,438.91v-26.49l-12.98,0.13    c-0.89,5.22-4.69,9.98-10.04,13.76c-4.85-3.33-9.58-7-14.16-11.04c-14.91-13.15-28.24-29.96-39.15-49.6    c-1.45-2.62-2.87-5.27-4.22-7.96c0.07,0,0.13-0.02,0.2-0.04c10.93-1.73,21.62,1.18,29.2,8.13c8.73,8.02,11,19.22,11.58,24.45    c-3.67-46.02-32.69-65.2-52.15-58.36c-10.6-28.84-16.31-60.64-16.73-93.75c0-0.4,0-0.8,0-1.2c-0.04-4.4,0.05-9.33,0.24-14.36    c0.15-4.04,0.38-8.11,0.67-12.02c2.42-0.82,6.6-2.18,12.18-3.78c4.53-1.29,10-2.75,16.22-4.22c19.82-4.69,47.31-9.49,76.93-9.49    h2.24h2.27c29.62,0,57.11,4.8,76.93,9.49c6.22,1.47,11.69,2.93,16.22,4.22c5.58,1.6,9.76,2.96,12.18,3.78    c0.29,3.91,0.51,8,0.67,12.04c0.2,5.02,0.29,9.96,0.24,14.36c0,0.4,0,0.8,0,1.22c-0.42,33.11-6.16,64.91-16.73,93.73    c-19.47-6.8-48.47,12.38-52.11,58.38c0.58-5.22,2.84-16.42,11.58-24.44c7.58-6.96,18.24-9.87,29.2-8.13c0.04,0,0.11,0,0.15,0.02    c-1.36,2.69-2.76,5.36-4.22,7.98c-10.91,19.64-24.24,36.44-39.16,49.6c-4.95,4.38-10.09,8.36-15.38,11.89    c-7.05,4.73-14.33,8.67-21.8,11.78L420.59,438.91z M400.37,428.18c0.91,0.6,1.82,1.18,2.76,1.73    C402.21,429.34,401.28,428.76,400.37,428.18z M403.21,429.98c0.89,0.53,1.78,1.07,2.65,1.6    C404.97,431.07,404.08,430.54,403.21,429.98z M406.08,431.71c0.84,0.49,1.69,0.96,2.53,1.42    C407.77,432.67,406.92,432.2,406.08,431.71z M408.97,433.36c0.8,0.42,1.58,0.84,2.38,1.27    C410.55,434.2,409.77,433.8,408.97,433.36z M411.88,434.89c0.76,0.38,1.51,0.76,2.24,1.13    C413.37,435.65,412.61,435.29,411.88,434.89z M414.79,436.34c0.73,0.36,1.47,0.69,2.22,1.02    C416.28,437.03,415.52,436.69,414.79,436.34z M512.28,331.98c-0.78,2.11-1.58,4.22-2.42,6.31    C510.68,336.2,511.5,334.09,512.28,331.98z M509.7,338.69c-2.6,6.49-5.47,12.82-8.55,18.98    C504.26,351.51,507.1,345.2,509.7,338.69L509.7,338.69z M507.95,384.74c-9.18,9.18-19.53,16.71-30.76,22.51    c9.93-11,18.93-23.67,26.73-37.69c18.71-33.67,29.85-73.2,32.56-115.18c5.02,13.58,7.67,28.09,7.67,43    c0,33-12.85,64.02-36.2,87.38V384.74z"/>
	</g>
</g>
</svg>