<svg xmlns="http://www.w3.org/2000/svg" xmlns:xlink="http://www.w3.org/1999/xlink" version="1.0" id="katman_1" x="0px" y="0px" style="enable-background:new 0 0 841.89 595.28;" xml:space="preserve" viewBox="159.7 35.91 523.32 523.32">
<style type="text/css">
	.st0{fill:#17243E;}
	.st1{fill:#FFFFFF;}
	.st2{fill:#CE132E;}
</style>
<path class="st0" d="M421.37,47.33c138.24,0.06,250.26,112.18,250.2,250.42c-0.03,66.29-26.35,129.86-73.19,176.76  c-46.84,47.1-110.58,73.5-177.01,73.3c-66.87,0-129.71-25.99-176.94-73.17s-73.3-110.08-73.3-177.07  c-0.04-138.16,111.92-250.2,250.08-250.24C421.26,47.33,421.32,47.33,421.37,47.33 M421.37,35.91c-70,0-135.75,27.24-185.16,76.72  c-49.15,48.97-76.7,115.56-76.51,184.94c0,70.01,27.24,135.77,76.65,185.15s115.07,76.51,185.01,76.51  c144.53-0.02,261.68-117.2,261.66-261.74c-0.01-69.39-27.58-135.94-76.65-185.01C557.41,63.29,490.79,35.71,421.37,35.91z"/>
<path class="st1" d="M421.37,47.33c138.24,0.06,250.26,112.18,250.2,250.42c-0.03,66.29-26.35,129.86-73.19,176.76  c-46.84,47.1-110.58,73.5-177.01,73.3c-66.87,0-129.71-25.99-176.94-73.17s-73.3-110.08-73.3-177.07  c-0.04-138.16,111.92-250.2,250.08-250.24C421.26,47.33,421.32,47.33,421.37,47.33"/>
<path class="st0" d="M219.89,281.28c-5.89,0-10.2,3.98-10.2,9.5c0,5.53,4.15,9,9.16,9c2.43,0.09,4.75-1.01,6.22-2.94  c-0.35,4.84-3.63,7.6-8.47,7.6c-1.68-0.05-3.33-0.46-4.84-1.21l-1.38,4.65c1.38,0.86,3.98,1.38,6.22,1.38  c9.16,0,13.99-5.71,13.99-15.21C230.6,285.43,225.77,281.28,219.89,281.28z M219.72,294.94c-2.59,0-4.67-1.73-4.67-4.32  c0.1-2.58,2.27-4.58,4.85-4.48c2.43,0.1,4.38,2.05,4.48,4.48c-0.08,2.47-2.14,4.4-4.61,4.32  C219.76,294.94,219.74,294.94,219.72,294.94L219.72,294.94z"/>
<path class="st0" d="M188.27,286.99v3.8h6.4v17.97h5.7v-26.78h-5.01C194.84,284.74,192.07,286.99,188.27,286.99z"/>
<path class="st0" d="M618.67,281.28c-5.89,0-10.19,3.98-10.19,9.34c0,5.53,4.14,8.98,9.16,8.98c2.76,0,5.15-1.21,6.22-2.76  c-0.35,4.84-3.63,7.43-8.47,7.43c-1.67,0-3.32-0.36-4.84-1.04l-1.38,4.49c1.91,1.03,4.05,1.56,6.22,1.56  c9.15,0,13.99-5.71,13.99-15.38C629.41,285.43,624.56,281.28,618.67,281.28z M618.5,294.94c-2.35,0.13-4.36-1.67-4.49-4.02  c-0.01-0.16-0.01-0.32,0-0.48c-0.01-2.38,1.92-4.32,4.3-4.33c0.06,0,0.13,0,0.19,0c2.59,0,4.67,1.73,4.67,4.32  c0.02,2.77-2.05,4.5-4.65,4.5H618.5z"/>
<path class="st0" d="M647.9,290.78c-2.53-0.13-4.95,1.04-6.4,3.11c0.52-5.01,4.31-7.78,8.83-7.78c1.55,0.04,3.08,0.39,4.49,1.04  l1.55-4.66c-1.77-0.88-3.73-1.3-5.7-1.21c-8.83,0-14.86,6.05-14.86,15.73c0,7.95,5.01,12.27,10.89,12.27  c5.87,0,10.37-3.98,10.37-9.5S653.27,290.78,647.9,290.78z M646.69,304.43c-2.48,0.1-4.57-1.83-4.66-4.31c0-0.06,0-0.12,0-0.18  c0-2.76,2.08-4.49,4.67-4.49c2.59,0,4.66,1.73,4.66,4.49C651.35,302.7,649.28,304.43,646.69,304.43z"/>
<polygon class="st0" points="350.87,476.02 332.55,495.03 335.15,468.76 328.58,465.65 325.99,501.24 332.04,504.18 357.09,478.78   "/>
<path class="st0" d="M292.29,439.9l-9.67-8.83l-22.64,24.37l4.84,4.49l8.64-9.5l2.42,2.42l-3.81,13.82l5.36,4.84l3.98-14.69  c3.98,1.91,8.47,1.04,11.78-2.25C297.14,450.28,296.95,444.4,292.29,439.9z M288.12,450.1c-1.9,2.08-4.49,2.25-7.08-0.17l-3.81-3.46  l6.4-6.74l3.8,3.45C289.88,445.43,290.05,448.2,288.12,450.1z"/>
<polygon class="st0" points="287.45,479.13 304.73,490.71 308.19,485.69 296.27,477.57 300.42,471.35 311.48,478.43 314.58,473.6   303.7,466.52 307.85,460.29 319.94,468.25 323.4,463.06 306.12,451.48 "/>
<polygon class="st0" points="491.35,476.88 503.79,507.81 509.84,505.39 497.4,474.46 "/>
<path class="st0" d="M518.82,462.89c-7.77,4.49-11.4,14.34-6.04,23.67c5.36,9.33,15.73,10.89,23.5,6.57  c7.95-4.66,11.58-14.51,6.22-23.85C536.95,459.95,526.6,458.4,518.82,462.89z M533.16,487.59c-4.31,2.42-10.88,2.08-14.51-4.49  c-3.8-6.57-1.21-12.1,3.28-14.86c4.49-2.42,10.89-2.08,14.69,4.31C540.42,479.13,537.69,484.83,533.16,487.59z"/>
<polygon class="st0" points="555.98,435.93 570.83,452.34 545.78,445.08 539.56,450.44 561.85,475.5 566.69,471.18 550.79,453.38   577.92,460.99 583.1,456.5 560.98,431.61 "/>
<path class="st0" d="M376.27,483.45c-8.83-2.08-18.32,2.41-20.73,12.96c-2.77,10.54,3.63,18.84,12.44,20.91  c8.83,2.21,18.31-2.41,20.73-12.79C391.48,493.99,385.08,485.52,376.27,483.45z M382.35,502.8c-1.91,7.43-7.95,9.5-12.79,8.47  c-5.01-1.21-9.34-6.05-7.6-13.31c1.9-7.43,7.95-9.5,12.79-8.29C379.73,490.71,384.04,495.54,382.35,502.8z"/>
<polygon class="st0" points="406.51,489.15 399.95,488.63 397.87,521.98 420.16,523.53 420.51,517.14 404.78,516.28 "/>
<polygon class="st0" points="484.79,479.65 458.17,486.9 459.73,492.78 469.92,490.02 477.01,516.28 483.23,514.55 476.14,488.29   486.51,485.69 "/>
<path class="st0" d="M451.61,487.94l-6.39,0.87l2.08,20.73c0.52,4.32-1.73,6.91-5.53,7.26c-3.8,0.35-6.57-1.73-7.09-6.05  l-1.72-20.73l-6.57,0.52l2.07,21.43c0.69,8.1,6.74,11.92,13.83,11.23s12.44-5.7,11.57-13.82L451.61,487.94z"/>
<polygon class="st0" points="267.07,178.47 249.1,163.44 276.91,167.07 281.41,161.71 255.83,140.28 251.69,145.3 268.62,159.47   242.7,155.84 237.52,162.06 262.92,183.48 "/>
<polygon class="st0" points="322.7,129.74 318.21,105.21 336.18,122.66 341.89,119.55 334.45,86.02 328.41,88.62 334.11,111.95   316.66,95.01 310.78,98.3 315.11,121.97 298.51,104.52 293.16,108.32 316.66,133.03 "/>
<polygon class="st0" points="304.91,141.67 300.93,137 289.88,146.16 284.86,140.11 294.88,131.82 291.26,127.32 281.23,135.79   276.23,129.74 287.45,120.59 283.49,115.92 267.42,129.22 288.67,154.8 "/>
<polygon class="st0" points="555.45,125.59 552,153.59 557.18,158.08 578.61,132.51 573.6,128.36 559.43,145.12 563.06,119.37   556.84,114.19 535.42,139.77 540.42,143.91 "/>
<path class="st0" d="M512.95,117.82l11.78,6.57l-1.03,7.95l6.04,3.45l5.01-35.25l-6.4-3.63l-27.48,22.82l6.05,3.28L512.95,117.82z   M527.98,105.03l-2.21,13.13l-7.96-4.32L527.98,105.03z"/>
<polygon class="st0" points="498.6,112.46 484.79,107.45 493.77,81.88 487.55,79.63 476.67,111.08 496.71,118.34 "/>
<path class="st0" d="M590.01,144.09L564.1,165l7.6,9.33c5.89,7.43,15.21,9.16,23.33,2.59c8.3-6.74,8.47-16.24,2.59-23.5  L590.01,144.09z M590.7,171.56c-5.53,4.5-10.88,2.94-14.51-1.21l-3.46-3.98l16.76-13.47l3.28,3.97  C596.23,161.19,596.41,166.9,590.7,171.56L590.7,171.56z"/>
<polygon class="st0" points="427.08,69.78 420.51,69.96 421.37,92.08 406.68,70.48 398.56,70.82 399.77,103.99 406.34,103.65   405.48,80.33 421.37,103.31 428.28,102.96 "/>
<polygon class="st0" points="375.58,102.44 374.02,94.84 386.81,92.24 385.43,86.55 372.82,89.14 371.09,81.71 385.26,78.77   383.88,72.72 363.48,77.22 370.57,109.87 390.96,105.56 389.75,99.5 "/>
<path class="st0" d="M461.98,103.13l-0.18,3.8l5.15,0.87l2.8-17.1l-16.42-2.76l-0.86,5.53l10.37,1.9c-0.69,2.08-3.63,5.89-9.85,5.01  c-5.36-1.04-9.67-5.71-8.64-13.13c1.38-7.77,7.43-10.37,12.27-9.5c5.36,0.86,7.6,4.84,7.95,7.77l6.39-1.21  c-0.86-5.36-4.67-11.04-13.3-12.62c-8.99-1.55-17.97,3.81-19.7,14.52c-1.72,10.54,4.84,18.49,13.83,19.7  C456.45,106.76,460.25,105.03,461.98,103.13z"/>
<path class="st0" d="M598.01,296.73c0.01-33.62-18.32-64.57-47.8-80.73c6.01-20.44-5.68-41.88-26.12-47.89  c-7.14-2.1-14.75-2.09-21.88,0.03c-24.33-44.65-80.25-61.13-124.9-36.8c-15.72,8.56-28.6,21.52-37.07,37.29  c-20.59-5.5-41.74,6.73-47.24,27.31c-1.73,6.49-1.74,13.31-0.03,19.8c-44.72,24.21-61.35,80.08-37.15,124.81  c8.47,15.64,21.28,28.5,36.9,37.01c-6.12,20.4,5.46,41.9,25.86,48.01c7.19,2.16,14.86,2.17,22.06,0.03  c24.47,44.58,80.45,60.89,125.03,36.42c15.36-8.43,27.99-21.06,36.42-36.42c20.41,6.13,41.92-5.44,48.06-25.84  c2.18-7.25,2.18-14.99-0.01-22.24C579.68,361.38,598.03,330.39,598.01,296.73z"/>
<path class="st2" d="M384.45,317.35l-22.82,18.79c0,0.02,0,0.04,0,0.06l-40.49,33.34c-32.23-44.47-31.33-104.84,2.21-148.33  c0.3-0.4,0.62-0.79,0.93-1.18l0.74-0.93c1.61-2,3.28-3.96,5.02-5.85c-40.95,3.68-73.1,39.7-73.1,83.63s32.15,79.96,73.1,83.63l0,0  l7.41,0.68c0,0,0.55,8.22,0.63,8.92c4.53,40.1,40.13,71.33,83.42,71.33c43.92,0,79.96-32.15,83.63-73.1  c-1.89,1.73-3.85,3.4-5.89,5.02l-0.92,0.74c-0.4,0.31-0.79,0.63-1.19,0.93c-43.48,33.53-103.86,34.43-148.32,2.21l60.96-73.62  c-1.47-2.21-3.03-3.95-4.61-4.87l-19.57-2.28l0,0l-1.12,0.91 M269.71,296.84c0-35.49,20.93-65.35,49.39-74.3  c-20.81,14.39-34.93,42.26-34.93,74.3s14.12,59.94,34.93,74.36C290.64,362.22,269.71,332.36,269.71,296.84z M421.46,448.61  c-35.49,0-65.35-20.92-74.3-49.39c14.39,20.82,42.26,34.93,74.3,34.93s59.91-14.11,74.27-34.93  C486.81,427.69,456.95,448.61,421.46,448.61z M515.2,213.5h-0.09c-0.83-0.09-1.66-0.18-2.5-0.25l-6.9-0.65c0,0-0.66-7.2-0.63-7.17  c-3.68-40.95-39.7-73.1-83.63-73.1s-79.96,32.15-83.63,73.1c1.9-1.74,3.86-3.41,5.89-5.03l0.93-0.74c0.39-0.31,0.78-0.63,1.18-0.93  c43.49-33.54,103.87-34.44,148.34-2.21l-12.57,15.33l-14.85,17.99l0,0L419.07,288c10.93,0.05,20.3,0.1,25.15,0.1h0.58l77.74-62.92  c31.51,44.43,30.32,104.23-2.94,147.36c-0.3,0.4-0.61,0.79-0.93,1.19l-0.74,0.92c-1.62,2-3.29,3.96-5.02,5.85  c40.95-3.68,73.1-39.7,73.1-83.63C586.02,253.76,555.06,218.28,515.2,213.5z M421.46,159.58c-32.04,0-59.91,14.11-74.3,34.93  c8.94-28.47,38.81-49.39,74.3-49.39s65.35,20.93,74.27,49.38C481.37,173.69,453.5,159.58,421.46,159.58z M523.79,371.16  c20.82-14.39,34.93-42.26,34.93-74.3c0-31.5-13.65-58.97-33.87-73.55l0.21-0.17l-0.23-0.23c27.98,9.34,48.37,38.89,48.37,73.95  c-0.01,35.49-20.93,65.35-49.4,74.33L523.79,371.16z M540.23,388.65c0.02,14.9-12.05,27-26.95,27.01c-2.1,0-4.19-0.24-6.23-0.72  c1.27-3.22,2.35-6.51,3.24-9.86c9.04,1.65,17.71-4.33,19.36-13.37c0.18-1.01,0.28-2.04,0.27-3.06c0-0.99-0.1-1.97-0.28-2.94  c3.34-0.89,6.63-1.97,9.86-3.23c0.49,2.02,0.74,4.1,0.75,6.18L540.23,388.65z M330.24,178.83c1.7,0,3.4,0.16,5.07,0.49  c-1.24,3.25-2.28,6.57-3.14,9.95c-0.64-0.08-1.29-0.12-1.94-0.13c-9.22,0.01-16.69,7.48-16.7,16.7c0,0.59,0.03,1.18,0.1,1.76  c-3.37,0.87-6.69,1.93-9.95,3.18c-0.3-1.63-0.45-3.28-0.46-4.94c0.03-14.91,12.13-26.98,27.03-26.98L330.24,178.83z M529.71,207.76  c0.15-0.89,0.23-1.8,0.24-2.7c0.05-9.17-7.34-16.65-16.51-16.7c-1.02-0.01-2.05,0.08-3.06,0.27c-0.88-3.35-1.95-6.64-3.2-9.87  c14.52-3.36,29.01,5.69,32.37,20.21c0.92,3.96,0.93,8.08,0.02,12.05C536.35,209.73,533.05,208.65,529.71,207.76z M336.01,415.78  c-14.57,3.18-28.96-6.06-32.13-20.64c-0.89-4.07-0.82-8.3,0.2-12.34c3,1.14,6.07,2.12,9.17,2.94c-0.18,0.97-0.27,1.96-0.27,2.94  c0.01,9.22,7.49,16.7,16.71,16.7c0.92-0.01,1.84-0.09,2.75-0.24C333.41,408.76,334.6,412.31,336.01,415.78z"/>
<path class="st1" d="M372.83,385.77l12.13-21.9c2.21,17.34,10.91,27.42,10.91,27.42l-6.68,8.15L372.83,385.77z M347.25,316.71  c0-3.03,0.51-8.55,7.36-8.55h7.7v14.44c0.06,4.52-0.17,9.03-0.7,13.52l22.82-18.8v-9.18h23.79c6.07,2.64,11.35,6.79,15.36,12.06  c19.55,25.57,31.16,63.9,57.87,69.11l33.3-33.02l-9.47-8.46c0,0-13.54,13.36-24.8,12.81c-13.36-0.65-18.74-18.58-26.27-32.14  c-3.85-7.12-8.25-13.93-13.15-20.36h0.93c0,0,20.36,0.66,32.09-5.7c15.71-8.51,25.55-23.65,27.9-42.18l-32.15,16.7  c-5.23,6.91-13.63,11.15-25.6,11.15c-9.72,0-37.7-0.16-59.78-0.3v-57.92c10.54-6.21,27.54-15.69,51.48-13.79  c13.69,1.08,23.99,6.46,30.8,13.77l14.78-18.04c-5.33-4.11-11.25-7.39-17.57-9.74c-39.03-14.88-76.63,4.19-91.89,13.02  c-16.78,9.78-30.46,4.56-30.46,4.56l-3.42,16.93c7.52,3.51,15.98,4.51,24.11,2.84v48.19l-7.4-0.04c-6.84,0-7.36-5.54-7.36-8.55  v-12.08h-12.05l-0.3,61.84h12.09V316.71z"/>
</svg>