<svg xmlns="http://www.w3.org/2000/svg" xmlns:xlink="http://www.w3.org/1999/xlink" version="1.0" id="katman_1" x="0px" y="0px" style="enable-background:new 0 0 493.7 365.7;" xml:space="preserve" viewBox="126.8 26.8 240.4 312.2">
<style type="text/css">
	.st0{fill:#FFFFFF;}
	.st1{fill:#DD004A;}
	.st2{fill:#001837;}
</style>
<g id="Layer_2">
	<g id="Art">
		<g>
			<path class="st0" d="M349,69.2c-1.2-0.1-2.4-0.3-3.8-0.4c-20.6-2.8-31.8-11.3-43.6-20.2c-12.9-9.7-27.5-20.8-54.7-20.8     c-27.2,0-41.8,11-54.7,20.8c-11.8,8.9-23,17.4-43.6,20.2c-1.4,0.2-2.6,0.3-3.8,0.4c-4.7,0.5-17,1.8-17,14.8v127.6     c0,32.4,10.2,59.7,30.3,81.1c19.8,21,49,36.1,86.7,44.8l2.2,0.5l2.2-0.5c37.7-8.7,66.9-23.8,86.7-44.8     c20.1-21.4,30.3-48.7,30.3-81.1V84C366,71,353.6,69.7,349,69.2z"/>
			<path class="st1" d="M246.8,40.2c-23.1,0-34.8,8.9-47.2,18.2C187,68,174,77.9,150.1,81.1c-1.5,0.2-2.9,0.4-4.2,0.5     c-5.8,0.6-5.8,1-5.8,2.4v127.6c0,29.2,9.1,53.6,26.9,72.6c18,19.1,44.8,32.9,79.8,41c35-8.1,61.8-21.9,79.8-41     c17.9-19,26.9-43.4,26.9-72.6V84c0-1.4,0-1.8-5.8-2.4c-1.3-0.1-2.7-0.3-4.2-0.5C319.6,77.9,306.6,68,294,58.5     C281.6,49.1,269.9,40.2,246.8,40.2z"/>
			<path class="st2" d="M283.3,50.8v262.7c-11.8,5-24,9-36.5,11.8c-35-8.1-61.8-22-79.8-41c-17.9-19-26.9-43.4-26.9-72.6V84.1     c0-1.4,0-1.8,5.8-2.4c1.3-0.1,2.7-0.3,4.2-0.5C174,77.9,187,68,199.6,58.5c12.4-9.4,24.1-18.2,47.2-18.2     C263.3,40.3,274,44.8,283.3,50.8z"/>
			<g>
				<path class="st1" d="M275.1,86.7c-8.2-6-16.9-9.1-25.8-9.1h-0.6c-17.9,0-35,12.5-48.2,35.2c-8.7,14.9-33.2,62.1-56.8,107.7      c-0.9,1.8-1.8,3.6-2.8,5.3c1,9.4,3.2,18.5,6.6,27.3c27.9-52.9,62.3-117.8,71.3-133.8c9.9-17.7,19.8-26.2,30.3-26      c10.4-0.2,20.3,8.3,30.2,26c1.3,2.3,3,5.5,5.2,9.5V95.1C281.5,92,278.4,89.2,275.1,86.7z"/>
				<path class="st1" d="M160.1,161.4l8.3-14.9c-9.6,2-19,4.6-28.3,7.7v13.6c6.5-2.3,13.1-4.4,19.9-6.1L160.1,161.4z"/>
				<path class="st1" d="M153.1,175.5c-4.4,1.4-8.7,2.9-12.9,4.6V194c1.2-0.5,2.3-1,3.5-1.4L153.1,175.5z"/>
				<path class="st1" d="M215,156.7c2.1-0.1,4.2-0.1,6.3-0.1c21.3-0.1,42.5,2.7,63,8.2v-13.3c-20.4-5.2-41.5-7.8-62.5-7.8L215,156.7      z"/>
				<path class="st1" d="M250.2,174.3c-9.2-1.2-18.4-1.8-27.7-1.8c-0.8,0-1.6,0-2.5,0c-4.5,0-9.1,0.1-13.6,0.4l-7,13.3l-0.3,0.5      l-43.5,83c2.8,4.4,5.9,8.5,9.3,12.3l50.6-96.3c1.5,0,3-0.1,4.5-0.1c4,0,7.9,0.1,11.8,0.3c0.1,0,0.3,0,0.4,0l-0.4,0.7      l-56.5,105.5c3.6,3.1,7.4,5.9,11.3,8.5l60.4-112.6l0.4-0.8c12.5,1.5,24.8,4.1,36.8,7.7v-13.8c-10-2.8-20.1-5-30.3-6.4      C252.8,174.6,251.5,174.5,250.2,174.3z"/>
			</g>
			<path class="st2" d="M348.3,75.9c-1.1-0.1-2.5-0.3-4-0.5c-22.3-3.1-34.7-12.5-46.8-21.5c-12.6-9.5-25.7-19.4-50.7-19.4     c-25,0-38.1,9.9-50.7,19.4c-12,9.1-24.4,18.4-46.7,21.5c-1.5,0.2-2.9,0.4-4,0.5c-4.9,0.5-11,1.2-11,8.2v127.6     c0,30.7,9.6,56.4,28.5,76.5c18.9,20.1,46.9,34.5,83.3,42.9l0.6,0.1l0,0l0.7-0.2c36.4-8.4,64.5-22.8,83.3-42.9     c18.9-20.1,28.5-45.9,28.5-76.5V84.1C359.3,77.1,353.2,76.4,348.3,75.9z M353.4,84.1v127.6c0,29.1-9.1,53.5-26.9,72.5     c-17.9,19.1-44.8,32.9-79.7,41c-34.9-8.1-61.8-21.9-79.7-41c-17.9-19-26.9-43.4-26.9-72.5V84.1c0-1.3,0-1.7,5.8-2.4     c1.4-0.2,2.7-0.3,4.2-0.5c23.9-3.3,36.9-13.1,49.5-22.7c12.4-9.4,24.1-18.2,47.2-18.2c23,0,34.8,8.9,47.2,18.2     c12.6,9.5,25.6,19.4,49.5,22.7c1.4,0.2,2.7,0.3,4.2,0.5C353.4,82.4,353.4,82.8,353.4,84.1L353.4,84.1z"/>
			<g>
				<g>
					<g>
						<path class="st0" d="M291.7,122.4c0-16,3.6-22.1,15.8-22.1h1.9c12.2,0,15.8,6.1,15.8,22.1v4.7c0,14.8-3.1,20.9-12.9,22v-14.2        c3.1-0.9,3.7-2.7,3.7-9.9v-0.4c0-8.8-1.9-10-7-10h-1.1c-5.1,0-7,1.2-7,10v0.4c0,7.2,0.6,9,3.7,9.9V149        c-9.8-1-12.9-7.2-12.9-22V122.4z"/>
						<path class="st0" d="M292.2,153h32.6v14h-32.6V153z"/>
						<path class="st0" d="M292.2,184.2h22.7v-14h9.9v42h-9.9v-14h-22.7V184.2z"/>
						<path class="st0" d="M292.2,232.2h14.1l18.5-18.4v17.1l-9.6,9v0.5l9.6,9v15.3l-18.5-18.4h-14.1V232.2z"/>
					</g>
					<g>
						<path class="st0" d="M336.9,130.4c-1.3,0-1.9,1.1-1.9,5.1c0,3.4,0.4,4.4,1.3,4.4c1,0,1.2-0.7,1.4-4.7c0.2-5.4,1.1-7.6,3.9-7.6        c2.7,0,3.6,2.8,3.6,7.4c0,4.7-1.2,7.5-4.2,7.5v-3.2c1.4,0,1.7-1.4,1.7-4.7c0-3.1-0.3-3.9-1.2-3.9c-1,0-1.1,0.7-1.3,4.4        c-0.3,4.9-0.5,7.9-3.7,7.9c-3.3,0-4-3.1-4-7.7c0-5.1,0.9-8.1,4.5-8.1L336.9,130.4z"/>
						<path class="st0" d="M342.4,159.1v-6h-9.7v-3.2h9.7v-6h2.7v15.3H342.4z"/>
						<path class="st0" d="M335.3,181.8h-2.7V169h12.4v3.2h-9.7V181.8z"/>
						<path class="st0" d="M338.9,183.1c4.1,0,6.4,2.3,6.4,7.8c0,5.4-2.3,7.8-6.4,7.8c-4.1,0-6.4-2.4-6.4-7.8        C332.5,185.4,334.7,183.1,338.9,183.1z M338.9,195.5c2.5,0,3.7-1.3,3.7-4.6c0-3.3-1.2-4.6-3.7-4.6c-2.6,0-3.7,1.3-3.7,4.6        S336.3,195.5,338.9,195.5z"/>
						<path class="st0" d="M332.5,208.2c0-5.5,2.1-7.8,6.4-7.8h6.2v3.2h-6.2c-1.7,0-3.7,0.5-3.7,4.6s2,4.6,3.7,4.6h6.2v3.2h-6.2        C334.6,216,332.5,213.6,332.5,208.2z"/>
						<path class="st0" d="M332.6,220.9v-3.2h12.4v3.2H332.6z"/>
						<path class="st0" d="M336.9,225.7c-1.3,0-1.9,1.1-1.9,5.1c0,3.4,0.4,4.4,1.3,4.4c1,0,1.2-0.7,1.4-4.7c0.2-5.4,1.1-7.6,3.9-7.6        c2.7,0,3.6,2.8,3.6,7.4c0,4.7-1.2,7.5-4.2,7.5v-3.2c1.4,0,1.7-1.4,1.7-4.7c0-3.1-0.3-3.9-1.2-3.9c-1,0-1.1,0.7-1.3,4.4        c-0.3,4.9-0.5,7.9-3.7,7.9c-3.3,0-4-3.1-4-7.7c0-5.1,0.9-8.1,4.5-8.1L336.9,225.7z"/>
					</g>
				</g>
				<path class="st0" d="M231.2,292.3c0,1.5,1.2,2.2,5.8,2.2c3.8,0,4.9-0.4,4.9-1.5c0-1.2-0.8-1.4-5.3-1.6c-6.1-0.3-8.5-1.2-8.5-4.4      c0-3.1,3.1-4.1,8.4-4.1c5.3,0,8.5,1.3,8.5,4.8h-3.6c0-1.5-1.5-1.9-5.3-1.9c-3.5,0-4.4,0.3-4.4,1.4c0,1.1,0.8,1.3,4.9,1.5      c5.5,0.3,8.9,0.6,8.9,4.1c0,3.7-3.5,4.5-8.7,4.5c-5.7,0-9.2-1-9.2-5L231.2,292.3z"/>
				<path class="st0" d="M256.7,283c5.6,0,8.4,2.1,8.7,6.2h-3.7c-0.3-2.3-2.1-3.1-5.1-3.1c-3.7,0-5.2,1.3-5.2,4.2      c0,2.9,1.6,4.2,5.2,4.2c3,0,4.7-0.9,5.1-3.2h3.7c-0.4,4.1-3.2,6.2-8.7,6.2c-6.2,0-8.8-2.6-8.8-7.2      C247.9,285.5,250.5,283,256.7,283z"/>
			</g>
		</g>
	</g>
</g>
</svg>