<svg xmlns="http://www.w3.org/2000/svg" xmlns:xlink="http://www.w3.org/1999/xlink" version="1.0" id="katman_1" x="0px" y="0px" style="enable-background:new 0 0 1086.33 848.55;" xml:space="preserve" viewBox="230.67 48.28 624.84 751.8">
<style type="text/css">
	.st0{fill:none;stroke:#BEF0E9;stroke-width:2;}
	.st1{fill:none;stroke:#3E8ABA;stroke-width:2;}
	.st2{fill:none;stroke:#177E77;stroke-width:2;}
	.st3{fill:#7CE0D3;}
	.st4{fill:#0033A0;}
	.st5{fill:#2DC84D;}
</style>
<g>
	<path vector-effect="non-scaling-stroke" class="st0" d="M543.07,49.28l-311.4,150.19"/>
	<path vector-effect="non-scaling-stroke" class="st0" d="M543.48,49.28c0,0.03,0,0.06,0,0.09c0,0.06,0,0.09,0.01,0.09L853.96,199   c0.41,0.19,0.59,0.52,0.54,0.97c-7.61,66.79-15.16,133.23-22.65,199.33c-6.3,55.62-14.98,111.68-38.72,162.68   c-13.43,28.87-31.29,54.81-53.57,77.81c-23.31,24.05-49.31,45.24-76.03,65.36c-40.59,30.57-80.61,61.84-120.04,93.81   c-0.19,0.16-0.47,0.16-0.66,0c-42.28-34.21-84.91-67.52-127.88-99.93c-28.32-21.36-55.48-44.38-78.84-71.17   c-49.23-56.48-69.5-127.32-78.06-200.85c-8.81-75.67-17.61-151.36-26.38-227.07"/>
	<path vector-effect="non-scaling-stroke" class="st1" d="M720.23,634.84c30.25-29.37,52.44-63.67,66.58-102.9   c13.16-36.51,20.68-75.08,25.1-113.16c4.41-38.05,12.17-105.8,23.26-203.25c0.19-1.69,0.42-3.45,0.69-5.28   c0.05-0.37-0.09-0.64-0.43-0.8L543.44,68.78c-0.16-0.08-0.34-0.08-0.5,0l-292.08,140.7c-0.24,0.12-0.35,0.31-0.32,0.58   c8.07,71.03,16.24,142.11,24.52,213.24c8.23,70.71,26.93,139.76,74.98,194.38c22.34,25.38,49.7,48.69,75.4,67.85   c39.73,29.63,78.86,60.02,117.41,91.17c0.27,0.22,0.54,0.22,0.81,0c46.86-38.15,86.34-67.46,129.7-100.98   C688.96,663.66,704.58,650.03,720.23,634.84"/>
	<path vector-effect="non-scaling-stroke" class="st2" d="M499.13,646.79c-0.43-3.95-1.09-9.21-1.98-15.76   c-11.04-81.74-22.67-163.76-34.89-246.05c-0.09-0.65-0.47-1.01-1.12-1.07c-24.97-2.41-52.9-7.54-75.32-19.66   c-0.31-0.17-0.42-0.56-0.25-0.87c0.08-0.14,0.21-0.25,0.36-0.3c5.75-1.85,11.72-3.34,17.91-4.46c19.59-3.53,39.72-5.21,59.58-6.36   c45.57-2.65,91.15-3.06,136.76-1.22c23.01,0.93,45.95,2.8,68.81,5.63c10.71,1.33,21.16,3.44,31.35,6.33   c0.35,0.1,0.56,0.48,0.45,0.83c-0.05,0.16-0.16,0.3-0.3,0.39c-5.25,3.03-10.59,5.47-16.02,7.34c-20.41,7.03-42,10.66-63.44,12.83   c-0.42,0.04-0.66,0.27-0.72,0.7c-0.07,0.56-0.19,1.29-0.36,2.2c-14.8,78.64-25.56,133.62-33.49,201.24   c-5.18,44.23-5.03,82.91-2.52,124.76c0.01,0.2,0.18,0.36,0.39,0.35c0.07,0,0.14-0.03,0.2-0.07c27.82-20.67,55.41-41.81,82.77-63.43   c22.13-17.49,40.75-35.21,55.85-53.14c42.24-50.17,57.99-116.24,65.45-181.98c7.21-63.51,14.42-127.2,21.63-191.06   c0.02-0.2-0.08-0.4-0.27-0.49L546.39,96.5c-0.19-0.09-0.43-0.01-0.52,0.18c-0.03,0.06-0.04,0.13-0.04,0.2l8.68,115.38   c0.04,0.5,0.31,0.76,0.82,0.78c19.48,0.76,40.08,3.12,58.82,8.9c0.25,0.08,0.38,0.35,0.3,0.59c-0.05,0.14-0.15,0.25-0.29,0.3   c-3.09,1.07-5.88,2.75-8.37,5.05c-11.89,11.01,3.68,19.96,12.44,23.62c21.57,9.02,47.24,16.9,70.8,25.62   c0.17,0.04,0.26,0.21,0.22,0.38c-0.04,0.17-0.21,0.26-0.38,0.22l0,0c-73.17-12.04-148.92-13.9-222.77-8.3   c-23.02,1.75-45.83,4.51-68.43,8.3c-0.21,0.03-0.4-0.12-0.43-0.33c-0.02-0.17,0.07-0.34,0.24-0.4   c16.94-6.07,33.83-11.98,50.67-17.75c10.69-3.66,38.9-13.05,36.68-24.62c-1.06-5.49-7.57-10.11-12.65-11.83   c-0.28-0.1-0.43-0.4-0.33-0.69c0.06-0.17,0.2-0.3,0.37-0.35c19.22-5.13,38.78-8.02,58.69-8.65c0.45-0.01,0.82-0.36,0.86-0.82   l8.78-115.7c0.01-0.12-0.08-0.23-0.2-0.23c-0.04,0-0.08,0.01-0.11,0.02L276.88,223.22c-0.5,0.24-0.79,0.77-0.73,1.33   c7.05,62.53,14.13,125.04,21.24,187.54c5.4,47.53,14.36,95.44,35.91,138.63c14.87,29.77,36.05,56.42,60.96,78.47   c40.89,36.2,82.02,64.43,132.68,104.18c0.45,0.35,0.67,0.24,0.67-0.33l0.08-344.58c0-0.19-0.15-0.34-0.34-0.35l-35.77-1.61   c-0.35-0.01-0.64,0.26-0.65,0.6c0,0.02,0,0.05,0,0.07c6.55,86.26,12.13,173.43,9.21,259.58   C499.98,651.51,499.64,651.52,499.13,646.79"/>
	<path vector-effect="non-scaling-stroke" class="st2" d="M558.63,388.6l0.13,170.63c0.01,0.1,0.1,0.17,0.2,0.16   c0.07-0.01,0.13-0.05,0.15-0.12c14.42-57,26.49-114.81,37.72-172.56c0.02-0.11-0.05-0.21-0.16-0.24c-0.02,0-0.04,0-0.05,0   l-37.52,1.64C558.83,388.12,558.63,388.33,558.63,388.6"/>
	<path vector-effect="non-scaling-stroke" class="st2" d="M486.11,322.89c43.7-1.74,87.57-1.62,131.24,1   c21.53,1.29,44.41,3.19,65.07,8.63c1.97,0.52,4.09,1.44,6.35,2.75c0.29,0.17,0.6,0.24,0.93,0.22c7.92-0.4,54.95-4.06,54.77-14.94   c0-0.33-0.14-0.65-0.38-0.88c-2.17-2.03-4.49-3.5-6.96-4.41c-10.06-3.68-20.88-6.52-32.46-8.52c-22.22-3.85-44.57-6.64-67.06-8.36   c-52.87-4.04-105.79-4.75-158.76-2.12c-28.9,1.43-57.65,4.32-86.25,8.65c-7.2,1.09-49.69,8.3-50.74,16.02   c-1.35,9.94,47.72,14.15,54.53,14.63c0.33,0.02,0.64-0.05,0.93-0.2c8.97-4.87,22.04-6.62,32.1-7.86   C448.24,325.18,467.14,323.65,486.11,322.89"/>
	<path vector-effect="non-scaling-stroke" class="st2" d="M412.87,496.76l-8.42,14.69c-0.07,0.12-0.03,0.28,0.1,0.36   c0.04,0.02,0.09,0.04,0.13,0.03l13.79-0.09c0.33,0,0.57-0.14,0.74-0.42c4.05-6.82,8.03-13.68,11.94-20.59   c9.5-16.77-0.76-34.86-20.21-31.74c-18.89,3.03-22.04,29.33-3.59,36.38c1.57,0.6,3.44,0.49,5.18,0.7   C412.99,496.13,413.1,496.36,412.87,496.76"/>
	<path vector-effect="non-scaling-stroke" class="st2" d="M371.78,474.65c0.22-0.11,0.48-0.02,0.59,0.2   c0.03,0.06,0.05,0.13,0.05,0.2v36.23c0,0.33,0.17,0.5,0.5,0.5h12.25c0.41,0,0.75-0.34,0.75-0.75v-50.8c0-0.45-0.22-0.67-0.67-0.68   c-3.64-0.06-7.65-0.63-11.03,0.99c-4.49,2.15-9,4.29-13.53,6.44c-0.35,0.17-0.52,0.44-0.52,0.82v11.96c0,0.47,0.21,0.6,0.64,0.39   L371.78,474.65"/>
	<path vector-effect="non-scaling-stroke" class="st2" d="M648.17,470.92c0,0.2,0.16,0.36,0.36,0.36h19.61   c0.2,0,0.36,0.17,0.35,0.37c0,0.05-0.01,0.1-0.03,0.14l-18.32,39.55c-0.09,0.18-0.02,0.39,0.16,0.48c0.05,0.03,0.11,0.04,0.17,0.04   l13.76-0.12c0.14,0,0.27-0.08,0.33-0.21l23.42-51.49c0.08-0.18,0-0.39-0.18-0.48c-0.05-0.02-0.1-0.03-0.15-0.03h-39.12   c-0.2,0-0.36,0.16-0.36,0.36V470.92"/>
	<path vector-effect="non-scaling-stroke" class="st2" d="M710.44,502.27c0.29,0,0.52,0.23,0.52,0.52c0,0,0,0.01,0,0.01l-0.16,8.45   c-0.01,0.29,0.22,0.52,0.51,0.53c0,0,0.01,0,0.01,0h10.83c0.29,0,0.52-0.23,0.52-0.52v-8.46c0-0.29,0.23-0.52,0.52-0.52h4.96   c0.29,0,0.52-0.23,0.52-0.52v-10.28c0-0.29-0.23-0.52-0.52-0.52c-0.01,0-0.03,0-0.04,0l-4.88,0.4c-0.29,0.02-0.54-0.19-0.56-0.48   c0-0.01,0-0.03,0-0.04v-8.61c0-0.29-0.23-0.52-0.52-0.52c0,0-0.01,0-0.01,0l-10.84,0.23c-0.29,0.01-0.52,0.24-0.51,0.53   c0,0,0,0,0,0l0.18,7.97c0.01,0.29-0.22,0.52-0.51,0.53c0,0,0,0,0,0l-6.81,0.19c-0.29,0.01-0.53-0.22-0.53-0.51   c0-0.08,0.01-0.15,0.04-0.22l13.5-30.17c0.12-0.26,0-0.57-0.27-0.69c-0.06-0.03-0.13-0.04-0.2-0.04H703.5   c-0.21,0-0.4,0.12-0.48,0.31l-18.86,41.73c-0.12,0.26-0.01,0.57,0.25,0.69c0.07,0.03,0.15,0.05,0.23,0.05L710.44,502.27"/>
	<path vector-effect="non-scaling-stroke" class="st2" d="M422.42,478.1c0-4.14-3.36-7.5-7.5-7.5c-4.14,0-7.5,3.36-7.5,7.5   s3.36,7.5,7.5,7.5C419.06,485.6,422.42,482.24,422.42,478.1"/>
</g>
<path class="st3" d="M543.07,49.28h0.41c0,0.03,0,0.06,0,0.09c0,0.06,0,0.09,0.01,0.09L853.96,199c0.41,0.19,0.59,0.52,0.54,0.97  c-7.61,66.79-15.16,133.23-22.65,199.33c-6.3,55.62-14.98,111.68-38.72,162.68c-13.43,28.87-31.29,54.81-53.57,77.81  c-23.31,24.05-49.31,45.24-76.03,65.36c-40.59,30.57-80.61,61.84-120.04,93.81c-0.19,0.16-0.47,0.16-0.66,0  c-42.28-34.21-84.91-67.52-127.88-99.93c-28.32-21.36-55.48-44.38-78.84-71.17c-49.23-56.48-69.5-127.32-78.06-200.85  c-8.81-75.67-17.61-151.36-26.38-227.07v-0.47L543.07,49.28z M720.23,634.84c30.25-29.37,52.44-63.67,66.58-102.9  c13.16-36.51,20.68-75.08,25.1-113.16c4.41-38.05,12.17-105.8,23.26-203.25c0.19-1.69,0.42-3.45,0.69-5.28  c0.05-0.37-0.09-0.64-0.43-0.8L543.44,68.78c-0.16-0.08-0.34-0.08-0.5,0l-292.08,140.7c-0.24,0.12-0.35,0.31-0.32,0.58  c8.07,71.03,16.24,142.11,24.52,213.24c8.23,70.71,26.93,139.76,74.98,194.38c22.34,25.38,49.7,48.69,75.4,67.85  c39.73,29.63,78.86,60.02,117.41,91.17c0.27,0.22,0.54,0.22,0.81,0c46.86-38.15,86.34-67.46,129.7-100.98  C688.96,663.66,704.58,650.03,720.23,634.84z"/>
<path class="st4" d="M720.23,634.84c-15.65,15.19-31.27,28.82-46.87,40.88c-43.36,33.52-82.84,62.83-129.7,100.98  c-0.27,0.22-0.54,0.22-0.81,0c-38.55-31.15-77.68-61.54-117.41-91.17c-25.7-19.16-53.06-42.47-75.4-67.85  c-48.05-54.62-66.75-123.67-74.98-194.38c-8.28-71.13-16.45-142.21-24.52-213.24c-0.03-0.27,0.08-0.46,0.32-0.58l292.08-140.7  c0.16-0.08,0.34-0.08,0.5,0l291.99,140.67c0.34,0.16,0.48,0.43,0.43,0.8c-0.27,1.83-0.5,3.59-0.69,5.28  c-11.09,97.45-18.85,165.2-23.26,203.25c-4.42,38.08-11.94,76.65-25.1,113.16C772.67,571.17,750.47,605.47,720.23,634.84z   M499.13,646.79c-0.43-3.95-1.09-9.21-1.98-15.76c-11.04-81.74-22.67-163.76-34.89-246.05c-0.09-0.65-0.47-1.01-1.12-1.07  c-24.97-2.41-52.9-7.54-75.32-19.66c-0.31-0.17-0.42-0.56-0.25-0.87c0.08-0.14,0.21-0.25,0.36-0.3c5.75-1.85,11.72-3.34,17.91-4.46  c19.59-3.53,39.72-5.21,59.58-6.36c45.57-2.65,91.15-3.06,136.76-1.22c23.01,0.93,45.95,2.8,68.81,5.63  c10.71,1.33,21.16,3.44,31.35,6.33c0.35,0.1,0.56,0.48,0.45,0.83c-0.05,0.16-0.16,0.3-0.3,0.39c-5.25,3.03-10.59,5.47-16.02,7.34  c-20.41,7.03-42,10.66-63.44,12.83c-0.42,0.04-0.66,0.27-0.72,0.7c-0.07,0.56-0.19,1.29-0.36,2.2  c-14.8,78.64-25.56,133.62-33.49,201.24c-5.18,44.23-5.03,82.91-2.52,124.76c0.01,0.2,0.18,0.36,0.39,0.35  c0.07,0,0.14-0.03,0.2-0.07c27.82-20.67,55.41-41.81,82.77-63.43c22.13-17.49,40.75-35.21,55.85-53.14  c42.24-50.17,57.99-116.24,65.45-181.98c7.21-63.51,14.42-127.2,21.63-191.06c0.02-0.2-0.08-0.4-0.27-0.49L546.39,96.5  c-0.19-0.09-0.43-0.01-0.52,0.18c-0.03,0.06-0.04,0.13-0.04,0.2l8.68,115.38c0.04,0.5,0.31,0.76,0.82,0.78  c19.48,0.76,40.08,3.12,58.82,8.9c0.25,0.08,0.38,0.35,0.3,0.59c-0.05,0.14-0.15,0.25-0.29,0.3c-3.09,1.07-5.88,2.75-8.37,5.05  c-11.89,11.01,3.68,19.96,12.44,23.62c21.57,9.02,47.24,16.9,70.8,25.62c0.17,0.04,0.26,0.21,0.22,0.38  c-0.04,0.17-0.21,0.26-0.38,0.22l0,0c-73.17-12.04-148.92-13.9-222.77-8.3c-23.02,1.75-45.83,4.51-68.43,8.3  c-0.21,0.03-0.4-0.12-0.43-0.33c-0.02-0.17,0.07-0.34,0.24-0.4c16.94-6.07,33.83-11.98,50.67-17.75  c10.69-3.66,38.9-13.05,36.68-24.62c-1.06-5.49-7.57-10.11-12.65-11.83c-0.28-0.1-0.43-0.4-0.33-0.69c0.06-0.17,0.2-0.3,0.37-0.35  c19.22-5.13,38.78-8.02,58.69-8.65c0.45-0.01,0.82-0.36,0.86-0.82l8.78-115.7c0.01-0.12-0.08-0.23-0.2-0.23  c-0.04,0-0.08,0.01-0.11,0.02L276.88,223.22c-0.5,0.24-0.79,0.77-0.73,1.33c7.05,62.53,14.13,125.04,21.24,187.54  c5.4,47.53,14.36,95.44,35.91,138.63c14.87,29.77,36.05,56.42,60.96,78.47c40.89,36.2,82.02,64.43,132.68,104.18  c0.45,0.35,0.67,0.24,0.67-0.33l0.08-344.58c0-0.19-0.15-0.34-0.34-0.35l-35.77-1.61c-0.35-0.01-0.64,0.26-0.65,0.6  c0,0.02,0,0.05,0,0.07c6.55,86.26,12.13,173.43,9.21,259.58C499.98,651.51,499.64,651.52,499.13,646.79z M558.63,388.6l0.13,170.63  c0.01,0.1,0.1,0.17,0.2,0.16c0.07-0.01,0.13-0.05,0.15-0.12c14.42-57,26.49-114.81,37.72-172.56c0.02-0.11-0.05-0.21-0.16-0.24  c-0.02,0-0.04,0-0.05,0l-37.52,1.64C558.83,388.12,558.63,388.33,558.63,388.6z"/>
<path class="st5" d="M499.13,646.79c0.51,4.73,0.85,4.72,1.01-0.04c2.92-86.15-2.66-173.32-9.21-259.58  c-0.03-0.34,0.23-0.64,0.58-0.67c0.02,0,0.05,0,0.07,0l35.77,1.61c0.19,0.01,0.34,0.16,0.34,0.35l-0.08,344.58  c0,0.57-0.22,0.68-0.67,0.33c-50.66-39.75-91.79-67.98-132.68-104.18c-24.91-22.05-46.09-48.7-60.96-78.47  c-21.55-43.19-30.51-91.1-35.91-138.63c-7.11-62.5-14.19-125.01-21.24-187.54c-0.06-0.56,0.23-1.09,0.73-1.33L540.24,96.37  c0.1-0.06,0.23-0.01,0.29,0.09c0.02,0.04,0.03,0.08,0.02,0.12l-8.78,115.7c-0.04,0.46-0.41,0.81-0.86,0.82  c-19.91,0.63-39.47,3.52-58.69,8.65c-0.29,0.08-0.46,0.39-0.38,0.67c0.05,0.17,0.18,0.31,0.34,0.37  c5.08,1.72,11.59,6.34,12.65,11.83c2.22,11.57-25.99,20.96-36.68,24.62c-16.84,5.77-33.73,11.68-50.67,17.75  c-0.2,0.08-0.29,0.3-0.21,0.49c0.06,0.16,0.23,0.26,0.4,0.24c22.6-3.79,45.41-6.55,68.43-8.3c73.85-5.6,149.6-3.74,222.77,8.3  c0.17,0.04,0.34-0.05,0.38-0.22c0.04-0.17-0.05-0.34-0.22-0.38l0,0c-23.56-8.72-49.23-16.6-70.8-25.62  c-8.76-3.66-24.33-12.61-12.44-23.62c2.49-2.3,5.28-3.98,8.37-5.05c0.24-0.09,0.37-0.35,0.29-0.6c-0.05-0.14-0.16-0.25-0.3-0.29  c-18.74-5.78-39.34-8.14-58.82-8.9c-0.51-0.02-0.78-0.28-0.82-0.78l-8.68-115.38c-0.02-0.21,0.14-0.4,0.36-0.42  c0.07-0.01,0.14,0.01,0.2,0.04l263.57,126.97c0.19,0.09,0.29,0.29,0.27,0.49c-7.21,63.86-14.42,127.55-21.63,191.06  c-7.46,65.74-23.21,131.81-65.45,181.98c-15.1,17.93-33.72,35.65-55.85,53.14c-27.36,21.62-54.95,42.76-82.77,63.43  c-0.16,0.12-0.4,0.09-0.52-0.08c-0.04-0.06-0.07-0.13-0.07-0.2c-2.51-41.85-2.66-80.53,2.52-124.76  c7.93-67.62,18.69-122.6,33.49-201.24c0.17-0.91,0.29-1.64,0.36-2.2c0.06-0.43,0.3-0.66,0.72-0.7c21.44-2.17,43.03-5.8,63.44-12.83  c5.43-1.87,10.77-4.31,16.02-7.34c0.32-0.19,0.43-0.6,0.24-0.92c-0.09-0.15-0.22-0.25-0.39-0.3c-10.19-2.89-20.64-5-31.35-6.33  c-22.86-2.83-45.8-4.7-68.81-5.63c-45.61-1.84-91.19-1.43-136.76,1.22c-19.86,1.15-39.99,2.83-59.58,6.36  c-6.19,1.12-12.16,2.61-17.91,4.46c-0.34,0.11-0.52,0.47-0.41,0.81c0.05,0.16,0.16,0.29,0.3,0.36  c22.42,12.12,50.35,17.25,75.32,19.66c0.65,0.06,1.03,0.42,1.12,1.07c12.22,82.29,23.85,164.31,34.89,246.05  C498.03,637.58,498.69,642.83,499.13,646.79z M486.11,322.89c43.7-1.74,87.57-1.62,131.24,1c21.53,1.29,44.41,3.19,65.07,8.63  c1.97,0.52,4.09,1.44,6.35,2.75c0.29,0.17,0.6,0.24,0.93,0.22c7.92-0.4,54.95-4.06,54.77-14.94c0-0.33-0.14-0.65-0.38-0.88  c-2.17-2.03-4.49-3.5-6.96-4.41c-10.06-3.68-20.88-6.52-32.46-8.52c-22.22-3.85-44.57-6.64-67.06-8.36  c-52.87-4.04-105.79-4.75-158.76-2.12c-28.9,1.43-57.65,4.32-86.25,8.65c-7.2,1.09-49.69,8.3-50.74,16.02  c-1.35,9.94,47.72,14.15,54.53,14.63c0.33,0.02,0.64-0.05,0.93-0.2c8.97-4.87,22.04-6.62,32.1-7.86  C448.24,325.18,467.14,323.65,486.11,322.89z M412.87,496.76l-8.42,14.69c-0.07,0.12-0.03,0.28,0.1,0.36  c0.04,0.02,0.09,0.04,0.13,0.03l13.79-0.09c0.33,0,0.57-0.14,0.74-0.42c4.05-6.82,8.03-13.68,11.94-20.59  c9.5-16.77-0.76-34.86-20.21-31.74c-18.89,3.03-22.04,29.33-3.59,36.38c1.57,0.6,3.44,0.49,5.18,0.7  C412.99,496.13,413.1,496.36,412.87,496.76z M371.78,474.65c0.22-0.11,0.48-0.02,0.59,0.2c0.03,0.06,0.05,0.13,0.05,0.2v36.23  c0,0.33,0.17,0.5,0.5,0.5h12.25c0.41,0,0.75-0.34,0.75-0.75v-50.8c0-0.45-0.22-0.67-0.67-0.68c-3.64-0.06-7.65-0.63-11.03,0.99  c-4.49,2.15-9,4.29-13.53,6.44c-0.35,0.17-0.52,0.44-0.52,0.82v11.96c0,0.47,0.21,0.6,0.64,0.39L371.78,474.65z M648.17,470.92  c0,0.2,0.16,0.36,0.36,0.36h19.61c0.2,0,0.36,0.17,0.35,0.37c0,0.05-0.01,0.1-0.03,0.14l-18.32,39.55  c-0.09,0.18-0.02,0.39,0.16,0.48c0.05,0.03,0.11,0.04,0.17,0.04l13.76-0.12c0.14,0,0.27-0.08,0.33-0.21l23.42-51.49  c0.08-0.18,0-0.39-0.18-0.48c-0.05-0.02-0.1-0.03-0.15-0.03h-39.12c-0.2,0-0.36,0.16-0.36,0.36V470.92z M710.44,502.27  c0.29,0,0.52,0.23,0.52,0.52c0,0,0,0.01,0,0.01l-0.16,8.45c-0.01,0.29,0.22,0.52,0.51,0.53c0,0,0.01,0,0.01,0h10.83  c0.29,0,0.52-0.23,0.52-0.52v-8.46c0-0.29,0.23-0.52,0.52-0.52h4.96c0.29,0,0.52-0.23,0.52-0.52v-10.28c0-0.29-0.23-0.52-0.52-0.52  c-0.01,0-0.03,0-0.04,0l-4.88,0.4c-0.29,0.02-0.54-0.19-0.56-0.48c0-0.01,0-0.03,0-0.04v-8.61c0-0.29-0.23-0.52-0.52-0.52  c0,0-0.01,0-0.01,0l-10.84,0.23c-0.29,0.01-0.52,0.24-0.51,0.53c0,0,0,0,0,0l0.18,7.97c0.01,0.29-0.22,0.52-0.51,0.53c0,0,0,0,0,0  l-6.81,0.19c-0.29,0.01-0.53-0.22-0.53-0.51c0-0.08,0.01-0.15,0.04-0.22l13.5-30.17c0.12-0.26,0-0.57-0.27-0.69  c-0.06-0.03-0.13-0.04-0.2-0.04H703.5c-0.21,0-0.4,0.12-0.48,0.31l-18.86,41.73c-0.12,0.26-0.01,0.57,0.25,0.69  c0.07,0.03,0.15,0.05,0.23,0.05L710.44,502.27z"/>
<path class="st4" d="M617.35,323.89c-43.67-2.62-87.54-2.74-131.24-1c-18.97,0.76-37.86,2.3-56.69,4.61  c-10.06,1.24-23.13,2.99-32.1,7.86c-0.29,0.15-0.6,0.22-0.93,0.2c-6.81-0.48-55.88-4.69-54.53-14.63  c1.05-7.72,43.54-14.93,50.74-16.02c28.6-4.33,57.35-7.22,86.25-8.65c52.97-2.63,105.89-1.92,158.76,2.12  c22.49,1.72,44.84,4.51,67.06,8.36c11.58,2,22.4,4.84,32.46,8.52c2.47,0.91,4.79,2.38,6.96,4.41c0.24,0.23,0.38,0.55,0.38,0.88  c0.18,10.88-46.85,14.54-54.77,14.94c-0.33,0.02-0.64-0.05-0.93-0.22c-2.26-1.31-4.38-2.23-6.35-2.75  C661.76,327.08,638.88,325.18,617.35,323.89z"/>
<path class="st5" d="M558.76,559.23l-0.13-170.63c0-0.26,0.21-0.48,0.47-0.49l37.52-1.64c0.11-0.01,0.21,0.08,0.21,0.19  c0,0.02,0,0.04,0,0.05c-11.23,57.75-23.3,115.56-37.72,172.56c-0.03,0.09-0.13,0.15-0.23,0.11  C558.81,559.36,558.76,559.3,558.76,559.23z"/>
<path class="st4" d="M412.53,496.08c-1.74-0.21-3.61-0.1-5.18-0.7c-18.45-7.05-15.3-33.35,3.59-36.38  c19.45-3.12,29.71,14.97,20.21,31.74c-3.91,6.91-7.89,13.77-11.94,20.59c-0.17,0.28-0.41,0.42-0.74,0.42l-13.79,0.09  c-0.14,0-0.26-0.11-0.26-0.26c0-0.05,0.01-0.09,0.03-0.13l8.42-14.69C413.1,496.36,412.99,496.13,412.53,496.08z M422.42,478.1  c0-4.14-3.36-7.5-7.5-7.5c-4.14,0-7.5,3.36-7.5,7.5s3.36,7.5,7.5,7.5C419.06,485.6,422.42,482.24,422.42,478.1z"/>
<path class="st4" d="M371.78,474.65l-10.97,5.5c-0.43,0.21-0.64,0.08-0.64-0.39V467.8c0-0.38,0.17-0.65,0.52-0.82  c4.53-2.15,9.04-4.29,13.53-6.44c3.38-1.62,7.39-1.05,11.03-0.99c0.45,0.01,0.67,0.23,0.67,0.68v50.8c0,0.41-0.34,0.75-0.75,0.75  h-12.25c-0.33,0-0.5-0.17-0.5-0.5v-36.23c0-0.25-0.2-0.45-0.45-0.45C371.9,474.6,371.84,474.62,371.78,474.65z"/>
<path class="st4" d="M648.17,470.92v-11.03c0-0.2,0.16-0.36,0.36-0.36h39.12c0.2,0,0.36,0.16,0.36,0.36c0,0.05-0.01,0.1-0.03,0.15  l-23.42,51.49c-0.06,0.13-0.19,0.21-0.33,0.21l-13.76,0.12c-0.2,0-0.36-0.15-0.37-0.35c0-0.06,0.01-0.12,0.04-0.17l18.32-39.55  c0.08-0.18,0-0.39-0.18-0.48c-0.04-0.02-0.09-0.03-0.14-0.03h-19.61C648.33,471.28,648.17,471.11,648.17,470.92z"/>
<path class="st4" d="M710.44,502.27l-25.8,0.04c-0.29,0-0.52-0.22-0.53-0.51c0-0.08,0.02-0.16,0.05-0.23l18.86-41.73  c0.08-0.19,0.27-0.31,0.48-0.31h12.69c0.29,0,0.52,0.24,0.51,0.53c0,0.07-0.02,0.14-0.04,0.2l-13.5,30.17  c-0.12,0.26,0,0.57,0.27,0.69c0.07,0.03,0.15,0.05,0.22,0.04l6.81-0.19c0.29-0.01,0.52-0.24,0.51-0.53c0,0,0,0,0,0l-0.18-7.97  c-0.01-0.29,0.22-0.52,0.51-0.53c0,0,0,0,0,0l10.84-0.23c0.29-0.01,0.52,0.22,0.53,0.51c0,0,0,0.01,0,0.01v8.61  c0,0.29,0.23,0.52,0.52,0.52c0.01,0,0.03,0,0.04,0l4.88-0.4c0.29-0.02,0.54,0.19,0.56,0.48c0,0.01,0,0.03,0,0.04v10.28  c0,0.29-0.23,0.52-0.52,0.52h-4.96c-0.29,0-0.52,0.23-0.52,0.52v8.46c0,0.29-0.23,0.52-0.52,0.52h-10.83  c-0.29,0-0.52-0.23-0.52-0.52c0,0,0-0.01,0-0.01l0.16-8.45c0.01-0.29-0.22-0.52-0.51-0.53  C710.44,502.27,710.44,502.27,710.44,502.27z"/>
<circle class="st5" cx="414.92" cy="478.1" r="7.5"/>
</svg>