<svg xmlns="http://www.w3.org/2000/svg" xmlns:xlink="http://www.w3.org/1999/xlink" width="68" height="68" viewBox="0 0 68 68">
    <defs>
        <path id="prefix__a" d="M0.151 0.122L66.631 0.122 66.631 66.106 0.151 66.106z"/>
    </defs>
    <g fill="none" fill-rule="evenodd" transform="translate(0 .694)">
        <mask id="prefix__b" fill="#fff">
            <use xlink:href="#prefix__a"/>
        </mask>
        <path fill="#9B9B9B" d="M33.315 66.106C14.948 66.106 0 51.306 0 33.114 0 14.924 14.948.122 33.315.122c18.37 0 33.316 14.803 33.316 32.992 0 18.192-14.945 32.992-33.316 32.992zm0-63.981c-17.254 0-31.293 13.902-31.293 30.99 0 17.096 14.039 31.001 31.293 31.001 17.265 0 31.306-13.905 31.306-31.002 0-17.087-14.041-30.99-31.306-30.99z" mask="url(#prefix__b)"/>
        <path fill="#9B9B9B" d="M32.425 66.111c-6.708 0-13.16-2.132-18.657-6.182-.295-.218-.456-.592-.408-.959.047-.374.296-.69.628-.819 8.103-3.103 9.41-5.621 9.41-10.45 0-1.285-.276-1.7-.772-2.459-.669-.998-1.575-2.371-2.206-5.947-.095-.513-.18-.554-.62-.771-1.182-.592-2.27-1.441-2.558-5.323 0-1.876.62-2.915 1.146-3.446-.115-.673-.305-1.829-.476-3.083-.887-5.61-.926-12.496 6.708-15.695 6.652-2.787 11.965-1.264 13.636.554 1.173.038 4.217.364 6.337 2.913 3.264 3.922 2.223 12.87 1.869 15.29.515.534 1.146 1.56 1.146 3.396-.277 3.953-1.366 4.802-2.558 5.394-.437.217-.525.258-.62.771-.631 3.576-1.537 4.949-2.204 5.947-.496.759-.772 1.174-.772 2.458 0 4.83 1.307 7.348 9.407 10.451.345.129.582.445.63.82.047.376-.104.74-.4.958-5.496 4.05-11.948 6.182-18.666 6.182zM16.43 59.347c4.82 3.11 10.307 4.751 15.994 4.751 5.687 0 11.184-1.64 15.994-4.751-6.784-2.895-8.922-5.798-8.922-11.647 0-1.906.542-2.726 1.126-3.595.591-.898 1.327-2.016 1.889-5.177.276-1.52 1.126-1.944 1.697-2.23.604-.298 1.232-.614 1.452-3.646 0-1.55-.677-1.965-.697-1.985-.361-.207-.59-.663-.515-1.087.476-2.686 1.28-11.073-1.336-14.224-1.784-2.142-4.6-2.202-5.133-2.182-.085-.01-.173-.01-.259-.03-.256-.069-.686-.296-.82-.534-.526-.938-5.153-2.835-11.546-.157-6.317 2.648-6.327 8.317-5.506 13.513.266 1.935.562 3.614.562 3.614.075.465-.142.91-.552 1.107.01 0-.66.425-.66 2.036.22 2.96.84 3.27 1.451 3.575.562.276 1.422.7 1.688 2.23.564 3.154 1.307 4.269 1.9 5.166.582.87 1.117 1.7 1.117 3.596 0 5.859-2.128 8.772-8.924 11.657z"/>
    </g>
</svg>