<svg xmlns="http://www.w3.org/2000/svg" width="46" height="46" viewBox="0 0 46 46">
    <path fill="#3B5998" d="M39.801 0H6.2C2.775 0 0 2.775 0 6.199V39.8C0 43.225 2.775 46 6.199 46H22.77l.029-16.438h-4.271c-.555 0-1.005-.449-1.008-1.004l-.02-5.298c-.002-.558.45-1.012 1.008-1.012h4.262v-5.12c0-5.941 3.63-9.176 8.93-9.176h4.349c.556 0 1.007.45 1.007 1.007v4.468c0 .556-.45 1.007-1.007 1.008l-2.669.001c-2.882 0-3.44 1.37-3.44 3.38v4.432h6.333c.604 0 1.072.527 1 1.126l-.627 5.3c-.06.506-.49.888-1 .888h-5.678L29.94 46h9.861C43.225 46 46 43.225 46 39.802V6.199C46 2.775 43.225 0 39.801 0z"/>
</svg>
