<svg xmlns="http://www.w3.org/2000/svg" width="56" height="46" viewBox="0 0 56 46">
    <path fill="#1DA1F2" d="M56 5.443c-2.061.923-4.273 1.55-6.596 1.83 2.372-1.438 4.188-3.717 5.05-6.424-2.226 1.33-4.683 2.297-7.3 2.82C45.057 1.41 42.076 0 38.769 0c-6.344 0-11.488 5.202-11.488 11.614 0 .91.101 1.798.297 2.647-9.546-.485-18.01-5.11-23.676-12.138-.99 1.713-1.554 3.709-1.554 5.84 0 4.03 2.03 7.586 5.11 9.667-1.884-.064-3.654-.588-5.204-1.458v.145c0 5.627 3.96 10.322 9.213 11.391-.962.262-1.977.407-3.027.407-.741 0-1.459-.074-2.162-.216 1.462 4.618 5.704 7.977 10.729 8.069-3.93 3.114-8.885 4.965-14.267 4.965-.927 0-1.84-.057-2.74-.16C5.085 44.075 11.121 46 17.609 46c21.132 0 32.684-17.7 32.684-33.052l-.039-1.504c2.257-1.628 4.21-3.673 5.746-6.001z"/>
</svg>
