<svg xmlns="http://www.w3.org/2000/svg" width="300" height="79" viewBox="0 0 300 79" fill="none" transform="matrix(1, 0, 0, 1, 0, 0)">
<path d="M292.977 40.1C292.977 46.2 288.763 49.8 282.642 49.8C279.833 49.8 276.12 48.7 274.214 47.6C274.515 44.5 274.716 40.4 274.716 37.5H275.92C275.719 44.5 277.324 48 282.742 48C286.354 48 288.361 45.6 288.361 42C288.361 39.1 287.157 37.2 285.552 35.9L279.231 30.6C276.221 28 274.515 25.6 274.515 22.1C274.515 16.6 278.227 13.5 283.545 13.5C286.154 13.5 288.462 14.5 289.465 15.7L290.268 13.2L291.371 13.4C290.769 17.8 290.669 22.5 290.669 24.5H289.465C289.465 18.1 287.258 15 283.445 15C280.535 15 278.528 16.8 278.528 19.4C278.528 22.3 279.632 23.8 281.739 25.6L289.064 31.9C291.371 33.7 292.977 36.4 292.977 40.1Z" fill="#ffffff"/>
<path d="M275.819 15.2C273.01 15.5 272.408 15.7 271.706 18.6C269.298 29 266.187 38.7 263.98 49.2C263.077 49.2 261.873 49.4 261.07 49.5C259.866 44 257.86 36.3 256.054 29.5C254.348 36.4 252.742 40.9 250.936 49.2C249.933 49.2 248.829 49.5 248.027 49.6C246.02 40.5 241.605 24.4 240 18.7C239.197 15.8 238.696 15.4 236.589 15.4V14.3C237.592 14.4 238.896 14.5 241.304 14.5C243.211 14.5 246.522 14.3 247.425 14.3V15.4L245.117 15.8C244.415 15.9 244.314 16.2 244.415 17C245.92 24.3 249.431 37.1 250.836 43.1C252.441 36.1 253.646 32.1 255.05 26.1C254.248 23.1 253.545 20.5 253.043 18.8C252.241 15.9 251.739 15.4 249.632 15.4V14.3C250.635 14.4 251.94 14.5 254.348 14.5C256.254 14.5 259.766 14.3 260.468 14.3V15.4L258.361 15.8C257.659 15.9 257.358 16.5 257.559 17.3C259.064 24.6 262.475 37.1 263.88 43.1C265.786 34.8 268.395 26.3 269.699 17.9C269.9 16.3 269.799 16 268.796 15.8L266.187 15.4V14.3C267.291 14.3 269.197 14.5 271.104 14.5C273.411 14.5 274.916 14.3 275.819 14.3V15.2Z" fill="#ffffff"/>
<path d="M238.495 39.1C238.194 41 237.391 47.7 237.291 49.3C235.786 49.2 232.977 49.1 227.559 49.1H221.739C219.532 49.1 215.117 49.2 214.816 49.2V48.1L217.625 47.7C218.528 47.6 218.829 47 218.829 45.4C218.93 43.3 219.03 40.3 219.03 37V25.3C219.03 21.3 219.03 18.9 218.93 17.3C218.93 16.1 218.528 15.6 216.823 15.4L214.716 15.2V14C216.221 14.1 220.134 14.2 221.739 14.2H229.465C232.475 14.2 234.883 14.1 235.886 14C235.786 15.5 235.686 19.9 235.786 22.7H234.582C234.381 21.2 234.08 19.5 233.478 18C232.776 16 232.074 15.9 227.659 15.9H224.248C223.746 15.9 223.545 16.1 223.545 16.8C223.445 18.5 223.344 20.5 223.344 23.6V29.8C223.846 29.9 224.95 29.8 225.753 29.8C229.866 29.8 230.368 28.9 230.769 25.1H231.873C231.572 28.9 231.572 33.6 231.773 37.2H230.769C230.368 32.9 230.167 31.7 225.853 31.7C224.95 31.7 223.946 31.7 223.545 31.8V37.2C223.545 40.4 223.645 43.9 223.746 45.9C223.846 47 224.047 47.3 228.161 47.3C232.475 47.3 233.779 46.9 234.883 45.4C235.886 44 236.789 41.3 237.291 39H238.495V39.1Z" fill="#ffffff"/>
<path d="M216.522 8.4C215.217 8.6 214.415 8.7 214.415 8.7C212.809 8.9 212.508 9.8 212.308 11.4C212.007 13.9 211.706 21.9 211.706 32.2V49.3C210.803 49.4 209.799 49.6 208.997 49.9C204.08 40.5 196.154 24.8 189.933 13.1C189.933 28.4 190.033 42.3 190.334 44.8C190.535 46.5 191.137 47.1 192.14 47.3L195.251 47.9V49.3C193.445 49.3 191.538 49.1 188.629 49.1C186.02 49.1 184.013 49.3 182.609 49.3V47.9L185.518 47.5C186.823 47.3 187.124 46.2 187.324 44.4C187.625 41.8 188.328 26.5 188.328 11C187.826 9.7 187.224 9 185.418 8.8L183.512 8.5V7C184.515 7 187.425 7.1 189.331 7.1C191.237 7.1 191.538 7.1 192.843 7C198.462 17.9 203.88 28.8 210 39.4C210.1 19.8 209.799 13.5 209.599 11.7C209.398 9.4 208.796 8.8 206.789 8.7L204.682 8.5V7C206.99 7 208.896 7.2 210.903 7.2C213.01 7.2 215.318 7.1 216.622 7.1V8.4H216.522Z" fill="#ffffff"/>
<path d="M182.609 28.4L182.107 31.9C178.395 31.8 178.495 31.8 175.084 31.9L175.585 28.4C178.896 28.5 178.696 28.5 182.609 28.4Z" fill="#ffffff"/>
<path d="M27.1906 8.6L25.0836 8.8C23.7793 9 23.4783 9.4 23.4783 10.7C23.3779 12.4 23.2776 17 23.2776 35.1C23.2776 41.1 23.0769 48.4 19.6656 53.5C17.3579 57 13.2441 58.8 10.7358 58.8C8.42809 58.8 7.02341 57.4 7.02341 55.8C7.02341 54.4 8.42809 52.5 9.23077 52.5C9.73244 52.5 10.0334 52.9 10.3345 53.5C11.3378 55.1 12.2408 55.7 13.2441 55.7C14.8495 55.7 17.3579 53.8 17.6589 48.4C17.8595 43.7 17.9599 37.9 18.0602 30.2L18.1605 16.1C18.1605 11.4 18.0602 12.5 18.0602 10.6C18.0602 9.4 17.7592 8.9 16.8562 8.8C15.9532 8.7 14.6488 8.5 13.6455 8.4V7C14.9498 7 17.7592 7.3 20.5686 7.3C22.7759 7.3 25.8863 7 27.291 7V8.6H27.1906Z" fill="#ffffff"/>
<path d="M175.485 38.6C175.084 41.1 174.682 45.8 174.381 49.3C173.579 49.2 171.472 49.2 168.863 49.2C166.254 49.2 163.445 49.2 160.033 49.2C158.428 49.2 156.722 49.3 155.217 49.3C153.712 49.3 152.308 49.2 150.803 49.2C148.595 49.2 146.689 49.3 144.582 49.3V48.2C147.391 48 147.692 47.7 147.492 46.6C147.09 44.6 145.786 39.3 144.883 35.7C144.181 35.6 142.174 35.7 140.167 35.7C138.161 35.7 136.355 35.7 135.752 35.7C134.448 40.6 133.846 43.4 133.545 45C133.043 47.4 132.943 48 136.656 48.3V49.4C136.054 49.4 134.348 49.3 132.241 49.3C130.936 49.3 128.729 49.4 127.726 49.4V48.3C130.033 48.2 130.234 47.6 131.338 44.5C132.843 39.9 137.759 22.7 139.064 17.9C139.565 16.3 139.766 15.1 139.866 14.3C140.87 14.2 142.776 13.7 143.579 13.3C145.886 22.7 150.702 41.7 152.408 46.8C152.809 47.9 153.512 48.3 154.716 48.4L155.719 48.3C156.722 48.2 157.023 47.8 157.023 46.9C157.124 45.1 157.324 40.8 157.324 36.2V24.1C157.324 19.7 157.324 18 157.224 16.8C157.224 15.9 156.823 15.6 155.92 15.5L153.612 15.3V14.2C154.415 14.2 157.826 14.4 159.431 14.4C161.037 14.4 164.85 14.2 165.652 14.2V15.3L163.244 15.6C162.241 15.7 161.94 16 161.94 17.1C161.839 19.2 161.739 22.1 161.739 26.4V36.2C161.739 40.9 161.739 45.2 161.839 46.6C161.839 47.2 162.14 47.6 165.151 47.6C169.967 47.6 170.87 47.2 171.773 45.4C172.676 43.8 173.378 41.4 173.88 38.7L175.485 38.6ZM144.582 33.7C143.478 28.8 141.973 22.8 140.769 18C139.666 22.1 138.261 27.1 136.455 33.7C137.157 33.8 138.863 33.8 140.669 33.8C142.375 33.8 144.08 33.7 144.582 33.7Z" fill="#ffffff"/>
<path d="M131.237 15.3C130.234 15.4 129.632 15.5 128.93 15.7C128.227 15.9 127.826 16.4 127.726 17.7C127.425 19.8 127.224 26.5 127.224 35.1V49.3C126.522 49.4 125.619 49.6 124.916 49.9C120.803 42.1 114.181 29.2 108.963 19.4C108.963 32.1 109.064 43.5 109.365 45.6C109.565 47 110.067 47.7 110.87 47.8L113.478 48.2V49.3C111.973 49.3 110.268 49.2 107.86 49.2C106.455 49.2 105.351 49.3 104.348 49.3C103.645 49.4 102.843 49.4 102.14 49.4C98.5284 49.4 96.8227 47 96.5217 43.1C96.4214 41.7 96.3211 41 96.2207 39.4C95.8194 34.4 93.311 32.1 88.8963 32.1H86.689V37.8C86.689 42.2 86.689 44.6 86.7893 46.4C86.8896 47.8 87.291 48 90.5017 48.3V49.4C88.8963 49.4 86.087 49.2 84.2809 49.2C81.9732 49.2 79.8662 49.4 78.1605 49.4V48.3C81.1706 48.1 81.8729 47.8 81.8729 46.6C81.9732 45.3 82.0736 42.5 82.0736 37.3V25.5C82.0736 20.2 82.0736 18 81.9732 16.8C81.9732 16 81.6722 15.7 80.8696 15.5L79.4649 15.3L78.6622 15.4C77.3578 15.6 76.8562 16 76.8562 17.4C76.8562 24.7 76.6555 35 76.1538 39.6C75.4515 46.1 72.3411 49.8 65.5184 49.8C56.7893 49.8 54.9833 44.7 54.9833 37.2C54.9833 33.2 55.0836 20 54.9833 17.4C54.9833 16.2 54.7826 15.8 53.9799 15.7L51.4716 15.3V14.2C52.6756 14.2 55.4849 14.4 57.3913 14.4C58.9966 14.4 62.5084 14.2 63.2107 14.2V15.3L60.7023 15.7C60.1003 15.8 59.7993 16.2 59.699 17.1C59.398 21.2 59.2977 32.6 59.5987 38.7C59.7993 43.6 61.505 47.7 67.1237 47.7C70.7358 47.7 74.1472 46 74.5485 37.9C74.9498 30.6 74.7492 21.7 74.5485 18.1C74.4482 16 73.7458 15.8 72.5418 15.7L70.2341 15.4V14.3C71.0368 14.3 74.4482 14.5 75.9532 14.5H83.5786C85.786 14.5 89.1973 14.1 91.6053 14.1C96.6221 14.1 101.639 15.8 101.639 22C101.639 27.8 97.7258 30.2 93.612 31.1V31.3C98.1271 32.1 100.435 35.8 100.936 39.7C101.137 41.3 101.237 42.5 101.538 44.3C101.94 46.8 102.441 47.9 103.445 48.4L105.351 48C106.455 47.7 106.756 47 106.856 45.4C107.057 43.2 107.559 30.6 107.559 17.6C107.157 16.4 106.756 15.9 105.351 15.7L103.545 15.4V14.3C104.348 14.3 106.856 14.4 108.361 14.4C109.866 14.4 110.167 14.3 111.271 14.2C115.886 23.3 120.502 32.4 125.518 41.2C125.619 24.8 125.318 19.6 125.117 18.1C124.916 16.2 124.515 15.7 122.809 15.6L121.104 15.4V14.3C121.906 14.3 124.615 14.4 126.321 14.4C128.027 14.4 130.033 14.3 131.137 14.3V15.3H131.237ZM96.7224 22.4C96.7224 18 94.1137 15.7 90.4013 15.7C89.4983 15.7 87.7926 15.9 87.3913 16C86.99 16.1 86.7893 16.4 86.689 16.9C86.689 17.6 86.4883 19.2 86.4883 24.1V30.4H88.6956C94.0134 30.4 96.7224 28.2 96.7224 22.4Z" fill="#ffffff"/>
<path d="M51.4716 30.9C51.4716 43.7 46.3545 49.9 39.3311 49.9C31.3043 49.9 26.5886 43.1 26.5886 31.8C26.5886 19.2 31.806 13.1 38.9298 13.1C46.4549 13.1 51.4716 19.2 51.4716 30.9ZM46.5552 31.6C46.5552 20.7 44.3478 14.5 39.1304 14.5C34.3144 14.5 31.806 20.4 31.806 31.1C31.806 42.1 33.4114 48.3 39.5318 48.3C44.9498 48.3 46.5552 41.2 46.5552 31.6Z" fill="#ffffff"/>
<path d="M75.6522 62.9H72.5418V71.8H70.6354V62.9H67.6254V61.2H75.6522V62.9Z" fill="#ffffff"/>
<path d="M80.1672 66.4H82.0736C83.3779 66.4 83.9799 65.6 83.9799 64.7C83.9799 63.7 83.3779 62.9 82.3746 62.9H80.1672V66.4ZM81.0702 67.9H80.0669V71.8H78.2609V61.2H82.4749C84.8829 61.2 85.8863 62.9 85.8863 64.6C85.8863 66.1 85.0836 67.6 83.2776 67.9L86.087 71.9H83.8796L81.0702 67.9Z" fill="#ffffff"/>
<path d="M88.796 68.1V61.2H90.7023V68C90.7023 69.5 91.7057 70.2 92.8094 70.2C93.913 70.2 94.9164 69.5 94.9164 68V61.2H96.8227V68.1C96.8227 70.5 94.9164 72 92.8094 72C90.7023 72 88.796 70.5 88.796 68.1Z" fill="#ffffff"/>
<path d="M99.8328 68.7H101.739C101.739 69.5 102.542 70.3 103.746 70.3C104.849 70.3 105.552 69.7 105.552 68.8C105.552 68.1 104.95 67.6 104.047 67.4L102.742 67C100.435 66.4 100.033 65 100.033 64.1C100.033 62.2 101.739 61 103.645 61C105.652 61 107.157 62.2 107.157 64.2H105.251C105.251 63.3 104.548 62.7 103.545 62.7C102.642 62.7 101.839 63.3 101.839 64.1C101.839 64.4 101.94 65 103.144 65.3L104.448 65.6C106.154 66.1 107.458 67 107.458 68.7C107.458 70.7 105.853 71.9 103.746 71.9C101.338 72 99.8328 70.5 99.8328 68.7Z" fill="#ffffff"/>
<path d="M117.191 62.9H114.08V71.8H112.174V62.9H109.164V61.2H117.191V62.9Z" fill="#ffffff"/>
<path d="M126.522 70.1V71.8H119.799V61.2H126.321V62.9H121.605V65.7H125.719V67.5H121.605V70.1H126.522Z" fill="#ffffff"/>
<path d="M133.746 70.1C135.652 70.1 136.656 68.5 136.656 66.5C136.656 64.5 135.652 62.8 133.746 62.8H131.438V70.1H133.746ZM129.532 61.2H133.746C136.856 61.2 138.562 63.5 138.562 66.6C138.562 69.6 136.756 71.9 133.746 71.9H129.532V61.2Z" fill="#ffffff"/>
<path d="M146.388 68.7H148.294C148.294 69.5 149.097 70.3 150.301 70.3C151.405 70.3 152.107 69.7 152.107 68.8C152.107 68.1 151.505 67.6 150.602 67.4L149.298 67C146.99 66.4 146.589 65 146.589 64.1C146.589 62.2 148.294 61 150.201 61C152.207 61 153.712 62.2 153.712 64.2H151.806C151.806 63.3 151.104 62.7 150.1 62.7C149.197 62.7 148.395 63.3 148.395 64.1C148.395 64.4 148.495 65 149.699 65.3L151.003 65.6C152.709 66.1 154.013 67 154.013 68.7C154.013 70.7 152.408 71.9 150.301 71.9C147.893 72 146.388 70.5 146.388 68.7Z" fill="#ffffff"/>
<path d="M158.829 61.2H156.923V71.9H158.829V61.2Z" fill="#ffffff"/>
<path d="M170.368 61.2V71.8H168.662L164.348 64.6V71.8H162.542V61.2H164.248L168.462 68.3V61.2H170.368Z" fill="#ffffff"/>
<path d="M173.378 66.5C173.378 63.5 175.786 61 178.796 61C180.602 61 182.107 61.8 183.01 63.1L181.605 64.2C180.903 63.3 180 62.8 178.796 62.8C176.789 62.8 175.184 64.5 175.184 66.5C175.184 68.5 176.689 70.2 178.796 70.2C180 70.2 180.903 69.7 181.605 68.8L183.01 69.9C182.007 71.2 180.502 72 178.796 72C175.786 72 173.378 69.5 173.378 66.5Z" fill="#ffffff"/>
<path d="M192.542 70.1V71.8H185.819V61.2H192.341V62.9H187.726V65.7H191.839V67.5H187.726V70.1H192.542Z" fill="#ffffff"/>
<path d="M204.682 60.9V71.8H202.776V63.5L200.268 64.5V62.7L204.482 60.9H204.682Z" fill="#ffffff"/>
<path d="M210.602 63.8C210.602 64.5 211.204 65 212.007 65C212.809 65 213.411 64.5 213.411 63.8C213.411 63.1 212.809 62.5 212.007 62.5C211.204 62.5 210.602 63.1 210.602 63.8ZM214.214 68.4C214.214 67.3 213.311 66.5 212.007 66.5C210.803 66.5 209.799 67.3 209.799 68.4C209.799 69.4 210.702 70.2 212.007 70.2C213.311 70.2 214.214 69.5 214.214 68.4ZM216.221 68.6C216.221 70.6 214.415 72 212.007 72C209.699 72 207.793 70.6 207.793 68.6C207.793 67.2 208.595 66.1 209.9 65.7C209.197 65.4 208.696 64.6 208.696 63.6C208.696 62 210.1 60.9 212.007 60.9C213.913 60.9 215.318 62 215.318 63.6C215.318 64.6 214.816 65.3 214.114 65.7C215.318 66.1 216.221 67.2 216.221 68.6Z" fill="#ffffff"/>
<path d="M224.749 64.6C224.749 63.5 223.946 62.7 222.742 62.7C221.538 62.7 220.736 63.5 220.736 64.5C220.736 65.5 221.538 66.3 222.642 66.3C223.846 66.3 224.749 65.6 224.749 64.6ZM226.856 66.1C226.856 69.1 225.452 72 222.241 72C220.936 72 219.532 71.4 218.829 69.8L220.435 69C220.836 69.8 221.538 70.2 222.241 70.2C223.746 70.2 224.749 68.8 224.85 66.9C224.348 67.5 223.545 68 222.441 68C220.234 68 218.729 66.4 218.729 64.5C218.729 62.5 220.234 60.9 222.642 60.9C225.351 60.9 226.856 63 226.856 66.1Z" fill="#ffffff"/>
<path d="M232.274 63.8C232.274 64.5 232.876 65 233.679 65C234.482 65 235.084 64.5 235.084 63.8C235.084 63.1 234.482 62.5 233.679 62.5C232.876 62.5 232.274 63.1 232.274 63.8ZM235.786 68.4C235.786 67.3 234.883 66.5 233.579 66.5C232.375 66.5 231.371 67.3 231.371 68.4C231.371 69.4 232.274 70.2 233.579 70.2C234.883 70.2 235.786 69.5 235.786 68.4ZM237.793 68.6C237.793 70.6 235.987 72 233.579 72C231.171 72 229.365 70.6 229.365 68.6C229.365 67.2 230.167 66.1 231.472 65.7C230.769 65.4 230.268 64.6 230.268 63.6C230.268 62 231.672 60.9 233.579 60.9C235.485 60.9 236.89 62 236.89 63.6C236.89 64.6 236.388 65.3 235.686 65.7C236.99 66.1 237.793 67.2 237.793 68.6Z" fill="#ffffff"/>
</svg>