<?xml version="1.0" encoding="utf-8"?>
<!-- Generator: Adobe Illustrator 23.0.1, SVG Export Plug-In . SVG Version: 6.00 Build 0)  -->
<svg version="1.1" id="Layer_1" xmlns="http://www.w3.org/2000/svg" xmlns:xlink="http://www.w3.org/1999/xlink" x="0px" y="0px"
	 viewBox="0 0 416.6 75.6" style="enable-background:new 0 0 416.6 75.6;" xml:space="preserve">
<style type="text/css">
	.st0{fill-rule:evenodd;clip-rule:evenodd;fill:#231F20;}
</style>
<g>
	<path class="st0" d="M416.6,47.6c0,8.8-6,14-14.9,14c-4.1,0-9.4-1.6-12.1-3.2c0.4-4.5,0.7-10.5,0.8-14.6l1.8,0.1
		C391.9,54,394.2,59,402,59c5.2,0,8.1-3.5,8.1-8.7c0-4.1-1.7-6.9-4-8.8l-9.1-7.7c-4.4-3.7-6.8-7.2-6.8-12.3c0-7.9,5.4-12.5,13-12.5
		c3.8,0,7.1,1.5,8.6,3.2l1.1-3.6l1.6,0.3c-0.9,6.3-1,13.2-1,16.1h-1.8c0-9.2-3.2-13.7-8.7-13.7c-4.2,0-7.1,2.6-7.1,6.4
		c0,4.1,1.6,6.4,4.6,9l10.6,9.1C414.3,38.4,416.6,42.3,416.6,47.6 M391.6,12.2c-4.1,0.5-5,0.8-6,4.9c-3.4,15-8,28.9-11.3,44
		c-1.3,0.1-3.1,0.3-4.2,0.5c-1.7-7.9-4.7-19-7.3-28.8c-2.5,10-4.8,16.4-7.4,28.3c-1.4,0.1-3.1,0.4-4.2,0.6
		c-2.9-13.2-9.3-36.2-11.6-44.5c-1.2-4.2-1.9-4.8-5-4.8v-1.6c1.5,0.1,3.4,0.3,6.9,0.3c2.7,0,7.6-0.3,8.8-0.3v1.6l-3.4,0.5
		c-1,0.1-1.2,0.6-1,1.8c2.2,10.6,7.3,28.9,9.3,37.5c2.4-10.1,4.1-15.8,6.1-24.4c-0.9-3.5-1.9-7-2.9-10.5c-1.2-4.2-1.9-4.8-4.9-4.9
		v-1.6c1.5,0.1,3.3,0.3,6.9,0.3c2.7,0,7.8-0.3,8.9-0.3v1.6l-3.1,0.5c-1,0.2-1.5,1-1.2,2.1c2.2,10.6,7.2,28.6,9.2,37.2
		c2.8-11.9,6.5-24.2,8.5-36.3c0.4-2.3,0.2-2.8-1.3-3l-3.8-0.5v-1.6c1.5,0,4.3,0.3,7.2,0.3c3.3,0,5.6-0.3,6.9-0.3v1.4H391.6z
		 M337.6,46.8c-0.4,2.7-1.5,12.5-1.8,14.8c-2.1-0.2-6.2-0.3-13.9-0.3h-8.2c-3.2,0-9.5,0.2-10,0.2v-1.6l4.1-0.5
		c1.2-0.2,1.7-1,1.8-3.3c0.1-3.1,0.3-7.4,0.3-12.1V26.9c0-5.8,0-9.2-0.1-11.6c-0.1-1.8-0.6-2.5-3-2.7l-3-0.3v-1.7
		c2.2,0.1,7.8,0.3,10.1,0.3H325c4.3,0,7.8-0.2,9.2-0.3c-0.2,2.2-0.3,8.5-0.1,12.7h-1.7c-0.3-2.1-0.8-4.6-1.5-6.8
		c-1-2.9-2-3.1-8.4-3.1h-4.9c-0.8,0-1,0.4-1,1.3c-0.1,2.4-0.3,5.3-0.3,9.8v9c0.7,0.1,2.4,0.1,3.4,0.1c5.9,0,6.6-1.4,7.2-6.9h1.6
		c-0.4,5.5-0.4,12.3-0.1,17.5h-1.7c-0.5-6.2-0.9-7.9-7-7.9c-1.2,0-2.7,0-3.4,0.2v7.8c0,4.6,0.1,9.8,0.3,12.6c0.1,1.6,0.4,2,6.4,2
		c6.2,0,8-0.6,9.6-2.8c1.5-2.1,2.7-6,3.4-9.2L337.6,46.8L337.6,46.8z"/>
	<g transform="translate(353 62)">
		<path class="st0" d="M-47-59.9c-1.9,0.2-3.1,0.4-3.1,0.4c-2.3,0.3-2.7,1.6-3,3.9C-53.5-52-54-40.4-54-25.5v24.7
			c-1.3,0.2-2.8,0.5-4,0.9c-7-13.5-18.5-36.3-27.6-53.3c0,22.1,0.2,42.4,0.6,46c0.3,2.4,1.2,3.3,2.6,3.6l4.5,0.9v2
			c-2.6,0-5.4-0.3-9.7-0.3c-3.7,0-6.7,0.3-8.7,0.3v-2l4.2-0.6c1.9-0.3,2.3-1.9,2.6-4.5c0.4-3.8,1.5-25.9,1.5-48.4
			c-0.8-1.8-1.6-2.9-4.3-3.2l-2.8-0.4V-62c1.4,0,5.7,0.2,8.4,0.2c2.7,0,3.2,0,5.1-0.2c8.1,15.8,16,31.6,24.8,47
			c0.2-28.4-0.4-37.5-0.6-40.1c-0.4-3.3-1.1-4.1-4-4.4l-3-0.3V-62c3.3,0,6.2,0.3,9,0.3c3,0,6.4-0.2,8.3-0.2L-47-59.9L-47-59.9z"/>
	</g>
	<path class="st0" d="M256.6,30.6l-0.8,5c-5.4-0.2-5.3-0.2-10.2,0l0.8-5C251.4,30.7,251.1,30.7,256.6,30.6 M32.6,2.8l-3,0.4
		c-1.9,0.2-2.2,0.9-2.3,2.8C27.2,8.5,27,15,27,41.3c0,8.6-0.3,19.3-5.1,26.6C18.5,73,12.7,75.5,9,75.5c-3.3,0-5.3-2.1-5.3-4.3
		c0-2.1,2-4.7,3.2-4.7c0.8,0,1.1,0.6,1.6,1.4c1.5,2.3,2.7,3.2,4.2,3.2c2.3,0,5.9-2.7,6.3-10.6c0.4-6.8,0.4-15.2,0.5-26.2l0.1-20.4
		c0-6.8-0.1-5.2-0.2-7.9c0-1.7-0.4-2.4-1.8-2.6c-1.3-0.2-3.2-0.5-4.6-0.6V0.6c1.8,0,5.9,0.4,10,0.4c3.1,0,7.6-0.4,9.7-0.4L32.6,2.8
		L32.6,2.8z M201.8,39.2c-1.7-7.1-3.8-15.6-5.6-22.6c-1.6,6-3.7,13-6.2,22.6c1,0.1,3.6,0.2,6.1,0.2
		C198.6,39.3,201.1,39.2,201.8,39.2L201.8,39.2z M246.6,46.2c-0.5,3.6-1.1,10.3-1.5,15.4c-1.2-0.2-4.2-0.1-8-0.1s-7.9-0.1-12.8-0.1
		c-2.3,0-4.8,0.1-7,0.1s-4.2-0.1-6.4-0.1c-3.2,0-5.9,0.1-8.9,0.2l0-1.6c4-0.3,4.6-0.7,4.2-2.3c-0.6-2.8-2.4-10.5-3.8-15.7
		c-1.1-0.1-4-0.1-6.8-0.1s-5.5,0-6.5,0.1c-1.9,7-2.8,11.1-3.3,13.3c-0.7,3.5-0.8,4.4,4.5,4.7v1.6c-0.9,0-3.4-0.2-6.3-0.2
		c-1.9,0-5,0.2-6.5,0.2V60c3.4-0.1,3.7-1.1,5.2-5.5c2.2-6.6,9.3-31.4,11.2-38.2c0.7-2.3,1.1-4,1.2-5.2c1.4-0.2,4.2-0.8,5.4-1.5
		c3.5,13.4,10.5,40.8,13,48.1c0.6,1.6,1.5,2.2,3.3,2.3l1.5-0.2c1.5-0.2,1.8-0.7,1.9-2c0.2-2.6,0.4-8.7,0.4-15.4V25.3
		c0-6.3-0.1-8.8-0.1-10.5c-0.1-1.3-0.6-1.8-1.9-1.9l-3.3-0.3V11c1.2,0,6.1,0.3,8.5,0.3c2.3,0,7.8-0.3,8.9-0.3v1.6l-3.5,0.4
		c-1.4,0.2-1.9,0.6-1.9,2.1c-0.1,3-0.3,7.1-0.3,13.3v14.2c0,6.7,0.1,12.9,0.2,15c0.1,0.9,0.5,1.4,4.8,1.4c7,0,8.2-0.6,9.6-3.2
		c1.3-2.4,2.3-5.7,3-9.6L246.6,46.2L246.6,46.2z M133,22.8c0-6.3-3.7-9.7-9.1-9.7c-1.3,0-3.7,0.3-4.4,0.4c-0.6,0.2-0.9,0.5-1,1.3
		c-0.1,1.1-0.3,3.4-0.3,10.4v9.1h3.1C129.1,34.4,133,31.2,133,22.8L133,22.8z M182.6,12.5c-1.5,0.2-2.4,0.3-3.3,0.6
		c-1.1,0.3-1.6,1.1-1.8,2.9c-0.4,3-0.8,12.8-0.8,25.2v20.6c-1.1,0.2-2.3,0.5-3.3,0.8c-5.9-11.3-15.4-30-22.9-44.2
		c0,18.4,0.2,34.9,0.6,37.9c0.3,2,1,3.1,2.2,3.2l3.8,0.6v1.6c-2.2,0-4.6-0.2-8.1-0.2c-2,0-3.7,0.1-5.1,0.2c-1,0.2-2.2,0.2-3.2,0.2
		c-5.2,0-7.7-3.5-8.1-9.2c-0.1-2.1-0.3-3.1-0.4-5.3c-0.5-7.3-4.2-10.6-10.6-10.6h-3.1V45c0,6.3,0,9.9,0.2,12.4
		c0.1,2,0.7,2.3,5.4,2.7v1.6c-2.4,0-6.3-0.3-9-0.3c-3.4,0-6.3,0.3-8.8,0.3V60c4.3-0.3,5.3-0.7,5.4-2.4c0.1-1.9,0.3-5.9,0.3-13.5
		V27.3c0-7.6,0-10.8-0.1-12.6c-0.1-1.1-0.4-1.7-1.7-1.8l-2-0.3l-1.2,0.2c-1.9,0.3-2.5,0.8-2.5,2.9c0,10.6-0.3,25.4-1,32.1
		c-1,9.4-5.4,14.8-15.3,14.8c-12.6,0-15.1-7.4-15.3-18.3c-0.1-5.8,0.1-25,0-28.7c0-1.7-0.4-2.3-1.4-2.5l-3.7-0.5v-1.7
		c1.7,0,5.8,0.3,8.5,0.3c2.2,0,7.4-0.3,8.4-0.3v1.7L81,13c-0.9,0.1-1.4,0.7-1.5,2c-0.5,6-0.6,22.4-0.2,31.3c0.4,7,2.7,13,10.9,13
		c5.3,0,10.1-2.5,10.7-14.3c0.6-10.5,0.2-23.4-0.1-28.7c-0.2-3.1-1.2-3.3-2.9-3.5l-3.3-0.4v-1.6c1.1,0.1,6,0.3,8.2,0.3l11-0.1
		c3.2,0,8.1-0.5,11.6-0.5c7.3,0,14.5,2.4,14.5,11.4c0,8.3-5.6,11.9-11.6,13.1v0.3c6.4,1.2,9.9,6.5,10.6,12.2
		c0.3,2.4,0.5,4.1,0.8,6.6c0.5,3.6,1.3,5.2,2.7,5.9l2.7-0.6c1.6-0.4,2-1.5,2.2-3.7c0.4-3.2,1-21.5,1-40.2c-0.5-1.7-1.2-2.4-3.1-2.7
		l-2.5-0.4v-1.6c1.2,0,4.8,0.2,7,0.2s2.6-0.1,4.2-0.3c6.7,13.2,13.3,26.3,20.6,39.1c0.1-23.7-0.3-31.3-0.5-33.5
		c-0.3-2.8-0.9-3.4-3.4-3.7l-2.5-0.3v-1.7c1.1,0.1,5.1,0.2,7.5,0.2c2.5,0,5.3-0.2,6.9-0.2L182.6,12.5L182.6,12.5z M60.6,35.3
		c0-15.8-3.2-24.7-10.8-24.7c-7,0-10.7,8.5-10.7,24c0,15.8,2.4,24.8,11.2,24.8C58.2,59.4,60.6,49.2,60.6,35.3 M67.6,34.2
		c0,18.5-7.4,27.4-17.6,27.4c-11.6,0-18.4-9.8-18.4-26.1c0-18.2,7.5-26.9,17.8-26.9C60.3,8.6,67.6,17.3,67.6,34.2"/>
</g>
</svg>
