<svg id="Layer_1" data-name="Layer 1" xmlns="http://www.w3.org/2000/svg" viewBox="0 0 190 50"><defs><style>.cls-1{fill:#231f20;}.cls-2{fill:none;}</style></defs><title>JN with Tagline</title><path class="cls-1" d="M184.43,26c0,3.82-2.63,6.09-6.47,6.09a12.34,12.34,0,0,1-5.28-1.39c.17-2,.3-4.56.33-6.35l.77,0c-.11,4.41.9,6.58,4.29,6.58,2.28,0,3.54-1.51,3.54-3.78a4.76,4.76,0,0,0-1.75-3.85l-4-3.34c-1.91-1.62-3-3.14-3-5.36,0-3.43,2.34-5.43,5.64-5.43a5,5,0,0,1,3.73,1.42l.5-1.55.69.11a52.07,52.07,0,0,0-.44,7h-.77c0-4-1.41-6-3.79-6a2.8,2.8,0,0,0-3.07,2.79,4.61,4.61,0,0,0,2,3.9l4.62,4A6.62,6.62,0,0,1,184.43,26Z"/><path class="cls-1" d="M173.64,10.33c-1.74.22-2.16.34-2.57,2.13-1.48,6.55-3.47,12.65-4.86,19.22a14.78,14.78,0,0,0-1.83.22c-.74-3.45-2-8.28-3.15-12.58-1.1,4.37-2.07,7.16-3.18,12.36a13.34,13.34,0,0,0-1.82.25c-1.24-5.75-4-15.84-5-19.47-.51-1.83-.83-2.08-2.15-2.1V9.64c.66,0,1.46.11,3,.11,1.18,0,3.26-.11,3.82-.11v.69l-1.47.23c-.42.06-.52.27-.41.77,1,4.62,3.15,12.62,4,16.39,1-4.41,1.77-6.91,2.62-10.67-.51-1.91-1-3.53-1.24-4.59-.51-1.83-.81-2.11-2.13-2.13V9.64c.66,0,1.44.11,3,.11,1.17,0,3.37-.11,3.84-.11v.69l-1.33.23c-.42.07-.62.41-.52.91,1,4.62,3.09,12.48,4,16.25,1.21-5.2,2.81-10.57,3.65-15.86.16-1,.08-1.22-.58-1.3l-1.66-.23V9.64c.66,0,1.87.13,3.1.11,1.43,0,2.4-.11,3-.11Z"/><path class="cls-1" d="M150.23,25.37c-.16,1.19-.67,5.42-.78,6.42-.91-.07-2.72-.11-6.08-.11h-3.59c-1.38,0-4.15.08-4.37.08v-.69l1.77-.22c.54-.07.72-.46.77-1.44.07-1.34.11-3.24.11-5.28V16.69c0-2.53,0-4-.05-5,0-.77-.28-1.1-1.33-1.19l-1.3-.11V9.61c1,0,3.42.14,4.4.14h4.86c1.87,0,3.41-.07,4-.11a53.24,53.24,0,0,0-.05,5.51h-.75a16.32,16.32,0,0,0-.67-3c-.42-1.27-.86-1.33-3.64-1.33h-2.13c-.35,0-.42.16-.45.58-.06,1.06-.11,2.32-.11,4.26v3.9c.32,0,1,0,1.5,0,2.58,0,2.86-.58,3.12-3h.72a69.08,69.08,0,0,0-.06,7.6h-.74c-.23-2.68-.41-3.46-3.07-3.46a8.3,8.3,0,0,0-1.47.09v3.37c0,2,0,4.24.11,5.47,0,.71.19.89,2.8.89s3.49-.24,4.2-1.22a12.48,12.48,0,0,0,1.49-4Z"/><path class="cls-1" d="M136.49,6.08c-.83.1-1.33.19-1.33.19-1,.14-1.18.71-1.3,1.69-.19,1.56-.38,6.6-.38,13.07V31.76a10.75,10.75,0,0,0-1.72.39c-3.06-5.88-8-15.77-12-23.17,0,9.6.07,18.39.28,20,.13,1.06.51,1.42,1.13,1.55l1.94.38v.89c-1.14,0-2.32-.11-4.18-.11-1.62,0-2.9.11-3.76.11V30.9l1.82-.25c.84-.11,1-.82,1.14-2,.18-1.65.63-11.24.63-21a2,2,0,0,0-1.85-1.41l-1.21-.17V5.16c.62,0,2.48.09,3.65.09a15.61,15.61,0,0,0,2.21-.09c3.5,6.88,6.9,13.73,10.72,20.41.07-12.35-.15-16.27-.27-17.42-.16-1.44-.48-1.8-1.74-1.91L129,6.13v-1c1.44,0,2.65.14,3.89.14s2.77-.09,3.6-.08Z"/><path class="cls-1" d="M115.2,18.6l-.33,2.18c-2.35-.07-2.27-.07-4.42,0l.33-2.18C112.93,18.67,112.79,18.67,115.2,18.6Z"/><path class="cls-1" d="M17.81,6.16l-1.33.17c-.82.1-1,.4-1,1.21-.06,1.07-.14,3.93-.14,15.37,0,3.76-.12,8.39-2.24,11.59a7.49,7.49,0,0,1-5.61,3.31,2.07,2.07,0,0,1-2.32-1.88c0-.9.85-2,1.38-2,.33,0,.49.26.72.61.63,1,1.19,1.38,1.82,1.38,1,0,2.56-1.17,2.74-4.59.15-3,.19-6.62.22-11.42L12.08,11c0-3-.06-2.26-.08-3.46,0-.73-.18-1-.77-1.13s-1.39-.21-2-.25v-1c.79,0,2.58.17,4.37.17,1.35,0,3.3-.17,4.23-.17Z"/><path class="cls-1" d="M110.78,25c-.23,1.59-.49,4.5-.67,6.72-.51-.07-1.82,0-3.48-.06l-5.53,0c-1,0-2.07.05-3,.05s-1.81-.05-2.76-.05c-1.41,0-2.56,0-3.87.08l0-.69c1.75-.14,2-.32,1.83-1-.27-1.24-1.06-4.6-1.63-6.86-.46,0-1.73,0-2.93,0s-2.37,0-2.8,0c-.8,3.07-1.21,4.85-1.4,5.83-.3,1.53-.37,1.91,2,2.05v.69c-.39,0-1.48-.08-2.74-.08-.83,0-2.18.08-2.82.08v-.69c1.45-.06,1.59-.46,2.24-2.41,1-2.88,4-13.73,4.87-16.72a17.27,17.27,0,0,0,.52-2.3A8.87,8.87,0,0,0,90.9,9c1.43,5.89,4.46,17.87,5.56,21a1.4,1.4,0,0,0,1.44,1l.63-.08c.63-.09.79-.3.83-.86.08-1.13.19-3.82.19-6.75V15.89c0-2.75,0-3.85,0-4.59,0-.57-.26-.78-.83-.83l-1.44-.11V9.64c.53,0,2.65.11,3.68.11s3.37-.11,3.87-.11v.72l-1.49.17c-.63.07-.81.28-.83.91-.06,1.3-.11,3.12-.11,5.83v6.2c0,2.92,0,5.63.08,6.55,0,.39.21.61,2.07.61,3,0,3.56-.26,4.18-1.41A15.55,15.55,0,0,0,110,25Zm-19.41-3.1c-.72-3.1-1.66-6.82-2.4-9.89-.69,2.61-1.6,5.7-2.69,9.89.43,0,1.54.09,2.63.09S91.08,22,91.37,21.94Z"/><path class="cls-1" d="M83,10.36a8.79,8.79,0,0,0-1.43.25c-.47.13-.68.46-.78,1.27-.16,1.3-.33,5.56-.33,10.95v8.93a9.78,9.78,0,0,0-1.44.36c-2.55-4.9-6.7-13-10-19.19,0,8,.08,15.18.25,16.48.12.88.42,1.33.94,1.41l1.63.25v.69c-.94,0-2-.08-3.54-.08-.87,0-1.6.05-2.21.08a9.22,9.22,0,0,1-1.41.08c-2.26,0-3.34-1.5-3.51-4-.06-.9-.12-1.33-.19-2.32-.22-3.16-1.84-4.62-4.62-4.62H55v3.57c0,2.75,0,4.29.08,5.39,0,.88.29,1,2.35,1.19v.69c-1,0-2.75-.11-3.9-.11-1.46,0-2.75.11-3.81.11V31c1.86-.14,2.31-.31,2.35-1.05s.11-2.55.11-5.86V16.78c0-3.32,0-4.7-.06-5.48,0-.49-.17-.72-.72-.8l-.88-.14-.53.08c-.82.14-1.1.36-1.1,1.25,0,4.59-.13,11-.44,14-.44,4.09-2.37,6.41-6.64,6.41-5.47,0-6.59-3.22-6.64-7.93,0-2.54,0-10.85,0-12.47,0-.74-.15-1-.6-1.08L33,10.36V9.64c.75,0,2.53.14,3.71.14,1,0,3.23-.14,3.65-.14v.72l-1.55.22c-.37.06-.59.29-.64.89-.21,2.6-.27,9.73-.08,13.57.16,3.06,1.16,5.64,4.73,5.64,2.29,0,4.38-1.08,4.67-6.19.26-4.58.1-10.17,0-12.47-.07-1.33-.53-1.43-1.27-1.52l-1.44-.17V9.64c.5,0,2.62.15,3.57.14l4.78,0c1.38,0,3.54-.22,5.06-.22,3.17,0,6.3,1.06,6.3,5,0,3.63-2.45,5.17-5.06,5.7v.13A5.82,5.82,0,0,1,64,25.62c.14,1,.2,1.76.36,2.88.22,1.55.58,2.27,1.19,2.57l1.19-.28c.68-.16.86-.65,1-1.6.15-1.38.41-9.33.41-17.47a1.42,1.42,0,0,0-1.35-1.19l-1.11-.2V9.64c.52,0,2.07.09,3,.09a11.21,11.21,0,0,0,1.83-.12c2.92,5.74,5.76,11.44,9,17,.06-10.3-.12-13.59-.22-14.54-.13-1.2-.4-1.5-1.46-1.61l-1.08-.11V9.64c.5,0,2.23.09,3.26.09s2.33-.09,3-.09ZM61.4,14.84c0-2.75-1.61-4.23-3.95-4.23a12.49,12.49,0,0,0-1.91.19c-.26.07-.39.23-.41.59S55,12.85,55,15.92v4h1.35C59.72,19.87,61.4,18.51,61.4,14.84Z"/><path class="cls-1" d="M33,20.18c0,8.07-3.2,11.94-7.6,11.94-5,0-8-4.28-8-11.36C17.42,12.83,20.68,9,25.13,9,29.86,9,33,12.81,33,20.18Zm-3,.47c0-6.89-1.4-10.76-4.67-10.76-3,0-4.62,3.69-4.62,10.45s1,10.81,4.84,10.81C28.92,31.15,30,26.7,30,20.65Z"/><path class="cls-1" d="M17.14,43.1V35.8h3.29c1.57,0,2.59.56,2.59,1.9a1.62,1.62,0,0,1-1.33,1.59,1.72,1.72,0,0,1,1.56,1.78c0,1.58-1.32,2-2.88,2Zm1.66-4.32h1.41c.84,0,1.09-.38,1.09-.83s-.26-.78-1.16-.78H18.8Zm0,3h1.52c.82,0,1.22-.28,1.22-.87s-.39-.84-1.23-.84H18.8Z"/><path class="cls-1" d="M24.23,41V37.52h1.61v3.15c0,.73.22,1.13.93,1.13A1,1,0,0,0,28,40.63V37.52h1.63V43l-1.22.12-.26-1a2.1,2.1,0,0,1-2,1C24.66,43.19,24.23,42.34,24.23,41Z"/><path class="cls-1" d="M31.4,38.91H30.31V37.52h1.17l.28-1.31L33,35.92v1.6h1.74v1.39H33V41c0,.58.08.72.54.72a3.14,3.14,0,0,0,1.08-.21l.42,1.26A5,5,0,0,1,33,43.2c-1.22,0-1.61-.7-1.61-1.78Z"/><path class="cls-1" d="M36,43.1V35.46h1.62V43.1Z"/><path class="cls-1" d="M40.26,40.93a1.11,1.11,0,0,0,1.19,1,2.74,2.74,0,0,0,1.82-.63l.73,1a3.89,3.89,0,0,1-2.72,1c-1.92,0-2.66-1.33-2.66-2.92a2.7,2.7,0,0,1,2.88-2.9c2.19,0,2.52,1.66,2.43,3.54Zm2.2-1.18a.85.85,0,0,0-1-1,1.13,1.13,0,0,0-1.24,1Z"/><path class="cls-1" d="M45.06,43.1V37.59l1.21-.11.29,1.14a2.25,2.25,0,0,1,1.77-1.15L48.71,39c-1.54,0-2,.55-2,1.29V43.1Z"/><path class="cls-1" d="M51.23,39.52A3.55,3.55,0,0,1,55,35.68a3.51,3.51,0,0,1,2.94,1.4l-1.23,1a2.18,2.18,0,0,0-1.82-.88c-1,0-1.91.77-1.91,2.28a1.94,1.94,0,0,0,1.93,2.21,1.86,1.86,0,0,0,1.86-1.19l1.36.68a3.62,3.62,0,0,1-6.86-1.67Z"/><path class="cls-1" d="M58.73,40.29a2.92,2.92,0,1,1,2.92,2.92A2.73,2.73,0,0,1,58.73,40.29Zm4.21,0c0-.88-.45-1.46-1.29-1.46s-1.28.58-1.28,1.46.44,1.49,1.28,1.49S62.94,41.22,62.94,40.33Z"/><path class="cls-1" d="M65.52,41V37.52h1.61v3.15c0,.73.22,1.13.93,1.13a1,1,0,0,0,1.18-1.17V37.52h1.62V43l-1.22.12-.25-1a2.11,2.11,0,0,1-2,1C66,43.19,65.52,42.34,65.52,41Z"/><path class="cls-1" d="M72.14,43.1V37.59l1.22-.11.26,1a2.07,2.07,0,0,1,2-1.06c1.39,0,1.91.86,1.91,2.25V43.1H75.9V40c0-.73-.22-1.13-.93-1.13a1.05,1.05,0,0,0-1.21,1.18v3Z"/><path class="cls-1" d="M79.28,38.91H78.2V37.52h1.17l.27-1.31,1.26-.29v1.6h1.75v1.39H80.9V41c0,.58.08.72.55.72a3.13,3.13,0,0,0,1.07-.21l.42,1.26a5,5,0,0,1-2,.42c-1.22,0-1.61-.7-1.61-1.78Z"/><path class="cls-1" d="M83.31,37.52H85l1.23,3.57,1.21-3.57h1.6l-2.22,6a1.77,1.77,0,0,1-1.93,1.35,5.12,5.12,0,0,1-1.56-.27l.37-1.27a3.52,3.52,0,0,0,1,.17c.35,0,.55-.07.69-.36Z"/><path class="cls-1" d="M89.78,38.55c.71-.32.81-.46.81-.91h-.87V35.8h1.87v1.29c0,1.27-.18,1.71-1.42,2.25Z"/><path class="cls-1" d="M92.15,42.35,93,41.26a3.06,3.06,0,0,0,2,.64c.5,0,.83-.1.83-.42s-.35-.41-1.14-.51c-1-.11-2.2-.34-2.2-1.79,0-1.18,1-1.79,2.23-1.79a4.74,4.74,0,0,1,2.42.54l-.61,1.28a3.79,3.79,0,0,0-1.74-.42c-.41,0-.69.09-.69.36s.33.42,1,.5c1,.13,2.3.29,2.3,1.72s-1.14,1.83-2.51,1.83A4.09,4.09,0,0,1,92.15,42.35Z"/><path class="cls-1" d="M100.4,43.1V35.8h1.68v5.84h3.5V43.1Z"/><path class="cls-1" d="M106.09,40.29A2.92,2.92,0,1,1,109,43.21,2.73,2.73,0,0,1,106.09,40.29Zm4.21,0c0-.88-.45-1.46-1.29-1.46s-1.28.58-1.28,1.46.44,1.49,1.28,1.49S110.3,41.22,110.3,40.33Z"/><path class="cls-1" d="M112.65,40.29a2.72,2.72,0,0,1,2.85-2.9,2.65,2.65,0,0,1,2.39,1.15l-1.17.94a1.41,1.41,0,0,0-1.24-.61c-.75,0-1.19.58-1.19,1.46s.39,1.49,1.22,1.49a1.59,1.59,0,0,0,1.4-.84l1.1.78a2.85,2.85,0,0,1-2.59,1.43A2.61,2.61,0,0,1,112.65,40.29Z"/><path class="cls-1" d="M122.29,39.74c0-.55-.14-.87-.82-.87a4.61,4.61,0,0,0-1.75.33l-.49-1.33a5.58,5.58,0,0,1,2.41-.5c1.5,0,2.23.6,2.23,2.19V42h.64V43a3.82,3.82,0,0,1-1,.17c-.63,0-1-.12-1.1-.76l-.05-.29a2,2,0,0,1-2,1,1.62,1.62,0,0,1-1.74-1.71c0-1.14.92-1.83,2.33-1.83a5.29,5.29,0,0,1,1.34.17Zm0,1a4,4,0,0,0-.78-.09c-.75,0-1.34.16-1.34.61s.24.58.81.58c.84,0,1.31-.38,1.31-1Z"/><path class="cls-1" d="M125.41,43.1V35.46H127V43.1Z"/><path class="cls-1" d="M130.42,43.1V35.8h1.86l3.2,4.48V35.8h1.6v7.3h-1.56L132,38.25V43.1Z"/><path class="cls-1" d="M139.84,40.93a1.1,1.1,0,0,0,1.19,1,2.76,2.76,0,0,0,1.82-.63l.73,1a3.91,3.91,0,0,1-2.72,1c-1.92,0-2.66-1.33-2.66-2.92a2.7,2.7,0,0,1,2.88-2.9c2.18,0,2.52,1.66,2.43,3.54ZM142,39.75c0-.69-.33-1-.95-1a1.12,1.12,0,0,0-1.24,1Z"/><path class="cls-1" d="M145.8,43.16,144,37.52h1.65l1,3.42,1-3.42h1.51l1,3.42,1-3.42h1.51l-1.81,5.64h-1.48l-1.08-3.47-1.08,3.47Z"/><path class="cls-1" d="M152.94,42.35l.87-1.09a3.06,3.06,0,0,0,1.95.64c.5,0,.84-.1.84-.42s-.36-.41-1.15-.51c-1-.11-2.2-.34-2.2-1.79,0-1.18,1-1.79,2.23-1.79a4.76,4.76,0,0,1,2.43.54l-.61,1.28a3.86,3.86,0,0,0-1.75-.42c-.41,0-.69.09-.69.36s.33.42,1,.5c1,.13,2.3.29,2.3,1.72S157,43.2,155.67,43.2A4.11,4.11,0,0,1,152.94,42.35Z"/><path class="cls-1" d="M161.19,43.1V35.8H163l3.21,4.48V35.8h1.6v7.3h-1.57l-3.47-4.85V43.1Z"/><path class="cls-1" d="M169,40.29a2.92,2.92,0,1,1,2.92,2.92A2.73,2.73,0,0,1,169,40.29Zm4.21,0c0-.88-.44-1.46-1.29-1.46s-1.28.58-1.28,1.46.44,1.49,1.28,1.49S173.16,41.22,173.16,40.33Z"/><path class="cls-1" d="M176.92,43.16l-1.82-5.64h1.65l1,3.42,1-3.42h1.51l1,3.42,1-3.42h1.51L182,43.16h-1.47l-1.09-3.47-1.08,3.47Z"/><rect class="cls-2" width="190" height="50"/></svg>