<?xml version="1.0" encoding="utf-8"?>
<!-- Generator: Adobe Illustrator 23.0.6, SVG Export Plug-In . SVG Version: 6.00 Build 0)  -->
<svg version="1.1" id="Layer_1" xmlns="http://www.w3.org/2000/svg" xmlns:xlink="http://www.w3.org/1999/xlink" x="0px" y="0px"
	 viewBox="0 0 180.2 33.8" style="enable-background:new 0 0 180.2 33.8;" xml:space="preserve">
<style type="text/css">
	.st0{fill:#FFFFFF;}
</style>
<title>JN</title>
<path class="st0" d="M179.7,21.3c0,3.8-2.6,6.1-6.5,6.1c-1.8-0.1-3.6-0.5-5.3-1.4c0.2-2,0.3-4.6,0.3-6.4h0.8
	c-0.1,4.4,0.9,6.6,4.3,6.6c2.3,0,3.5-1.5,3.5-3.8c0.1-1.5-0.6-2.9-1.8-3.9l-4-3.3c-1.9-1.6-3-3.1-3-5.4c0-3.4,2.3-5.4,5.6-5.4
	c1.4-0.1,2.7,0.4,3.7,1.4l0.5-1.6l0.7,0.1c-0.3,2.3-0.4,4.7-0.4,7h-0.8c0-4-1.4-6-3.8-6c-1.5-0.2-2.9,1-3.1,2.5c0,0,0,0,0,0
	c0,0.1,0,0.2,0,0.3c0,1.6,0.7,3,2,3.9l4.6,4C178.8,17.4,179.7,19.3,179.7,21.3z"/>
<path class="st0" d="M168.9,5.6c-1.7,0.2-2.2,0.3-2.6,2.1c-1.5,6.5-3.5,12.6-4.9,19.2c-0.6,0-1.2,0.1-1.8,0.2
	c-0.7-3.5-2-8.3-3.1-12.6c-1.1,4.4-2.1,7.2-3.2,12.4c-0.6,0-1.2,0.1-1.8,0.2c-1.2-5.8-4-15.8-5-19.5c-0.5-1.8-0.8-2.1-2.1-2.1V4.9
	c0.7,0,1.5,0.1,3,0.1c1.2,0,3.3-0.1,3.8-0.1v0.7l-1.5,0.2c-0.4,0.1-0.5,0.3-0.4,0.8c1,4.6,3.1,12.6,4,16.4c1-4.4,1.8-6.9,2.6-10.7
	c-0.5-1.9-1-3.5-1.2-4.6c-0.5-1.8-0.8-2.1-2.1-2.1V4.9c0.7,0,1.4,0.1,3,0.1c1.2,0,3.4-0.1,3.8-0.1v0.7L158,5.8
	c-0.4,0.1-0.6,0.4-0.5,0.9c1,4.6,3.1,12.5,4,16.2c1.2-5.2,2.8-10.6,3.6-15.9c0.2-1,0.1-1.2-0.6-1.3l-1.7-0.2V4.9
	c0.7,0,1.9,0.1,3.1,0.1c1.4,0,2.4-0.1,3-0.1L168.9,5.6z"/>
<path class="st0" d="M145.5,20.6c-0.2,1.2-0.7,5.4-0.8,6.4c-0.9-0.1-2.7-0.1-6.1-0.1H135c-1.4,0-4.1,0.1-4.4,0.1v-0.7l1.8-0.2
	c0.5-0.1,0.7-0.5,0.8-1.4c0.1-1.3,0.1-3.2,0.1-5.3v-7.4c0-2.5,0-4-0.1-5c0-0.8-0.3-1.1-1.3-1.2l-1.3-0.1V4.9c1,0,3.4,0.1,4.4,0.1
	h4.9c1.9,0,3.4-0.1,4-0.1c-0.1,1.8-0.1,3.7,0,5.5h-0.8c-0.1-1-0.4-2-0.7-3c-0.4-1.3-0.9-1.3-3.6-1.3h-2.2c-0.4,0-0.4,0.2-0.4,0.6
	c-0.1,1.1-0.1,2.3-0.1,4.3v3.9h1.5c2.6,0,2.9-0.6,3.1-3h0.7c-0.2,2.5-0.2,5.1-0.1,7.6h-0.7c-0.2-2.7-0.4-3.5-3.1-3.5
	c-0.5,0-1,0-1.5,0.1v3.4c0,2,0,4.2,0.1,5.5c0,0.7,0.2,0.9,2.8,0.9s3.5-0.2,4.2-1.2c0.7-1.2,1.2-2.6,1.5-4L145.5,20.6z"/>
<path class="st0" d="M131.7,1.3c-0.8,0.1-1.3,0.2-1.3,0.2c-1,0.1-1.2,0.7-1.3,1.7c-0.2,1.6-0.4,6.6-0.4,13.1V27
	c-0.6,0.1-1.2,0.2-1.7,0.4c-3.1-5.9-8-15.8-12-23.2c0,9.6,0.1,18.4,0.3,20c0.1,1.1,0.5,1.4,1.1,1.5l1.9,0.4v0.9
	c-1.1,0-2.3-0.1-4.2-0.1c-1.6,0-2.9,0.1-3.8,0.1v-0.9l1.8-0.2c0.8-0.1,1-0.8,1.1-2c0.2-1.6,0.6-11.2,0.6-21c-0.3-0.8-1-1.4-1.8-1.4
	L111,1.3V0.4c0.6,0,2.5,0.1,3.7,0.1c0.7,0,1.5,0,2.2-0.1c3.5,6.9,6.9,13.7,10.7,20.4c0.1-12.4-0.1-16.3-0.3-17.4
	c-0.2-1.4-0.5-1.8-1.7-1.9l-1.3-0.1v-1c1.4,0,2.6,0.1,3.9,0.1c1.2,0,2.8-0.1,3.6-0.1V1.3z"/>
<path class="st0" d="M110.5,13.9l-0.3,2.2c-2.3-0.1-2.3-0.1-4.4,0l0.3-2.2C108.2,13.9,108,13.9,110.5,13.9z"/>
<path class="st0" d="M13.1,1.4l-1.3,0.2c-0.8,0.1-1,0.4-1,1.2c-0.1,1.1-0.1,3.9-0.1,15.4c0,3.8-0.1,8.4-2.2,11.6
	c-1.3,1.9-3.3,3.1-5.6,3.3c-1.1,0.1-2.2-0.7-2.3-1.8c0,0,0,0,0,0c0,0,0,0,0-0.1c0-0.9,0.8-2,1.4-2c0.3,0,0.5,0.3,0.7,0.6
	c0.6,1,1.2,1.4,1.8,1.4c1,0,2.6-1.2,2.7-4.6c0.1-3,0.2-6.6,0.2-11.4V6.2c0-3-0.1-2.3-0.1-3.5c0-0.7-0.2-1-0.8-1.1
	c-0.7-0.1-1.3-0.2-2-0.2v-1c0.8,0,2.6,0.2,4.4,0.2c1.4,0,3.3-0.2,4.2-0.2V1.4z"/>
<path class="st0" d="M106,20.3c-0.2,1.6-0.5,4.5-0.7,6.7c-0.5-0.1-1.8,0-3.5-0.1h-5.5c-1,0-2.1,0-3,0s-1.8,0-2.8,0
	c-1.4,0-2.6,0-3.9,0.1v-0.7c1.8-0.1,2-0.3,1.8-1c-0.3-1.2-1.1-4.6-1.6-6.9h-5.7c-0.8,3.1-1.2,4.9-1.4,5.8c-0.3,1.5-0.4,1.9,2,2V27
	c-0.4,0-1.5-0.1-2.7-0.1c-0.8,0-2.2,0.1-2.8,0.1v-0.7c1.4-0.1,1.6-0.5,2.2-2.4c1-2.9,4-13.7,4.9-16.7c0.2-0.8,0.4-1.5,0.5-2.3
	c0.8-0.1,1.6-0.3,2.3-0.6c1.4,5.9,4.5,17.9,5.6,21c0.2,0.6,0.8,1,1.4,1l0.6-0.1c0.6-0.1,0.8-0.3,0.8-0.9c0.1-1.1,0.2-3.8,0.2-6.8
	v-12c0-0.6-0.3-0.8-0.8-0.8l-1.4-0.1V4.9c0.5,0,2.7,0.1,3.7,0.1s3.4-0.1,3.9-0.1v0.7l-1.5,0.2c-0.6,0.1-0.8,0.3-0.8,0.9
	c-0.1,1.3-0.1,3.1-0.1,5.8v6.2c0,2.9,0,5.6,0.1,6.5c0,0.4,0.2,0.6,2.1,0.6c3,0,3.6-0.3,4.2-1.4c0.6-1.3,1-2.8,1.3-4.2H106z
	 M86.6,17.2c-0.7-3.1-1.7-6.8-2.4-9.9c-0.7,2.6-1.6,5.7-2.7,9.9c0.4,0,1.5,0.1,2.6,0.1S86.3,17.2,86.6,17.2L86.6,17.2z"/>
<path class="st0" d="M78.3,5.6c-0.5,0-1,0.1-1.4,0.2C76.4,6,76.1,6.3,76,7.1c-0.2,1.3-0.3,5.6-0.3,10.9V27c-0.5,0.1-1,0.2-1.4,0.4
	c-2.6-4.9-6.7-13-10-19.2c0,8,0.1,15.2,0.2,16.5c0.1,0.9,0.4,1.3,0.9,1.4l1.6,0.2V27c-0.9,0-2-0.1-3.5-0.1c-0.9,0-1.6,0-2.2,0.1
	c-0.5,0.1-0.9,0.1-1.4,0.1c-2.3,0-3.3-1.5-3.5-4c-0.1-0.9-0.1-1.3-0.2-2.3c-0.2-3.2-1.8-4.6-4.6-4.6h-1.4v3.6c0,2.8,0,4.3,0.1,5.4
	c0,0.9,0.3,1,2.3,1.2V27c-1,0-2.8-0.1-3.9-0.1C47.3,26.9,46,27,45,27v-0.7c1.9-0.1,2.3-0.3,2.3-1s0.1-2.5,0.1-5.9V12
	c0-3.3,0-4.7-0.1-5.5c0-0.5-0.2-0.7-0.7-0.8l-0.9-0.1l-0.5,0.1c-0.8,0.1-1.1,0.4-1.1,1.2c0,4.6-0.1,11-0.4,14
	c-0.4,4.1-2.4,6.4-6.6,6.4c-5.5,0-6.6-3.2-6.6-7.9V7c0-0.7-0.2-1-0.6-1.1l-1.6-0.3V4.9C29,4.9,30.8,5,32,5c1,0,3.2-0.1,3.7-0.1v0.7
	l-1.5,0.2c-0.4,0.1-0.6,0.3-0.6,0.9c-0.2,2.6-0.3,9.7-0.1,13.5c0.2,3.1,1.2,5.6,4.7,5.6c2.3,0,4.4-1.1,4.7-6.2
	c0.3-4.6,0.1-10.2,0-12.5c-0.1-1.3-0.5-1.4-1.3-1.5L40,5.5V4.9c0.5,0,2.6,0.1,3.6,0.1h4.8c1.4,0,3.5-0.2,5.1-0.2
	c3.2,0,6.3,1.1,6.3,5c0,3.6-2.5,5.2-5.1,5.7v0.1c2.5,0.5,4.4,2.7,4.6,5.2c0.1,1,0.2,1.8,0.4,2.9c0.2,1.5,0.6,2.3,1.2,2.6L62,26
	c0.7-0.2,0.9-0.6,1-1.6c0.2-1.4,0.4-9.3,0.4-17.5c-0.1-0.7-0.7-1.2-1.3-1.2l-1.1-0.2V4.9c0.5,0,2.1,0.1,3,0.1c0.6,0,1.2,0,1.8-0.1
	c2.9,5.7,5.8,11.4,9,17c0.1-10.3-0.1-13.6-0.2-14.5c-0.1-1.2-0.4-1.5-1.5-1.6L72,5.6V4.9c0.5,0,2.2,0.1,3.3,0.1s2.3-0.1,3-0.1
	L78.3,5.6z M56.7,10.1c0-2.7-1.6-4.2-4-4.2c-0.6,0-1.3,0.1-1.9,0.2c-0.3,0.1-0.4,0.2-0.4,0.6s-0.1,1.5-0.1,4.5v4h1.3
	C55,15.1,56.7,13.8,56.7,10.1z"/>
<path class="st0" d="M28.3,15.4c0,8.1-3.2,11.9-7.6,11.9c-5,0-8-4.3-8-11.4c0-7.9,3.3-11.8,7.7-11.8C25.1,4.3,28.3,8.1,28.3,15.4z
	 M25.3,15.9c0-6.9-1.4-10.8-4.7-10.8c-3,0-4.6,3.7-4.6,10.5s1,10.8,4.8,10.8C24.2,26.4,25.3,22,25.3,15.9z"/>
</svg>
