<svg xmlns="http://www.w3.org/2000/svg" xmlns:xlink="http://www.w3.org/1999/xlink" width="598" height="337" viewBox="0 0 598 337">
    <defs>
        <path id="prefix__a" d="M7.692 0h582.616c2.675 0 3.645.278 4.623.801.977.523 1.745 1.29 2.268 2.268.523.978.801 1.948.801 4.623v321.187c0 2.675-.278 3.645-.801 4.623-.523.977-1.29 1.745-2.268 2.268-.978.523-1.948.801-4.623.801H7.692c-2.675 0-3.645-.278-4.623-.801-.977-.523-1.745-1.29-2.268-2.268-.523-.978-.801-1.948-.801-4.623V7.692c0-2.675.278-3.645.801-4.623.523-.977 1.29-1.745 2.268-2.268C4.047.278 5.017 0 7.692 0z"/>
    </defs>
    <g fill="none" fill-rule="evenodd">
        <mask id="prefix__b" fill="#fff">
            <use xlink:href="#prefix__a"/>
        </mask>
        <use fill="#DEDEDE" fill-rule="nonzero" xlink:href="#prefix__a"/>
        <g fill="#FFF" mask="url(#prefix__b)">
            <g>
                <path d="M164.376 0l6.612.18h2.777c.423.824.294 1.122-.542 1.266l-.4.083c-1.858.287-2.223.658-2.352 2.581-.177 4.003-.377 7.994-.424 11.948-.094 6.261-.07 12.522-.094 18.783v.633l-2.294.526-15.4-30.36h-.2v.86c0 6.536.082 13.071.153 19.607 0 1.792.13 3.584.223 5.377.083 1.54.506 2.007 2 2.318l1.177.238c.906.18 1.023.407.694 1.375H146V34.22l2.188-.347c.953-.167 1.33-.466 1.47-1.434.197-1.294.326-2.598.39-3.907.176-4.182.34-8.363.446-12.545.094-4.003.118-8.006.153-12.008.125-1.174-.695-2.235-1.847-2.39-.659-.155-1.33-.239-2.094-.37V0h.27l6.012.108c.394-.016.787-.052 1.177-.108h.14c.142.227.307.454.436.693.824 1.637 1.635 3.286 2.47 4.923 3.138 6.117 6.275 12.23 9.413 18.34.505.98 1.07 1.924 1.647 2.94V12.557c0-2.832-.177-5.652-.306-8.484-.094-1.852-.66-2.39-2.483-2.473-.458 0-.917-.096-1.423-.143V0h.317zM0 39.996c.28-.616.616-1.205 1.003-1.762.644-.78 1.193-.698 1.766.106.289.414.604.81.943 1.183.359.477.915.769 1.515.794.6.025 1.179-.219 1.577-.664.709-.717 1.24-1.587 1.551-2.542.355-1.296.543-2.631.561-3.974.12-4.281.167-8.562.215-12.843.048-4.73.08-9.489.096-14.274 0-1.112-.084-2.224-.132-3.347.02-.547-.404-1.01-.955-1.041-.584-.083-1.193-.201-1.766-.26C5.335 1.265 5.18 1.017 5.538 0h11.268c.394.946.215 1.265-.788 1.372-2.053.213-2.184.343-2.196 2.365-.056 6.402-.107 12.796-.155 19.182.093 3.393-.175 6.786-.8 10.123-.434 2.727-1.72 5.25-3.676 7.214-1.601 1.607-3.752 2.56-6.028 2.673-.09.014-.178.038-.263.071h-.143c-1.24-.108-2.31-.906-2.757-2.058v-.946zM238 28.916l-.183.88c-.656 3.279-3.399 5.749-6.758 6.088-2.948.37-5.94-.15-8.584-1.495-.275-.172-.452-.463-.475-.784.085-2.41.244-4.821.365-7.232 0-.844.159-.94 1.12-.712.061 1.025.11 2.086.208 3.135-.018 1.67.666 3.271 1.887 4.424 1.652 1.316 3.912 1.6 5.845.735 1.875-.723 2.52-2.35 2.618-4.243.164-2.268-.85-4.463-2.691-5.823-2.131-1.711-4.226-3.471-6.235-5.304-2.212-1.876-3.228-4.79-2.654-7.618.406-2.978 2.785-5.313 5.796-5.69 2.395-.515 4.897.06 6.819 1.567L235.784 5l.877.096-.56 9.451h-.975c-.134-1.12-.219-2.182-.39-3.23-.176-1.179-.659-2.292-1.4-3.231-.875-1.005-2.16-1.568-3.501-1.532-1.34.035-2.594.663-3.415 1.713-.925 1.438-.925 3.275 0 4.713.658 1.057 1.48 2.005 2.435 2.809 1.985 1.772 4.067 3.423 6.089 5.171 1.534 1.33 2.558 3.144 2.898 5.135 0 .181.085.362.121.543l.037 2.278z" transform="translate(180 147)"/>
                <path fill-rule="nonzero" d="M94.743 6.232h8.123c.26.807.189.914-.627 1.068-1.88.344-2.105.534-2.176 2.374-.165 3.952-.33 7.905-.39 11.87-.07 4.296 0 8.593 0 12.901 0 1.068 0 1.068-1.064 1.341l-.934.214L84.8 11.098h-.142v12.938c0 2.647.142 5.293.248 7.952.06 1.567.45 1.982 1.987 2.255l.745.107c.638.071.815.404.555 1.057h-.768c-2.59 0-5.179.07-7.78.13-1.558.239-3.134-.302-4.22-1.448-.76-1.009-1.198-2.226-1.254-3.49-.165-1.661-.236-3.335-.532-4.973-.315-2.712-2.702-4.694-5.415-4.498H66.25c-.047.279-.079.56-.095.842v10.362c0 1.472.272 1.745 1.715 1.923l1.347.202v.89h-10.12v-.926c.638-.095 1.253-.166 1.844-.284.946-.19 1.183-.475 1.183-1.437.055-6.678.098-13.353.13-20.023v-3.43c0-1.733-.627-2.267-2.365-2.066-.177 0-.355.06-.532.095-1.017.202-1.253.475-1.277 1.531 0 2.885 0 5.769-.13 8.641-.153 3.715-.366 7.442-.686 11.146-.15 1.822-.909 3.54-2.151 4.878-1.314 1.363-3.092 2.177-4.978 2.279-2.199.334-4.447 0-6.455-.962-2.124-1.165-3.474-3.374-3.547-5.804-.26-2.765-.272-5.566-.307-8.308V9.009c0-1.294-.119-1.424-1.384-1.626L37 7.146v-.89h9.612c.272.76.177.937-.52 1.056-.331 0-.674.083-1.017.142-.958.178-1.182.368-1.182 1.353-.063 5.54-.11 11.078-.142 16.617-.073 1.737.197 3.472.792 5.104.693 2.033 2.59 3.403 4.73 3.419 1.53.222 3.086-.184 4.315-1.128 1.037-.928 1.725-2.185 1.95-3.56.316-1.38.498-2.788.544-4.202 0-5.318 0-10.683-.106-15.977 0-1.186-.414-1.53-1.549-1.697l-1.289-.154c-.72-.095-.78-.178-.555-1.01h1.868l12.828-.13c2.225-.196 4.467-.068 6.656.38 2.735.636 4.648 3.117 4.575 5.935.13 4.154-2.364 6.564-5.757 7.537l-.84.237.343.155c3.452.973 5.107 3.453 5.663 6.836.272 1.65.402 3.312.71 4.95.157.704.446 1.373.85 1.97.243.243.584.357.923.309 1.974-.38 2.365-.784 2.365-2.837.157-5.895.307-11.79.449-17.685 0-1.365.07-2.742.07-4.107 0-1.365-.46-2.054-1.938-2.374l-1.265-.237v-.89c.319 0 .58-.072.84-.084h5.19c.543 0 .65.345.815.677 1.443 2.825 2.838 5.685 4.316 8.486 2.175 4.143 4.41 8.309 6.62 12.392l.308.522c.044-.175.076-.354.094-.534V13.876c0-1.508-.141-3.015-.248-4.51-.106-1.496-.615-1.876-1.986-2.007l-.745-.106c-.71-.107-.78-.226-.544-1.021zm-28.517 13.4c1.395.117 2.8.041 4.174-.225 1.62-.243 2.964-1.389 3.464-2.956.36-1.27.536-2.585.52-3.905.091-1.963-1.032-3.78-2.826-4.57-1.52-.552-3.174-.61-4.729-.166-.189 0-.39.309-.46.51-.095.304-.14.62-.13.938v9.603c-.084.249-.048.475-.013.771zM114.175 34.976c-.204-.628-.072-.912.626-.984 1.914-.213 1.998-.355 1.565-2.18-.59-2.442-1.204-4.884-1.757-7.326-.12-.51-.35-.758-.879-.758h-6.257c-.437-.028-.816.293-.855.723-.565 2.37-1.203 4.836-1.733 7.266-.373 1.66-.132 1.967 1.553 2.252l1.07.154V35h-7.34c-.3-.711-.229-.889.47-.972.932-.105 1.69-.789 1.877-1.695.77-2.37 1.576-4.741 2.286-7.183 1.773-6.077 3.51-12.161 5.21-18.254.23-.817.482-1.268 1.385-1.35.707-.128 1.403-.31 2.081-.546.097.308.181.58.253.853l6.787 25.496c.125.462.274.917.446 1.363.26.62.787 1.09 1.438 1.283.651.193 1.356.088 1.919-.287.245-.23.392-.544.41-.877.12-2.193.252-4.374.276-6.567V10.298c0-.77-.084-1.552-.108-2.37.017-.267-.082-.529-.273-.719-.19-.19-.455-.291-.726-.277l-1.312-.118c-.758-.072-.842-.202-.566-.996h10.049v.924c-.71.095-1.348.154-1.974.261-.926.154-1.131.38-1.203 1.316 0 2.287-.133 4.563-.133 6.85v15.28c0 .687.085 1.363.097 2.05-.028.408.283.763.698.794 1.951.294 3.94.237 5.872-.166.724-.148 1.322-.648 1.589-1.327.553-1.399 1.035-2.821 1.528-4.244.156-.45.229-.924.349-1.422H140l-.866 8.83-24.959.012zm-.168-13.038l-3.08-12.375h-.205l-3.43 12.446c2.233.136 4.472.124 6.703-.035l.012-.036z" transform="translate(180 147)"/>
                <path d="M203.008 29.845c1.133-4.583 2.23-8.96 3.303-13.3.07-.29.07-.594 0-.884-.603-2.249-1.206-4.486-1.845-6.735-.301-1.088-.831-1.898-2.133-1.934-.615 0-.435-.508-.386-.956h9.114v.907c-.555.109-1.073.206-1.591.315-.808.18-1.013.483-.82 1.293 1.197 5.006 2.403 10.008 3.617 15.006.506 2.08 1.024 4.148 1.663 6.24.241-.992.495-1.995.736-2.987 1.205-4.837 2.338-9.77 3.484-14.667.265-1.137.434-2.286.615-3.434.18-1.15 0-1.27-1.037-1.451-.434-.088-.873-.153-1.314-.194-.7 0-.796-.399-.579-1.028h8.017c.265.774.217.943-.506 1.004-1.423.032-2.605 1.11-2.773 2.527-1.845 7.364-3.761 14.704-5.654 22.044-.298 1.152-.563 2.31-.796 3.47-.026.406-.365.72-.771.713-.603 0-1.206.121-1.845.182l-4.063-16.409h-.157c-.065.137-.121.279-.168.423-1.302 5.022-2.6 10.049-3.894 15.079-.12.46-.302.677-.772.713-.47.037-1.206.133-1.869.218l-.385-1.487-6.426-24.885v-.073c-.386-1.415-.832-2.769-2.773-2.563V6h9.126v.919c-.603.109-1.205.193-1.748.314-.542.121-.868.351-.687 1.137.446 1.995.892 4.002 1.386 6.046 1.206 4.994 2.496 9.976 3.738 14.97.057.156.121.31.193.46z" transform="translate(180 147)"/>
                <path fill-rule="nonzero" d="M16.019 20.665c-.122-3.04.35-6.074 1.392-8.935.747-2.13 2.149-3.973 4.007-5.267C23.578 5.1 26.2 4.666 28.687 5.26c2.487.594 4.626 2.166 5.929 4.356 1.26 2.196 2.01 4.645 2.195 7.167.378 3.388.188 6.815-.564 10.14-.45 2.268-1.478 4.382-2.987 6.14-2.207 2.508-5.67 3.522-8.89 2.603-3.66-.836-5.76-3.368-7.031-6.712-.983-2.65-1.431-5.467-1.32-8.29zm16.797-.932c-.144-1.553-.288-3.918-.6-6.259-.181-1.889-.842-3.701-1.92-5.267-.79-1.186-2.106-1.919-3.534-1.969-1.428-.05-2.793.59-3.664 1.718-.96 1.22-1.602 2.655-1.872 4.18-1.058 5.286-1.123 10.72-.192 16.03.217 1.601.822 3.126 1.764 4.443 1.571 2.126 5.927 2.914 7.858-.466.48-.862.858-1.776 1.128-2.723.9-2.879.9-5.889 1.056-9.675l-.024-.012z" transform="translate(180 147)"/>
                <path d="M173.036 34.941v-.905l1.986-.294c1.029-.165 1.283-.412 1.332-1.482.072-1.646.145-3.305.157-4.951V9.093c0-1.517-.363-1.858-1.925-1.976-.509 0-1.017-.117-1.586-.176V6h17.906v7.185h-.993l-.218-.882c-.242-.988-.484-1.987-.739-2.963-.247-1.008-1.212-1.692-2.276-1.611h-5.387c-.424 0-.666.176-.666.6l-.145 10.395c.019.113.051.224.097.33 1.45.157 2.918.062 4.334-.283.717-.261 1.229-.885 1.332-1.623.145-.611.242-1.234.375-1.916h.92v9.843c-.823.34-1.03.235-1.138-.541-.094-.716-.228-1.427-.4-2.129-.188-.801-.868-1.405-1.707-1.517-1.24-.257-2.524-.257-3.765 0-.032.207-.052.415-.06.623.04 3.552.089 7.107.145 10.667 0 .811.266 1.176 1.03 1.176 1.997 0 4.006 0 6.052-.106 1.067-.058 2.007-.702 2.422-1.658.63-1.412 1.15-2.858 1.67-4.305.267-.717.351-.8 1.211-.517L191.97 35l-18.934-.059zM140 21L140.424 18 146 18 145.587 21z" transform="translate(180 147)"/>
            </g>
        </g>
    </g>
</svg>
