<svg width="51" height="28" viewBox="0 0 51 28" fill="none" xmlns="http://www.w3.org/2000/svg">
    <path d="m20.198 18.482.504.613-3.273 3.153c-1.622-.964-3.553-2.54-4.476-3.65v-5.255H8.28l-1.735 4.524c.784.235 1.51.701 2.35 1.431l.951-.818.504.613-3.273 3.152c-1.035-1.139-2.154-1.693-3.413-1.693s-2.434.76-3.189 2.16L0 22.537c.755-3.007 2.713-4.876 5.092-4.876.196 0 .391 0 .56.029l5.37-13.751c-1.202-.176-2.49-.322-3.748-.322-2.63 0-3.888.73-3.888 2.278 0 1.255.811 1.956 2.014 1.956.615 0 1.343-.205 1.818-.497l.224.525a3.917 3.917 0 0 1-2.238.701c-1.706 0-2.825-1.022-2.825-2.802C2.379 2.799 5.092.61 8.785.61c3.021 0 5.652.613 7.805.613.476 0 1.007-.087 1.706-.234l.252.321c-.28 1.372-.335 2.336-.335 5.664V18.8l.867.671 1.12-.992-.002.004zM8.616 12.44h4.336V4.264c-.364-.058-.728-.117-1.12-.204L8.617 12.44zm5.176 5.692 1.063-1.022V4.526c-.308-.029-.672-.087-1.063-.146v13.751z" fill="#000"/>
    <path d="M30.8 1.315c-.279 1.372-.335 2.336-.335 5.664v15.678L25.43 27.3c-1.399-.964-3.217-1.576-4.812-1.576-1.79 0-3.189.788-4.028 2.277l-.476-.175c.811-3.183 3.133-5.14 6.014-5.14 1.007 0 2.014.147 3.021.468V4.293c-.784-.029-1.231-.146-2.517-.146-1.286 0-1.79.234-2.406 1.023l-.42-.176C20.756 2.163 22.07.878 23.89.878c.503 0 3.049.35 4.95.35.533 0 1.092-.088 1.707-.234l.251.32h.003zm-4.81 22.13c.39.176.754.35 1.118.584V8.294c0-1.81.224-3.124.7-4.234-.504.176-1.092.263-1.819.263v19.122zM50.998 17.226c-1.427 3.094-4.728 5.197-8.168 5.197-5.791 0-9.82-4.116-9.82-9.984 0-4.905 2.295-8.7 6.687-11.007l.307.497c-2.546 2.685-3.665 5.314-3.665 8.612 0 1.986.42 3.708 1.203 5.109.616-.847.84-1.78.84-3.563V5.84l5.231-4.818c1.007.788 2.126 1.197 3.329 1.197 1.454 0 2.657-.788 3.357-2.219l.476.176c-.895 3.21-2.881 5.108-5.398 5.108a7.197 7.197 0 0 1-1.958-.262v14.335c.308.028.643.058.98.058 2.462 0 4.335-.76 6.21-2.511l.392.321-.003.001zm-8.42 2.015V4.7a5.57 5.57 0 0 1-1.007-.555v5.08c0 2.627-1.036 4.555-3.693 6.978 1.092 1.576 2.686 2.657 4.7 3.035v.002z" fill="#000"/>
</svg>
