<svg id="Layer_1" data-name="Layer 1" xmlns="http://www.w3.org/2000/svg" viewBox="0 0 265.58 147.81"><defs><style>.cls-1{fill:#fff;}</style></defs><title>Header Logo</title><path class="cls-1" d="M2.71,107.47,7,106.35c4.8-1.28,6.56-2.56,11.2-14.08L51.19,3H67.51l34.24,89.92c4.16,11,6.4,12.48,10.88,13.76l3.84.8v6.4H64.15v-6.4l4.48-1.12c4.32-1.12,5.92-2.4,5.92-5.44,0-2.72-1.12-5.76-2.88-10.4L68,80.43H33.27L29.75,90.51c-1.44,4.48-2.56,7-2.56,9.76,0,3.84,2.08,4.8,7,6.08l4.64,1.12v6.4H2.71Zm33.6-35.84H65L50.87,32.11h-.8Z"/><path class="cls-1" d="M91.19,128.75c0-6.88,4.16-11,11.68-11,8.48,0,11.84,3.84,13.92,15.52.64,3.36,1.44,4.32,3.52,4.32,5,0,6.88-2.56,6.88-12.16V22c0-9.76-1.44-10.24-6.4-11.52l-6.08-1.28V3h53.44V9.23l-5.76,1.28c-5.12,1.28-6.56,1.76-6.56,11.52v83.52c0,23.2-14.24,39.52-40,39.52C99.19,145.07,91.19,137.71,91.19,128.75Z"/><path class="cls-1" d="M169.11,59.31c0-41.44,28-58.24,59.84-58.24a125.34,125.34,0,0,1,31,3.68l1.76,33.12H255c-5-10.08-8.48-17.28-12.8-22.56-4.64-5.44-7-6.08-15.36-6.08-19.84,0-27.52,11.84-27.52,46.88,0,41.44,8.8,51.52,27.36,51.52,10.24,0,13.92-3,18.56-9.44a95.15,95.15,0,0,0,11-20.8h6.56l-1.76,31.84a93.59,93.59,0,0,1-34.4,6.56C192.79,115.79,169.11,97.39,169.11,59.31Z"/></svg>