<svg width="468" height="35" viewBox="0 0 468 35" fill="none" xmlns="http://www.w3.org/2000/svg">
    <path d="M16.644 24.23c2.81-.146 5.035-1.094 7.262-3.103l.511.402c-2.262 4.05-5.913 6.496-10.658 6.496-6.642 0-11.496-4.527-11.496-10.73 0-4.452 1.788-7.957 5.18-10.257l.403.474C7.042 9.116 6.53 10.54 6.313 11.93l7.409-3.723h.439v10.512l-5.474 2.738c1.642 1.751 4.016 2.773 6.972 2.81V6.64c-.84-.147-1.825-.293-2.885-.511l-1.75-.365c-1.935-.402-3.175-.586-4.674-.586-2.445 0-4.05.549-5.767 3.175l-.582-.252c1.716-4.71 4.271-6.86 8.103-6.86 1.24 0 2.81.183 4.963.62l1.751.364c1.24.255 3.029.473 4.49.473 2.555 0 3.904-.473 5.18-2.115l.587.255c-1.315 3.833-3.43 5.985-7.116 5.985-.365 0-.841-.037-1.315-.071v17.481-.003zM6.17 13.101c-.038.293-.038.586-.038.876 0 2.7.658 4.963 1.897 6.68l1.86-.913v-8.506l-3.723 1.86.004.003zM36.277 7.406c2.228 1.788 2.92 3.028 2.92 5.293v9.343c0 4.599-2.262 7.883-7.593 11.023l-.51-.657c3.174-2.991 4.087-5.437 4.087-10.805v-8.322c0-1.021-.365-1.788-1.278-2.592l-3.103 2.3v10.62l1.642 1.424-3.175 2.773c-1.24-.695-2.592-1.75-3.685-2.885l1.202-1.315V7.004c0-1.424-.255-2.374-.766-2.81V3.72L30.36.729h.44v10.805l5.473-4.125.003-.003zM49.93 24.815l2.956-2.63.695.73-5.365 4.89c-1.897-.912-3.904-1.971-5.437-3.102V13.207c0-.842-.037-1.462-.146-2.409 1.972-.913 4.306-2.081 6.533-3.467a93.316 93.316 0 0 0 5.437 6.094l-7.81 5.364v4.125l3.137 1.898v.003zm.729-10.147-3.87-4.125v6.788l3.87-2.663zM85.877 23.099l.657.766-4.271 3.941c-2.115-1.203-4.636-3.175-5.839-4.561v-6.57H70.33l-2.261 5.657c1.022.293 1.972.875 3.065 1.788l1.24-1.021.658.766-4.272 3.941c-1.349-1.424-2.81-2.115-4.452-2.115s-3.175.947-4.16 2.7l-.62-.217c.985-3.76 3.54-6.094 6.643-6.094.256 0 .511 0 .73.037l7.006-17.191c-1.57-.219-3.25-.402-4.891-.402-3.43 0-5.072.912-5.072 2.847 0 1.57 1.059 2.446 2.63 2.446.803 0 1.75-.256 2.373-.62l.293.657a5.246 5.246 0 0 1-2.92.876c-2.227 0-3.685-1.278-3.685-3.505 0-3.723 3.54-6.462 8.36-6.462 3.94 0 7.37.767 10.18.767.62 0 1.316-.11 2.228-.293l.328.402c-.365 1.716-.44 2.919-.44 7.081V23.5l1.131.842 1.461-1.24-.006-.003zm-15.11-7.556h5.657V5.324a24.573 24.573 0 0 1-1.46-.255l-4.197 10.474zm6.751 7.116 1.386-1.277V5.655c-.401-.038-.875-.11-1.386-.184v17.191-.003zM96.682 23.466l.62.73-3.87 3.613c-1.825-1.021-3.722-2.408-4.816-3.467V10.216h-2.957v-.473l6.534-5.073h.439v4.38h4.016l-.365 1.17h-3.648v12.262l2.739 2.081 1.314-1.093-.006-.003zM102.521 27.806c-.947-.657-2.483-1.972-3.614-3.212V7.004c0-1.642-.364-2.446-.766-2.81V3.72l4.343-2.991h.439v22.335l1.57 1.496 1.315-1.094.62.73-3.904 3.613-.003-.003zM121.974 23.466l.62.73-3.904 3.613c-.913-.62-2.262-1.75-2.848-2.408l-2.772 2.408c-4.051-.984-5.584-2.81-5.584-5.804 0-1.168.109-2.227.293-3.174l7.811-3.98v-1.57c0-1.059-.439-1.86-1.605-2.847-1.495 1.751-3.212 2.483-5.293 2.739l1.022-4.05c2.555.875 4.452 0 6.935-1.717l.95.729c1.462 1.13 2.007 2.483 2.007 4.561v10.948l1.059.913 1.315-1.094-.006.003zm-6.387 1.131v-8.43l-3.904 2.006a62.723 62.723 0 0 0-.072 2.739c0 1.825 1.278 3.358 3.979 3.685h-.003zM140.037 23.466l.62.73-3.904 3.613c-.841-.548-2.115-1.641-3.103-2.663V13.285c0-1.022-.365-1.789-1.277-2.592l-3.103 2.299v10.62l1.641 1.425-3.174 2.772c-1.24-.694-2.592-1.75-3.686-2.885l1.203-1.314V12.917c0-.875-.328-1.642-.842-2.044l-1.059.876-.62-.73 3.904-3.613c1.533 1.13 2.374 2.408 2.555 4.159l5.548-4.16c2.228 1.79 2.92 3.03 2.92 5.294v10.948l1.059.913 1.315-1.094h.003zM151.207 23.466l.62.73-3.869 3.613c-1.826-1.021-3.723-2.408-4.817-3.467V10.216h-2.957v-.473l6.534-5.073h.439v4.38h4.016l-.365 1.17h-3.648v12.262l2.739 2.081 1.314-1.093-.006-.003zM167.374 23.466l.62.73-3.904 3.613c-.913-.62-2.262-1.75-2.848-2.408l-2.772 2.408c-4.051-.984-5.584-2.81-5.584-5.804 0-1.168.11-2.227.293-3.174l7.811-3.98v-1.57c0-1.059-.439-1.86-1.605-2.847-1.495 1.751-3.212 2.483-5.293 2.739l1.022-4.05c2.555.875 4.452 0 6.935-1.717l.951.729c1.461 1.13 2.006 2.483 2.006 4.561v10.948l1.059.913 1.315-1.094-.006.003zm-6.387 1.131v-8.43l-3.904 2.006a62.723 62.723 0 0 0-.072 2.739c0 1.825 1.278 3.358 3.979 3.685h-.003zM186.537 1.64c-.364 1.716-.439 2.918-.439 7.08v19.6l-6.571 5.805c-1.825-1.203-4.196-1.972-6.278-1.972-2.336 0-4.159.984-5.255 2.847l-.62-.218c1.059-3.978 4.087-6.424 7.848-6.424 1.314 0 2.629.184 3.941.586V5.362c-1.022-.037-1.605-.184-3.284-.184-1.679 0-2.337.293-3.137 1.278l-.549-.218c1.24-3.54 2.957-5.147 5.328-5.147.657 0 3.978.44 6.462.44.694 0 1.423-.11 2.227-.294l.327.402zm-6.278 27.665c.511.218.985.44 1.462.73V10.362c0-2.262.292-3.904.912-5.294-.657.218-1.423.327-2.374.327v23.909zM190.369 24.707V13.21c0-.84-.037-1.46-.146-2.408 2.043-1.022 4.271-2.3 5.913-3.393 2.044.913 4.673 2.153 6.605 3.103V22.01c0 .84.037 1.46.146 2.408-2.043 1.022-4.271 2.3-5.913 3.393a217.878 217.878 0 0 1-6.605-3.103zm8.359-12.082a34.298 34.298 0 0 0-4.343-2.116v12.082c1.24.73 2.885 1.533 4.343 2.116V12.625zM213.178 27.962c-2.081-.841-4.197-1.935-5.876-2.92v-11.97c0-.874-.327-1.641-.841-2.043l-1.059.876-.621-.73 3.904-3.613c1.826 1.314 2.63 2.885 2.63 5.146v10.039c.766.51 2.408 1.277 4.38 2.006v-11.68c0-.876-.327-1.642-.841-2.044l-.875.73-.62-.73 3.723-3.467c1.825 1.314 2.629 2.885 2.629 5.146v11.057l1.059.95 1.315-1.093.62.73-3.904 3.613c-.912-.62-2.261-1.75-2.847-2.408l-2.773 2.408-.003-.003zM230.294 11.02l-1.168 1.093v10.948l1.788 1.495 1.315-1.093.62.729-3.904 3.614c-1.022-.657-2.629-1.972-3.832-3.212v-11.68c0-.876-.327-1.642-.841-2.044l-1.059.875-.62-.729 3.903-3.614c1.278.95 2.081 2.007 2.409 3.321l3.392-3.283c.985.729 1.751 1.168 2.374 1.168.549 0 .951-.109 1.35-.402l.364.327c-.657 2.007-2.153 3.43-3.795 3.43-.729 0-1.57-.401-2.299-.95l.003.007zM253.508 23.463l.62.729-3.903 3.614c-.842-.548-2.116-1.642-3.104-2.664v-11.86c0-1.023-.364-1.789-1.277-2.593l-3.103 2.3v10.62l1.642 1.424-3.175 2.773c-1.24-.695-2.592-1.75-3.686-2.885l1.203-1.315V12.914c0-.876-.327-1.642-.841-2.044l-1.059.875-.62-.729 3.903-3.614c1.533 1.131 2.374 2.409 2.555 4.16l5.549-4.16c2.227 1.789 2.919 3.029 2.919 5.294v10.948l1.059.913 1.315-1.094h.003zM270.114 23.463l.62.729-3.903 3.614c-.913-.62-2.262-1.75-2.848-2.408l-2.773 2.408c-4.05-.985-5.583-2.81-5.583-5.804 0-1.169.109-2.228.293-3.175l7.811-3.979v-1.57c0-1.059-.44-1.86-1.605-2.847-1.495 1.75-3.212 2.483-5.293 2.738l1.022-4.05c2.555.875 4.452 0 6.935-1.717l.95.73c1.461 1.13 2.007 2.482 2.007 4.56V23.64l1.059.913 1.315-1.093-.007.003zm-6.386 1.13v-8.43l-3.904 2.007a61.188 61.188 0 0 0-.072 2.738c0 1.826 1.278 3.359 3.979 3.686h-.003zM276.028 27.81c-.947-.658-2.483-1.973-3.614-3.213V7.004c0-1.642-.365-2.446-.767-2.81V3.72L275.99.729h.44v22.335L278 24.56l1.315-1.094.62.73-3.904 3.613h-.003zM279.785 16.712l.586-2.664h7.116l-.586 2.664h-7.116zM313.985 21.532c-1.86 3.869-6.169 6.495-10.659 6.495-7.555 0-12.811-5.146-12.811-12.48 0-6.132 2.991-10.877 8.724-13.759l.402.62c-3.321 3.359-4.78 6.643-4.78 10.768 0 2.483.549 4.636 1.571 6.386.803-1.059 1.093-2.227 1.093-4.452V7.3l6.826-6.023c1.315.985 2.773 1.496 4.343 1.496 1.898 0 3.468-.985 4.381-2.773l.62.218c-1.168 4.016-3.761 6.387-7.044 6.387a9.85 9.85 0 0 1-2.555-.327v17.92c.402.038.841.072 1.277.072 3.212 0 5.658-.95 8.104-3.137l.511.402-.003-.003zm-10.986 2.517V5.873c-.473-.184-.913-.44-1.315-.695v6.35c0 3.283-1.349 5.692-4.816 8.723 1.424 1.972 3.505 3.321 6.131 3.795v.003zM315.736 24.707V13.21c0-.84-.037-1.46-.147-2.408 2.044-1.022 4.272-2.3 5.914-3.393 2.044.913 4.673 2.153 6.605 3.103V22.01c0 .84.037 1.46.146 2.408-2.044 1.022-4.271 2.3-5.913 3.393a217.878 217.878 0 0 1-6.605-3.103zm8.359-12.082a34.298 34.298 0 0 0-4.343-2.116v12.082c1.24.73 2.885 1.533 4.343 2.116V12.625zM347.708 23.463l.62.729-3.904 3.614c-.841-.548-2.116-1.642-3.103-2.664v-11.86c0-1.023-.365-1.789-1.278-2.593l-3.103 2.3v10.62l1.642 1.424-3.175 2.773c-1.24-.695-2.592-1.75-3.685-2.885l1.202-1.315V12.914c0-.876-.327-1.642-.841-2.044l-1.059.875-.62-.729 3.904-3.614c1.532 1.131 2.374 2.409 2.554 4.16l5.549-4.16c2.228 1.789 2.919 3.029 2.919 5.294v10.948l1.06.913 1.314-1.094h.004zM358.107 14.596c2.044.985 3.284 2.991 3.284 5.365v3.723l-4.381 3.87c-1.641-.913-2.919-1.278-4.452-1.278-1.349 0-2.445.474-3.283 1.462l-.474-.328c.95-2.81 2.991-4.56 5.328-4.56.984 0 2.227.292 3.249.728v-2.7c0-1.387-.402-2.337-1.461-3.25l-3.321 2.517c-2.228-1.094-3.321-2.773-3.321-5.147v-3.76l4.38-3.87c2.228 1.131 3.359 1.496 4.452 1.496.913 0 1.935-.511 2.773-1.387l.439.327c-1.461 2.81-2.847 4.05-4.673 4.05-1.059 0-2.299-.327-3.359-.84v3.065c0 1.461.365 2.337 1.349 3.137l3.468-2.63.003.01zM373.728 23.463l.62.73-3.869 3.613c-1.826-1.022-3.723-2.408-4.817-3.468V10.213h-2.957v-.474l6.534-5.072h.439v4.38h4.016l-.365 1.169h-3.648v12.263l2.739 2.08 1.314-1.093-.006-.003zM378.072 7.079l-2.81-2.885 2.919-2.991 2.848 2.885-2.957 2.99zm1.131 20.73c-.841-.548-2.115-1.642-3.103-2.663V11.24l5.147-3.979.62.73-1.751 1.46V23.65l1.059.913 1.315-1.094.62.73-3.904 3.613-.003-.003zM394.057 23.463l.62.73-3.869 3.613c-1.826-1.022-3.723-2.408-4.817-3.468V10.213h-2.956v-.474l6.533-5.072h.439v4.38h4.016l-.364 1.169h-3.649v12.263l2.739 2.08 1.315-1.093-.007-.003zM402.961 27.81c-2.082-.841-4.197-1.935-5.876-2.92V12.92c0-.875-.327-1.641-.842-2.043l-1.059.875-.62-.729 3.904-3.614c1.826 1.315 2.63 2.885 2.63 5.147v10.038c.766.511 2.408 1.278 4.38 2.007V12.92c0-.876-.327-1.642-.841-2.044l-.876.729-.62-.73 3.723-3.467c1.826 1.315 2.63 2.885 2.63 5.147v11.057l1.059.95 1.315-1.093.62.729-3.904 3.614c-.913-.62-2.262-1.751-2.847-2.408l-2.773 2.408-.003-.003zM423.036 23.463l.62.73-3.87 3.613c-1.825-1.022-3.723-2.408-4.816-3.468V10.213h-2.957v-.474l6.533-5.072h.44v4.38h4.015l-.364 1.169h-3.648v12.263l2.738 2.08 1.315-1.093-.006-.003zM427.378 7.079l-2.81-2.885 2.919-2.991 2.848 2.885-2.957 2.99zm1.131 20.73c-.841-.548-2.115-1.642-3.103-2.663V11.24l5.147-3.979.62.73-1.751 1.46V23.65l1.059.913 1.315-1.094.62.73-3.904 3.613-.003-.003zM434.606 24.707V13.21c0-.84-.037-1.46-.146-2.408 2.043-1.022 4.271-2.3 5.913-3.393 2.044.913 4.673 2.153 6.605 3.103V22.01c0 .84.037 1.46.146 2.408-2.044 1.022-4.271 2.3-5.913 3.393a217.878 217.878 0 0 1-6.605-3.103zm8.359-12.082a34.298 34.298 0 0 0-4.343-2.116v12.082c1.24.73 2.885 1.533 4.343 2.116V12.625zM466.575 23.463l.62.729-3.904 3.614c-.841-.548-2.115-1.642-3.103-2.664v-11.86c0-1.023-.364-1.789-1.277-2.593l-3.103 2.3v10.62l1.642 1.424-3.175 2.773c-1.24-.695-2.592-1.75-3.686-2.885l1.203-1.315V12.914c0-.876-.327-1.642-.841-2.044l-1.06.875-.62-.729 3.904-3.614c1.533 1.131 2.374 2.409 2.555 4.16l5.549-4.16c2.227 1.789 2.919 3.029 2.919 5.294v10.948l1.059.913 1.315-1.094h.003z" fill="#fff"/>
</svg>
