<svg width="535" height="39" viewBox="0 0 535 39" fill="none" xmlns="http://www.w3.org/2000/svg">
    <g clip-path="url(#xh295qubya)" fill="#000">
        <path d="M28.095.731c.398.831.36 1.201-.698 2.821-.576.886-1.233 1.796-2.065 2.433-.83.634-1.887 1.077-2.914 1.356-1.033.28-2.156.252-3.468.38-.022 6.28-.003 12.61-.01 19.063 3.403.07 5.982-1.453 8.338-3.252.701.497.304.846.104 1.152-2.86 4.369-6.942 6.568-12.31 6.416-1.886-.054-3.736-.376-5.457-1.164-4.019-1.842-6.526-4.842-7.017-9.171-.56-4.939.892-9.192 5.007-12.39.232-.178.507-.309.739-.448.673.406.303.822.15 1.225l-1.38 3.64c.103.089.203.18.307.268l8.575-4.141v11.898l-6.06 3.015c2.129 2.205 4.705 2.918 7.518 3.091.392-1.037.501-17.555.125-19.557-3.502-.507-6.935-1.587-10.568-1.593-2.413-.003-4.372.755-5.83 2.654-.248.325-.41.892-1.184.595.056-.249.078-.528.178-.777.708-1.756 1.647-3.37 3.061-4.702C5.048 1.838 7.274 1.198 9.693 1.43c2.638.252 5.242.798 7.87 1.137a47.15 47.15 0 0 0 4.974.407c2 .048 3.815-.492 5.167-2.057.084-.097.253-.127.388-.191l.003.006zM9.035 22.75c1.442-.388 2.164-1.223 2.166-2.503 0-2.12.006-4.24-.006-6.361 0-.373-.075-.746-.128-1.25-.614.27-1.083.461-1.54.68-2.836 1.35-2.848 1.353-2.457 4.447.229 1.823.801 3.525 1.962 4.987h.004zM76.486 24.548c2.675-6.358 5.285-12.565 7.877-18.723-.116-.155-.16-.283-.225-.298-2.623-.512-5.268-.704-7.912-.255-.698.119-1.402.425-2 .801-.97.613-1.252 1.593-1.045 2.664.197 1.02.785 1.832 1.893 1.966.904.109 1.84-.025 2.76-.085.37-.025.736-.146 1.25.033-.164.21-.276.507-.492.616-1.35.682-2.789.828-4.247.452-1.775-.458-2.801-1.863-2.748-3.762.056-1.975.895-3.616 2.472-4.872 1.8-1.435 3.906-2.16 6.207-2.148 2.444.016 4.894.152 7.33.361 2.49.216 4.966.586 7.473.198.134-.022.288.075.523.145 0 .385.021.77-.004 1.156-.09 1.41-.275 2.818-.281 4.226-.035 5.96 0 11.922-.035 17.88-.006.916.222 1.571 1.302 1.95l1.815-1.207c.2.194.432.422.742.722-1.803 1.614-3.361 3.013-4.992 4.472-1.477-.662-2.7-1.593-3.918-2.521-2.813-2.145-2.804-2.157-2.804-5.649v-4.032H80.4c-.808 1.966-1.634 3.968-2.457 5.977 1.208.707 2.316 1.35 3.455 2.017.413-.276.836-.561 1.32-.886.236.207.455.398.83.722-1.637 1.478-3.21 2.897-4.826 4.353-.513-.388-.91-.7-1.32-.998-2.773-2.005-5.819-1.677-8.037.862-.257.293-.682.505-1.274.634.472-1.99 1.364-3.625 2.82-4.966 1.517-1.399 3.364-1.966 5.583-1.814l-.01.009zm10.856-7.341V5.958c-.55-.073-1.039-.136-1.649-.218-1.518 3.843-3.202 7.535-4.641 11.467h6.29zm1.421 7.605c1.18-.54 1.53-1.271 1.521-2.357-.047-4.936-.019-9.872-.025-14.807 0-.395-.044-.789-.075-1.29-.466-.075-.895-.148-1.42-.233v18.687zM348.259 26.765c1.988.456 3.962.173 5.79-.521 1.756-.665 3.364-1.693 5.23-2.658-.038.364.022.701-.11.94-.82 1.493-1.978 2.713-3.345 3.756-6.047 4.602-15.658 3.486-20.353-2.39-2.1-2.627-2.907-5.676-2.841-8.943.122-6.27 3.014-11.003 8.566-14.213.134-.079.262-.167.406-.224.395-.158.82-.692 1.193-.13.119.181-.169.703-.385.988-.711.935-1.556 1.778-2.197 2.752-2.923 4.423-3.383 9.125-1.546 14.048.166.45.435.862.716 1.414 1.083-1.298 1.218-2.651 1.234-4.007.034-2.728.053-5.458-.01-8.182-.022-.959.307-1.574 1.052-2.184 2.266-1.854 4.463-3.786 6.741-5.737 1.768.977 3.546 1.8 5.618 1.593 2.084-.206 3.439-1.48 4.6-3.067.489.87.219 1.784-.929 3.558-2.203 3.404-5.424 4.335-9.427 3.483v19.724h-.003zm-1.527-.148c.078-.228.169-.367.169-.507.012-6.258.012-12.52.025-18.778 0-.928-.535-1.177-1.509-1.192 0 2.093-.056 4.105.013 6.113.11 3.218-1.064 5.918-3.333 8.212-.676.685-1.371 1.353-2.116 2.087 1.743 2.236 3.95 3.576 6.751 4.062v.003zM205.005 31.823V6.022c-.832-.073-1.687-.194-2.538-.21-.933-.015-1.903-.07-2.795.143-.792.191-1.493.722-2.316 1.147.401-3.407 3.296-6.177 6.103-5.867 1.912.212 3.84.31 5.765.397 1.336.06 2.676.012 4.112.012.029.194.104.431.088.659-.131 2.01-.385 4.022-.401 6.033-.05 7.272-.034 14.54 0 21.812.004.937-.244 1.599-1.004 2.214-1.878 1.52-3.684 3.125-5.524 4.69-.307.261-.639.492-.936.72-1.17-.489-2.231-1.05-3.367-1.369-1.237-.346-2.538-.6-3.822-.655-2.316-.1-4.287.698-5.689 2.579-.151.203-.241.449-.357.676l-.363-.188c-.072-.249-.266-.53-.204-.74 1.227-4.05 4.626-6.462 8.081-6.526 1.653-.03 3.308.167 5.164.274h.003zM206.42 6.1v26.431c.485.2.942.386 1.587.653V31.34c0-6.665-.035-13.33.025-19.991.012-1.499.347-2.997.547-4.493.044-.316.151-.622.266-1.08-.91.121-1.621.218-2.428.325h.003zM28.93 27.666c1.816-1.004 1.647-2.396 1.644-3.764-.019-5.003-.013-10.005-.003-15.007.003-1.569.056-3.14-1.049-4.639C31.31 3.043 33 1.844 34.93.698c.445 1.456.2 2.709.244 3.937.044 1.314.01 2.627.01 3.941v4.092c2.294-1.444 4.156-3.024 6.225-4.398 1.924 1.316 3.327 2.89 3.339 5.23.025 4.14.01 8.281-.078 12.422-.047 2.19-.986 4.117-2.36 5.83-1.49 1.86-3.367 3.298-5.443 4.497-.6.345-.613.327-1.242-.222.066-.118.106-.276.21-.364 3.067-2.694 4.269-6.158 4.334-10.047.06-3.586.02-7.175.02-10.764 0-1.128-.41-2.062-1.447-2.83-1.18.58-2.216 1.414-3.242 2.239-.222.179-.304.628-.304.953-.022 3.385 0 6.77-.025 10.156-.003.613.185 1.059.695 1.423.37.267.682.61 1.149 1.034l-3.693 3.128-4.388-3.295-.003.006zM392.021 8.267c2.26 1.495 3.465 3.37 3.399 6.021-.088 3.586.006 7.175-.041 10.764-.012.976.279 1.647 1.28 2.056.457-.3.917-.607 1.593-1.052l.664.746c-1.549 1.395-2.979 2.685-4.454 4.01-1.414-.637-2.431-1.653-3.392-2.688-.285-.309-.254-.949-.257-1.44-.019-3.841-.009-7.681-.012-11.522 0-1.259-.247-2.409-1.462-3.116-.137.049-.244.067-.328.122-2.12 1.36-3.18 3.292-3.18 5.794 0 2.224.05 4.447-.022 6.67-.038 1.099.175 1.982 1.183 2.591.213.128.36.355.635.638l-3.539 2.99c-1.675-.791-2.936-1.886-4.11-3.015.047-.206.035-.342.097-.394.989-.831 1.193-1.884 1.165-3.116-.072-3.182-.029-6.367-.025-9.55 0-.925-.107-1.81-.927-2.554-.394.219-.782.437-1.211.674-.116-.06-.263-.11-.369-.2-.373-.319-.238-.61.075-.89 1.302-1.158 2.597-2.323 3.924-3.51 1.791.966 2.595 2.5 3.093 4.448l6.218-4.474.003-.003zM463.443 12.265c-.55-.012-1.286 1.131-1.696-.316 1.324-1.192 2.689-2.42 4.103-3.695 2.066 1.311 3.027 3.104 3.042 5.373a661.55 661.55 0 0 1-.006 11.358c-.009.95.185 1.687 1.264 2.096.417-.267.883-.567 1.628-1.05.187.185.422.416.716.701l-4.682 4.177-3.286-2.59c-.716.591-1.471 1.131-2.115 1.774-.695.692-1.371.747-2.222.307-1.424-.734-2.861-1.447-4.335-2.084-.967-.419-1.205-1.06-1.189-2.033.053-3.786.019-7.572.022-11.358 0-.967-.029-1.923-.914-2.703l-1.268.71c-.644-.394-.651-.776-.134-1.228 1.27-1.117 2.528-2.251 3.862-3.44 1.768 1.025 2.676 2.533 2.948 4.413.122.844.1 1.711.103 2.57.013 2.827.063 5.654-.025 8.482-.034 1.092.373 1.69 1.358 2.072 1.14.443 2.26.934 3.546 1.471.06-.652.122-1.04.122-1.429.007-3.686.003-7.371.003-11.057 0-.922-.05-1.826-.845-2.524v.003zM252.818 27.293l1.33-.955c.231.182.453.36.829.658l-4.504 4.092c-1.095-.855-2.172-1.692-3.33-2.596l-3.189 2.608c-2.2-1.052-4.381-2.099-6.631-3.176v-1.738c0-3.737-.004-7.472 0-11.21 0-.924-.123-1.795-.87-2.58-.436.23-.827.436-1.481.785-.125-.155-.303-.373-.588-.728l4.441-4.004c1.652.95 2.597 2.275 2.901 3.992.166.94.203 1.908.213 2.864.025 2.878.069 5.757-.022 8.633-.035 1.104.391 1.672 1.374 2.05 1.139.44 2.253.938 3.543 1.481.047-.682.106-1.12.106-1.556.006-3.534.006-7.068 0-10.602 0-1.01-.025-2.018-.782-2.813-.617-.133-1.384 1.06-1.794-.37 1.315-1.186 2.679-2.417 4.11-3.704 1.699 1.05 2.65 2.476 2.923 4.314.115.795.1 1.61.103 2.418.009 3.334.031 6.665-.013 9.999-.012.958.226 1.674 1.324 2.141l.007-.003zM149.805 27.824a3070.603 3070.603 0 0 0-3.58 3.025c-1.609-.762-2.883-1.845-4.063-2.976.016-.18-.015-.319.038-.367 1.061-.932 1.208-2.109 1.177-3.428-.072-3.028-.013-6.061-.032-9.092-.006-.956.01-1.935-.882-2.748-.417.215-.852.443-1.277.664-.798-.416-.601-.825-.078-1.283 1.236-1.083 2.456-2.181 3.733-3.316 1.797.892 2.548 2.451 3.111 4.423 2.125-1.526 4.141-2.973 6.203-4.456 2.103 1.389 3.408 3.121 3.399 5.636-.013 3.686.025 7.375-.006 11.06-.007.932.103 1.718 1.264 2.106.376-.243.842-.54 1.618-1.04l.626.776-4.613 4.126c-1.089-.92-2.156-1.72-3.077-2.658-.331-.337-.425-1-.428-1.517-.035-3.889-.035-7.778-.01-11.667.01-1.235-.319-2.278-1.468-3.164-1.02.731-2.081 1.441-3.07 2.236-.269.215-.45.68-.454 1.034-.034 3.434-.037 6.868.007 10.302.006.389.313.817.582 1.147.316.389.745.695 1.274 1.171l.006.006zM288.853 27.108c.438-.324.845-.628 1.486-1.1.175.236.348.466.623.84-1.487 1.34-2.914 2.63-4.41 3.98-1.358-.68-2.416-1.645-3.358-2.697-.285-.319-.266-.95-.269-1.435-.019-3.84-.016-7.678-.009-11.519 0-1.259-.263-2.393-1.543-3.206-.967.691-1.96 1.334-2.864 2.08-.307.252-.548.756-.554 1.144a416.475 416.475 0 0 0 0 10.305c.006.395.282.832.545 1.165.309.392.744.689 1.277 1.162a1952.282 1952.282 0 0 0-3.559 3.013c-1.668-.756-2.923-1.86-4.112-2.98.025-.184 0-.327.056-.372 1.145-.895 1.211-2.103 1.186-3.407-.056-3.08-.022-6.162-.015-9.244 0-.928-.097-1.817-.808-2.518-.654-.245-1.267 1.305-2.012-.136 1.392-1.262 2.826-2.557 4.297-3.89 1.799.944 2.594 2.473 3.111 4.424l6.218-4.441c2.132 1.386 3.393 3.158 3.38 5.679-.022 3.688.022 7.374-.009 11.063-.01.956.206 1.684 1.355 2.096l-.012-.006zM530.468 30.955c-1.098-.925-2.14-1.684-3.007-2.6-.36-.38-.463-1.095-.467-1.66-.037-3.837-.012-7.674-.025-11.515-.006-1.641-.272-2.15-1.586-3.185-.93.661-1.919 1.304-2.823 2.048-.307.251-.554.752-.56 1.143-.044 3.434-.047 6.868.006 10.302.006.431.36.892.648 1.271.269.358.666.625 1.158 1.068l-3.546 3.003c-1.672-.758-2.933-1.847-4.113-2.972.025-.192 0-.334.054-.38 1.067-.861 1.217-1.978 1.186-3.258-.075-3.13-.028-6.261-.022-9.392 0-.928-.116-1.81-.773-2.502-.692-.261-1.302 1.31-2.035-.155 1.387-1.262 2.817-2.564 4.229-3.847 1.683.889 2.269 1.672 3.217 4.38l6.159-4.437c2.178 1.395 3.424 3.224 3.408 5.79-.022 3.687.019 7.375-.015 11.061-.01.913.253 1.569 1.258 1.966.41-.267.873-.57 1.411-.925.197.176.413.367.77.68-1.48 1.34-2.904 2.632-4.532 4.11v.006zM361.539 11.964l6.685-3.716c2.41 1.099 4.898 2.23 7.445 3.389v15.462c-1.946 1.116-3.984 2.318-6.068 3.44-.335.182-.933.146-1.305-.015-2.235-.962-4.435-1.99-6.754-3.043V11.964h-.003zm9.229 15.369c.144-.213.195-.252.195-.291.031-4.135.068-8.267.065-12.402 0-.297-.216-.737-.463-.867-1.355-.707-2.754-1.341-4.1-1.981-.156.221-.21.26-.21.3-.037 4.132-.078 8.263-.081 12.395 0 .292.235.72.488.853 1.355.71 2.754 1.344 4.11 1.993h-.004zM232.108 11.637v15.447c-2 1.144-4.037 2.351-6.128 3.458-.363.191-1.02.091-1.442-.09-2.185-.938-4.335-1.945-6.61-2.98V11.998c1.968-1.12 4.015-2.306 6.096-3.434.301-.164.82-.17 1.14-.033 2.278.982 4.528 2.02 6.944 3.109v-.003zm-4.588 15.86c0-4.563.006-8.737-.019-12.908 0-.255-.2-.61-.422-.74-1.358-.817-2.804-1.46-4.435-2.09V25.19c1.515.716 3.036 1.438 4.873 2.309l.003-.003zM497.694 11.961l6.676-3.716 7.47 3.392v15.456c-1.943 1.107-3.99 2.306-6.077 3.428-.338.182-.933.164-1.302.006-2.238-.962-4.441-1.99-6.767-3.046V11.958v.003zm4.898-.175c-.169.257-.266.34-.266.418-.019 4.077-.04 8.158-.025 12.235 0 .294.207.719.454.861a24.504 24.504 0 0 0 4.403 2.027c.035-.65.079-1.092.079-1.535.006-3.525.006-7.05 0-10.575 0-.543.122-1.147-.532-1.463-1.377-.664-2.758-1.32-4.116-1.968h.003zM190.165 27.105l1.537-1.074.632.792-4.416 3.98c-1.336-.549-2.172-1.626-3.405-2.478-.742.606-1.553 1.207-2.288 1.89-.557.518-1.145.697-1.837.406-1.042-.443-2.109-.858-3.086-1.423-1.224-.706-1.997-1.856-2.131-3.206-.147-1.444-.019-2.915.012-4.375.016-.658.542-.922 1.064-1.18 2.091-1.025 4.188-2.038 6.257-3.106.61-.316 1.53-.725 1.614-1.204.163-.94-.04-1.993-.331-2.934-.176-.564-.798-1.001-1.283-1.568-1.728 1.662-3.571 2.794-6.116 2.93.379-1.471.726-2.812 1.052-4.062 1.496-.106 2.923-.006 4.228-.355 1.324-.352 2.522-1.146 3.868-1.79 2.188 1.129 3.33 2.958 3.333 5.455.007 3.786.032 7.575-.009 11.36-.009.929.282 1.55 1.305 1.933v.01zm-10.419-6.868v2.418c.003 2.8 1.359 4.217 4.394 4.508v-9.125c-1.549.776-2.91 1.456-4.394 2.202v-.003zM138.144 27.096c.425-.282.888-.591 1.549-1.034l.701.734c-1.581 1.413-3.014 2.7-4.585 4.107a3468.14 3468.14 0 0 1-3.314-2.557c-.758.616-1.581 1.216-2.313 1.905-.567.534-1.161.637-1.844.37-.867-.34-1.749-.661-2.56-1.098-2.165-1.165-2.841-3.122-2.81-5.37.044-3.118.066-3.118 2.967-4.553 1.715-.846 3.399-1.765 5.161-2.512 1.007-.427 1.204-1.034 1.192-1.996-.019-1.44-.613-2.493-1.843-3.349-1.69 1.532-3.509 2.71-6.05 2.818.379-1.474.726-2.815 1.117-4.332 3.045.835 5.543-.318 7.862-1.953 2.35 1.243 3.496 3.067 3.496 5.57-.003 3.734.025 7.471-.016 11.206-.009.958.216 1.668 1.286 2.047l.004-.003zm-5.966.349v-9.17c-.241.012-.413-.025-.535.033-1.255.607-2.5 1.225-3.862 1.899 0 1.156-.034 2.311.01 3.464.047 1.205.701 2.124 1.74 2.71.745.418 1.599.654 2.647 1.067v-.003zM300.206 11.591c-1.743 1.73-3.586 2.78-6.121 3.004l1.114-4.439c3.101.992 5.558-.318 7.868-1.883 2.429 1.292 3.511 3.188 3.483 5.757-.037 3.686.016 7.375-.025 11.06-.009.908.226 1.575 1.23 2.006l1.521-.94c.216.224.413.437.692.728-1.49 1.335-2.93 2.62-4.51 4.038-1.099-.874-2.131-1.693-3.271-2.597-.722.591-1.521 1.152-2.197 1.826-.644.646-1.323.752-2.112.419-.948-.404-1.915-.79-2.804-1.299-1.224-.704-2.056-1.814-2.197-3.164-.157-1.492-.028-3.015.006-4.523.013-.576.457-.85.948-1.089a372.692 372.692 0 0 0 6.397-3.173c.576-.294 1.474-.65 1.549-1.086.163-.95.01-2-.253-2.946-.16-.573-.77-1.028-1.311-1.699h-.007zm-2.788 8.65c0 .982-.013 1.886 0 2.79.044 2.494 1.671 4.017 4.334 4.065.282-1.75.21-7.717-.153-8.955-1.352.68-2.676 1.34-4.184 2.1h.003zM407.451 19.694l-3.715 2.66c-2.335-1.08-3.668-2.733-3.771-5.202a52.755 52.755 0 0 1 .003-3.938c.012-.367.131-.84.388-1.074 1.48-1.34 3.014-2.624 4.428-3.84 1.587.525 2.986 1.07 4.432 1.45 1.602.419 2.87-.513 4.178-1.456-.038 1.599-1.687 3.792-3.233 4.487-1.853.834-3.652.124-5.687-.361.219 2.363-.654 4.753 1.606 6.664 1.092-.797 2.15-1.516 3.139-2.314.642-.516 1.164-.476 1.806-.021 1.715 1.216 2.604 2.87 2.741 4.884.088 1.307.072 2.627.013 3.934-.019.404-.219.898-.517 1.171-1.245 1.147-2.566 2.215-3.836 3.337-.454.4-.861.37-1.412.167-1.111-.41-2.247-.82-3.411-1.02-1.481-.251-2.901.05-4.1 1.038-.216.18-.492.294-.779.461-.257-1.568 1.333-3.78 3.258-4.762 1.978-1.01 3.946-.516 5.902.03.801-2.64.304-4.9-1.443-6.3l.01.005zM48.895 11.986c2.363-1.214 4.788-2.457 7.298-3.744l6.09 6.623c-.306.26-.585.543-.907.758-2.269 1.523-4.529 3.064-6.835 4.53-.789.5-1.161 1.058-1.074 1.977.107 1.095-.216 2.376.276 3.246.46.813 1.734 1.198 2.654 1.766.172.106.363.188.676.346l3.327-2.776.841.761c-1.912 1.693-3.761 3.313-5.59 4.957-.419.376-.829.373-1.276.13-1.59-.861-3.164-1.75-4.767-2.59-.754-.394-.713-1.032-.713-1.693.006-3.737 0-7.475 0-11.212V11.986zm4.982.194-.285.133v6.817c1.544-1.031 2.914-1.841 4.238-2.891-1.402-1.441-2.679-2.749-3.953-4.06zM119.597 27.111l1.49-.974c.222.27.4.495.641.79-1.455 1.304-2.863 2.563-4.41 3.946-1.492-.977-2.816-2.084-3.921-3.404-.275-.327-.235-.952-.235-1.44-.015-5.75-.022-11.501 0-17.25.007-1.523-.022-3.024-1.026-4.51 1.743-1.235 3.449-2.4 5.53-3.665.047.846.1 1.368.1 1.887.006 7.062.053 14.121-.034 21.183-.019 1.532.378 2.63 1.862 3.44l.003-.003zM310.904 4.453c1.368-1.353 4.31-3.221 5.512-3.491.025.552.072 1.086.072 1.617.006 7.113.056 14.227-.038 21.341-.019 1.535.595 2.445 1.865 3.206l1.462-.995c.225.24.426.45.71.756l-4.444 3.989c-1.496-.983-2.795-2.063-3.868-3.35-.304-.363-.285-1.04-.288-1.573a3952.34 3952.34 0 0 1-.009-17.559c0-1.371-.007-2.736-.971-3.94h-.003zM263.727 12.39c-1.202.597-1.43 1.422-1.412 2.478.057 2.976.123 5.96-.021 8.934-.082 1.68.632 2.636 2.125 3.306.45-.306.91-.616 1.439-.974.229.243.423.453.698.75-1.486 1.338-2.923 2.63-4.391 3.953-1.618-.856-2.895-1.96-4.037-3.189-.322-.349-.388-1.01-.394-1.532-.032-3.734-.016-7.471-.019-11.206 0-.962-.056-1.911-.908-2.703l-1.242.74c-.2-.182-.416-.376-.754-.68l4.419-3.997c1.427.782 2.197 2.008 2.904 3.5l3.771-3.446c1.368.874 2.761 1.657 4.71.75-.363 1.88-1.28 3.009-2.657 3.789-1.499.849-2.907.3-4.234-.474h.003zM168.461 5.379v4.638h4.337c.132.98-.213 1.338-1.083 1.31-1.029-.03-2.059-.006-3.173-.006-.044.613-.1 1.056-.1 1.496-.006 3.637.025 7.278-.025 10.915-.013.916.285 1.52 1.064 2.002.695.43 1.33.95 2.012 1.447.548-.37 1.008-.683 1.678-1.134l.701.734c-1.578 1.428-3.002 2.72-4.501 4.077a21.95 21.95 0 0 1-5.132-3.495c-.335-.303-.395-1.004-.398-1.52-.031-4.195-.015-8.388-.015-12.583v-1.823c-1.13-.067-2.185-.13-3.384-.204.482-1.155 1.565-1.528 2.348-2.184.867-.728 1.802-1.374 2.713-2.047.848-.628 1.706-1.247 2.557-1.87.131.083.266.165.397.247h.004zM449.683 27.215c.572-.42.982-.72 1.477-1.08.244.251.466.482.745.767l-4.388 3.974c-1.912-.998-3.665-2.15-5.195-3.586-.298-.279-.307-.928-.31-1.407-.022-4.244-.013-8.488-.013-12.732v-1.736l-3.395-.178c.757-1.105 6.406-5.412 7.921-6.053V9.99h4.384c.194.98-.128 1.347-.992 1.335-1.029-.016-2.062-.004-3.161-.004-.059.486-.134.822-.137 1.162-.01 3.79.012 7.578-.022 11.367-.007.783.191 1.341.895 1.778.738.461 1.414 1.02 2.191 1.59v-.003zM482.866 27.202c.567-.403.983-.697 1.668-1.186.198.234.41.489.673.801-1.583 1.423-3.026 2.715-4.516 4.053-1.868-1.004-3.565-2.078-5.026-3.446-.338-.319-.454-.986-.457-1.496-.034-4.238-.019-8.476-.019-12.714v-1.808l-3.649-.17c1.336-1.42 2.717-2.272 3.987-3.23 1.29-.977 2.529-2.03 4.219-3.064v5.069h4.385c.119.959-.176 1.347-1.061 1.32-1.027-.034-2.056-.007-3.158-.007-.047.546-.113.935-.113 1.323-.006 3.734.016 7.469-.022 11.2-.006.78.179 1.341.883 1.775.742.455 1.418 1.013 2.2 1.583l.006-.003zM101.336 11.288h-3.621c1.32-1.474 2.726-2.3 3.987-3.267 1.283-.986 2.541-2.02 4.225-3.076v5.048h4.35c.223.964-.065 1.353-.964 1.335-1.032-.025-2.065-.007-3.189-.007-.056.504-.137.886-.141 1.271-.009 3.732.022 7.466-.025 11.197-.012.859.257 1.43.983 1.887.695.437 1.34.95 2.078 1.478l1.599-.998c.216.221.42.428.714.725-1.487 1.34-2.917 2.633-4.407 3.977-1.943-.977-3.658-2.102-5.142-3.51-.334-.319-.428-.995-.435-1.508-.034-4.238-.018-8.473-.018-12.71v-1.842h.006zM423.387 11.315c-.05.513-.103.804-.103 1.099-.006 3.84.01 7.68-.015 11.521-.004.665.165 1.162.741 1.55.805.543 1.584 1.126 2.385 1.696.548-.373 1.008-.686 1.534-1.047.228.243.422.453.704.75l-4.379 3.974c-1.918-.959-3.583-2.075-5.057-3.425-.341-.313-.445-.992-.448-1.505-.034-4.244-.018-8.488-.018-12.735v-1.777l-3.349-.183c.645-1.067 6.244-5.363 7.852-6.03v4.82h4.598l-.376 1.286h-4.062l-.007.006zM493.588 8.867c-.066.112-.081.173-.122.197-1.584.914-1.834 2.294-1.784 3.974.113 3.987.057 7.979.022 11.968-.009.95.175 1.69 1.277 2.081l1.606-1.043c.178.203.394.448.669.758l-4.641 4.147c-1.102-.94-2.144-1.766-3.092-2.685-.282-.273-.394-.813-.398-1.232-.028-4.544-.012-9.091-.021-13.636 0-.524.059-.97.547-1.325 1.581-1.156 3.139-2.34 4.698-3.522.51-.389.923-.434 1.242.318h-.003zM436.494 27.108c.444-.29.904-.594 1.593-1.046.162.197.344.415.644.773l-4.419 3.98c-1.374-.619-2.338-1.614-3.298-2.581-.245-.246-.323-.731-.326-1.105-.022-4.59-.025-9.18.003-13.769 0-.406.141-.959.432-1.19 1.721-1.373 3.508-2.672 5.286-4.007.61.346.967.78.294 1.153-1.615.892-1.543 2.303-1.527 3.795.044 3.935.044 7.87-.006 11.804-.013 1.028.269 1.753 1.324 2.202v-.009zM329.109 15.656c-.225 1.02-.425 1.927-.629 2.843h-8.081c.201-.98.385-1.88.579-2.843h8.131zM436.257 4.505c-1.199 1.02-2.322 1.975-3.606 3.064-.873-.704-1.821-1.802-2.995-2.912l3.568-3.119 3.033 2.967zM492.643 4.544 489.319 7.7l-3.07-3.167c1.117-.934 2.247-1.88 3.436-2.879l2.958 2.891z"/>
    </g>
    <defs>
        <clipPath id="xh295qubya">
            <path fill="#fff" d="M0 0h535v39H0z"/>
        </clipPath>
    </defs>
</svg>
