<?xml version="1.0" standalone="no"?>
<!DOCTYPE svg PUBLIC "-//W3C//DTD SVG 1.1//EN" "http://www.w3.org/Graphics/SVG/1.1/DTD/svg11.dtd" >
<svg xmlns="http://www.w3.org/2000/svg">
<metadata>Generated by IcoMoon</metadata>
<defs>
<font id="icomoon" horiz-adv-x="1024">
<font-face units-per-em="1024" ascent="1024" descent="0" />
<missing-glyph horiz-adv-x="1024" />
<glyph unicode="&#x20;" horiz-adv-x="0" d="" />
<glyph unicode="&#xe900;" glyph-name="down" horiz-adv-x="977" d="M465.455 754.036l-418.909-428.218c-9.309-9.309-9.309-27.927 0-37.236s18.618-9.309 37.236 0l409.6 400.291 409.6-400.291c0-18.618 9.309-27.927 27.927-27.927s27.927 9.309 27.927 27.927c0 9.309 0 9.309-9.309 18.618 0 9.309 0 9.309-9.309 18.618l-437.527 428.218c-9.309 9.309-27.927 9.309-37.236 0v0z" />
<glyph unicode="&#xe901;" glyph-name="left" horiz-adv-x="977" d="M260.655 549.236c-9.309-9.309-9.309-27.927 0-37.236l428.218-446.836c9.309-9.309 9.309-9.309 18.618-9.309 9.309-9.309 9.309-9.309 18.618-9.309 18.618 0 27.927 9.309 27.927 27.927s-9.309 27.927-27.927 27.927l-400.291 418.909 400.291 409.6c9.309 18.618 9.309 27.927 0 37.236s-27.927 9.309-37.236 0l-428.218-418.909z" />
<glyph unicode="&#xe902;" glyph-name="right" horiz-adv-x="977" d="M744.727 549.236l-428.218 418.909c-9.309 9.309-27.927 9.309-37.236 0s-9.309-18.618 0-37.236l400.291-409.6-400.291-418.909c-18.618 0-27.927-9.309-27.927-27.927s9.309-27.927 27.927-27.927c9.309 0 9.309 0 18.618 9.309 9.309 0 9.309 0 18.618 9.309l428.218 446.836c9.309 9.309 9.309 27.927 0 37.236v0z" />
<glyph unicode="&#xe903;" glyph-name="up" horiz-adv-x="977" d="M465.455 754.036l-418.909-428.218c-9.309-9.309-9.309-27.927 0-37.236s18.618-9.309 37.236 0l409.6 400.291 409.6-400.291c0-18.618 9.309-27.927 27.927-27.927s27.927 9.309 27.927 27.927c0 9.309 0 9.309-9.309 18.618 0 9.309 0 9.309-9.309 18.618l-437.527 428.218c-9.309 9.309-27.927 9.309-37.236 0v0z" />
<glyph unicode="&#xe904;" glyph-name="play" d="M512 1024c-282.763 0-512-229.23-512-512 0-282.763 229.237-512 512-512s512 229.237 512 512c0 282.77-229.237 512-512 512zM688.96 484.86l-256-159.99c-4.813-3.049-10.674-4.858-16.957-4.858-5.696 0-11.045 1.487-15.679 4.095l0.161-0.083c-9.898 5.559-16.476 15.991-16.476 27.959 0 0.007 0 0.014 0 0.022v-0.001 319.988c0 0.001 0 0.001 0 0.002 0 17.672 14.326 31.998 31.998 31.998 6.282 0 12.142-1.81 17.085-4.938l-0.131 0.078 256-159.998c9.088-5.754 15.036-15.752 15.044-27.139v-0.001c0-11.025-5.697-21.281-15.044-27.14z" />
<glyph unicode="&#xe905;" glyph-name="caption" d="M963.765 933.647h-903.529c-18.071 0-30.118 12.047-30.118 30.118s12.047 30.118 30.118 30.118h903.529c18.071 0 30.118-12.047 30.118-30.118s-12.047-30.118-30.118-30.118v0 0zM620.424 704.753h-560.188c-18.071 0-30.118 12.047-30.118 30.118s12.047 30.118 30.118 30.118c0 0 0 0 0 0h560.188c18.071 0 30.118-12.047 30.118-30.118s-12.047-30.118-30.118-30.118zM963.765 481.882h-903.529c-12.047 0-24.094 12.047-24.094 24.094 0 18.071 12.047 30.118 30.118 30.118h903.529c18.071 0 30.118-12.047 30.118-30.118-6.024-12.047-18.071-24.094-36.141-24.094v0zM620.424 252.988h-560.188c-18.071 0-30.118 12.047-30.118 30.118s12.047 30.118 30.118 30.118h560.188c18.071 0 30.118-12.047 30.118-30.118s-12.047-30.118-30.118-30.118c0 0 0 0 0 0zM963.765 24.094h-903.529c-18.071 0-30.118 12.047-30.118 30.118s12.047 30.118 30.118 30.118h903.529c18.071 0 30.118-12.047 30.118-24.094 0-18.071-12.047-30.118-30.118-36.141 6.024 0 0 0 0 0v0z" />
<glyph unicode="&#xe906;" glyph-name="search" d="M426.667 225.28c-204.8 0-372.053 167.253-372.053 372.053s167.253 372.053 372.053 372.053c204.8 0 372.053-167.253 372.053-372.053s-167.253-372.053-372.053-372.053zM426.667 1010.347c-228.693 0-413.013-184.32-413.013-413.013s184.32-413.013 413.013-413.013c228.693 0 413.013 184.32 413.013 413.013s-184.32 413.013-413.013 413.013v0zM778.24 252.587l23.893 27.307 201.387-228.693-23.893-27.307-201.387 228.693z" />
<glyph unicode="&#xe907;" glyph-name="footerfb" d="M885.555 1024h-747.648c-76.164 0-137.907-61.743-137.907-137.907v0-747.648c0-76.164 61.743-137.907 137.907-137.907v0h368.742l0.614 365.722h-95.002c0 0 0 0 0 0-12.358 0-22.382 9.997-22.425 22.345v0.004l-0.461 117.888c0 0.023 0 0.050 0 0.077 0 12.385 10.040 22.426 22.426 22.426 0 0 0 0 0 0h94.848v113.92c0 132.173 80.742 204.16 198.656 204.16h96.768c12.39 0 22.426-10.035 22.426-22.426v-99.405c0-12.376-10.026-22.411-22.399-22.426h-59.393c-64.128 0-76.544-30.49-76.544-75.213v-98.611h140.902c13.44 0 23.859-11.725 22.272-25.088l-13.978-117.862c-1.364-11.199-10.814-19.789-22.27-19.789-0.001 0-0.001 0-0.002 0h-126.31l-0.614-365.722h219.392c76.164 0 137.907 61.743 137.907 137.907v0 747.648c0 76.164-61.743 137.907-137.907 137.907v0z" />
<glyph unicode="&#xe908;" glyph-name="footertwitter" d="M1006.735 824.115c-34.529-15.738-74.584-27.189-116.589-32.324l-1.99-0.198c42.652 25.874 74.726 65.543 90.327 112.711l0.42 1.465c-37.782-22.751-81.742-40.133-128.559-49.66l-2.677-0.455c-37.677 40.202-91.106 65.25-150.385 65.25-0.122 0-0.244 0-0.367 0h0.019c-114.053 0-206.52-92.488-206.52-206.479 0-16.179 1.843-31.949 5.345-47.043-171.622 8.602-323.789 90.829-425.636 215.777-17.558-29.591-27.935-65.232-27.935-103.295 0-0.182 0-0.364 0.001-0.546v0.028c0-71.639 36.495-134.881 91.853-171.868-34.517 1.178-66.58 10.647-94.583 26.463l1.030-0.535v-2.58c0-100.024 71.209-183.501 165.642-202.506-17.306-4.649-35.533-7.229-54.415-7.229-13.332 0-26.214 1.311-38.871 3.83 26.296-82.084 102.543-141.783 192.881-143.421-69.68-55.030-158.784-88.27-255.652-88.27-0.295 0-0.591 0-0.886 0.001h0.046c-16.671 0-33.096 1.024-49.254 2.826 89.288-58.263 198.593-92.918 315.991-92.918 0.2 0 0.4 0 0.6 0h-0.031c379.904 0 587.571 314.675 587.571 587.571l-0.696 26.747c40.774 29.372 75.069 64.75 102.369 105.235l0.932 1.466z" />
<glyph unicode="&#xe909;" glyph-name="reddit" d="M657.050 453.53h29.030l-29.030 0.461v-0.512zM663.296 387.021c-33.973 0.318-61.391 27.932-61.391 61.949 0 0.181 0.001 0.362 0.002 0.542v-0.028c0 34.458 27.546 62.515 61.44 62.515 33.843 0 61.338-28.058 61.338-62.464 0.002-0.168 0.003-0.367 0.003-0.566 0-34.018-27.418-61.632-61.361-61.949h-0.030zM651.571 242.227c-39.095-29.18-88.352-46.74-141.708-46.797h-0.013c-49.664 0-99.379 15.616-141.722 46.797-7.765 5.821-12.735 15.003-12.735 25.346 0 6.852 2.182 13.195 5.888 18.371l-0.065-0.095c5.575 7.846 14.63 12.904 24.867 12.904 6.767 0 13.018-2.21 18.070-5.948l-0.083 0.058c29.156-21.84 65.934-34.972 105.779-34.972s76.623 13.132 106.242 35.304l-0.463-0.331c4.969 3.705 11.23 5.932 18.011 5.932 10.239 0 19.292-5.077 24.78-12.851l0.064-0.095c3.63-5.081 5.804-11.419 5.804-18.265 0-10.342-4.962-19.525-12.635-25.299l-0.081-0.058zM295.014 449.485c0 34.458 27.546 62.515 61.338 62.515s61.389-28.058 61.389-62.464c0-34.509-27.597-62.515-61.44-62.515-33.792 0-61.338 28.006-61.338 62.464zM847.462 855.706c16.896 0 30.72-14.029 30.72-31.232 0-17.254-13.824-31.232-30.72-31.232s-30.72 13.978-30.72 31.232c0 17.203 13.824 31.232 30.72 31.232zM1005.21 543.232c0 68.915-55.040 124.979-122.778 124.979-0.030 0-0.066 0-0.102 0-27.878 0-53.531-9.521-73.887-25.489l0.26 0.197c-68.557 48.435-158.259 77.312-253.747 84.634l51.507 122.931 149.862-35.584c4.762-47.206 43.52-84.173 91.136-84.173 50.79 0 92.058 42.035 92.058 93.696 0 51.712-41.267 93.747-92.058 93.747-32.154 0-60.416-16.896-76.902-42.496l-175.104 41.677c-2.113 0.522-4.54 0.821-7.036 0.821-12.71 0-23.607-7.757-28.217-18.795l-0.075-0.202-71.168-169.984c-103.117-3.584-201.318-33.178-275.456-84.634-19.585 14.771-44.332 23.657-71.154 23.657-0.275 0-0.549-0.001-0.824-0.003h0.042c-67.738 0-122.778-56.064-122.778-124.928 0-45.722 24.474-87.040 62.054-108.186-0.425-4.761-0.668-10.3-0.668-15.895 0-0.334 0.001-0.668 0.003-1.001v0.051c0-172.288 192.717-312.422 429.67-312.422 236.902 0 429.67 140.134 429.67 312.422 0 4.864-0.154 9.728-0.512 14.49 39.673 21.231 66.204 62.388 66.204 109.742 0 0.263-0.001 0.526-0.002 0.788v-0.041z" />
<glyph unicode="&#xe90a;" glyph-name="videos" d="M904.602 1024h-785.121c-20.767 0-37.56-17.818-37.56-39.772v-944.497c0-21.914 16.794-39.731 37.56-39.731h785.121c20.685 0 37.478 17.818 37.478 39.731v944.538c0 21.914-16.794 39.731-37.478 39.731zM241.213 101.949c0-19.743-15.483-35.881-34.57-35.881h-26.419c-19.169 0-34.611 16.097-34.611 35.881v27.32c0 19.825 15.483 35.881 34.611 35.881h26.378c19.128 0 34.57-16.056 34.57-35.881v-27.32zM241.213 300.155c0-19.825-15.483-35.881-34.57-35.881h-26.419c-19.169 0-34.611 16.015-34.611 35.881v27.32c0 19.784 15.483 35.881 34.611 35.881h26.378c19.128 0 34.57-16.056 34.57-35.881v-27.32zM241.213 498.401c0-19.866-15.483-35.963-34.57-35.963h-26.419c-19.169 0-34.611 16.097-34.611 35.922v27.361c0 19.825 15.483 35.84 34.611 35.84h26.378c19.128 0 34.57-16.015 34.57-35.84v-27.361zM241.213 696.566c0-19.825-15.483-35.922-34.57-35.922h-26.419c-19.169 0-34.611 16.056-34.611 35.922v27.279c0 19.866 15.483 35.881 34.611 35.881h26.378c19.128 0 34.57-15.974 34.57-35.881v-27.279zM241.213 861.716c0-19.825-15.483-35.922-34.57-35.922h-26.419c-19.169 0-34.611 16.056-34.611 35.922v27.279c0 19.866 15.483 35.922 34.611 35.922h26.378c19.128 0 34.57-16.015 34.57-35.922v-27.279zM782.746 106.332c0-22.241-17.326-40.264-38.584-40.264h-400.671c-21.299 0-38.584 18.022-38.584 40.264v315.802c0 22.241 17.367 40.305 38.584 40.305h400.712c21.299 0 38.584-18.022 38.584-40.305v-315.802zM782.746 601.866c0-22.241-17.326-40.305-38.584-40.305h-400.671c-21.299 0-38.584 18.022-38.584 40.305v315.761c0 22.241 17.367 40.305 38.584 40.305h400.712c21.299 0 38.584-18.022 38.584-40.305v-315.761zM910.172 101.949c0-19.743-15.483-35.881-34.57-35.881h-26.378c-19.169 0-34.611 16.097-34.611 35.881v27.32c0 19.825 15.442 35.881 34.611 35.881h26.378c19.046 0 34.57-16.056 34.57-35.881v-27.32zM910.172 300.155c0-19.825-15.483-35.881-34.57-35.881h-26.378c-19.169 0-34.611 16.015-34.611 35.881v27.32c0 19.784 15.442 35.881 34.611 35.881h26.378c19.046 0 34.57-16.056 34.57-35.881v-27.32zM910.172 498.401c0-19.866-15.483-35.963-34.57-35.963h-26.378c-19.169 0-34.611 16.097-34.611 35.922v27.361c0 19.825 15.442 35.84 34.611 35.84h26.378c19.046 0 34.57-16.015 34.57-35.84v-27.361zM910.172 696.566c0-19.825-15.483-35.922-34.57-35.922h-26.378c-19.169 0-34.611 16.056-34.611 35.922v27.279c0 19.866 15.442 35.881 34.611 35.881h26.378c19.046 0 34.57-15.974 34.57-35.881v-27.279zM910.172 861.716c0-19.825-15.483-35.922-34.57-35.922h-26.378c-19.169 0-34.611 16.056-34.611 35.922v27.279c0 19.866 15.442 35.922 34.611 35.922h26.378c19.046 0 34.57-16.015 34.57-35.922v-27.279z" />
<glyph unicode="&#xe90b;" glyph-name="profile" d="M511.005 0.088c-281.746 0-511.005 229.23-511.005 511.005 0 281.746 229.288 511.005 511.005 511.005 281.776 0 511.035-229.259 511.035-511.005 0-281.776-229.259-511.005-511.035-511.005zM511.005 991.086c-264.66 0-479.993-215.333-479.993-479.963 0-264.806 215.333-480.197 479.993-480.197 264.836 0 480.197 215.391 480.197 480.197 0 264.66-215.362 479.993-480.197 479.993zM497.371 0c-102.897 0-201.874 33.031-286.193 95.759-3.881 2.969-6.359 7.602-6.359 12.815 0 0.712 0.046 1.413 0.136 2.1l-0.009-0.081c0.69 5.767 4.421 10.522 9.522 12.659l0.103 0.038c124.284 48.069 144.325 87.069 144.325 161.88 0 19.895-4.242 26.331-11.849 38.064-10.24 15.477-24.166 36.747-33.821 92.131-1.463 7.929-2.779 8.572-9.509 11.937-18.139 9.157-34.816 22.323-39.234 82.447 0 29.052 9.509 45.144 17.554 53.394-1.755 10.416-4.681 28.292-7.314 47.718-13.575 86.923-14.19 193.565 102.897 243.127 102.049 43.154 183.559 19.573 209.189-8.602 17.964-0.585 64.658-5.617 97.192-45.115 50.030-60.738 34.085-199.358 28.672-236.837 7.899-8.251 17.554-24.166 17.554-52.604-4.213-61.206-20.948-74.372-39.205-83.529-6.729-3.365-8.075-4.008-9.538-11.937-9.655-55.384-23.581-76.654-33.792-92.131-7.607-11.732-11.849-18.169-11.849-38.064 0-74.811 20.041-113.81 144.296-161.88 5.266-1.989 8.923-6.875 9.655-12.698 0.092-0.644 0.145-1.388 0.145-2.145 0-5.159-2.45-9.746-6.251-12.661l-0.038-0.028c-84.261-62.698-183.208-95.759-286.281-95.759zM252.021 104.77c73.933-48.187 158.106-73.582 245.321-73.582 87.245 0 171.564 25.395 245.321 73.582-104.038 44.851-136.836 89.819-136.836 180.4 0 29.55 8.338 42.218 17.262 55.706 9.070 13.897 20.363 31.188 28.965 80.165 4.242 23.523 17.291 30.135 26.039 34.523 9.275 4.652 18.9 9.538 22.294 56.466 0 24.049-10.386 30.457-10.679 30.779-4.878 2.997-8.081 8.303-8.081 14.357 0 0.87 0.066 1.725 0.194 2.559l-0.012-0.093c7.285 41.604 19.602 171.535-20.509 220.306-27.355 33.178-70.568 34.143-78.731 33.821-1.317 0.146-2.662 0.146-3.979 0.468-3.92 1.053-10.533 4.593-12.581 8.251-8.075 14.541-79.024 43.915-177.093 2.428-96.9-40.989-97.046-128.819-84.465-209.306 4.096-29.959 8.631-55.969 8.631-55.969 0.173-0.881 0.272-1.894 0.272-2.93 0-6.179-3.521-11.536-8.667-14.173l-0.090-0.042c0.146 0-10.094-6.583-10.094-31.539 3.365-45.846 12.873-50.615 22.235-55.355 8.631-4.272 21.826-10.854 25.893-34.553 8.66-48.859 20.041-66.121 29.169-80.018 8.923-13.458 17.115-26.331 17.115-55.706 0-90.726-32.651-135.87-136.894-180.546z" />
<glyph unicode="&#xe90c;" glyph-name="shape" d="M520.704 257.024l459.622 458.803c4.971 4.983 8.044 11.861 8.044 19.456 0 15.216-12.335 27.551-27.551 27.551-7.621 0-14.519-3.094-19.507-8.095l-0.001-0.001-439.91-439.142-440.064 439.194c0.001 0.071 0.001 0.154 0.001 0.238 0 15.27-12.378 27.648-27.648 27.648s-27.648-12.378-27.648-27.648c0-7.656 3.111-14.584 8.139-19.591l0.001-0.001c0-6.963 2.662-14.080 8.192-19.405l459.571-458.752c10.598-10.854 28.16-10.854 38.81-0.256z" />
<glyph unicode="&#xe90d;" glyph-name="menu" d="M0 924.903h1024v99.097h-1024zM0 462.452h1024v99.097h-1024zM0 0h1024v99.097h-1024z" />
<glyph unicode="&#xe90e;" glyph-name="comment" d="M102.4 995.556h819.2c55.467 0 102.4-46.933 102.4-102.4v-563.2c0-55.467-46.933-102.4-102.4-102.4h-487.367l-165.547-182.158c-3.169-3.423-7.687-5.559-12.703-5.559-2.202 0-4.308 0.412-6.245 1.162l0.118-0.040c-6.44 2.501-10.923 8.649-10.923 15.844 0 0.030 0 0.060 0 0.089v-0.005 170.667h-136.533c-55.467 0-102.4 46.933-102.4 102.4v563.2c0 55.467 46.933 102.4 102.4 102.4z" />
<glyph unicode="&#xe90f;" glyph-name="email" d="M98.304 673.587c12.954-9.165 51.968-36.301 117.094-81.408 145.254-98.005 194.019-132.317 242.676-166.771l-92.967 62.477c3.84-2.662 11.93-8.499 24.32-17.408 12.39-9.011 22.682-16.23 30.822-21.709 8.192-5.581 18.125-11.776 29.747-18.637s22.528-11.981 32.819-15.36c10.342-3.482 19.866-5.171 28.621-5.171h1.126c8.755 0 18.278 1.69 28.621 5.12 10.24 3.43 21.197 8.602 32.819 15.411 11.622 6.912 21.504 13.056 29.696 18.637 8.192 5.478 18.483 12.698 30.874 21.709l24.269 17.408 267.469 185.754c27.802 19.405 50.995 42.803 69.632 70.246 18.688 27.443 28.058 56.166 28.058 86.272 0 25.139-9.062 46.694-27.136 64.614-16.064 16.558-38.522 26.834-63.381 26.834-0.326 0-0.651-0.002-0.976-0.005h-841.065c-29.338 0-51.917-9.882-67.738-29.696s-23.706-44.544-23.706-74.291c0-24.064 10.496-50.022 31.437-78.029s43.213-50.022 66.867-66.048zM966.861 614.246c-124.928-87.398-219.802-155.29-284.57-203.674-21.709-16.538-39.373-29.44-52.89-38.656-15.469-10.297-33.216-19.804-51.863-27.587l-2.102-0.778c-22.528-9.677-43.418-14.49-62.874-14.49h-1.126c-19.456 0-40.448 4.813-62.874 14.49-20.773 8.572-38.537 18.079-55.208 29.105l1.192-0.741c-13.466 9.216-31.13 22.118-52.838 38.656-51.456 38.912-146.074 106.854-284.006 203.674-21.83 15.077-40.77 32.001-57.398 50.999l-0.304 0.355v-468.736c0-26.010 8.96-48.23 26.829-66.714 17.92-18.534 39.424-27.75 64.614-27.75h841.114c25.139 0 46.694 9.216 64.614 27.75 17.92 18.483 26.829 40.704 26.829 66.714v468.736c-16.384-18.893-35.43-35.994-57.139-51.354z" />
<glyph unicode="&#xe910;" glyph-name="ig" d="M896.97 330.105c0-117.005-94.208-212.237-210.028-212.237h-360.017c-115.766 0-209.974 95.232-209.974 212.237v363.789c0 117.005 94.208 212.237 209.974 212.237h360.017c115.82 0 210.028-95.232 210.028-212.237v-363.789zM686.942 997.053h-360.017c-165.619 0-299.978-135.761-299.978-303.158v-363.789c0-167.397 134.36-303.158 299.978-303.158h360.017c165.672 0 299.978 135.761 299.978 303.158v363.789c0.054 167.397-134.306 303.158-299.924 303.158zM512 343.579c-92.955 0.153-168.268 75.466-168.421 168.407v0.015c0.123 92.967 75.454 168.298 168.409 168.421h0.012c92.967-0.123 168.298-75.454 168.421-168.409v-0.012c-0.153-92.955-75.466-168.268-168.407-168.421h-0.015zM512 781.474c-148.826 0-269.474-120.647-269.474-269.474s120.647-269.474 269.474-269.474v0c148.826 0 269.474 120.647 269.474 269.474s-120.647 269.474-269.474 269.474v0zM754.526 781.474c14.883 0 26.947-12.065 26.947-26.947s-12.065-26.947-26.947-26.947v0c-14.883 0-26.947 12.065-26.947 26.947s12.065 26.947 26.947 26.947v0z" />
<glyph unicode="&#xe911;" glyph-name="facebook" d="M746.543 986.577l-126.092 0.186c-141.638 0-233.193-93.929-233.193-239.244v-110.313h-126.743c-0.014 0-0.030 0-0.047 0-10.925 0-19.782-8.857-19.782-19.782 0-0.016 0-0.033 0-0.049v0.003-159.837c0-10.938 8.89-19.782 19.828-19.782h126.743v-403.316c0-10.938 8.89-19.828 19.875-19.828h165.329c10.938 0 19.828 8.89 19.828 19.828v403.316h148.201c10.985 0 19.828 8.844 19.828 19.782l0.093 159.837c0 0 0 0 0 0 0 10.925-8.857 19.782-19.782 19.782-0.016 0-0.033 0-0.049 0h-148.337v93.603c0 44.963 10.705 67.77 69.26 67.77h84.945c10.938 0 19.782 8.937 19.782 19.828v148.387c0 0.014 0 0.030 0 0.047 0 10.918-8.825 19.775-19.73 19.828h-0.005z" />
<glyph unicode="&#xe912;" glyph-name="twitter" d="M984.99 829.538c-33.237-15.009-71.797-26.078-112.194-31.284l-2.055-0.216c41.163 24.937 72.048 63.317 86.842 108.945l0.393 1.403c-36.173-21.984-78.286-38.747-123.17-47.891l-2.538-0.432c-36.221 38.858-87.687 63.098-144.814 63.147h-0.009c-109.812 0-198.168-89.722-198.168-199.68 0-15.848 1.317-31.061 4.584-45.544-164.815 8.094-310.662 87.674-408.625 208.847-17.033-28.948-27.113-63.761-27.16-100.924v-0.014c0-69.144 35.352-130.438 88.064-165.888-33.025 0.918-63.759 9.918-90.544 25.080l0.969-0.504v-2.194c0-97.036 68.754-177.591 158.866-196.169-15.14-4.184-32.525-6.589-50.471-6.589-0.53 0-1.060 0.002-1.59 0.006l0.081-0.001c-0.924-0.018-2.014-0.028-3.106-0.028-12.19 0-24.087 1.253-35.57 3.637l1.129-0.196c25.698-79.092 98.597-137.216 185.295-139.069-66.856-53.098-152.48-85.187-245.598-85.187-0.091 0-0.182 0-0.273 0h0.014c-16.286 0-31.89 0.731-47.445 2.731 85.35-56.156 189.999-89.578 302.455-89.578 0.588 0 1.176 0.001 1.764 0.003h-0.091c364.837 0 564.322 304.323 564.322 568.125 0 8.826-0.293 17.359-0.731 25.844 39.272 28.524 72.277 62.879 98.466 102.167l0.911 1.452z" />
<glyph unicode="&#xe913;" glyph-name="pinterest" d="M810.035 919.067c-70.486 67.666-168.031 104.933-274.665 104.933-162.889 0-263.073-66.771-318.432-122.781-68.227-69.026-107.351-160.679-107.351-251.464 0-113.986 47.678-201.474 127.52-234.022 5.36-2.196 10.754-3.303 16.041-3.303 16.844 0 30.19 11.021 34.814 28.7 2.695 10.143 8.94 35.164 11.655 46.026 5.813 21.451 1.116 31.769-11.559 46.707-23.092 27.323-33.846 59.633-33.846 101.683 0 124.901 93.004 257.646 265.378 257.646 136.771 0 221.733-77.735 221.733-202.868 0-78.964-17.009-152.092-47.902-205.923-21.468-37.403-59.217-81.989-117.17-81.989-25.061 0-47.572 10.294-61.777 28.241-13.419 16.966-17.841 38.883-12.445 61.724 6.097 25.807 14.41 52.727 22.455 78.753 14.674 47.532 28.545 92.426 28.545 128.244 0 61.265-37.664 102.43-93.714 102.43-71.232 0-127.038-72.349-127.038-164.709 0-45.296 12.038-79.175 17.488-92.185-8.973-38.021-62.305-264.060-72.421-306.685-5.849-24.882-41.086-221.409 17.237-237.081 65.529-17.607 124.102 173.798 130.063 195.427 4.832 17.59 21.738 84.103 32.099 124.99 31.633-30.471 82.567-51.070 132.128-51.070 93.43 0 177.454 42.043 236.595 118.378 57.358 74.040 88.948 177.236 88.948 290.564 0 88.598-38.047 175.941-104.378 239.63z" />
<glyph unicode="&#xe914;" glyph-name="profile2" horiz-adv-x="1086" d="M277.814 7.013c-165.795 92.967-277.814 270.367-277.814 473.957 0 299.908 243.122 543.030 543.030 543.030s543.030-243.122 543.030-543.030c0-203.559-112.019-380.959-277.721-473.926-101.841 48.873-134.982 101.624-134.982 199.649 0 34.847 10.023 49.835 20.79 65.722 10.861 16.415 24.452 36.833 34.785 94.642 5.089 27.772 20.79 35.53 31.31 40.743 11.109 5.461 22.683 11.233 26.748 66.653 0 28.362-12.474 35.933-12.847 36.305-5.851 3.481-9.71 9.772-9.71 16.964 0 1.022 0.078 2.026 0.228 3.005l-0.014-0.11c8.782 49.090 23.583 202.442-24.638 260.034-32.861 39.16-84.775 40.246-94.58 39.905-1.583 0.186-3.196 0.186-4.779 0.528-4.717 1.241-12.66 5.43-15.143 9.775-9.681 17.129-94.953 51.821-212.775 2.855-116.457-48.407-116.643-152.048-101.5-247.001 4.903-35.375 10.364-66.095 10.364-66.095 0.203-1.034 0.319-2.223 0.319-3.439 0-7.339-4.232-13.689-10.388-16.744l-0.109-0.049c0.186 0-12.164-7.758-12.164-37.236 4.034-54.117 15.515-59.733 26.748-65.35 10.364-5.027 26.19-12.784 31.123-40.774 10.395-57.623 24.080-78.010 35.033-94.425 10.705-15.888 20.573-31.061 20.573-65.722 0-98.18-32.954-151.118-134.92-199.866z" />
<glyph unicode="&#xe915;" glyph-name="galleries" horiz-adv-x="1205" d="M1164.541 1024h-963.765c-22.167-0.027-40.128-17.996-40.141-40.163v-40.142h-40.165c-22.172-0.027-40.138-17.993-40.165-40.162v-40.168h-40.141c-22.169-0.013-40.138-17.974-40.165-40.139v-783.062c0.013-22.177 17.988-40.151 40.163-40.165h963.766c22.167 0.027 40.128 17.996 40.141 40.163v40.142h40.165c22.172 0.027 40.138 17.993 40.165 40.162v40.168h40.141c22.169 0.013 40.138 17.974 40.165 40.139v783.062c-0.013 22.177-17.988 40.151-40.163 40.165h-0.001zM1003.929 823.224v-448.565l-105.388 120.424c-3.782 4.053-9.155 6.579-15.118 6.579s-11.336-2.526-15.106-6.567l-0.011-0.012-127.129-145.435-346.353 307.859c-3.519 3.163-8.199 5.097-13.329 5.097s-9.81-1.934-13.348-5.114l-327.982-291.537v457.271zM40.165 40.165v272.094l341.318 303.412 348.094-309.388c3.642-3.142 8.42-5.057 13.646-5.057 0.331 0 0.661 0.008 0.989 0.023l-0.046-0.002c5.549 0.338 10.441 2.901 13.838 6.8l0.020 0.024 125.435 143.318 120.494-137.718v-213.129s0 0 0-0.141 0-0.118 0-0.188v-60.047zM1084.235 120.471h-40.165v702.753c-0.027 22.159-17.983 40.114-40.139 40.141h-883.461v40.165h963.765zM1164.541 200.776h-40.141v702.753c-0.027 22.172-17.993 40.138-40.162 40.165h-883.461v40.141h963.765zM722.824 542.118c0.007 0 0.015 0 0.024 0 44.365 0 80.329 35.965 80.329 80.329s-35.965 80.329-80.329 80.329c-44.365 0-80.329-35.965-80.329-80.329 0-0.008 0-0.017 0-0.025v0.001c0.054-44.33 35.976-80.252 80.301-80.306h0.005zM722.824 662.588c22.182 0 40.165-17.982 40.165-40.165s-17.982-40.165-40.165-40.165c-22.182 0-40.165 17.982-40.165 40.165v0c0.027 22.172 17.993 40.138 40.162 40.165h0.003z" />
<glyph unicode="&#xe916;" glyph-name="podcasts" horiz-adv-x="565" d="M547.531 529.655c-0.066 0.001-0.143 0.001-0.221 0.001-9.751 0-17.655-7.904-17.655-17.655 0 0 0-0.001 0-0.001v0-105.931c0.070-2.2 0.11-4.788 0.11-7.385 0-136.51-110.663-247.172-247.172-247.172s-247.172 110.663-247.172 247.172c0 2.597 0.040 5.184 0.12 7.762l-0.009-0.377v105.931c-1.032 8.982-8.592 15.893-17.766 15.893s-16.734-6.911-17.758-15.81l-0.008-0.083v-105.931c0.181-149.659 116.716-272.042 263.995-281.557l0.833-0.043v-89.379h-88.276c-0.591 0.070-1.276 0.11-1.971 0.11-9.751 0-17.655-7.904-17.655-17.655s7.904-17.655 17.655-17.655c0.694 0 1.379 0.040 2.053 0.118l-0.082-0.008h212.083c8.866 1.025 15.684 8.489 15.684 17.545s-6.819 16.52-15.602 17.537l-0.082 0.008h-88.276v89.379c148.112 9.558 264.647 131.941 264.828 281.582v105.949c0 9.751-7.904 17.655-17.655 17.655v0zM282.703 211.641c107.234 0.251 194.082 87.176 194.207 194.416v423.515c0.070 1.953 0.11 4.246 0.11 6.55 0 107.379-87.048 194.428-194.428 194.428s-194.428-87.048-194.428-194.428c0-2.303 0.040-4.597 0.119-6.881l-0.009 0.332v-423.503c0.125-107.329 87.099-194.302 194.416-194.428h0.012zM123.807 829.572c-0.070 1.766-0.11 3.839-0.11 5.921 0 87.756 71.14 158.897 158.897 158.897s158.897-71.14 158.897-158.897c0-2.082-0.040-4.155-0.119-6.218l0.009 0.297v-423.503c0.070-1.766 0.11-3.839 0.11-5.921 0-87.756-71.14-158.897-158.897-158.897s-158.897 71.14-158.897 158.897c0 2.082 0.040 4.155 0.119 6.218l-0.009-0.297z" />
<glyph unicode="&#xe917;" glyph-name="documents" horiz-adv-x="757" d="M578.017 1024h-515.293c-34.662-0.094-62.724-28.214-62.724-62.889 0 0 0 0 0 0v0-898.387c0.093-34.604 28.12-62.631 62.715-62.724h631.366c34.604 0.093 62.631 28.12 62.724 62.715v767.021zM592.998 929.996l78.199-85.114h-78.199zM704.123 62.724c0-5.546-4.496-10.042-10.042-10.042v0h-631.357c-5.33 0.271-9.549 4.658-9.549 10.030 0 0.004 0 0.009 0 0.013v-0.001 898.387c0 5.546 4.496 10.042 10.042 10.042h477.428v-152.448c0 0 0 0 0-0.001 0-14.548 11.793-26.341 26.341-26.341 0.058 0 0.116 0 0.174 0.001h137.457zM145.698 743.47h447.794c10.911 0 19.756-8.845 19.756-19.756s-8.845-19.756-19.756-19.756h-447.794c-10.911 0-19.756 8.845-19.756 19.756s8.845 19.756 19.756 19.756v0zM612.918 590.858c-0.274-10.55-8.848-19.009-19.418-19.097h-447.803c-0.54-0.052-1.167-0.082-1.802-0.082-10.911 0-19.756 8.845-19.756 19.756s8.845 19.756 19.756 19.756c0.634 0 1.262-0.030 1.881-0.088l-0.079 0.006h447.794c10.911 0 19.756-8.845 19.756-19.756v0zM612.918 462.446c0-10.911-8.845-19.756-19.756-19.756v0h-447.465c-10.195 0.957-18.111 9.473-18.111 19.838s7.916 18.881 18.032 19.832l0.079 0.006h447.794c10.787-0.276 19.426-9.086 19.426-19.914 0-0.002 0-0.004 0-0.006v0zM612.918 331.895c0-10.911-8.845-19.756-19.756-19.756v0h-447.465c-10.911 0-19.756 8.845-19.756 19.756s8.845 19.756 19.756 19.756h447.794c10.911 0 19.756-8.845 19.756-19.756v0z" />
<glyph unicode="&#xe918;" glyph-name="video" horiz-adv-x="1291" d="M1268.87 1024h-1246.609c-0.005 0-0.010 0-0.016 0-12.294 0-22.261-9.967-22.261-22.261 0-0.294 0.006-0.586 0.017-0.877l-0.001 0.042v-979.478c0-12.294 9.967-22.261 22.261-22.261v0h1246.609c12.294 0 22.261 9.967 22.261 22.261v0 979.478c0 12.294-9.967 22.261-22.261 22.261v0zM222.609 44.522h-178.087v200.348h178.087zM222.609 289.391h-178.087v200.348h178.087zM222.609 534.261h-178.087v200.348h178.087zM222.609 778.296h-178.087v201.183h178.087zM813.357 493.357l-244.87-156.104c-3.384-2.097-7.489-3.339-11.884-3.339-0.028 0-0.057 0-0.085 0h0.004c-0.065-0.001-0.141-0.001-0.218-0.001-3.907 0-7.574 1.033-10.741 2.84l0.107-0.056c-6.828 3.931-11.363 11.17-11.409 19.472v310.824c0.046 8.308 4.58 15.547 11.3 19.42l0.109 0.058c3.279 1.896 7.213 3.015 11.409 3.015s8.13-1.119 11.52-3.074l-0.112 0.059 244.87-156.104c6.22-3.889 10.296-10.701 10.296-18.464 0-0.063 0-0.126-0.001-0.189v0.010c0-0.007 0-0.016 0-0.025 0-7.808-4.071-14.666-10.206-18.565l-0.089-0.053zM1246.609 44.522h-178.087v200.348h178.087zM1246.609 289.391h-178.087v200.348h178.087zM1246.609 534.261h-178.087v200.348h178.087zM1246.609 779.13h-178.087v200.348h178.087z" />
</font>
</defs>
</svg>
