<svg xmlns="http://www.w3.org/2000/svg" xml:space="preserve" viewBox="0 0 179.3 161.5"><path d="M178.1 129.9a55 55 0 0 0-16.7-37.4A60 60 0 0 0 127.9 44C87.2 21.6 64.8 39.9.9.8a56 56 0 0 0 10.9 23.7L5 22.4a70 70 0 0 0 16.7 22.2l-7.5-2.4A77 77 0 0 0 37.6 73c3.5 29.5 25 34.5 26.9 52.6 28.1 4.4 58 34.7 58 34.7 15.6-27 37.4-32 55.8-30.4"/><path d="M124.5 47.8C95 31.5 59.1 42 13.3 13.5 17.7 27.3 46 43.1 46 43.1L21 35c6.3 11 32.5 25 32.5 25l-23.3-7.5C39.9 68.5 62 79.4 62 79.4l-13.6-.9C50 93.5 71 106.6 72 118.4c9.7 3.6 21.8 10 31.3 18.1 18.2-9 13.2-39.2-21.5-82.1 47.7 2.9 46.5 38.2 73.7 33.1-1.8-9.5-3.2-24.5-31.2-39.7" fill="#97233f"/><path d="M142 91.8c-6.1 10-16.5 7.2-20.1-5l7.5.3a65 65 0 0 1-17.2-15.3C111 99 136.6 111 145 92z" fill="#fff"/><path d="M155.9 95.3c-3.4 7-11.7 11.5-19 13.5 17.1 2 31.2 8.7 37.8 15.5a49 49 0 0 0-18.8-29M138.7 115q-1.3 0-2.8.3s5.1 8.7 2.2 18.2a57 57 0 0 1 35.9-7.1 58 58 0 0 0-35.2-11.3" fill="#ffb612"/></svg>