<svg xmlns="http://www.w3.org/2000/svg" xml:space="preserve" viewBox="0 0 192 182.3"><path d="M179.3 39.8C153.6 23.5 95 11.3 51.3 1L1 55.3l43.1-1C22.6 89 27 170.7 81.4 181.6c-2.8-5.4-7.7-15.2-1.3-27.5l29.4-56.2h5.9c8.1 0 10.7 3 7.2 7.2 21.5-.2 34.8-8.4 40.7-17.1-4.6-8.3-18.8-18-24.7-21.9h30c8.8 0 10.7 3.6 8.8 7.5 14-2.7 21.2-21.4 1.8-33.7" fill="#a5acaf"/><path d="M175.8 41.5C140.8 21.9 54.5 8.9 54.5 8.9L17.6 48.4H56C27.6 85.9 34 161.4 75.6 177a28 28 0 0 1 .9-25.6q8.8-17.9 29.3-57.5h11c9.3 0 12.3 3.8 11 6.9a39 39 0 0 0 31.7-13c-8.4-11.9-36.2-25.5-36.2-25.5H171q10.9.2 9.6 6.6c12.3-5.9 9-19.9-4.8-27.5" fill="#fff"/><path d="m52.3 14.4 3.2 4.2L34 41.8l75.8 6-.5.7H58.5l3.9 3.8A85 85 0 0 0 54 66.8L96.6 58l-.6 1.1L45.4 76l4.4 2.5a108 108 0 0 0-4.2 21.4l43.2-26.2-.4 1.3-47.5 37.5 4.4 1q.3 12.3 3.3 23.4l38.7-45.5.2 1-38.2 56.2 3.5.3A52 52 0 0 0 71.5 172a26 26 0 0 1 1.5-22.5l43.8-87.2-6.8-3.6h63c6.5 0 10 2.7 10 6.3 4-3.3 4.9-13.5-8.7-21C145 28.1 52 14.5 52 14.5m67 49.3.9 2.5-12.1 24h19.3c.3 3.5 3.7 6.3 7.2 7.2-2.2-2.9-1.3-5.6.2-7.1h9.3c2.5 0 1.7 3-2.5 6.2q9.6-2.3 14.5-8.7c-6-9.1-36.8-24.1-36.8-24.1"/><path d="m177.6 49.9.9 3.5a186 186 0 0 1-18 2.1l-.5.9h14.5c5.9 0 8.3 2.7 8.8 4.2.7-2.1 0-7.9-5.7-10.7m-16.1-7.1a42 42 0 0 1 13.3 8.2h-5.3a48 48 0 0 0-8-8.2" fill="#fff"/><path d="m59.9 26.3-6.3 6.6 100.7 13.9.4-1A906 906 0 0 0 60 26.3m33.7 27-27.2.7q-2 2.8-3.8 5.8L93 54.4zm-9.6 16L54.3 80q-1.2 3.8-1.8 7.5l31-16.9zm33.3 13.5L115 87h23.8l.3-1zM79.8 89 51 113.5q.3 4.1.9 8.1l28-31.2zm5 19.5-25 38q2 3.8 4.5 7l21.2-43.7q0-.7-.5-1.3" fill="#a71930"/></svg>