<svg xmlns="http://www.w3.org/2000/svg" xml:space="preserve" viewBox="0 0 192.7 94.6"><path d="M191.2 57.8c-.8-4.6-3.8-11.5-14.2-17.7l-2.2-1.2 4-1.3-11.5-4.5-3-1 1.5-1.6-8.7-1.2a59 59 0 0 0-9.1-.7l-.1-1-1.5-11-3.7 5.1-2.5-3.4-9.5-10.7.7 5.7q-4.6-3.3-10.2-5.7A88 88 0 0 0 68.3 4a98 98 0 0 0-55.9 36L1.8 53.5l16-6.4s12.5-4.9 22.4-6.3c3.7-.5 6.5-.5 4.2 4.6-1.8 4-5.9 9.9-6 10l-8 11.6 13.4-4.7A60 60 0 0 1 59 59q1.5.2 1 1.4l-1 1.5-8.3 12 13.7-5c10-3.5 23.1-5.9 27.8-4.1.4.1 1.6.8.4 2.6L87.1 76l9.1-1.4a21 21 0 0 0 5 12.7L107 93l2-8a18 18 0 0 1 6.8-10.7l.4 3.3 5.4-2a34 34 0 0 0 10.6-5.8c3.5-.2 11.8-.7 19.7 0 13.8 1.4 23-.4 25.5-1 3.4-.8 6.2.6 6.2.6l4.1 2.3 2.2-4.2a16 16 0 0 0 1.3-9.8" fill="#fff"/><path d="M189.3 58.7c-.7-4.2-3.5-10.3-13-16q-3.9-2.3-8.1-4l3.4-1-4.7-1.9q-3.4-1.3-7.2-2.1l1-1-3.5-.6a50 50 0 0 0-11.4-.4v-3.5l-.7-4.5-2.4 3.4q-1.1-3-4-6.9l-3.9-4.3.4 3.7a52 52 0 0 0-14.7-9.4A86 86 0 0 0 69 6.6a96 96 0 0 0-54.7 35.3l-4.6 5.8 6.9-2.8s12.8-5 23.2-6.5q6.1-.7 7.9 1.4c.9 1.3.6 4-.9 7-2 4.2-6.2 10.3-6.2 10.4l-3.5 5 5.8-2c7.5-2.7 17-4.6 19.2-3.2a2 2 0 0 1 .9 1.3c.3 1.9-1.2 4.6-1.8 5.5l-3.6 5 5.9-2c9.3-3.4 26.2-7.3 31.4-3.3 2.4 1.9.2 5.5 0 5.7l-2.2 3.6 4.2-.6 2.2-.3v1a19 19 0 0 0 4.3 13l2.5 2.4.9-3.4c2.4-9.7 8.2-13 11.4-14.2l.5 3.8 2.3-.8a29 29 0 0 0 10.5-6c2.6-.2 12.1-.9 21.2 0a78 78 0 0 0 24.8-1c4.4-1 8 .9 8 .9l1.8 1 1-1.8c0-.1 1.2-2.4 1.2-5.7z" fill="#bb9334"/><path d="M175.1 44.7a49 49 0 0 0-14.5-6.3c2.2-.7 4.3-.6 4.3-.6q-5-1.9-10-2.6l1.2-1.1q-8.8-1.3-12.5-.7.6-1.8.3-5.5s-.7 2.1-2.5 3.4a14 14 0 0 0-4-9.4l.5 4.9c-2.7-4-7.7-9.1-17.2-13.6A84 84 0 0 0 24.3 38s9.8-4.8 23.2-5.2c7-.1 8.8 3.8 6.2 10.5a58 58 0 0 1-7.1 12.5S77 45 67.5 60.1c0 0 23-7 29.9 1.1 3.2 3.8-.6 9-.6 9l6.5-1.4c-2 8.3 1.6 13.6 1.6 13.6a19 19 0 0 1 15.4-14.3l.8 3a21 21 0 0 0 9.7-6c11.8-1.8 19.8-.2 28.9.3 13.2.7 20-1.6 22.3-1.6 1.6 0 3.5 1.4 3.5 1.4S191 56 175 44.7"/><path d="M129 33.2c.9 1.9-.3 4-2.5 4.8s-4.7-.3-5.5-2.2.3-4.1 2.5-4.9c2.3-.7 4.7.3 5.5 2.3" fill="#c60c30"/><path d="M123.3 36c-.6-1.4.3-3 2-3.7q1-.3 2 0a4 4 0 0 0-3.1-.4c-1.7.6-2.6 2.2-2 3.7a3 3 0 0 0 2.2 1.7 3 3 0 0 1-1-1.3M82.1 47.5l1-.6.5-.3.4-.3.6-.3.4-.3A57 57 0 0 1 99.8 40q.4-.4.6-1c1.8-4-1.1-8-6.4-8.8 5-1 10.5-4.4 11.6-7 1.4-3 2.3-8.4-11-9.8s-36.3 4.1-46.2 11.8c0 0 15.3-3.3 31.1-4a16 16 0 0 0-7 4.2C69.9 28 65.7 33.7 61 49.9h.7l11.5-1.2 5.9-.4h2l.2-.2.5-.3zm82 14.8a67 67 0 0 0 15.5-1.5 159 159 0 0 0-46.8-8.4s-2.4.7.4 3.3c-3.9-1.5-7.7-4.4-8-5.9s2.6-2 9.2-1.1c24.8 2.9 46.2 7 49.1 13 0 0 1.5-7.5-10.8-14.7-10.6-7-26.8-8.2-26.8-8.2l4 3.3-7.6-.7 6 4.4c-6.4-2.1-23.9-7.9-38.3-4.2 0 0 15.8-.2 23 4-26.7-4.3-40.7 5-40.7 5a76 76 0 0 1 31.1-2.5c-6.3 1.5 1.1 6.2 5.7 8.6.5 1.3 1.8 3.9.5 6 0 0 1.4-1.7 2.4-4.3l3.7 3c11.1-1.3 19.3 1 28.4 1" fill="#fff"/><path d="M128.8 34.4c.5 1.1-.1 2.4-1.4 2.9s-2.6-.2-3-1.4c-.5-1.1.2-2.4 1.4-2.9s2.6.2 3 1.3"/><path d="M89.3 15.2q-3 0-6.9.4c-2.7.4-16 1.7-27.3 7.2a159 159 0 0 1 35.5-3.5c2.2 0 4.2.6 5 2q1.5 2-.4 4.8a10 10 0 0 1-4.7 3.4l3.3-.7c5-1 9.4-3.9 10.4-6q1.2-2.3.2-3.9-1.7-3-9.6-3.5s-2.2-.3-5.5-.3M85 22a17 17 0 0 0-10.5 4.5 55 55 0 0 0-10.7 21.7c5.4-.6 10.3-.9 10.3-.9l5-.2 4.3-.2a57 57 0 0 1 14.5-6.3l1-1.5q.7-2 .1-4c-.6-1.7-1.8-3-5.6-3.8-5-1.2-12.4-.7-12.4-.7 1.7-4 3-6.5 4.3-8.6zm-4.4 9.7H86c2.8 0 4.1 1.1 4.7 2q1.4 2.4-.4 6.2c-2.2 5-7.6 5.5-9.2 5.5l-6.2.2a85 85 0 0 1 5.6-14" fill="#bb9334"/><path d="M91.2 20.7h-2.6s-.5.4-1.3 1.6c3 0 4.3 1.6 2.7 5.1l-.7 1.2a7 7 0 0 0 4.1-2.9c1.6-2.8.4-4.8-2.2-5zM82 32.9l-.8 1.8h1.3c3.2 0 5 1.7 3 6a8 8 0 0 1-2 2.5 8 8 0 0 0 5.4-4.2c2-4.3.2-6-3-6z" stroke="#000" stroke-width=".2"/><path d="M88.8 10.8c-20.7.1-40 7.8-52.2 19.5 0 0 17.1-5.4 22.2-.1 6 6.1-3 20.6-3 20.6l5.9-1-.7.1c4.6-16.1 8.8-21.8 11.6-24.6a16 16 0 0 1 7-4.2 223 223 0 0 0-31.3 4c10-7.7 33-13.1 46.3-11.7 13.3 1.3 12.4 6.7 11 9.8-1 2.5-6.5 5.8-11.6 7 5.3.6 8.3 4.7 6.4 8.8l-.6 1a57 57 0 0 0-15.1 6l-.6.3-.5.3-.5.3-.4.3-.5.3-.5.3-.4.3a29 29 0 0 0-7.1 6.5s34.6-7 28.6 10.4l8.9-2.5q-1 1.7-3 3.9c-4.2 4.7-4 9.1-4 9.1s1.3-4.8 9.3-8.2c7.3-3 9-8.2 9-8.2s2.4 3.6.4 8.6c0 0 3.3-.8 6.3-5 1.3-2.1 0-4.7-.5-6-4.6-2.5-12-7-5.7-8.6a76 76 0 0 0-31.1 2.5s14-9.3 40.8-5c-7.3-4.2-23.2-4-23.2-4a49 49 0 0 1 17.1-.8q-3.4-1-9-2-8.2-.8-15.5.6c5.4-5.7 15.3-5 15.3-5-6.6-4.4-15.2-3-15.2-3 9.7-5 20.5-3.3 20.5-3.3-3.5-4.4-11.5-5.4-11.5-5.4 16-.7 21.5 7.6 21.5 7.6-4-1.7-6.8-1.4-6.8-1.4s3.8.6 6.4 5.4c2.7 5.1 5 5 5 5s4.4-16.5-24.3-25a84 84 0 0 0-24.7-3.6m-1.6 11.6a44 44 0 0 0-3.5 6.7h2.4q1.7 0 3.2-.4.4-.5.6-1.2c1.7-3.5.4-5-2.7-5m-6 12.3c-2.3 4.6-3.6 8.9-3.6 8.9H81q1 0 2.5-.3 1.1-1 2-2.6c1.9-4.2.1-6-3-6z" fill="#241773"/></svg>