<svg xmlns="http://www.w3.org/2000/svg" xml:space="preserve" viewBox="0 0 189.3 126.4"><path d="M20 89.6c13.1-8.4 17.3-17.8 17.3-17.8L0 77l15.8-28 31.9-2.7s12.3-11 31.5-19c0 0 2-3.5 13-9.8 0 0 10-5.9 21.5-9.6 0 0 7.7-2.7 10-2.9l-.7-2.4 14.6-1.3.4-1.4s7.6.5 12 2.5l.9-1.2S161 6 168.7 17.4c0 0 7.3-.4 14 2.8 0 0 7 2.8 6.6 10.9 0 0 0 10.3-3.1 20.6 0 0-.5 1.6-1 2.6 0 0-.6 1.3-1.8 3 0 0-3.5 3.5-4.8 6.6l-2.2 6s-1.1 5.1-8.7 5.4c0 0-7.4 9.4-10.4 12l-.3-2.2s-5.2 4.7-9.6 7.5l1.5-13.2s.3-2.3-1.2-2.5H144s1.3 7.9-.2 11.5c0 0-1 5.8-10 8.6 0 0-7 2.2-14.8 2.8l-1.7-.3-12.5 5.1 3.6-13s-4.6.4-5-.2l-13.9 6 5.4-15.6 3.8-2.1-1.2-1.6h-7.7L87 80.3c-6.5-1.7-12.8-1.2-12.8-1.2l-32.3 26.2-8 17.9-9.7-13 3-4-1.2-.8-4.3 3.5-6.5 17.4-9.6-13.4 2.5-5.5-.5-3.4c2.8-1.9 4.7-3.1 6-4.7.8-1 1.3-1.4 2.2-3 .9-2.2.9-4.4 1.9-5.1z" fill="#fff"/><path d="M17.7 51.8 5.3 73.5l159.1-23.7S159 45.6 167 39z" fill="#c60c3d"/><g fill="#00338d"><path d="M179.2 36s-12.4 8.4-8.1 15.8c0 0-4.5 2.5.4 6 0 0-7.7 3.4-5.6-6L40.8 70.5S38 82 20.3 92.6c0 0-1.2.9-1.4 2.3 0 0 .2 1.8-1.5 4 0 0-2 3.4-6.6 6.4l.3 2.3-2.2 5 5.4 7.6 4.8-13 9.5-7.3S38 85.3 53.3 79.6c0 0 13.5-5.7 33.2-2.5l1.8-1.7 22.9-.5s.8.2.3.6c0 0-4.6 3.5-9.5 4l.5 1.4s.1.5-.2.6l-4.8 1.9-3.2 8.8 9-4 .5.4s7.8.5 19.5-1.9c0 0 8.2-1.6 10.5-12.2l15.5-.6s3.3.7 2.8 3.7l-1 8.8 7-6.4.5 1.7s5.4-5.8 6.8-9.2c0 0 6 .2 7.3-2.2 0 0 .7-.7 2.6-5.9 0 0 .9-3.6 4.5-7.2 0 0 2.9-2.7 4.4-9.6 0 0 2-10 1.9-12 0 0 2-10-4.8-13 0 0-5-2.7-14.6-2 0 0-1.8-6.5-15-15.6l-.9 1.4s-4.4-3-10.8-3l-.3.9s-3.8 0-12.2.8l.8 2.3s-17.4.9-42 17.3L86 26l-3 1.5 1.6 1s-18.7 6.7-32.4 17.9z"/><path d="M135.3 76.5h5.4s1 7 .5 10.2c0 0-1.1 4.7-5.9 6.5 0 0-7 3-17.7 3.7l-.5-.5-8 3.5 2.6-9.4s10.8-.8 14-1.8c0 0 8.4-1.7 9.6-12.2m-66 2.8S50.1 79 37 94.4c0 0 0 5.6-6.8 9.4l.3 1.7-3.3 4.4 5.8 7.7 6.4-14.2z"/></g></svg>