<svg xmlns="http://www.w3.org/2000/svg" xml:space="preserve" viewBox="0 0 191.1 103.8"><path d="m175 10.8.1-.3v-.3q-.2-1-2-.7l-4.5.6h-.3l-.6.1h-.1l-2.7.2a13 13 0 0 1 4.8 8.3l.2-.2c3.3-2.4 5-7.7 5-7.7" stroke="#000" stroke-width=".3"/><path d="M130 37.6c2.2 6.4-1.4 14.8-1.4 14.8 4.8-4 8.4-12.4 8.4-12.4 7.9-1.5 12.1 0 12.1 0a21 21 0 0 1-1.2 11c4.5-3.5 6.5-13.1 6.5-13.1s-1.8-1.7-9.8-2.3-14.5 2-14.5 2m5.8 24.2s-2.3 6.6-4.7 9c0 0 3 1.7 8.5 1.2s6.7-2.5 7.2-4.6 0-4.8-.9-7c0 0 .4 5.4-3.3 8.1 0 0-4 .9-6.6 0 0 0 1-2-.2-6.7m-12.8-50.9h.2zc-3.3-.6-4.7 1.9-4.7 1.9-1 1.5-.6 2.2-.6 2.2 10.1-.1 15.6 1.5 15.6 1.5s-3.8-4.1-9.9-5.5zm40.4 5.2a9 9 0 0 0-7.3-2.2c-3 .6-3.3 4-3.3 4 3.4-3.1 10.6-1.8 10.6-1.8" fill="#bfc0bf"/><path d="M88.2 22.8S105 19.5 124 24q1-1 2.4-1.9s-17.5-4.9-38.2.6m.1 6.5s14.6-3.7 32.4-1.2l1.4-2.1a83 83 0 0 0-33.8 3.3m.4 6.3s13.8-4.3 31.2-3v-2.3a82 82 0 0 0-31.2 5.3M48 79l1.4.2 1.8.2 7.2 1c5.5-20 20.9-30.7 20.9-30.7C58.5 59.7 49.7 76.1 48 79m98-27.6a13 13 0 0 1 2.1-10.2c-7.8 6.8-3 13.7-.7 19 2.4 5.3 1.4 9.2-1 12s-8.8 3-13.2 2c-4.3-.7-6.6-5.4-7.8-10.8s1-15 1-15c-3.2 4.8-3.2 14.8-.7 22.8s9 10 13.7 10 13.2-4 11.9-13.5-4-10.3-5.3-16.3m-50.8 4.8a28 28 0 0 1-8.5-17.6s-2.8 11 3.9 19.1 22.8 9 22.8 9-10.1-2.2-18.3-10.5m41.3-35.7C146 24.2 146 30 146 30c1.4-5.5 8.2-8.5 8.2-8.5s-3.5-1.7-8.3-2-9.4 1-9.4 1M123 10.9a22 22 0 0 0-11.6 1.3c5.3.1 7 .6 7 .6s1.3-2.5 4.6-2M141.9 86s-3.5 1.3-7.7.5c0 0 5.6 5.4 11.2 17.1h.2a117 117 0 0 0-3.3-16z" fill="#0085ca"/><path d="M148 51s2.2-4.9 1.2-11c0 0-4.3-1.5-12.1 0 0 0-3.8 8.4-8.5 12.4 0 0 3.6-8.4 1.5-14.8 0 0 6.5-2.6 14.5-2s9.8 2.3 9.8 2.3-2 9.6-6.5 13.2zm-5.3 17.5c3.8-2.7 3.3-8 3.3-8 1 2.1 1.4 5 1 7-.6 2-1.9 4-7.3 4.5s-8.6-1.3-8.6-1.3c2.5-2.3 4.8-8.9 4.8-8.9 1.2 4.6.2 6.8.2 6.8 2.6.8 6.6 0 6.6 0zm8.6-.8c1.3 9.5-7.2 13.6-12 13.6-4.6 0-11.2-2-13.6-10s-2.5-18 .7-23c0 0-2.2 9.7-1 15s3.5 10.2 7.8 11c4.4.8 10.9.6 13.2-2.2 2.4-2.7 3.4-6.6 1-11.9s-7-12.2.7-19c0 0-3.4 4.1-2.1 10.2s4 6.7 5.3 16.3zM120.8 28c-17.8-2.5-32.4 1.2-32.4 1.2 14.3-4.7 27.4-4 33.8-3.3q-1 1-1.4 2zm-.9 4.4c-17.4-1.2-31.2 3-31.2 3a83 83 0 0 1 31.3-5.2q-.2 1.2 0 2.2zM90.6 57.7c-6.7-8.2-3.9-19-3.9-19s.3 9.3 8.5 17.5a41 41 0 0 0 18.2 10.5s-16.2-.9-22.8-9zm35.8-35.5-2.4 1.9c-19-4.6-35.8-1.3-35.8-1.3 20.7-5.5 38.2-.6 38.2-.6zm-15-10c.4-.1 6.2-2.6 12.1-1.2 6.1 1.4 9.9 5.5 9.9 5.5s-5.5-1.6-15.6-1.5c0 0-.4-.7.6-2.2 0 0-1.6-.5-7-.6zm44.8 1.7c3.2-.6 6 1 7.3 2.2 0 0-7.2-1.3-10.6 1.8 0 0 .2-3.4 3.3-4zm10.2 15.7q-.1-.9-.5-1.6l-.7-1.2-1.4-1.5c-1.1-1-3-1.6-3-1.6q2.1 1.4 2.4 4.5c.3 6.3-6.2 8.8-6.2 8.8a10 10 0 0 0 3.6-8.9c-.7-4.5-6.5-6.6-6.5-6.6s-6.8 3-8.2 8.5c0 0 0-5.8-9.5-9.5 0 0 4.5-1.4 9.4-1s8.3 2 8.3 2 1-2.4 5.7-3.2 9.9.4 9.9.4c-1-1.7-2-4.3-6.8-6.2-4.9-2-9.1-.2-9.1-.2s-.3-2.3-3.8-4.6a72 72 0 0 0-23.5-6c-2.9-.1 2.2 1.8 4.2 3 2.3 1.2 4.8 3.4 5 5.5q.2.9-.3 1.5-.2-.9-1.4-2.3c-4-5.3-14.4-7.5-22.2-7s-14 3.4-14 3.4c0 .8-2.9 3.3-11 4.2-7.9.8-13.4-.6-15.3-.9h-.2q-1.2-.2-1.6.5v.2q0 .8.2 1l-.2-.3A33 33 0 0 0 78 21s2.6-.6 5.7-1c0 0-47.8 23.3-67.2 59.7C24.9 78.6 36 78 48 79c1.7-2.9 10.5-19.3 31.2-29.3 0 0-15.3 10.7-20.8 30.7Q69 82 79.4 86c22.4 8.7 41.2 17.8 62.4 17.6l3.6-.2c-5.6-11.7-11.2-17.1-11.2-17.1a16 16 0 0 0 8.5-.8c7-3.7 8-10 8.7-14.6.6-5.3-.3-8.6-.3-8.6s12-15.8 15-28.2c0 0 .8-2.2.4-4.6" stroke="#000" stroke-width=".3"/><path d="M190.5 37.6a49 49 0 0 0-21.1-5.2l.8-2.9h.2a42 42 0 0 1 18.7 2.8l-.6-.4a46 46 0 0 0-17.7-4h-.3l.5-2.5h.2a41 41 0 0 1 14.5 2.3l-.6-.5a42 42 0 0 0-14-3.2q.1-2.5-.9-4.4a16 16 0 0 0 5-9.4v-1L175 9l-.1-.1-.2-.2h-.1l-.1-.2h-.3l-.2-.1h-.2c-6 0-10.9-2-10.9-2l-.4-.2a109 109 0 0 0-39.3-6c-5.5 0-9.5.5-9.5.5-17.6 1.5-30.2 5.7-30.2 5.7s-4.8 1.4-11.2 1c0 0-2.4 0-2.8 1.5-.4 1-.5 2.1.4 4.6a48 48 0 0 0 5.3 8.4A206 206 0 0 0 .5 82.4s6.2-1.6 16-2.8C35.7 43.2 83.6 20 83.6 20c-3.2.3-5.8.8-5.8.8a33 33 0 0 1-8-10s-.3-.6-.3-1v-.1q.5-.9 1.7-.6h.2c2 .3 7.5 1.7 15.2.9C95 9 98 6.5 97.7 5.9c0 0 6.3-3 14-3.5 7.9-.5 18.2 1.7 22.3 7q1.2 1.4 1.4 2.3a2 2 0 0 0 .3-1.5c-.2-2-2.7-4.3-5-5.6-2-1.1-7.1-3-4.2-2.9s17.8 2.4 23.5 6c3.4 2.3 3.8 4.6 3.8 4.6s4.2-1.8 9 .2 6 4.5 6.9 6.2c0 0-.5-5-4.8-8.3l2.7-.2h1l4.6-.7q1.6-.2 2 .7l-.1.3-.1.3s-1.8 5.3-5.1 7.7l-.2.2s-5.2-1.2-10-.4-5.6 3.2-5.6 3.2 5.8 2.1 6.5 6.6a10 10 0 0 1-3.6 9s6.5-2.6 6.2-8.9q-.2-3-2.4-4.4s1.9.6 3 1.5l1.4 1.5.7 1.2q.4.7.5 1.7c.5 2.3-.3 4.5-.3 4.5-3 12.4-15 28.2-15 28.2 9-7.8 15.1-21.4 17.8-28.4a54 54 0 0 1 22.1 4.2l-.5-.6" stroke="#0085ca" fill="#0085ca" stroke-width=".3"/></svg>