<svg id="prefix__Layer_1" data-name="Layer 1" xmlns="http://www.w3.org/2000/svg" version="1.1" viewBox="0 0 2500 2500"><defs><style>.prefix__cls-2{fill-rule:evenodd;stroke-width:0;fill:#d7712c}</style></defs><path d="M1169 264.8c27.2 5.8 55 9.4 82.8 13.9 5.2-6.5 12.9-5.8 19.7-9.1 124.3-51.1 271.5-84.1 412.6-56 33 8.4 67 14.9 97.7 30.1-6.5 4.2-18.1 3.2-19.7 11.6 7.1 9.7 21.3 5.8 30.1 8.4l28.1-2.6c3.2 1.6 6.8 1.6 9.4 4.9-.3 6.8-9.7 14.6-1.3 21 23 4.2 50.5 1.3 73.5 2.3-9.1 9.1-23.6 9.7-30.4 19.7 10.7 5.8 24.9 2.9 36.3 7.1 25.2 12.9 47.2 36.9 68.6 58.2 14.9 12.6 22.6 33 43 34.9 43.4 6.1 80.3-11 123.6-8.4 20.7-4.2 38.5-1 60.5 1.3 38.5 5.2 78.6 33.3 92.2 71.2 9.4 5.8 5.8 16.8 8.1 25.6.3 34.3-17.8 61.2-23.3 93.2-20.4 70.9-97.7 97.1-157.3 120 1.9 12.3 12.6 21 17.5 32.4 59.9 119.1 58.9 264.7 59.2 406.7l-1 1c-9-2.3-17.8-8.1-26.8-6.8 24 69.6 54.7 161.1 13.9 233-26.8 46.9-45.9 96.7-65 146.6-11 18.4-20.4 37.5-32.7 55-5.8-3.2-2.9-14.2-7.1-20.1-8.4 11-6.2 28.5-12.6 40.8-2.9 6.2-7.1 11.6-14.2 12.9-1.3-7.1-1.3-15.2-3.2-22l-3.6 3.2c-5.5 30.1-13.2 62.5-43 79.3 2.6-11.3 10.7-20.7 9.1-33.7-1.9-5.2-5.5 0-8.1 0-21.7 44.4-70.2 44-108.4 58.3-60.5 12.6-125.2 23.6-164.1 81.5-58.6 70.2-100.3 155-176 210.7-8.7 5.8-19.7 7.1-27.8 14.2-2.3 76-27.8 142.7-58.3 207.1-34.3 63.1-101.6 90-172.5 86.4-91.9 2.6-200.6-4.9-243.4-101.3-33.3-76-58.6-155.3-99-228.5-19.1-36.3-56-72.8-98.1-75.7-97.4-15.9-178.6-77-252.7-144.3 9.1-30.8 1.6-64.1-23.3-84.1-28.8-20.4-74.4-15.2-106.1-4.5-10.7-7.1-18.1-19.8-25.6-30.4-39.2-61.8-56-133.7-67.6-207.1-29.8-25.3-70.2-50.2-68.6-93.2 1.3-20.7 10-38.5 18.8-56-2.9-24.9-9.1-48.5-8.4-74.7-42.1-64.4-12.9-154.3-11.6-228.1.3-27.5-1-57.3-26.5-71.2-3.2-1.9-9.7-.3-9.4-5.8 13.9-53.4 50.2-97.7 64.1-151.4 4.2-19.4 3.6-41.4 3.6-62.8-18.8-13.6-40.8-18.8-59.5-32.7-23-13.3-47.9-32-62.8-54.7-26.9-34.3-33.7-88.7-16.5-129.4 12.9-35 46-69.6 81.6-81.5 28.5-18.1 60.2-29.5 89.6-45.3a260 260 0 0 1 166.7-5.8c22.6-8.4 40.1-28.5 67.6-25.6 11.6-2.3 24.6-.3 34.9-5.8-5.2-11-19.1-17.8-23.3-29.1 27.5 0 52.7 9.1 79.3 8.1v-2.3c-13.9-10.3-28.8-18.4-43-28.1a696 696 0 0 0 102.2 18.8c2.6-1.6 2.6-3.9 1.3-5.8-9.7-10-21.7-16.5-30.4-25.6l1.3-3.6c72.2-28.1 159.9-40.1 238.8-21 68 13.3 130.4 38.2 196.8 54.7Z" fill="#2b1c5c" fill-rule="evenodd" stroke-width="0"/><path d="M445.7 1215.4c-7.8 29.8-28.8 53.4-48.9 78 1.9-59.5-1-123.9 11.6-180.6l4.5-10.3c21 32.3 43.7 70.2 32.7 112.9Z" fill-rule="evenodd" stroke-width="0"/><path d="M1942.7 1609.3h1v2.3h-1z" fill-rule="evenodd" stroke-width="0" fill="#fff"/><path class="prefix__cls-2" d="M953.4 783.1a72 72 0 0 1-19.7 22.3 111 111 0 0 1-9.4-30.4c11.3-1 21.7.3 29.1 8.1m-273.7 241.1c33.3 72.2 106.8 119.4 177.3 141.1 2.9 5.8-1 11.7-1.3 17.5-13.3 76.4 7.1 150.5 18.8 222.6 8.7 37.2 19.1 73.8 29.1 110.7-5.8 1-12.6-2.6-18.8-4.9-71.8-35.6-60.8-122-82.8-186.4-7.8-23.9-14.9-48.5-35.9-67.6-5.2-3.2-10.3 2.9-12.9 7.1-6.8 23.3-1.3 42.7-4.5 67.6-4.9-.6-8.1-5.8-10.7-9.4-23.6-31.1-19.7-73.8-35-108.4-7.1 5.2-7.4 15.2-10.3 23.3h-2.3c-11.6-19.7-14.2-43-25.6-62.8-.6-1.6-2.6-1.3-3.6-1.3-7.8 11-8.7 24.6-15.2 36.2-11.3-7.4-9.1-23.6-9.4-35l-1-1.3 4.5-38.5-2.3-2.3c-8.4 2.6-6.1 12-13 16.5l-1-3.6c2.9-26.5 3.9-55 3.2-81.5l-1-1.3c3.2-2.3-1.3-3.9 0-6.8 4.5-35.6 12-69.9 29.1-100.3a549 549 0 0 0 24.3 68.6Zm550.1 623.2c47.9 8.1 78-58.9 126.8-27.8 15.5 57.3 27.5 117.5 25.6 180.6.7.7 1.6 1.3 1.3 2.3 0 2.9.3 9.1-1.3 13 2.3 70.5-7.4 138.8-13.9 207.4 32-22.3 41.4-60.2 54.7-93.2 10.7-27.2 18.7-55 28.1-82.8 14.2 55.7 12.9 122.3 1 178.3-6.8 25.9-22.3 55.3-50.2 65.1-18.1 10.3-43-5.8-59.2 9.4-9.1 3.2-17.5 8.1-26.8 10.7-51.1 20.1-116.5 15.2-159.5-18.8-23.9 5.5-50.2 6.1-69.9-9.4-31.7-33-31.7-83.8-26.9-128.2l-1.3-1c3.9-17.1 5.2-34.6 9.4-51.5 5.5 2.3 3.9 9.4 5.8 13.9 17.5 43 16.5 104.2 71.2 121.3 6.5 9.7 5.2 22.3 10.3 32.7 11-8.4 23-14.2 34-23.3 15.2 3.2 26.2 17.8 43 17.5a59 59 0 0 0 31.4-17.5c13.9 2.6 25.6 10 38.5 14.9 18.4-9.4 36.3-21 54.7-31.4l-3.6-3.6c-22.6 0-45.9-5.5-66.3 3.6-14.2-.7-23.9-12-36.2-17.5-22 12-51.1 16.8-76.7 9.4l-3.6-3.6c-47.9-120-97.4-273.1-38.5-404.2 6.8-6.8 6.5-22 19.7-19.7 32.6 6.8 43.3 51.5 78.3 53.4Zm-44.4 575.7a382 382 0 0 0 229.4-23.3h4.5a41 41 0 0 1-19.7 44.3c-53.1 29.4-122 31.1-185.1 25.6-31.7-7.1-71.5-19.1-80.6-56a32 32 0 0 1-3.2-18.8 167 167 0 0 0 54.7 28.2"/><path class="prefix__cls-2" d="M911.7 250.8c9.7 2.6 21.3-.3 31.4 2.3 5.8-.3 15.5 1 22-1 94.5 8.1 184.8 26.5 271.5 53.4 11.6 47.9 22.3 96.1 21 149.2-3.9 47.6-6.2 97.4-13 142.1h2.6c30.8-30.4 63.4-66.7 101.3-85.1a45 45 0 0 1 23.3-1c21.3 18.4 8.1 56.3 38.5 68.6 45 16.8 78.6-21 115.2-39.5a296 296 0 0 1 237.5-36.2c3.2-2.3-.7-4.5-1-6.8-59.6-75.4-157.3-98.7-246.9-74.8-54 7.4-94.5 54-154 40.8a67 67 0 0 1-47.6-41.7c-8.4-23-1-47.9 11.6-66.7 80.3 28.8 178 11.6 243.3-34.9-32 1-65.1-1.3-97.7-2.3-28.5-5.5-58.2-7.1-85.1-16.2 14.2-13.9 35.9-15.8 54.7-21 101.6-14.6 221.3-9.4 308.7 42.1 29.4 17.8 49.8 47.2 52.4 80.3 23.6-.3 51.1-1.9 68.9 15.2 12.6 10 20.4 24.3 29.1 37.2 78.3-18.1 170.5-31.1 249.2-4.5 23 5.2 44.6 13.9 66.3 22 25.2 5.8 47.9 18.4 77 15.2a59 59 0 0 1 1 30.1c-3.6 12.9-6.2 26.2-11.6 38.5-43-14.9-93.2-5.5-139.8-8.1-64.4-2.9-131.4-1-180.6-42.1l-2.3 2.6c-15.2 54-17.5 122 32.7 160.5 25.6 24.3 56.6 34.9 87.4 46.6 8.4 1.9 18.4 2.9 23.3 10.7 48.5 109 70.9 255 30.4 375l-17.5 45.3c41.4 87.4 20.7 202.5 4.5 294.8 3.5 14.6 12 30.4 7.1 45.6l-11.6 27.8c-12-12.9-18.8-30.4-29.1-45.3-95.8 12-126.8 145.9-228.4 139.8-27.2 1.9-52.7-6.8-77-15.2-5.5 6.8-3.6 17.1-5.8 25.6-4.9 23.6-12 46.3-25.6 66.3-12.9-12-24.6-24.3-38.5-35.9-5.2 9.7-7.8 20.7-11.7 31.4-38.2 85.4-102.2 161.1-171.2 233h-2.3c-5.5-17.5-33.3-34-12.9-53.7 46-106.1 128.2-198.7 125.9-323.9-3.2-34.6-13.9-67-35-93.2-7.1 14.6-13.6 35-32.7 38.5-39.8 12-67.3-23.6-100-32.7 26.8 34 42.7 81.5 25.6 124.9-10.7 52.7-40.1 97.4-73.4 140.7-1.3-34.6 2.6-70.5 1.3-104.8 0-39.8-2.3-81.9-18.8-116.5l-4.5 1.3c-12 15.5-22.6 30.1-35 45.3h-2.3c-5.8-21.7-.3-49.5-18.8-65.1-10.7 7.8-22 14.2-32.7 23.3-17.5-.7-36.9-20.1-51.1 1l-19.7-6.8c-10 2.6-18.4 9.1-29.1 9.1l-31.7-27.8c-22 17.8-23.3 48.2-35.9 72.2-27.5-18.8-34.3-53.4-58.2-75.7h-2.3a359 359 0 0 0-34 114.2c-2.6 33 0 69.2-1 100.3-42.7-69.3-82.2-166.7-34-245.9-78-46.3-65-148.5-56-224.9-6.1-2.6-17.5 1.6-18.4-8.1 1.9-18.1 8.4-34 17.5-48.9-2.6-5.2-6.8 0-10.7-1.3-6.1-1.3-15.5-.6-17.5-9.4 1-21.4 19.7-36.6 29.1-53.4-1.9-4.9-7.1-2.3-10.3-4.9-4.5-4.5-10-8.4-9.4-14.9 13.6-43.7 50.2-77.7 77-115.5a256 256 0 0 0 33.7-58.2c-54.7-9.1-93.8 45.3-126.8 82.8-18.5 15.5-43.4 25.9-67.6 17.5-12-7.8-13.3-23-10.3-36.2 1.9-11.6 9.4-21 11.6-32.7-13.3-10.4-25.6-23.3-26.9-39.5l3.6-8.1c14.6 16.5 33.7 23.3 52.4 31.4.6-6.8-8.1-12.6-11.6-18.8a65 65 0 0 1-12.9-19.7c16.5 8.1 32 18.1 51.1 19.7a56 56 0 0 0 45.6-5.8c20.1-13.6 26.8-34.9 32.7-55.7l2.3-18.8c12.3 12.3 17.5 29.8 24.3 45.3 16.2-8.1 34.6-20.4 53.7-10.4 30.1 9.7 46 43.7 61.8 68.6 12-17.1 15.2-39.8 15.2-62.8-4.5-59.5-69.6-72.5-110.7-91.9 32-22.3 68.9 0 97.7 13.9 1-3.6-1.6-8.4-2.3-12.9-12.9-46-54-92.9-103.9-99-35.3-12.3-85.8-.3-105.8-37.2a42 42 0 0 1 19.7-36.2c21.7-12 46.9-15.9 71.2-22-19.1-12.3-39.5-21-59.5-30.4a440 440 0 0 0-57-18.4c-62.4-11-123.9 11-159.9 65-52.7 72.2-18.1 186.4-105.8 237.8a231 231 0 0 1-45.6 17.5l-2.3-7.1c-8.4-109.4 23.6-207.7 77-294.8 1.3-.3 1-2.3 1-3.2-31.4-1.3-56.6 13.6-78 33.7-9.4 11-21.4 21.3-24.3 34.9 3.9 4.5 10.3 4.5 13.9 10.4 2.6 30.7-28.5 45-48.9 59.5-1.3 15.9 25.9 6.5 18.5 23.3-24 26.9-57.9 51.1-52.4 88.7 12.3-6.1 22.3-20.7 35-22.3 3.9 5.2-1.3 14.2-3.6 21-9.1 25.9-23.3 49.8-29.1 77l-1 90.6c4.5 38.5 4.9 80.3 8.1 117.8l2.3 2.3c13.6-12 27.8-27.2 42.1-39.5 2.6 11.3-4.5 23.6-4.9 35.9a659 659 0 0 0-4.5 129.4c-.3 30.1 4.2 60.5 9.4 89.6 23 138.5 100.6 263.4 219.1 353 50.8 39.5 106.5 67.6 163.1 93.2 2.6 20.7 2.3 44-14.2 57-26.5 14.2-55.3-.6-78.9-10.4-28.8-13.2-54.7-33.3-81.5-50.2-18.8 2.6-22 25.9-28.2 40.8-7.8-13.3-7.8-32.3-13.9-47.6-3.6-11.6-1-28.1-13.9-34-7.1 8.1-8.1 19.4-13.9 28.1-16.8-21.3-19.1-50.5-34-73.5-22.7-22-46.3-44.3-66.3-69.9-13.3-5.8-27.5 1.6-40.8-3.5-62.8-24.3-73.1-92.6-87.4-147.9l-10.3-79.3c-5.5-7.1-8.7 3.5-14.2 3.5a164 164 0 0 0-33.7 41.7c-4.9-23.3-10.3-49.5-4.5-74.4-2.3-6.8 2.9-12.9 4.5-19.7-14.2-1.3-29.4 2.9-43-3.6-20.1-22.3-14.2-57.6-18.8-87.4 5.5-21.3 18.8-39.5 28.1-59.5l67.3-128.1c.3-41.1-4.9-71.5-4.5-112.9-8.1-127.5 4.5-262.4 101.3-348.2 7.8-4.2 14.6-13.9 5.8-21-31.7-47.9-81.2-91.3-143.3-79.3a99 99 0 0 0-66.3 51.4c-11.3 35.9 7.4 71.2 30.4 99-43-16.5-101.6-40.8-106.1-95.8-3.2-46.9 20.1-86.1 44.3-123.3 15.9-8.4 30.4-22.3 51.1-15.2 40.5-.3 81.5 4.5 121.3 9.4l76.7 17.5c29.8 10.7 60.5 19.4 87.4 37.2 1.9 0 5.2.3 4.9-2.3l-10.7-64.1c19.7-16.5 45.9-22 68.9-32.7-1-4.9-8.1-5.5-11.6-8.1-9.4-2.6-19.4-3.9-28.1-8.1 5.5-4.9 14.6-.6 21-3.6 23.3 2.6 47.2 3.9 69.9 8.1l2.3-2.3-10.3-10.7c30.1-2.9 56 1.3 86.1-3.2 40.5-2.6 80.3-4.9 119.1-9.4v-2.3c-15.8-14.9-34.9-31.4-49.2-46.6l22.3-1.3Zm271.5 298.4c-3.9 36.2-9.1 84.8 4.5 119.7 12.6 15.9 28.5-1.6 42.1-4.5a16 16 0 0 1 19.7 10.4c9.1 41.1-10.4 76-17.5 113.2-5.2 4.2-11-2.9-16.5-3.6-18.4-7.1-37.9-13.6-55.7-22.3-11.6-61.2-49.5-116.8-102.6-156 75.4-72.5 114.9-161.8 109.4-269.2 46.3 55.7 28.8 145.6 16.5 212.3Zm185.1 550.7c4.8 13.6 11.6 26.2 10.4 42.1-2.6 14.9-6.2 31.1-19.8 39.5-23.6 3.9-46.3-3.2-60.5-23.3-6.8-11.6-6.8-27.8-4.5-41.7 10.7-16.2 25.2-43 48.9-37.2 10 3.2 18.8 12 25.6 20.7Zm-287.7-45.3c-1.6 6.5-1 13.9 1 19.7a40 40 0 0 0 32.7 18.8c20.4-4.9 45.9-10.7 64.1 3.6 18.1 17.5 22.3 41.7 19.7 66.3-10.3-1-20.7-8.4-31.4-2.3-12.9 5.5-11.3 19.1-16.2 29.1-21.3-8.4-40.1-23-60.5-34-12.6 8.4-14.9 25.2-11.6 39.8a72 72 0 0 0 49.8 37.2c26.9-2.3 60.8-18.8 84.1 2.3-4.5 14.6-10.7 27.8-16.5 42.1 8.7 5.2 14.9 0 24.6 0 22.3-2.3 58.2-13.6 73.5 10.4 2.9 8.1 2.9 17.8 4.5 26.9 11.6-22.3 23.6-43.7 33.6-66.3 1.9-13 13.6-18.1 24.6-21 36.2-15.5 73.1-48.9 74.4-90.9v-17.5c17.5 21.3 29.8 47.9 21 77-10.7 30.4-36.5 54.7-51.1 83.8 6.5 1.9 12-4.9 18.4-5.8 5.5-3.6 11-7.8 17.5-8.1a65 65 0 0 1 16.5 68.6c-12.6 29.4-37.5 56-63.1 78 6.8 11 21 18.8 31.7 28.1-39.8-.3-85.4-3.9-128.1-5.8-46.6-1.6-96.4 1.3-138.8-1.3-32.7 2.3-69.9 4.5-102.6 7.1 8.7-7.1 18.4-13.9 25.9-22.3-21-13.9-61.2-6.5-61.8-43-48.2-111.6-7.1-241.4 53.4-335.6 3.6-6.5 11.6-10.3 14.2-17.5.3 11.6-5.8 22-3.6 32.7ZM1979.8 754c10.4 34.3 12.9 71.8 17.5 108.4.3 141.1-37.5 271.8-93.2 392.5 7.8 2.3 15.5-3.2 23.3-4.5 61.5-26.8 82.5-90.9 97.7-146.9 24.9 32 46 67.6 68.9 101.3-49.9 41.4-48.9 105.8-56 165.7-17.5 42.1-65.4 65.4-102.6 87.4 11.6-23 31.4-47.5 18.7-74.8-4.8-2.6-4.8-9-10.7-9.4-35.9 38.2-54.7 84.8-87.4 123.6-2.6-1.9-5.2-.7-5.8-4.5 1-15.2 8.4-31.7 2.6-45.6l-8.4 3.5c-26.5 27.8-44.7 62.5-73.1 86.1l-2.6-2.3c-.7-13.3 6.8-24.9 2.6-38.5-8.7 3.5-13.3 13.2-20.1 20.1-16.2 22.6-27.8 47.5-45.3 69.9-2.6-35 1.9-80.6-12.9-114.2-13.3-27.2-25.3-72.2-65.1-71.2-28.5-3.5-54.7 6.2-81.5 9.4 8.7-64.4 6.5-136.6-8.1-196.7 15.5 30.4 44.7 65 82.5 64.1 90-11.3 154.7-105.8 195.8-178.3 10.4-27.8 27.8-55.3 21-87.4-28.8 34.6-67.6 56.3-112.9 46.6-55.4-11-100.6-46.9-144.6-85.1l2.3-2.3q48.3-6.2 95.8-17.5a171 171 0 0 0 70.9-28.1 38 38 0 0 0 9.4-24.3c-7.4-25.9-30.4-48.5-51.1-65.4-2.6 8.1-8.7 14.2-14.2 21a442 442 0 0 1-87.4 52.4c23.6-28.1 57-55 46.6-94.5a79 79 0 0 0-70.9-49.8c-16.8 1.9-34.3 3.6-45.6 16.2 6.5 3.9 17.8-3.2 21 5.8 3.9 7.4 6.2 15.2 10.7 22 17.5-.6 39.5-34.6 52.4-2.3a64 64 0 0 1 5.8 39.8c-4.5 14.9-18.4 33-35 35.9a78 78 0 0 1-69.9-19.7c-13.9-13.3-17.5-32.7-15.2-51.1-14.2 12-22.6 29.8-30.4 46.6q-8-7.6-18.4-10.7c-31.7 7.4-42.7 41.4-50.2 67.6a503 503 0 0 0-8.1 90.9c-23.6-54.7-34.3-115.5-68.9-166.6-9.4-11.6-21.7-20.4-37.2-19.7-14.9 2.3-26.8 12.3-38.5 22 28.5-75.1 57-150.2 86.4-224.9 10.7 13.3 15.5 32.7 35 34.9 32-2.3 55-26.9 82.5-40.8a94 94 0 0 0 65.4 45.6c28.2 5.5 59.6 9.1 76.7 35.9a98 98 0 0 1 12.9 36.2c-15.5 1-28.8-6.8-44.3-2.3-34 1-67 12.9-83.8 44.3-6.1 9.4-7.4 22.3-8.1 32.4 17.1-19.1 35.6-43.4 60.5-51.1 23-7.8 48.9-4.9 73.5-2.3 9-14.9 23.9-30.7 43-29.1 33.7 6.5 57.6 41.4 79.3 65 18.4 3.2 39.5 6.1 51.1-11.6 12.3-26.9 0-58.2-21-79a226 226 0 0 0-111.6-60.8c-16.8-2.9-36.5-.6-51.5 0 12.6-27.5 39.5-53.1 69.9-57 34.3 0 62.8 14.2 88.7 33.7 15.5-1 31.1-1.9 43-11.6 4.5-8.1-1.9-17.5-8.1-24.3 87.1 16.5 163.1 95.5 186.4 179.3Z"/></svg>