<svg xmlns="http://www.w3.org/2000/svg" xml:space="preserve" viewBox="0 0 378.8 266.5"><path d="M340 128.8c-2-1-1.7-3-.2-4A64 64 0 0 0 368.4 71C368.4 41.4 347-.2 264.3-.2H50.4L2.1 84h35.4c3.9 0 7.1 3.2 7.1 7.2v84c0 4-3.2 7.2-7.1 7.2H-.6l48.7 84h226.3c73 0 104.5-38 104.5-78.7 0-27.2-19.3-49.2-38.8-59" fill="#fff"/><path d="M213.8 115h-35.2V81.3c0-3.5 2.9-6.4 6.5-6.4h28.7c16.8 0 23 8.5 23 19.7 0 11.9-6.3 20.4-23 20.4m0 77.8H185a6.3 6.3 0 0 1-6.5-6.6v-33.7h35.2c16.8 0 23 8.3 23 19.9s-6.3 20.3-23 20.3M314 131.2c-2.5-.6-2.1-3.7-.2-4.4 23-8.8 36.7-24.4 36.7-52 .3-36.8-32.2-62.2-85.2-62.2H64L28.8 75H53a9 9 0 0 1 8.8 8.8v100.5A9 9 0 0 1 53 193H29l35.5 61.9h210c60 0 84.6-40 84.6-69.1a57.5 57.5 0 0 0-45.4-54.6" fill="#fb4f14"/><path d="M132.5 237.5c-37.2-70-47-150-33.1-225H64L29 74.8h24a9 9 0 0 1 8.8 8.7v77a276 276 0 0 0 70.5 76.5zM308.8 20C266 83.3 243 163.8 253.4 237.5a275 275 0 0 1 97.5-160v-1.9c.2-25.3-15.1-45.3-42-55.3zm-71.6-6.9a548 548 0 0 0-19.6 62.4l-3.3-.1h-28.7a6.3 6.3 0 0 0-6.3 6.2v33.8h30a476 476 0 0 0-4.7 37.5h-25.5v33.7c0 3.8 3 6.5 6.5 6.5h17.7q.3 30.5 5.8 61.9H183c-20.7-49.9-49.2-133.7-20.9-242.5h75"/></svg>