<svg xmlns="http://www.w3.org/2000/svg" xml:space="preserve" viewBox="0 0 285.7 220.9"><defs><clipPath id="a" clipPathUnits="userSpaceOnUse"><path d="M.2 160h610v471H.2z"/></clipPath><clipPath id="b" clipPathUnits="userSpaceOnUse"><path d="M0 0h612v792H0z"/></clipPath><clipPath id="c" clipPathUnits="userSpaceOnUse"><path d="M.2 160h610v471H.2z"/></clipPath><clipPath id="d" clipPathUnits="userSpaceOnUse"><path d="M0 0h612v792H0z"/></clipPath><clipPath id="e" clipPathUnits="userSpaceOnUse"><path d="M.2 160h610v471H.2z"/></clipPath><clipPath id="f" clipPathUnits="userSpaceOnUse"><path d="M0 0h612v792H0z"/></clipPath></defs><g clip-path="url(#a)" transform="matrix(.47 0 0 -.47 .8 296.3)"><path d="m593 184-.3-.2.8.6zm-244 28s-15.9-2.1-28.6.5c-32-49-119-45.6-171-4.3l-3 2.1c-3.6-2.7-19.2-13.6-49.1-18.2-25.1-4.8-35.4 11.4-32.4 22.5a170 170 0 0 0-12 31.2 30 30 0 0 0 .1 14A317 317 0 0 0 31.4 312c-90.2 288 285 408 407 191q3.5-.1 4.6-2.3l3.3 1.4 14.7-33.2c-1.8.4-6.8.8-8 .9v-.2l-2.5.2-1.2.1c-3.2 9.8-7.3 22.3-10.2 29.6-1.6.4-4.5.4-5.2.4v-.2c2.3-4.2 9-25 11.4-30.9 3.1-8 2.9-12.4 2.9-12.4l-14.6.3a45 45 0 0 1-4.3 12.3l-5.4 11-1.5 3.1-5.6 12v-.1c-.7 1.3-1.7 4.2-2 6.5-1 7.7 6.6 7.7 6.8 7.7 4 0 7.1-1.5 10.3-6h2c-4.5 9-7 11.8-10 16.8-56.7 80.8-151 105-234 84.5 105 15.4 185-29.8 225-97.4l-11.6-5.8h-6.9c-2.5-.2-4.8-.4-3-6.3 1.2-4.4 1.6-5.4 2.6-8.1 1.2-3.3 5-13.1 7.8-21.5l-3-.6q-.6 2.2-1.6 4.7c-3.3 8.3-7.2 19-8.4 22.8-.6 1.9-1.5 5.5-.4 8.6 0 0-4-3.1-.4-11.6l9-24.9-3.7-.7a426 426 0 0 1-68.9-19s-11.2-4-19.2-10.4l-.4-.6q-3.6-1.1-6-4.2c-1-.9-3.7-3-4.8-4.3a129 129 0 0 1-9.4-11.7c-3-4.5-14.1-22-24-38a10 10 0 0 1-6.1-10.6l-14.6-23.6a9 9 0 0 1-6.9-4.2 169 169 0 0 0-11.8-19c-.9-1-2.9-4.7-2-8.9l-.7-1.5-18.4-27.5a7 7 0 0 1-.8-7c1.6-3.3 5.4-5.7 9.3-6q3.2-.2 5.5 1.5l98-16.3 4.8-.8 7.7-1.2q3.3-.7 6.2-1a81 81 0 0 0-8-29.8l1.7-.2c27-2.2 46.3 2.6 59.7 11.7q1.7-3.3 3.6-6.4a82 82 0 0 0-40.3-12.4zm109 233c.5-5.5 0-12.2-2.7-17.3a21 21 0 0 0-17.5-11.4l-.9-.1-1.8-.2 37-87.6c-5.5-1-11.4-1.4-11.4-1.4l-35.8 84q-1.4-1.4-1.8-2.2l-1-1.2a59 59 0 0 1-11.5-28.4c17-26 39.6-35.7 39.6-35.7l5.7-13.8c-22.6 6.5-41.4 27-46.7 33.2v-1.7a133 133 0 0 1 3.2-30q1.5-5 2.8-10.1l-7.7-.8q-2.6 10.3-6.3 18.9c-12.8 30.2-47.6 16.4-45.2-1.8l-29.5 65.1c3 3.4 9.4 9.8 19.6 16.3a82 82 0 0 1-20.3-14.7l-7.2 16c5.2 3.3 10.5 6.7 17.2 9a376 376 0 0 0 66.7 18.5c.6-10.7-4.8-14.7-14-16.7-6.1-1.2-11-1.4-13.5-2.3l5.7-.2c.3 0 6.7 0 15.5 3 5.8 2.2 10.2 6.2 8.3 16.7l3 .6c1.6-10 .1-19.6-19.2-21.5 3.3-2.3 33.4 3.3 51.5-.9.5-.2 8-2.8-.6-6.6 16.8 3.8 17.7 20.5 14.5 33l.7-.2a75 75 0 0 0 8-1l5.5-.7c12.5-1.2 11.4 13.6 4.8 15.5-5 1.5-6.3 1.5-7.5 1.7l-1.8.2-15.6 34.8 8.7 4 22.4-40.2c10.4-16.5-6.9-23.3-16.3-18.3a11 11 0 0 1-4.4-3.6zm41.8-112c-7.5-1.9-24.9-3.8-24.9-3.8l-3.6 8.2c18.2-2.5 31.8-1 31.8-1-3-.5-3.3-3.4-3.3-3.4m16.3 2.3a8 8 0 0 1-4.6 1.9h.2c5.5-.4 22.2 1.2 22.2 1.2-3.2-1.2-17.8-3-17.8-3zm37.1-1.5c.2-1-.3-4.4-4.1-5.1l-1.4-.3a215 215 0 0 0-17-4c-4.3-.8-8.3-1.6-7.9-1.3-.9 2-1.5 4-4.1 9 7.5 1.3 17.2 3.3 23.9 5.3 2 .6 6 1 6 1 3-.4 4.3-2.2 4.6-4.6m35-124c0 2.5-3.9 7.1-10.6 8.5v5.7c-1.7 17-7.9 48-7.9 48 9.5 3 8.7 22.3-7.5 22.2-3.9 17.6-9.5 31.6-9.5 31.6 8.8 4.8 4.7 12.8-.2 14.3 0 0 8.8 2 12.8-13.3 14.7-41.2 26.1-97.6 22.8-117zM568 275s-4.8-2.5-26.9-6.4l-2.6 10.4s18.7 3.9 26 6.6c0 0-.2 2.4-3.8 2.4 0 0-19-4.8-23.4-5.3l-1 3s16.3 3 21.7 4.4c0 0 11.5 4 14-4.9 0 0 2.5-7.5-4-10.3zm5.2-77.2L548 191c1 4.6.8 11.9.8 11.9 37 7.9 1.9 11.3 1.9 11.3 8.1-2.5 8-5.5 8-5.5-3.6-.2-9.9 1.7-9.9 1.7a154 154 0 0 1-.4 11.7c9.6-4.2 11-3 21-5.2 10.3-2.3 5.3-6.5 5.3-6.5-5.2-6.5-24.4-9.2-24.4-9.2 32.2 4.2 29.2 13 29.2 13 13.2-8.6.2-14.7-6.5-16.6zm-257 187 30-66.3a65 65 0 0 0-32.4 12.3c-3.5 18-4.5 36.5 2.4 54m-3.8 8.3 2-4.5c-9.1-17-9-36.2-5.5-54.3l-.9.7-3.5 3.4c-8.1 7.8-19 18.9-26.4 26.7l27.3 43.3zM309 431a6 6 0 0 0 2.7-.5l50.9-113s-7-.3-12.5.8l-47.1 103q-1.5 2.9 0 5.6a8 8 0 0 0 6 3.7zm119 15.7s3.8 2.6 4 5.3h13.2s-3.3-6.3-17.2-5.3m43.1 17.3h.3c2.2-.4 3.5-3.2 3.3-5.6-.1-1.2-.9-4-5.2-4-4 .8-14.1 1.8-19.4 2.3 0 4.3-2.7 10.7-2.7 10.7 5.8-.6 20.6-2.3 23.7-3.3zm-63.3 37.7 3.8 2 .3.1c-.2-.4-.2-1.4-.2-1.4 0-1.3 0-2 1.4-5.8 2.2-6 13.8-29.9 15.1-33.4 6.7-17.3-10.6-20.6-12.4-12.9 18.4 1.4 10.9 20.6.5 17.9-4 9.8-7.1 19.6-7.1 19.6s-4 10.7-1.4 13.9m-3-1.4c-1.5-5 1.5-12.7 1.5-12.7l7.1-20-3.7-.7s-4.7 12.8-7.6 21.7c-2.2 6.8-.6 10-.6 10zm12-35.7c3.6.5 6.6-2 7-4.5.3-2.2-.9-4.9-5.2-5.6l-2-.4c-26.6-5.3-56.6-11.3-81.8-21.6a54 54 0 0 1-16.6-8.6s-2.5 5.3-3.4 6.9c-1.4 2.4-1.6 2.7-2.7 3.3a88 88 0 0 0 14.7 7.5 475 475 0 0 0 90 23m-118-39s-.1-2.8 1.3-5.7c1.2-2.4 3.6-8.3 3.6-8.3.4.4-5.3-6.8-8.6-11.8L275.7 368l-5.2 5.7s-2.2 2.7-4.3 2.7c10.1 16.4 19.4 31 22.5 35.8 3.3 5.4 11.2 14.7 10.1 13.5zm89-165s-4.6-1-12.5-.3c-3.8 7.1-8 16.8-18.5 40 7.2-.8 12.7 0 12.7 0zm31.2 37v-1.8l54.8-9.4c1-3 5-12 5-12L419 284.6v-1.9a94 94 0 0 0-3-19.6l-8-.8c4 13 4.4 27.2 2.6 41.1l7.6.9zm78.4-22.7-4.2 9.6c14-.2 24.1 0 24.1 0 1.7-6.2-4-6.5-4-6.5l-15-3zm-2.7-.8c-2-.9-11-2.2-11-2.2-2.2 4.2-16.1 38.2-16.1 38.2l11 1.7c7-19.7 16.2-37.8 16.2-37.8zm-260 22.3 26.2-16c10.6-6.8 18.8 3 21.4 6.4 2 2.6 8.1 11 8 18-.3 7-5.6 10.7-10.3 13.8L258 333l10.3 16.7c10-10 21.3-20.7 21.4-20.8a88 88 0 0 1 25.4-19.3c4.4-13.4 9.2-25.3 11.2-34-1.7 10.2-4.7 21-7.7 32.3a97 97 0 0 1 35.2-7.3l.7-1.6a67 67 0 0 0-22-30.2l.2-1.7-9.1 1.4-7.1 1.2-3.5.5-86.7 13.8zm4.1 29c8.2-5 25.4-15.4 30.3-18.2 5.3-3 6.4-4.4 6.4-4.4 6.2-5.9 5-11.7 2-15.8-3.4-4.6-10-7.5-15.4-3.9l-7.4 4.6-2.7 1.6-23 14.1-.1.1s-3.9 1.8-4.9 5.3q-.9 3.6 2.3 8.2a163 163 0 0 1 8.3 12.6 12 12 0 0 1 4.3-4.2zm13.7 1.1 24.6-16.5c3.7-2.6 7.3-7.2 5.2-13.3-.4 5.8-7.5 10.3-7.5 10.3s-26.4 15.6-34.5 20.6c-4.6 3-4.1 7-1.7 9-.4-6.3 9.3-11.3 14-10.1zm26.1-14.3L255 327.8l2 2c8.5-5.5 19.6-12.9 24.4-16.5 8.6-6.5 4-14.4 4-14.4.8 4.8-1.3 9.5-6.8 13.2zM257.1 361c3.3-4.6 8.7-9.4 8.7-9.4l-13.4-21.3c-1.8-1.4-5.6 0-8 2.3-.5.5-3.1 3.2-1.6 5v.2l.2.1c.2.3 3 5.2 14.2 23.1zm-46.9-90.3c-2.7.2-5.4 1.9-6.4 4q-1 1.9.4 3.8l17.5 26.8c1-2.1 10-7.4 10-7.4l-17-25c-1.2-2-3.1-2.2-4.5-2.2m194-34-2.5 4.4-1.2 2.4 3 .4 6.4.6a64 64 0 0 0-5.7-7.8m88.8 18.7 11.8 2.5c10-15 26.1-25.9 26.1-25.9.4-3.7.8-13.4.8-13.4-25.3 12.3-38.6 36.8-38.6 36.8zm38-67.6c-27-7-56-7.4-80.4-.9-22.1 5.8-48.3 18.7-62.9 50.9 0 0-1.9 3.5-2.3 5.2 0 0 7.5-.2 12.3.2 22.6-48.3 80.7-57.4 131-44.6 0 0 4.6.8 5.9 2.2 1 2.4.9 8.6.9 8.6 0 1.4-1.2 31.2-6.7 51q-.9 3-1.7 3.8s-1.5.7-2.6.7a31 31 0 0 1-6.1-.7c-30.7-7.3-78.3-13.4-116-17.2q-.3-.2-8-.6l-4.1-.1c-7.1-.1-17.2.3-30 2.3 0 0-140 22.8-139 22.8l7.6 10.3 135-22a109 109 0 0 1 30.4-1.6c36.3 2 103 12 120 16.3 0 0 8.8 2 9.9 3.2.7.7-1.1 7.3-1.1 7.3-.1.2-6.7 21.7-10 30v-.2c0 .4-1.4 5-3 5.7h-1l-4.3-1c-31.7-5.7-89.5-13.7-123-15.8 2.9.1-13.8-.6-26.7.3-18.5 1-39 5.6-59.4 27.8-.3.2-22.8 21.7-32 31.7a6 6 0 0 0 1.4 8.6c1.7 1.3 5 2 6.9-.2 4-5.4 26.8-29 38-39.4a68 68 0 0 1 39-16.8c9.4-1.2 20.6-1 21.2-1 23-.6 107 9.6 131 14.5 3 .4 5 1.1 5 1.1v1.5c0 .4 1.5 1.6 2.7 2a7 7 0 0 0 7.8-1c17.6-32.3 34.9-92.4 30.9-138-.2-2.3-1.2-4.3-3-5.2 0 0-4-1.8-8.1.2 0 0 .1-.3-4.3-1.8zm80.3 31.8v.5a437 437 0 0 1-25.4 115l-.2.4-.2.4-1.6 4 .2-.4q-9.1 23.3-36.8 19.9l-8.3-1-3.4-.2a300 300 0 0 0-52.4-1.5L461 409.3a32 32 0 0 1 14.9 22.1c6.8 1 13.3 4 17.9 9 6.8 7.4 10.6 20.7 1 36l.5-.9-29.8 53.8-17.6-7.5c-72 113-207 131-306 88-90.4-39-178-142-127-303Q23 281.2 35.1 257q-.8-7.5 1-15v-.4l.1-.2c2.6-9.8 5-16.2 11-29.6-.3-8.8 3-17.8 9.3-24.6 10-10.7 25.7-15 43.2-11.5l-.8-.2a130 130 0 0 1 46.2 14.6 169 169 0 0 1 121-28.5 100 100 0 0 1 62.2 33.1c11.2-.7 21.3.5 23.3.7q18.6 1.4 33.8 7.8a116 116 0 0 1 59.3-36.3c28.3-7.5 60.3-7 90.8 1.2 5.9-.5 11.7 1 15.8 3 32 7.3 39.2 10.4 43.9 14.4l.1.2c11.4 7.8 15.1 22.5 14.7 33.3" fill="#fff"/></g><g clip-path="url(#b)" transform="matrix(.47 0 0 -.47 .8 296.3)" fill="#ff3c00"><path d="M291 191a67 67 0 0 1 25.1 22.2q4.3 6.3 6.6 13A69 69 0 0 0 291 191m-13 174c7.3-7.8 18.2-18.9 26.4-26.7a96 96 0 0 0 .1 35 68 68 0 0 0 7.8 19.8l-7 15.3-7-10.9-20.3-32.4m26-58.1c4.8-10.3 9.7-23.3 12.5-37.7l7-1.1-2 9.7c-1.3 6-6.6 18.5-11.3 33.8q-10.3 6-20.4 16.7c-.2.1-11.6 11-21.5 20.8l-10.2-16.7 22-14.5c4.7-3 10-6.8 10.1-13.7.3-7-6-15.4-8-18-2.5-3.5-10.7-13.2-21.3-6.5 0 0-15.4 9.6-26.2 16l-8.4-12.3 86.7-13.8c-1.8 13.7-6.3 26.2-9 37"/></g><g clip-path="url(#c)" transform="matrix(.47 0 0 -.47 .8 296.3)" fill="#ff3c00"><path d="M340 420a94 94 0 0 0 40.5 13.1l5 .7c3.4.5 10 1.9 11.8 5.2q1.6 3 1.3 7.7a378 378 0 0 1-63-17.7c-6.8-2.5-12-5.9-17.3-9.2l5.5-12c5 4.9 10.2 8.4 13.9 10.7z"/><path d="M194 277q-3.5-1.2-7.4-1.1c-7 0-14.1 3.2-19.4 8.7-10.3 10.7-11 27.3-1.5 36.9q6.6 6.6 16.3 6.6c7 0 14.1-3.2 19.4-8.7s8-12.6 8.2-19.5zm35-24.3c-19.3-20.5-57.7-20.3-79.5 7.6 36.9-34.2 71.3-11.6 79.5-7.6m-56.8-31a9 9 0 0 0-6.2-1.7c-2.6-1.6-6.7-.7-9.5 2.3-2.7 2.8-3.5 6.5-2.2 9-.5 4.1.7 8.2 3.6 10.2 4.4 3.1 11 1.2 14.8-4.2s3.6-12.2-.5-15.6m90.8 36.5a11.6 11.6 0 0 0 4.5-22.2 7.4 7.4 0 0 0-12.2 2 12 12 0 0 0-3.9 8.6c0 6.4 5.2 11.5 11.6 11.5zm123 243a7 7 0 0 0 2.4 2.2c-33 56-112 114-216 97-99.5-32-177-130-143-268a314 314 0 0 1 49.8-107s-.8-12.7 21.1-6c20 6 32 6.4 52.7-9 36.1-27 98.3-39.2 138-18.4a68 68 0 0 1 31.7 35.1c2.8 8 3.6 16 3.3 23.6l-7.7 1.3c-1.7-32.8-34.2-64.3-92.3-60.7-24.2.9-50 12.7-65.5 21-7 4.8-27 16-36.7 18.2 8.4-.5 29.2-11.4 38-16.4a169 169 0 0 1 64.1-19c38.8-3.7 82.8 16.2 87.5 57.7l-98 16.3a9 9 0 0 0-5.5-1.5c-4 .3-7.8 2.7-9.3 5.9a7 7 0 0 0 .7 7.1l18.4 27.5.8 1.5c-.9 4.2 1.1 7.9 2 8.8 1.5 1.5 10 15.3 11.8 19a9 9 0 0 0 6.9 4.3l14.6 23.6a10 10 0 0 0 6 10.6l24 38c3.6 4.9 6.3 8 9.5 11.7 1.1 1.3 3.7 3.4 4.8 4.3q2.4 3.1 6 4.1 0 .3.4.7c8 6.4 19.2 10.5 19.2 10.5 15 6.2 41.6 13.5 68.9 18.9l-8 22.9c-.3.7-4.5 9.3-1.1 14.5"/></g><g clip-path="url(#d)" transform="matrix(.47 0 0 -.47 .8 296.3)"><g fill="#2b1d14"><path d="m313 270 3.4-.5a171 171 0 0 1-12.5 37.7c2.8-11 7.3-23.4 9.1-37.1M226 194c-21.3.9-46.3 9.8-64.2 19-8.7 5-29.6 16-37.9 16.4 9.6-2.1 29.6-13.3 36.7-18.1 15.4-8.4 41.3-20.2 65.5-21.1 58.1-3.6 90.6 27.9 92.3 60.7l-4.8.8c-5-41-49-61-88-58M182 328c-6.2 0-12-2.3-16.3-6.7-9.4-9.6-8.8-26.2 1.5-36.9a27 27 0 0 1 19.4-8.7q3.8 0 7.4 1.2l15.5 23c-.1 6.8-2.9 14-8.1 19.5a27 27 0 0 1-19.5 8.7"/><path d="M150 261c21.8-27.9 60.1-28.1 79.5-7.6-8.2-4-42.6-26.6-79.5 7.6m113-5a9.5 9.5 0 0 0 6.5-16.1c2.7 5.8.5 13.3-6.7 13.6-7.5.3-10-7.2-8.6-11.1-2.6 2.4-1.7 13.6 8.8 13.6m3.7-8.4c-1.6 1.8-5.7 2.7-8 1.1-1-.6-2.2.2-.8 1.6 2.6 2.3 7.5 2.2 9.8-1.2 1.1-1.7-.1-2.8-1-1.5m-5-12.7a6.3 6.3 0 0 0-6.2 6.4c0 3.5 2.8 6.3 6.2 6.3a6.3 6.3 0 0 0 0-12.7M255 238a7.4 7.4 0 0 1 12.2-2c4.1 1.7 7 5.8 7 10.6A11.5 11.5 0 1 1 255 238"/></g><g fill="#fff"><path d="M258 251c-1.3-1.4-.2-2.2.8-1.6 2.3 1.6 6.4.8 8-1 1-1.4 2.1-.3 1 1.4-2.2 3.4-7.2 3.5-9.8 1.2"/><path d="M263 254c7.2-.3 9.4-7.7 6.7-13.6 6.3 6.5 1 16.1-6.5 16.1-10.5 0-11.4-11.2-8.8-13.6-1.3 4 1.1 11.4 8.6 11.1"/><path d="M262 237a5 5 0 1 0 0 10 5 5 0 1 0 0-10m6.3 5c0 3.5-2.8 6.3-6.2 6.3a6.3 6.3 0 0 1-6.3-6.3c0-3.6 2.8-6.4 6.3-6.4 3.4 0 6.2 2.8 6.2 6.4"/></g><path d="M258 241q.2.7.6-.2c1.3-2.1 5.2-2.3 6.3-.6.6.8.6-.3.6-.3-2.4-4.8-7.9-1.8-7.5 1.1m3.7 5.2a5 5 0 1 1 0-10 5 5 0 1 1 0 10" fill="#2b1d14"/><path d="M265 241c-1.1-1.7-5-1.5-6.3.7-.2.5-.5.8-.6.1-.4-2.8 5-5.8 7.5-1.1 0 0 0 1.2-.6.3" fill="#fff"/><path d="M170 222c7.7 10-7.3 21.7-13.2 12.4 5 15.1 24.8-3.9 13.2-12.4m-1.9 7.9c-.8 1.6-3.2 3.7-4.6 4s-.9 2.5.8 2c1.6-.6 4-2.6 4.6-3.6 1.5-2.5-.1-3.8-.8-2.4m-10.3-6.9c-2.7 2.9-3.2 6.8-1 8.8 2 2 6 1.3 8.7-1.5s3.1-6.8 1-8.8-6-1.3-8.7 1.5m.7 18.3c-2.9-2-4.2-6-3.6-10.2-1.3-2.5-.5-6.2 2.2-9 2.8-3 6.9-4 9.4-2.3q3.7-.3 6.3 1.7c4.1 3.4 4.3 10.2.5 15.6s-10.4 7.3-14.8 4.2" fill="#2b1d14"/><g fill="#fff"><path d="M164 236c-1.7.6-2.2-1.7-.8-2 1.4-.2 3.8-2.3 4.6-4 .7-1.4 2.3-.1.8 2.4-.6 1-3 3-4.6 3.6"/><path d="M156 235c6 9.3 20.9-2.4 13.2-12.4 11.6 8.6-8.3 27.6-13.2 12.4"/><path d="M165 223c-1.8-1.3-4.7-.2-7 1.8-2.3 2.1-2.5 5.4-.9 7 1.9 1.8 5 .7 7-1.5 1.6-1.8 3-5.8.9-7.3m0 8.2c-2.6 2.8-6.5 3.5-8.6 1.5-2.2-2-1.7-6 1-8.8s6.6-3.5 8.7-1.5 1.7 6-1 8.8"/></g><path d="M164 223c-3.6-.3-6.8 4-5.5 6 0 0 1 1.3 1.2 0 .3-2 2.5-4.3 4.7-4.9.5-.1.7-1-.4-1.1m-6.4 8c-1.6-1.6-1.4-5 1-7 2.2-2.1 5.1-3.2 6.9-1.9 2 1.6.7 5.5-.9 7.3-2 2.2-5.1 3.3-7 1.6" fill="#2b1d14"/><path d="M159 230c-.2 1.3-1.2-.1-1.2-.1-1.3-2 2-6.3 5.5-6 1.1.2 1 1 .4 1.1-2.1.6-4.4 2.9-4.7 5m-18-19 2 1.5c-9.8 6.3-22 10.3-42 3.8q-.6 0-1-.3c4.8 1 11.4 2.1 15.5 1.8a42 42 0 0 0 20.3-5.8l-3.6-2c-17.4-8.4-32-10.8-40.3-11.4s-6.6 4.2-1.3 7c3 1.4 5.5 4.3 6.6 9.5-1-.5-1-.3-2.2-.5h-.2c-1.7-12.8-26.8-11.5-24 5.9L65 232.2c0-.2-.5 2.7-.3 2.8 0 0 6.2-10 8.7-13.1-3.4-12 14-16.8 18.7-8-15.3-2.8-16 5-15.7 7.7l-.3 1.2A186 186 0 0 0 55 255.1c-1.4-10.6 10.6-35 11.6-37.4l1-2.5c-3.6-10 6.8-23.1 25.5-20.1a113 113 0 0 1 47.8 15.8" fill="#fff"/><path d="m399 243 1.2-2.4q1.2-2.3 2.5-4.3 3 3.6 5.7 7.8l-6.3-.7zm9 19 8 .8a95 95 0 0 1 3 19.6v1.9l59.6-10.1s-3.9 8.8-5 11.9l-55 10v1.7l-.6 6.7-7.6-.8a100 100 0 0 0-2.6-41M304 338l3.5-3.3 1-.7c-3.6 18-3.7 37.2 5.4 54.3l-2 4.4q-5.2-8.4-7.8-19.8a96 96 0 0 1-.1-35m20-69.9 9.1-1.4v1.7a67 67 0 0 1 21.8 30.2l-.7 1.5-1.4.1c-10.5.6-22 2.2-33.7 7.2 3-11.3 6-22.2 7.6-32.3-2 8.8-6.8 20.6-11.2 34l-4.8 2.6c4.6-15.3 9.9-27.9 11.2-33.8z" fill="#2b1d14"/><path d="M405 352c-3.6 16.8.2 48 12.5 56.9-17.5-2.1-22.4-46-12.5-56.9" fill="#fff"/><path d="m346 318-30.1 66.3c-7-17.5-6-35.9-2.4-54A64 64 0 0 1 346 318m59 34c-9.9 10.9-5 54.8 12.5 56.9-12.2-8.9-16.1-40.1-12.5-56.9m57.9 96.7c9.5-5 26.7 1.8 16.3 18.3l-22.4 40.3-8.6-4 15.6-34.8 1.7-.2c1.3-.2 2.6-.3 7.6-1.7 6.6-2 7.7-16.7-4.8-15.5l-5.6.6a73 73 0 0 1-8 1l-.7.2c3.2-12.4 2.3-29.2-14.5-33 8.7 3.9 1 6.5.7 6.7-18.1 4.1-48.2-1.4-51.5.8 19.3 2 20.8 11.5 19.2 21.5l-3-.6c1.8-10.5-2.5-14.4-8.3-16.6-9-3-15.2-3-15.5-3l-5.8.2c2.5.8 7.4 1 13.5 2.3 9.3 2 14.7 6 14 16.7l-3.6-.8q.3-4.6-1.3-7.6c-1.9-3.4-8.4-4.7-11.8-5.2l-5-.7a96 96 0 0 1-40.5-13.1l-2.3-1.6a75 75 0 0 1-13.9-10.7l1.8-3.9a79 79 0 0 0 20.3 14.7 97 97 0 0 1-19.6-16.3l29.5-65c-2.5 18.1 32.4 32 45.2 1.7q3.7-8.6 6.3-18.9l7.7.8q-1.2 5.1-2.9 10.2c-1.8 7.7-3.2 18.5-3.1 30v1.6c5.2-6.1 24-26.6 46.6-33.2l-5.6 13.8s-22.7 9.7-39.6 35.7l.6 2.9c2 9.5 5.3 18.5 10.8 25.5l1 1.3 1.9 2.1 35.8-84s6 .4 11.4 1.4l-37 87.6 1.8.2.9.1 1.2.1a21 21 0 0 1 16.3 11.3 32 32 0 0 1 2.7 17.3q1.3 2 4.3 3.6" fill="#2b1d14"/><path d="M245 306c-.8-10.4 8.7-12 14-10 1.2-8.4 8.5-8.7 12.1-8a10 10 0 0 0-14.6 7c-6.7-2.1-14.3 3.3-11.5 11m1.9 2.2c1.6 1.4 2.9 2 5.3 1.9a14 14 0 0 1-1.6-6.4c-.5.4-.9.4-1.4 1v-1.8q.5-.7 1.5-1.2-.1-2.2.4-3.7l-.9.5c-5 2.8-3.3 9.7-3.3 9.7m8.3 1.6c3.6-1.2 6.2-4.3 6-7.6h.4c-.2-2.3-2.7-5.5-7.8-4.8q-.3 1.5-.3 3.2 1.2-.5 2.7-.4l.1 1.5q-1.4.1-2.9.8.1 4.1 1.8 7.3m8.5-7.8c7.2.3 12.9-7 9.2-12.3l-1.3-.2q-9.4-1.2-11 7.3c1 .7 2.7 2.7 3 5.3zm-8.5-9.2 1.2-2.6a9 9 0 0 1 3.2-3.3c9.6-5.7 15 1.6 15 1.7.1 0 4.5 5.8-2 12-.1.2-4 3.7-9.4 3a11 11 0 0 1-11.4 8.2h-.1c-6.4-.5-8-4-8.6-6 0 0-1.7-4.3.7-8.2 0 0 3.2-6.2 11.4-4.9" fill="#fff"/><g fill="#2b1d14"><path d="M425 491c-2.1 1.4-5.4 6-4.9 9.8 5 0 6.5-7.3 4.9-9.8m5-13a13 13 0 0 0-4 9.2c3.9-.8 6.3-5.7 4-9.2m-21 10s3.1-9.8 7.1-19.6c10.4 2.7 18-16.5-.5-17.9 1.8-7.7 19.1-4.5 12.4 12.9-1.3 3.5-12.9 27.5-15 33.4-1.5 3.8-1.5 4.5-1.5 5.8 0 0 0 1 .2 1.4l-.3-.1-3.7-2C405 498.7 409 488 409 488"/><path d="m402 488 7.6-21.7 3.7.7-7.1 20s-3 7.7-1.4 12.7l-3.4-1.6s-1.6-3.3.6-10m26-42.1c13.9-1 17.2 5.2 17.2 5.2H432c-.2-2.6-4-5.2-4-5.2m-162-70c2 0 4.3-2.7 4.3-2.7l5.2-5.7 19.4 31.8c3.2 5 9 12.2 8.6 11.8 0 0-2.4 6-3.6 8.3-1.5 3-1.2 5.7-1.2 5.7 1 1.3-6.9-8-10.1-13.5A1452 1452 0 0 1 266 376m246-39c.5 0 2.5-.3 4.5-1.9 0 0 14.6 1.9 17.8 3.2 0 0-16.6-1.7-22.2-1.3m-.1 0h-.1zm5-53h-24.1l4.2-9.5 15.8 3s5.8.3 4 6.5M479 312l-11-1.7s13.9-34 16.1-38.2c0 0 9.2 1.3 11 2.1 0 0-9 18-16.2 37.8m24.1-55-11.8-2.5s13.4-24.4 38.6-36.8c0 0-.3 9.6-.8 13.4 0 0-16 10.9-26 25.9m76-43s3-8.8-29.2-12.9c0 0 19.2 2.7 24.4 9.2 0 0 5 4.2-5.2 6.5-10 2.2-11.5 1-21.1 5.2 0 0 .6-9.4.4-11.7 0 0 6.3-1.9 9.8-1.7 0 0 .2 3-8 5.5 0 0 35.2-3.4-1.8-11.4 0 0 .2-7.3-.8-11.9 0 0 19.2 5 25 6.8 6.7 1.8 19.7 7.9 6.5 16.5M357 300c10.6-23.2 14.7-32.9 18.5-40 8-.6 12.6.3 12.6.3l-18.4 39.6s-5.4-.8-12.7 0M303 427q-1.5-2.7 0-5.6l47-103c5.6-1.1 12.6-.8 12.6-.8l-52 113c-.1.1-1.3.5-2.7.5a8 8 0 0 1-6-3.7"/><path d="M542 189q2.8 1.6 3 5.3c4 45.4-13.3 106-30.9 138-2.5 2-5.5 2-7.8 1-1.1-.5-2.6-1.7-2.6-2l-.1-1v-.5s-1.9-.8-5-1.2c-24.6-4.8-108-15-131-14.5-.5 0-11.7-.1-21.2 1-17.4 2-26.4 7-38.9 16.8a605 605 0 0 0-38.1 39.4c-1.9 2.2-5.2 1.6-6.9.2a6 6 0 0 1-1.3-8.6c9-10 31.6-31.4 31.9-31.7a81 81 0 0 1 59.4-27.8c13-1 29.7-.1 26.7-.3a1258 1258 0 0 1 127.3 16.8h1.1c1.5-.7 3-5.3 3-5.6v.1c3.3-8.2 9.8-29.8 10-30 0 0 1.7-6.5 1-7.3a49 49 0 0 0-9.9-3.2 953 953 0 0 0-120-16.3c-.2 0-9.8-1.5-30.4 1.6l-135 22-7.5-10.2 139-22.8c12.7-2 22.8-2.5 30-2.4l4 .1a1027 1027 0 0 1 124 17.9s3.5.7 6.2.6l2.5-.6q1-.7 1.7-3.9c5.5-19.8 6.7-49.6 6.7-51 0 0 .1-6.2-.9-8.6-1.3-1.3-5.8-2.1-5.8-2.1-49.8-12.8-108-3.8-131 44.6-5-.4-12.3-.3-12.3-.3.4-1.7 2.3-5.2 2.3-5.2 14.5-32.2 40.7-45 62.9-50.9 24.4-6.4 53.4-6 80.4 1 4.3 1.4 4.2 1.7 4.2 1.7 4-2 8-.2 8-.2"/><path d="M243 306c.7 2 2.2 5.5 8.7 6 8 .2 10.9-6 11.5-8.2 5.3.6 9.2-2.9 9.4-3 6.4-6.3 2-12.1 2-12.1s-5.4-7.4-15.1-1.7a9 9 0 0 0-3.2 3.3l-1.2 2.6c-8.2-1.3-11.3 4.9-11.4 5-2.4 3.7-.7 8.2-.7 8.2zm-8.3 23.3c-1-1.8-3.4-5.7-8.2-12.6q-3.3-4.5-2.3-8.1c1-3.6 4.8-5.3 4.8-5.4h.1l23-14.1 2.7-1.7 7.4-4.6c5.5-3.6 12-.7 15.4 4 3 4 4.2 9.8-2 15.7 0 0-1 1.4-6.3 4.4-5 2.8-22.1 13.2-30.3 18.3 0 0-3.3 1.9-4.3 4.2M282 313c-4.8 3.7-15.9 11-24.4 16.4l-2-2 23.6-15.6c5.5-3.8 7.7-8.5 6.8-13.2 0 0 4.7 7.8-4 14.4"/><path d="M241 328c8.1-5 34.5-20.6 34.5-20.6s7.1-4.5 7.5-10.3c2.1 6.1-1.5 10.7-5.2 13.3l-24.6 16.5c-4.6-1.2-14.3 3.9-14 10.2-2.5-2.1-3-6.1 1.7-9M261 297q1.5-8.5 10.9-7.3l1.3.2c3.6 5.3-2 12.5-9.2 12.3-.4-2.6-2-4.5-3-5.2"/><path d="M257 295a10 10 0 0 1 14.6-7c-3.6-.6-10.9-.4-12.1 8-5.3-1.9-14.9-.4-14 10-2.8-7.6 4.8-13 11.5-11m286 42c-6.7-2-16.4-4-23.9-5.2 2.6-5 3.2-7.1 4.1-9.1-.3-.2 3.6.6 7.8 1.4a177 177 0 0 1 17.2 4l1.3.2c3.8.7 4.3 4.2 4.1 5.1q-.3 3.8-4.6 4.7s-4-.5-6-1.1m15-47c-5.4-1.3-21.7-4.4-21.7-4.4l1-3a341 341 0 0 1 23.4 5.3c3.7 0 3.8-2.3 3.8-2.3-7.3-2.8-26-6.7-26-6.7l2.6-10.4c22.1 4 27 6.4 27 6.4 6.4 2.7 3.9 10.3 3.9 10.3-2.5 8.8-14 4.8-14 4.8"/><path d="M565 327c-4 15.2-12.8 13.3-12.8 13.3 4.8-1.5 9-9.5.1-14.4 0 0 5.7-14 9.6-31.5 16 .1 17-19.2 7.5-22.3 0 0 6.1-30.9 7.8-47.9.2-3.1 0-5.7 0-5.7 6.8-1.4 10.7-6 10.7-8.6 3.2 19.5-8.2 76-22.8 117M472 337l3.6-8.1s17.4 1.8 24.9 3.7c0 0 .2 3 3.3 3.4 0 0-13.6-1.5-31.8 1m-240-39s-8.8 5.3-10 7.4l-17.4-26.8q-1.4-2-.4-3.8c1-2.1 3.7-3.8 6.4-4 1.4 0 3.3.2 4.5 2zm80 136c1.2-.7 1.4-1 2.8-3.4l3.3-6.9a55 55 0 0 0 16.6 8.7c25.2 10.2 55.2 16.2 81.8 21.6l2 .4c4.3.7 5.5 3.3 5.2 5.6-.4 2.5-3.3 5-6.9 4.5a484 484 0 0 1-90-23A85 85 0 0 1 312 434m-69-96c-1.6-1.9 1-4.6 1.5-5 2.4-2.4 6.2-3.8 8-2.4l13.4 21.3s-5.3 4.8-8.7 9.4l-14.2-23zm204 129s2.7-6.3 2.7-10.7c5.2-.5 15.5-1.5 19.4-2.3 4.3 0 5 2.8 5.2 4 .2 2.4-1.1 5.3-3.3 5.6h-.3c-3 1-17.9 2.8-23.7 3.4M256 301q-1.6 0-2.7.4 0-1.6.3-3.2c5-.7 7.5 2.4 7.8 4.8h-.4c.2 3.3-2.4 6.4-6 7.6q-1.7-3.1-1.8-7.3 1.5-.6 2.9-.8z"/></g></g><g clip-path="url(#e)" fill="#2b1d14" transform="matrix(.47 0 0 -.47 .8 296.3)"><path d="m250 299 .9-.5q-.4 1.4-.4 3.7-1 .5-1.5 1.1v1.8c.5-.6 1-.6 1.4-1a14 14 0 0 0 1.6 6.4c-2.4.2-3.7-.4-5.4-1.8 0 0-1.6-6.9 3.4-9.7"/><path d="M435 481c1.3-5.8-2.9-9-7-4.1q-2.4 2.8-3.3 6.2l-.1.4c-.7 3-.4 5.5-.4 5.5a19 19 0 0 0-4.5 6c-2.5 7.3 0 9 1 9.4 4 1 9.7-5 9.3-14 2.3-2.2 3.9-4.3 5-9.4M55 255a196 196 0 0 1 21.2-32.4l.3-1.2c-.2-2.7.4-10.5 15.7-7.7-4.7-8.9-22.1-4-18.7 8-2.5 3.1-8.6 13-8.6 13-.3 0 .3-2.9.2-2.7l5.7-11.7c-2.8-17.4 22.3-18.7 24-6l.1.1c1.3.3 1.3 0 2.2.5a13 13 0 0 0-6.5-9.6c-5.4-2.6-7-7.4 1.2-6.8 8.3.5 22.9 2.9 40.3 11.4l3.6 2a43 43 0 0 1-20.4 5.7c-4 .3-10.7-.8-15.5-1.8l1 .3c19.8 6.6 32.1 2.5 42-3.8l-2-1.5c-8.8-6.3-29.5-14-47.8-15.8-18.7-3-29 10.1-25.4 20.1l-1 2.6c-1 2.4-13 26.8-11.6 37.4zm405 214-14.7 33.2-3.3-1.3c-.8 1.5-2.2 2-4.6 2.3-122 218-497 97-407-191A320 320 0 0 1 52 260c-.6-2.6-1.5-7.5 0-14 2.4-9.3 4.5-15 11.9-31.2-3-11.1 7.3-27.3 32.4-22.5 29.8 4.6 45.4 15.4 49 18.2l3-2.2c53-41.3 139-44.6 171 4.3 12.8-2.6 28.7-.5 28.7-.5a82 82 0 0 1 40.3 12.4q-2 3-3.7 6.4c-13.4-9-32.6-14-59.7-11.7l-1.7.2a81 81 0 0 1 8 29.7l-6.1 1c.2-7.6-.5-15.7-3.4-23.6a67 67 0 0 0-31.7-35c-40-21-102-8.7-138 18.2-20.7 15.5-32.8 15-52.6 9-22-6.6-21.1 6-21.1 6a310 310 0 0 0-49.8 107c-34.7 139 43.3 236 143 268 103 17.7 183-40.3 216-96.4a7 7 0 0 1-2.5-2.2c-3.3-5.2 1-13.7 1.2-14.5l8-23 3.6.8-9 24.9c-3.5 8.4.5 11.5.5 11.5-1-3.2-.2-6.8.4-8.7a496 496 0 0 1 10-27.4l3 .5c-2.8 8.4-6.6 18.2-7.8 21.4-1 2.8-1.4 3.8-2.7 8.2-1.7 6 .6 6 3.1 6.3h6.9l11.5 5.8c-40 67.6-120 113-225 97.5 82.9 20.2 177-3.8 234-84.5 3-5 5.5-7.8 10-16.8h-2c-3.1 4.4-6.3 5.9-10.1 6-.2 0-7.8 0-6.8-7.7.3-2.4 1.3-5.2 1.9-6.6l5.7-11.7 1.5-3.2 5.4-10.9s4-8 4.2-12.3l14.6-.3s.3 4.5-2.9 12.4c-2.2 5.8-9 26.7-11.3 31v.1c.7 0 3.5 0 5.2-.4a628 628 0 0 0 10.2-29.6h1.2l2.5-.3v.2c1.2-.1 6.2-.5 8-.9"/></g><g clip-path="url(#f)" transform="matrix(.47 0 0 -.47 .8 296.3)"><path d="M430 478a13 13 0 0 0-4 9.2c3.9-.8 6.3-5.7 4-9.2m-5.2 13.5c-2 1.4-5.3 6-4.8 9.8 5 0 6.4-7.3 4.8-9.8m10-10.1a16 16 0 0 1-5 9.4c.4 9-5.2 15-9.3 14-1-.4-3.5-2-1-9.3.8-1.7 1.9-3.8 4.5-6.1 0 0-.4-2.5.3-5.5l.2-.4q.9-3.3 3.2-6.2c4.2-4.8 8.4-1.7 7 4.1" fill="#fff"/></g><g fill="#311d00"><path d="M85.6 166.2a13 13 0 0 1-9.9-12.7c0-2.5.1-3.3 1-5.2 2.7-5.2 8.8-7.2 14.3-4.6a14 14 0 0 1 7.7 10c.3 1.6.1 1.8-3.5 7.1-3.4 5.2-3.8 5.5-5.2 5.7-1.9.3-2.3.3-4.4-.2z"/><path d="M104.7 212.7a75 75 0 0 1-34-14.2c-1.2-1-1.3-1-2.3-.3-7 4.6-18.6 8.1-26.2 8.1-3.2 0-3.7-.1-6-1.3-3.3-1.7-4.6-3.6-5-7.4a22 22 0 0 0-2-7.1 31 31 0 0 1-3.7-13.7c.2-2.6 0-2.8-1.8-6.6-2-4.9-4.8-11.2-6.5-16.5-12.7-37.1-9.7-71.6 8.3-98.6q14.7-22 39.8-34.7a110 110 0 0 1 108 4.5 103 103 0 0 1 30.4 31.5c2.6 4.1 3.5 5 5.6 5 .7 0 1.4 1.6 4 7.3 1.8 4 3.2 7.3 3.1 7.4s-1.2 0-2.5-.2l-2.3-.2-2.2-6.6a47 47 0 0 0-2.6-6.9c-.2-.3-1-.5-1.6-.5q-1.3-.1-1 .6a259 259 0 0 1 6.4 18.3l.2 1.4h-6.6l-.2-1.3a98 98 0 0 0-4.3-9.5c-4.4-9.1-5-11.1-3.3-12.6q.9-.8 2.2-.8c1.4 0 3.7 1.2 4 2.2q.4.5 1.2.5c.8 0 .7 0-.5-2.2a103 103 0 0 0-22.6-26.4A103 103 0 0 0 93.2 12l-3 .8 2.2-.2 6-.6a111 111 0 0 1 48.4 6 106 106 0 0 1 27 15.3c3.8 3 9.9 9 13.4 13.1 2.5 3 8.3 11.3 8.3 11.8s-5 2.8-6.5 2.8q-3.7 0-3.7 1.6c0 .5 1 4.2 2.4 8.1l2.6 7.3-.5.2c-.8 0-5-11.9-5.3-14.6-.1-2.1-.2-2.3-.7-1.6-1 1.2-.6 3 1.9 9.7 1.2 3.6 2.2 6.6 2 6.7-.6.7-1.4-.8-3.4-6.6-2.4-7.2-2.7-9.3-1.4-10.7l.8-.9-2.7-4a104 104 0 0 0-54.4-39A104 104 0 0 0 93 13.5a48 48 0 0 0-18 3.8A99 99 0 0 0 21 66a101 101 0 0 0-9.8 53.7 146 146 0 0 0 23 65.2c2.1 3.4 4 6.3 4 6.7 0 .8 1.3 2.3 2.5 2.7 1.6.6 3.4.5 8.2-.8 3.7-1 5.4-1.3 8.7-1.3 5.8 0 8.3 1 17 7a77 77 0 0 0 25.8 10.6q18.3 3.7 32.5-1.3A30 30 0 0 0 154 182l.3-3 1 .3q1 0 1.2.3c.3.4-1 6.2-2 9.2l-1.3 3.9c-.5 1.6 12 1.3 18.7-.5 1.8-.4 4.7-1.5 6.6-2.4l3.3-1.7.7 1.4q.6 1.2.5 1.4c-.6.6-6.1 3-8.2 3.6a61 61 0 0 1-20.2 2l-3.3-.3-1.2 1.4q-12.4 15.5-36.4 15.3c-3 0-7-.3-9-.6zm-55.5-8.3a52 52 0 0 0 18.2-7l1-.7-2.6-1.2c-3.2-1.6-5.2-2-8.8-2-3 0-8.2.9-8.9 1.5q-.3.4 1 0a33 33 0 0 1 11.8.6c3.5 1 3.6 1.5.5 2.9a55 55 0 0 1-18.3 4.7q-3-.5.4-2.9 2-1.4 2.6-3 .6-1.5.5-1.8c-.4-.4-1.4.5-1.9 1.6-1.1 2.3-4.3 3.2-7 2q-3-1.1-3.4-4.6a17 17 0 0 0-1-3.6q-1.2-3 .6-.3a9 9 0 0 1 1.2 3.4c.2 1.5.5 2.2 1.4 3 2.1 1.9 5 2 7 .2l1-1h-2.4q-5.2 0-5.1-3.2c0-.4-1-2.1-2.3-3.8l-5.1-7.8-3-4.8c-.5 0 .3 4.4 1.2 7.4l2.8 7a15 15 0 0 1 1.7 6.2c0 2.3.6 3.8 2.2 5.3 3 2.8 7.3 3.2 14.7 1.8zM204.1 73.5c1.3-.8 1-4-.8-6.4a8 8 0 0 1-1.1-3c-.4-2.9-3-5.5-4.5-4.5-1.1.7-1 4 .4 5.8q1 1.7 1.3 3.1c.7 3.6 3 6 4.7 5"/><path d="M91.2 184.6h1.6q.4.1-1 .2-1.2 0-.6-.2m-15.7-6.4a27 27 0 0 0 11.4 5.6 24 24 0 0 0 19.2-4.4s-1.6.5-3.4 1.3a27 27 0 0 1-24.2-1 14 14 0 0 0-3-1.5m2 4.3-1 .1q-2.5.7-3 4.1c-.2 1.7-.2 1.7.5.8a2 2 0 0 1 1.7-.8q1 0 1.5-1 .5-1.2-.3-1a4 4 0 0 0-1.7.8q-2 1.3-.1-1c2.2-2.5 6.6 0 7.2 4 .1 1.3 0 1.7-.9 2.7q-1.1 1.3-.8.3.9-2.5 0-4.4-.6-1-1-1.2c-.4-.2-.1.4.2.8q1.2 1.8 0 2-.5-.1-.3 1.3t-.5 2.1c-.6.8-.6.8.4.8q1 0 2.3-1.1c1-1 1.3-1.4 1.3-3 0-3.4-2.8-6.3-5.6-6.3zm-2 5c-.3 0-1.3 1.2-1.3 1.6q0 .4.6-.3.7-.9.9-.2l1.4 1.8q1.3 1.5 1.3.4c.2-1-.6-2.4-1.8-3zm40.8-28.8c-8.7-5.3-10.3-6.5-10.3-8.1a18 18 0 0 1 2.5-4.7l2.4-3.7 1 1c.5.4 4.6 3 9.1 5.7a94 94 0 0 1 9.4 6c2.5 2.8 1.7 6.7-1.8 8.6-2.3 1.2-3.2.8-12.2-4.7zm12.9 2.6c2.2-2.3 1.2-6-2.1-7.2l-2.1-.7q-.6 0-1.2-1a6 6 0 0 0-4.7-2.6q-3.2 0-4.3 2.8a4.7 4.7 0 0 0 4.2 6.3q1.3 0 1.5.4.2.6 1 1.5a5.3 5.3 0 0 0 7.7.5m-31.6 7.2q-1-.7-.8-1.7a89 89 0 0 1 8.3-13q.4 0 1.4.9l2 1.4.9.7-4.2 6.1c-4 5.8-4.2 6.1-5.5 6.1q-1.2 0-2.1-.6z"/><path d="M119.7 156q-.2-.5.6-.5c1 0 1-.8 0-1q-1-.2-.6-1.3c.5-2.1.8-2.2 2-.9q1.2 1.1 1.3 2c0 1.7-2.8 3.2-3.3 1.8m-2.2-.8c-.8-.9-1-3.3-.4-3.7 1.4-1 2.1.1.9 1.4q-.8.6-.2 1.5c.6 1.1.4 1.7-.3.8m6.7 3.8-1-1.5q.3-.3.8-1.5c.6-1.5 1.2-1.6 3-.5q2.2 1.3 2 3.4c-.1 1-.3 1.1-2 1.2s-1.8 0-2.8-1.1"/><path d="M220.6 210.5a65 65 0 0 1-19.3-5.4 43 43 0 0 1-19.9-20.8l-.6-1.5h5.4l1 1.9a44 44 0 0 0 8.2 10.3 47 47 0 0 0 24.3 10.5c4.3.6 14.3.5 19.2-.2 5-.8 10.6-2 11.3-2.6 1.6-1.3-.6-23.8-2.8-29.1-.5-1.2-.7-1.3-2.1-1.3-.8 0-4 .5-7.1 1.1q-15.2 3.3-41.7 6.3a92 92 0 0 1-24 .5c-6.5-.8-67.8-10.8-68.2-11.2s2.6-4.2 3.3-4.2l32.8 5.4 32.2 5.3h8.2c4.5 0 10.4-.1 12.9-.4 21.3-2.3 42.7-5.6 49.9-7.7l2-.6-.2-1.8a138 138 0 0 0-6-18c-.7-.9-.7-.9-4.6 0-9.8 1.8-33.5 5-47.3 6.4-7.5.7-21 .8-25.7.2a40 40 0 0 1-18.3-7.7 277 277 0 0 1-20.5-20.7c-.4-1.4.8-3 2.3-3.2.8 0 1.4.3 3.6 2.7 6.1 6.7 16.1 16.5 18.7 18.3 7.5 5.2 13.7 6.5 28.4 6.2 11.2-.4 27.6-2 46.9-4.8 12.9-1.9 14.2-2.1 14.2-2.8q.1-.6 1.3-1.1c2.7-1.3 4 .3 7.9 9.8a134 134 0 0 1 10.1 48c0 6.4 0 7.4-.6 8.4s-1 1-2.8 1c-1 0-3.7.4-5.8 1a82 82 0 0 1-26 1.7zM254 168l-.6-2.3 5.8-1.4 6-1.7c.5-.4-.3-1.4-1-1.4-.5 0-3.2.6-6 1.3q-5.2 1.2-5.4.7-.4-.4-.3-.6c.5-.4 12.4-2.5 13.5-2.3 2.5.4 3.8 3.8 2.3 6-.8 1-5.8 2.5-12.4 3.7l-1.4.2z"/><path d="M275 195.5a7 7 0 0 0-2.3-1.2c-1-.2-1-.4-1-2.3 0-2-1.5-11.4-2.8-18.6l-.8-4 1-1c3.4-3.1 1.7-8.6-3-10-1.6-.4-1.7-.5-2.1-2.5l-2.2-7.2c-1.6-5-1.6-5-.8-5.5q1.9-1.5 1-4.3-.9-2.5 1.2-.3c1.4 1.6 1.8 2.7 4 9.6a226 226 0 0 1 8.3 34.2 57 57 0 0 1 1 14q-.4 0-1.5-1m-29.7-52.2-.7-2q.2-.5 1.8-.8 2.5-.4 6.7-1.4c5.1-1.1 5.9-1.1 6.7.5.5 1-.3 2.5-1.7 2.8l-5.5 1.2-5.6 1.2c-.8.2-1 0-1.7-1.5m-22.5-3-.5-1.5 6.7.1c5.1.2 6.4.4 6.2.8a30 30 0 0 1-9.2 1.9l-2.5.2zM191 143q-3-10.3-8.5-13a13 13 0 0 0-8.8-.5c-2.8 1-5.6 3.7-6 6l-.4 1.7-6.8-14.9-6.7-14.7 1.4-1.5c.8-.8 2.9-2.5 4.5-3.7s3-2.3 2.9-2.4c-.4-.2-3.5 1.7-6.3 4-2.3 1.8-3 2.2-3.3 1.8-1.1-1.8 10.3-9 17.6-10.9a71 71 0 0 1 7.8-1.5c6.1-1 8-1.7 8.8-3.4.3-.7.5-1.8.5-2.3q0-1 .6-1c.9 0 .7 2.6-.2 4.1-1 1.8-3.3 2.8-7.8 3.6-2.2.3-4 .8-4 1 0 .5 5.1 0 8-.8 4.5-1.1 6.2-2.9 6.2-6.5q-.2-2 .6-1.8c.5 0 .6.4.4 2.3q-.3 5.5-6.5 6.7-6.1 1.4 4 .9 22.7-1.1 18.2 2.7l-.9.7 1-.3A9 9 0 0 0 212 96c1.4-2 1.9-4.1 1.7-8.1l-.1-3.6 2.5.3c4.5.6 6.1.5 7.2-.6.8-.7 1-1.3 1-2.8 0-2.5-1-3.6-4.1-4.2l-2.4-.5-2.6-5.7-3.5-8-1-2.2 1.5-.8 1.9-.8c.2 0 3 4.7 6.2 10.5 5 9.2 5.7 10.6 5.8 12.2s-.2 2-1.2 3a6 6 0 0 1-6 1.7c-1.5-.4-1.9-.4-2.7.3-1 .6-1 1-1.2 4a10 10 0 0 1-9 10.3l-1.5.5L213 122c7 16.6 8.4 20.1 7.9 20.3l-2.5.4-1.8.2-7.5-17.6-8.4-19.7-1-2.2-1.1 1.4a30 30 0 0 0-4.6 9.2c-1.4 5-1.5 4.4 1.4 8.2a47 47 0 0 0 13.7 12c2.3 1.5 2.5 1.8 3.6 4.3.6 1.5 1 2.8.9 3s-2-.8-4.2-2a50 50 0 0 1-13.6-10l-3.6-3.3a59 59 0 0 0 2.5 19.3l-1.6.3-1.4.3zm-.6-12.5c-.6-1.8-.7-6.6-.3-10.1A27 27 0 0 1 195 106q1.9-2.3-.7-1c-3.6 2-6.4 9.3-6.4 16.8 0 4.3 1.3 9.3 2.4 9.3q.3 0 .2-.7m-32 15.5c-3.8-1-4.7-1.4-8-3.2l-2.7-1.6-.5-3c-.7-5-.9-10.6-.4-14 .5-3.9 1.6-7.7 2-7.3.3.3 12.4 26.8 13.3 29 .4 1 0 1-3.8 0m6.7.7c-.8-.6-22.6-48.4-22.6-49.5s1.7-2.7 3-2.7q.9 0 1.4 1l11.5 25.7 11.5 25.3c.3.6.2.7-1.9.7-1.3 0-2.6-.2-3-.5m-10.1 24c-2.3-.4-2.4-.4-2.7-2.3-.1-1-1.4-5.2-2.8-9.4s-2.5-7.8-2.3-8c.6-.7 1.5 1.1 3.7 7.8 2.4 6.9 3.6 9.7 3 7.3-.5-2.6-3-12.4-3.2-13s.2-.5 2.8.3a49 49 0 0 0 13.2 2.5c.7 1.1-4.3 9.3-7.6 12.3l-2.3 2.4q-.2.4-1.8.1m-50 36a69 69 0 0 1-30-10.5 22 22 0 0 1 4 1.7c19.5 9.2 37.8 10.5 52 3.5a31 31 0 0 0 13.8-12.2c1.4-2.3 3.2-7.6 3.2-9.4q0-1 1-1 1.2-.1 1 1.3c0 3-2 8.4-4.7 12.3-7.2 10.5-22.6 16.1-40.1 14.6zm17.7-23.2-1.1-.8c-.4-.3 1.3-1.7 2-1.7 1.4 0 3.1 2.6 1.7 2.6l-1 .3q-.7.2-1.6-.4"/><path d="M120 182c-.2-.6.5-3 1.1-3.5q.4-.2.2.4-.5.8 1.4.5 1.7-.3 2.4.3 1.2.7-1 .3-2.9-.3-3.4 1.7-.3.7-.6.3"/><path d="M119.3 182.7a5 5 0 0 1-.2-4.2q1-2 .3.8c-.4 1.2-.3 1.6.3 2.8q.6 1.2.5 1.6-.2.1-.9-1m7.2 1.1a5 5 0 0 0-.3-2.3q-.4-.8 0-.8t.4-1 .4 0c.3.3.4 1.4.3 2.4q-.2 2.8.8.9c.6-1 .5-3.3 0-4.4q-.4-.8-.2-1c.5-.4 1.5 2.8 1.2 4s-1.8 3.7-2.5 3.7q-.3 0-.1-1.5m46-18.3-4.1-9.2q.2-.3 2.6-.2h2.9l2.9 6.4 4.2 9 1.3 2.9h-5.6zm20 7.5.6-3.5a44 44 0 0 0 .4-9.1v-5.9l1-.2c2.2-.4 2.3-.3 2.3 1.7s0 2 1.2 2.2l13 2.3 11.6 2 1 2.3q.8 2.2.7 2.5c-.1.3-6.1-.8-13.4-2l-13.6-2.2q-.4.1-.6 3c-.1 1.7-.4 4-.7 5-.4 2.1-.4 2.1-2 2.1q-1.4 0-1.5-.2m-3.8 10.8-.6-1.4h1.7q1.6-.2 1.7 0 0 .4-1 1.5l-1.1 1.3zm38.3-16-3.6-8.8c-3.3-7.7-3.3-8.2-1.6-8.2.3 0 1.2 0 1.8-.2 1.2-.2 1.2-.2 2.9 4 .9 2.4 2.6 6.3 3.7 8.8l2 4.5-2.1.4-2.5.5q-.3-.1-.6-1m6.3-2.3-.8-2 5.5-.1c5.7 0 6.1.1 5 1.6a31 31 0 0 1-8.5 2.3q-.4-.2-1.2-1.8m12.8 26.6a52 52 0 0 1-14.4-15l2.6-.7c2-.4 2.5-.4 2.7 0a56 56 0 0 0 11 11c1 .8 1 1 1 3.6l-.1 2.8zm12 12c.1-1.4.3-2.6.5-2.7s1-.5 2.2-.7c3-.7 5.3-1.9 5.3-2.6s-2.2-1.7-5-2l-2.3-.2 1.7.8c2 1 2.2 1.8.4 1.4-2.6-.5-2.6-.4-2.7-3l-.1-2.6 1 .3c.7.4 3 1 5.5 1.4s5 1.2 5.2 1.5c1.9 1.5-1 3.6-7.4 5.4l-2.9.7 2.2-.2a35 35 0 0 0 5.3-1.2c2.4-.8 3.5-1.3 4.6-2.5l1.4-1.5.8 1q.9.9 1 1.9c0 2.1-2.2 3.2-10.4 5.4l-5.9 1.6c-.6.2-.6 0-.4-2.2M148.6 95l-1.2-2.4 2.8-1.3a168 168 0 0 1 37.5-11c8.6-1.7 9.8-1.8 10.8-.6 1.8 2.2.6 3-8.2 4.7a249 249 0 0 0-27.3 7c-6 2-12 4.6-12.4 5.4s-.8.5-2-1.8M191 71.3c-2.3-6.5-2.5-8.2-1.3-8.8.8-.4.8-.3.8 1.5q0 1.8 2 7.3c1.8 5.1 1.8 6 .7 6a50 50 0 0 1-2.2-6"/><path d="M197 86.7q-2-.7 1-1.8c2-.7 2.8-1.7 2.8-3.9a4 4 0 0 0-3.5-4.3q-1.4-.2-1.8-.8c-1.1-3-3.6-10.8-3.8-12-.3-1.5-.2-1.8.5-2.5l.9-.9.9 2.5 4 9.3c4.4 9.6 4.5 10.3 3.4 12.5-.5 1-2.7 2.4-3.4 2.3zm5.6-.7c.6-.9 1-1 3.4-1q2.7 0 2.3.4c-.5.8-2.8 1.6-4.6 1.6h-1.9zm13.5-3.4-4-.6c-.3-.4-1-4-.8-4.2s2.5 0 5.4.4c4.3.5 5.3.8 5.9 1.5q1.2 1.6 0 2.8c-.9.8-1.1.8-6.5 0m-14.6-12.4q-.6-1.2-.4-1.6c.4-.4 1.3.7 1.6 1.9.4 1.5-.4 1.4-1.2-.3m-2.7-5.6c-.9-1.5-1-2.7-.4-2.7s1.6 1.9 1.4 3V66zm-70.8 57-2-2 1-1.5a399 399 0 0 1 11.8-18.3l1.7-2.3.5 1.5 1.2 3 .7 1.4-1.4 1.8c-.8 1-3.7 5.6-6.5 10.1l-5.1 8.2zm-11.7 19.1c-2-1.4-1.9-1.7 1.7-7.7l3.5-5.6 1.9 2 1.9 2.2-3 4.9c-2.7 4-3.3 4.8-4.1 4.8a4 4 0 0 1-1.9-.6m16.2 13.9c-1-1.5-1.9-2-11-7.4a116 116 0 0 1-8.2-5.2 3 3 0 0 1-.9-2v-.9l.9 1.3c1.2 1.8 3.2 3.1 4.7 3.1.9 0 2.8 1.1 7.2 4 6.1 4 7.7 5.5 8.2 7.2q.4 2-.9 0zm2.2-1.1c-.5-1.7-2.4-3.3-8-7.2a31 31 0 0 1-5.7-4.2c.4-.5 9.5 5.5 12.2 8 1.2 1 2.4 3.6 2 4q-.2 0-.5-.6m12.8 14.6-1.2-5.3c-1.7-6.8-1-6 1.2 1.3 1.6 5.4 1.6 5.4.8 5.4q-.6 0-.8-1.4m-3.4-30c-.5-.4-.8-1.6-1-4.8q-.7-7.4.9-13.3a23 23 0 0 1 3-7.2c.7 0 .7 1.7 0 3.2a38 38 0 0 0-2.4 18.9c.2 1.8.3 3.5.2 3.6zm-24.4 40.1c0-.5 0-.6.6-1.2 1.1-1.1 2-1.5 3.7-1.5 1.3 0 1.7 0 2.3.4.9.5 2 1.4 1.7 1.6l-.2.3q.1.4-.6-.2a4 4 0 0 0-3-1.3 5 5 0 0 0-4.2 2l-.2.5z"/><path d="M126.5 179.3c0-.3-1.3-1-2-1.2q-1.4-.2-2.4.5-.6.4-.6.1l-.1-.2c-.5 0 .9-.7 1.6-1q1.6-.3 3 .5 1 .8.8 1zq-.1.2-.1 0m-3.8 6q-.3-.1-.8-.7t-.5-1.4q0-1 .2-.4.2.2.2.7.1 1.5 2 1.5c.6 0 .7 0 1.3-.7l.7-.6q-.1.7-1 1.4c-.8.7-1.6.4-2 .2"/><path d="M122.3 186.5c-.6-.3-1-.7-2-2q-.4-.5 0-.4.3 0 .2-.3l-.2-.8q-.2-.7.2-.6.3-.1.2.6a3 3 0 0 0 1.9 3c1.1.6 2.8 0 3.5-1l.5-.5v.4l.1.4-.8.7c-.8.6-1.1.7-2 .7q-.9.1-1.6-.2m3.4-5.7q-.4-.3 0-.3.2 0 .1-.2t0-.3q.4.1.3.8.1.5-.4 0m-47.2 8a4 4 0 0 0-2.7-1.8q-.8-.2-.3-.2l.8-.2q.3-.3 1 0a6 6 0 0 1 1.9 1.8v.6l-.3.4zm0-2.7-1-.5q-.3 0-.3-.3 0-.5.5-.3c.6.1 2 1 1.7 1l-.2.4q0 .3-.7-.3m45.7-24.8a5 5 0 0 1-3-3l-.2-.5h-1.3c-1.5 0-2.1-.2-3.2-1.1a4 4 0 0 1-1.2-2.7q0-.9.2.2.5 2.1 2.3 3c.7.4 3 .6 3.8.3q.6-.2.6.4.7 2.8 4 3.3 1 .1.5.2a5 5 0 0 1-2.5 0m20.6-4q-1.6-5.8.2-1.2.7 2 .6 2.1t0 .8 0 .7zm-69.3 38.5q-.6-.2-.7 0-.1.1-2.2-1a105 105 0 0 0-10-5.3A94 94 0 0 1 76 196q.4.3-.6-.2m-2-18.7-1.1-1.3 1 .6 2.5 2h-.5q-.4.1-1.8-1.3M32 188.7q-1.5-3.3.1-.8.8 1.2.7 1.4t0 .6v.5z"/></g></svg>