<svg xmlns="http://www.w3.org/2000/svg" overflow="visible" xml:space="preserve" viewBox="0 0 343.6 200"><path fill="#024" d="M0 53.9s-1.8 33.6 37.5 55c0 0 15.8 8.5 53 15.3 32.8 6 50.3 18.8 57.3 26.8a119 119 0 0 1 21.6 45s0 4.2 3 4c0 0 2.6.2 2.5-3.6 0 0-1-25.6 6.4-37.9 5.6-10 15.8-18.8 32.6-25 0 0 11.1 8.6 27 8.6 11.6 0 21.8-5 21.8-5s20.3 7 22.5 18c0 0 .2 2.7-.5 4.6L310 161l13.9-12.5s-25.8-1.9-26.4-9.3c0 0-.4-3.4 6.6-3.4 0 0 16-.3 31 22l8.5-22.4s-6.6-3.3-6.4-9.3c0 0-.2-3.7 2.7-11l-10.6-4.8s-5.8-5.4-40.3-27l4.5-2.8L255.4 64S243 44.7 209 44.6c0 0-26.6-43.7-69-43.7 0 0-15.7-.9-33.7 8.5 0 0-7.1 3.3-14 7.2 0 0-14.6 10.1-31.3-11.9 0 0-6 26 12.2 37.1 0 0-17.5 3.7-23.6-11.3 0 0-5.6-11.4-4-30.5 0 0-13.4 12-13.4 35.3 0 0-.2 14.8 9.6 24.9 0 0-5-.8-12.8 4.2 0 0-13.8 10-29-10.5"/><path fill="#FB4F14" d="M65 16.2s2.6 23 22.1 23c0 0 7.7 0 14.7-2.7 7-2.6 17.2-7.9 30.8-7.9 0 0 17.8-1.7 27.8 18 0 0 22.7-1.2 44 2.8 0 0-24.2-42.7-66.4-42 0 0-12.3-.7-28.7 7.5l-6.6 3.1-6.7 3.4s-6.8 4.1-13.3 4c0 0-8.6.6-17.7-9.2M41 17S29.5 48.1 54.2 62c4.6 3 12 5.8 20.3 6 0 0 33.7-16 70.5-20.3 0 0-4.3-9-20.9-9 0 0-10.1-.7-28.5 4.4 0 0-5 1.3-10.9 3.3-8.4 2-22.3 4-31.3-1.6 0 0-12.3-6-12.6-27.8M9.1 69.4S12.2 86 31.3 86c0 0 13.4.3 32.2-11.2 0 0-6.5-2.5-9.8-4.6 0 0-7-5.3-14.3-3.2 0 0-1.2.2-8 3 0 0-4.6 3.1-11.4 3.1 0 0-6.8 0-10.8-3.7"/><path fill="#FFF" d="M112.3 123s38-40.1 92.9-26.1c0 0 2.7 31.4 36.6 33.3 0 0 11.6.7 22.5-7l21.3 8-22.4-14s-7.1 7-20 7-28.7-13.2-27.3-31.8c0 0-23.5-11.8-49.8-18L174 87s-51-3.2-92.7 29.2c0 0-39.9-8.8-44.7-16.5 0 0 82-66.7 187-39.7 0 0 1.3-1.8-1.7-4.3 0 0-4-3-9.8-4.7 0 0 25.7-1.4 39 18.1l29.6 12.4-3.1 2.2s45.1 28 48.1 32l6.3 2.6s-4.4 13.2 4.7 20.2l-3.4 9s-15-16.2-30.1-16.9c0 0-11.1-.2-11.1 8.7 0 0-1.4 9.5 20.8 12.3l-4.6 4.2-16.9-1s.4-13.8-29.1-24.5c0 0-24.2 14.4-47.2-3.4 0 0-41.8 10-45.6 48.5 0 0-4.5-14.5-14.8-27 0 0 5.5-19.6 35.3-29.4 0 0-26.7-1.4-45.5 20 0 0-12.4-10.2-32.2-15.8"/><path fill="#024" d="M248.9 77.6s20.8 3 56.6 32.3l-33.8-18.5s-2.2 1.1-3.6 2.4c0 0-7.6-8.9-19.2-16.2"/><path fill="#FB4F14" d="M265.9 83.8s-1.8 1.4-1 4c0 0 .8 2.3 3.5 2.3 0 0 3 0 3.5-3.2l-1.4-.8-3.7 2.8 1-4.2z"/><path fill="#024" d="M326 119.1s-2.8 1.1-2.8 3.7c0 0-.7 2.7 5 8.4 0 0-8.5-6.2-10.1-10 0 0-1.5-2.8 2.7-2.8 0 0 2.5 0 5.2.7m-97.5-57.2s5.3 0 6-1.2c0 0 1.2-1.4-5.9-4.7 0 0 11 2.2 16 11.1 0 0-7.2-3.2-16-5.2"/></svg>