<svg xmlns="http://www.w3.org/2000/svg" xml:space="preserve" viewBox="0 0 193.9 148.4"><path d="M171 47.5s2.4-2 5-2 4.1.9 5 1.9c0 0 2-.3 4.2.3s5.3 2.4 6.4 4.5 1.3 4.4.1 6.7c0 0 .4 1.6-.6 3.4s-2.7 3-2.7 3-1 2.7-4 4c-3 1.4-7 0-7 0s-2.1.3-3.8.3-4-.7-4.7-1l-2.6 3.6s2.7 2.3 5.7 3.3 5.3 1.3 6.7 2.3 1.8 2 1.8 2 2.1-.4 4.1 0a11 11 0 0 1 5.8 4.2 9 9 0 0 1 1.9 7.3c-.7 2.5-2.1 3.4-2.1 3.4s-.7 2.4-2.2 3.8c-1.4 1.5-3.5 1.6-3.5 1.6s-1 1.5-4 2-5-1.2-5-1.2-2.3.3-5.5-.7c-3.1-1-5.3-4.2-5.3-4.2s-2-1-5.8-1.1a47 47 0 0 1-16-4.1s-2.1 1-8.8 1.4c0 0-1-3-3-4.5 0 0-5.7 3.2-7.5 4a25 25 0 0 1-8.2 2.5s-.7 4.8-2.1 7.4a12 12 0 0 1-6.4 5.3s3.3 1.1 5 3.7 2.4 5.4 1.2 7.7-2.5 3-2.5 3-.7 2.2-3.4 3.4c-2.7 1.3-6 .6-6 .6s-2 1-4.4 1c-2.6 0-5.8-2.2-5.8-2.2s-8.4.7-10.9.5-5.4-1.2-6.8-4.9c0 0-1.5 1.3-3.9 2.4a72 72 0 0 0-9.7 5.4l.1 1.7s4.6 1.7 4.9 6.4-2.3 6.4-3 6.9c0 0-1 2-3 3.1s-4.4.6-4.4.6-5.1 2.3-9-1.5-2.9-7.7-2.8-8.7l.3-10s-2-2.5-1.5-5.4 2.6-4.8 3.7-5.6c1-1 2.4-2.5 3-4.7s.6-6.8.9-8.5.3-4.5.3-4.5-7.7-2.2-11.7-6.6a24 24 0 0 1-6.1-12c-1-4.5-1.7-9-5.8-11.4 0 0-2.6.7-5.7-.5-3-1.3-4.9-3.7-6.9-6-1.9-2.5-8.8-3.6-11.3-3.8 0 0 5.2-5.7 12.2-8.2s10.4-1.5 12.8-.2a11 11 0 0 1 5 6.6s4.6 2 7.7 5.7a25 25 0 0 1 5.6 11c1 4 2.4 8.8 10.4 10.6 0 0 4.8-4.8 6.6-6s4.1-1.8 4.8-2l3.8-1.2 5.6-4.8 3-5c1.1-2 2.8-3.7 2.8-3.7s-2.3-4.4-2.1-9.2c0 0 1 .6 2.1.7 0 0 0-3.5 2.2-6.8s4.7-5.3 4.7-5.3-.2-4.3 2.4-8.4c0 0-2-3.2-2.2-5.2 0 0 3.3-.3 5.8-1s3.8-1.2 5-2.8 4.4-5.2 8.2-7c3.9-1.9 8.1-2.5 11.2-2.3 0 0-1.9-1.6-4-2.3 0 0 3.6-2.6 10.6-3.3 0 0 0-3.6.8-5.4 0 0 9.3 6.3 14 8.1s8 2.4 10.4 3.6a9 9 0 0 1 4.5 4.7s2.6 1 4.6 2.5 3.2 4.7 3.2 4.7 3.7 1.5 7.6 3.9c4 2.4 8.7 7.4 8.7 7.4s-3 1.3-5.6 5c0 0-1.2 4.1-3 6.1" fill="#b0b7bc"/><path d="M165.6 49.2s1.7 0 3.3.4 2.5 1 2.5 1l1.7-1.3c.6-.4 2.3-1.3 3.8-1 1.6.2 2.7 1.2 3 1.7h2.5c1.2 0 3.5.4 5.3 1.8 1.8 1.5 3.4 3.6 1.2 6.4 0 0 .5 1.8-.2 3.1-.6 1.2-2.3 2-2.3 2s-1 3-3.4 3.8-5.4-.6-5.4-.6-2.8.6-4.9.5-4.3-1.9-4.3-1.9-.5.3-1 1l-4.7 6.5s3.4 3.3 6.8 4.7 5.1 1.6 6 1.9 2.9 1.3 3.6 3.5c0 0 2.2-.6 3.6-.4s2.8.3 5.4 3c2.5 2.5 2 4.8 1.5 6s-1.8 2-1.8 2-.2 2-1.5 3.2-3 1-3 1-.7 1.3-2.5 1.8-3.7-.4-4.6-1c0 0-3.7.2-6.1-1s-3.5-3.5-3.5-3.5-4-1.6-8.3-1.7-12.4-2.3-15.1-4.2c0 0-4 1.8-7.4 1.8 0 0-1-3-4.6-5.2 0 0-7.6 4.3-10.3 5.5s-7.5 1.7-8.2 1.8c0 0 .3 1.2 0 3s-1.6 5.6-2.6 6.8a15 15 0 0 1-5.2 3.3c-1.5.5-3.5 1-5.2 1.8a24 24 0 0 0-4.5 3.3s2.5.7 3.3.7 2.1-.8 3.1-1.2 3.9-1 6.1.7 3.5 4 3.4 5.6c0 1.6-1.2 2.8-2.7 3.6 0 0-.5 2.3-2.5 3s-5.2.1-5.2.1-1.6 1-3.5 1.1-4.3-1.5-4.7-1.7a3 3 0 0 0-1.5-.4c-.7 0-8 .6-10.3.6s-4-1.1-4.9-2.9.4-4.7 1.3-5.8l2.4-3q.4-.8-.3-1.2l-2-1-3 6c-1 1.5-2 3.3-4.2 4.6-2.1 1.3-6.7 3.3-9 4.8-2.5 1.4-3.9 2.8-3.9 2.8s0 4.3.2 4.8c0 0 2.1.5 3 1.2a5 5 0 0 1 1.6 3.7c0 1.7-.2 3.6-2.3 4.4 0 0-.6 2.2-2.2 2.8-1.7.7-3.4.1-3.4.1s-2.2 1.2-4.6.6a6 6 0 0 1-4.4-5.3l.4-12q.1-.8-.4-2c-.5-1.2-1.4-2.8-1.2-4s1.6-2.7 2.7-3.8 2.7-2 3.4-4a25 25 0 0 0 1.4-6.9c0-2 .3-9 .8-10.8 0 0-9-2-13-6.6s-4.6-8.2-5.8-13.1-2.6-8.7-7.3-11.1c0 0-2.5 1.2-5.7-.2s-5-5-6.7-6.4a18 18 0 0 0-7.3-2s5.6-3.8 9.4-5c3.8-1.1 8-1.5 10.6.6 2.6 2 3 5.6 3 5.6s5.4 2.3 8.5 6.1 4 7.4 4.7 9.8c.6 2.4 2.5 7.2 5.5 9.3a18 18 0 0 0 8.4 3.2s5.3-5.5 7-6.7c1.9-1.2 3.9-1.6 4.7-1.8l3.8-1.3 6.4-5.3s3-5.3 3.9-6.6l3.2-4.2s-2.2-2.4-2.1-5.5c0 0 1.2.2 2 .1 0 0-1-1.7-.5-4.2s3.1-6.5 6.7-9.5c0 0-.1-2.7.6-5.1s2.3-4.5 2.3-4.5-1.6-2-1.9-3.6c0 0 3.1-.3 5.3-1a13 13 0 0 0 3.8-2.2s4.2-5.7 9.2-7.5 10.1-1.3 10.1-1.3 2.5-1.6 3.6-2c0 0-2-2.2-3.6-2.9 0 0 3.8-1.2 7.4-1 0 0 0-2.4.5-3.8 0 0 6.2 4.5 9 5.7s8.2 3 10 3.6 5 1.8 5.6 5l4.3 2c1.1.7 2.3 2.2 2.6 2.8l.8 2q.5.8 1.3 1c.5.2 5.5 2.4 7.9 4.1 2.2 1.8 5.3 4.7 5.3 4.7s-3 2.5-3.8 3.7c0 0-1 3.1-2.5 5.3s-3.7 3.1-3.7 3.1z" fill="#fff"/><path d="M131 9.8c-.3 1.7 1 3 1 3-1.8-.8-6.8-1-6.8-1a11 11 0 0 1 4 2.8c-2 0-5 1.8-5 1.8 2.4 0 3.5 1.3 3.5 1.3-2.3 1.1-7.3-.4-12.8.4-5.7.9-9.3 5.3-9.3 5.3 2.4-1 4-.1 4-.1-2 0-7 3.2-8.8 4.2-2 1-4.7 1-4.7 1 .6 1.4 2.5 1.8 2.5 1.8C96 32 94.7 36 94.7 36c1.5-1.6 3.6-1.5 4-.5.5.9-.1 2.7-2 4a38 38 0 0 0-7.4 7.2c-2 2.8-2.3 5.1-2.3 5.1 2.4-1 3.2-.1 3 1-.3 2-3.8 3.6-3.8 3.6.8 1.4 4 1.5 4 1.5s-3.7 4.2-5.3 6.5-4 6.9-4.5 7.5c-.5.7-6.1 5.1-6.8 5.8s-6.4 2.1-7.8 2.8a42 42 0 0 0-7.9 7.3l-.3.4a21 21 0 0 1-11.3-3.9c-4.7-4-5.8-8.6-6.6-11.8a21 21 0 0 0-4-8c-2-2.3-7.7-5.1-8.6-5.8 0 0-.7-4-2.7-5.3A8 8 0 0 0 17 53l3 .5c2.6.8 2.8 2.6 2.8 2.6s-3.5-3.7-10.5-1c.6.1 2.6.5 3.6 1.9 1.2 1.5 1.6 2.6 4.9 4.5 3 1.6 5.3-.2 5.3-.2s5 2.7 6.7 5.6c1.6 2.8 3.2 7.2 4 11.2a16 16 0 0 0 5.7 10c3.1 2.7 9.7 4.5 12.8 5.1l-.3.9c-.7 2.5-.7 7-1 11.8a22 22 0 0 1-2.5 9.7c-1.1 2.1-4.6 4.1-5 5.3s1.4 2.6 1.6 4.5-.3 9.9-.3 11-.3 2.6.4 3.7a3 3 0 0 0 3.1 1.4c1.5-.2 2-1 2-1s2.1.8 3 .2 1-2.5 1-2.5 1.4 0 1.7-.4.5-2.2-.1-3-4-1.2-4-1.2a33 33 0 0 1-.3-8.3c.4-1.4 4.3-3.6 7.2-5.3s7-3.1 8.4-4.7c1.2-1.3 4.2-7.4 5.3-9.6A27 27 0 0 1 88 92.5h.1c-6.4 5.7-7 7.8-7 7.8s4.3-4 11.7-7.2q7.5-3 11.2-3.2a78 78 0 0 0-16.6 8 36 36 0 0 0-9 7.8c4.7 1.8 4.4 3.9 4 5-.5 1.4-3.5 4.3-4 5.7-.4 1.3-.2 2.7 2.2 3 2.3.1 9-.8 11-.7S95 121 97 121s3-1.3 3-1.3c1.4.5 4 .8 5 .3s.9-2.5.9-2.5q2.7-.5 2.5-2-.4-1.7-2.4-3.1a4 4 0 0 0-3.8-.1c-1 .4-2.5 1.3-4 1.1-1.6-.2-7.3-1.4-7.3-1.4 1.5-4.2 6.4-7.3 8.6-8s6.4-2.1 8-3.4 2.6-6.1 2.7-7-.8-4-.8-4c1.7-.4 6.2-.3 9.6-1.6 2-.8 5.9-2.8 8.6-4.4-6-3.5-18.3-2.6-18.3-2.6a42 42 0 0 1 21.7.7 12 12 0 0 1 6.3 5.3 27 27 0 0 0 6.1-2c7.4-4 15.5-12.2 15.5-12.2 3-2.7 6-8.1 7.4-9.4s3.2-1 3.2-1 1.4 2 3.7 2 4.5-.7 4.5-.7 3.5 1.4 4.8.8c1.2-.7 1.8-3.3 1.8-3.3s2-.3 2.1-1.3-.6-2.5-.6-2.5 1.3-.8 1.5-1.4-.5-1.3-1-1.8-2.7-1.6-3.8-1.4-4.2-.1-4.2-.1-.5-1.4-1.4-1.6-1.8 0-2.4.6-2.2 1.7-3 1.7-1.6-.8-4.3-1.3-4.2.8-4.2.8.2-2 0-3.4h-.6V46c-.2.8-2.8 4.2-5 3-2.1-1-1.5-5.2-1.5-5.2 3.4-2 8.3-1.8 8.3-1.8 1 2.1-.3 4.2-.3 4.2 4-1.3 5-6.4 5.5-7.4s2.7-2.3 2.7-2.3-2.2-2-4.5-3.5a58 58 0 0 0-7.2-3.5c-.8-.3-1.7-1.9-2-2.5-.1-.5-.7-2.2-2.1-3s-5.5-2.5-5.5-2.5.5-.8-.4-2.3-4.4-2.2-10-4.1-9.5-5.3-9.5-5.3m22.5 19.4c.8 0 2.6 1.2 3.8 1.2l-1.2 1.9c-.2.4.4 1.1.4 1.1l-3.2-2.4a17 17 0 0 0-3.7-1.1s3-.7 3.9-.7M121.7 38q1.4 0 3 .3c8.5 1.6 12.2 8 12.2 8s-6.3-5.2-13.1-6-13.2 2-13.2 2 4.3-4.3 11-4.3m1 7.9c4.5 0 7.9 1.4 7.9 1.4a23 23 0 0 0-14 2.3c-3 1.5-6.6 4.7-12.3 6-6 1.4-10.6-.7-10.6-.7 8.2-.3 12-2.6 20.2-7a19 19 0 0 1 8.8-2m8 6.1c3.6 0 6.7 1 8.7 2 4 2 3.6 5.3 3.6 5.8s2.9-.6 5-1.8c.1-2.7 1.6-5.5 4.2-5.3 2.8.1 6.8 2.2 6.8 2.2a57 57 0 0 1-19 8.7s2.5-3.3-.9-6.9c-2.7-3-11.9-4.7-20.6-1.5a25 25 0 0 1 12.1-3.2M161 74.5c-1.6 1.6-4 4-6.5 6a72 72 0 0 1-8.6 5.9c5.7 2.7 12.4 3 15.5 3.3 3.6.4 7.3 2.1 7.3 2.1s.5 2.1 2.8 3.2c2.3 1 5.6.5 5.6.5s1.7 1.7 3.1 1.2 1.6-2.4 1.6-2.4 1.8 1 2.7.3.7-3.3.7-3.3c1.1 0 2.5-.8 2.2-2s-1.8-3-3.3-4-3.2 0-4.5 0a3 3 0 0 1-2.8-1.6c-.3-.6-1.1-1.8-2.3-2q-1.8-.2-7.2-2.5a30 30 0 0 1-6.3-4.7" fill="#0076b6"/></svg>