<svg viewBox="0 0 314 208" xmlns="http://www.w3.org/2000/svg" xml:space="preserve" fill-rule="evenodd" clip-rule="evenodd" stroke-linejoin="round" stroke-miterlimit="1.4"><g transform="matrix(1.03959 0 0 1.03958 0 1.5)"><ellipse cx="151" cy="98.8" rx="145.3" ry="94.8" fill="#203731" stroke-width="5.8" stroke="#ffb612"/><path d="M215 117.2h-88v-23h152.3c0 1.4.3 2.1.4 3.4.5 51.1-67.4 81.5-126.2 81.5-75.7 0-133.2-35-132.9-80.2.3-43.6 63.7-80.3 131.9-80.1 55.1 0 102.6 24.7 120.6 55h-57.5c-11.8-15.5-34.4-29.5-65.8-29.5-46.6 0-76.8 25-76.8 51.9 0 29.8 28.4 51.4 74.2 51.4 34 0 54.5-13.1 67.9-30.4" fill="#fff" fill-rule="nonzero"/></g></svg>