<svg xmlns="http://www.w3.org/2000/svg" xml:space="preserve" viewBox="0 0 191.5 174.9"><path d="M140.8 30.4c40.5 30.9 9.8 35.5-22 40 0 0-13.4-3.7-36.5-15.1-52.5-26.1-36-38.4 5.4-45.9-66.1-28.7-121.3 21.4-60.4 70l-16.7 12c13.7 8.4 42 26 38 53l-14.2 10 43 19.5 33.9-15.4c.3-15 27-22.6 38.5-53 63.1-14.5 47-70-9-75" fill="#fff"/><path d="m92 122.7-12.3-13.9-13.9 2.1 6.4-10.7L60 86.4l16.2 7.3 6.3-10.8 3.7 15.3 16.1 7.2-14 2.1zm20-49.4C32.5 42.7 27.2 17.5 77 8.8 15-8-21.3 36.9 40 79.7L23.8 91.4c17.5 11.8 35.9 29 29.6 56.3l-8.2 5.8L76.8 168c29.6-32.5 45.1-64 35.1-94.6" fill="#03202f"/><path d="M152.2 35.3c27.2 21.2 8.4 35-24.9 38.7 8.4 35.3-17.4 67.8-44.6 93l25-11.5c1.9-14.3 27.2-21.8 39.2-53.7 56.5-12.6 47.3-53.1 5.3-66.5" fill="#a71930"/></svg>