<svg xmlns="http://www.w3.org/2000/svg" xml:space="preserve" viewBox="0 0 192.5 202.6"><path d="M96.3 201A90 90 0 0 1 20 161.8 89 89 0 0 1 2.3 94.6c1.6-13.6 4.7-20.3 7-27a158 158 0 0 1 10.5-21.2c2.7-4 7.8-11.5 10-14.1.5-1-.3-.5-.5-.5l-1.8.2q-.9 0-1.7-.4a8 8 0 0 1-6.3-8.7c0-1.3 1.3-11.4 2.1-14.5q1.8-6.4 8.8-6.9c2.2 0 12.1-.2 16.6.5 9 .9 15.6 3.5 19.5 11.5 3.1 6.9 2.1 17.8-2.2 26.1a98 98 0 0 1-6.9 11.5 81 81 0 0 0-5.4 9.1c-2.1 4-9 19-11.2 28.8a50 50 0 0 0 6.6 43.1A60 60 0 0 0 67 151.6a60 60 0 0 0 58.5 0 62 62 0 0 0 19.5-19.5 49 49 0 0 0 6.8-43.1 171 171 0 0 0-11.3-28.7c-2.1-4-3.1-5.7-5.5-9.2s-5.4-8.7-6.9-11.5c-4.3-8.4-5.3-19.2-2.2-26.2 3.9-7.9 10.5-10.5 19.5-11.4 4.5-.7 14.4-.5 16.7-.5q7 .4 8.7 6.9c1 3.1 2.2 13.2 2.1 14.4a8.3 8.3 0 0 1-6.3 8.8q-.7.4-1.7.4l-1.8-.2c-.2 0-1-.4-.5.4 2.2 2.5 7.3 10 10 14.2 3.3 5.2 8.8 16.6 10.5 21.2 2.3 6.7 5.4 13.4 7 27a90 90 0 0 1-17.8 67.2 100 100 0 0 1-35 30 93 93 0 0 1-41 9.2" fill="#fff"/><path d="M96.1 182.1a2.3 2.3 0 1 0 0-4.6 2.3 2.3 0 0 0 0 4.6M34.8 153a2.3 2.3 0 1 0 0-4.6 2.3 2.3 0 0 0 0 4.6M21 99.6a2.3 2.3 0 1 0 0-4.6 2.3 2.3 0 0 0 0 4.6M48 37a2.3 2.3 0 1 0 0-4.6 2.3 2.3 0 0 0 0 4.6m112 113.7a2.3 2.3 0 1 0-4.6 0 2.3 2.3 0 0 0 4.6 0m13.8-53.2a2.3 2.3 0 1 0-4.7 0 2.3 2.3 0 0 0 4.7 0m-27-62.8a2.3 2.3 0 1 0-4.7 0 2.3 2.3 0 0 0 4.7 0M53 185.5a96 96 0 0 1-35-35c-4.8-9-16.2-28-10.6-61.1C14 59 27 43.9 34.5 33.4c3.5-5-.1-8-3-7q-3.7 1.2-4 1c-4.2-.6-3.6-3.4-2.9-10.5l1-5.9c1-5.1 3.3-5 9.5-5 9.8.3 11.5.3 16.8 1.3 7.1 1.6 16.2 8.7 9 28-4.5 10.5-9.1 13.8-14.3 24.7C41.1 72 28 98.8 37 121.8a62.5 62.5 0 0 0 59 42c22.6-.2 49-13.7 59.5-42 9-23-4.4-49.8-9.9-61.8-5-10.7-9.7-14.2-14.2-24.6-7.3-19.5 1.8-26.5 9-28.1 5.2-1 7-1 16.8-1.3 6.3 0 8.5-.1 9.4 5l1 5.9c.8 7.1 1.3 10-2.9 10.5 0 0-1.6 0-4-1-2.8-1-6.5 1.9-3 7 7.5 10.5 20.5 25.7 27 56 5.7 33.1-5.7 52.1-10.6 61.1a95 95 0 0 1-35 35C122 197.4 89.8 196.8 96 196.4c6.5.5-23.6 1.2-42.8-10.9" fill="#002c5f"/></svg>