<svg xmlns="http://www.w3.org/2000/svg" xml:space="preserve" viewBox="0 0 193 145.1"><path d="M185 52.2s-3-6.9-12-12.7c2.3-2.8 3.2-6.2 2.1-9-1-2.7-8.5-7.8-11.3-9.3-2.8-1.4-6.6-3.6-6.6-3.6s-10-6-17.8-9.4a76 76 0 0 0-44.8-5.7s-11-3.6-31 2.6c-7 2-19 5-25.6 6.2-9.9 1.6-20 1.8-27.7 2.6-4 .5-6.8-.4-8.1 1.9-5.9 10 11.6 27.2 17.9 30a41 41 0 0 0 11.5 35.3c12 13.6 28.7 16.2 38.4 23.4 11 8 13.2 18.2 22.4 27.8 8.4 8.8 24.8 16.3 39.5 9 16-7.7 18.9-20.7 19.5-23.1q.3-2-2.2-3.3l-1.5-.8c.7-2.5 2.3-10.2.7-16.8 0 0-4.5 6.6-8 10.2-.9-.9-5.3-5.3-4.6-10.6a27 27 0 0 0 8.9-5.5c9-2.5 11-6.2 11-6.2l1.5 2c1.3-.7 3-2 3-2 .2 1 .2 3 .2 3l1.3-.4c-.6 3.4-4.5 9-4.5 9 13.6-4 19.3-14 19.3-14l1-.3s9-2.6 13.3-11.5c4.2-9-3.4-17.7-5.8-18.8"/><path d="M82.3 21.9q1.2.6 2 2l-3.7-.3 1 .4-1.7-.1q.2 0 .6.4v.6q-.2.3-.1 1l.6 1.5-1.9-.1 2.5 1.3h-.7s-.6.3-.7.6c-.2.2 0 1.4-.7 1.9s-1.5.4-1.7.7c-.3.3.1.7.1.7l-1.8-.4 1.1 1h-1c-.6 0-2.4.2-3.3-.5-1-.8-.4-1.4-.2-1.6s.2-.5-.4-1.2-.5-.7-.4-1.1c0 0 2.2 0 3 .2 0 0-2.1-1.2-3-1.3l.5-.7q.9-.3 1.3-1.4l2.4.4c-1-.4-1.4-1-3-1.4h1.6s.7-.2 1-.5l.6-.5q-4.5.1-9 1l-14.5 3.7q1-.8 2-2a61 61 0 0 1-11.3 1.6q-6-.5-11.8-2l-1-.2 1.8 1.1q3 1.7 6 3l1.8.5a30 30 0 0 0 7.7 1.2q1.8 0 3.6-.4l4-1 .7-.1a34 34 0 0 0 6.7-3 59 59 0 0 1-7.5 5.1l-2.3 1v.1l-.5.2-2.8 1.6-1 .4-4.9 1.8c-5.2 1.5-8.3 1.5-8.3 1.5l1.2.4 5.5.7-.3.3a20 20 0 0 1-8.3 4.3 35 35 0 0 1-6 1.2q-1.1 3.9-.7 8 0 2.2.5 4.3l.7-.6s.7-.6 2-.8q-.5-.5-1.1-.5H29l.2-.1a7 7 0 0 1 2.7-.2q.8.3 1.2 1l.1.2.1.2v1.1c-.4.7-1 2-1 2.5 0 .3-1.2 1.1-1.5 1.4h1.7s.9 1.4 1.5 2c.6.5 1.2 1.6 1.4 2.4h.3l.1-.1.3-.1.3-.2.4-.2s-1.2 1.8-2.6 2.6c0 0 1.2.2 1.8 0 0 0 0 2.1-2 4.4-.1.1 1.5 2.1 2.6 3.3l.1.2.3.3.1.2 1-.8 3.2-2.1q.1-.9.4-1l.7-.5.4-.2V72h.1l.1-.2v-.1l.2-.5.4-.6a21 21 0 0 0-4.2-1.2 44 44 0 0 1 14-6l-.8-1.1c-.5-.9.3-2.2.6-2.8s-.2-.8-.2-.8c.5-.4.9-1 .9-1l-2.3.3c-.6-.5-.9-1.6-.7-2.2 0-.5.3-1.4.3-1.4h-.6l-.8-.2c2.4-.3 3.6-1.2 3.6-1.2l-1.8.1s.1-.7.6-1h1l.8.1.4.1 1.3.4c1 .3 1.4 1.6 1.4 1.6q.5 1.2 1.2 1.9l1.3.8 1.5.4.3.1.5.2q.6.4 1 1.1l5-.4-.7-.7q-2.7-2.5-6.2-3.5a131 131 0 0 1 20.2-1l-1.9-1q2.3-.1 4.4.1-1.8-.9-4-1.3l-2.7-.8h.1l1.9.2h.3a343 343 0 0 1 24.6 3.6l8.4 1.8-6.7-6A247 247 0 0 0 77 44.2a246 246 0 0 1 26.3 4q-3.8-2.6-7.8-4.9-1.4-.7-2.5-1.8-.7-.6-1-1.4v-.4l.1-.2v-.3l.1-.2q.5-.9 1.1-1.4l.2-.2h.1l.2-.2.1-.2h.1l.1-.1.2-.3c3.5-6.3 12.3-8 12.3-8-1-1.2-2-2-2-2 1.2-.3 2.7 0 3.3 0q-.3-1.1 0-1.4s1.3 0 1.7.2l-1-.7a102 102 0 0 0-26.2-2.9zm38 6.7-1 .8c0 1 .8 3 2.3 4.3a32 32 0 0 0 5.6 3.2c-.2-.6-.1-1.4-.1-1.4a10 10 0 0 0 3.8 3.3l3.5 1.4q3 .8 5.8.2a8 8 0 0 0 3.3-1.6 9 9 0 0 1-7.5-.3q-3-1.6-5.7-4a45 45 0 0 0-10-6zm24.7 2.3c6.2 6.4 1.8 12 1.8 12s-7.9-1.7-13.9-1.3c-2.8.1-6.2 1.4-9 2.7h.2l2.5.4a7 7 0 0 1 3 1.8c1.3 1.4 1.6 3 1.6 3l.2-.2 1.6-1a28 28 0 0 1 6.8-2.4c2.1-1 8.4-1.6 9.6-1.5 1.2 0 2.9.3 2.9-.4a24 24 0 0 0-7.3-13.1zm-13.8 18.5c4-.1 6.8 4 7.5 5h7l8.8.7 1 .1s-1.2-1-1.8-2-.5-1.8-.5-1.8q2.2-.2 2.5-1.7c.3-1-.9-1.9-.9-1.9q.6.6.3 1.2c-.9 2-6-.7-11.3-1.2s-12.6 1.6-12.6 1.6zm39.5-18.2c-.3.7-1.8 2.3-7.8 1.3h.1a46 46 0 0 1 7.1 4.6s2-2.5.9-5.3l-.3-.5z" stroke="#9f792c" stroke-width=".3" fill="#9f792c"/><path d="m31.4 15.9-2.9.2c-5.3.3-10.6.1-15.8.5h-2.4l3 .9a78 78 0 0 1 11.4 4.4c.3-.4 1.4-.4 1.4-.4l-.1-.3s.3.2.7.2h.1l.3-.1.5-.3c.4-.2 1-.1 1-.1.2-.3 1-.6 1-.6l-.4-.3 1.2.2.4-.1q.3 0 .1-.3t-.6-.4-.3-.3l-.9-.2.7-.1.3-.1v-.1h.1s.4-.5.7-.6c.4 0 3-1.3 3-1.3h-1.4l-1.2-.2q-.2-.2.1-.6M6.8 20.5H4.3s2.2.6 3.8 2.7c-.5 2 2.2 6.7 6.3 10.2l2.3 2-3-.1c2 1.4 7.8 3.3 7.8 3.3-1.3.4-3.4.7-3.4.7A26 26 0 0 0 30 41.9q6.4.3 12.3-2.2h.2l-5.5-.8-1.2-.4s3.1 0 8.3-1.5l4.9-1.7 1-.5q1.5-.7 2.8-1.6l.5-.2A34 34 0 0 1 43 35c-3 .2-7.5.4-12-.2-7.6-1-11.5-3.5-11.5-3.5 6.8 1.2 10.4 1 12 .8l-7.4-5.4a35 35 0 0 0-17.3-6.2m111.5 3.6c-1 0-3.5.1-5.4 1.5h.2v.1l.2.1.2.2.3.1v.1h.1l.1.1.1.1-1.9-.3-.6.6-.4 1.3q0 .7.4 1.3l1.4 1.6q.2.7 0 1.3l-1.2-.6c.1.1 1 1 .5 1l-1.2-.7c-.8-.4-2.2-1-2.6-1.5-.4-.3-.7-1-.7-1.2 0 0 .3.4.5.4l.9.5s-.2-.6-.5-.8-1-.5-1.3-1h.4v-1.5a6 6 0 0 0-3.3 0s1 .7 2 2c0 0-8.8 1.6-12.3 7.9l-.2.3c.2-.2 1.6-1.4 2.5-1.8q1.9-1 4-1.5 2.1-.7 4.4-1 7.5-.5 14.4 2c4.4 1.5 8.5 3.8 13 5l1.8.4h.3a17 17 0 0 1-3.9-1.5q-2.7-1.7-3.4-3.1v1.4s-3.6-1.6-5.5-3.2a6 6 0 0 1-2.2-4.2v-.1l-.7.8q-.6 1.6-.5 1.8t-.9-.6s.3 1 1 1.3c0 0 .4.6.3 1 0 0-1.4-.1-1.7-.4l-1.3-.6h.7s-.3-.9-.7-1.2-1-.8-.9-1.4c0 0 .9 0 1.2.2 0 0-1.2-1.1-2-1.3h1s0-.8 1.3-1.5q1.8-.8 2-1.5.3-.6.8-1l1.2.7s-.3-.9-1.3-1.6zM101 35.9h-2c.4 1.4 2.3 3.4 2.3 3.4-.9.1-2-.2-2-.2a19 19 0 0 0 9.6 5.6c3.6.7 6.8.6 6.8.6l-1.4.6s1.4-.1 3.3.3l.8.2 3.7 1.1.3.1a33 33 0 0 0-4.7-2.8l-5.5-2.5a73 73 0 0 1-7.9-4.8q-1.1-.5-2-1.4l-.2-.1zm13.5 1q1.2.3 2.3 1.2l1 .9 1.1.6h.4q.8 0 .9-.8c0-.5-.7-.8-.7-.8l-1.5-.4zM77 50.2l2.8.8q2 .5 3.9 1.3h-4.4q1 .2 1.8.9a283 283 0 0 0-20.1 1 17 17 0 0 1 6.9 4q-2.6 0-5 .4l.4 1.4c-.5.8-1.7 1.5-1.7 1.5h1.3c-.3 1 0 1.6 0 2.6q-.2 1.6-3.5 1.9c-2 .3-3-.4-3-.4l.3-.7-2.7.2c1.3-.6 3-1.8 3-1.8l-2.5.7-1-.8-3.8 1.1a44 44 0 0 0-10.3 5l4.2 1c.5-.6 1.5-1 1.5-1q-.7 1-.6 1.4c1.2-1.7 3-1.6 3-1.6l-.8.4 1.7.5c.8.3 2.6.4 3.7.4s3.1.4 3.1.4l3.6-1-2.6 1.5c3.4 1.8.5 5.6.5 5.6s-.6.2-1.8 1.1-1.6 2.2-1.6 2.2l1.6-1.2c-.3.4-.2.6-.7 1.9-.6 1.2-1.9 1.1-2.8 1.2-1 .1-2.5-1-2.5-1l-1.5 1.1c.5-1.4 2-3 2-3l-1.8 1.2c-.7-.6-3.1-1.3-4.7-2.1-1.6-1-1.4-2.6-1.4-2.6a7 7 0 0 1 1-2.4c-.6.3-1.2 1-1.2 1v-.6l-1.7 1-1.5 1-1 .9.2.1A56 56 0 0 0 51 87.5q8.6 5 17.6 8.8a41 41 0 0 1 15.6 12c1.9 2.5 3.2 5.3 4.8 7.8q4 6.5 9.7 11.5a34 34 0 0 0 9.3 5.7l.9.3q-.3 1.1-1.4 1.6 6.5 1.3 13.1 0l-2.3 2.5a34 34 0 0 0 27-16.7q.2-.4-.1-.4-2.5-1.2-5.3-1.4c-5.5-.6-10.8 1.3-15.9 3-2.2.7-4.4 1.7-6.6 2-3.3.5-6.6.5-9.5-1a25 25 0 0 1-7.2-6.2q-2.9-3.3-5.1-7.2-4.8-7.6-7.6-16A40 40 0 0 1 85.2 79c.2-4.1 1.2-8.4 3.4-11.9a13 13 0 0 1 4.2-4.3 12 12 0 0 1 4.6-1.6 247 247 0 0 0-28-4.7q5.1.3 11.4 1c34.9 3.8 54 13.1 54 13.1s1.5 1 .7 2.3q-.8.9-1.9.4l-3.9-1.8q-3.3-1.5-9-3.6 1 2.3 2.6 4.2 2 2.7 5 4.7a18 18 0 0 0 8.5 2.7q4.6.3 8.7-1.1l5.7-2.3q4-1.6 8-2.7a23 23 0 0 1 5.5-.4v-2.4a9 9 0 0 0-2.9-5.3q-.7-.8-1.8-1.4a55 55 0 0 0-9.9-5.1q-5.6-2.4-11.3-4.4l1.8 1 .3.2.5.3a41 41 0 0 1 5.7 4h-.6l-.7.3a24 24 0 0 1 4.1 3.6l1.6 2-3.8 1.4a23 23 0 0 1-4.8.6l-.2.4q-.8.8-1.9.3l-3.8-1.8a198 198 0 0 0-59.8-16.5zm108.4 6s-2.2 5.5-8 8.4a33 33 0 0 0-11.5 8.4c6 .7 8.9 3.2 9.8 4.4l.2.2c.4 0 6.3-1.1 10-5.2h-.4c-1 0-4.4 0-3.5-1.7.3-.5 1.3-.4 1.8-.3h2.7c1.2 0 1.5-1.1 1.8-2.1q.4-1.5.5-2.8a8 8 0 0 1-4.6 2.4h-.1c-.6.1-1.6 0-1.5-.8.1-.5.8-.9 1.2-1q1.7-.7 3.3-1.7l1.1-.9c.1 0 .6-.4.6-.6q-.3-1.8-.9-3a7 7 0 0 1-2.3 2.8c-.4.3-1.3.5-1.7-.2s.7-1.4.7-1.4a6 6 0 0 0 2.4-3zm-14.8 21.3q-2 .1-3.3 1.2-.3-.6-1-1c-2-.5-4.2 1.2-4.2 1.2.2-1.3-1.6-1-1.7-1a80 80 0 0 1-11.7 3.8c.6 3.1.4 5.3.4 5.3 3-1.6 5.6-4.9 7.2-7.3.3 1.6 1.7 3.8 1.7 3.8 2.1-1.4 4-3.3 4-3.3.7 1.2.6 3.7.6 3.7 1.5-.5 2.9-1.5 3.7-2.2-1 5.1-4 10.1-4 10.1a30 30 0 0 0 11-10.7q.7-3-2.2-3.6zm-22 4.2q-5.2 1.5-10.6 1.4c.6 6.3-5 12-5 12a26 26 0 0 0 15.6-13.4m-19.5 21s-3 7-6.3 10.5-5.1 4.3-5.3 4.8-.3 2.3 3.6 1.8c4-.5 6.7-3.4 6.7-3.4s5.3-1 10-.4c0 0 1.4 1.4 3.2 1.3s5.7-7.4 5.5-14.3c0 0-5.6 9-8.1 10.8 0 0-.6-1.5-1.4-2.2 0 0-3 2-3.6 3.2l-.7-1-1-1.7a8 8 0 0 0-3.3 3 16 16 0 0 0 .7-12.5" fill="#fff"/><path d="M111.7 4.4c-4.6 0-7.2.7-7.2.7s2 .1 6.2 1.6q.4 0 1-.5.8-.6 1.2-.5c.2 0 1.4 1.4 1.4 1.4l-.4-2h1.5l1.4.4.3-.3q.2 0 .4.6s.8.6.8 1.2v1.6s-.2.2-.5-.4c0 0-.6.5-1.1.5l-.7.1 7 3.6.4-1 .3.4V11s.7-.5 1.2-.6l1-.1-.1-.9s.9.5 1 1.2v-.8s1-.2 1.7 0q1.1.3 1.3.7c.2.2.6 1 .4 1.3q-.6.1-.8.4l-.4.5-.4.2.1 1q-.1.1-.5-.4l-.2.7q-.3.4-.7.5l-.7-.8s.1 1.4-.1 1.1l-1.6-1.3h-.8c-.3 0-1-.3-1.2-.5l.4.6-.5-.1-.7.3.6.7s-.8-.2-1.2-.6l-1-.1q-.6-.2-1.2 0h-.9l-1.2-.7.3.6s-.1.3-.8 0c-.8-.1-.8-.3-1.2-.6q-.6-.3-.6-.8l.3-.5.7.4-.8-1.2.6.1s0-.5 1.2-.7l.9-.2q-4.6-1.4-12-3l-.1.3-.2.3q-.2.6-.6 1l-3-1s1.2.9 2 1.3c0 0-.7 1-3 .8 0 0-1.1.5-2 .4s-2.1-.6-2.4-1q-.5-1 .7-2l1.9 1.1S98 7.3 98 6.8l.8-.6-1.7-.2q-7.4-.7-13.5-.4c.4.5.3.9.6 1.4s-.2.8-.2.8c-.3-.3-1.7-.9-1.7-.9l1 1.2a6 6 0 0 1-2.2.4c-1 0-2.3.9-2.3.9q-.8-.5-1.5-1.2l-.2-.2H77v-.1.1l1.1 2v.2l.4.5v.2h.1v.1h.1v.1l-.6-.2-1-.5q-.3-.3-.7-.4H76l-.1.1h-.4l-.4.1h-.6c-1 0-2.2-.9-3-1.7q-.4-.4-.4-1l-2.6.7-15 3.4-.1 1.3q.2.7.4.8l-2.2-.5c.4.6 1.5 1.3 1.5 1.3s-.2.6-.7.8q-.7.2-1.6 0l-2 .4c-1.1.2-1.9-.5-1.9-.5 1 .1 1.6-.5 1.6-.5q-1.5-.5-1.5-.9l-.7-.7-9 2-5.9.8q-.4.4-.1.6l1.2.2h1.3L31 18l-.7.5v.1H30l.6-.1q.8.1.9.3t.8-.1l1.2-.1-.8.2q.4 0 .7.3c.7.5-.2 1.1-.7 1.4q-1.2 0-1.2.2c0 .2 1 0 .9.3q-.1.4-1 .5c-.4.1-.8.6-.8.6l.4.2-.6.1-.5 1c-.2.2-1 .3-1 .3.4.2 1.5.3 1.5.3q-1 .4-1.5.3l1.8 1.2 1 .2q5.8 1.5 11.8 2 3.5.2 7.1-.6l4.3-1q-1 1.2-2.2 2h.1l14.3-3.5q4.5-1 9.1-1 .5-.5 1.4-.5 1.6 0 2.9.5l3.6.2a5 5 0 0 0-2-1.9l3.3.1a120 120 0 0 1 23 2.8v-.2c.2-.1.1-.5.5-.6l1 .3 1.4.8.2.6 2.5.7-.1-.1h-.1l-.1-.2-.2-.1-.2-.1h-.1l-.1-.2h-.1l-.2-.1c2.5-1.9 6-1.5 6-1.5l1.4.4s.8-.4 1.4-.4 1.7.6 1.8 1c0 .3-.2 1.4-.4 1.8s-1.3 1.1-1.9 1.3l-.1-.1-.7-.7v.2l.1.1v.1l.1.4v.3l-.3.2a45 45 0 0 1 10 6q2.7 2.2 5.7 3.9l.4.1 1 .4a9 9 0 0 0 6.1-.3l.8-.9.2-.2a6 6 0 0 0 .4-4.1v-.5l-1-2.7v-.2l-.2-.2v-.1l-.1-.2 1.4 1.3a24 24 0 0 1 7.3 13c0 .8-1.7.6-2.9.5s-7.5.5-9.6 1.5q2.2-.5 4.2-.6c3.8 0 9.2 1 10.8 2.5s1.2.9 1 2q-.5 1.3-2.6 1.6s0 1 .5 1.8c.6 1 1.8 2 1.8 2l5.3 1q1.5.5 3.1.8l1.7.4 6 1.9c.1 0 1 .6 1.2.5.4-.3 2.5-1.8 4.2-2.1 1.9-.4 3.6-1 3.6-3.2-.2-2.1-1.9-4.4-3.8-5.9 0 0-2.7 3.4-4 2.3-1.3-1 .7-2.4.3-5-.5-2.7-9.2-11.6-20.2-18.2 0 0 5.1 2 10 4.7 6 1 7.5-.6 7.8-1.3l-.7-1-.9-.4-1.8-.6-1.4-1.6q-.1.1.2 1s-.8-.7-1.6-.8l-1.9-.7-.7-.6.2.7s-.8 0-1-.9c0-.8.6-1.1.6-1.1v-.5l1 1q.1-.1-.1-1.4l-.3-.1-.7-.4c-.2-.1-11.6-6.5-17-9.2q-.6 0-1.5-.4s-.9-.4-1-.8v.5q.5.5.9 1.4l-1.6-1c-.7-.3-2-.6-2.8-1.2l-.5-.5-.1-.4v-.3l1.1.8h.1v-.1l-.1-.1-.8-1.1a64 64 0 0 0-26.6-6.9zM99 36a22 22 0 0 0-4.5.9H94l-.1.1-.1.1-.2.2-.2.1-.1.1-.2.2a4 4 0 0 0-1.1 1.6v.1l-.1.2v.4q.2.8.8 1.3 1.2 1.1 2.6 2 4 2.2 7.8 4.8a159 159 0 0 1 38.7 12.3s1.5 1 .6 2.3c-.4.6-1.3.5-1.8.3l-3.9-1.9c-5.3-2.6-15.8-7-31.2-11.2l6.7 6 9.1 2.4.8.3a152 152 0 0 1 13 4.4q.4 0 .6.2l.7.2 5.4 2.4h.1s1 .8 1 1.7l-.1.2v.2h.1a22 22 0 0 0 8.5-2.1l-1.6-2a24 24 0 0 0-4-3.6l.6-.2h.6a24 24 0 0 0-5.7-4.1l-.5-.3-.3-.2-1.8-1c-.8-1-3.7-5.1-7.6-5v-.2l-.6-1.3-.1-.2a6 6 0 0 0-1.6-1.8h-.1l-.2-.2-.3-.2-.2-.1-.3-.2-.9-.4h-.3l-1.6-.4h-1 .1c.4 0 .7.6 1 1l1 1a35 35 0 0 1 4.1 6.5l.4.8.1.5.1.3-1.9-1.8a48 48 0 0 0-6.5-5l-.3-.2-4.5-1.3c-1.9-.4-3.3-.3-3.3-.3l1.4-.6s-3.2.1-6.8-.6a19 19 0 0 1-9.6-5.6s1.1.3 2 .2c0 0-1.9-2-2.3-3.3" fill="#d7a22a"/><path d="M88.1 11c-.2.9 0 3.5 0 3.5-.4-.5-1-1.8-1-1.8s-.5-.3-1-.2c-.5.2-1.3.6-1.4 1 0 .3-.5.6-.5.6 0 .7.5 1.9.5 1.9-.5-.3-1.3-1.3-1.3-1.3q-.2.5.1 1.9c.4.9 2.5 1.3 2.5 1.3 1.3.2 2.2-1 3-1l.9.1 1.1 1.2v-1.4l.9-.4c.6-.3 1-1.5 1-2q.2-.8-.5-1.6-.7-.7-2.1-.5l-1.4.2zM68 13.2c-.8 0-2.4.6-2.8 1q-.8.4-2 .6a4 4 0 0 0-2.2 1.1l-.3.8s-.5.3-.6.8q0 .7.2 1l1.9-.5s-1.5 1.6-3.2 2.2c0 0 1.7 0 2.6-.3l.5.7c.4.7 1.8.8 3 .9h2c.3 0 1.4-.2 1.7-.4l1-.9s-.9.3-1.4.2c0 0 .5-.6.9-.6q.8 0 1.2-1t1-1.3c.4-.2 1.6-1 1.7-1.9q.2-1.5-2-1.7s-1.3.6-2.8.8l2.1-1.5-1.4.2zm39.5.5c.1.2.7.5.7.5l-1.2.3-1.2.9c-.3.2-1.3.1-1.3.1.3.7 1.9 1.7 1.9 1.7-1.2-.3-3.2-1.2-3.2-1.2s-.7-.1-1.6.3q-1.1.8-.6 2c.3.8 1.8 1.5 1.8 1.5l-1.9-.2c.2.1 1.3 1 2.4 1.2 1.2.3 2.3-.2 2.3-.2-.2-.4-.1-1-.1-1 .8.9 3 1.8 3.2 1.9l-1.4-1.6 1.2-.6 1.2-1.4c0-.3.5-.8.5-.8l1.2.4-.4-1 1.3-.7c.5-.5.8-1.4.1-1.6s-1.5 0-2 0H109c-.4 0-1.5-.4-1.5-.4m30 1.8-.7.1-1.6.1 1.2 1.5a8 8 0 0 0-3-1.5h-.1q-1.2 0-1.8.6c-.3.4-1 .6-1 .6 0 .3 1 1.2 1 1.2l-1.5-.5s.6.8 1.1 1l2 .9c.8.3 2 .2 2 .2l-.9-1.3 2.8 1.7q.5 0 .8-.6c.2-.3.6 0 1.2-.1q.8-.1 1-1 0-.5-1-1.3c-.9-.6-.9-1-.9-1l1 .4q0-.3-.8-.8zm-13.9 1.6.8.5h-.7l-.8-.3-1.3.2-1 .2-2-.3 1.2.8-1.4.7q-.5.1-.4.9l.3.8-1.6-.4 2 1.7c-.6 0-1.6-.4-1.6-.4s-.3.3-.2.6q0 .5 1 .7l1.5.1 2-.5c-.3-.5-.9-1-1-1.1l2.1.5a2 2 0 0 0 1.7-.6q.2-.4.9-.5c.5-.1 1-.6 1-.6l-.5-1 1 .3s.5-.7 0-1.2-1.4-.6-1.4-.6c-.5-.4-1.6-.5-1.6-.5m22.6 0 .4.7q0 .2-.8 0l-1-.2c0 .6.6 1.5.6 1.5-.4-.1-1.1-.6-1.1-.6 0 .6.5 1 .5 1s.3.4 1 .8q1.4.4 1.5.3c1.1 0 1.8.8 1.8.8h-.5c-.2 0 .6.5 1.2 1s1.6.3 1.6.3l-.6-1.5 1.4 1.3q.2 0 .3-.6c0-.3-.7-1-.7-1s.5-.5.4-.8l-.7-.9-.8-.5c.1.4.5 1 .6 1l-.7-.5c-.1-.2-1-1-1.6-1.3-.8-.3-1.7 0-1.7 0zM44.8 18.9q-.9 0-1 .3l-1.6 1.4c-.7.6-.5 1-.5 1l-2.3.5 2 .5q.2 0-.3.5c-.3.4-.5 1.3-.5 1.3.6.3 2.4.7 2.4.7l-2.4.4q-.1.2 1.4.7c1.2.1 2.8-.8 2.8-.8 1.3.3 2.2-.4 2.2-.4-.3 0-1-.4-1-.4l1.8-.1q1.2-.7 1-1.5c-.3-.6 0-1-.1-1.8 0-1-.7-1.3-.7-1.3q1.6-.6 1.5-.8c0-.2-1.8.1-2.2.1l-1.2-.2zm95.5 3.2 1.2.7s-.8 0-1.2.7c-.4.8.1.7.3 1.7s1.2.8 1.2.8q-.3-.5-.2-.6l1.5.6.9.4h-1.3s.8.5 1.5.7c.8.1 1.1-.3 1.1-.3.7 0 1.5.3 1.5.3l-.3-.9c.3-.2.8-1 0-1.5-.7-.5-.8-1.1-1.8-1.8s-1.8-.4-1.8-.4l.4.8c-1.3-.8-3-1.2-3-1.2m-62.6 1q-.8 0-1.4.4l-.5.5c-.4.3-1.1.5-1.1.5h-1.5c1.5.5 2 1 3 1.4l-2.5-.4q-.4 1-1.3 1.4l-.5.7c.9.1 3 1.3 3 1.3-.8-.2-3-.2-3-.2 0 .4-.2.4.4 1q.9 1 .4 1.3c-.2.2-.7.8.2 1.6 1 .7 2.7.5 3.2.5h1.1l-1-1 1.7.4s-.4-.4-.1-.7 1.1-.2 1.7-.7c.7-.5.5-1.7.7-2 .1-.2.8-.5.8-.5h.6L79 27.2l1.9.1c0-.3-.5-1.2-.6-1.5v-1.6q-.3-.4-.5-.4l1.7.1-1-.4q-1.2-.5-3-.5m76.5.5.2.5-.9.1-.8.5 1.4 1.6-1.2-.6q0 .6.9 1.1c.5.4 1.8.7 1.8.7.3.4 1.5.6 1.5.6 0-.3-.8-1.3-.8-1.3.4.1 1.8 1 1.8 1l.4-.3c.1-.2-.3-1-.4-1.2q-.1-.4-.8-1.2c-.5-.4-1.5-.7-1.5-.7l.2.6c-.6-.6-1.8-1.4-1.8-1.4m-21.4.2q-.7 0-1 .2l-.8.5-1-.1 1.5 1.4-1.9-.5q-.3.4-.2 1l-.3.6c.2.4 1.5 1.3 1.5 1.3l-1.8-.2c1 1 2.4 1 2.7 1l1.2.1c.5 0 1-.6 1-.6q.7-.5 1-1c.1-.3.6-.7.6-.7l-1.2-1.3 2.3 1c-.5-.8-1.2-1.2-1.2-1.2s-.6-.8-1.2-1.2q-.4-.3-1.2-.3m-23.8.2q-.4.3-.4.6l-.2.2 1.1.7c-.4-.2-1.7-.2-1.7-.2q-.3.3 0 1.4v1.6l-.4.2 1.3 1c.3.1.5.7.5.7l-1-.5-.4-.4c0 .1.3.9.7 1.2l2.6 1.5q1.2.6 1.2.8c.5-.1-.4-1-.5-1 .4 0 1.2.5 1.2.5q.2-.6 0-1.3l-1.4-1.6q-.4-.7-.4-1.3.4-1.4.5-1.3l.5-.6 2 .3h-.1l-2.5-.7q0-.4-.2-.6l-1.2-.9c-.2 0-.8-.4-1.1-.3m-15.8.1q-.4 0-.8.3-.8.6-1.7.8-.7.4-.6.5c.4.2 1 1 1 1l-2.1-.4-.2.7-1.1.6q-.7.3-.8 1.1c0 .9 1.1 1.5 1.2 1.6h-1l2.1 1.9-1.2-.1c.4 0 1.7.6 2.3.7h1.1l-.7-.8 1.4.4q1.3 0 1.8-1c.3-.4 1-.8 1-.8l1.8.2-1.3-.7q.9-.3 1.1-1 .3-.3.5-1-.2-1-.4-1.1l.8.2c-.2-.2-.9-.6-.9-.9q0-.2.6-.6.3-.6-.5-1c-.5-.2-1.4-.2-1.4-.2l.6.6-1.9-.7zm28.5 0c-.6 0-1.4.4-1.4.4l-1.4-.4c1 .7 1.3 1.6 1.3 1.6l-1.2-.8q-.5.5-.8 1.1c-.3.5-.7.9-2 1.5s-1.2 1.4-1.2 1.4l-1.1.1a7 7 0 0 1 2 1.3c-.3-.2-1.1-.2-1.1-.2-.2.6.5 1.2.8 1.4.4.3.7 1.2.7 1.2h-.7l1.3.6c.3.3 1.7.4 1.7.4.1-.4-.3-1-.3-1-.7-.4-1-1.3-1-1.3l1 .6q-.2-.2.4-1.8l.7-.8q.5-.6 1-.8l.3-.2V28l-.2-.4v-.4l.6.7.1.2c.6-.2 1.7-.8 1.9-1.3s.5-1.5.4-1.8-1.2-1-1.8-1m-61.5 6.2c.3.4 1.7 1.2 1.7 1.2l-1.6-.4-.9.1c-.5.1-1 .6-1 .6-1 0-1.6.8-2.2 1.3q-1 .5-1.1.4c.3.7 1.2 1.5 1.2 1.5l-2.1-.9q-.3.8 0 1.7c.1.5-.5.8-.5.8.5.6 2.2 1.1 2.2 1.1h-3.5l2.2.7s1.3.6 2.8.8c1.6.2 3-.8 3-.8s1.5.2 2-.5c.7-.7.2-1.8.1-2q-.1-.6.5-.7c.5 0 1-.5 1-.5h2c-.3 0-2-.5-2.3-1s.5-1.1.5-1.7q0-1-1.5-1.5h-1.4zM81.5 37l-.4.1-.7.9c-.2.2-1 0-1.3 0q-.4.1-.5.5s1.4.5 2 1l-2.8-.6 1 .5s1.3.6 1.6 1h-1.1s1.1.5 1.8 1.1c0 0 .2 1.5 1 1.6q1 .2 1.5 0l.4-.7.8-.2q.5-.6.9-.8l.8.1.4-.1-2-.8 2.4.3s.3-.3-.5-.5c-.7-.3-.3-.9-1.2-1.4q-1.3-.8-2.8-1.2h1.6l-1.4-.6zm-15.2 4q-1.3.1-1.5.3c1.3.2 1.5.6 1.5.6l-2.4.5q-.6.1-.4.4 0 .5-.5 1.3c-.3.6-.2 2-.2 2 .7.3 2 .3 2 .3L63 47c.2.7 1.2 1.6 2 2.4l1.3 1.5-1.2.4s1.9.7 2.9.8 2.8-.6 2.8-.6c1 0 2.8-.1 3.2-.8s-.4-1.5-1-2.1a5 5 0 0 1-1-2c.7 0 1.9-1.1 1.9-1.1s-2 .4-2.4 0a7 7 0 0 1-1.8-2c-.4-.8-1.2-2.3-2.5-2.5zm-17.7 0h-.3c-.4.1-1 .7-1.4.6-.5 0-1.6-.2-1.8.3l-.3 1 1.8.5h-2.9l.6.2s-.6 1 0 1.8c.4.7 1 1.7 1.9 1.8l2-.1-1.9-.6s1.6 0 2.8.4c0 0 2 0 2.3-.5l.7-1q.8-.5.6-1.6c-.2-.6-1.4-1.2-1.4-1.2l-1.8-.5H51q.2-.2-.6-.7zM77 44.2a244 244 0 0 1 28.7 5.8 179 179 0 0 1 35 13.1q1 .4 2-.3c.8-1.3-.7-2.3-.7-2.3s-13.6-7.3-39-12.4a249 249 0 0 0-26.2-4m67 1.2q-1.9 0-4.1.6a32 32 0 0 0-8.4 3.4l-.2.1s7.2-2 12.6-1.6c5.4.5 10.4 3.1 11.3 1.2q.3-.6-.4-1.2c-1.6-1.4-6.9-2.5-10.7-2.5m-104.5 3q-.8 0-1.2.2l-1.7 1.7q-.6.6-.4 1.9s-.9.4-1.4.4c0 0 1 .3 3.2 0 0 0-1.1.5-1.6 1 0 0 .7 1.1.7 2.3l-.1 3.3 2.4-.2s-2 1-2.5 1.6c0 0 .3 2.5 2 2.9 1.8.4 2.6-.5 3.3-1.4.8-.9 2.3-2.1 2.9-2.6.5-.4 1.1-2.7.2-3.6l-.8-.8c-1.3.5-2.6.5-2.6.5l2.1-1-.6-1-.8-2.9-1.5-.1s1.8-.6 2.5-1.1h-1.2s-.2-.8-1.3-1zm37.6 2h.2L88.1 52a199 199 0 0 1 52.7 16.5q1.1.5 1.9-.3l.2-.3v-.4c.1-1-.9-1.6-.9-1.6h-.1l-2-1-3.5-1.5-.6-.2-.5-.2a131 131 0 0 0-13-4.4l-.9-.3a195 195 0 0 0-17.4-4.1 240 240 0 0 0-24.6-3.6H79zm-24.4 1.6-.4.1c-.5.3-.6 1-.6 1l1.8-.1s-1.2.9-3.6 1.2l.7.1h.7l-.4 1.5c0 .6.2 1.7.8 2.2s1 0 2.2-.3c0 0-.3.6-.8 1 0 0 .5.3.2.8s-1 1.9-.6 2.8q.3.6.9 1l1 1 2.6-.8s-1.8 1.2-3.1 1.8c0 0 2 0 2.7-.2l-.3.7s1 .7 3 .4q3.3-.3 3.5-1.9c0-1-.3-1.6 0-2.6h-1.3s1.2-.7 1.7-1.5l-.5-1.4q-.3-.7-1-1.1l-.4-.2-.9-.2-1.5-.6-.7-.5q-.8-.6-1.2-1.9s-.4-1.3-1.4-1.6zm20 15.9q-.7 0-1.3.3l-2.9 1-1.8 1 .7-1-2.5.1c-1 0-2.2.2-2.4 1.2q0 1.4.6 1.9l2.6 1.7s1.1-.7 2-1c0 0-2 1.5-2.4 2.3 0 0 .9-.5 1.5-.5 0 0 1.6 1 2.6 1l3-.3s1-.8 2.3-.9c0 0-1.3.9-1.6 1.3l.8.1q.7.5 2.2 0c1-.3 1.8-.6 1.8-1.8 0-1-.7-2.4-.7-2.4s1.2-1 1.8-1.3c-.1 0-1.4.2-2.2.5 0 0-1-2-2.1-2.6q-1-.7-2-.6m-25 1.4s-2-.1-3 1.7q-.1-.5.5-1.5s-1 .4-1.5 1l-.4.7-.3.7v.1l-.1.2-.4.2-.7.4q-.3.3-.4 1v.6l1.1-1s-.8 1.4-1 2.5c0 0-.1 1.7 1.5 2.6 1.6.8 4 1.5 4.7 2l1.9-1.1s-1.6 1.6-2 3c0 0 .9-.9 1.4-1.1 0 0 1.6 1.1 2.5 1 1 0 2.2 0 2.8-1.2.5-1.3.4-1.5.7-1.9 0 0-1 .6-1.6 1.2 0 0 .3-1.2 1.6-2.2l1.8-1s2.9-3.9-.5-5.7l2.6-1.4s-2.7.6-3.6 1c0 0-2-.5-3-.5-1.2 0-3-.1-3.8-.4l-1.7-.5zm14 11.6c-.1 0-1.4 0-2.2.7 0 0-2.4.3-2.9 2s.8 2.7 1.1 3c0 0 .5-.8 1.5-1.3 0 0-.6 1-.5 1.7 0 0 2 1.1 6.2 1.7s4 .3 5.4 1.2c0 0 1.5-1.1 2.4-1.4 0 0-1.2 1.7-1.3 2.4 0 0 1.9 1.6 3.5 1.8 1.6 0 3-.5 2.8-2.2l.6-.7h-1l.3-.5s0-.8-.5-1.5c0 0 .8.5 1.6.3l-.2.4s.8 0 1.5-1.2l-.5-.1s0-1.2-1.2-2.4q-1.7-1.8-2.9-.9s-.3-1.2-1-1.6q-1.2-.3-1.3-.2c-.1 0-3 .6-4.2 1.3l3-1.9-1.7.4-3.3-.1c-1.6-.1-5.3-.5-6-.4z"/><path d="M109.4 36.4h-1.9s6.8 5.4 10.8 6.4 9.4-2.4 9.4-2.4l-5.5-1.6q.4.4.4 1a1.9 1.9 0 0 1-3.7 0v-.2l-1-.6-1.1-1q-1-.7-2.3-1.2-3.4-.4-5.1-.4M157 57.5c-1.7.1-3 .8-3 .8s6.3 0 8.6 2 1.7 3.6 1.7 3.6 2.3 3.6 2.9 5.2c0 0 4.3-4 4.6-6.8 0 0-8.4-4.2-14-4.7zm-61.2 13c-2.5 0-3.6.7-3.6.7s4.8 1.2 7.6 6.2c4.1 7.5 1.2 20.8 4.3 28a20 20 0 0 0 10.8 11.1c9.2-4.9 11.2-12.6 11.2-12.6-7.9-4-4.1-15.4-6.5-22.8-2.3-7.4-11-8.8-11-8.8s7.1 3 7.3 23.6c0 7 2.2 9.9 2.2 9.9-3.6-2-4.6-9-4.9-14.5-.1-2.8-1.3-16.4-11.7-19.8q-3.6-1.1-5.7-1m35.8 36 .4 3.6 2.4 1.6c.8-2.8-2.8-5.1-2.8-5.1" fill="#006778"/></svg>