<svg xmlns="http://www.w3.org/2000/svg" xml:space="preserve" viewBox="0 0 158.2 100.9"><path d="M152.5 44.6q-2-1.8-2.8-2.2c-2-1.6-.3-.3-2.2-1.5-1.3-.9-1.7-1.6-3.1-2.4-2.6-1.4-2.8-1.8-4.8-4.2-1.7-3.2-4.4-3.6-7.1-4.2a9 9 0 0 1-5-3.5c-1.4-2.3-3.7-3.4-4.9-4-3.7-2-8-1.7-11.3-4.7-5-3.5-6.4-2.9-11.7-3-3-.2-6.7-2-8-3a10 10 0 0 0-3.3-1.9c-3.8-1-6.3 1-11.6-1.7l-4.4-2.6c-.5-.4-1-.7-2.5-1-3-.6-5.5-.2-8.5.1-2 .1-2.5-.7-4-1.5q-2.2-1-4.5-1.5a21 21 0 0 0-7.7.3c-5.2 1.1-10-1.5-15.1-1a5 5 0 0 0-3.1 2.3 7 7 0 0 0-.6 4.2c.1 2.1.3 2.3.7 3.7l2.2 6.7c.8 2.4.8 5.3-1.2 6.3-1 .4-2.6.4-3.5-.3-1.4-1.1-2.2-2.6-3.8-2.9-2.2-.4-4.8 1.8-7 2.4S11 22.9 9.5 22c-1.1-.5-2.2.2-2.7.6q-1.5 1-1.6 3.1-.3 1.5 0 3.2.7 2.2 1 3.7.1 4.4-1.6 6.6C4 40.3 2.9 43 2.6 44c-1 3.2-.9 2.7-1.4 5.8q-.3 2.5-.3 4.8c0 .3.1 3.6.3 4.6.4 2.5.9 4.1 1.4 6.2.7 3 1 4.9 1 7.2-.1 2.4-1.6 4.7-.2 6.3.9 1 3.2 2 5.1 1.1s3.3-1.8 4.8-2c2.8-.4 4.6.8 5.8.7 1-.1 2.9-1.2 3.7-1.3.8 0 2.3-.1 2.8.3.9.6 1.4 1.3 1.3 3.5l-.5 2.4Q24.8 87.9 24 91c-.6 2-2.8 6.5 1.8 8.3q2.9 1 6.5 0l3-.7h1.8l1.7-.2c2.8-.3 3.5-.1 6 .2 2.3.3 4.6.8 6.9.5q1.7-.2 3.5-.7c3.2-1 4.7-2.5 8.7-3 3.2-.5 3.2.1 6.1 0 3-.1 4.7-1.5 5.9-2.1 1.5-.9 1.9-.9 2.9-1.5 3.7-2 8-1.7 12.2-2.7 3-.8 4.1-2.1 7.4-3l4.1-.5c1-.2 3-1.1 4-2 1.8-1.7 1.6-1.8 3-2.6 2.3-1.3 5-1.3 7.3-2.4s4.5-1.8 6.2-3.6c2.5-2.5 6.5-3.2 9.7-4.4 2-.7 4.5-2 6.6-5.6s4-4.1 7.6-5.2c2.5-.8 3.6-1.3 5.5-3 1.7-1.7 2.3-2.7 3-3.8 1-1.3 2.7-3.5.9-5q-1-1.2-3.4-3.5"/><path fill="#fff" d="M150 47.7c-2.1-1.6-2.3-1.9-3.4-2.6a19 19 0 0 1-4.9-4c-1.4-1.6-1.8-2.1-3.3-3l-3.9-1.5c-3.6-.6-3.8-1.4-5.2-2.8-1.2-1.7-2.6-3.8-3.8-4.6l-2.2-1.4c-2.1-.7-2.8-.5-5.4-.6 0 0-2.9-.4-3.6-.8-1.4-.6-2.1-1.3-3-2l-3.5-2.6c-2.7-2-3-1.5-6.5-1.9-3-.3-5.1-1-7.4-2.6-4.1-3-8.1-2-10.6-2.3a19 19 0 0 1-7.5-2.9c-2.9-1.8-2.2-1-5.3-2.4-3.7-1.8-7.2 1.2-11.5 0-2.4-.7-3.2-2-4.7-2.4-4.5-1.3-6-.6-9.5-.6-4.3 0-8.2-1.1-12.3-1.1-1.1 0-2 1-1.9 2.3v1.6l1.2 4.1c.5 1.8.8 2.4 1.5 5.2.2 2.2 0 2.8-.2 3.8l-1 2.9q-.6.7-1.7 1.3a8 8 0 0 1-4 1c-1.5 0-1.1 0-3.4-.8-.8-.3-2.5-1.3-4.2-.5-3.3 1.3-3.7.2-5.5.3q-.8.1-1.6.5-1 .5-1.7 2-.6 1.2-.4 2.8c-.2 0 .3 1.5.3 1.6a9 9 0 0 1-.3 5.7c-.8 1.7-1 2.3-2 3.8-1 1.3-2.6 5.3-2.8 9 .2-.1 0 4.4.5 7.1.6 3 1.5 3.2 1.7 8q0 2.7-.2 5.1c0 1.1.3 2.6 1.7 2.4 1.9-.3 4-1.4 5.6-1.4l2.5.3c3 1.1 2 .3 6.8-.5 1.6-.3 3.8 0 4.7.5 2.8 1.7 2.5 5.2 1.7 8.8l-1 4.8c-.5 1.9-.4 2-.6 4q-.3 1.4.5 2.6.6 1.1 1.6 1.2c3.1.1 4.8 0 8-.5a29 29 0 0 1 9-.5c3 .3 7.1.2 8.8-.5 1.5-.5 3.6-1.7 5.3-2 5.4-1.2 5.6-.7 10-1.3 3.5-.4 5.3-2.2 7-3.1 2.5-1.3 4.7-1.8 7.5-1.8 1.7 0 4-.5 5.2-1 4.7-2.2 2.9-2 9.4-3.3 3.3-.6 5.7-3.2 7.7-4.3q1.9-1.2 3.9-1.8l6.1-1.5c3-1.1 4-2.2 5.7-3.7 1.4-1.2 1.8-1.2 3.4-2.2s3.9-1.7 4.7-2c2-.6 5-3.9 7.7-6.7 3.3-3.3 6.3-2.7 9.9-4.7 2.2-1.1 3.6-1.9 2.6-4a8 8 0 0 0-2.4-2.5"/><path d="M77 64.2c-6.8-5.3-4.8-10.1-2-12.3l.9 1-1.5 1.5.1 5.5h19.6l2.5-2.4v-6h-1.5l-6.7-7.3c13-2.8 19.4 2.9 23.3 9.2h5.1l2.5-2.5V36.3H114l-3.3 2a36 36 0 0 0-29.5-2l-1.5-1.5 8.4-5h5l2.5-2.3v-5h-20l-2.1 2.3V28L54.6 38.9v-8.3l3-3v-5H38l-2.6 3.1v4h3.1v21.2h-1l-2.5 3v5.5h20.7l2-1.9v-6.6h-3v-1.7l11.4-6.5 1 1a19 19 0 0 0-6.1 6.1 17 17 0 0 0-1.7 13 18 18 0 0 0 10 10.8 45 45 0 0 0 12.5 3.3c4.2.3 9.6.3 13-.2a40 40 0 0 0 10.3-2.8q3-1.3 5.7-3c4.1-3 8.5-7.5 8.5-13h-7.6c-2.5 8.5-25.8 12.4-35.1 5.8" stroke="#000" stroke-width=".5"/><path d="M94.9 23.9H76.3v3.3h2.2L54 41.2v-14h3.1V24h-18v3.2h3.1v25.6h-3v3.7H57v-3.7h-3v-4.3l14-8 11.5 12.3H77v3.7h18.6v-3.7H95L78.2 34.6l12.5-7.4 4.2-.1zm0 11.6c-5.8 0-9.9 1.3-11.9 2l4.8 5.2c10.3-2.5 21.3.1 26.2 7.4h4.6V37.2h-4.2l-3 2a41 41 0 0 0-16.5-3.8zM114 50zm-45-5a16 16 0 0 0-6.8 8.3 15 15 0 0 0 .4 10.8c2.5 4.4 6.6 6.9 9.3 7.9a50 50 0 0 0 19.9 3.2q8.6-.1 15.8-3.7c3-1.5 3.5-1.9 6.4-4.5 2.1-2.5 3.8-4 4.6-7.8h-5c-2 3.3-4.7 5.9-11 7.7h.1c-12.1 3.6-23.7 1.8-28.9-4.5-4.3-5-2.3-9.3.5-11.7z" stroke="#e31837" stroke-width=".3" fill="#e31837"/></svg>