<svg data-name="Layer 1" xmlns="http://www.w3.org/2000/svg" viewBox="0 0 460 330.1"><defs><linearGradient id="a" x1="-326.3" y1="618.5" x2="-326.3" y2="619.5" gradientTransform="matrix(276.8 0 0 228.6 90608.3 -141399)" gradientUnits="userSpaceOnUse"><stop offset=".2" stop-color="#ffd103"/><stop offset=".3" stop-color="#ffd723"/><stop offset=".5" stop-color="#ffe980"/><stop offset=".7" stop-color="#fff"/></linearGradient><linearGradient id="b" x1="-326.7" y1="618.6" x2="-325.7" y2="618.6" gradientTransform="matrix(266.1 0 0 265.8 87034.8 -164276.5)" gradientUnits="userSpaceOnUse"><stop offset="0" stop-color="#f6a117"/><stop offset=".1" stop-color="#f7a614"/><stop offset=".3" stop-color="#fab511"/><stop offset=".5" stop-color="#ffcd03"/><stop offset=".5" stop-color="#ffd103"/></linearGradient></defs><path d="M403.9 56.1c-63-63-161.1-74.2-236.6-27.1a199 199 0 0 0-53.2 51.9l-.2.2H74.4L0 249.5h96.5a152 152 0 0 0 217.4 55.9 15 15 0 0 0 6.1-16.5 15 15 0 0 0-18.3-10.1 102 102 0 0 1-105.5-29.4h90.2l15.5-21.6H362l-2.8 6.9-6.5 14.6h98.4l2.1-7.7a191 191 0 0 0-49.3-185.5m39.3 183h-74.4q4.6-10.5 7.6-21.6h-79.9l-15.4 21.6h-71.6l107-149.9a115 115 0 0 0-44.5-8.6l-5.8.1c-58.1 2.9-104.4 49.5-104.4 106.4s.2 7.4.6 11.1h63.2l-18.8 26.5c-5.9 8-13.8 14.4-25.8 14.4h-5.2c18.9 32.6 54.9 54.6 96.2 54.6s22.1-1.6 32.7-4.8l1.3-.2q3 .3 4 3.2c.5 1.8-.2 3.8-1.8 4.8a142 142 0 0 1-205.3-57.6H16L81.3 91.6H119c26-33.9 66.1-54.2 108.8-55.2h3.1c60.3 0 110.8 36.1 131.3 89.1l-37 51.9h56.4A151.7 151.7 0 0 0 172.8 37.8a180.9 180.9 0 0 1 270.4 201.3m-209.8-51.4h-61v-.6c0-51.2 41.5-93.3 94.5-96l5.3-.1q14.1 0 27.8 3.6zm132.2-48.8q4 13.8 5.1 28.1h-25.2z" fill="#1f3d87"/><path d="M172.8 37.9a151.4 151.4 0 0 1 196 201.2h74.4A180.9 180.9 0 0 0 172.8 37.9" fill="url(#a)"/><path d="m362.2 125.5-14.3 20.1a73 73 0 0 0-52.3-22l-3.7.1 24.6-34.5a104 104 0 0 1 45.7 36.3m14.2 92q5.2-19.4 5.2-39.5v-.6h-15.5c3.6 13.2 3.4 27-.5 40.1z" fill="#d7d2cb"/><path d="M308.3 296.7a142 142 0 0 1-145.8 5.5 138 138 0 0 1-24.6-48.2c15.8-.7 38.8.6 55.7 7.9a112 112 0 0 0 111.1 27l1.3-.2c1.9.1 3.5 1.4 4 3.2s-.1 3.8-1.7 4.8m-145.8-98.5q-.6-5.6-.6-11.1c0-56.9 46.3-103.5 104.4-106.4a138.6 138.6 0 0 0-131.9 117.5z" fill="#ffd103"/><path d="M176 239.1h-41.2q1.2 7.5 3.3 14.9c15.8-.7 38.8.6 55.7 7.9q-10.5-10.3-17.8-22.8" fill="#f6a117"/><path d="M103 239.1a139 139 0 0 0 19.3 29.9 47 47 0 0 1 15.7-15 128 128 0 0 1-3.3-14.9z" fill="#f08119"/><path d="M316.6 89.1a115 115 0 0 0-44.5-8.6l-5.8.1a138.6 138.6 0 0 0-131.9 117.5H96.1l47.2-106.6h-24.4a142 142 0 0 1 108.9-55.1h3.1a139 139 0 0 1 131.3 89.1 105 105 0 0 0-45.6-36.4M138 254a48 48 0 0 0-15.7 15 143 143 0 0 0 40.3 33.2A136 136 0 0 1 138 254" fill="url(#b)"/><path d="M368.7 196.6q0 10.7-3.1 20.9h-69.1l-15.4 21.6h-71.6l82.4-115.5 3.7-.1a73 73 0 0 1 52.3 22l-22.7 31.9h41a77 77 0 0 1 2.5 19.2M81.3 91.6 16.1 239.1h165c12 0 19.9-6.4 25.8-14.4l18.8-26.5H96.1l47.2-106.6z" fill="#fff"/></svg>