<svg xmlns="http://www.w3.org/2000/svg" xml:space="preserve" viewBox="0 0 254 138.2"><path d="M231.4 56.5c18.1 23.3 22.3 54.7 20.4 80.5A191 191 0 0 0 201 66.8c2.2 4.6 3.9 9.4 5.8 16A205 205 0 0 0 84.6 51s5.5 6 7.3 9.2C67 70.5 33 83.2 3.7 137c-7.8-37.4 18-74 26.3-83-4.4 0-5.4.2-10.2 0 27-37.8 78.3-45.4 105.6-43.3l-7-8.8C156 .3 174 11.5 181.2 14.4c29.2 14.4 43.7 33 50 42" fill="#001532"/><path d="M130.2 6.4h-2.9l5.9 8.4C119.4 13.7 66.5 12 31 47.3l-2.5 2.5 10.2.4-1.8 2.1a120 120 0 0 0-30.3 65l-1 6.5 3.8-5.5q28.9-42.4 74-59l1.8-.6L84 57a53 53 0 0 0-8.9-9.5c52.3-5.3 90.1 9 120.2 23.7L199 73l-1.6-3.8a100 100 0 0 0-8.3-16.2c22.6 13.4 38.5 33.2 54.8 58.4l3.4 5.2-.5-6.2c-6-68.4-72.7-105-116.6-104" fill="#0080c5"/><path d="m137.6 15.8-4.4-6.3c21.2.5 46.4 9.7 66.5 24.7a106 106 0 0 1 43.3 70.2c-16.7-25.1-33.4-44.5-58-57.3l-5.2-2.7 3.3 5a117 117 0 0 1 9.8 17.2A214 214 0 0 0 71.1 44.8l-3.5.4 4.2 3.6a57 57 0 0 1 8.5 8.5 153 153 0 0 0-69.5 54 117 117 0 0 1 28.5-57l5.7-7h-3.2l-6-.3c40-36.7 99.7-28.9 100.3-28.7l3.5.4z" fill="#eead1e"/></svg>