<svg fill="none" xmlns="http://www.w3.org/2000/svg" viewBox="0 0 500 500"><path fill-rule="evenodd" clip-rule="evenodd" d="M444.3 242.7c-14.7 2-40.4 12.6-35.5 18.3a95 95 0 0 0 21.1 14.5c-6.8 0-29 2.3-31.5 8.6s32.2 27.5 45 32.5c-15.9-4.5-53.6-12-56-6.8-2.6 5 4 20.8 9.9 25.4-4.4-1.3-27.2-7.7-30.8.7-4 9.2 18.2 43.2 20.8 49.6-10.3-10.2-38.4-33-42.4-30.4s-3 15.3-2 21.8c-3.8-4.7-10.4-12.3-16.2-10-5.7 2.2-5 24-5.3 33.4-4.8-11-12.5-33-19.6-32.2s-15.1 15.8-16.7 21.5c-1-5.7-5.7-18.3-12.8-18.3-7 0-23.5 33.4-28.4 44.2 0-8.4 2-49.3-2.5-51.4-4.4-2-19.4 7.3-22.7 11.6 1.2-5.4 2.2-23.6-1.8-25.8s-15.4-2.9-36 16.2c3.4-7.3 9-15.3 10.4-23q12.8-.6 25.6-3a113.2 113.2 0 0 0 178.6-106.2l11.9-11.4q-1.3 3-1.2 7.5c.2 9.6 25 11.6 38 12.7m-281.6 40.7c-3.6-2-20.2-2.7-20.2-2.7s18.7-12.6 18.3-21.7c-.5-9-30.2-13.7-42-16.3 10.4-2.2 44-9.8 45.5-16.5 1.4-6.8-10.5-11.6-15.6-14 5.7 0 20 2.5 21.9-4.5 2.2-8-33-28.8-41-31.7 1.8.4 35.3 8.2 47.5 5.6 9.1-2-1.5-14.3-3.2-15.7 2.7 1.3 18 4.5 22.4-2.8s-10.5-36.4-18.9-48.7c7.5 7.4 41.3 31.5 46.4 27.4 5-4 1.2-17.3-1.5-21.7 5.4 5.1 10.8 12 17.7 11.8 3.5 0 7.9-11.6 8.6-37.5 4.7 14.5 16 34.3 24.2 33.1s11-13.4 12.2-18.6c1 5.5 5.2 20 10.7 20.5 6.8 1 19.7-29 24.4-42.6.7 6.7-4.2 41.1 3 44s19.4-11.6 26.2-19.8c-4.1 8-12.2 27-7.4 31.5s21.5-.3 28-5.6A17 17 0 0 0 368 147a146 146 0 0 0-22.9 6.5 113.2 113.2 0 0 0-167 137.2q-9.5 7.2-19 11.5c4.7-5.5 8.7-16.1 3.5-19M480 157q-.2-2.6-.4-2.7c-2.1-7.4-9.6-11.9-19.7-11.9l-3.3.2c-7.8.8-21.6 5.5-25.7 6.9a149 149 0 0 0-55.3-3.6l-2.6.4s-1-3.2 1.6-10.7c1.4-3.8 3.2-7.4 3.2-7.4s-28.1 14.6-31.6 10c-3.5-4.7 12.2-41.8 12.2-41.8s-27 30.1-32.4 28.8c-2-.5-2.3-11.4-2.4-23.2-.1-15.8.4-34 .4-34s-22.3 55.4-27.7 55.1c-4.7-.2-11.6-29.8-11.6-29.8s-4.3 25.5-12 28.6S245 77.4 245 77.4s-.9 47.7-6.4 48.7c-5.6 1.1-23.2-16.7-23.2-16.7s8.3 23.7 5.5 26.9c-1.7 1.8-18.6-8.6-36.3-21.3L166 101.6s10 16.5 17.9 33.7c5.4 12 8.7 23.3 7.3 25.5-3.5 5.5-29.7-2.3-29.7-2.3s14.9 14.4 14 18c-.5 1.8-15.3.6-30.4-1.5-16-2.2-32.1-5.2-32.1-5.2s53 30.9 51.4 36.5c-1.3 4.3-34.4.7-34.4.7s28.8 13.2 28.7 17.5-56.3 18.6-56.3 18.6 50.8 10.6 51.8 16.3c1 5.6-20 23.8-20 23.8s24.4 2.2 25.7 5.5c1.2 3.2-6 15.8-12.2 17.8a72 72 0 0 1-26.8 4 33 33 0 0 0 5.7-11.1v-.1q.7-2.6.7-5v-.2q0-3-1.8-4.6c-2-1.8-4-1.6-5.4-1l-4.8 2.4-1.3.4c-1 .3-2.9.6-7 .6-3.7 0-8.3-.2-12.7-.5l-3.2-.2c-5.3 0-8.8 1.7-11 3.2l-1-.6c-10.8-5.7-23.3-8-31.2-9.4l-1.7-.4c-8.6-1.6-13.3-6.8-13.7-7.2q-1.1-1.3-3-2.5s-2.2-1.4-5.5-.4a6 6 0 0 0-3.1 2.5c-1.9 3-.1 7.6 2.2 12.7 2.7 5.8 11 20.4 31 29.6q10 4.5 25.6 6.5c7.9.9 14.5 1 17.2 1a193 193 0 0 0 77.7 17.4s8.1 0 12.5-.2c.4 1.8-2.7 8.4-6.6 16-4.5 9.1-10.3 19.9-10.3 19.9s10.5-9.3 20.3-16.2 20.8-12.4 23.4-9.2c5 6-.3 31-.3 31s19.8-17.6 24.4-15.2c2.1 1 2.4 14.2 2.4 28 0 16.4-.5 33.8-.5 33.8s27.4-55.3 33-53.7c5.8 1.5 12 26.8 12 26.8s10.4-30.8 16.7-30c2.6-.3 8 9.6 12.9 19.8 5.3 11.2 9.8 22.1 9.8 22.1s.1-11.4 1-23c.7-10.6 2-20.9 4.3-21.5 4.9-1.2 19 17.8 19 17.8s-5-26.4-1-28.7c3.9-2.2 51 38.5 51 38.5s-31-57.3-27.2-61.6 36.8 4.5 36.8 4.5-5-5.8-9.1-12.4c-4.4-6.8-8-14.5-6.4-16.3 1.6-1.7 18.8 0 36.6 3.5 20.5 4 33.8 6.8 33.8 6.8s-12-6.5-29.8-17.2c-15.5-9.3-29-19.8-28.5-21.5 1.3-3.6 38.1-7.1 38.1-7.1l-12.8-7.7c-7.2-4.4-15-10-15-12 0-1.7 9.3-6 21.5-9.8 14.6-4.5 28.1-7.5 28.1-7.5s-50.2-4-53.3-11.2c-2.2-4.9 1.8-11.2 4.6-15.3 3-4.2 7-7.9 7-7.9a276 276 0 0 1 36.8-27.8l1.2-.7 14.2-10.6c1.1-1 4-4 4.7-8q.2 0 .2-2.8" fill="#fff"/><path fill-rule="evenodd" clip-rule="evenodd" d="M345.2 153.6q11.8-4.5 23-6.5a17 17 0 0 1 1.7-10.2c-6.5 5.3-23.2 10.1-28 5.6s3.3-23.6 7.4-31.5l-.3.4c-6.9 8.2-18.7 22.2-25.8 19.4-5.3-2-4.2-20.6-3.4-33.2.3-5 .5-9 .3-10.8-4.7 13.6-17.6 43.6-24.4 42.6-5.5-.6-9.8-15-10.7-20.5-1.2 5.2-4 17.4-12.2 18.6-8.3 1.2-19.5-18.6-24.2-33.1-.7 26-5.1 37.4-8.6 37.5-5.7.1-10.4-4.5-14.9-9l-2.8-2.8c2.7 4.4 6.5 17.6 1.5 21.7s-39-20-46.4-27.4c8.4 12.3 23.3 41.4 19 48.7-4.5 7.3-19.8 4.1-22.5 2.8 1.7 1.4 12.3 13.7 3.2 15.7-12.2 2.6-45.7-5.2-47.5-5.6 8 2.9 43.2 23.7 41 31.7-1.6 5.8-11.7 5.1-18.4 4.7l-3.5-.2 1.4.7c5.5 2.5 15.5 7 14.2 13.3-1.5 6.7-35.1 14.3-45.5 16.5l5.6 1.2c13.7 2.8 36 7.3 36.4 15.1.4 9.1-18.3 21.7-18.3 21.7s16.6.7 20.2 2.7c5.2 2.8 1.2 13.4-3.4 18.9q9.3-4.4 19-11.5a113.2 113.2 0 0 1 167-137.2m52 181.6c-5.9-4.6-12.4-20.4-9.9-25.4s40.2 2.3 56 6.8c-12.7-5-47.4-26.2-45-32.5 2.6-6.3 24.8-8.6 31.6-8.6a95 95 0 0 1-21-14.5c-5-5.7 20.7-16.3 35.4-18.3-13.2-1-38-3.1-38.2-12.7q0-4.5 1.3-7.5l-12 11.3q1 7.1 1 14.5A113.2 113.2 0 0 1 216.9 340q-12.8 2.5-25.6 3.1c-1 5.3-4 10.8-6.8 16q-2 3.6-3.6 7c20.6-19 32-18.4 36-16.2s3 20.4 1.8 25.8c3.2-4.3 18.3-13.6 22.7-11.6 3.7 1.7 3 29.3 2.6 44l-.1 7.4c5-10.8 21.4-44.2 28.4-44.2s11.7 12.6 12.8 18.3c1.6-5.7 9.6-20.7 16.7-21.5 6-.7 12.5 15.1 17.2 26.6l2.4 5.6V395c.3-10.5.5-26.2 5.3-28.1 5.8-2.3 12.4 5.3 16.2 10-1-6.5-2-19.2 2-21.8s32 20.2 42.4 30.4c-.7-1.6-2.6-5-5-9.3-7.1-12.7-18.8-33.4-15.8-40.3 3.6-8.4 26.4-2 30.8-.7" fill="#FC4C02"/><path fill-rule="evenodd" clip-rule="evenodd" d="M431 153.6s17.4-6.2 26-7c8.5-1 17.2 2 19 9.3-4.1-6.4-42.4 6.3-53.2 10.7-3 1.2-21.2 9.4-39.8 20l-.3.2c-11 3.8-32.5 15.6-40.6 23.3a126 126 0 0 0-23 32.4 278 278 0 0 1-28.2 42.7 238 238 0 0 1-31 32.6 81 81 0 0 1-13.5 9.5l-.2-.8v-.4c0-2.5 2.6-7.8 5-12.8l1.5-3.1a132 132 0 0 0 10.2-30.6c1-3.8 3.4-14.4 3.4-14.4s-44.1 39.6-90 53a193 193 0 0 1-44.8 8.4s-10.7-.5-11.5-.7a61 61 0 0 1-35.1-19l-3.7-2.7c1.7 2.3 6.2 8.4 11.4 13h-.5c-2 .3-5.8.6-15.9-.9-38.1-5.4-50.1-35.3-50.5-38.8 1.5-.5 2.6.7 3.8 2l1.4 1.4.1.1c1.9 1.6 6.3 5.4 14.4 7l1.7.3a95 95 0 0 1 33.5 11l2.8 1.8c11 7.1 34.3 22 73 6.9 19.5-7.6 36.9-23 62.8-48.5l12.6-13c-.6-3.1-2.2-8.6-5.9-10.9a36 36 0 0 0-20-3.3l-3.3.3c-3.6.4-5.7.6-7.3-.6q-1.1-1.1-.4-3c3.6-4.4 9.9-10 26.1-12 9-1.3 15.4-1 21-.8 7 .3 12.8.5 21-2.3 3-3 6.5-6 9.2-8.5a304 304 0 0 1 43.8-33c46-28 83.5-27 115-18.8M121.4 292.1q-1 0-2 1c-1 .6-2.1 1.4-4.3 2-4.2 1.3-12.8.7-21 .2h-1.7c-6.3-.5-9.6 2-11 3.2l.3.2h.2a99 99 0 0 0 27 11.6 43 43 0 0 0 6.6.5s2-2.3 3.3-4.2q3-4.6 4-8.3.5-2.1.5-4.1c0-2.4-1.5-2.2-1.9-2.1M375 246.5c-3.2 10-8.2 23.7-14.3 35.3a84 84 0 0 1-22 26.9q-1-.9-1.1-2.7 0-.7.8-3.4a151 151 0 0 0 5.2-30 385 385 0 0 0 31.4-26.1" fill="#008E97"/><path fill-rule="evenodd" clip-rule="evenodd" d="M473.7 163.5c.3-.7 1.3-2.5 1.1-3.7-.4-2.7-6.4-2-21 3h-.1l-4 1.4c-28.4 10-56.3 34.1-87.5 61.1-16 13.8-32.7 28.3-51 42.1l.5-.6c5.8-8.7 10.2-16.6 14.2-23.8a126 126 0 0 1 23.4-33 183 183 0 0 1 33.4-23.2c-11 3.8-32.5 15.6-40.6 23.3a126 126 0 0 0-23 32.4 283 283 0 0 1-28.2 42.7 238 238 0 0 1-31 32.6q-8.2 6.7-13.5 9.5c0 .2.5 1.5 1.6 1.8 2 .5 9.5-3.3 19-11.3h.2c1.5-.8 18.6-9 27-13.5a613 613 0 0 0 31-18.7c6.6-4.4 18.3-13 18.3-13a385 385 0 0 0 31.4-26.1 235 235 0 0 1-14.3 35.3 84 84 0 0 1-22 26.9c1.6 1 3.8-.3 4.3-.6a72 72 0 0 0 23.8-28.2 248 248 0 0 0 16-40.3v-.1l20.4-19.3 17.1-16.1a282 282 0 0 1 37.4-28.3 97 97 0 0 0 13-9.2c2.4-2 3-3.1 3-3.1m-71.8-2.5c3.7 0 12.2-.2 15.7-1l3.7-1.2q1.3-.6 1.4-.3c.2.5-1.7 1.5-7.6 4a98 98 0 0 1-15 4.5l-7.2 2.2-.2-.4c-.4-.8 0-1.7.3-2.3-11.7-.8-17.5 5.8-17.5 5.8q-.7.6-1.5 1.7c1.7-2.6 5.5-7.6 11.2-10 7-3.1 11.9-3 15.4-3zM263 279.6c1-3.8 3.4-14.4 3.4-14.4s-44.1 39.6-90 53a192 192 0 0 1-44.8 8.4h.3c3.6 0 32 .8 63-10.8a337 337 0 0 0 68.1-36.2m-139.7 14.6q0 2-.5 4.1-1 3.7-4 8.3l-3.3 4.2a24 24 0 0 1-6.6-.5q.1-.3 2-1.9c4.4-3.6 14.2-11.8 10.5-16.3.4 0 1.9-.3 2 2.1m97.8-77.3c9-1.2 15.4-1 21-.7 7 .3 12.8.5 21-2.3 3-3 6.4-6 9-8.4l.2-.1a79 79 0 0 1-10.6 2.7c-3.6.7-6.7 1-10.8 1.3-3.9.3-8.7.7-15.7 1.6-22.8 3-33.5 10.1-36.5 13a17 17 0 0 0-2.5 2.8c-.7.9-1.1 2-1.2 2.2 3.6-4.4 9.9-10 26.1-12m30.2 96.4 1.5-3.1c1.9-3.9 3.1-7 3.1-7-15 7.9-38.9 18-60.5 23.1-42.6 10-69.9 1.3-74.5-.2l-.6-.2h-.1a61 61 0 0 1-35.2-19l-3.7-2.7c1.7 2.3 6.2 8.4 11.4 13h-.5c-2 .3-5.8.6-15.9-.9-38.1-5.4-50.1-35.3-50.5-38.8l-1 .4-.2.2c-1 .8-.8 2.9 2.1 9.4a59 59 0 0 0 29.1 27.7c14.6 6.7 36.8 7 41.2 7h.8s37.6 19.5 85.3 17.2h.1c1.4 0 29.2.4 63.1-12.9v-.4c0-2.5 2.6-7.8 5-12.8" fill="#005778"/><path fill-rule="evenodd" clip-rule="evenodd" d="M374 174q.8-1.2 1.5-1.7s5.8-6.6 17.5-5.8q-.7 1-.3 2.3l.2.4c-7.3 2.5-19.7 7.4-23.6 13.2 0 0 2.6-5.4 4.7-8.4M255.8 303.1c4.2-10.5 6.5-20.5 7.1-23.5a337 337 0 0 1-68.2 36.2 176 176 0 0 1-63 10.8h-.2s-10.4-.5-11.4-.7l.7.2c4.6 1.5 32 10.2 74.5.2 21.6-5 45.6-15.2 60.5-23.2" fill="#fff"/></svg>