<svg xmlns="http://www.w3.org/2000/svg" xml:space="preserve" viewBox="0 0 127 156"><path fill="#fff" d="M125.6 102.2c-.3-2-2.2-3.8-3.6-4h-.4l.6-3.3 2.3-1 1.4-.5-.3-1.6a18 18 0 0 0-3.1-6.8q.5-1.6.5-2.3 0-1.9-2.7-3.7-.4.3-.4-1.6s0-1.3-.3-2.5q1.7-1 2.9-3.5.8-3 1-4.4v-1.5l-.3-2.4-1.8 1.3-.3.4-.3.1-1.3.7-2.1.8A51 51 0 0 0 101 39.6a70 70 0 0 0-35-13.8l-2-.2s0 3-.3 4q0 .6-.2 1a14 14 0 0 1-4.9-4.4c-1.6-2.6-2-5.2-2.5-7.5q-.4-2.6-1.3-4.8-2.6-6-7.3-10.2-.8-1-2.1-1-.6 0-1.4.4c-.3.4-1.5 1.6-.2 3.4 0 0 2 4 2.9 9.5l.4 6.3c0 4.8.2 10.2 2 14.4q1.4 2.7 3 4.8l.7.6.6.7q-3.2-.2-5.7-1.7a21 21 0 0 1-10.3-16v-.8q-.3-2-.3-3.7A64 64 0 0 0 35.9 10l-.7-2.6-1-2.4-1.9-2.4L31 1.4q-.4-.5-1.6-.5-.5 0-1 .3H28q-1.4 1-.6 3.5l.2.7.2.4c.2 1.3.5 4.4-.7 10.7v.4l-.5 2.6a72 72 0 0 0-1 11.2v.1c0 2.6.2 24.7 22.1 32.4a67 67 0 0 0-1 12.2 105 105 0 0 0-37.3 25v.1a84 84 0 0 0-8.1 10.2c-.3.6-.6 1.8 0 2.3q.5.8 2.2.1h.1l.8-.5a70 70 0 0 1 28.6-9c4 0 8.2-.7 9.6-1q1.4.7 4.2 1.5a12 12 0 0 0 4.5 0c1.3 4 3.8 6.6 5 8 0 2.2.3 6.7 2 9.5 1.5 2.4 3.6 4.2 4.8 5.2 0 1 0 2.8.6 4.4q1 2.1 2 3.4-.5 1-.5 2.5t.5 2.7q-.7.7-.7 1.7 0 1.3.2 2.3l-.4 1.6q-.3 1 0 2c-.5 1.7-1.2 5 1 6.7q.8.9 2.3.9c1.5 0 2.9-1.3 3.5-1.9q1.6-.7 2.6-2.3.8-1.2 1-2a8 8 0 0 0 2-4c1-1.2 3-3.9 4-7.3l.1-.9v-.3c.5-3.1.2-6 0-7.3a18 18 0 0 0 2.2-7.6q2.7-1.7 7.7-4.2a26 26 0 0 1-.4 7.3c-.8 4-3.7 7.1-5.2 8.4l-1.7 2q-.2 0-.4 1.2l.2.2.1.3c.7.7 2.6.4 2.6.4 8-1 13.4-7.6 15.8-13.1a144 144 0 0 0 3.4-11c4.7-.8 9-1.4 12-1.6l3-.3c1.7-.3 5-.8 5.2-4q0-1.5-.4-4.8"/><path d="M123.8 102.5c-.3-1.3-1.6-2.5-2.2-2.6-.7 0-2.4-.6-2.4-.6 1.3-3.5 1.3-5.7 1.3-5.7l3.3-1.4c-.8-3.9-3.4-7-3.4-7l.8-2.5q-.3-.8-2-2.1-1.3-1-1.2-3.2c0-1.3-.5-3.1-.8-3.3-.2 0 2.7-.9 3.5-3.4s.9-4.4.9-4.4c-1.2 1.7-5.7 2.3-5.7 2.3a47 47 0 0 0-16-27.5 68 68 0 0 0-34-13.4l-.1 2a12 12 0 0 1-1.3 3.6 20 20 0 0 1-7.4-6.2c-2.7-4.8-2.3-9.1-3.9-12.4A26 26 0 0 0 46.4 5q-.7-.8-1-.4-.3.3 0 1c.3.2 2.4 4.4 3.2 10s-.3 14.5 2.4 20.1a26 26 0 0 0 6.1 8l.3.1.5.7A19 19 0 0 1 47 42.7a23 23 0 0 1-11.4-17.5v-.8q-.4-2.9-.4-6a42 42 0 0 0-1-7.9q0-.8-.4-1.4l-.3-1-.9-2L31 3.8l-1.3-1q0-.3-.5 0s-.4.1 0 .9l.2.5.3 1.2c.3 1.6.5 5-.8 11.5q0 1.6-.4 3-.9 4.7-1 10.2v.8c0 3.1.5 24.4 22.4 31l-.2 1.2c-1.5 9.5-1 13.4-1 13.4a104 104 0 0 0-37.8 25 81 81 0 0 0-7.8 9.8 66 66 0 0 1 30.2-9.6c5-.2 10-1.2 10-1.2s1.9 1 4.3 1.6c2.6.7 5.3-.2 5.3-.2 1 5.2 4.6 8.4 5.6 9.1-.2 1.6 0 6.6 1.8 9.5s5 5.2 5 5.2-.3 2.7.4 4.6 2.5 3.8 2.5 3.8-.8 1.4-1 3 1 2.6 1 2.6-1 1-1 2 .3 2.2.3 2.2-.5.9-.6 1.7.2 1.7.2 1.7c-.4.6-1.3 3.9.1 5.2s3.6-1.2 3.6-1.2a5 5 0 0 0 2.2-1.7q.8-1.7.7-2c-.2-.2.8-.5 1.6-2q.6-1.6.5-1.7c-.2-.2 3.4-3.6 4-8 .7-3.9-.2-7.4-.2-7.4s2.6-4 2.3-8.3c1.9-1.3 6-4 11.2-5.9.1 3 .7 5.5-.3 10.4a22 22 0 0 1-6.5 10.4c7.5-.8 12.4-7.4 14.4-12.2 1.6-4 3-9.2 3.7-11.9 7.3-1.3 13.9-1.7 16.1-2 3-.5 3.7-1.1 3.7-2.2s-.1-3.1-.4-4.4"/><path d="M51 15.6c.5 2.5.6 6.6.6 6.6-.1-1.4-.8-3.7-1.3-5.3l.4 3.2c.4 3-.3 8.4 1.8 14.1C54 38 57 40.5 58.8 42l4.8-7a19 19 0 0 1-10.4-15l-.7-2.8c.3 2.3 0 4.6 0 4.6a31 31 0 0 0-1.7-6.2m-19.1.4v1.3l-.5 4-.6 3.9-.1.9-.3-6.2v-.5.3q-.9 4.3-1.1 10.5v.6c0 1.3 0 6.6 2.3 12.4a28 28 0 0 0 19.7 17.3c4.9 1.3 10.2 2.3 14 3.5 0 0 4.1 1.3 6.6 3.2l-5.4-1a11.2 11.2 0 0 0 16.8 2l-1.3.8q-1.6.7-2.6.7c-1.6.5-3.2.2-3.6.2 4.9-.9 9.2-4.6 8.8-10a12 12 0 0 0-2.5-6.6 9 9 0 0 1 3 10.2 11 11 0 0 0 1.1-4.3q.4 2.5-.1 4.3.6-2 .6-4v.6h.2q0-1.2-.3-2.4v-.1c-.7-4.2-3.7-8.1-7.6-9.8a26 26 0 0 0-14.4-2.3l-3 .4c-5.2.7-10 1.3-15.4-1.7a24 24 0 0 1-12.2-18.6v-1q-.3-1.7-.4-3.5-.1-1.6-.3-1.3l-.2 2.6-.4 3V25l-.2-.7v-1.7l-.5-6z" fill="#fff"/><path d="m99.8 69.4-3.8.4h-.7v.3s-1 7.8-4.7 13c1 .7 3.4 1.4 4.3 2.2a5 5 0 0 1 1.6 4.6q.1 1-1 5.2s-.2-4.2-.6-5.5-1.8-2.5-3.1-2.9l-3.2-.8q-3.8 4.1-7.3 6.9.4.6 1.2.9c1.3.4 3.1-.5 3.1-.5s-1 5.2 2 9.7c2.2 3.4 6.5 2.6 6.5 2.6s1-6.7 5-12c4-4.8 8.4-7.4 11.8-8.3-.2-.6-.3-1.9-.2-2.4q.6-1.4 2.3-1.6l2.3.5c-.5 0-2 0-2.8.7-.6.7-.4 1.8-.2 2.4 3-.6 5.7 0 6.3 0q.9.2 1.3-.7.2-1.3-.3-1.8l-1.6-.8q-1-.7-1-3.3c0-1.6-1-4-1-4-2.2 1-7.4-.6-10.7-.9s-5.6 1.4-5.6 1.4c-1-2.3 0-5.3 0-5.3m8.9 5.1 2.5.4c-1.6 0-2.6.7-2.6.7.2.5 1 1.4 1 1.8v.3c0 .6-.4 3.1-1 4l-.2.2q-.9.8-4 2.6c-2.4 1.7-4.2 5.2-4.2 5.2s.6-3.2 2-5.2c1.9-2.2 4.4-3.7 5.8-4.5l.7-2.8q-.8-.7-1.9-.8c-1.3-.3-3.4-.3-4.7-.7l4.9-1zm9.8 20.2s-8.8 3.8-11.3 10.7c0 0 5.3.1 8.3.5q4.3.5 5.4.4c.6 0 2 0 1.6-2.2-.4-2.5-1-3-2.3-3.3-1-.6-3-.4-3-.4s1.5-3.7 1.3-5.7m-39 0-.7.7s1.7 2.5 2.9 7c.7 3.5-1.4 9.1-1.4 9.1s1 3 1.6 6.3l.1-.1s6-3.1 9.4-4.6l2-.6.3-5H92c-3.3 0-5.4-2-7-4.2s-2.6-6.9-2.6-6.9-2 0-3-1.7m26.8 12.5q-.7 1-1.2 2.2l3.3-.5c5.5-1 10-1 10.8-1.2s2 0 2.4-.4h-3.1z" fill="#e9bf9b"/><path d="M67.5 29.8s-.1 2-1.3 4.4q-.5 1.3-1.7 2.7l-4.9 7-.4.6 2.1-.3 3-.4A28 28 0 0 1 79.6 46c4.5 2 8.2 6.6 8.9 11.6v1c1.3 0 7.2-.7 12.3-.7 4.5 0 8.4.5 10.4.9a43 43 0 0 0-9.6-14 55 55 0 0 0-34.1-15M51.8 62.6l-.6 2.9q3-.8 6.6-1.3h.3l-.2-.2-1.3-.2-2.2-.7zm68.2 6.2-3.3.9c-2.3.6-6.7-.2-8-.4-1.3 0-5.5-.4-6.5.4-1.4.8-1 3-1 3s1-1 3.2-1.5 5.2-.2 5.2-.2l-2.6.9c3.3.5 3.8 1.6 8.1 1.3 4.4-.4 4.9-4.4 4.9-4.4m-26.8 1.7-3.4.2v.2q-1.7 5.9-6.8 8c-4.6 4.8-11.4 8-15.2 10.6a20 20 0 0 0-7.9 12.7c.8-13.1 8.8-14.7 17.5-21.1l.7-.5H78c-1 0-3.3 0-4.4-.4L71 81.9a31 31 0 0 0-7.9 6.5c1.4-4 4.2-5.7 8.6-8.9q-2.6-1-4.7-3a60 60 0 0 0-12 8.3 62 62 0 0 1-15.2 10 157 157 0 0 0 17-14.1s-11.5 6.6-14.8 9c0 0 4.3-4.8 9.6-7.7 0 0-11.7 4.7-18.4 9.3a88 88 0 0 0-11.8 10.5c1.2-.2 6-1.3 7.2-1.3 8.7-1 18.1-.3 26.4-10.2l.4-.4q-1 4-1 9.7c.5 8.3 7 11.7 9.3 13.4 0-1 0-2.1.8-5.7a20 20 0 0 1 4.3-7.7s-4.2 5.6-2.9 14.6c0 0 1-7.3 6.6-14.5S83 89.2 87.4 84a25 25 0 0 0 5.8-13.5M65 74c-1.2.3-17 2.4-36.4 15.4-6.4 4-14.3 11.6-18.2 16 1.7-.8 5.2-2.3 8-3.2a95 95 0 0 1 12-10.7 143 143 0 0 1 35.4-16.6l-.6-.8zm51.4 12q-2.6 0-6.5 1.4c-5.3 2.5-10.1 7-12.4 12-2 4.8-2.2 10-2.5 13.7 0 4 .4 9.5-1 14.6 0 0 2.5-3.6 3.3-13.8q1.1-14 7.3-18.5s-3.4 4.7-4.6 12.3c-1 7.9-.9 10.8-2.2 17l-.4 1.4s3.4-4.6 5.2-16.4c1.6-10.4 4.6-15 8.8-17.5 0 0-5.6 6-6.8 14.7 0 0 3.2-7.8 8.2-11s9.1-4.3 9.1-4.3 0-2.6-2.8-5.3q-.2-.2-2.7-.2m-63 8.1s-3.9 4.6-8.2 5.7H45s2.5 1.3 4.5 1.3 3.7-.7 3.7-.7-.3-4.7.1-6.3m23.6 2.6s-5 5.4-7 9.9q-2.4 6.1-2.4 8.8c2 1.3 4.6 2.9 5.9 4l1.2-2.3c2.2-4.5 4.3-6 5.2-10.5.8-4.6-1.3-8.2-3-9.9m-17 15.8s0 4.4 2.2 7.9c1.5 2.6 6 4.8 8.8 6.5.2-.9.9-3.4 2-5.9-1.4-.9-4.7-3.4-6.6-4.6a30 30 0 0 1-6.3-4m18.9 1.5-1.3 2c-1.2 1.4-4 7.3-5 11.8l3.4 2.8 2-2.7a17 17 0 0 0 2.3-9.4c-.3-2.1-1.2-3.8-1.4-4.5m-11.6 13c0 1 0 3.3 1.4 5.2 1.8 2.4 4.2 3.7 4.2 3.7l2.3-4-3-2.3zm10.5 3.4s-2 2.6-3.2 5.3a38 38 0 0 0-2.4 5.2h.3c.9.8 2 2.4 2 2.4s2.7-2.8 3.6-6-.3-6.9-.3-6.9m-7.8 5c-.4.5-1.3 1.3-.7 2.9q.5 1.4 1.9 2l1.1-3.3a8 8 0 0 1-2.3-1.6m-.7 5s-.6.9-.4 2 1.3 1.8 2.6 2.4c1 .7 1.6 1.9 1.6 1.9q1.3-1 .8-2.6a5 5 0 0 0-2.6-2.3zm-.4 4c-1.3 2-.6 2.5 1 3.7 1.3.8 1 2 1 2s1.6-.8 1.4-1.8c0-.7-1-2.1-2-2.7zm-.2 4c-.8.7-1 2.6-.7 3q.8.8 1.4 0t0-1.7z" fill="#ffc62f"/><path d="M111.9 60.5a70 70 0 0 0-23.4-.3c0 7.4-6.3 12.8-12.2 12.8A13 13 0 0 1 64 65.5l-2.1-.6A72 72 0 0 0 51 67l-.3 3c-.4 6.2 0 5.8 0 5.8l8.6-2.3 7-1.5a11.7 11.7 0 0 0 21.8-3 97 97 0 0 1 26.2-.3c-1-4.3-2.5-8.1-2.5-8.1" stroke="#000" stroke-width=".3" fill="#4f2683"/></svg>