<svg data-name="Layer 1" viewBox="0 0 408 244" xmlns="http://www.w3.org/2000/svg"><g stroke-width="0"><path d="M204 244a270 270 0 0 1-116.7-28.8 1356 278.6 0 0 1-80.9-68A1105 227 0 0 1 0 122c0-8.7 2.2-17.4 6.4-25.2a1355 278.4 0 0 1 80.9-68C127.6 7.5 175.3 0 204 0a270 270 0 0 1 116.7 28.8 1356 278.6 0 0 1 80.8 68 51 51 0 0 1 0 50.4 1355 278.4 0 0 1-80.8 68A271 271 0 0 1 204 244" fill="#fff"/><path d="M396.5 122q0-10.7-5-20c-11.5-20.8-39-43.8-76.3-63.5-38.4-20.3-83.8-27.4-111.2-27.4s-72.8 7.1-111.2 27.4C55.4 58.2 28 81.2 16.6 102a873 179.3 0 0 0-5.1 20q0 10.7 5 20c11.5 20.8 38.9 43.8 76.3 63.5 38.4 20.3 83.8 27.4 111.2 27.4s72.8-7.1 111.2-27.4c37.4-19.7 64.8-42.7 76.2-63.5q5.2-9.3 5.1-20" fill="#115740"/><path d="m295.3 101.8-12.6 21.9a4.3 4.3 0 0 0 2.2 6.2l22.9 9.1h-49.2l-7.6 13.1h74q2.4 0 3.7-2.1l12.6-22c1.4-2.2.3-5.2-2.2-6.2l-28.4-11.2h40.7l6.3-11H299q-2.4.1-3.7 2.2m-13.8 8.8 6.3-11H218l-6.3 11H229L205.1 152h35l23.9-41.5zm-78.5 0 6.2-11h-56.7l-30.2 52.5h72l7.5-13.1h-37l5-8.7h19.6l6.3-11h-19.6l5-8.7z" fill="#fff"/><path d="M349.9 86.3s-5.2-1-20.4-2L276.2 79c-29.3-2.6-55-9.4-78.8-26.1h-.8l20.1 32.5H115l-29.7 51.4a4 4 0 0 1-3.8 2.2H49.1l-7.5 13.1h64.7q5-.1 7.6-4.3l32.8-57h216c-2.7-1.5-7-3.5-12.8-4.5" fill="#fff"/></g></svg>