<svg xmlns="http://www.w3.org/2000/svg" xml:space="preserve" viewBox="0 0 192.9 150"><path d="M65.8.9c-7.1.2-13.9 2.3-19 6.3v-5H1v26.2h10.7a4 4 0 0 1 4 4v74.2h31.1V36.5c0-4.2 3.6-7.6 7.9-7.6s7.8 3.3 7.9 7.4v56.6q0 2.6.8 4.7c2 5.2 6.8 8.8 12.6 8.8h29.3v-25l-.6-.1h-6.8a4 4 0 0 1-4-4V22.4q0-1-.4-2.9a21 21 0 0 0-3.1-7.3 24 24 0 0 0-15-10.3q-4.8-1-9.6-.9m33.7 1.3v26h8.1a4 4 0 0 1 4 4v51.1a25 25 0 0 0 11.8 19.7c6.4 5 22 7.4 30.3 4.4 0 0 3.9-1.2 6-2.6v6.5q.1 2-.5 3.7-1.6 3.4-7 3.6H15.5v30.2h148q6.8-.2 12.3-1.7c4.8-1.5 16-6.7 16-23.3v-6.5l-.1-115.2h-32v70.4a8 8 0 0 1-4 5.7 8 8 0 0 1-4.1 1.1c-4.4 0-8.1-3.4-8.1-7.5V2.2z" fill="#a71930"/><path d="M66 5.3c-6.2.1-12 2-16.5 5.4l-7.1 5.4V6.6h-37v17.3h6.3c4.6 0 8.3 3.7 8.3 8.3v70h22.4V36.4a12.3 12.3 0 0 1 24.6-.2v56.7q0 1.7.5 3.2c1.4 3.5 4.8 6 8.5 6h25V85.6h-3a8.4 8.4 0 0 1-8.4-8.4V22.6l-.3-2.1q-.7-3.3-2.5-5.8c-3-4.4-6.7-7-12.4-8.4q-4.2-1-8.4-1m98.3 1.3v62.6l-.1 2.7v1.2a12.8 12.8 0 0 1-21.5 7 12 12 0 0 1-3.5-8.2V6.6h-35.3v17.3h3.7c4.6 0 8.4 3.7 8.4 8.4v50.8c.4 6.6 4.3 13 9.6 16.1l.3.2.3.2a35 35 0 0 0 26 3.7h.2c1.2-.5 3.7-1.4 4.9-2.2l6.9-4.6v14.8q0 2.5-.8 5.1l-.1.2-.1.2c-1.2 2.7-4.2 6-11 6.2H20v21.5h143.4q6.3-.3 11.2-1.5c4.8-1.5 12.9-6 12.9-19l-.1-117.4z" fill="#0b2265"/></svg>