<svg xmlns="http://www.w3.org/2000/svg" xml:space="preserve" viewBox="0 0 192.5 234.4"><path d="M171.9 93.1a50 50 0 0 0-46.7-2 75 75 0 0 0-3.5-14.1q-4.2-12.2-8.3-22.4a263 263 0 0 1-7.5-21.6L96.6 1 87 33a286 286 0 0 1-7.4 21.6q-4 10.2-8.2 22.4-2.7 8-3.5 14.3a50 50 0 0 0-46.7 2 37 37 0 0 0-19.5 37 32 32 0 0 0 23.8 27.4l9.7 2.7 2.3-9.7c.3-1.3 3.8-13.5 14.8-13.3 7.6.2 13.9 7 17 11.3a24 24 0 0 0-1 10.6l-4.3-5.7-7.8 5.8c-7 5.2-17 18-10.8 33.2a22 22 0 0 0 16.5 12.7 39 39 0 0 0 15.5-.4 54 54 0 0 0 12.3 21.3l7 7.3 7-7.3c6.7-7 10.3-14.9 12.3-21.3a39 39 0 0 0 15.5.3 21 21 0 0 0 16.5-12.7c6.2-15.2-4-28-11-33.2l-7.7-5.7-4.3 5.7a24 24 0 0 0-1-10.7c3-4.4 9.4-11.1 17-11.3 11-.2 14.4 12 14.8 13.3l2.4 9.7 9.6-2.7a32 32 0 0 0 23.7-27.5 37 37 0 0 0-19.6-37"/><path d="M93.4 34.4c-1.2 5.5-4.2 13.4-7.8 22.6a537 537 0 0 0-8 22.2A57 57 0 0 0 74 97.6q0 2.5.3 5c-9.7-6.7-29-15.8-49.8-3.6A31 31 0 0 0 8 129.5a26 26 0 0 0 19 21.9l3.1.8.8-3c.2-.8 4.8-18.7 21.3-18.4 13.3.3 22 13.2 24.3 17.2a17.5 17.5 0 0 0 2.2 19.7c-1.2 1.6-3.2 3.6-5.5 3.8-3.3.3-6.7-3.2-8.9-6.2l-1.8-2.5-2.5 2c-5 3.7-13.5 13.9-8.7 25.3q3 7 11.7 8.8c6 1.2 13.5 0 18.9-2.4 1 6 4 16.3 12.4 25.1l2.3 2.4 2.2-2.4c8.4-8.8 11.3-19 12.4-25.1a33 33 0 0 0 18.9 2.3q8.7-1.8 11.7-8.8c4.7-11.5-3.7-21.6-8.8-25.4l-2.5-1.8-1.9 2.4c-2.1 3-5.5 6.5-8.8 6.2-2.3-.2-4.3-2.2-5.5-3.8a19 19 0 0 0 4.2-11.4c0-3.3-1-6.2-2-8.3 2.3-4 11-16.8 24.2-17.2 16.5-.3 21.2 17.6 21.3 18.3l.8 3 3-.8a26 26 0 0 0 19-22c1.6-12-4.7-23.6-16.3-30.4-21-12.1-40.2-3-50 3.8q.4-2.4.5-4.9c0-5.3-1-11-3.6-18.6a540 540 0 0 0-8.2-22.1 167 167 0 0 1-7.8-22.7l-3-14.2z" fill="#fff"/><path d="M96.6 219.5c12-12.5 12-28.2 12-28.2 5.4 5.2 25.8 8.7 30.4-2.5 5-12.2-7.8-21.7-7.8-21.7-12.3 16.6-20.6.3-20.6.3 9.4-10.1 2.3-19.3 2.3-19.3.6-1.8 11-20.1 27.8-20.5 19.3-.4 24.4 20.7 24.4 20.7 20.2-5.7 24.1-33.9 1.9-46.8-28.2-16.4-52.8 8.6-52.8 8.6a46 46 0 0 0-1.7-30c-6.3-18.5-14-35.1-16-45.1-2.2 10-9.8 26.6-16 45.1a46 46 0 0 0-1.6 30S54.2 85.3 26 101.8c-22.2 13-18.2 41.1 2 46.7 0 0 5-21 24.4-20.7 16.7.3 27.2 18.5 27.8 20.4 0 0-7 9.2 2.4 19.4 0 0-8.3 16.2-20.7-.3 0 0-12.7 9.5-7.7 21.7 4.7 11.2 25 7.6 30.4 2.3 0 0 .1 15.8 12 28.2"/><path d="M96.5 48.1v.3zs-1.9 9.3-10.7 32.2 1 42.2 1.9 46.5c0 0-19-26-41.9-26-23 0-42.1 26.1-20.9 41.6 0 0 6.2-19.3 27.6-19.4 15.8 0 31.6 17 32.2 25.3 0 0-7.2 10.1 2.8 18.7 0 0-10.8 22.8-25.8 6.3 0 0-11.6 14.5 3.5 18 12 2.7 23.8-9.4 23.8-9.4s-1.3 19.2 7.6 29.7v-.1c8.9-10.4 7.5-29.6 7.5-29.6s12 12.1 23.9 9.3c15-3.5 3.5-18 3.5-18-15 16.5-25.9-6.3-25.9-6.3 10-8.5 2.8-18.7 2.8-18.7.6-8.3 16.4-25.3 32.1-25.3a29 29 0 0 1 27.7 19.3c21.2-15.5 2-41.6-21-41.6s-41.8 26.2-41.8 26.2c.8-4.3 10.7-23.5 1.8-46.5-9-23-10.7-32.2-10.7-32.2" fill="#d3bc8d"/></svg>