<svg xmlns="http://www.w3.org/2000/svg" xml:space="preserve" viewBox="0 0 193.1 94.1"><path d="M189.6 12.1c-24 5.8-25-8.2-61.2-10.7C79.6-2.1 38.8 19 6.1 21.9c-7 .5-6.2 6.5-1 7.5a101 101 0 0 0 36.7.9c-.5 1-.9 2.4.5 3.4 4.6 4 23.1 4.3 31.2 3.8 2.8 0 8.8-.6 8.8-.6-1.8.1-4.4 5.2 1.1 6.7 34.4 9.5 50.5 25 69 49.5 7.5-1 14.6-10 11.6-16.8l1.5-3.8L171 70l-1.5-12.5 8.4-4s13.2-35.4 14-38-.9-3.7-2.3-3.4" fill="#fff"/><path d="M98.4 30.8c9.6-1 18.1-.7 27.5 5-19.4-2.2-28.9 3.2-41 4.5 42.6 11.2 58.2 35 68.7 48.2 7.5-3.1 8-9.5 6-11.7l2-4.2v-2.5l5-2.5L165 55l9.6-4 12.5-34.5C166 20.9 159 7.1 128.5 5.3q-18.4-1.2-34 1L96.1 17q10.4-.6 20 3.5-10.3-.6-19.2 1.3z" fill="#024"/><path d="M92.4 6.8c-30 4-54.5 14.7-86.8 19 36.4 6 65-7.4 88.8-8.7zm3 15.2c-15.8 3.1-30 9.5-48.9 10 22 4.1 37.3.5 50.5-1.1z" fill="#c60c30"/><path d="M131.3 60c11.5 8 17.3 17 23.3 24.8 3-1.3 4-4.8 3-6l-2.8-3.7 3.2.3 1.5-2.8-4-.1-4.7.8 4.7-3.2 3.6.2v-2l-3.6-1.8 1.3-1.4 6.8.4-2-15c-2.6-.4-5 1.1-5.8 5l-12-.7c1.7-3.8 4.3-5.5 9.2-5-2.7-3.8-16.2-4.3-18.2 2l10.5 8.6 1.3 7.9-4.2-6.3c-4-3.4-8-5.7-11.3-2" fill="#b0b7bc"/><path d="m166.6 21.1 1 7.5L176 32l-8 2 .8 10.2-6.9-8.6-10.3 2.5 6.3-7.5-5.1-7 8.7 3z" fill="#fff"/></svg>