<svg xmlns="http://www.w3.org/2000/svg" xml:space="preserve" viewBox="0 0 190.6 131.2"><path d="m111 9.6-9.3 9.8C116.9 13.1 150 2.2 150 2.2l-10.6 10.4c29-8.6 51-12.6 51-12.6s-6.3 14.8-15.9 29.7l14-1.6s-11 18-23.5 31l7 1.7s-11 15.8-25.3 28.6c-20.8 18.5-31.4 15.7-31.4 15.7-15.4 11.1-27.8 5.5-27.8 5.5s5.3-13.5-.2-14.9c-5-1.3-12.5 2.6-13.4 4.2a63 63 0 0 1-9.4 17.2c-8.2 10-17.2 14-17.2 14s-7.2-6-7.2-16.4c0 0-5 5.2-13 7-5.5 1-13.2.1-21-6.4-5.2-4.4-6.2-19-6.2-19s5-9.5 14.4-17.8a13 13 0 0 1-3.8-5.4C36 62 36 51.5 56 38.7a400 400 0 0 1 55-29" fill="#fff"/><path d="m98.7 18.6-8 8.3c15.7-7 48.9-18.2 48.9-18.2l-9.7 9.4c34-10.5 55.5-14 55.5-14s-7 15.6-16.4 29l14-1.6s-9.4 15.8-23.4 29.3c1.6.2 8 1.7 8 1.7S159 75 144.3 87.8c-18.7 16.4-27 14.4-27 14.4s.2-.6.1-1.6v-1C103 113 91 108.4 91 108.4s5.3-12.9-2.8-15.5c-6.3-2-16 3.2-16.8 6a61 61 0 0 1-8.9 16.2c-6.9 8.6-14.6 12.4-14.6 12.4s-7-5.3-4.5-21c.5-3.4-.1-4.7-.5-5.3-1.2-1.7-10 .2-12.2 5.1C29 110 38 113 38 113s-4 4.5-11.3 6c-4.4.9-11.4.6-18.7-5.7-4.3-3.7-5.2-16.4-5.2-16.4S8 87.1 18.5 78.6a13 13 0 0 1-4-4.5c21-9 23.8-21.8 47.5-36 11-6.7 22.6-13.2 36.7-19.5" fill="#004c54"/><path d="M154.3 62.6c.9.2 4.3.8 6.2 1.6-7.2 11.7-28.7 34.6-40.7 35.5a9 9 0 0 0-1.9-4.9c-4.5 8.3-18.2 13.3-24 12C101 81.4 71.4 91 69.2 98c-5.8 18.1-20.8 26.7-20.8 26.7s-4.7-5.5-2.6-17.6c1.5-9-4.2-8.8-4.2-8.8-2.3 0-11 1-13.6 7-2.2 4.8 5.4 8.2 5.4 8.2s-11 8.8-23.8-2.1c-3.2-2.7-4.3-14-4.3-14a67 67 0 0 1 17.6-19.2C19.3 77 18.2 75 18.2 75c17.2-7.9 24-21 38.6-30.7a197 197 0 0 1 28.5-16L80.6 34l5.6-2.5a386 386 0 0 1 41.4-15.7l-8 7.8s13.3-4.6 30.3-8.2l28-5.9s-4.5 13-14 26.3l11.9-.8s-6.6 13.3-21.5 27.5M84.4 45l-.6.1zm-.7.2"/><path d="M104 75.6s-8.2-4-21.2.3c0 0 17.9-10.7 40.5-6.1a57 57 0 0 0-35.7 0c-4.6 1.8-7.3 3.3-7.3 3.3l3.3-2.1a85 85 0 0 1 38.8-16s-10.5-1.9-20 .6c0 0 15.1-6 29.7-6.2 5-.2 16 .4 16 .4a109 109 0 0 0-44.2-4c-6.5 1.7-11.6 3.3-11.6 3.3l2.6-1.2c4.1-2.5 21-11.6 52.4-16.4 0 0-4-.5-8.9-.5s-14.9 1.7-14.9 1.7a126 126 0 0 1 37.3-8s-25.5-3-56.3 6.6l-.4.2 7-4.9 6.5-4.5s-15.8 3.7-37.2 14l-9.2 4.5c.9-1 5.2-4.9 6.2-6.2a90 90 0 0 0-31.1 23c-8.5 9-8 10.5-20.9 17.4 0 0 9.5 3.8 19-2.4a27 27 0 0 0 4.7-4.1c3.3-4 2.3-8 6.7-10.8-.6 1.5-1.7 3.3-1.8 5.3 2.2-3 6.4-6.9 11.2-9.7 12-7.2 20-8.5 20-8.5l-.8.4C67.9 51.8 65.2 60.7 65 61.7c-.2 2 6-2.5 11-3.1A21 21 0 0 0 64 70c-1 2.2-1.2 4.7-3.8 6.6a11 11 0 0 1-3 2c-3.4 1.5-5.9.7-6.7.2L50 78c1.6.5 3.9 0 6-1.2q2.3-1.6 3.3-3.6c.3-.7 1-2 0-3.7q-.7-1.4-2.5-1.6-.1-.4 2.4-3.8c-2.4 1.8-4 3.9-4.8 4.9q1.7 0 2.7 1.6c1 1.8 0 4.5-2.3 5.9s-5.2 1-6.3-.8L48 75l-.3.2-2.3 1 2.3.1c.2 2.6 1.8 6.8 11 4.5-2.6 2.5-9 2.4-12.8.4l1.9 1.2c11.5 7.2 24.7.4 28-1.4q1.1-.8 2.4-1.4s-3.4 3-5.7 7.5A36 36 0 0 1 104 75.6" stroke="#fff" fill="#fff" stroke-width=".3"/><path d="M61.9 64.3c.4 1.7 3.4 0 3.4 0s-4 3.3-5.6 7q.1.3-.6 2h1.2c1 0 2.2-.8 2.2-.8s0 2.2-2.2 4.2c2.6-1.9 2.8-4.4 3.8-6.6 2.2-5.2 6.7-9.7 12-11.5-5 .6-11.2 5.1-11 3 0-.9 2.8-9.8 19.2-16.6l-.6.2c-15 5.6-23 14.5-21.8 19" fill="#a5acaf"/><path d="M55.6 71.2c.8 1.3 0 3.2-1.7 4.2s-3.8.9-4.6-.4l-.3-.7-1 .7.3.7c1.1 1.9 4 2.2 6.3.8s3.5-4.1 2.3-6q-.8-1.4-2.7-1.5l-.9 1q1.5 0 2.3 1.2" fill="#004c54"/><path d="M53.9 75.4c1.7-1 2.5-3 1.7-4.2q-.7-1-2.3-1.1L51 72.7q-.1 1.2 1 2.4s-1 0-1.6-.5q-.6-.4-.7-.8l-.6.5.3.6c.8 1.4 2.8 1.6 4.6.5"/><path d="M50.3 74.6c.6.5 1.7.5 1.7.5a3 3 0 0 1-1-2.4l-1.3 1.1q0 .3.6.8" fill="#fff"/><g fill="#a5acaf"><path d="M148.2 49.8s-11.2-.6-16.1-.5c-14.6.3-29.7 6.2-29.7 6.2 9.5-2.4 20-.6 20-.6a83 83 0 0 0-38.8 16 90 90 0 0 1 63.3-10.3s2-1.5 7.3-7.4c5.7-6.2 6.9-10 6.9-10s-26-2.8-45 0q-6.2 1-12.2 2.6c11.4-1.7 28.1-.8 44.3 4"/><path d="M88.1 80.7c21.3-5.3 36 1.1 37.8 7.8h.3c.8-.5 4.2-2 9.1-6.9a49 49 0 0 0 9.8-12c-21.7-10.9-45.7-4.3-57.5.2a57 57 0 0 1 35.7 0c-22.6-4.5-40.5 6-40.5 6 13-4.2 21.2-.2 21.2-.2A36 36 0 0 0 72.5 87l-.9 2a33 33 0 0 1 16.5-8.4m72.7-56.1a130 130 0 0 0-37.3 8s9.9-1.7 15-1.7c4.8 0 8.8.5 8.8.5C116 36.4 99 45.4 95 48a136 136 0 0 1 26-8c12.2-2.4 26.4-3 32.2-3.6 8-7.9 11.3-17.8 11.3-17.8s-14.2 1.2-30.3 4.1a151 151 0 0 0-29.7 8.4c30.8-9.6 56.3-6.6 56.3-6.6"/><path d="M76.2 89.2s5.3-4 14.4-2.6c13.5 2.2 13 10.7 13 10.7s6.2-2.6 9.2-8c0 0-3.8-3.6-10.6-4.8-18-3.1-26 4.7-26 4.7m-42.4-3.4c-1.3.4-4.2.8-2.8-1.3l4-2.1c1 .8 2 1.4 4.8 1.7zm5.6-6.4c-3.4 1-7.8.8-10.3.1-2.7 2-12.8 6.3-19.2 17 .4 3.7.7 8.4 2.2 11 6.2 9.7 17 6.1 17 6.1s-16.4-7.2 1-17.8A47 47 0 0 1 60.3 93c.7.3 1.7 1 1.6 1.2-.9 4.6-4.8 17.7-11.1 21.4-3.6-5.1 5.7-17-3.8-17.4 0 0 2.4 3.6 1.4 8.5-.5 2.2-2 8 .7 14 0 0 14.4-8.7 18.8-28.6q.6-3 1.7-5.2c-18.6 7.3-30.2-7.4-30.2-7.4"/></g><path d="M31 84.6c-1.4 2 1.5 1.6 2.8 1.2l6-1.7c-2.8-.3-3.8-.9-4.8-1.7z"/></svg>