<svg xmlns="http://www.w3.org/2000/svg" viewBox="0 0 460 272"><ellipse cx="230" cy="136" rx="230" ry="136" fill="#fff"/><ellipse cx="229.5" cy="137" rx="223" ry="130"/><ellipse cx="230.5" cy="138.5" rx="194.5" ry="120" fill="#B3995D"/><ellipse cx="231" cy="136.5" rx="179" ry="112" fill="#A00"/><path d="M370.8 121.9h-.4v-4.1h-71c-1.6-8-6.2-15.4-12.7-21.2a48 48 0 0 0-26.5-15.1l-4.5-1c-10.2-2-18.3-3.8-50.9-3.6 0 0-6.2-.2-12.3-1l-4-1.4c.4-2.7 5.3-6.4 11-7.2.5 0 35.7-6.5 72 17l1 .5h23.8V48.3h-4.1v-4h-32.7l-5.5 4.2c-9.5-2.4-55.6-12.5-95.4 5-16.8 6.9-27.2 20-26.4 33.2q.6 10.2 9 17 6.2 7.7 18.9 11.5c11.8 3.4 21.8 4.8 31.4 5.3v16.7h4.1v4h12.5c5.1 0 6.4 2.9 6.7 4-15.8-1-40-5.6-57.7-22l-.7-.8h-.1l-3-2.9-1-1.1h-17.9v51.9h4.1v4h14.6c2.1.2 9-.5 13.6-14.2A170 170 0 0 0 216 169v32.3c-.8 10.8-24.7 14.2-33 14.6l-3.5.1v16h4.1v4.1h105v-15.3l-2.7-.7-1.4-.4v-3.5l-3.3-.3a57 57 0 0 1-14-2.8c-6.6-3.7-7.7-6.7-7.8-7.2v-17.2H290q4.9.9 8.4 3.7a42 42 0 0 1 6.5 11.8l.8 2.6h2.7l.6 1.5.8 2.5h16.5v-62.4h-4.1v-4.1h-16.4l-.6 2.8c-4.4 20.8-28.4 20.5-49.7 17.4q6.3-1.7 12.6-4.2a57 57 0 0 0 25.3-18h46.1q4.8.2 8.3 2.4c4.8 7.1 4.3 17.6 4.3 17.7l-.2 3.8h4.3v.3l-.2 3.7h18.3V122z"/><path fill="#FFF" d="M297.3 134.7h38.2c21.9.7 20.3 27.9 20.3 27.9h11v-41.2h-66s-.1 9.2-3.5 13.3m-77.7 35.2v31.6c-1.1 16.6-36.5 18-36.5 18v9H281v-9c-29-2.6-29.2-17.4-29.2-17.4v-21h34.7c16 2.2 22 22 22 22h10.3V148h-10c-6.8 33.3-58 18.3-61.7 19.1 0 0-12.6 3.2-27.4 2.9m30.4-54.6c13.3 4 14.5 14 6.7 23.5-10 9.4-25 9.8-25 9.8s-51.2 5.5-81-26.8H138v44.8h11.2s6.8 1 11.1-15.3c0 0 52.5 21.3 102.5 1.5 48.3-19.2 30-61.3-3.4-67.9-12.7-2.5-17.8-4.7-54.6-4.5 0 0-6.6-.2-13-1.1-20.3-5-8.8-18.2 3-19.7 0 0 36.6-7.2 74.6 17.5h19.2V47.8h-28l-5.9 4.6S203 37.9 160 56.7c-28.9 12-34.6 41.9-3 51 27.8 8 45.5 4.6 73.7 5.7 7.8.3 14.7.6 19.4 2"/><path fill="#FFF" d="M208.4 133.6H195v-11.9h46.1c15 0 17 8.6 10.6 14.5-5.9 5.5-18.3 9.4-33 6.7 0 0-1.2-9.3-10.4-9.3"/></svg>