<svg xmlns="http://www.w3.org/2000/svg" viewBox="0 0 143.9 63.7"><path d="M120.7 52.2a108 108 0 0 0-18.9-1.6H15.3c-5.4 0-11 0-13.8-4.4-3-4.4-1.3-8.9 3.5-17.6C5.3 27.8 20.2 0 20.2 0l3 3.1C24.8 4.3 26.3 5 30.4 5l55.2-.1c9.6 0 19.3 1 25.6 8 3.3.3 13.8 1.6 22.5 5.8q7.6 3.7 9.8 10.4a16 16 0 0 1 .4 4.2q0 6.4-4.5 13.8a44 44 0 0 1-12.9 14 15 15 0 0 1-7.3 2.7 24 24 0 0 0 4.3-7.3c1.1-3.7-2.8-4.2-2.8-4.2" fill="#fff"/><path d="M132.7 20.9C122.7 16 110 15 110 15c-5.5-6.7-15-7.7-24.4-7.7l-55.2.1C21.8 7.4 21 4 21 4L9.3 25.7h30.1c9.5 0 10-1 16.2-5.7A29 29 0 0 1 74 13.4 39 39 0 0 1 91.5 18c7 3.1 10.7 4.7 14.9 2.9 0 0-3.3 4.4-13.2.2-10-4-12.6-5-18.7-5s-12.8 2.8-21.3 11.4l10.2 8.1-4 6c-1.5 2.3-1.4 3.9-.5 5s1.9 1.6 5.6 1.6h37.3a114 114 0 0 1 19.3 1.7c9.6 2 3.4 10 3.4 10s6.5-4.2 12.7-14.2c7.1-11 5.3-20-4.5-24.7" fill="#024"/><path d="M115.1 22.6c-4.4-1.1-.6-3.6-.6-3.6a13 13 0 0 0-9.4 8l-.4.6c-3.6 7.2-6.8 6.8-13 6.8H81.3c-8.5 0-12.5 4.2-16.6 11.4h4.8c4.5-6.6 7.7-8.2 16.5-8.7 19.8 0 35.5 5.6 43.9 10 11.9-20-5.8-23.2-14.8-24.5" fill="#fff"/><path d="M78.3 45.7q3.2-4.8 14-4c18 1 28.2 4.5 36.2 7.5a92 92 0 0 0-39.8-10c-5.8 0-11.1 1.1-14.1 6.5ZM97.5 26c-2.3 3.3-5.4 4.4-14.2 3.8-10-.8-7.4-5-6.3-7.1l1.4-2.7A19 19 0 0 0 65 25.6c5.7 5.7 9.6 6.3 14.9 6.3h9.8c9.1 0 11.3-4 12.1-6a13 13 0 0 1-4.3 0" fill="#fff"/><path d="m93 25-.5-.3a4 4 0 0 1-3.9 1.3c-2-.2-3.1-1.6-2.5-3l.2-.8-3-1c-2 3.2-3 5.3 3.9 6 4.3.3 5.5-.4 6.5-2z" fill="#69be28"/><path d="M57.9 37.4c-3.6 6.3-5 7.7-2.5 10.7H15.3c-6 0-9.8-.2-11.8-3.2S2 39 7.1 29.8h34.1c5.9 0 7.5.3 10.6 2.7z" fill="#a5acaf"/></svg>