<svg xmlns="http://www.w3.org/2000/svg" xml:space="preserve" viewBox="0 0 193.2 172"><path fill="#b1babf" d="M184.5 1s.5 8.1-1 15.6c-1.5 7.2-2.4 10-2.4 10a46 46 0 0 1-15.7 5.3c-13.9 2.3-26.5-1.4-40.2-6.8s-32.3-11.2-49.4-9.3a76 76 0 0 0-34.7 13c-6.3 4.4-7.5 5.6-12.9 7.1 0 0 4.3 1.7 6.5 1.7 0 0-1 4.2-.7 5.7 0 0 9-4.2 10-2.2 1 1.9-3.2 3.2-6.1 4-3 .7-10.7.6-10.7.6s3.6 2.8 4.9 4.7c0 0-6.8 3-14.4 2 0 0-.3 2.8 6 7.4q-2.3.7-4.1 2.4s6.5-1.4 10.6 3.2q1.6 2 1.4 4.1c-.3 2.8-1.3 3.9-4 5.6L23 77.4a44 44 0 0 0-16.2 19A61 61 0 0 0 3 107q-1.3 5.5-1.5 8.7l-.5 8.1 4.8-6.7a49 49 0 0 1 25-17.7q6.9-1.7 13.3-1.6a59 59 0 0 1 24.8 5.4c7.8 3.8 20.7 12.8 37.6 15.6a79 79 0 0 0 25.9 0l-7.2 10.5c-2.3-2.2-5.4-2.5-5.4-2.5-3.8-.3-5.7 2-5.7 2a6 6 0 0 0-1.3 6.4 6 6 0 0 0 3.4 3.7 43 43 0 0 0-7.1 15.9l-2.6 2.2 1 3.7c-1.5 4.5.8 8 3.6 9.4 3 1.4 5.7.6 5.7.6a8 8 0 0 0 4.7-4l1.5-1 2.9.2c4.2 0 8.3-1.2 11.4-3.9 2.5-2.2 5.2-6 5.3-11 0-1 .2-5-3-8.3 20.2-29.8 33.4-49 41.8-68.4 22.2-51.6 3.2-73.1 3.1-73.3"/><path d="M186.2 9.9a57 57 0 0 1-3.2 18.3 47 47 0 0 1-16.5 6.2c-13.8 2-20.5 0-33.3-4.1S101.4 17.4 82 17.6c-19.6 0-33.6 8.6-46.1 18.3l4.3-1.4s-2.9 3.4-3.8 5.3c0 0 5.9-4.3 13.9-3.9 0 0-2.8.7-4 2.5 0 0 3.3-.7 3.8.5.6 1.3-1.4 4.2-5 5.8A44 44 0 0 1 32 48s3.7 1.1 6.1 3.4c0 0-2.8.5-6 1.7-2.5 1-7.1 1.6-9 1.4 0 0 2.6 2.5 5.8 4.5 9.5 5.8 5.5 14.5 2.4 17.3-2 .6-22.7 6.2-27.5 39.8 0 0 10.5-14.7 26.5-18.7s31.4 0 39.5 4c8.2 3.9 20.7 12.6 37 15.3a89 89 0 0 0 30.4-.8c-.2.3-8.2 12.2-11.6 17 0 0-2.6-3.2-6-3.6 0 0-1.5-.3-2.7.4a4 4 0 0 0-2.2 2.9q-.2 2.1 1 3.3 1 1 2 1.3c.6.1 1.5.5 1.6 1.3-1.6 2.4-3.7 6-5.3 9.3q-1.7 4.1-2.3 6.5-.7 2.3-1 2.3l-1.6 1.4.8 3q-.6 1.2-.6 2.4 0 2.8 2.4 4.6c1.2.8 3 .9 3 .9a5 5 0 0 0 5-3.6q1.9-.8 2.4-1.8c1 .2 3.6.3 3.8.3 3.7 0 7.3-1.1 9.9-3.3a13 13 0 0 0 4.5-9.4c0-.8.2-4.8-3.7-8l11.8-17.5a563 563 0 0 0 19.7-31.7c5.2-9 21.7-33.8 21.6-67.7 0-9.9-3.5-16.2-3.5-16.2"/><path d="M158.8 38c-18.9-.1-39.4-10.8-57.5-14.8C63 14.7 44.5 34.6 44.4 34.6c0 0 6.2-2.2 9.4-.2 3.4 2.2.4 8-.7 9a18 18 0 0 1-12.7 5.7s5.3 1.3 7 2.9c0 0-4.9.6-7.5 1.5a57 57 0 0 1-9 2.5s13.7 6.3 5.1 19.7c0 0 6-1 11 1.5 0 0-27.3-4.4-36.5 25.6A50 50 0 0 1 42 92.2a62 62 0 0 1 37.4 9.5 81 81 0 0 0 29 11.1 89 89 0 0 0 50-7.2c25.8-39.7 28.8-62 29.2-78A44 44 0 0 1 158.8 38" stroke="#d50a0a" stroke-width=".3" fill="#d50a0a"/><path d="M130.2 79.5a95 95 0 0 1-21.8 3l-.2-.1q2-.4 3.5-1.7c2.7-2.1 5.6-3.7 7.6-5.3s3.8-6.3 3.8-6.3c3.4-1.3 5.6-5.8 5.6-5.8s-.5-1-.5-2.2c-.1-1.2 1.8-3.3 3.8-7 2-3.6 2.4-8.6-.9-14-3.2-5.6-12.2-8.4-12.3-8.4 0 0-8.9-3.2-14.7-.8-6 2.4-8.6 6.7-9.2 10.8-.7 4-.4 6.9-1.2 7.8C93 50.5 92 51 92 51s-.9 5 1 8c0 0-1.4 5-.8 7.4s2 5.5 2.9 8.8q.5 2 1.9 3.5h-.3A95 95 0 0 1 81 63c-9.4-12-12.4-31.3-12.4-31.3-4.2 11.3-5.2 15.2-1.8 26s13.6 20.9 13.6 20.9c-.2.6.1 1.7.1 1.7s-1.4-.5-6-.5-3.6.5-5 .4-1.8-.7-1.8-.7l-1.3 1.2c-.7 0-3.9.4-3.6 3.6.4 3.2 3.7 3 3.7 3 .6.7 1.5 1 1.5 1s2 5.1 7.6 5.4c4.9.2 6.4-2.8 6.8-3.6l.4 1q1.5 3 4.6 6.3 3 3.1 7.8 5a22 22 0 0 0 17.5-2c-.2 1.1-.5 4.2 3.3 6.8 4.7 3.3 9.3.3 9.3.3s1 .3 1.8.1c0 0 2.5 2.2 4.7-.2 2.2-2.3-.1-4.5-.6-5 0 0 0-1-.4-1.7 0 0-.7.2-1.8-.6-1.2-.7-.2-.6-3.8-3.3s-5-3.3-5-3.3.9-.6 1-1.2c0 0 14.4-2 23.5-8.5S155.5 73.5 159 62c0 0-14 13.5-28.8 17.5"/><path d="M102.1 81.6a20 20 0 0 0-18 3.6l-.3.3 1.1-.5c-1 .5-.9 1.5-.7 1.8 1.4 3.5 5.8 9.1 12.4 11.3s13.7.5 16.9-1.5c.3-.3.8-1 .3-1.8q.2 0 .6 1 .1-.9-.4-2.4a20 20 0 0 0-11.9-11.8" stroke="#ff7900" stroke-width=".3" fill="#ff7900"/><path d="M111 32.7a9.6 9.6 0 0 0-10.6 8.9v3q1.5-.5 2.4-1.4c-.1.2-2.6 3-5.2 3.3 0 0-.6 2.5-1.3 3.8-.6 1.2-2 2.1-2 2.1-.1 1.8.8 4.4 2 5 1 .5 3.9 1.5 5 2.7a4 4 0 0 1 .9 3.6q-.1.7-.4 1.3h.1q.3 0 .4.3l-.3.2-.3.7-.4 1q.2.7.3.6l1 .2s.5 0 .6-.3l.5-1.3.1-.5q0-.4.4-.5.3 0 .4.4l-.2.7-.4 1.6c-.2.4.3.6.3.6l1 .2.6.1.2-.3.5-1.9v-.6l.7.2.6.3q-.3.2-.4.5v.3l-.6 1.5.3.6q.7 0 1 .3h.2q.3 0 .4-.2l.4-1.2.3-.8.1-.3h.4l.3.3-.2.8-.3 1.3v.1q0 .6.2.6l1 .4s.3.2.5-.2l.3-1.2v-.3h.1v-.6l.5.2q.3-1.4.5-1.5l.3-.5q.7-1.2 2.6-1.8c1.7-.3 4.6.7 5.8.9 1 .2 3-1 4.1-2.3l.3-.5s-.5-1.6-.3-3 1.3-3.8 1.3-3.8c-2-1.9-2.2-5.7-2.2-5.7q.2 1 .8 2.3l1.8-2.3a10 10 0 0 0 1.5-5.2c0-2.8-1.2-6.2-5.8-9l-.2-.1-1.7-1q-.4 0-.8-.3l-.6-.3-.5-.2h-.3l-.9-.4h-.1a46 46 0 0 0-7-1.4M68 40s-1.2 7.8 4.9 19l.4.7 1.1 1.8q3.3 5.4 9 11.3l7 6.7 2.6-.6q-4.5-3.6-8.4-7.8C71.4 56.8 69 43.5 68.1 40m27.7 23.8q-.7 0-1.2.3s.4 2 1.3 3.7 2.1 4.8 2.6 6q.2.8 1 1.7c.8-.4 2.7-.3 4.7.4q3.1 1.1 4 2.4 1-.2 1.6-.6c1.1-.8 3.9-2.5 5.7-3.3s3.3-2.1 3.3-2.1c-.2-.7-1-1.2-1.3-1.4-.2 0-1 .2-1.3.4s-2 2.5-3.9 3.4c.2-1.1-.5-1.7-.7-1.7s-.3.5-.3.6l-.6 1.2v.4h-1l.8-1.8c.2-.4-.3-.5-.3-.5l-.9-.2q-.4 0-.6.3v.3l-.5 1q-.2.6 0 .7l-.8-.1-.5-.2.2-.3.7-1.8q.2-.2 0-.5l-1.3-.3q-.4 0-.5.2l-.2.5-.4 1.3v.6l-.6-.1-.5-.3.1-.3.5-2.1-.2-.5-1-.4q-.5 0-.5.3l-.3 2.5-.7-.3-.5-.3.2-.4.6-1.3-.2-.8-1-.4q-.4-.2-.4.2-.4.8-.5 1.5v.5q-1-.6-.9-.7.3-.4.4-1.4 0-.9-.3-1.3-.5-.1-.9.7l-.3.5c-1-1.8-.9-4.5-1-5-.2-.5-.8-1.1-.8-1.1zm58.7 5.1-2.4 2a66 66 0 0 1-29.5 12.9q-5.7.9-11.3 1.2l1.7 2 1.8-.2a89 89 0 0 0 24.6-5.7c12.1-5.3 15-12 15.1-12.2M74.2 82l-2.7.3-2.2.2-1.3-.2s.4 1.8 2.8 1.8l.1-.2a3 3 0 0 1 1.1-1.1q1.4-.7 2.6-.7zm.5 0-1.9.7q-.9.7-1.2 1.3c2-.2 5.7-.1 6.7 0q.8-1.2 2-1.4zm20.4 1.8-.8 1h-.8l-1 1.2 1 .2-.7 1.8 1.4.2.7-1.7 1.6.4-.7 1.6 1.4.4.6-1.7 1.5.5-.5 1.6 1.4.5.5-1.7 1.4.6-.5 1.6 1.4.6.5-1.7 1.4.6-.5 1.8 1.3.7.5-1.9.8.5v-1.7l-.6-.3v-1.3l-1.2-.6-.1 1.2-1.3-.6.1-1.3-1.1-.5-.3 1.2-1.3-.5.3-1.2-1.2-.3-.3 1-1.4-.4.6-1.1-1.3-.3-.6 1-1.5-.2.8-1zm24 11.8q.6.8.7 2.3a37 37 0 0 1 5.2 4q.1-.6-.1-1.7l-1.1-1.7-.2-.1-3.4-2.2-1-.5zm4.7 3s1.4 1.4 1.7 2.1a3 3 0 0 1 .2 1.8l.6.4.7.3h.6q.8 0 1.4-.5l-.6-.2-.6-.3-1.1-1.1-.8-.7zm23.5 14.7h-.2l-5.3 1.5-5.8 8.5c-3 4.5-6.4 9.6-8.3 12l2.6 2.3 8.2-11.6q3.1-4.3 5.5-8zm-24.8 26.8-2.5 4-2.3 4.3s-.4 2.2 0 3.8c2.5-5.3 5.2-8.9 5.2-8.9-.5-1.5-.4-3-.4-3.2m-4.9 8.4q0 .4-.3.7c-2.1 4.7-2 8.1-4.2 10h.2c.5 0 2.7 0 3.8-5l-.2-1c-.2-1.5.3-3.5.7-4.6" fill="#fff"/><path d="M98.4 100.8a19 19 0 0 1-12.2-8.3c-2-2.8-3-6.2-2.3-7q.6-.3.3.1-.4.8.4 2.3c3 5.6 8.5 9.7 14.2 10.9 4.6 1 10 .3 13.8-1.7q1.5-.7 1.5-1.6 0-.3.1 0c.4.6-.6 1.8-2.2 2.8a20 20 0 0 1-13.6 2.5z" stroke="#d50a0a" stroke-width=".3" fill="#d50a0a"/><path d="M99.3 47.5s-1.6 3-1.8 4.5-.2 3 1.5 4c0 0-.7-1 0-1.4h.2v-.1l.4.4c.9.8 3.1 2 4.6 2.1 0 0 .1.5-1 1.2 0 0 1.7.5 3-.2 1.2-.7 2.8-3.7 4.9-3 2 .6 1.5 4 2 5.4a4 4 0 0 0 2.3 1.8c-.4-1.1-.1-1.5-.1-1.5 1.2.9 3.8 1.3 5 1.1l.5-.1v.2c.4 1-.7 1.3-.7 1.3 2 0 2.8-1.1 3.6-2.4S125 56 125 56s-1.6-.4-3.4-.2l-.5.1q-3 .8-5.1.2-.7-.1-1-.6h-.1l-.2-.2-.8-1c-1 .6-4.3-.6-4.8-1.5l-1.1.2h-1.6q-2-1-4-3.4l-.3-.3a10 10 0 0 0-2.8-1.9m10.3 9.6q-1.1 0-1.5 1-.3.7-.8 1.2t-.8.7q-.4.2-.8.9l-.2.6q-.2 1.5 1.3 2.1s-.5-.5-.3-1.1q.3 0 .5.3 1.1.3 1.5-.7h.2q.2 0 .1.2-.1.9.8 1.3h.6v.1c-.2.6-.9.8-.9.8q1.7.4 2.3-1l.2-.6v-1.2q-.3-.3-.3-1v-1.4q.4-1.4-1-2l-.2-.1zm-21 27.5q-2 0-3.4.4 3.2 0 7.6.7l.6-.9-4.7-.2m18.5 4.8v1.1q3.8 2 6.3 3.9a26 26 0 0 0-6.3-5"/><path d="M109.6 32.6c-9 0-11.6 6.8-12 8.3-.4 1.7-.4 3.7-.5 4.7 0 0 1.7-.3 3.4-1v-3c0-2 2.1-10.5 13.3-8.6zm11.6 2.7 1.8 1v.1c4.7 2.8 6 6.2 6 9a9 9 0 0 1-1.6 5.2l-1.8 2.3q1.1 1.7 2.1 2.8c.6-.9 1.8-2.4 2.4-3.9.7-1.7 3.2-10.6-8.5-16.3zM68 40l-.1.2q-.7 2.3-.8 4.7-.2 4 .7 8a39 39 0 0 0 7 15.5 60 60 0 0 0 10.3 11.3l1.4 1.2 2.3-1c-11.6-10.1-16-21-16-21-6-11.1-4.8-19-4.8-19m35.2 5.4h-.3c0 .1 2.6 1.7 4 3.2s3.6 3.6 4.9 4 4.2.2 6.3-.3c2-.3 5.1 0 5.1 0-1.2-1.6-5.6-1.1-8-1-2.1.1-2.7-.2-2.9-.2s-.8-.2-2.4-1.6c-1.8-1.5-4.7-4.2-6.7-4.1m-4 2.1s-1.6 3-1.8 4.5-.2 3 1.5 4c0 0-.7-1 .1-1.4l.2-.1-.3-.6a6 6 0 0 1 0-3.7l.2-1s.5-1.1.2-1.5zm-5 5-.1 2 .1 1.5c.4 1.1.4 1.8 2.7 2.8q1.2.5 2.3 1.2 2 .8 2.8 2.6.3.6.1 1.1.6-1.6-.9-3.6c-1.1-1.2-4-2.2-5-2.7-1.2-.6-2.1-3.2-2-5m7.9 11.2v-.1l-.4-.6-.9-.8s-.2.9-.6 1.5l-.7 1.3c-.5 1.3 0 2.6.2 2.6.1 0 .5-.1 1-1.9l.1-.2V65q.1-.4.7-.3h.2zm7-10.8-1.2 1.6c-.4.6-2.3 2.7-3.7 2.5s0 .5-1 1.2c0 0 1.6.5 2.9-.2s2.8-3.7 4.9-3c2 .6 1.5 4 2 5.4a4 4 0 0 0 2.3 1.8c-.4-1.1-.1-1.5-.1-1.5-1.3-.7-1.5-3.5-1.5-4.3v-2c-.8.6-4.2-.6-4.7-1.5m15.7 3.2c-.5.2-.8 1.4-.8 1.4q0 .6-.3 1-.5 1.3-1.4 2.2-.7.6-1.5 1v.2c.4 1-.7 1.3-.7 1.3 2 0 2.8-1.1 3.6-2.4S125 56 125 56m-15.3 1q-1.1 0-1.5 1-.2.7-.8 1.2-.4.5-.8.7t-.8.9l-.2.6q-.2 1.5 1.3 2.1s-.5-.5-.2-1.1q-.4-.5-.3-1.1l.2-.7c.2-.6.8-.6 1.5-1.4q.5-.5 1-1.5c0-.5.7-.8 1.2-.6zm.9.1q.8.5.6 1.4-.3 1-.1 1.7c0 1 .5 1.4.3 2l-.2.7q-.3.6-1 .7c-.1.6-.8.8-.8.8q1.7.4 2.3-1l.2-.6v-1.1q-.3-.4-.3-1v-1.5q.3-1.4-1-2M72.9 59l.4.8zm22.5.4-.9 4.3v.5c.6-.5 2-.2 2-.2v-.4l.3-3.5zm-.9 4.8q0 1.5.4 2.4l1.7 5.3.2.4a12 12 0 0 0 2 4.7 9 9 0 0 0 4 2.6h.1q1.2.4 2.3.5h2.5c1.9-.4 4-2.3 4.8-3l4.6-3q1-.6 2-2.1l2-4-1.6-.3c-.2.3-1.6 2.8-2.1 3.3.3.2 1.1.7 1.3 1.4 0 0-1.5 1.3-3.3 2.1s-4.6 2.5-5.7 3.3q-.7.4-1.6.6-.9-1.3-4-2.4c-2-.7-3.9-.8-4.7-.4q-.8-.8-1-1.7c-.5-1.2-1.6-4.2-2.6-6s-1.3-3.6-1.3-3.6m31.2-.5c-1.1 1.3-3 2.5-4.1 2.3-1.2-.2-4-1.2-5.8-.9q-1.9.5-2.6 1.9c1-1.1 2.6-1 3.9-1l3 .6c2.4.6 2.8.1 3.7-.6a7 7 0 0 0 1.9-2.3M114.8 67c-1.2 0-1.9.4-1.9.4s-.4.7-.5 1.5l.6.3.3.1.1.3h-.3l-.3.2c-.6 1.8-.4 2-.3 2.2.1 0 1.3-.7 1.7-2l.3-1.4zm39.6 2c0 .2-3 7-15 12.2h-.2s-10 6-25.4 7.1l1.3 2.2a67 67 0 0 0 22.7-5.3 39 39 0 0 0 12.2-8.9q2.9-3 4.4-7zM83 78.7q-.3 0-.2.3.2.3 0 1.7a3 3 0 0 1-1.7 1.8 3 3 0 0 0-1.8 2c-.2 1.1-.8 2.6-.6 3.5q0 .8 1.2.9-.7.6-1.5.2-.9 1.9-3.6 1.4a7 7 0 0 1-4.8-5.3h1l-.2-.6.1-.5c-2.4 0-2.8-1.8-2.8-1.8s-.7.6-.8 1.6a1 1 0 1 0 0 .3l.1.4.4.8q.6.6.7.5l.3-.3c-.2-.1-1.3-.9-.6-2.6 0 0 0 1.5 1.2 2.4.1.6 1.1 4.4 4.8 5.5 4 1.3 5.6-.6 6-1.3l.6-1.4c.3-1 1.2-4.9 1.5-5.4s1.4-2.2 1-4zm-7.6 5.2-3.7.1-.1.6.2.6s3.6.2 5.8.8l.8-2zm43.9 7h-.3c-1.3 1-1.6 3.1-1.6 3.7s-1.7 4.2-2 5.2l-.4 1.5c0 .8 0 3.2 4 4.7 3.6 1.3 6.7-1.2 7.2-1.6q1.6-.2 2.1-.8l.3-.3c-.4 1.3-1.2 1.6-1.7 1.7h-.4v.4l.4.1q.4.1 1.3-.5l.3-.2a1 1 0 0 0 1.8.9 1 1 0 0 0-1.5-1.3 2 2 0 0 0 .3-1.7q-.7.5-1.4.5h-.6l-1-.5q-.3 0-.3-.2l-.2.4-.6.4.8.6a6 6 0 0 1-7 1.3q-2.4-1.1-2-3.2-.8-.1-1.1-1.1.7.5 1.5 0l.9-1.5.6-1.6.3-.7a3 3 0 0 0-.4-2 3 3 0 0 1-.2-2.4q.6-1.4 1-1.4v-.4zm.6 7-.2.9-.5 1.1c2 1 4 2 5.2 3l.5-.4.2-.6a37 37 0 0 0-5.2-4m34.2 13-3.9 1.5c-3.8 6-16.7 25.2-17.8 26.8l1.8 1.5c3.3-4.7 17.3-25.8 20-29.8M119 132.8s-.5-.1-.6.3q-.1.3.4.5c.4.1 1.5.2 2.7 1.4a5 5 0 0 1 1.6 3.9c0 1.3.4 3 2 4.2 1.5 1.2 3.4 3.2 5 3.6h.3c1 .1 2-.8 1.9-1.4q.4 1.7-.5 2.7 2.8 2.7 2 5.5a8 8 0 0 1-8 5.4 12 12 0 0 1-6.2-1.5l.3-.7c-2 .5-2.7-2.5-2.7-2.6-1.1 5-3.3 5.2-3.8 5.1h-.2s.5 1.6 2.1 2.4q-1.2-.3-2 .8a1.8 1.8 0 1 0 2.5-.5l-.1-.1.7.2c2.2.4 3-.7 3-.7l-.3-.7s-2.2 1.5-4.6-1c0 0 .9.4 2.2.1 2-.3 2.4-1 2.5-1a15 15 0 0 0 6.5 1.4c3.1 0 6.1-1 7.9-2.5 1.7-1.5 3.8-4.7 3-8.2-.6-2.8-4.3-5.6-5.1-6.2-1.8-1.6-6.5-5.3-7-6a9 9 0 0 0-5.5-4.4m4 10.5s-2.7 3.6-5.2 9l.3.7c.7 1.6 1.4 2 2.7 2 0 0 3.1-5.4 5.3-8.2l-1.6-1.4a6 6 0 0 1-1.5-2m5.3 6.5-2.6 4-1 1.5a9 9 0 0 0 3.5-.4c1-.4 2.1-1.8 2-2.7l-.1-.7a4 4 0 0 0-1.8-1.7" fill="#b1babf"/></svg>