<svg xmlns="http://www.w3.org/2000/svg" xml:space="preserve" viewBox="0 0 193.2 137.4"><path d="M62.5 80A32 32 0 0 0 66 91.8c3.3 6.2 10 14.3 23.8 19a56 56 0 0 0 46.8 25.7A55 55 0 0 0 192 81a55 55 0 0 0-46.4-54.6 38 38 0 0 0-35.6-8.5 10 10 0 0 1-10.3-1.8 54 54 0 0 0-6.5-4.5c-7.5-4.1-18-4.2-26.8-.7-5.8 2-8.8-.5-10.5-1.8a51 51 0 0 0-41-6.5C4.9 5 .9 7 .9 7s6.8 1 14.2 4a29 29 0 0 1 14.3 11.5s2.2 3.4.7 4.2c-1.6 1.3-3.4-1.5-3.4-1.5l.1 5.3c1 15.4 4 24.5 11.3 31.6A56 56 0 0 0 56 71.9c4 1.6 6.2 3.6 6.6 8.2" fill="#fff"/><path d="M173.1 44.3A51 51 0 0 0 144 29.8C129.5 16 112 21 112 21c3.8.5 6.3 2.8 5.3 5.1-.7 1.6-3.4 1.8-4.5 1.8-4 0-7.3-2.4-10-4.5s-7.4-6.3-11.4-8.6A29 29 0 0 0 63 16.6a29 29 0 0 1 15.3 5c2 1.6 4.7 5.1 2.5 6.8-2 1.4-6.7.7-9-.8a37 37 0 0 1-9.3-7.9C48.8 3.6 29.1 2.6 13 6.6A31 31 0 0 1 35 26c4.4 10.5 7.8 14.9 15 17.7 4.5 1.8 5.8 2 5.4 4-.5 3-5.9 1.5-10 0A30 30 0 0 1 30 30.3c.8 13 3.3 22.2 10.5 29A56 56 0 0 0 58.3 69c5.7 2 10.2 3.4 14.5 7 5 4.5 2.7 7.5-.5 6.9-3.8-.6-6.3-4.5-6.3-4.5s0 21.3 26 29.3a52 52 0 0 0 81.3 10 51.3 51.3 0 0 0 0-73.4" fill="#024"/><path d="M170.4 47a48 48 0 0 0-28.7-13.7c-9.2-9.3-18.4-8.8-18.4-8.8 4 2.5 2 8.1-7 9.4s-20.4-1.8-26-8.3-10-7-10-7c5 3.1 5.3 6.9 8.3 12.5s9.2 7.6 14.7 8 5.7 3 1.2 5.8c-5 2.9-9.5 0-12.7-3-5-5-10-6-17-5.9s-16.3 1-24-2c-8-2.9-13-13.1-13-13.1 3.8 13.6 12.5 20 20.3 21.6a53 53 0 0 1 22.3 8.1c4.2 3.5 6.6 7 8.2 11.9 1.3 3.8 1.5 8.8.3 9-1.5.4-1.8-1.6-3.5-5.1a19 19 0 0 0-8.8-9.3c-6-3.4-12.1-3.1-18.2-3-4.8 0-7.6-.5-7.6-.5s0 .6 8 2.5a32 32 0 0 1 23 19c5 10.3 2.3 17.5-8.3 14.3 0 0 5 11.1 21.3 15a49 49 0 0 0 41.7 24.3A47.5 47.5 0 0 0 184.4 81a48 48 0 0 0-14-33.9" fill="#4b92db"/><path d="M136.5 35.3a45 45 0 0 1 45.6 45.6 45.6 45.6 0 1 1-45.6-45.7" fill="#fff"/><path d="M136.6 122.5a41.6 41.6 0 1 1-.1-83.2 41.6 41.6 0 0 1 0 83.2" fill="#16243e"/><path d="M126.3 72.4H114l-4.1 7.2-5.4-15.5h63.9L163 79.6l-4.1-7.2h-12.2l-10.2 45z" fill="#fff"/><path d="M168.5 64.3h-64l1 2.8H136l-9.6 5.3 10.1 45V67h31z" fill="#a5acaf"/><path d="M31.5 7.3q-2.7 0-5.6.5S34.6 7.5 42 21a24 24 0 0 0 27.5 11.3S58 32 51.5 20.8c-5.4-9.5-12.1-13.4-20-13.5m48 6.5q-5 0-8.1 1.7s7.8-1.5 15 4.1c5.6 4.6 9.3 8.3 18.7 8.6-4.3-1.6-7.2-4.4-13.2-9.7a20 20 0 0 0-12.4-4.7M136.4 41l-2.3 7.4h-7.8l6.2 4.5-2.2 7.3 6-4.6 6.3 4.5-2.5-7.2 6.3-4.5h-7.7zM35.3 44.3S35.3 57.9 51 62c10.9 3 19 4.6 24 11.6 0 0-1.2-12.5-19.2-16.2S35.3 44.3 35.3 44.3m80 41.7-5 5.8-7.2-3.2 3.9 6.7-5 5.7 7.5-1.6 3.8 6.6.8-7.6 7.5-1.8-7.1-3zm42.2 0 .9 7.6-7 3.3 7.5 1.5.8 7.6 3.8-6.6 7.5 1.5-5-5.7 3.8-6.7-7 3.3z" fill="#c60c30"/></svg>