<svg xmlns="http://www.w3.org/2000/svg" viewBox="0 0 460 250.7"><path fill="#ffb612" d="m314.1 0 14.7 45-11 33.6L292.3 0H177.8l-20.5 63-20.4-63H0l43 69.8 58.9 181h110.8l22.3-68.5 22.2 68.4h121.2L460 0ZM58.3 62.7 30 16.7h94.7L148.5 90l-40.7 125zm142.2 171.7H119l66.5-204.1 40.6 125zm-1.7-217.7h81.4l29 89-40.8 125.1zM366 234.3h-81.3l61.5-189.1-9.2-28.5h99.8z"/><path fill="#5a1414" d="m309 105.7-40.7 125.1-69.5-214h81.4zm28-89 9.3 28.5-61.5 189H366l70.8-217.5zm-212.3 0H30l28.3 46L107.9 215l40.6-125zm-5.6 217.6h81.5l25.7-79-40.7-125z"/></svg>