<svg xmlns:dc="http://purl.org/dc/elements/1.1/" xmlns:cc="http://creativecommons.org/ns#" xmlns:rdf="http://www.w3.org/1999/02/22-rdf-syntax-ns#" xmlns:svg="http://www.w3.org/2000/svg" xmlns="http://www.w3.org/2000/svg" xmlns:sodipodi="http://sodipodi.sourceforge.net/DTD/sodipodi-0.dtd" xmlns:inkscape="http://www.inkscape.org/namespaces/inkscape" id="svg8492" version="1.1" inkscape:version="0.48.5 r10040" sodipodi:docname="A.svg" viewBox="0.5 0.5 999 1043.58">
  <defs id="defs8494"/>
  <sodipodi:namedview id="base" pagecolor="#ffffff" bordercolor="#666666" borderopacity="1.0" inkscape:pageopacity="0.0" inkscape:pageshadow="2" inkscape:zoom="0.39975011" inkscape:cx="704.13599" inkscape:cy="185.05848" inkscape:document-units="px" inkscape:current-layer="layer1" showgrid="false" fit-margin-left="0.5" fit-margin-bottom="0.5" fit-margin-top="0.5" fit-margin-right="0.5" inkscape:window-width="1075" inkscape:window-height="1024" inkscape:window-x="843" inkscape:window-y="-8" inkscape:window-maximized="0"/>
  <metadata id="metadata8497">
    <rdf:RDF>
      <cc:Work rdf:about="">
        <dc:format>image/svg+xml</dc:format>
        <dc:type rdf:resource="http://purl.org/dc/dcmitype/StillImage"/>
        <dc:title/>
      </cc:Work>
    </rdf:RDF>
  </metadata>
  <g inkscape:label="Layer 1" inkscape:groupmode="layer" id="layer1" transform="translate(-392.1648,779.18799)">
    <g id="g8349" transform="matrix(9.7001592,0,0,-9.7001592,869.88353,151.84828)">
      <path inkscape:connector-curvature="0" d="m 0,0 c -11.63,0 -22.15,4.717 -29.772,12.337 7.547,3.806 15.81,7.257 23.454,7.955 5.497,0.5 10.029,-0.06 10.987,-1.659 0.962,-1.603 -0.803,-5.395 -2.885,-7.944 0,0 21.383,0.96 28.97,17.632 4.379,8.852 2.002,19.441 -5.246,26.186 -2.574,2.397 -7.317,5.909 -8.792,6.866 -2.713,1.76 -5.914,6.863 -11.565,9.351 -4.634,2.039 -16.191,5.661 -25.298,8.412 5.986,3.269 12.845,5.139 20.147,5.139 23.272,0 42.137,-18.865 42.137,-42.137 C 42.137,18.866 23.272,0 0,0 m 0,95.93 c -17.669,0 -33.346,-8.52 -43.152,-21.673 9.947,-2.916 39.508,-11.851 43.512,-13.644 3.56,-1.595 5.666,-5.06 7.688,-6.671 1.578,-1.257 3.089,-2.385 4.567,-3.454 3.661,-2.648 11.9,-7.634 8.433,-17.468 -0.909,-2.578 -2.96,-4.791 -5.36,-6.336 0.141,0.838 0.538,2.569 -0.536,3.719 -1.27,1.36 -6.748,2.81 -14.288,2.003 -7.651,-0.818 -18.078,-3.681 -29.078,-9.671 2.3,3.187 6.466,7.744 10.197,9.24 -0.641,0.374 -24.994,-8.92 -31.18,-11.588 8.355,-18.869 27.232,-32.041 49.197,-32.041 29.708,0 53.791,24.083 53.791,53.792 C 53.791,71.846 29.708,95.93 0,95.93" style="fill:#e31837;fill-opacity:1;fill-rule:evenodd;stroke:none" id="path8351"/>
    </g>
    <g id="g8353" transform="matrix(9.7001592,0,0,-9.7001592,861.21539,-390.50888)">
      <path inkscape:connector-curvature="0" d="m 0,0 c -0.057,-5.575 -4.423,-7.707 -8.472,-7.138 -4.103,0.578 -7.881,3.929 -6.517,9.278 -0.2,0.576 -1.65,0.864 -3.426,0.429 C -13.133,7.956 -6.843,-0.269 0,0" style="fill:#e31837;fill-opacity:1;fill-rule:evenodd;stroke:none" id="path8355"/>
    </g>
  </g>
</svg>