<svg xmlns="http://www.w3.org/2000/svg" xmlns:xlink="http://www.w3.org/1999/xlink" version="1.1" id="layer" x="0px" y="0px" style="enable-background:new 0 0 652 652;" xml:space="preserve" viewBox="70.41 71.71 499.98 499.98">
<style type="text/css">
	.st0{fill:#008348;}
	.st1{fill:#FEFEFE;}
</style>
<g id="NBA">
	<g id="BOS">
		<g id="Page-1">
			<g id="Group-3" transform="translate(0.000000, 1.103077)">
				<path id="Fill-1" class="st0" d="M313.7,570.5c138,3.7,252.9-105.2,256.6-243.2c3.7-138-105.2-252.9-243.2-256.6      C189.1,67,74.2,175.9,70.5,313.9C66.8,451.9,175.7,566.8,313.7,570.5"/>
			</g>
			<path id="Fill-4" class="st1" d="M457.8,352.7c-8.4-11.6-23.1-18.4-36-20c-12.9-1.6-22.2,0-33.2,3.3     c-14.1,3.2-24.6,8.2-39.3,13.8c7.6-8.3,16.9-18.1,23.4-29.6c9.1-16.1,14.4-27.2,15.2-44.2c0.8-16.7-8.4-36.1-22.6-45.9     c-11.2-7.6-26.9-8.2-39.3-0.3c-5.1,3.3-8.8,6.5-11.2,9c-10.7-7.5-21.3-11.7-34.5-9.5c-12,1.1-20.6,11.7-25.8,21.1     c-17.2,34.7,12.1,69.5,33.8,94.4c-38.7-11.4-48.2-11.7-58.2-12.5c-10-0.8-25.9,0.3-37.4,6.8c-11.5,6.5-21.6,17.3-22.5,36.7     c-0.7,14.2,7.1,27.9,21.5,36.1c-8,19-2.6,38.4,17.4,47c22.9,9.9,42.7,3.5,58.3-7.9c15.6-11.4,29-25.9,40.7-41.4     c-3.6,84.2,49.2,110.2,49.2,110.2l5.9-20.9c-10-7.1-36.6-31.5-34.2-88.4l4.6,4.6c13.7,14.1,26.2,25.7,42.7,39.1     c16.5,13.4,47.9,18.1,66.2-3.9c8.3-10,10.9-30.1,5.8-38.5l0.2-2c7.9-5.1,14.6-11.1,17.4-20.4     C470.1,376.8,464.4,362.6,457.8,352.7"/>
			<polygon id="Fill-6" class="st1" points="137.2,250.3 124.4,246 119.4,260.6 186.7,283.3 191.5,269.3 178.9,265.1 182.3,254.9      194.1,258.9 201.8,270.1 195,290 183.1,294.4 116.6,272 108.7,260.3 113.8,245.5 118.7,243.8 114.9,242.5 118.1,233.1      140.5,240.6    "/>
			<polygon id="Fill-8" class="st1" points="465.5,191.4 474.8,181.7 463.4,171.1 414.6,222.4 425.4,232.6 434.6,222.9 442.5,230.2      434,239.2 420.5,241.6 405.1,227.1 406,214.5 454.2,163.9 468.1,161.6 479.6,172.3 479.1,177.5 482,174.5 489.2,181.4 473,198.4         "/>
			<polygon id="Fill-10" class="st1" points="180.7,185.7 170.5,176.9 162.5,186 185.1,205.6 192.6,197 200.3,203.6 192.7,212.1      216.1,232.5 224.5,222.9 214.5,214.3 220.9,207 238.5,222.2 212.1,252.2 204.5,245.6 208.8,240.8 155.2,194.4 150.9,199.2      143.3,192.6 169.7,162.6 187.5,178    "/>
			<polygon id="Fill-12" class="st1" points="254.3,212.9 250.5,203.8 256,201.5 228.3,136.4 222.8,138.7 218.9,129.5 239.9,120.7      243.8,129.9 238.3,132.2 266,197.3 276.4,192.9 271.2,180.8 280.8,176.8 289.8,198.1    "/>
			<polygon id="Fill-14" class="st1" points="338.8,129.2 338.8,115.8 329.9,115.8 329.9,186.4 336,186.4 336,196.3 312.2,196.3      312.2,186.4 318.8,186.4 318.8,115.8 310.3,115.8 310.3,129.2 299.6,129.2 299.6,105.7 349,105.7 349,129.2    "/>
			<polygon id="Fill-16" class="st1" points="405.1,133.1 379.6,199 384.9,201 381.3,210.3 359.9,202.1 363.4,192.9 369.5,195.2      395,129.3 388.9,126.9 392.5,117.6 414.1,125.8 410.4,135.1    "/>
			<polygon id="Fill-18" class="st1" points="446.2,289.1 439.9,273.9 442.5,269.5 438.8,271.1 434.6,261.1 455.9,252.2      460.1,262.2 447.9,267.3 454.1,282.1 483.4,269.9 475,250 479,242.6 509,230.2 521.8,233.7 528,248.3 525.5,252.9 529.2,251.3      533.3,260.9 511.5,270 507.3,260.1 519.8,254.9 513.5,240.2 486.6,251.4 495.1,271.5 490.5,278.9 458.4,292.3    "/>
		</g>
	</g>
</g>
</svg>