<svg xmlns="http://www.w3.org/2000/svg" xmlns:xlink="http://www.w3.org/1999/xlink" version="1.1" id="Layer_1" x="0px" y="0px" enable-background="new 0 0 736 736" xml:space="preserve" viewBox="23.07 21.64 691.34 694.36">
<path fill="#000000" opacity="1.000000" stroke="none" d=" M595.986816,630.991760   C558.724426,663.687012 516.595581,686.897583 469.525604,701.172729   C442.167206,709.469910 414.260468,714.136353 385.634705,715.563110   C329.773438,718.347534 276.602661,707.810730 225.967422,684.567322   C160.958008,654.725525 110.042656,608.828796 73.013512,547.677856   C48.541763,507.264587 33.438545,463.433899 26.664274,416.703979   C23.236414,393.058044 22.153021,369.270538 23.884960,345.478912   C28.908924,276.464813 51.828136,214.041092 93.510880,158.597046   C124.150551,117.841858 162.005386,85.543724 206.965195,61.688583   C241.669724,43.274765 278.575348,31.277910 317.508270,25.594301   C337.988831,22.604450 358.560486,21.029404 379.234283,21.862839   C450.971161,24.754803 516.036804,47.030457 573.750488,89.919395   C634.380432,134.975494 675.879211,193.778519 698.557922,265.790405   C706.576599,291.252167 711.523560,317.321442 713.439819,344.021545   C719.233154,424.742950 699.009705,498.449585 654.130005,565.508911   C637.835938,589.855652 618.340881,611.487366 595.986816,630.991760  M137.247482,447.181946   C151.515793,453.677368 166.207703,459.033630 181.112228,463.883057   C204.394669,471.458344 227.728653,478.835754 251.649475,484.157410   C255.071030,484.918640 256.316742,486.555817 256.246094,489.964752   C256.090759,497.461029 256.113220,504.963989 256.229706,512.461609   C256.292450,516.498901 254.909531,517.617920 250.775131,516.768066   C223.326813,511.125824 196.454239,503.591736 170.285782,493.506317   C143.240189,483.082886 117.608398,470.189301 94.930855,451.879211   C79.454254,439.383270 66.037315,425.025940 54.766163,407.212433   C59.767815,446.263367 70.355225,482.453125 88.569809,515.968933   C115.234314,565.033020 149.123367,607.672058 199.837387,634.300659   C202.194855,635.538513 204.379959,637.224365 206.858566,638.093140   C231.902573,646.871338 257.292572,654.307678 283.996185,655.738403   C325.266968,657.949585 364.375610,648.964233 401.992981,632.484375   C407.307892,630.155884 412.415192,627.455139 418.225922,626.163147   C434.195251,622.612549 448.772614,615.906799 461.888489,605.990723   C467.195618,601.978394 471.454987,596.716003 477.443665,593.528992   C518.329285,571.770630 559.087830,549.781311 599.175781,526.569702   C619.707886,514.681213 614.992920,521.542114 620.063416,497.991699   C622.324768,487.488556 624.065308,476.832123 624.026550,465.116608   C584.685669,483.443878 543.689819,494.364410 501.581238,504.409454   C501.581238,496.090668 501.693878,488.795319 501.527740,481.506287   C501.457825,478.438141 502.554779,477.115784 505.590179,476.437500   C520.218567,473.168732 534.613892,469.007690 548.976074,464.726410   C573.747803,457.342041 597.994995,448.569611 621.504700,437.785889   C624.165527,436.565369 625.935181,435.305969 625.611877,431.907990   C624.382446,418.986786 624.630249,405.948822 622.682434,393.082581   C621.752869,386.942108 621.899292,380.579834 619.456238,374.520935   C618.423828,374.768158 617.739990,374.803253 617.179993,375.084808   C602.342651,382.544769 586.457520,384.781128 570.106628,384.200378   C543.999084,383.273132 518.689697,377.450317 493.460205,371.235260   C491.235535,370.687195 489.631073,369.479492 488.538391,367.385406   C485.047058,360.694580 480.445465,354.788361 475.403503,349.204041   C473.288422,346.861450 477.046478,333.590179 480.109009,332.803040   C480.968933,332.582031 482.086426,332.931915 482.970306,333.298370   C505.413116,342.602600 528.670654,348.888977 552.855408,351.197113   C572.058838,353.029938 591.106384,352.280762 609.421631,345.027893   C613.111206,343.566864 614.069763,341.775604 613.089050,337.850220   C609.406921,323.111847 604.798828,308.651947 598.914429,294.700378   C570.417725,227.136932 528.944641,169.187332 470.695801,123.972458   C440.906952,100.849274 407.923035,83.802414 371.512543,73.615204   C351.037598,67.886574 330.070374,65.130386 308.907867,64.580750   C294.150360,64.197464 279.159912,63.875912 264.853149,68.511909   C251.376236,72.879013 238.405029,78.627945 225.754944,85.015213   C188.082764,104.036629 155.645950,129.757111 128.243805,161.813187   C122.800507,168.180954 117.372421,174.612625 112.356689,182.794647   C133.026489,177.701599 152.423294,179.966049 171.670837,184.493896   C197.762039,190.631683 222.157516,201.254089 246.358978,212.542740   C253.354874,215.805939 256.981293,219.414841 255.980972,227.354401   C255.287537,232.858322 256.503754,238.535461 255.465332,243.940781   C252.718170,244.672318 251.128647,243.178558 249.409943,242.327454   C219.451141,227.491898 188.569504,215.244385 155.621399,208.776642   C137.706772,205.259995 119.696831,203.836823 101.496300,206.292053   C97.552689,206.824020 95.003952,208.615784 93.029877,212.241455   C81.440514,233.526947 71.924240,255.635544 65.113258,278.926361   C55.499321,311.802185 51.369621,345.340637 52.365295,379.542084   C52.437504,382.022430 51.938675,385.386292 53.814560,386.653748   C58.832966,390.044403 61.390526,395.401215 65.405914,399.552887   C85.690559,420.526123 110.344803,434.854828 137.247482,447.181946  M643.695435,218.730530   C639.744446,209.950500 636.916748,200.424454 631.661133,192.510818   C596.008789,138.827042 547.971924,99.903404 488.626007,74.995148   C459.902679,62.939594 429.905090,55.589561 398.906586,52.444225   C386.376831,51.172863 373.811066,50.821548 361.176147,51.671474   C361.867676,52.179039 362.603241,52.478413 363.367523,52.606163   C385.665802,56.333389 407.079803,62.962673 427.649414,72.305359   C471.107300,92.043900 507.901459,120.742485 539.829956,155.948944   C580.449890,200.739136 610.106934,252.000519 630.090576,308.966583   C631.972290,314.330902 633.891418,319.682068 636.054810,325.776337   C649.720642,308.740234 654.583130,289.775330 654.388062,269.539734   C654.221558,252.283707 650.465820,235.520828 643.695435,218.730530  M516.288696,649.771667   C557.586914,627.853027 585.018555,593.697876 603.941284,551.570374   C601.634277,550.798523 600.587463,551.881531 599.601807,552.598816   C582.471680,565.063904 564.037048,575.478088 546.111267,586.689392   C504.696869,612.591064 462.620544,637.269653 416.573029,654.247009   C384.098358,666.220093 350.925751,675.186951 315.947906,675.347168   C304.818146,675.398193 293.681396,675.565674 282.583527,674.215698   C300.358490,679.551453 318.402740,683.086060 336.825928,685.104126   C363.319336,688.006104 389.672272,687.259766 415.945465,683.376099   C451.108154,678.178406 484.375244,667.116150 516.288696,649.771667  M685.561707,360.443390   C684.941223,352.319153 684.470886,344.179993 683.666260,336.074036   C682.354980,322.863525 680.120911,309.802917 676.602112,295.662659   C671.953857,318.751862 661.196533,337.160797 645.700806,352.900299   C643.667603,354.965454 643.985840,356.921173 644.458130,359.254578   C647.326660,373.427521 649.498352,387.695984 650.372986,402.149445   C650.715210,407.805023 651.308533,413.445404 651.874390,420.116638   C670.538330,403.786255 679.579041,383.402924 685.561707,360.443390  M648.169495,505.006104   C653.277588,507.274017 655.580383,505.157379 657.592468,500.239746   C661.874390,489.774628 666.329285,479.384155 669.762634,468.604950   C675.567261,450.380768 680.216797,431.889496 682.111145,412.742065   C675.246216,427.194611 665.822327,439.425690 652.576416,448.493896   C650.718323,449.765900 650.313049,451.561615 650.078430,453.635925   C648.265808,469.662140 645.843018,485.585602 641.759460,501.217285   C641.431763,502.471985 640.883911,503.775391 642.119019,505.176849   C643.779541,505.102692 645.578979,505.022308 648.169495,505.006104  M626.738525,544.120422   C623.377197,551.253540 620.015808,558.386597 616.654480,565.519714   C627.816711,552.856140 637.448669,539.287415 644.324341,523.791565   C638.755127,524.376038 634.248474,526.285034 631.948975,531.445801   C630.193726,535.385193 628.688049,539.435852 626.738525,544.120422  z"/>
<path fill="#000000" opacity="1.000000" stroke="none" d=" M471.083740,393.144836   C474.417236,405.357269 475.287079,417.454529 475.296722,429.638062   C475.319031,457.795898 475.411255,485.954559 475.236847,514.111389   C475.140411,529.677734 473.685425,545.153931 466.929321,559.459167   C455.712280,583.209961 435.605042,595.363037 410.937653,601.186646   C404.939178,602.602783 398.845306,603.355225 392.635284,603.387878   C360.824158,603.555115 329.013763,603.864441 297.202789,604.071655   C286.252167,604.143005 282.634644,600.396179 282.622833,589.296326   C282.580231,549.317688 282.774353,509.337006 282.437744,469.360809   C281.553986,364.401001 281.874329,259.439545 281.699402,154.478806   C281.684326,145.427094 285.580444,141.171722 294.694214,141.121857   C325.016357,140.955978 355.341858,140.806931 385.661743,141.098969   C397.851166,141.216385 409.908508,143.240875 421.098755,148.494370   C442.749451,158.658752 453.788116,176.479950 457.300415,199.542694   C458.856689,209.761490 459.384888,220.048996 459.331787,230.392990   C459.224030,251.385818 459.283539,272.379761 459.335358,293.373077   C459.388489,314.907562 454.085358,334.248230 436.960815,348.847595   C436.358032,349.361511 435.963318,350.119476 434.899170,351.513672   C452.309204,360.705780 465.319061,373.626373 471.083740,393.144836  M422.700592,476.500031   C422.675049,460.845978 422.820374,445.189331 422.586761,429.538391   C422.159058,400.885498 410.286438,387.123779 382.159271,382.192169   C369.471283,379.967590 356.660736,379.925446 343.845703,379.920685   C335.670532,379.917664 335.330750,380.240509 335.332703,388.214752   C335.345490,440.672699 335.368530,493.130676 335.395691,545.588623   C335.396362,546.918579 335.372162,548.263428 335.549683,549.575623   C336.012726,552.998474 337.686401,554.882996 341.501221,554.775940   C357.635345,554.322876 373.785126,555.311096 389.916656,553.755981   C409.610199,551.857422 419.715302,541.655273 421.779266,521.903198   C423.326355,507.097656 422.298187,492.296661 422.700592,476.500031  M407.086700,261.500000   C406.955658,247.679794 407.027832,233.853973 406.645111,220.040741   C406.096497,200.240402 400.558502,193.831619 381.142548,190.970963   C368.449066,189.100739 355.597870,189.223938 342.778839,189.370407   C335.227631,189.456680 334.365784,190.258911 334.377014,197.614395   C334.414154,221.919907 334.353546,246.222931 334.888062,270.528778   C335.279724,288.339539 334.939911,306.166077 334.950592,323.985596   C334.954437,330.388672 335.284515,330.762604 341.772461,330.704651   C351.082794,330.621552 360.377350,330.871826 369.690521,329.777618   C393.187317,327.016907 405.954346,313.590698 406.744141,289.971191   C407.050110,280.820526 406.984467,271.657440 407.086700,261.500000  z"/>
</svg>