<svg xmlns="http://www.w3.org/2000/svg" xmlns:xlink="http://www.w3.org/1999/xlink" version="1.1" id="Layer_1" x="0px" y="0px" style="enable-background:new 0 0 150 150;" xml:space="preserve" viewBox="19.96 15.26 110.04 111">
<style type="text/css">
	.st0{filter:url(#Adobe_OpacityMaskFilter);}
	.st1{fill:#FFFFFF;}
	.st2{mask:url(#mask-2);fill:#FEFEFE;}
	.st3{fill:#2D2925;}
	.st4{fill:#C21F32;}
	.st5{fill:#FEFEFE;}
	.st6{fill:none;}
</style>
<title>CHI</title>
<desc>Created with Sketch.</desc>
<g id="Page-1_1_">
	<g id="CHI">
		<g id="Page-1">
			<g id="Group-3" transform="translate(20.000000, 15.164114)">
				<g id="Clip-2">
				</g>
				<defs>
					<filter id="Adobe_OpacityMaskFilter" filterUnits="userSpaceOnUse" x="0" y="0.1" width="110" height="110.7">
						<feColorMatrix type="matrix" values="1 0 0 0 0  0 1 0 0 0  0 0 1 0 0  0 0 0 1 0"/>
					</filter>
				</defs>
				<mask maskUnits="userSpaceOnUse" x="0" y="0.1" width="110" height="110.7" id="mask-2">
					<g class="st0">
						<polygon id="path-1" class="st1" points="110,0.1 0,0.1 0,110.7 110,110.7       "/>
					</g>
				</mask>
				<path id="Fill-1" class="st2" d="M101.3,54.6l-4.4-1.5c6.7-2.7,13.7-8.1,13-19.4c-0.4-7.8-3.9-14.7-5.9-18.8L96.6,0.1l1.5,16      c0.5,5,0.3,11.6-1.6,15.2c-2.5,5.2-10.9,4.7-13.9,4.5c-5.3-0.4-22.5-0.9-27.7-0.9c-7,0-14.6,0.6-20.8,1c-3,0.2-5.5,0.4-7.2,0.5      c-0.2,0-0.4,0-0.8,0.1c-10.9,1-12.8-4.1-13.4-5.8c-1.1-3.1-1.1-10-1.1-13l0-13L6,15.1C4.3,18.2,1.1,24.1,0,34      c-0.7,13.9,8,18,10.9,19.3c0.4,0.2,0.8,0.3,1.2,0.5c-0.2,0.1-0.5,0.1-0.7,0.2c-1.9,0.6-3.8,1.5-4.4,1.8l-3.3,1.6l2.1,3      c0.3,0.4,1,1.3,1.8,2.1c2,1.9,7,5,13.1,4.3c2.1-0.3,3.8-0.6,5.1-1c0.2,0.7,0.5,1.4,0.7,2c1.9,4.6,6.1,13.5,7.7,16.6      c1.1,2,2.1,3.9,2.9,5.3l-0.1,0.1c-0.2,0.2-0.3,0.3-0.5,0.5l-0.7,0.9l0,1c0,1-0.3,9.6,5.7,16l0.5,0.5l0.6,0.2      c2.8,1.1,6.4,2.2,12.3,2.2c6,0,11-1.4,13-2.4l0.6-0.3l0.4-0.4c4-4.8,5.8-11.8,5.9-14.7l0.1-0.1l-0.1,0l-0.1-1.2l-1.1-1.1      c-0.2-0.2-0.4-0.4-0.6-0.7c0.4-0.8,0.9-1.9,1.5-3.1l0.1-0.2c0.3-0.7,0.6-1.3,0.8-1.6c1.5-3,6.1-12.7,7.8-17.2      c0.4-1,0.7-1.8,1-2.4c1.3,0.4,3,0.8,5.1,1c6.1,0.6,11.9-3.1,13.9-5.9c0.1-0.1,0.3-0.3,0.4-0.5l2.7-3.2l-3.7-1.7      C102.4,55,102.1,54.9,101.3,54.6"/>
			</g>
			<path id="Fill-4" class="st3" d="M127.3,49c-0.4-7.3-3.7-13.8-5.6-17.7l-0.2-0.5l-0.8-1.7l0.2,1.9c0.2,2.6,0.8,11.5-1.8,16.6     c-3.3,6.9-13,6.2-16.2,6l-0.2,0c-5.2-0.3-22.3-1-27.5-0.9c-6.9,0-14.5,0.6-20.6,1c-3,0.2-5.6,0.4-7.3,0.5c-0.1,0-0.3,0-0.6,0.1     c-8.6,0.8-14-1.7-16.1-7.5C28.9,43.1,29,36.1,29,32.7l0-1l0-1.4l-0.7,1.2c-1.6,3-4.6,8.5-5.6,17.7C22.1,60.1,27.8,64,32.1,66     c4.5,2.1,9.1,2.4,10.6,2.5l0.1,0l0,0c0.3,0.1,0.7,0.1,1,0.1c0.5,0,1,0,1.5,0.1c-0.8,0.2-1.9,0.3-2.8,0.5c-1,0.2-1.9,0.3-2.4,0.4     c-1,0.2-5.3,1.2-7.7,2c-2,0.7-4.1,1.7-4.1,1.7l-0.4,0.2l0.3,0.3c0,0,0.7,1,1.5,1.8c1.5,1.5,5.8,4.2,10.9,3.5     c4.1-0.5,6.3-1.5,7.1-1.9c0.3,0.9,0.9,2.9,1.5,4.5c1.8,4.6,6,13.3,7.6,16.3c1.3,2.5,2.5,4.6,3.4,6.1l0.3,0.5     c-0.3,0.9-0.9,1.5-1.4,2c-0.1,0.1-0.2,0.2-0.3,0.3l-0.1,0.1l0,0.1c0,0.8-0.2,8.4,4.9,14l0.1,0.1l0.1,0c2.6,1,5.9,2,11.3,2     c5.5,0,10.1-1.3,11.8-2.1l0.1,0l0-0.1c3.6-4.3,5.2-10.6,5.3-13v-0.1l-0.1-0.1c-0.1-0.1-0.2-0.2-0.3-0.3c-0.6-0.5-1.3-1.2-1.6-2.8     c0.4-0.8,1.3-2.5,2-4c0.4-0.8,0.7-1.5,0.9-1.9c1.5-3,6-12.5,7.7-17c1.1-2.8,1.7-4.3,2-4.9c0.8,0.4,2.9,1.4,6.9,1.8     c5.2,0.5,10.1-2.9,11.4-4.8c0.2-0.3,0.6-0.8,0.6-0.8l0.3-0.4l-0.4-0.2c0,0-0.2-0.1-1-0.4l-2.8-1l-2.8-1c-0.8-0.3-4.3-1-6.8-1.6     l-1.9-0.4l0.6-0.1C112.5,67.2,128.2,64.5,127.3,49"/>
			<path id="Fill-6" class="st4" d="M24,45.9c0.9-4.4,2.3-8.6,4.2-12.6l0,0h0.1h0v0.1v-0.1h0.1l0,0.1c-0.1,1.2-0.1,2.4-0.1,3.7     c0,2.9,0.2,5.9,0.9,8.6l0.1,0.3l-0.2-0.2c-0.9-0.8-1.7-1.6-2.6-2.4c-0.8,0.9-1.5,1.8-2.3,2.6L24,46.1L24,45.9z"/>
			<path id="Fill-8" class="st4" d="M125.8,44L125.8,44L125.8,44c-1.1-3.7-2.2-7.5-4-11l-0.2,0c0.1,1.2,0.1,2.4,0.1,3.5     c0,2.9-0.2,5.7-0.7,8.4l0,0.2l0.1-0.1c0.9-0.4,1.8-1,2.7-1.4l2.2,1.6L125.8,44z"/>
			<path id="Fill-10" class="st4" d="M89.1,84.1l-0.2,0.1c-1.3,0.6-2.6,1.1-4,1.4c-0.9,0.2-1.8,0.3-2.7,0.3c-2.8,0-5.5-1.2-7.1-3.7     l-0.1-0.1L75,82.2c-0.3,0.3-0.5,0.7-0.9,1c-1.8,2-4.3,2.8-6.9,2.8c-2,0-4.1-0.5-5.8-1.2l-0.2-0.1l0.1,0.2     c1.3,3.5,2.1,7.4,2.1,11.3c0,1.8-0.2,3.5-0.5,5.2c-0.2,1.2-0.6,2.5-1,3.7l-0.1,0.2l0.2-0.1c3.7-2,8.3-3,12.8-3     c4.3,0,8.6,0.9,12.2,2.7c0.6,0.2,1.1,0.7,1.7,0.8l0.2,0.1l-0.1-0.2c-1-3.1-1.7-6.4-1.7-9.8v-0.1c0-0.2,0-0.4,0-0.7     c0-3.8,0.8-7.4,1.9-10.8L89.1,84.1z"/>
			<path id="Fill-12" class="st4" d="M52.6,87.7c-0.4-0.5-0.7-1-0.8-1.7l0-0.2l0.2,0.1c0.7,0.4,1.4,0.6,2.2,0.6     c1.6,0,3.2-0.8,4.4-1.6l0.1,0l0,0.1l0,0L58.5,85l0.1-0.1l0,0l0,0c-0.2,1.6-0.7,3.4-2.4,4c-0.3,0.1-0.5,0.1-0.7,0.1     C54.3,89.2,53.3,88.5,52.6,87.7"/>
			<path id="Fill-14" class="st4" d="M92.3,87.1c-0.4-0.5-0.6-1.1-0.7-1.8l0-0.2l0.2,0.1c0.8,0.7,1.9,1,3,1c1.3,0,2.6-0.4,3.6-1     l0.2-0.1l-0.1,0.2c-0.5,1.4-1.7,2.9-3.3,3.2c-0.1,0-0.3,0-0.4,0C93.7,88.5,92.8,88,92.3,87.1"/>
			<path id="Fill-16" class="st4" d="M94.2,89.2c0.2,0,0.4,0.1,0.6,0.1c0.6,0,1.1-0.2,1.7-0.3l0.2-0.1l-0.1,0.2     c-2.1,5.2-4.6,10.3-7.2,15.3l-0.1,0.2l-0.1-0.2c-0.5-1.4-0.7-3-0.7-4.6c0-1.2,0.1-2.3,0.2-3.5c0.4-3.4,1.2-6.6,2.2-9.8l0.1-0.2     l0.1,0.2C91.7,87.8,92.8,89,94.2,89.2"/>
			<path id="Fill-18" class="st4" d="M61.1,104.4c-3.2-4.8-5.6-9.9-7.9-15.1l-0.1-0.2l0.2,0.1c0.6,0.3,1.5,0.6,2.3,0.6     c0.5,0,1.1-0.1,1.5-0.4c1-0.7,1.6-1.8,2-3l0.1-0.2l0.1,0.2c1.7,3.5,2.6,7.8,2.6,12c0,2-0.2,4-0.6,5.9l0,0l0,0L61.1,104.4     L61.1,104.4z"/>
			<path id="Fill-20" class="st4" d="M63.9,120.6L63.9,120.6L63.9,120.6c-3.2-3.6-4.5-8.1-4.6-12.9v0l0,0c4.2-3.1,9.9-4.7,15.5-4.7     c3.7,0,7.3,0.7,10.5,2.2c2,0.9,4,1.9,5.8,3.3l-0.1,0.1l0.1-0.1l0,0l0,0c-0.5,4.5-2.2,8.6-5,12.1l0,0l0,0c-3.4,1.3-7.4,2-11.4,2     C70.8,122.6,67.1,121.9,63.9,120.6"/>
			<path id="Fill-22" class="st4" d="M120.5,73c0,0-2-0.8-2.5-1c-5.5-2.1-12.5-3.3-18.4-3.5C99,62,98.2,57.8,96.9,54.1l0-0.1l-0.1,0     c-3.1-0.2-16.7-0.7-22-0.7c-5.3,0-18.7,0.8-21.7,1l-0.1,0l0,0.1c-1.2,3.6-2.6,8-3.3,14.6c-6,0.4-14.1,2.1-19.6,4.2     c-0.4,0.1-0.7,0.3-0.9,0.4c-0.1,0.1-0.2,0.1-0.2,0.1c0,0,0,0,0,0l-0.2-0.2l0.1,0.3c0,0,0,0,0,0c0.8,0.9,3.9,4.6,9.6,4.8     c0.1,0,0.2,0,0.3,0c1.9,0,5-0.4,7.1-1.3c0.5-0.2,1.5-0.6,1.8-0.7c0.1,0.2,0.4,0.8,0.6,1.2c0.6,1.7,1.3,4.1,1.9,5.2     c0.8,1.6,2.1,2.9,4.2,2.9h0.1c1.9,0,3.2-1.5,3.4-1.8l0.1-0.1l-0.2,0c-5.3-0.3-7.4-3.1-7.8-7.3l0-0.1l-0.1,0     c-0.6-0.1-1-0.2-1.3-0.3c-0.2-0.1-0.4-0.3-0.4-0.6c0-0.1-0.1-0.3-0.1-0.4c0-0.5,0.2-1.1,0.6-1.7c0.4-0.5,1-1.1,2.2-1.1     c0.5,0,1.1,0.1,1.8,0.3c1.6,0.5,3,1.6,3.9,2.4c1.1,1,4.3,4.3,6.2,5.4c1.1,0.7,2.9,1.3,4.6,1.3c1.4,0,2.8-0.4,4-1.5     c2.5-2.4,2.8-4.5,3.1-5.8l0-0.1l-0.1,0c-4.2-0.1-8.3-0.5-11.9-1c-0.4-0.1-0.6-0.2-0.6-0.4c0-0.2,0.2-0.4,0.5-0.4     c0.1,0,0.1,0,0.2,0c0,0,7,0.9,11.9,1h0.1l0-0.1c0-0.6,0-1.6,0.1-2.7l0-0.1l-0.1,0c-2.9-0.1-7.8-0.4-12.4-1.3     c-0.4-0.1-0.6-0.3-0.6-0.5c0-0.2,0.1-0.4,0.4-0.4c0.1,0,0.1,0,0.2,0c0.7,0.2,8.2,1.2,12.3,1.2h0l0.1,0v-0.1c0-0.9,0-2.1,0-3.3     v-0.1h-0.1h-0.3c-2.6,0-6.5-0.3-11.9-1.1c-0.4-0.1-0.6-0.3-0.6-0.5c0-0.2,0.2-0.4,0.5-0.4c0,0,0.1,0,0.1,0c0,0,6.6,1,11.8,1     c0.1,0,0.2,0,0.4,0h0.1v-0.1c0-0.8,0-1.7,0-2.7v0c0-0.5,0.2-0.7,0.4-0.7c0.2,0,0.4,0.2,0.4,0.6c0,0.4,0,1.4,0,2.6v0.1v0.1l0.1,0     c5-0.2,9.4-0.7,11.5-1.1c0.1,0,0.2,0,0.3,0c0.4,0,0.5,0.2,0.5,0.3c0,0.2-0.1,0.4-0.3,0.4c-0.7,0.1-6.5,1.2-12,1.4h-0.1l0,0.1     c0,1,0,2.2,0.1,3.3l0,0.1l0.1,0c3.7-0.1,8-0.3,11.7-1.1c0.2,0,0.3-0.1,0.5-0.1c0.4,0,0.6,0.2,0.6,0.3c0,0.2-0.2,0.4-0.7,0.5     c-3.6,0.6-8.8,1.2-12,1.2h-0.1l0,0.1c0,0.9,0,2,0.1,2.7l0,0.1h0.1c5.9-0.1,11.5-1,12.5-1.1c0.1,0,0.1,0,0.2,0     c0.4,0,0.5,0.2,0.5,0.4c0,0.2-0.2,0.4-0.6,0.5c-1,0.1-8,1-12.4,1.2l-0.1,0l0,0.1c0.4,1.5,0.5,3.7,2.7,5.6c1.1,0.9,2.5,1.3,4,1.3     c1.5,0,3-0.4,4.2-1.1c2-1.1,5-4.5,6.1-5.5c0.9-0.8,3-2.7,5.8-2.7c0,0,0.1,0,0.1,0c1.4,0,2.1,0.4,2.5,0.8c0.4,0.4,0.4,0.9,0.5,1.1     c0.1,0.2,0.1,0.4,0.1,0.6c0,0.3-0.1,0.7-0.5,0.9c-0.5,0.3-0.9,0.2-1.5,0.5l0,0l0,0c-0.4,2.3-1.1,5-2.9,6.3     c-1,0.7-2.2,1.2-3.3,1.4C92.8,84,92,84,92,84l-0.2,0l0.1,0.1c0,0,0.4,0.5,0.6,0.6c0.3,0.3,1.2,0.7,2.4,0.7c0.1,0,0.3,0,0.4,0     c1.3-0.1,2.8-1.1,3.5-1.8c1-1.3,1.9-3.9,2.5-5.6c0.2-0.6,0.8-1.6,1-2.2c0.5,0.3,0.9,0.4,1.9,0.8c2.1,0.9,4.8,1.2,6.7,1.2     c0.1,0,0.2,0,0.3,0c3-0.1,6.3-1.9,8.4-3.8c0.4-0.3,1-1.1,1-1.2l0.1-0.1L120.5,73z"/>
			<path id="Fill-24" class="st3" d="M78,109.5c-0.3,0.5-0.5,1.1-0.5,1.7c0,1,0.4,2,0.9,2.8c0,0,0.1,0.1,0.1,0.1     c0.1,0,0.1,0,0.2-0.1V114c0-0.6-0.4-1.1-0.4-1.7c0-0.1,0-0.3,0.1-0.5l0.1-0.2l0.1,0.2c0.6,1,1.5,1.6,2.5,1.9     c0.4,0.1,0.8,0.1,1.1,0.1c1.3,0,2.5-0.6,3.4-1.6c0.4-0.6,0.7-1.3,0.7-2c0-0.3-0.1-0.7-0.2-1c-0.6-1.2-1.9-1.9-3.1-2.1     c-0.2,0-0.4,0-0.6,0C80.6,107.1,78.9,107.9,78,109.5"/>
			<path id="Fill-26" class="st3" d="M71,114.5c0.1,0,0.2-0.1,0.3-0.3c0.5-0.7,0.8-1.7,0.8-2.7c0-0.6-0.1-1.2-0.5-1.8l0.1,0l-0.1,0     c-0.5-1-1.5-1.7-2.5-2c-0.6-0.2-1.1-0.3-1.7-0.3c-1.4,0-2.7,0.5-3.6,1.7c-0.3,0.4-0.5,1-0.5,1.5c0,0.3,0,0.6,0.1,0.9     c0.5,1.3,1.7,2.3,2.9,2.5c0.3,0.1,0.6,0.1,0.8,0.1c1.5,0,2.8-0.7,3.7-2l0.1-0.1l0.1,0.1c0,0.1,0.1,0.2,0.1,0.3     c0,0.3-0.1,0.5-0.1,0.7c0,0.4-0.3,0.7-0.3,0.9c0,0.1,0,0.2,0.1,0.3C70.9,114.5,70.9,114.5,71,114.5"/>
			<path id="Fill-28" class="st3" d="M64.2,119.4c3.3-1.4,7.1-2.2,11-2.2c2.9,0,5.8,0.5,8.4,1.4c0.7,0.3,1.3,0.5,2,0.7     c0.2-0.2,0.2-0.3,0.4-0.5c-3.2-1.6-6.9-2.3-10.7-2.3c-4,0-8,0.8-11.4,2.3C64,119.2,64.1,119.3,64.2,119.4"/>
			<path id="Fill-30" class="st3" d="M67.1,95.4c1.9,2.4,4.9,3.5,7.8,3.5c1.1,0,2.2-0.1,3.3-0.4c5-1.4,7.9-6.8,9-11.5     c-0.1-0.1-0.3-0.2-0.5-0.2c-0.6,2.8-1.8,5.5-3.6,7.8c-2.1,2.6-5.2,3.8-8.2,3.8c-1.1,0-2.2-0.2-3.2-0.5c-4.5-1.4-6.9-6.4-7.3-10.9     c-0.2,0-0.3,0-0.5,0.1C64.2,90.2,65.1,93,67.1,95.4"/>
			<path id="Fill-32" class="st5" d="M30.2,48.7c2.6,5,7.8,6.6,13.2,6.4c3,0,5.8-0.3,8.8-0.5l0,0.2c-1.5,4.2-2.5,8.5-3.1,13     c-7.7,0.3-15.6-0.3-21.3-5.5c-3.9-3.9-4.8-9.3-4-14.6c0.9-1.1,1.9-2,2.8-3.1C27.8,45.8,29.8,46.9,30.2,48.7"/>
			<path id="Fill-34" class="st5" d="M126.2,46.5c0.2,0.8,0.2,1.5,0.3,2.3c0.4,5.9-2.2,11.4-7.3,14.4c-5.5,3.3-12,4.5-18.8,4.7     c-0.1-0.6-0.2-1.4-0.3-2.1c-0.5-3.9-1.3-7.9-2.4-11.6c7.3-0.1,16.1,1.8,20.9-4.8c0.6-0.9,1.3-1.8,1.8-2.8     c1.1-0.5,2.1-1.2,3.2-1.7C124.6,45.3,125.3,46,126.2,46.5"/>
			<path id="Fill-36" class="st5" d="M98.5,76.5c0,2.3-0.7,4.6-2.7,5.7c-1,0.5-2.1,0.7-3.1,0.7c0-0.2-0.1-0.4,0-0.7     c1.7,0.1,3.3-0.6,4.1-1.9c0.6-1,0.8-2.2,0.9-3.4C97.9,76.7,98.2,76.6,98.5,76.5"/>
			<path id="Fill-38" class="st5" d="M57.4,82.7c-0.3,0.1-0.4,0.1-1,0c-2.7,0-5.5-2.1-5.3-5.8c0.3-0.1,0.7-0.1,1,0     c0,2.1,0.8,4.9,5.2,4.9C57.6,82.3,57.3,82.4,57.4,82.7"/>
			<rect id="Rectangle" y="0" class="st6" width="150" height="150"/>
		</g>
	</g>
</g>
</svg>