<svg xmlns="http://www.w3.org/2000/svg" xmlns:xlink="http://www.w3.org/1999/xlink" version="1.1" id="katman_1" x="0px" y="0px" style="enable-background:new 0 0 560 400;" xml:space="preserve" viewBox="116 36 328 328">
<style type="text/css">
	.st0{fill-rule:evenodd;clip-rule:evenodd;fill:#FFC627;}
	.st1{fill-rule:evenodd;clip-rule:evenodd;fill:#8B2332;}
	.st2{fill-rule:evenodd;clip-rule:evenodd;fill:#0D2240;}
	.st3{fill-rule:evenodd;clip-rule:evenodd;fill:#FFFFFF;}
</style>
<path class="st0" d="M280.1,36C370,36.2,443.9,110.1,444,200c0,90.4-73.6,164-163.9,164H280c-90,0-164-74-164-164  c0-43.5,17.3-85.2,48.1-116C194.7,53.2,236.6,35.9,280.1,36"/>
<path class="st1" d="M280.1,351c83.1,0,150.8-67.6,150.8-151c0-83.1-67.6-150.9-150.8-150.9c-83.3-0.1-151,67.6-151,150.8  C129.1,283.2,196.8,351,280.1,351"/>
<path class="st2" d="M140.3,199.9c0-77,62.7-139.6,139.7-139.6c76.6,0,139.7,63.1,139.7,139.7c0,76.6-63.1,139.7-139.7,139.7  C203,339.7,140.3,277,140.3,199.9"/>
<path class="st0" d="M390,141.5l3.1-1.7l-10-15.6l-2.8,2C363.3,104.6,333,80.6,304.1,77c21.7,9.9,46.2,35.3,61.1,54.8l-15.7,11.4  l1.9,2.9l-70.8,46l-70.8-46l1.9-2.9l-15.7-11.4c15-19.5,39.4-44.9,61.2-54.8c-28.8,3.6-59.1,27.6-76.1,49.1l-3-2.1l-10,15.5l3.1,1.8  l-0.1,0.2c-12.5,24.5-21.6,62.3-12.7,90c-0.2-23.9,12.6-56.8,24.2-78.7l16.9,9.5l1.7-2.7l65.8,41.3l-86.8,56.4l-0.2-0.2l-11.6,3.1  l0.2,0.3c-0.6,2.1,0.5,6.1,3,10c2.5,3.9,5.6,6.5,8,7l0.2,0.3l7.7-9.3l-0.1-0.2l172.8-108.7l1.7,2.7l17-9.5  c11.6,21.9,24.4,54.9,24.3,78.7C411.8,203.9,402.5,166,390,141.5"/>
<path class="st0" d="M381.1,257.2l-0.2,0.2l-79.8-51.8l-13.9,8.3l86.7,54.5l-0.1,0.2l7.7,9.3l0.2-0.3c2.3-0.4,5.4-3,8-7  c2.4-3.9,3.5-7.8,3-10l0.2-0.3L381.1,257.2L381.1,257.2z M294.2,90.9l-6,7.9L279.9,79v91.6l27.9-35.8l28,7.3L294.2,90.9z"/>
<path class="st3" d="M294.2,112.4V90.9l-6,7.9L294.2,112.4L294.2,112.4z M279.9,79l-50.6,61.7l22.3-5.7l28.3,35.6V79L279.9,79z"/>
<path class="st0" d="M250.2,309.9c7.1-6.9,16.3-11.1,26.2-12.1v-13.7h-37.8C239.3,293.8,243.5,302.9,250.2,309.9 M276.3,322.6v-16.2  c-7.3,0.9-14.2,4.1-19.7,9C262.5,319.4,269.3,321.9,276.3,322.6"/>
<path class="st3" d="M284.8,238.5v16.2c7.3-0.8,14.2-4,19.6-9C298.5,241.7,291.8,239.3,284.8,238.5 M310.8,251.3  c-7.1,6.8-16.3,11-26.1,12v12.5h37.7C321.3,266.5,317.3,257.9,310.8,251.3 M276.3,254.7v-16.2c-7,0.7-13.8,3.2-19.6,7.2  C262.2,250.7,269,253.8,276.3,254.7"/>
<path class="st0" d="M284.8,284.1v13.7c9.8,0.9,19,5.2,26.1,12.1c6.8-6.9,11-16.1,11.7-25.7L284.8,284.1L284.8,284.1z"/>
<path class="st3" d="M238.6,275.7h37.7v-12.5c-9.8-1-19-5.2-26.2-12C243.8,257.9,239.7,266.5,238.6,275.7"/>
<path class="st0" d="M284.8,322.6c7-0.7,13.8-3.2,19.6-7.2c-5.4-5-12.3-8.2-19.6-9V322.6L284.8,322.6z"/>
</svg>