<svg xmlns="http://www.w3.org/2000/svg" xmlns:xlink="http://www.w3.org/1999/xlink" version="1.1" id="layer" x="0px" y="0px" style="enable-background:new -153 -46 652 652;" xml:space="preserve" viewBox="-82 25 500 500">
<style type="text/css">
	.st0{fill:#1D428A;}
	.st1{fill:#FDB927;}
</style>
<g>
	<path class="st0" d="M418,275c0,138.1-111.9,250-250,250S-82,413.1-82,275S29.9,25,168,25S418,136.9,418,275"/>
	<path class="st1" d="M331.5,111.5C287.8,67.8,229.8,43.8,168,43.8S48.2,67.8,4.5,111.5C-39.2,155.2-63.3,213.2-63.3,275   s24.1,119.8,67.7,163.5c43.7,43.7,101.7,67.7,163.5,67.7s119.8-24.1,163.5-67.7c43.7-43.7,67.7-101.7,67.7-163.5   S375.2,155.2,331.5,111.5 M13.3,120.3C54.6,79,109.6,56.3,168,56.3S281.4,79,322.7,120.3c41.3,41.3,64.1,96.3,64.1,154.7   c0,31.4-6.6,61.8-19.1,89.7c-26.5-8.9-52.6-19-78.2-30.4c-3.4-1.5-6.7-3-10.1-4.5l-10-4.7l-5-2.4l-4.9-2.5l-9.9-4.9   c-3.3-1.7-6.5-3.4-9.8-5.1l-4.9-2.6c-1.6-0.9-3.2-1.8-4.8-2.7l-9.7-5.3l-9.5-5.5c-25.4-14.9-49.8-31.4-72.9-49.7   c-11.5-9.1-22.7-18.7-33.3-28.9c-5.3-5.1-10.5-10.3-15.5-15.6c-1.3-1.3-2.5-2.7-3.7-4c-1.2-1.4-2.4-2.7-3.6-4.1   c-1.2-1.4-2.4-2.8-3.5-4.2c0-0.1-0.1-0.1-0.1-0.2c-0.4-16.1-0.7-25.7-0.7-25.7l-11-2.6v14.7h-9.3v-15.4l-11.7,2.8l0.1,5.6l-5.5,3   c0.1,4.6,0.3,10.6,0.3,17.7c-4.4,7.8-52.9,91.5-89.2,117.3c-1.3-9.8-2-19.8-2-29.9C-50.8,216.6-28,161.6,13.3,120.3 M300.6,382.3   l-22.5,0.8l-18.3-47.6l3.6,1.8l10,5c3.4,1.6,6.8,3.2,10.1,4.8c1,0.5,1.9,0.9,2.9,1.3L300.6,382.3z M295.2,352.5   c9.1,4.1,18.2,8.1,27.4,11.9l7.6,16.9l-22.6,0.8L295.2,352.5z M271.2,383.3l-23,0.8l-24-68c1.5,0.9,3,1.8,4.5,2.6l4.9,2.7   c3.3,1.8,6.5,3.7,9.8,5.4l7.6,4L271.2,383.3z M241.4,384.3l-20.6,0.7l-30-89.4c4.6,3,9.2,5.9,13.8,8.8l9.6,5.9l1.3,0.8L241.4,384.3   z M214,385.2l-21.6,0.7l-35.5-114c8.2,6.1,16.6,12.1,25.1,17.8L214,385.2z M185.7,386.1l-20.8,0.7l-42.2-142.4c3,2.6,6,5.2,9,7.7   c5.3,4.4,10.8,8.8,16.3,13L185.7,386.1z M158.2,387.1l-22.9,0.8L84.9,207.6c4.4,4.9,8.9,9.6,13.6,14.3c4.9,4.9,9.9,9.6,15,14.3   L158.2,387.1z M128.6,388l-19.9,0.7L81,282.9c-0.9-27.3-1.6-52.5-2.2-72.8L128.6,388z M102.1,388.9l-17.2,0.6   c-1.1-25.2-2-51.6-2.9-77.2L102.1,388.9z M344.7,404.1c-1.5,2-3,4-4.5,6l-254.3-5l-0.1-2.4L344.7,404.1z M337.2,381l-5.8-13.1   c9.6,3.9,19.3,7.6,29.1,11.2c-0.2,0.4-0.4,0.7-0.6,1.1L337.2,381z M66.6,221.1v13.5H56.4v12.5h10.2v13.5H56.4V273h10.2l0,25.2H56.4   v12.5h10.2l0,26H56.4v12.5h10.2l0,40.9l-9.4,0.3l0-190.3h9.3v8.5H56.4v12.5H66.6z M-31.6,364.8l28.5-96.1   c11.5-15.3,24.2-34.6,37.6-58.7l-51.1,182.5C-22.3,383.6-27.3,374.3-31.6,364.8 M-35.6,355.3c-5-12.8-8.9-26-11.4-39.7   c8.1-6.4,19.5-16.9,33-33.2L-35.6,355.3z M40.5,212.5c0,19.3-0.3,42.6-0.8,67.5L10.4,392l-20.3,0.7L40.5,212.5z M39.1,308.1   c-0.7,27.8-1.7,56.4-3.1,83.1l-18.8,0.6L39.1,308.1z M0.2,415.3l34.4,1.2c-0.7,10.6-1.4,20.7-2.3,30.1c-6.6-5.2-12.9-10.9-19-16.9   C8.7,425.1,4.3,420.3,0.2,415.3 M168,493.8c-27.3,0-53.8-5-78.5-14.4c-1-15-2-32.8-2.9-52.4l-20-6.8l0,48.8   c-3.2-1.7-6.3-3.4-9.4-5.3l0-46.4l9.4,0.3v0.3l10.2,0.1l18.4,0.7l230.2,8.2c-0.9,1-1.8,1.9-2.8,2.8   C281.4,471,226.4,493.8,168,493.8"/>
</g>
</svg>