<svg xmlns="http://www.w3.org/2000/svg" xmlns:xlink="http://www.w3.org/1999/xlink" version="1.1" id="layer" x="0px" y="0px" style="enable-background:new -153 -46 652 652;" xml:space="preserve" viewBox="-101.3 25 537.91 500">
<style type="text/css">
	.st0{fill:#BEC0C2;}
	.st1{fill:#0A203F;}
	.st2{fill:#FCB521;}
</style>
<path class="st0" d="M394.5,94c-36.7-44.3-89.6-68.9-148.8-69l-237,0l-110,499.8L101,525l29-121c27.2,0,98.6,0,98.6,0  c67.8,0.5,123.4-22.5,160.8-66.4C457.4,263.6,445.5,155.5,394.5,94"/>
<path class="st1" d="M119.7,390.9l-29,120.9L-85,511.9L19.2,38.2l226.4,0.1c56.4,0.1,104.7,23,138.7,64.1  c50.2,60.6,55.1,161.3-4.9,226.7c-36.8,43.2-90.8,62.2-150.7,61.7L119.7,390.9z"/>
<path class="st2" d="M-4.1,143.4l99.2,0.1c11.4,0,23.5,9.6,18.3,24.1c-3.2,9-5.7,19.3-6.9,29.1c-0.9,7.6,7.6,12.4,12.5,12.4  l202.2,0.1c3.8,0,5.8-1.1,5.8-2.9c0-1.8-0.2-8.5-0.9-13.2c-0.7-4.5-1.4-5.2-5.1-5.2c-25.2,0-35.5-11.3-61.9-28.3  c-26.4-17-65.2-26.8-98.5-26.9l-162.3-0.1L-4.1,143.4z"/>
<path class="st2" d="M118.4,274.4c-3.5-7.5-6.7-16.4-8.7-24.6c-2.5-10.5-11.4-19-26.6-19l-106.4-0.1l2.6-11.9l344.9,0.2  c3.4,0,2.7,1.4,2.5,5.2c-0.2,3.8-1.1,10.9-1.6,15c-0.5,4.2-4,3.2-7.3,3.2c-7.8,0.2-22.2,2-30.6,8.3c-14.3,10.7-44.8,29.6-61.9,35.1  c-18.4,5.9-87.1,26.9-107.2-11.9"/>
<path class="st2" d="M-42.4,317.5l180.1,0.1c8,0,14.8,1.9,20.1,6.3c15.2,12.5,35,21.7,55.9,27.7c9.4,2.7,25.6-0.8,40-9  c36.1-20.4,59.3-59.2,66.9-84.1c2-6.5-1.8-6-6.9-5.6c-15.2,1.1-31.2,14.8-52.2,28.2c-21,13.4-63.7,26-104.3,26L-40.1,307  L-42.4,317.5z"/>
<path class="st2" d="M221.8,76.3c2.5-0.5,11.6-1,16.7,1c34.2,13.5,66.6,49.1,80.1,86.9c2.6,7.3,3.2,12,0,12.3  c-15.7,1.7-23-6-41.4-18.5c-18.5-12.5-35.5-21-58.8-28.5c-23-7.3-65-8.4-70.4-8.6c-5.4-0.2-4.7-2.5-2.4-4.8  C165.7,96.2,192.8,81.6,221.8,76.3"/>
<path class="st2" d="M386,206.1c0.1,1.4-1.4,3.1-3.2,3.1c-0.2,0-39.5,0-39.5,0c-5.1,0-5.2-2.4-5.3-5.3c-0.2-2.9-1-8.7-1.2-12.1  c-0.2-3.3-1.4-7.2,3.1-9c11-4.6,21.4-15.4,26.1-24.6c1.6-3.1,4-8.2,6.7-3.9C382,169.2,384.9,187.6,386,206.1"/>
<path class="st2" d="M371.9,277c-0.7,1.3-3.2,2.3-4,0.2c-5.8-15.4-19.4-26-28.8-31.2c-2.9-1.6-3.1-3.4-2.7-6.2  c0.4-2.8,1.6-11.8,1.7-15.6c0.1-3,1.3-5.2,3.6-5.2l41.1,0c1.4,0,3.3,1.3,3.3,2.4C386,241,380.1,260.3,371.9,277"/>
<path class="st2" d="M265,354.2c-2.9,0.4-9.2-0.6,0.7-6.4c29.9-17.4,56.5-58.1,63.6-81.5c2.7-8.9,3-9.4,6.4-8.4  c4.6,1.3,11.8,7.5,17.3,15.1c5.5,7.6,7.9,22.4,4.7,26.7C336.3,328.5,302.1,348.7,265,354.2"/>
<path class="st2" d="M341,169.7c-7,3.7-8.3,3-9.8-2.2c-13-45.5-51.3-79.2-66.9-89.2c-3-1.9-2.2-3.1-0.1-2.9  c37.5,5,74.2,25.4,92.7,53.4C367.4,144.9,347.7,166.1,341,169.7"/>
</svg>