<svg xmlns="http://www.w3.org/2000/svg" xmlns:xlink="http://www.w3.org/1999/xlink" version="1.1" id="layer" x="0px" y="0px" style="enable-background:new -153 -46 652 652;" xml:space="preserve" viewBox="-97.7 41.9 531.4 500.1">
<style type="text/css">
	.st0{fill:#707271;}
	.st1{fill:#12173F;}
	.st2{fill:#5D76A9;}
	.st3{fill:#FFBB22;}
</style>
<path class="st0" d="M394.4,156.8c6.5-12.2,9.5-24.4,9.5-36c0-26.6-14.8-50.4-35.7-64.6c-29-19.8-72.5-22.5-103.3,14.3  c-44.9-6.1-82.6,6.2-96.9,12.1c-14.3-5.9-52-18.3-96.9-12.1C40.3,33.8-3.2,36.5-32.2,56.3c-20.8,14.2-35.7,38-35.7,64.6  c0,11.7,3.1,23.9,9.5,36c-23.2,33.5-39.3,73.3-39.3,113.8c0,48.8,20.8,73.9,28.7,84.7l6.3-6.3c22,56.1,59.8,86.3,105.4,113.8  c0,0,1-5.5,1.9-10.5C93.6,494.8,117,484.3,168,542c50.8-57.5,74.8-47.6,123.4-89.7c0.9,5,1.9,10.5,1.9,10.5  c20.3-12.3,77.5-42.9,105.4-113.8l6.3,6.3c4.8-6.6,28.7-33.2,28.7-84.7C433.7,230.1,417.6,190.3,394.4,156.8"/>
<path class="st1" d="M380.3,157.5C427.1,85.7,321,10.9,269.6,83.3C217.6,74,173.9,93,168,95.7c-5.9-2.8-49.6-21.7-101.6-12.5  C15,10.9-91.1,85.7-44.3,157.5c-53.3,73.2-47.9,145.4-23.2,179.4l10.2-10.2c0,0,14.5,70.6,91.3,116.9l2.8-15.2  c47.3,50.5,90.5,49.4,131.2,95.5c40.8-46.1,83.9-45,131.2-95.5l2.8,15.2c76.8-46.4,91.3-116.9,91.3-116.9l10.2,10.2  C428.4,302.8,433.7,230.8,380.3,157.5"/>
<path class="st2" d="M168.5,426.1c0,0-36.9,0.6-42.3,4c0,0-6.3,11,42.3,10.8c46.3-0.2,39.5-8.6,39.8-9.9  C208.3,431,192.6,426.1,168.5,426.1"/>
<path class="st2" d="M136.5,383.3c0,0,5.8-16.7,11.9-11.4c8.5,7.3,19.6,22.2,19.6,23.7v19.8l-13.4,0.7c-7.7,0.2-32.6,6.2-32.6,6.2  c-34.3-84.9-15.3-149.2-6.1-172.1c-34,7.4-39.5-33.4-39.5-33.4c3.5-0.7,8.7,0.8,14.6,3.6c9.1,4.4,19.8,11.7,28.3,18.3l0,0  c2.5,2,4.9,3.9,6.9,5.6c23.1,19.4,41.9,15.5,41.9,15.5V343C168,343,100.6,337.7,136.5,383.3"/>
<path class="st2" d="M199.7,383.3c42.9-43.5-27.1-41-31.5-40.3C175.4,343.4,229.6,343.7,199.7,383.3"/>
<path class="st2" d="M228.2,251.6c38.6,104-10.3,170.9-10.6,171.3c30.4-79.6,10.9-145.8-2.4-170.4c-5,0.4-10,0.5-15,0.3  c0,0,10.3-6.3,16.9-12.4c0.5-0.4,1-0.9,1.5-1.4c5.5-4.9,16.1-13.5,28.9-18.5l0,0c4.7-1.9,9.7-3.2,14.8-3.7  C262.3,216.8,258.6,251,228.2,251.6"/>
<path class="st2" d="M289.4,117c0,0,15.8-39.4,64-29.9c0,0-44.3-29.2-75.2,23.6c0,0-44.3-20.8-110.2,7.8c0,0-62-21.8-109.2-9.5  c0,0-27.5-47.7-66.2-28.1s-18.5,65.1-11.8,76.9c0,0-64.1,65.4-40,146.2l12.9-16.1c0,0,18.4,88,66,115.7l2.9-21.6  c0,0,49.6,59.9,108,85.3c5.5,2.6,36.5,18,37.4,25.6v-41.9c0,0-40.5,3.4-51.2-15.3C109.6,422.9,63,339.8,86,252.8  c0,0-22.4-3.3-26.6-41.1c-11.8-5.1-24.6-7.4-37.5-6.5c0,0,37.1-11.7,72,1.8s44.1,47.7,67.7,32.6l6.5-96.6l7.1,96.6  c23.6,15.1,32.9-19.1,67.7-32.6s72-1.8,72-1.8S299.9,194.8,276,190c-19.9-4-49.2,8.8-49.2,8.8s4-27.4,17.3-42  C255.6,144.3,281.4,141.5,289.4,117z M-10.8,150.2C-12.2,137.1,4.4,124,4.4,124c-6.8-7.1-18.8-0.9-18.8-0.9  c10.8-21.2,35.2-10.8,35.2-10.8C11.5,101-8,101.7-8,101.7c24.1-23.9,53.3,12.6,53.3,12.6C19.4,120.2-10.8,150.2-10.8,150.2z"/>
<path class="st3" d="M119.2,238.8c-3.7-1.2-9.9,2.7-13.3,9.4c-11.5-3.3-15.5-15.8-15-27.7l0,0C100,224.8,110.7,232.2,119.2,238.8"/>
<path class="st3" d="M232.5,248.1c-3.6-7-10.2-10.9-13.9-9.2c5.5-4.9,16.1-13.5,28.9-18.5l0,0C248,232.4,244,244.8,232.5,248.1"/>
</svg>