<svg xmlns="http://www.w3.org/2000/svg" version="1.1" viewBox="1388 188.86 1624.48 1704.67">
<path d="M0 0 C6.64586984 -0.17792092 12.9673657 0.86771309 19.48046875 2.12109375 C18.12837908 5.12185254 16.60486686 7.26428288 14.3203125 9.625 C13.69560059 10.27815186 13.07088867 10.93130371 12.42724609 11.60424805 C11.76418457 12.29043213 11.10112305 12.97661621 10.41796875 13.68359375 C5.14840647 19.20878318 0.12387391 24.77859921 -4.58984375 30.7890625 C-6.51953125 33.12109375 -6.51953125 33.12109375 -9.0703125 35.58203125 C-23.92710083 50.98380544 -24.16909404 77.95116045 -23.83203125 98.0078125 C-23.16298525 118.22136478 -19.11532678 138.37135472 -15.62646484 158.26318359 C-12.87883679 174.05074461 -11.12080209 189.64591544 -11.20703125 205.68359375 C-11.20885406 206.3975531 -11.21067688 207.11151245 -11.21255493 207.84710693 C-11.30695193 229.88803662 -16.19239163 248.63739708 -26.51953125 268.12109375 C-27.19053746 269.45224847 -27.8593765 270.78452429 -28.51953125 272.12109375 C-5.25339924 248.34208108 12.84431382 218.97850642 15.515625 185.328125 C15.64099892 183.84272469 15.64099892 183.84272469 15.76890564 182.32731628 C16.03231942 179.19649725 16.28806894 176.06511642 16.54296875 172.93359375 C16.80274081 169.79148542 17.06417158 166.64952808 17.32774353 163.50773621 C17.49053054 161.5623972 17.65094952 159.61685808 17.80860901 157.6710968 C18.21299591 152.7880841 18.72692992 147.96290211 19.48046875 143.12109375 C40.59896482 158.27131919 47.77850621 189.72289176 51.79296875 213.74609375 C53.65368685 225.07400265 54.63779615 236.21301134 54.578125 247.6953125 C54.57671005 248.74515823 54.5752951 249.79500397 54.57383728 250.87666321 C54.56829755 254.18733732 54.55575678 257.49794053 54.54296875 260.80859375 C54.53794594 263.07096256 54.53338441 265.33333244 54.52929688 267.59570312 C54.51834796 273.10419033 54.50167121 278.61263697 54.48046875 284.12109375 C55.24738037 283.46955322 56.01429199 282.8180127 56.80444336 282.14672852 C62.70791929 277.16047837 68.64652391 272.4065696 75.04296875 268.05859375 C81.80481942 263.36665125 88.23638524 258.49276998 94.48046875 253.12109375 C95.35316406 252.3940625 96.22585938 251.66703125 97.125 250.91796875 C108.21117929 241.41078051 116.09673693 229.71285307 117.71243286 215.01025391 C118.64750446 199.36285109 115.79639489 184.00492064 113.25012207 168.63079834 C112.47323377 163.9302101 111.71295929 159.22700678 110.9611969 154.52233887 C110.56252534 152.03242029 110.15558392 149.54380813 109.73936462 147.0567627 C109.55910233 145.94039429 109.37884003 144.82402588 109.19311523 143.67382812 C109.03101059 142.69490601 108.86890594 141.71598389 108.70188904 140.70739746 C108.48694004 138.19668181 108.69807652 136.4960478 109.48046875 134.12109375 C114.51012621 139.67153318 119.34014065 145.34734876 124.05859375 151.1640625 C126.68373524 154.36927557 129.35784715 157.52870289 132.04296875 160.68359375 C136.6248206 166.08484223 141.14301358 171.51990634 145.48046875 177.12109375 C145.88201172 177.63269043 146.28355469 178.14428711 146.69726562 178.67138672 C168.25828102 206.30353013 185.97612409 241.87329737 181.79296875 277.80859375 C179.21283998 294.53432362 172.04876923 307.08851365 160.48046875 319.12109375 C159.79210938 319.86101562 159.10375 320.6009375 158.39453125 321.36328125 C145.92081443 334.3934464 130.31112057 344.57431347 115.57421875 354.8515625 C98.27952987 366.55196703 98.27952987 366.55196703 88.67578125 384.421875 C88.17846803 387.32059793 87.77205314 390.19519521 87.48046875 393.12109375 C88.08238541 393.1695343 88.68430206 393.21797485 89.30445862 393.2678833 C95.59010566 393.82763198 101.65487803 394.84092556 107.8203125 396.16796875 C108.79889725 396.37502945 109.77748199 396.58209015 110.78572083 396.79542542 C113.99825301 397.47929226 117.20834944 398.17368921 120.41796875 398.87109375 C121.53393433 399.11274261 122.6498999 399.35439148 123.79968262 399.60336304 C196.17323464 415.33515524 267.80002963 435.74748808 335.48046875 466.12109375 C336.52444824 466.58628418 337.56842773 467.05147461 338.64404297 467.53076172 C353.98958507 474.38893814 368.87929373 481.7939959 383.48046875 490.12109375 C384.25745117 490.56195312 385.03443359 491.0028125 385.83496094 491.45703125 C406.61040103 503.2928452 427.0629215 516.66565863 444.48046875 533.12109375 C445.80908671 534.27239133 447.14231593 535.41839253 448.48046875 536.55859375 C457.00475462 544.01948782 464.56596085 552.1547679 471.48046875 561.12109375 C472.28355469 562.1575 473.08664062 563.19390625 473.9140625 564.26171875 C494.36941659 591.36466246 504.26679948 623.8103382 499.9765625 657.75390625 C495.77828092 684.61267647 481.45975681 709.17303872 463.48046875 729.12109375 C462.58537371 730.13752462 461.69083837 731.15444866 460.796875 732.171875 C450.16157998 744.15255227 438.27273021 754.51151845 425.48046875 764.12109375 C424.80387207 764.63285156 424.12727539 765.14460937 423.43017578 765.671875 C412.54051276 773.86716271 401.26149822 781.12836492 389.47021484 787.95800781 C387.80739495 788.92999235 386.16637175 789.93914089 384.53125 790.95703125 C382.48046875 792.12109375 382.48046875 792.12109375 380.48046875 792.12109375 C380.15046875 793.11109375 379.82046875 794.10109375 379.48046875 795.12109375 C376.98144531 796.63232422 376.98144531 796.63232422 373.62109375 798.23828125 C373.01395035 798.53147751 372.40680695 798.82467377 371.78126526 799.12675476 C369.76937686 800.0941733 367.75045902 801.04572023 365.73046875 801.99609375 C364.31322951 802.67014331 362.89615812 803.34454589 361.47924805 804.01928711 C357.84552772 805.74406821 354.20417262 807.45196597 350.55877686 809.1519165 C348.6216286 810.05526669 346.68598377 810.96176822 344.75048828 811.86865234 C255.49645418 853.47756673 157.93388885 877.43399416 -4.25430298 903.90447998 C-7.01090392 904.30040951 -9.76546463 904.70791771 -12.51953125 905.12109375 C-14.12945953 905.35795143 -14.12945953 905.35795143 -15.77191162 905.59959412 C-16.84523743 905.76572708 -17.91856323 905.93186005 -19.02441406 906.10302734 C-20.49047089 906.32604019 -20.49047089 906.32604019 -21.98614502 906.55355835 C-25.44920373 907.32936126 -27.33405861 908.76361245 -29.76953125 911.30859375 C-30.57519531 912.11554687 -31.38085938 912.9225 -32.2109375 913.75390625 C-32.97277344 914.53507812 -33.73460938 915.31625 -34.51953125 916.12109375 C-35.90384399 917.3220039 -37.29894978 918.51064297 -38.70703125 919.68359375 C-42.71526338 923.19678526 -46.1422697 927.0037948 -49.51953125 931.12109375 C-50.33164063 932.095625 -51.14375 933.07015625 -51.98046875 934.07421875 C-82.3274469 971.12807829 -98.94275058 1019.1312268 -98.60131836 1067.01977539 C-98.59671852 1068.5642334 -98.59671852 1068.5642334 -98.59202576 1070.13989258 C-98.58491645 1072.36048744 -98.57555104 1074.58107603 -98.56413078 1076.80165291 C-98.5465192 1080.35299729 -98.53636783 1083.90429519 -98.5282135 1087.45567322 C-98.50398499 1097.54918824 -98.46892313 1107.6426419 -98.42358398 1117.73608398 C-98.30292575 1145.59724785 -98.19083008 1173.34026724 -100.51953125 1201.12109375 C-100.5977713 1202.08663177 -100.67601135 1203.0521698 -100.75662231 1204.04696655 C-101.20191843 1209.43560621 -101.73333627 1214.81001019 -102.33203125 1220.18359375 C-102.41601166 1220.95617523 -102.49999207 1221.72875671 -102.58651733 1222.52474976 C-107.28099851 1265.53966446 -116.27777563 1306.97719075 -128.37573242 1348.50610352 C-130.22121911 1354.90133587 -131.82352169 1361.34120995 -133.39453125 1367.80859375 C-148.99879074 1431.19610938 -179.02843264 1492.74167775 -222 1542.19921875 C-224.44989468 1545.04033692 -226.8016647 1547.94149897 -229.14453125 1550.87109375 C-232.58895003 1555.108959 -236.23720747 1558.98530914 -240.18359375 1562.7578125 C-242.14964569 1564.74687842 -243.95651834 1566.77242139 -245.7734375 1568.89453125 C-249.54039239 1573.23601233 -253.618858 1577.15475775 -257.83203125 1581.05859375 C-258.58331299 1581.75879639 -259.33459473 1582.45899902 -260.10864258 1583.18041992 C-262.24176115 1585.16483939 -264.38031789 1587.14325033 -266.51953125 1589.12109375 C-267.45539062 1589.99507812 -268.39125 1590.8690625 -269.35546875 1591.76953125 C-275.55812404 1597.47762267 -282.13773396 1602.65069019 -288.80957031 1607.79199219 C-290.33866316 1608.98051038 -291.84846128 1610.19375628 -293.35546875 1611.41015625 C-317.04996391 1630.30083595 -343.55360924 1645.48108558 -370.51953125 1659.12109375 C-371.38030273 1659.55953613 -372.24107422 1659.99797852 -373.12792969 1660.44970703 C-422.00397145 1685.17310768 -476.99992034 1698.99475112 -531.51953125 1703.12109375 C-532.53007568 1703.20568848 -532.53007568 1703.20568848 -533.56103516 1703.29199219 C-607.48810222 1709.36425189 -683.23839446 1694.8335912 -750.51953125 1664.12109375 C-751.99864153 1663.45820751 -753.47780452 1662.79543884 -754.95703125 1662.1328125 C-773.63989157 1653.65651187 -791.41155245 1643.41723469 -808.51953125 1632.12109375 C-809.55883789 1631.43515137 -809.55883789 1631.43515137 -810.61914062 1630.73535156 C-827.93733597 1619.22579494 -844.58718395 1606.49006974 -859.9375 1592.45703125 C-861.33172622 1591.19568892 -862.73184252 1589.94016707 -864.1628418 1588.72070312 C-870.15417903 1583.59838598 -875.74010794 1578.08664899 -881.30981445 1572.51611328 C-882.94529007 1570.88281927 -884.58860833 1569.25770905 -886.23242188 1567.6328125 C-892.04564147 1561.85021301 -897.48436225 1555.95259037 -902.59985352 1549.52880859 C-904.21022759 1547.50903126 -905.85440715 1545.55041793 -907.56640625 1543.6171875 C-915.5639956 1534.58480329 -922.65085137 1525.03278403 -929.51953125 1515.12109375 C-930.08430176 1514.30753418 -930.64907227 1513.49397461 -931.23095703 1512.65576172 C-943.65093008 1494.65503872 -955.14784321 1475.94612535 -964.53466797 1456.171875 C-965.60968884 1453.93335855 -966.72138506 1451.71517814 -967.8359375 1449.49609375 C-989.32566604 1406.22749905 -1001.49264398 1358.88710421 -1007.51953125 1311.12109375 C-1007.70854004 1309.62376709 -1007.70854004 1309.62376709 -1007.90136719 1308.09619141 C-1020.19966042 1205.82329296 -993.2900919 1099.63325424 -917.51953125 986.9296875 C-911.53063587 979.30556659 -905.39984449 971.86181954 -898.85546875 964.703125 C-897.59029034 963.30465856 -896.33120225 961.9000572 -895.1081543 960.46459961 C-890.07766025 954.57985638 -884.65832131 949.10758407 -879.17700195 943.64819336 C-877.58494159 942.06149429 -875.99830135 940.46951633 -874.41210938 938.87695312 C-868.95443705 933.41533955 -863.42488536 928.10184287 -857.51953125 923.12109375 C-856.47497436 922.22038372 -855.43068866 921.31935905 -854.38671875 920.41796875 C-847.13135203 914.24238246 -839.74588953 908.27195194 -832.21191406 902.43994141 C-830.61388768 901.19462425 -829.03102928 899.92991342 -827.44921875 898.6640625 C-818.64282777 891.69327475 -809.31823557 885.60406586 -799.83740234 879.59130859 C-798.28894457 878.60912904 -796.74498587 877.61982119 -795.20556641 876.62353516 C-794.49062012 876.1651123 -793.77567383 875.70668945 -793.0390625 875.234375 C-792.40718018 874.82614502 -791.77529785 874.41791504 -791.12426758 873.99731445 C-789.51953125 873.12109375 -789.51953125 873.12109375 -787.51953125 873.12109375 C-787.51953125 872.46109375 -787.51953125 871.80109375 -787.51953125 871.12109375 C-788.66019043 871.00121094 -789.80084961 870.88132812 -790.97607422 870.7578125 C-795.50689648 870.18821348 -799.81411651 869.13094345 -804.21484375 867.93359375 C-805.03153534 867.71559616 -805.84822693 867.49759857 -806.68966675 867.272995 C-809.34307728 866.56215426 -811.99397601 865.84250352 -814.64453125 865.12109375 C-816.01859131 864.74895248 -816.01859131 864.74895248 -817.42041016 864.36929321 C-867.59595734 850.76844153 -916.85893991 834.50500356 -963.94140625 812.32324219 C-967.96287901 810.44807818 -972.02127394 808.65915307 -976.08203125 806.87109375 C-978.20716319 805.92830881 -980.3315053 804.9837689 -982.45556641 804.03857422 C-983.85026932 803.41859627 -985.24580073 802.80047927 -986.64208984 802.18408203 C-988.68909878 801.27698727 -990.72984463 800.35701505 -992.76953125 799.43359375 C-993.9296875 798.91410156 -995.08984375 798.39460937 -996.28515625 797.859375 C-999.79149691 795.97492863 -1002.48833385 793.68963471 -1005.51953125 791.12109375 C-1007.57368863 789.88380984 -1009.65938475 788.69776704 -1011.76953125 787.55859375 C-1031.26348556 776.7201548 -1050.30099407 763.44374983 -1066.51953125 748.12109375 C-1067.84814921 746.96979617 -1069.18137843 745.82379497 -1070.51953125 744.68359375 C-1098.63693209 720.07379623 -1120.21722548 686.26635041 -1123.29467773 648.45361328 C-1125.06812375 619.56111076 -1116.0686382 591.63602378 -1099.51953125 568.12109375 C-1098.43671875 566.57808594 -1098.43671875 566.57808594 -1097.33203125 565.00390625 C-1091.91011455 557.54877079 -1085.9005896 550.75108806 -1079.51953125 544.12109375 C-1078.73739258 543.30608398 -1078.73739258 543.30608398 -1077.93945312 542.47460938 C-1070.86336802 535.14306993 -1063.57906346 528.37961318 -1055.51953125 522.12109375 C-1054.01132813 520.92226562 -1054.01132813 520.92226562 -1052.47265625 519.69921875 C-1028.88327969 501.07219716 -1002.34172478 486.49749169 -975.51953125 473.12109375 C-974.67261719 472.69634766 -973.82570313 472.27160156 -972.953125 471.83398438 C-921.32111664 446.1041772 -865.09585494 428.9005483 -809.51953125 414.12109375 C-808.36602173 413.81362213 -808.36602173 413.81362213 -807.18920898 413.49993896 C-710.78931788 387.86730975 -611.32442625 373.5250267 -320.51953125 357.12109375 C-320.20822266 355.52007813 -320.20822266 355.52007813 -319.890625 353.88671875 C-314.60439959 327.82598306 -304.31995877 302.94424807 -287.51953125 282.12109375 C-287.06642578 281.55664551 -286.61332031 280.99219727 -286.14648438 280.41064453 C-259.04085405 247.01197177 -223.58846828 224.25741206 -183.51953125 209.12109375 C-181.98014893 208.53932373 -181.98014893 208.53932373 -180.40966797 207.94580078 C-164.24521007 201.95849963 -147.90714849 197.92781209 -131.07159424 194.39877319 C-107.53580033 190.64740565 -107.53580033 190.64740565 -88.51953125 178.12109375 C-82.49690367 163.67867433 -91.16713143 145.21388443 -95.7421875 131.3515625 C-114.27875768 75.16258414 -114.27875768 75.16258414 -103.7734375 51.5546875 C-91.68709515 28.09739378 -69.06392209 15.81029235 -44.79467773 7.85498047 C-30.14128571 3.27601107 -15.31953827 0.73628789 0 0 Z M-431.96484375 511.63671875 C-433.10190765 511.69227936 -434.23897156 511.74783997 -435.41049194 511.80508423 C-518.61351917 515.92052695 -601.43051041 523.6790177 -683.51953125 538.12109375 C-684.89534363 538.36312531 -684.89534363 538.36312531 -686.2989502 538.61004639 C-820.0640247 561.04487142 -820.0640247 561.04487142 -945.51953125 639.12109375 C-949.6330581 645.86104154 -951.38662111 652.218189 -950.51953125 660.12109375 C-945.23193402 680.44330481 -924.3355586 694.42480253 -907.24780273 704.55517578 C-860.35940757 731.63374067 -807.84788378 747.37972699 -755.51953125 760.12109375 C-754.63843689 760.33594421 -753.75734253 760.55079468 -752.84954834 760.77215576 C-664.10562701 783.21164887 -664.10562701 783.21164887 -583.4609375 787.3203125 C-582.75356445 786.92593994 -582.04619141 786.53156738 -581.31738281 786.12524414 C-580.21088379 785.4735022 -580.21088379 785.4735022 -579.08203125 784.80859375 C-578.29924805 784.3592749 -577.51646484 783.90995605 -576.70996094 783.44702148 C-541.37308555 762.83859567 -508.28080763 735.09254358 -497.27001953 694.30786133 C-494.00735936 681.56613489 -491.99991807 668.60727718 -490.1484375 655.59765625 C-484.96651501 619.30416144 -484.96651501 619.30416144 -479.51953125 603.12109375 C-479.1642334 602.04263184 -479.1642334 602.04263184 -478.80175781 600.94238281 C-469.7168515 573.81228536 -454.14962575 550.688745 -434.51953125 530.12109375 C-433.75898438 529.31929687 -432.9984375 528.5175 -432.21484375 527.69140625 C-427.32574576 522.66311686 -422.11142104 518.21838938 -416.609375 513.87109375 C-415.91972656 513.29359375 -415.23007813 512.71609375 -414.51953125 512.12109375 C-414.51953125 511.79109375 -414.51953125 511.46109375 -414.51953125 511.12109375 C-420.34634074 511.03890323 -426.14725423 511.3497696 -431.96484375 511.63671875 Z M91.48046875 547.12109375 C90.98417969 547.82234375 90.48789063 548.52359375 89.9765625 549.24609375 C84.30312543 557.16952768 78.36972258 564.23183992 71.48046875 571.12109375 C81.71046875 573.10109375 91.94046875 575.08109375 102.48046875 577.12109375 C99.38671875 579.00828125 99.38671875 579.00828125 96.23046875 580.93359375 C83.60013601 588.94624258 74.19049429 599.06950837 65.48046875 611.12109375 C64.44019531 612.54615234 64.44019531 612.54615234 63.37890625 614 C51.72663983 631.03214262 52.20253775 652.59848317 51.45141602 672.48217773 C50.25727499 703.20416959 42.90648011 729.6194651 20.21875 751.6875 C4.59480068 765.57297849 -15.13822167 774.16609951 -34.26953125 781.99609375 C-36.9420246 783.09567812 -39.61304066 784.19848655 -42.28106689 785.30886841 C-43.91891447 785.99002674 -45.55934746 786.6650162 -47.20281982 787.33248901 C-51.69432566 789.19481921 -55.56838457 791.28145255 -59.51953125 794.12109375 C-56.1727436 795.18941514 -53.55051246 795.06721551 -50.07910156 794.64306641 C-48.97661575 794.51149643 -47.87412994 794.37992645 -46.73823547 794.24436951 C-44.93614876 794.01705894 -44.93614876 794.01705894 -43.09765625 793.78515625 C-41.83547775 793.6309169 -40.57329926 793.47667755 -39.27287292 793.31776428 C-35.82403374 792.89445857 -32.3767249 792.45978621 -28.92982101 792.0210228 C-26.76206743 791.74514387 -24.59407781 791.4711797 -22.42605591 791.19741821 C71.38739026 779.31792426 168.61186501 763.18189763 255.48046875 724.12109375 C256.50462891 723.66057617 257.52878906 723.20005859 258.58398438 722.72558594 C282.88534309 711.6886544 310.14133614 697.55533333 324.48046875 674.12109375 C325.09921875 673.13109375 325.71796875 672.14109375 326.35546875 671.12109375 C329.20444845 663.52381456 328.92479225 657.25792478 325.828125 649.7734375 C323.58409387 645.35692406 320.79599172 641.78496435 317.48046875 638.12109375 C316.72121094 637.26902344 315.96195313 636.41695312 315.1796875 635.5390625 C263.53288544 580.75740144 162.53485033 560.7115368 91.48046875 547.12109375 Z " fill="#140C0D" transform="translate(2511.51953125,188.87890625)"/>
<path d="M0 0 C0.95329067 0.00011959 1.90658134 0.00023918 2.88875961 0.0003624 C107.9276957 0.01691838 212.86900218 6.79149814 355.75 28.1875 C358.12230477 28.60078349 360.4946973 29.01356357 362.8671875 29.42578125 C368.58319663 30.42563539 374.29327348 31.45528984 380.00097656 32.50146484 C382.6403745 32.98444923 385.28020607 33.46416214 387.92089844 33.93994141 C411.2600067 38.15245414 434.35590884 43.12131133 457.42144775 48.63287354 C459.70891385 49.17771389 461.99749469 49.7175527 464.28662109 50.25537109 C481.04000439 54.1918666 497.66649368 58.38588403 514.13720703 63.39794922 C516.55414697 64.12831586 518.97603652 64.83665022 521.40234375 65.53515625 C538.6857996 70.54525476 555.71981641 76.38530105 572.75 82.1875 C574.51778809 82.78933105 574.51778809 82.78933105 576.32128906 83.40332031 C627.71826349 101.0451953 680.04173771 124.23860864 722.75 158.1875 C723.72710938 158.95320312 724.70421875 159.71890625 725.7109375 160.5078125 C744.03322797 175.155145 760.22926511 191.61137267 771.75 212.1875 C772.25402344 213.02152344 772.75804688 213.85554687 773.27734375 214.71484375 C781.0975242 228.08063693 783.92927076 242.04392979 783.9375 257.375 C783.94974609 258.55642578 783.96199219 259.73785156 783.97460938 260.95507812 C784.02740884 292.72275371 765.79732954 318.09596186 744.75 340.1875 C744.13511719 340.84363281 743.52023437 341.49976563 742.88671875 342.17578125 C737.92066413 347.33147041 732.36350731 351.76258342 726.75 356.1875 C726.12802734 356.68056641 725.50605469 357.17363281 724.86523438 357.68164062 C688.31895063 386.54146158 645.90054079 407.20004008 602.75 424.1875 C601.0489209 424.86232422 601.0489209 424.86232422 599.31347656 425.55078125 C580.02052178 433.17350292 560.44689079 439.68037892 540.67773438 445.93798828 C537.53277457 446.93506353 534.39663495 447.95589722 531.265625 448.99609375 C519.67211477 452.8228603 507.87275074 455.81081879 496.04414368 458.80815125 C489.93413901 460.35710381 483.86259834 461.98384068 477.8125 463.75 C466.29807882 467.05623181 454.52005661 469.37372173 442.81129456 471.87872314 C438.47029383 472.8097891 434.13730595 473.77079338 429.80859375 474.7578125 C417.39208373 477.58824866 404.9482333 480.18798128 392.4375 482.5625 C391.74269531 482.69600861 391.04789063 482.82951721 390.33203125 482.96707153 C388.35142941 483.34618584 386.369098 483.71622974 384.38671875 484.0859375 C383.24936279 484.29911621 382.11200684 484.51229492 380.94018555 484.73193359 C375.27237344 485.54131122 371.30434406 485.32414641 366.0625 483 C365.13050781 482.59394531 364.19851563 482.18789062 363.23828125 481.76953125 C361.29566831 480.88850299 359.35699944 479.9980472 357.43554688 479.07177734 C349.7135076 475.41540033 341.77194299 472.70878261 333.625 470.1875 C332.92879547 469.97061523 332.23259094 469.75373047 331.51528931 469.53027344 C318.42726511 465.47684199 305.29991305 462.30186065 291.75 460.1875 C290.9338623 460.05907715 290.11772461 459.9306543 289.27685547 459.79833984 C262.54681297 455.81584758 235.04517164 457.29625014 209.20703125 465.19921875 C205.75 466.1875 205.75 466.1875 202.75 466.1875 C203.85531637 461.06813996 206.28642686 456.77007849 208.75 452.1875 C209.27265945 451.17119507 209.79531891 450.15489014 210.33381653 449.10778809 C215.02867424 440.9508446 215.02867424 440.9508446 219.58358765 438.9309082 C222.96007827 438.28959643 226.20385052 438.00885132 229.63671875 437.84375 C230.88838333 437.73703979 232.14004791 437.63032959 233.42964172 437.52038574 C236.76040542 437.24527034 240.08721137 437.01794339 243.42266846 436.81530762 C248.00858493 436.52440734 252.58793841 436.13949195 257.1685791 435.77645874 C259.77460605 435.57114096 262.38114951 435.37227811 264.98815918 435.17984009 C277.61700256 434.21773524 290.07222221 432.48044695 302.59913635 430.63290405 C306.63679973 430.06214256 310.68155823 429.57793208 314.7328186 429.11486816 C330.79252255 427.27701434 346.68251509 424.3908248 362.59222412 421.56964111 C364.83937036 421.17167255 367.08687264 420.77576845 369.33447266 420.38037109 C370.83886824 420.11556587 372.3432628 419.85075486 373.84765625 419.5859375 C374.52972641 419.46597412 375.21179657 419.34601074 375.91453552 419.22241211 C415.99205751 412.15576423 455.74013813 403.82019397 494.75 392.1875 C496.5988896 391.64039268 498.4478457 391.09351 500.296875 390.546875 C508.17806495 388.20895616 516.03925124 385.83973506 523.8203125 383.18359375 C526.03849597 382.42941137 528.26378103 381.69607422 530.4921875 380.97265625 C536.6158728 378.98415047 542.62308415 376.94073171 548.46484375 374.2109375 C551.2499677 372.96358284 554.08285546 371.89115028 556.9375 370.8125 C593.39372838 356.89823186 639.56418962 335.79409683 656.75 298.1875 C661.50221394 287.45172923 661.3249222 273.7428422 657.72265625 262.66796875 C654.5254198 254.51437378 650.40419538 247.86243247 644.75 241.1875 C644.10417969 240.39601563 643.45835938 239.60453125 642.79296875 238.7890625 C630.25848607 224.04534818 612.78162296 213.04571116 595.75 204.1875 C594.38053536 203.44841844 593.01212712 202.70737757 591.64453125 201.96484375 C584.89864838 198.31827952 578.24637581 194.75200575 571.046875 192.0703125 C568.51178502 191.09594118 566.08240417 189.96849782 563.625 188.8125 C557.15432704 185.83028373 550.49721282 183.39132129 543.81008911 180.94651794 C541.87063517 180.23194675 539.93812143 179.50108252 538.00585938 178.76733398 C533.95339922 177.2468182 529.86879048 175.84545628 525.76171875 174.48046875 C525.01904251 174.23259109 524.27636627 173.98471344 523.51118469 173.72932434 C521.94414409 173.20675204 520.37685403 172.68492725 518.80932617 172.16381836 C516.48086299 171.3894216 514.15346449 170.61189089 511.82617188 169.83398438 C507.13894802 168.27032625 502.44640438 166.7233554 497.75 165.1875 C496.96669312 164.93114777 496.18338623 164.67479553 495.37634277 164.41067505 C483.72219941 160.61464883 472.00521262 157.26103963 460.125 154.25 C459.29393738 154.03783844 458.46287476 153.82567688 457.60662842 153.60708618 C440.74980405 149.31291356 423.79985647 145.62313726 406.75 142.1875 C404.47257384 141.72175695 402.19522634 141.25562908 399.91796875 140.7890625 C378.05093519 136.3434949 356.11360678 132.53526936 334.0625 129.125 C330.7797895 128.61445335 327.49720079 128.10312857 324.21461487 127.59178162 C322.07439235 127.25881583 319.93404297 126.92666439 317.79356384 126.59535217 C313.06445599 125.86297997 308.33674788 125.12472053 303.61352539 124.35522461 C292.62428476 122.56855334 281.62682382 121.11192738 270.5625 119.875 C269.65137451 119.77244904 268.74024902 119.66989807 267.80151367 119.5642395 C219.21291106 114.12325303 170.55687199 110.0477959 121.75 107.1875 C120.26116302 107.10015594 120.26116302 107.10015594 118.74224854 107.01104736 C112.66237205 106.65703449 106.58176302 106.3199375 100.5 106 C99.45656937 105.9444696 99.45656937 105.9444696 98.39205933 105.88781738 C94.0683434 105.66172194 89.7439747 105.46746431 85.41781616 105.29437256 C83.53491576 105.21894368 81.65213179 105.14058035 79.7694397 105.06011963 C51.33863433 103.875913 22.88803835 103.9448579 -5.5625 103.9375 C-7.51946871 103.93639536 -7.51946871 103.93639536 -9.51597214 103.9352684 C-56.81325796 103.91357176 -104.01159648 104.77161014 -151.25 107.1875 C-152.44677368 107.24786438 -153.64354736 107.30822876 -154.87658691 107.37042236 C-169.01977468 108.0914945 -183.13610691 109.02921788 -197.25 110.1875 C-198.8399881 110.31705078 -198.8399881 110.31705078 -200.46209717 110.44921875 C-288.77606231 117.67656963 -377.15891145 128.695399 -463.25 150.1875 C-465.06733643 150.63971924 -465.06733643 150.63971924 -466.92138672 151.10107422 C-474.71866684 153.05332316 -482.49195918 155.08489952 -490.25 157.1875 C-491.6719165 157.57059326 -491.6719165 157.57059326 -493.12255859 157.96142578 C-548.99204168 173.17549113 -628.6717933 195.39014501 -659.6875 248.65625 C-666.49258246 261.45628605 -668.3970589 274.34980815 -664.1875 288.3125 C-659.3965141 302.95239397 -649.23505211 315.66995862 -637.25 325.1875 C-636.33992188 325.93386719 -635.42984375 326.68023438 -634.4921875 327.44921875 C-603.22030695 352.41186024 -564.73257051 367.37866676 -527.25 380.1875 C-526.28449219 380.52120605 -525.31898438 380.85491211 -524.32421875 381.19873047 C-512.35262725 385.33248545 -500.2955968 389.04336912 -488.08544922 392.40625 C-486.13293128 392.94422636 -484.18149058 393.48612272 -482.23095703 394.03125 C-466.7257758 398.36119932 -451.15607326 402.12979683 -435.41650391 405.50537109 C-432.49766173 406.13414866 -429.58230076 406.7764687 -426.66796875 407.42578125 C-399.41781047 413.47836605 -372.06448713 418.71107503 -344.50938416 423.15821838 C-336.74185779 424.41899647 -328.9958583 425.80072393 -321.25 427.1875 C-322.78341459 430.25432918 -325.15439416 430.55019508 -328.30078125 431.8046875 C-328.93358505 432.05773148 -329.56638885 432.31077545 -330.21836853 432.57148743 C-332.32962427 433.41088394 -334.44551717 434.23766133 -336.5625 435.0625 C-337.29295532 435.34928619 -338.02341064 435.63607239 -338.77600098 435.93154907 C-353.92502114 441.86500425 -369.3009874 447.01944466 -384.76370239 452.06439209 C-414.553053 459.2878543 -414.553053 459.2878543 -440.25 473.1875 C-446.80104591 472.70100196 -452.97714072 471.4458251 -459.33984375 469.859375 C-460.28324112 469.62849182 -461.22663849 469.39760864 -462.19862366 469.159729 C-464.18849728 468.67151188 -466.17770176 468.18056016 -468.16625977 467.68701172 C-471.14641291 466.94769292 -474.12862558 466.21723826 -477.11132812 465.48828125 C-488.88574149 462.59754455 -500.59853446 459.53982756 -512.25 456.1875 C-512.99216766 455.97411987 -513.73433533 455.76073975 -514.49899292 455.54089355 C-534.03122048 449.90470502 -553.44727358 443.94204082 -572.6875 437.375 C-573.45453247 437.11477051 -574.22156494 436.85454102 -575.01184082 436.58642578 C-584.60010281 433.32326114 -593.99873855 429.74325239 -603.33081055 425.80639648 C-607.38599814 424.10650723 -611.49693456 422.57491109 -615.625 421.0625 C-620.93129306 419.10319104 -626.11435948 416.99265138 -631.234375 414.5859375 C-633.58801692 413.49448179 -635.94728233 412.44329229 -638.328125 411.4140625 C-648.25662543 407.10853427 -657.8315852 402.37238317 -667.33691406 397.20288086 C-669.1828901 396.22311895 -671.04885633 395.30520552 -672.9296875 394.39453125 C-678.87261461 391.44402913 -684.54808834 388.01089992 -690.25 384.625 C-691.14723282 384.09285385 -691.14723282 384.09285385 -692.06259155 383.54995728 C-731.58232408 360.05967808 -774.73856263 327.60141648 -787.79345703 281.25830078 C-794.10303444 256.33954272 -789.26085532 231.12040435 -776.40478516 209.08544922 C-771.20222783 200.53477677 -765.15063912 192.72893529 -758.32421875 185.4140625 C-756.43675832 183.38797504 -754.65379289 181.30853095 -752.875 179.1875 C-733.81220262 157.42014098 -707.14688798 141.26341789 -682.25 127.1875 C-681.30769531 126.65318359 -680.36539062 126.11886719 -679.39453125 125.56835938 C-669.06284362 119.74004718 -658.72269792 114.27924989 -647.77734375 109.69921875 C-644.50077204 108.29497373 -641.35348445 106.76054841 -638.1875 105.125 C-627.66161876 99.76972709 -616.46561264 95.84499346 -605.39453125 91.77734375 C-602.21722403 90.58836008 -599.10898079 89.27267261 -595.9921875 87.93359375 C-587.33371743 84.30642429 -578.44596276 81.3334803 -569.5625 78.3125 C-568.65404327 78.0024704 -567.74558655 77.6924408 -566.80960083 77.37301636 C-553.3233899 72.7797673 -539.8189346 68.5912686 -526.04345703 64.9453125 C-522.20152174 63.90306751 -518.39000485 62.76661162 -514.57543945 61.62890625 C-479.68925818 51.23666359 -444.19562206 43.32172815 -408.45043945 36.53295898 C-407.04247721 36.2654794 -405.63451816 35.997983 -404.2265625 35.73046875 C-403.54437653 35.60108414 -402.86219055 35.47169952 -402.15933228 35.33839417 C-397.84451705 34.51323428 -393.55186589 33.61231966 -389.26171875 32.66796875 C-381.36269397 30.95408234 -373.41133626 29.61877345 -365.4375 28.3125 C-364.65766754 28.18399658 -363.87783508 28.05549316 -363.07437134 27.9230957 C-357.46807293 26.99982373 -351.8596469 26.09018458 -346.25 25.1875 C-345.55374512 25.07515015 -344.85749023 24.96280029 -344.14013672 24.8470459 C-286.56081621 15.57254788 -228.4252471 9.38591394 -170.25408936 5.32818604 C-168.30085025 5.19106966 -166.34792875 5.04945227 -164.39501953 4.90771484 C-146.7357245 3.63701489 -129.06431433 2.83395263 -111.375 2.125 C-110.38778961 2.08470673 -109.40057922 2.04441345 -108.38345337 2.00289917 C-72.26559601 0.5461372 -36.14489783 -0.02032167 0 0 Z " fill="#FEFEFE" transform="translate(2203.25,570.8125)"/>
<path d="M0 0 C0.87011719 0.02255859 1.74023438 0.04511719 2.63671875 0.06835938 C4.75857251 0.12665206 6.87952629 0.21630916 9 0.3125 C8.98428955 0.89515625 8.9685791 1.4778125 8.95239258 2.078125 C8.47340654 22.64420907 9.39535708 44.44358759 23.6796875 60.67578125 C25 62.3125 25 62.3125 25 64.3125 C25.804375 64.68375 25.804375 64.68375 26.625 65.0625 C29 66.3125 29 66.3125 31.6875 68.25 C42.56234717 75.02113126 56.08581592 74.90763561 68.375 72.1875 C79.70707105 68.81299131 89.36408908 63.71133104 95.75 53.51953125 C103.82536582 38.51410389 103.09745588 22.84719551 99.65625 6.61328125 C99 3.3125 99 3.3125 99 0.3125 C116.03506948 0.20994563 132.99490193 0.15848316 150 1.3125 C149.50767748 9.19907239 148.95819589 17.0763161 148.28125 24.94921875 C148.2179248 25.68786163 148.15459961 26.42650452 148.08935547 27.18753052 C147.82943541 30.20751337 147.56800452 33.22735109 147.30224609 36.24682617 C146.55800424 44.73173739 145.90589666 53.21237052 145.48413086 61.7199707 C145.44125915 62.5847403 145.39838743 63.44950989 145.35421658 64.34048462 C144.96849264 72.43941218 144.74836838 80.53777256 144.5847168 88.64385414 C144.53308613 91.19608094 144.4777889 93.74820772 144.42163086 96.30033875 C144.34169514 99.93697207 144.26277665 103.57362506 144.18460083 107.21029663 C142.28519051 194.95724496 140.29630539 283.84804516 97 380.3125 C96.50129395 381.32908691 96.00258789 382.34567383 95.48876953 383.39306641 C81.54047105 411.57575974 64.50360923 437.39831488 44.43994141 461.56835938 C42.41245602 464.02416737 40.42994304 466.51572868 38.4375 469 C34.50566117 473.81449652 30.33173405 478.37561099 26.07202148 482.89916992 C24.01079192 485.09386778 22.04368113 487.25231491 20.2734375 489.69140625 C19.64308594 490.49384766 19.64308594 490.49384766 19 491.3125 C18.34 491.3125 17.68 491.3125 17 491.3125 C16.690625 492.10914063 16.690625 492.10914063 16.375 492.921875 C14.42038808 496.32023436 11.77876283 498.82305928 9 501.5625 C8.4534375 502.11679688 7.906875 502.67109375 7.34375 503.2421875 C3.2533867 507.3125 3.2533867 507.3125 1 507.3125 C1 507.9725 1 508.6325 1 509.3125 C-0.2578125 510.58203125 -0.2578125 510.58203125 -2.125 512.125 C-6.13995105 515.52882576 -9.97995721 519.08247872 -13.8125 522.6875 C-18.77955434 527.33431178 -23.85576699 531.75418555 -29.1640625 536.01171875 C-32.45240412 538.6795331 -35.66654253 541.42460065 -38.875 544.1875 C-40.06635954 545.21229389 -41.25776582 546.23703344 -42.44921875 547.26171875 C-43.03880371 547.76880371 -43.62838867 548.27588867 -44.23583984 548.79833984 C-50.90732923 554.5244092 -57.61508315 560.20429274 -64.4375 565.75 C-68.62824486 569.15725778 -72.72907613 572.65363786 -76.8125 576.1875 C-82.64072978 581.22198953 -88.62919458 586.01022335 -94.70703125 590.73828125 C-98.53250242 593.71683346 -102.28004593 596.78634311 -106.0234375 599.8671875 C-109.67061639 602.86342633 -113.33505295 605.83804402 -117 608.8125 C-118.38287242 609.93612417 -119.765686 611.05982077 -121.1484375 612.18359375 C-123.42289058 614.0319341 -125.69883125 615.87835155 -127.9765625 617.72265625 C-134.20630077 622.78546715 -140.31875295 627.97385024 -146.3984375 633.21484375 C-148.74782976 635.23994119 -151.1067514 637.2527473 -153.4765625 639.25390625 C-167.51526816 651.09798799 -167.51526816 651.09798799 -180.56762695 663.99584961 C-182 665.3125 -182 665.3125 -184 665.3125 C-184.33 666.3025 -184.66 667.2925 -185 668.3125 C-185.66 668.3125 -186.32 668.3125 -187 668.3125 C-187 668.9725 -187 669.6325 -187 670.3125 C-187.66 670.3125 -188.32 670.3125 -189 670.3125 C-189 670.9725 -189 671.6325 -189 672.3125 C-190.375 673.9375 -190.375 673.9375 -192 675.3125 C-192.66 675.3125 -193.32 675.3125 -194 675.3125 C-194 675.9725 -194 676.6325 -194 677.3125 C-194.66 677.3125 -195.32 677.3125 -196 677.3125 C-196.24621094 677.88871094 -196.49242187 678.46492188 -196.74609375 679.05859375 C-198.20162099 681.6749153 -199.88608731 683.32141836 -202.0625 685.375 C-207.15656877 690.36345012 -211.57623847 695.72996074 -216 701.3125 C-216.86243073 702.37308801 -217.7257393 703.43296269 -218.58984375 704.4921875 C-229.87926693 718.44455754 -239.66361193 733.42212904 -248 749.3125 C-248.32919434 749.92754395 -248.65838867 750.54258789 -248.99755859 751.17626953 C-267.33969526 785.86504961 -273.45826026 825.20021681 -273.3125 864 C-273.31067719 865.0099704 -273.30885437 866.0199408 -273.30697632 867.06051636 C-273.26162488 881.99738814 -272.90282336 896.61267106 -270 911.3125 C-269.83371094 912.18406738 -269.66742187 913.05563477 -269.49609375 913.95361328 C-264.18386707 940.90332621 -253.31962671 967.12953435 -237 989.3125 C-236.60087402 989.85535645 -236.20174805 990.39821289 -235.79052734 990.95751953 C-233.22623902 994.43433811 -230.62705122 997.88273869 -228 1001.3125 C-228.33 1001.9725 -228.66 1002.6325 -229 1003.3125 C-231.23950195 1003.95092773 -231.23950195 1003.95092773 -234.23828125 1004.49609375 C-235.35477051 1004.70016846 -236.47125977 1004.90424316 -237.62158203 1005.11450195 C-238.83958496 1005.32421631 -240.05758789 1005.53393066 -241.3125 1005.75 C-242.56401855 1005.96809326 -243.81553711 1006.18618652 -245.10498047 1006.41088867 C-257.31861582 1008.47244529 -269.55561135 1010.0141235 -281.90332031 1011.02392578 C-284.73633576 1011.28792959 -287.52292881 1011.66859006 -290.3359375 1012.08984375 C-295.00804503 1012.65509466 -298.45410335 1012.71015146 -303 1011.3125 C-307.76873896 1007.4852813 -310.65168534 1002.07643059 -313.58349609 996.81054688 C-314.99901948 994.31422917 -316.51122796 991.91681539 -318.08203125 989.515625 C-324.5030791 979.69881132 -330.43810195 969.63752494 -336 959.3125 C-336.43747559 958.50458008 -336.87495117 957.69666016 -337.32568359 956.86425781 C-371.04640328 894.29866808 -392.89177227 826.92466096 -402.25 756.4375 C-402.40130371 755.29982178 -402.55260742 754.16214355 -402.70849609 752.98999023 C-405.40175641 731.28718128 -406.38100041 709.607262 -406.3125 687.75 C-406.31067719 686.5312619 -406.30885437 685.3125238 -406.30697632 684.05685425 C-406.25826522 664.6284264 -405.56325294 645.58566135 -403 626.3125 C-402.82637739 624.9604855 -402.6530446 623.60843376 -402.47998047 622.25634766 C-398.6777602 592.95093716 -392.41488336 564.35990419 -383 536.3125 C-382.71688965 535.46333008 -382.4337793 534.61416016 -382.14208984 533.73925781 C-371.25981132 501.55370092 -355.10339998 473.97900912 -333.14379883 448.21020508 C-330.14221126 444.68452254 -327.21263333 441.11016597 -324.3125 437.5 C-321.03894793 433.47370601 -317.59185443 429.79165401 -313.87109375 426.1796875 C-312.12259176 424.43483583 -310.52919298 422.63735096 -308.9375 420.75 C-305.20881519 416.42019545 -301.20704832 412.36996411 -297.1875 408.3125 C-296.5164624 407.62857178 -295.8454248 406.94464355 -295.15405273 406.23999023 C-294.51927002 405.60391846 -293.8844873 404.96784668 -293.23046875 404.3125 C-292.37038208 403.44625 -292.37038208 403.44625 -291.49291992 402.5625 C-290 401.3125 -290 401.3125 -288 401.3125 C-288 400.6525 -288 399.9925 -288 399.3125 C-286.70703125 397.97265625 -286.70703125 397.97265625 -284.8125 396.375 C-284.07128906 395.74722656 -283.33007812 395.11945313 -282.56640625 394.47265625 C-281.71949219 393.75980469 -280.87257813 393.04695313 -280 392.3125 C-279.10152344 391.52746094 -278.20304687 390.74242187 -277.27734375 389.93359375 C-263.09864839 377.59918603 -247.88580921 366.35052803 -232 356.3125 C-231.43635742 355.95559082 -230.87271484 355.59868164 -230.29199219 355.23095703 C-198.03334644 334.98390205 -163.06195897 319.57822645 -128.2104187 304.45075989 C-122.53301017 301.98456293 -116.86337692 299.50142956 -111.203125 296.99609375 C-110.47860641 296.6768544 -109.75408783 296.35761505 -109.00761414 296.02870178 C-82.57210932 284.29392805 -60.63722081 266.23214943 -49.25 239.1875 C-39.41548048 211.18412239 -41.07925685 180.01552106 -47 151.3125 C-47.23025879 150.19407715 -47.46051758 149.0756543 -47.69775391 147.92333984 C-49.76605492 138.05347954 -52.03806555 128.23462198 -54.42578125 118.4375 C-54.64951416 117.51557861 -54.87324707 116.59365723 -55.10375977 115.64379883 C-55.51227257 113.97255396 -55.9272869 112.30287307 -56.35131836 110.63549805 C-61.54492675 89.59660602 -63.43083709 64.99173743 -56 44.3125 C-55.649375 43.22195313 -55.29875 42.13140625 -54.9375 41.0078125 C-52.18318051 33.3377978 -48.14249658 28.56519567 -42 23.3125 C-41.15179687 22.57386719 -40.30359375 21.83523438 -39.4296875 21.07421875 C-32.62204687 15.32841128 -25.42584558 10.22126161 -18 5.3125 C-17.39849121 4.86173096 -16.79698242 4.41096191 -16.17724609 3.9465332 C-10.75965143 0.10584313 -6.53712782 -0.32635431 0 0 Z " fill="#98012E" transform="translate(2139,698.6875)"/>
<path d="M0 0 C3.12144418 0.07698437 6.24150801 0.16444932 9.36206055 0.27270508 C10.59867432 0.31532471 11.83528809 0.35794434 13.109375 0.40185547 C26.67376043 0.92786483 40.20440601 1.98068315 53.73706055 3.02270508 C55.41041977 3.15060928 55.41041977 3.15060928 57.11758423 3.28109741 C70.45941244 4.30812644 83.76259802 5.49392021 97.04956055 7.08520508 C95.40782761 11.38433088 93.24114464 15.05643615 90.73706055 18.89770508 C59.05496427 68.65951394 41.01205634 123.91688527 33.04956055 182.08520508 C32.87497314 183.34018799 32.70038574 184.5951709 32.52050781 185.88818359 C30.92174195 197.98907857 30.3017791 210.14469501 29.671875 222.328125 C29.48934297 225.85362142 29.29849051 229.37858819 29.10620117 232.90356445 C28.72619003 239.9628505 28.38099322 247.02348628 28.04956055 254.08520508 C27.99896484 255.13119873 27.94836914 256.17719238 27.89624023 257.25488281 C26.89210957 278.6196159 26.86770524 299.99142962 26.73978329 321.37487888 C26.40542895 375.92725185 25.05190789 429.91466668 18.04956055 484.08520508 C17.93912415 484.94015564 17.82868774 485.7951062 17.71490479 486.67596436 C6.06063509 576.01396682 -18.47439891 665.35603189 -67.95043945 745.08520508 C-68.51472656 745.99947266 -69.07901367 746.91374023 -69.66040039 747.85571289 C-86.32221397 774.79525419 -105.33349593 800.16269023 -126.68481445 823.57348633 C-127.95009851 824.97620641 -129.20899248 826.38501417 -130.44270325 827.81558228 C-134.57304502 832.6045652 -138.87486767 837.15663685 -143.3527832 841.62036133 C-144.03417862 842.30271347 -144.71557404 842.98506561 -145.4176178 843.68809509 C-146.84749686 845.11864944 -148.27861857 846.54796275 -149.7109375 847.97607422 C-151.88241657 850.14219582 -154.04850271 852.31360682 -156.21411133 854.4855957 C-157.61418147 855.88500495 -159.01456184 857.28410391 -160.4152832 858.68286133 C-161.37035011 859.64096458 -161.37035011 859.64096458 -162.3447113 860.61842346 C-166.71934416 864.97072384 -171.26963221 869.06567018 -175.95043945 873.08520508 C-177.06820722 874.05849741 -178.18549424 875.03234254 -179.30200195 876.00708008 C-198.48604305 892.62571223 -218.82140334 908.02539975 -239.95043945 922.08520508 C-241.07820801 922.83833984 -241.07820801 922.83833984 -242.22875977 923.60668945 C-279.4961687 948.41094935 -318.67168325 969.23815023 -360.95043945 984.08520508 C-361.8964502 984.42374512 -362.84246094 984.76228516 -363.81713867 985.11108398 C-366.33628761 986.01172657 -368.86023685 986.89639988 -371.38793945 987.77270508 C-372.10916992 988.02906738 -372.83040039 988.28542969 -373.57348633 988.54956055 C-376.09911847 989.39946169 -378.40006453 990.08823466 -381.0793457 990.07348633 C-384.08865149 988.48402002 -386.20101077 986.08133816 -388.45043945 983.58520508 C-388.97162354 983.01133057 -389.49280762 982.43745605 -390.02978516 981.84619141 C-417.39160218 950.99591713 -429.90166951 913.85613673 -430.95043945 873.08520508 C-431.01231445 871.22702148 -431.01231445 871.22702148 -431.07543945 869.33129883 C-432.20289048 806.26450709 -408.25859594 749.86237074 -366.95043945 703.08520508 C-365.68973633 701.6562793 -365.68973633 701.6562793 -364.40356445 700.19848633 C-357.59624744 692.61989076 -350.39071342 685.42239194 -343.20043945 678.21020508 C-342.70475464 677.71184143 -342.20906982 677.21347778 -341.69836426 676.70001221 C-336.50000727 671.48036634 -331.26441988 666.35093031 -325.66674805 661.55639648 C-323.26848917 659.50064855 -320.95797577 657.35344236 -318.63793945 655.21020508 C-314.19793161 651.15999216 -309.63109664 647.32986386 -304.9543457 643.55786133 C-301.45377981 640.67638121 -298.04755922 637.69809265 -294.63793945 634.71020508 C-289.24732909 629.99735351 -283.741459 625.4915734 -278.08007812 621.10913086 C-274.11589986 618.03103672 -270.26155144 614.85046972 -266.45043945 611.58520508 C-261.5540946 607.39436622 -256.54968558 603.37683803 -251.4621582 599.42114258 C-246.72308004 595.72362005 -242.07868236 591.92024283 -237.45043945 588.08520508 C-232.25603824 583.7810393 -227.02598804 579.53855111 -221.70043945 575.39770508 C-216.54141112 571.38439258 -211.51812658 567.239188 -206.55395508 562.98754883 C-203.49514577 560.37209921 -200.38832452 557.85323817 -197.20043945 555.39770508 C-184.73409319 545.46047379 -173.60145637 533.82801793 -162.32543945 522.58520508 C-161.81051941 522.07296387 -161.29559937 521.56072266 -160.76507568 521.03295898 C-154.93909088 515.23001282 -149.28415278 509.34652073 -143.95043945 503.08520508 C-142.92926193 501.92825846 -141.90585226 500.77327789 -140.88012695 499.62036133 C-133.39419621 491.13784406 -126.3840685 482.38092928 -119.6184082 473.31518555 C-117.92738895 471.05438785 -116.22080979 468.80594686 -114.51293945 466.55786133 C-57.28903998 390.70236621 -30.79981991 300.45472599 -15.35848999 112.68533325 C-14.26439596 93.42189423 -7.93757796 0.34675362 0 0 Z " fill="#98012E" transform="translate(2326.950439453125,701.914794921875)"/>
<path d="M0 0 C0.33 0 0.66 0 1 0 C1.0093457 0.61182129 1.01869141 1.22364258 1.02832031 1.85400391 C1.40778079 21.83520233 4.3652711 40.07125637 9.4682312 59.36300659 C14.55255436 78.59998458 18.32669643 97.08654389 18.4375 117.0625 C18.45296875 118.95258789 18.45296875 118.95258789 18.46875 120.88085938 C18.25777407 143.18570388 10.87712539 164.01279572 -4.9296875 180.12109375 C-24.13148255 198.68365645 -51.54586993 208.85172201 -75.6204834 219.20639038 C-105.66388034 232.13182877 -134.98299565 246.08042594 -163 263 C-163.94601074 263.56928223 -164.89202148 264.13856445 -165.86669922 264.72509766 C-176.27840737 271.01110554 -186.50915906 277.44721402 -196.26806641 284.71240234 C-198.14363478 286.10678458 -200.03060141 287.48491861 -201.91796875 288.86328125 C-210.97090768 295.51681628 -219.60197133 302.53934253 -228 310 C-228.9590625 310.84691406 -229.918125 311.69382812 -230.90625 312.56640625 C-243.80825756 324.17466854 -256.31352023 336.30531825 -267 350 C-268.58011808 351.85690747 -270.16364866 353.71091476 -271.75 355.5625 C-320.62121976 414.26848534 -342.91757 488.1138118 -351 563 C-351.12004395 564.10956055 -351.24008789 565.21912109 -351.36376953 566.36230469 C-354.88922195 601.04939387 -354.72029437 637.35060084 -351 672 C-350.8146167 673.84343994 -350.8146167 673.84343994 -350.62548828 675.72412109 C-343.71355422 743.39405008 -325.28630681 807.64853762 -296 869 C-295.55720703 869.93618164 -295.11441406 870.87236328 -294.65820312 871.83691406 C-285.25812976 891.61947447 -274.28464418 910.8943401 -261.74194336 928.86499023 C-259 932.81159068 -259 932.81159068 -259 935 C-272.08312253 935.39731825 -285.09222123 932.91962717 -298 931 C-299.04462402 930.85046875 -300.08924805 930.7009375 -301.16552734 930.546875 C-303.806815 930.15537173 -306.43338934 929.71548884 -309.0625 929.25 C-309.80999512 929.14204102 -310.55749023 929.03408203 -311.32763672 928.92285156 C-314.1769203 928.36568802 -316.41464007 927.65288955 -318.3840332 925.45629883 C-319.72975663 923.35978375 -320.86839804 921.21935577 -322 919 C-322.96586521 917.28279456 -323.93615752 915.56807396 -324.91015625 913.85546875 C-325.9610993 911.96623583 -327.01187341 910.07690892 -328.0625 908.1875 C-333.56725705 898.37494415 -339.38094418 888.82633238 -345.47851562 879.37353516 C-346.99801933 877.00308987 -348.49413673 874.61940403 -349.984375 872.23046875 C-358.29319751 858.95527471 -367.03599914 845.99257134 -375.82373047 833.03222656 C-383.59016783 821.57689835 -391.31876452 810.0971345 -399.00238037 798.58605957 C-400.1860663 796.81322477 -401.37064089 795.04098291 -402.55621338 793.26940918 C-425.12666369 759.53716017 -447.55128658 724.68351422 -463 687 C-463.37318359 686.09427246 -463.74636719 685.18854492 -464.13085938 684.25537109 C-473.45100583 661.3257813 -479.59701859 637.50856494 -483 613 C-483.11714355 612.16919922 -483.23428711 611.33839844 -483.35498047 610.48242188 C-494.01516234 530.45977874 -469.70178643 448.60544394 -421.5625 384.59765625 C-414.05626128 374.79396646 -405.90554517 365.55401049 -397 357 C-394.47673209 354.49317031 -391.97226117 351.97148345 -389.4921875 349.421875 C-383.32983936 343.13076138 -376.95632311 337.42107474 -370 332 C-369.37319336 331.50741699 -368.74638672 331.01483398 -368.10058594 330.50732422 C-326.55496477 297.91532976 -279.46417815 276.65036196 -229.25 261.125 C-195.86612059 250.78970065 -162.96786215 238.1148306 -132.29785156 221.25634766 C-129.88326252 219.93617392 -127.45475535 218.64454726 -125.0234375 217.35546875 C-93.31745747 200.41657405 -62.17156334 178.24923095 -42 148 C-40.92105469 146.40671875 -40.92105469 146.40671875 -39.8203125 144.78125 C-25.51130445 121.84229546 -22.20948917 93.56727773 -18.38781738 67.34683228 C-14.98500466 44.01314455 -10.89842616 21.22844689 0 0 Z " fill="#98012E" transform="translate(2056,775)"/>
<path d="M0 0 C-3.64207244 3.03166923 -7.40952209 5.57120731 -11.4375 8.0625 C-23.66414964 15.79534524 -34.55244907 25.02869071 -45 35 C-45.80179688 35.76054688 -46.60359375 36.52109375 -47.4296875 37.3046875 C-53.10998257 42.82774257 -58.139539 48.74855181 -63 55 C-63.42539063 55.54366211 -63.85078125 56.08732422 -64.2890625 56.64746094 C-90.70889473 90.65720111 -106.22756502 132.18724952 -110 175 C-110.11085938 176.093125 -110.22171875 177.18625 -110.3359375 178.3125 C-111.65728489 193.16873013 -111.14821531 208.15680325 -110.73828125 223.046875 C-108.99843214 286.84086711 -111.88979287 350.390684 -125 413 C-125.23299805 414.12470703 -125.46599609 415.24941406 -125.70605469 416.40820312 C-137.74516087 473.70008501 -159.51182435 533.27781435 -197 579 C-197.66 579.84949219 -198.32 580.69898438 -199 581.57421875 C-203.18940332 586.95456132 -207.65911744 592.00755126 -212.32006836 596.97875977 C-214.43830223 599.24533466 -216.27305352 601.40958028 -218 604 C-218.66 604 -219.32 604 -220 604 C-220.33 604.99 -220.66 605.98 -221 607 C-221.66 607 -222.32 607 -223 607 C-223 607.66 -223 608.32 -223 609 C-224.3984375 610.41015625 -224.3984375 610.41015625 -226.375 612.0625 C-229.54484167 614.74937105 -232.63410845 617.49398472 -235.6875 620.3125 C-275.1704228 655.78122579 -325.80279874 676.33821713 -377.375 686.375 C-378.66422363 686.62596436 -379.95344727 686.87692871 -381.28173828 687.13549805 C-432.37452809 696.69997762 -488.11098242 682.99058842 -531 654 C-528.47186818 651.47186818 -526.12386392 650.72478735 -522.7890625 649.41796875 C-521.48212766 648.89998976 -520.17533039 648.38166357 -518.86865234 647.86303711 C-518.177453 647.59055145 -517.48625366 647.3180658 -516.77410889 647.037323 C-493.66941715 637.90102538 -471.19346365 627.7002544 -449.55761719 615.43994141 C-447.09536683 614.05369164 -444.61744096 612.70110019 -442.1328125 611.35546875 C-430.72539351 605.10158044 -419.87472963 598.09323766 -409.0625 590.875 C-408.36820892 590.41168274 -407.67391785 589.94836548 -406.95858765 589.4710083 C-380.36925758 571.68705411 -354.91495868 552.53253586 -331.23046875 531.01171875 C-329.15811834 529.14261111 -327.05480175 527.3178013 -324.9375 525.5 C-321.03147304 522.11901943 -317.45557085 518.45102255 -313.8828125 514.72265625 C-312 513 -312 513 -310 513 C-309.67 512.01 -309.34 511.02 -309 510 C-308.34 510 -307.68 510 -307 510 C-307 509.34 -307 508.68 -307 508 C-306.34 508 -305.68 508 -305 508 C-304.67 507.01 -304.34 506.02 -304 505 C-303.34 505 -302.68 505 -302 505 C-301.78730469 504.45859375 -301.57460937 503.9171875 -301.35546875 503.359375 C-299.50972276 500.14660677 -296.96000269 497.79499268 -294.3125 495.25 C-289.64327818 490.66770518 -285.23013001 485.9936597 -281 481 C-280.13117187 480.00871094 -279.26234375 479.01742188 -278.3671875 477.99609375 C-271.01904552 469.58894764 -264.19177873 460.85784276 -257.47705078 451.93994141 C-256.20463657 450.2687673 -254.90016638 448.62208851 -253.58984375 446.98046875 C-205.46433174 386.63784563 -173.24051147 312.35071569 -153.56640625 238.13366699 C-153.01267264 236.04773815 -152.45187565 233.96379951 -151.890625 231.87988281 C-142.94778901 198.40757952 -139.527219 164.08760855 -136.39526367 129.66577148 C-133.00920301 92.65221768 -128.63988019 54.32126486 -101 27 C-100.27039062 26.26007813 -99.54078125 25.52015625 -98.7890625 24.7578125 C-75.14923653 2.17255126 -31.20494866 -5.67362703 0 0 Z " fill="#98012E" transform="translate(2507,1063)"/>
<path d="M0 0 C-0.6290625 0.48726562 -1.258125 0.97453125 -1.90625 1.4765625 C-17.98623587 14.79582791 -22.86419301 33.9993895 -25 54 C-26.56090842 80.16751471 -22.52093099 105.28631834 -18.03045654 130.93157959 C-6.39222726 197.62869865 -6.39222726 197.62869865 -19 228 C-19.38542969 228.93457031 -19.77085937 229.86914062 -20.16796875 230.83203125 C-30.91983783 254.38524593 -52.24857321 273.69373373 -72.1171875 289.65234375 C-75.48595404 292.39574306 -78.77486102 295.22289453 -82.0625 298.0625 C-85.96577962 301.42965515 -89.88642469 304.7477829 -93.9375 307.9375 C-113.4448784 323.34226274 -113.4448784 323.34226274 -130.625 341.1875 C-133 344 -133 344 -136 345 C-139.04107565 344.90021588 -142.04549412 344.73338452 -145.078125 344.51171875 C-147.01503611 344.38171188 -148.95196749 344.25200682 -150.88891602 344.12255859 C-152.43858566 344.01605988 -152.43858566 344.01605988 -154.01956177 343.90740967 C-198.62421051 340.87098155 -243.30638082 339.75966492 -288 339 C-285.20237679 315.08078624 -273.61536599 291.8512974 -259 273 C-258.35933594 272.154375 -257.71867187 271.30875 -257.05859375 270.4375 C-241.11284852 250.10440551 -221.29692227 234.76898152 -199 222 C-198.35853027 221.63036133 -197.71706055 221.26072266 -197.05615234 220.87988281 C-170.71597533 205.85012101 -141.50117071 197.27417299 -112 191 C-83.15511123 185.79047745 -83.15511123 185.79047745 -60.21484375 168.98828125 C-53.22063727 157.5411716 -53.88377494 145.53419807 -56.75 132.9375 C-59.2570716 122.59068418 -62.72134418 112.53608066 -66.0625 102.4375 C-81.75131688 54.9425931 -81.75131688 54.9425931 -72.72265625 36.734375 C-59.28350232 15.40238464 -34.26711775 6.84677473 -11 1 C-10.15405273 0.78682129 -9.30810547 0.57364258 -8.43652344 0.35400391 C-7.62989258 0.16112793 -6.82326172 -0.03174805 -5.9921875 -0.23046875 C-5.27144043 -0.40344482 -4.55069336 -0.5764209 -3.80810547 -0.75463867 C-2 -1 -2 -1 0 0 Z " fill="#F89F1A" transform="translate(2496,208)"/>
<path d="M0 0 C1.44559372 0.21055792 2.89174673 0.41730473 4.33837891 0.62060547 C7.6161206 1.09052746 10.88773377 1.59032353 14.15820312 2.10839844 C19.48093494 2.94777586 24.81191413 3.72195785 30.1456604 4.487854 C36.18219899 5.35492036 42.21637496 6.23790903 48.25 7.125 C49.44095276 7.29999023 50.63190552 7.47498047 51.85894775 7.65527344 C55.2692311 8.16047447 58.67777118 8.6760428 62.0859375 9.1953125 C63.63223846 9.42337082 63.63223846 9.42337082 65.20977783 9.65603638 C66.63806915 9.87681351 66.63806915 9.87681351 68.09521484 10.10205078 C69.34037369 10.29047043 69.34037369 10.29047043 70.61068726 10.48269653 C72.9461274 11.01624972 74.7867733 11.84143068 76.875 13 C75.91424561 13.40202637 74.95349121 13.80405273 73.96362305 14.21826172 C43.03127916 26.0067543 43.03127916 26.0067543 15.46875 43.72265625 C13.875 45 13.875 45 10.875 46 C10.875 46.66 10.875 47.32 10.875 48 C10.215 48 9.555 48 8.875 48 C8.60558594 48.57363281 8.33617188 49.14726563 8.05859375 49.73828125 C6.8482592 52.05109876 5.45593108 54.06633291 3.9375 56.1875 C-2.85597392 66.24515529 -4.507118 77.94042035 -2.4765625 89.78125 C-0.1472816 100.63484908 3.6174907 114.16285518 13.00390625 120.95703125 C20.41363365 125.08729684 28.19968973 126.42732354 36.484375 124.34375 C45.11916244 121.30849139 49.82523705 116.40665054 54 108.375 C56.01432577 104.11187667 57.73825499 99.79525404 59.375 95.375 C61.58620956 89.44526117 64.36261273 84.25373984 67.875 79 C68.4525 78.113125 69.03 77.22625 69.625 76.3125 C79.80892393 65.8456893 91.62786768 62.45300898 105.875 62 C105.875 62.66 105.875 63.32 105.875 64 C103.93359375 65.26171875 103.93359375 65.26171875 101.3125 66.6875 C89.52624943 73.59324681 81.81763722 84.97455836 77.875 98 C74.38978919 111.72912481 73.16606099 125.80693895 72.44921875 139.91796875 C70.92268408 169.70260824 70.92268408 169.70260824 66.875 183 C66.58882812 183.94746094 66.30265625 184.89492188 66.0078125 185.87109375 C57.51868447 209.94866484 36.13600315 223.84864604 14.33398438 234.3984375 C6.62188078 237.96925904 -1.24047892 241.20660097 -9.12646484 244.37231445 C-24.56691483 250.60520577 -38.31813099 258.342043 -50.56640625 269.75 C-52.125 271 -52.125 271 -54.125 271 C-54.125 271.66 -54.125 272.32 -54.125 273 C-54.785 273 -55.445 273 -56.125 273 C-56.37378906 273.57492187 -56.62257813 274.14984375 -56.87890625 274.7421875 C-58.30523906 277.32657735 -59.98473614 279.02844985 -62.0625 281.125 C-76.21484658 296.61977174 -85.10563398 317.11872858 -91.125 337 C-91.455 337 -91.785 337 -92.125 337 C-92.03965491 324.34926475 -91.94443381 311.69864287 -91.83747292 299.04807091 C-91.78806898 293.17041635 -91.74174731 287.29277514 -91.703125 281.41503906 C-91.48191175 248.23383185 -90.74051957 215.5028728 -86.375 182.5625 C-86.24494568 181.56527924 -86.11489136 180.56805847 -85.980896 179.5406189 C-78.09673888 119.38200608 -60.35472233 58.53292248 -23.0456543 9.54492188 C-21.11102654 7.05843286 -21.11102654 7.05843286 -19.56176758 4.50195312 C-14.34977003 -3.05114434 -8.23608828 -1.38314334 0 0 Z " fill="#98012E" transform="translate(2475.125,714)"/>
<path d="M0 0 C0 3.54241999 -0.45400919 3.84418107 -2.81640625 6.29296875 C-3.41646484 6.92396484 -4.01652344 7.55496094 -4.63476562 8.20507812 C-5.27091797 8.85927734 -5.90707031 9.51347656 -6.5625 10.1875 C-7.79427035 11.47140877 -9.02473761 12.75656898 -10.25390625 14.04296875 C-10.88047119 14.6970874 -11.50703613 15.35120605 -12.15258789 16.02514648 C-13.91517964 17.90932841 -15.60322032 19.83738227 -17.28125 21.796875 C-21.46332748 26.61909634 -25.96699987 31.1172571 -30.48803711 35.6184082 C-31.93524385 37.06025221 -33.37702026 38.50737116 -34.81835938 39.95507812 C-40.04194922 45.18269653 -45.36685904 50.21604461 -51 55 C-51.96421875 55.845625 -52.9284375 56.69125 -53.921875 57.5625 C-81.72593132 81.52621705 -112.8019397 101.000913 -145.62890625 117.28515625 C-148.85391871 118.92568982 -152.00140695 120.66671713 -155.15625 122.4375 C-171.77310758 131.32640096 -185.90718827 130.41002402 -203.8225708 127.3604126 C-206.79833813 126.86785742 -209.78184412 126.43607394 -212.7666626 126.00236511 C-274.78656843 116.95356324 -334.28301947 95.19092814 -383 55 C-383.64485352 54.47083984 -384.28970703 53.94167969 -384.95410156 53.39648438 C-395.53956193 44.64699938 -405.80163586 35.20870689 -415 25 C-415 24.67 -415 24.34 -415 24 C-413.35692871 23.77449463 -413.35692871 23.77449463 -411.68066406 23.54443359 C-391.44050427 20.75028022 -371.38607927 17.79090434 -351.46484375 13.19921875 C-349.64341666 12.79862571 -347.8218213 12.39879642 -346 12 C-345.25468018 11.81244141 -344.50936035 11.62488281 -343.74145508 11.43164062 C-341.02014142 10.87101546 -338.78067023 10.62904475 -336.22485352 11.84350586 C-334.3138046 13.16970677 -332.57469345 14.60674226 -330.8125 16.125 C-329.40400667 17.25049467 -327.98965654 18.36868901 -326.5703125 19.48046875 C-325.4551123 20.35517822 -325.4551123 20.35517822 -324.31738281 21.24755859 C-277.10958403 56.94684006 -213.36831399 72.70180709 -155 65 C-101.62168045 57.43975561 -39.38791502 39.38791502 0 0 Z " fill="#97012D" transform="translate(2278,1717)"/>
<path d="M0 0 C0.81855469 0.10957031 1.63710937 0.21914062 2.48046875 0.33203125 C21.41965071 2.78674082 40.45985643 5.18340589 59.56713867 5.62133789 C65.67014392 5.80174396 69.26258268 6.35040296 73.859375 10.71484375 C74.83190248 11.78093417 75.79529744 12.85541799 76.75 13.9375 C77.49056641 14.74477539 77.49056641 14.74477539 78.24609375 15.56835938 C80.45715891 18.0247619 81.94405132 19.83215397 83 23 C83.66 23 84.32 23 85 23 C86.65625 24.71484375 86.65625 24.71484375 88.5 26.9375 C90.88926999 29.92045179 90.88926999 29.92045179 94 32 C94 32.66 94 33.32 94 34 C94.58652344 34.25652344 95.17304687 34.51304688 95.77734375 34.77734375 C98.20312929 36.11173896 99.67528701 37.54485328 101.5625 39.5625 C105.88386447 43.98694288 110.54103981 47.82820785 115.37060547 51.68261719 C117.14126012 53.11421031 118.8857283 54.57415332 120.62890625 56.0390625 C140.15420836 72.35614359 162.08639912 86.16533256 185.07421875 97.07763672 C186.97788771 97.9894092 188.86427909 98.93065522 190.75 99.87890625 C218.88319341 113.83015934 249.48585901 122.92784091 280 130 C247.54502104 151.63665264 172.339486 142.16037383 136 137 C134.43016357 136.79117187 134.43016357 136.79117187 132.82861328 136.578125 C91.87812664 131.07132026 52.69047754 118.64194333 15 102 C15.01571045 101.06019287 15.0314209 100.12038574 15.04760742 99.15209961 C15.54342661 66.51892003 12.82319324 35.86001534 1.1015625 5.03515625 C0 2 0 2 0 0 Z " fill="#98012E" transform="translate(1754,1736)"/>
<path d="M0 0 C0.85317341 2.86728403 1.04988984 5.05532106 0.67333984 8.01635742 C0.58162506 8.79570145 0.48991028 9.57504547 0.39541626 10.37800598 C0.24222427 11.63528755 0.24222427 11.63528755 0.0859375 12.91796875 C-1.10462084 23.73024387 -1.39763484 34.44166862 -1.375 45.3125 C-1.37478851 46.26200531 -1.37457703 47.21151062 -1.37435913 48.18978882 C-1.33637311 65.41725995 -0.06308612 82.02560593 3 99 C3.18723633 100.03801758 3.37447266 101.07603516 3.56738281 102.14550781 C16.7444837 172.49165435 55.24619686 234.04806561 95.06713867 292.23971558 C136.58799394 352.96282299 136.58799394 352.96282299 153 381 C151 382 151 382 147.75390625 380.91796875 C146.35214076 380.35249059 144.95532395 379.77465714 143.5625 379.1875 C142.8104126 378.87345215 142.0583252 378.5594043 141.28344727 378.23583984 C133.03808254 374.71000124 125.14875345 370.5536772 117.28710938 366.25097656 C115.10882474 365.05952369 112.92235756 363.88445471 110.734375 362.7109375 C101.64768551 357.78197522 93.23409995 352.24310576 85 346 C84.41476562 345.55897949 83.82953125 345.11795898 83.2265625 344.66357422 C75.63010563 338.91025331 68.45820036 332.84827651 61.5234375 326.3125 C59.10833166 324.00956602 59.10833166 324.00956602 56.6640625 322.3125 C56.11492187 321.879375 55.56578125 321.44625 55 321 C55 320.34 55 319.68 55 319 C54.34 319 53.68 319 53 319 C51.625 317.63671875 51.625 317.63671875 50 315.6875 C47.23724553 312.41984789 44.38190235 309.29197694 41.4375 306.1875 C5.30335627 266.3851932 -23.17922092 207.36010423 -24 153 C-24.02046387 151.93491211 -24.04092773 150.86982422 -24.06201172 149.77246094 C-24.91956538 99.43902198 -18.03248174 47.25630543 0 0 Z " fill="#98012E" transform="translate(1542,1306)"/>
<path d="M0 0 C0.33 0 0.66 0 1 0 C1.55534415 4.05219848 2.10648253 8.10494667 2.65405273 12.15820312 C2.84012662 13.53139958 3.02726649 14.9044521 3.21557617 16.27734375 C7.49843748 47.52509986 9.31005766 81.91649852 3 113 C2.79600586 114.01562012 2.59201172 115.03124023 2.38183594 116.07763672 C-2.36920256 138.9580019 -10.63665928 159.12973518 -21 180 C-33.28487113 179.39943748 -45.4325952 177.76703486 -57.6255188 176.21755981 C-85.3755465 172.69847548 -113.15897386 169.69539114 -141 167 C-139.64941886 163.98611927 -138.14395225 161.8965323 -135.8046875 159.57421875 C-135.17046875 158.94193359 -134.53625 158.30964844 -133.8828125 157.65820312 C-133.22023438 157.00787109 -132.55765625 156.35753906 -131.875 155.6875 C-130.9159375 154.7294043 -130.9159375 154.7294043 -129.9375 153.75195312 C-123.00051195 146.8776487 -115.5949652 140.58279028 -108.0625 134.375 C-107.33595215 133.77598877 -106.6094043 133.17697754 -105.86083984 132.55981445 C-99.99739777 127.75597742 -94.00905971 123.1339977 -87.97070312 118.55322266 C-79.48502764 112.10973472 -71.309565 105.39382328 -63.43359375 98.2109375 C-60.23413379 95.30420502 -56.9760767 92.46600697 -53.71484375 89.62890625 C-51.90608259 88.09591299 -51.90608259 88.09591299 -51 86 C-50.34 86 -49.68 86 -49 86 C-48.73654785 85.40695068 -48.4730957 84.81390137 -48.20166016 84.20288086 C-46.94982071 81.90801143 -45.67684264 80.52874664 -43.7734375 78.75390625 C-39.99607289 75.08108846 -36.792994 71.13950552 -33.625 66.9375 C-33.06264648 66.19435547 -32.50029297 65.45121094 -31.92089844 64.68554688 C-26.91495979 58.00143233 -22.2426114 51.19306673 -18 44 C-17.62391602 43.36690918 -17.24783203 42.73381836 -16.86035156 42.08154297 C-10.53184684 31.26261138 -6.34623008 20.15210821 -2.67626953 8.18994141 C-1.82855562 5.44481729 -0.92185161 2.72102094 0 0 Z " fill="#F79E1A" transform="translate(2543,389)"/>
<path d="M0 0 C4.0314698 3.74504211 6.94460184 7.62956333 9.8125 12.3125 C10.24336914 13.01181641 10.67423828 13.71113281 11.11816406 14.43164062 C25.23381362 37.70423185 36.38232127 64.20726696 30.875 91.875 C27.25501709 105.44147801 18.76277274 116.29782141 8 125 C6.90614607 125.90482229 5.81240553 126.80978166 4.71875 127.71484375 C-3.57393428 134.51575773 -12.17842695 140.68783968 -21.06103516 146.68847656 C-41.98497212 160.84150972 -57.4637932 174.20937806 -63 200 C-68.8901721 199.47409178 -74.68178677 198.60192923 -80.5 197.5625 C-81.57797852 197.37917114 -81.57797852 197.37917114 -82.67773438 197.19213867 C-84.46573815 196.86298343 -86.23574072 196.43896451 -88 196 C-89.34588688 193.30822623 -88.80972211 191.83929584 -88.328125 188.875 C-88.15990234 187.7921875 -87.99167969 186.709375 -87.81835938 185.59375 C-87.53702148 183.81484375 -87.53702148 183.81484375 -87.25 182 C-85.97784849 173.67636951 -84.87772196 165.39338269 -84.203125 157 C-84.11191376 155.87416504 -84.11191376 155.87416504 -84.01885986 154.72558594 C-83.72756331 151.06052411 -83.4591894 147.39510254 -83.21582031 143.7265625 C-82.3219568 131.32448013 -79.70731497 120.90680815 -72 111 C-71.24203125 109.96166016 -71.24203125 109.96166016 -70.46875 108.90234375 C-64.35467368 101.24585272 -56.09895484 96.06413556 -48.14453125 90.50439453 C-27.21991389 75.82571828 -6.15005618 59.45072442 -0.4921875 33.1171875 C1.26741885 21.97301397 1.03039636 11.17583742 0 0 Z " fill="#F79E1A" transform="translate(2645,379)"/>
<path d="M0 0 C1.7074998 1.28062485 3.37373596 2.61767557 5 4 C5 4.66 5 5.32 5 6 C5.66 6 6.32 6 7 6 C8.48046875 7.5390625 8.48046875 7.5390625 10.1875 9.625 C13.1100663 13.08787267 16.15830902 15.97510908 19.71484375 18.7734375 C20.13894531 19.17820312 20.56304688 19.58296875 21 20 C21 20.66 21 21.32 21 22 C21.57105469 22.2475 22.14210938 22.495 22.73046875 22.75 C25.35523969 24.19565697 27.15856226 25.91674416 29.3125 28 C56.84493669 53.09487698 96.25004058 70.41492591 131.2734375 81.734375 C131.96188751 81.95777557 132.65033752 82.18117615 133.35964966 82.41134644 C136.71169241 83.49369813 140.06904739 84.54926591 143.44189453 85.56494141 C144.64700684 85.94312012 145.85211914 86.32129883 147.09375 86.7109375 C148.16302734 87.03368652 149.23230469 87.35643555 150.33398438 87.68896484 C153.6059616 89.29798661 154.44535493 90.74996135 156 94 C156.31807617 94.64767334 156.63615234 95.29534668 156.96386719 95.96264648 C169.41395336 124.48618798 177.38099669 153.69477218 177 185 C156.4140847 177.53217276 136.9162472 161.6086011 120 148 C119.09765625 147.278125 118.1953125 146.55625 117.265625 145.8125 C97.05222089 129.45483193 97.05222089 129.45483193 88.453125 120.42578125 C87.03746298 118.89073009 87.03746298 118.89073009 85 118 C85 117.34 85 116.68 85 116 C84.34 116 83.68 116 83 116 C83 115.34 83 114.68 83 114 C82.34 114 81.68 114 81 114 C81 113.34 81 112.68 81 112 C80.34 112 79.68 112 79 112 C79 111.34 79 110.68 79 110 C78.34 110 77.68 110 77 110 C75.73046875 108.7421875 75.73046875 108.7421875 74.1875 106.875 C71.35706816 103.53261895 68.43336847 100.31808992 65.42089844 97.14160156 C58.98366404 90.33566525 53.04219937 83.2917172 47.38574219 75.82714844 C45.95649513 73.94263735 44.51381676 72.06891822 43.0703125 70.1953125 C28.24032544 50.82065199 15.76296189 30.20850876 4.04003906 8.85058594 C3.13728055 7.24426914 2.17876814 5.66953266 1.2109375 4.1015625 C0 2 0 2 0 0 Z " fill="#97012D" transform="translate(1562,1637)"/>
<path d="M0 0 C0 3 0 3 -1.4609375 4.82421875 C-2.09257812 5.43910156 -2.72421875 6.05398438 -3.375 6.6875 C-4.00148438 7.31011719 -4.62796875 7.93273437 -5.2734375 8.57421875 C-7 10 -7 10 -9 10 C-6.92280831 5.3662647 -4.06671028 2.94485917 0 0 Z " fill="#1E191A" transform="translate(2482,462)"/>
<path d="M0 0 C1.65 1.32 3.3 2.64 5 4 C4.67 4.66 4.34 5.32 4 6 C3.67 5.67 3.34 5.34 3 5 C2.67 6.65 2.34 8.3 2 10 C1.67 10 1.34 10 1 10 C0.67 6.7 0.34 3.4 0 0 Z " fill="#1D1819" transform="translate(2620,323)"/>
</svg>