<svg xmlns="http://www.w3.org/2000/svg" version="1.1" viewBox="1120.58 27.21 1600.72 2099.79">
<path d="M0 0 C-1.06734375 0.63164062 -2.1346875 1.26328125 -3.234375 1.9140625 C-15.21735064 9.07878973 -26.67447921 16.84120532 -38 25 C-38.81678223 25.58716797 -39.63356445 26.17433594 -40.47509766 26.77929688 C-54.4690421 36.87255826 -68.11598623 47.35632071 -80.84375 59.0234375 C-82.87014821 60.8809692 -84.92518629 62.69688809 -87 64.5 C-88.33399752 65.66590715 -89.66723932 66.8326792 -91 68 C-91.6803833 68.59353271 -92.3607666 69.18706543 -93.06176758 69.79858398 C-100.22915275 76.14432892 -107.00410339 82.85133037 -113.76000977 89.62963867 C-115.69109547 91.56610549 -117.62749882 93.49713956 -119.56445312 95.42773438 C-125.59029749 101.45038457 -131.49534904 107.49079863 -137 114 C-138.4132355 115.5448126 -139.82940409 117.08695325 -141.25 118.625 C-145.79722451 123.66464814 -149.9652243 128.94770864 -154.12109375 134.30859375 C-156.02387011 136.76113309 -157.95201482 139.18909646 -159.91015625 141.59765625 C-171.93601453 156.39121289 -182.88750421 171.84066707 -193 188 C-193.44553223 188.71091797 -193.89106445 189.42183594 -194.35009766 190.15429688 C-199.84623849 198.95919756 -205.14059855 207.87603678 -210.3125 216.875 C-210.79195068 217.70612305 -211.27140137 218.53724609 -211.76538086 219.39355469 C-215.42364037 225.80959855 -218.74890796 232.36939885 -222 239 C-220.8847998 238.64808594 -219.76959961 238.29617188 -218.62060547 237.93359375 C-178.59329687 225.32502129 -138.74041752 214.04607578 -97.125 208.125 C-96.39664948 208.02136139 -95.66829895 207.91772278 -94.9178772 207.8109436 C-82.33857319 206.04214939 -69.96042217 204.82524763 -57.25 204.9375 C-55.75726562 204.94426758 -55.75726562 204.94426758 -54.234375 204.95117188 C-51.82284873 204.96276575 -49.4114602 204.97907836 -47 205 C-50.26933884 207.17955923 -53.48221062 208.25655441 -57.18359375 209.43359375 C-58.66956634 209.91625817 -60.15540034 210.39934942 -61.64111328 210.8828125 C-62.42294983 211.13579102 -63.20478638 211.38876953 -64.01031494 211.64941406 C-90.08877293 220.11686319 -115.29421556 230.07087767 -140 242 C-140.89585815 242.43149353 -140.89585815 242.43149353 -141.80981445 242.8717041 C-158.72474908 251.02660255 -175.19841059 259.67121803 -191.29052734 269.37402344 C-193.86539565 270.91922283 -196.45434074 272.43671477 -199.05078125 273.9453125 C-211.73007694 281.355536 -223.92933757 289.44993638 -235.92822266 297.91479492 C-238.04912845 299.35452281 -240.22666148 300.71301547 -242.44287109 302.0012207 C-251.75270848 307.51674938 -254.94524145 313.74297147 -257.75 323.8125 C-258.19070614 325.26772631 -258.63438181 326.72205615 -259.08081055 328.17553711 C-260.46629845 332.762705 -261.74185193 337.37654576 -263 342 C-263.2073175 342.75240967 -263.41463501 343.50481934 -263.62823486 344.2800293 C-286.40878855 427.05421573 -291.40396594 513.81079859 -211.375 791.0625 C-209.27301935 794.72207941 -207.14126945 798.36330419 -205 802 C-204.23042969 803.32016113 -204.23042969 803.32016113 -203.4453125 804.66699219 C-197.14273231 815.46855887 -190.53451276 825.96710332 -183.29833984 836.16796875 C-182.05050227 837.92873843 -180.81507676 839.69760242 -179.58203125 841.46875 C-157.37797882 873.17132863 -131.54970919 905.19078048 -101.9453125 930.3359375 C-99.64767068 932.30139014 -97.42126877 934.33729871 -95.1875 936.375 C-85.53251135 945.07477668 -75.2372628 953.00447358 -65 961 C-65.16081055 960.34330322 -65.32162109 959.68660645 -65.48730469 959.01000977 C-70.85284989 936.91827677 -75.09387093 914.67816492 -77 892 C-77.13136353 890.47076904 -77.13136353 890.47076904 -77.26538086 888.91064453 C-78.12941262 877.64971316 -78.20119956 866.4139075 -78.1875 855.125 C-78.18656342 854.12633911 -78.18562683 853.12767822 -78.18466187 852.09875488 C-78.04132723 781.51033141 -61.20150689 709.87594498 -21 651 C-20.58782227 650.39349609 -20.17564453 649.78699219 -19.75097656 649.16210938 C-9.703792 634.47589439 1.66107779 620.80972369 14 608 C14.53125488 607.44683105 15.06250977 606.89366211 15.60986328 606.32373047 C21.857663 599.85325895 28.2136879 593.75400598 35.27734375 588.1640625 C38.12066105 585.90409437 40.86746036 583.5511054 43.625 581.1875 C71.54487027 558.01008535 105.00914189 539.48010982 139 527 C139 527.66 139 528.32 139 529 C136.80039347 530.582013 134.59777538 532.05104405 132.3125 533.5 C118.80586885 542.29568434 105.49224296 552.2811382 94.21875 563.85546875 C92 566 92 566 90 566 C89.67 566.99 89.34 567.98 89 569 C87.38219528 570.71413635 85.70709574 572.37476781 84 574 C77.14860737 580.66705023 70.78162151 587.36825961 65 595 C64.0757501 596.19548978 63.15125331 597.39078872 62.2265625 598.5859375 C42.43096711 624.36857208 26.80890791 652.78549107 15.4375 683.25 C15.03217041 684.33128174 14.62684082 685.41256348 14.20922852 686.52661133 C11.53581032 693.90701534 9.60404498 701.31874607 8 709 C8.89460938 708.21496094 9.78921875 707.42992187 10.7109375 706.62109375 C41.88308758 679.44992529 78.29436467 664.08532026 119 657.625 C120.69334473 657.35478027 120.69334473 657.35478027 122.42089844 657.07910156 C124.00692871 656.84271973 124.00692871 656.84271973 125.625 656.6015625 C126.56601563 656.46057129 127.50703125 656.31958008 128.4765625 656.17431641 C130.93749125 656.00431804 132.66856438 656.24679853 135 657 C130.19150429 660.2858054 125.31354415 663.43792407 120.35473633 666.49072266 C111.97446954 671.65813642 103.90165083 677.12804715 96 683 C95.15477783 683.62672607 95.15477783 683.62672607 94.29248047 684.26611328 C87.67714004 689.19679002 81.33125902 694.33078952 75.2578125 699.92578125 C73.22836537 701.79020413 71.15965844 703.58774554 69.0625 705.375 C60.16421233 713.16100171 52.22196321 721.64316591 45 731 C44.566875 731.55671387 44.13375 732.11342773 43.6875 732.68701172 C36.50471113 741.97413326 30.39207284 751.57254866 25 762 C24.68047363 762.61311035 24.36094727 763.2262207 24.03173828 763.85791016 C4.35925686 802.14366464 2.71706522 848.60315459 15.37670898 889.35742188 C28.45120238 929.13869436 49.63762916 965.30690896 78.25 995.90625 C80 998 80 998 81 1001 C81.61875 1000.505 82.2375 1000.01 82.875 999.5 C85 998 85 998 87 998 C87 997.34 87 996.68 87 996 C88.50390625 994.51953125 88.50390625 994.51953125 90.5625 992.8125 C97.34635561 987.01646898 103.09900215 980.82704285 108.69140625 973.8671875 C110.15918158 972.04426518 111.64439564 970.23514565 113.15234375 968.4453125 C165.26006912 906.44371523 197.94069003 821.79909172 218 744 C218.33 744 218.66 744 219 744 C220.38471366 825.71230827 207.09446254 910.9721137 168.03759766 986.01904297 C166.88777593 988.21425556 165.76215293 990.4210972 164.63671875 992.62890625 C157.10070282 1007.31178198 148.59516474 1021.03995116 138.93408203 1034.41845703 C138.45052246 1035.08989746 137.96696289 1035.76133789 137.46875 1036.453125 C137.04013672 1037.04254883 136.61152344 1037.63197266 136.16992188 1038.23925781 C134.93738665 1040.09423362 133.9556998 1041.99038183 133 1044 C207.59698599 1089.66521652 292.36551055 1106.37943157 378.26464844 1086.234375 C407.84486252 1079.06979955 437.00093503 1067.96206604 463 1052 C464.24340952 1051.24335799 465.48690178 1050.48685195 466.73046875 1049.73046875 C469.83096463 1047.83728903 472.91880482 1045.92446742 476 1044 C473.77322972 1039.82480573 471.33699266 1036.03856728 468.5 1032.25 C434.37515722 985.7218472 414.38876936 929.8942456 402 874 C401.76684082 872.94973633 401.53368164 871.89947266 401.29345703 870.81738281 C392.21903662 829.03904462 389.54160331 786.63794418 390 744 C392.16191259 747.24286888 392.94407809 749.85993241 393.99609375 753.60546875 C394.38731991 754.97854126 394.7789396 756.35150169 395.17089844 757.72436523 C395.37646362 758.45033905 395.58202881 759.17631287 395.79382324 759.92428589 C412.3540457 818.15122776 435.62972829 875.16707492 467 927 C467.46003418 927.76521973 467.92006836 928.53043945 468.39404297 929.31884766 C483.95719325 955.12385905 502.65835484 980.6721298 526 1000 C530.61626052 996.21706662 534.77274475 992.30802216 538.625 987.75 C539.13297119 987.1506665 539.64094238 986.55133301 540.16430664 985.93383789 C580.80934029 937.22564457 605.00260355 878.72549016 600.79785156 814.93310547 C600.2775795 809.84523732 599.30187619 804.94179206 598 800 C597.79600586 799.20674316 597.59201172 798.41348633 597.38183594 797.59619141 C590.16983451 770.23362704 577.07557627 745.5194295 558.11035156 724.46948242 C557 723 557 723 557 721 C556.34 721 555.68 721 555 721 C553.58984375 719.56640625 553.58984375 719.56640625 551.9375 717.5625 C545.31188514 709.26939116 545.31188514 709.26939116 537 703 C537 702.34 537 701.68 537 701 C536.18402344 700.65388672 536.18402344 700.65388672 535.3515625 700.30078125 C532.34578906 698.6381192 529.93265553 696.45034788 527.375 694.1875 C514.20675793 682.82010811 499.67624643 673.28489523 485 664 C483.83035111 663.25449907 482.66105722 662.50844074 481.4921875 661.76171875 C478.99763322 660.16992516 476.50051772 658.58240106 474 657 C477.3490094 655.91948444 479.87794361 656.0793381 483.33984375 656.6015625 C484.39204102 656.75915039 485.44423828 656.91673828 486.52832031 657.07910156 C487.65334961 657.25924805 488.77837891 657.43939453 489.9375 657.625 C491.10249023 657.81030273 492.26748047 657.99560547 493.46777344 658.18652344 C534.70861369 664.95673513 569.80105753 681.11378201 601 709 C599.6995022 701.26597081 597.5277853 694.01863525 594.9375 686.625 C594.53901855 685.48522705 594.14053711 684.3454541 593.72998047 683.17114258 C585.14563506 659.06037297 573.49443973 636.09293148 559 615 C558.56800293 614.36980957 558.13600586 613.73961914 557.69091797 613.09033203 C550.20393407 602.23860282 542.02322324 592.09774811 533.1328125 582.35546875 C531.13063936 580.14427754 529.18699573 577.89321361 527.25 575.625 C524.71569292 572.7111308 522.07710962 570.3483205 519 568 C516.1875 565.375 516.1875 565.375 514 563 C514 562.34 514 561.68 514 561 C513.4225 560.74605469 512.845 560.49210938 512.25 560.23046875 C509.74270392 558.85929121 508.0567059 557.29737242 506 555.3125 C500.90932556 550.64604843 495.51657383 546.46370141 490 542.3125 C489.16984375 541.6831958 488.3396875 541.0538916 487.484375 540.40551758 C481.86618206 536.21119645 476.07751126 532.49376079 470 529 C470.33 528.34 470.66 527.68 471 527 C509.66280825 543.36518353 546.73299126 563.37529082 577.79296875 591.9765625 C579.72130517 593.74448863 581.68847978 595.43846046 583.6875 597.125 C594.06956097 606.19875248 603.49543076 616.16406236 612 627 C612.68835937 627.80953125 613.37671875 628.6190625 614.0859375 629.453125 C625.16927711 642.49705537 634.62745065 657.08773365 643 672 C643.41958984 672.7434668 643.83917969 673.48693359 644.27148438 674.25292969 C668.56025157 717.74223329 682.03288483 767.4649474 686 817 C686.08612549 818.01223633 686.17225098 819.02447266 686.26098633 820.06738281 C687.12657828 831.33626473 687.20016066 842.57806163 687.1875 853.875 C687.18689575 854.87199921 687.1862915 855.86899841 687.18566895 856.89620972 C687.1608067 872.02230837 686.85114419 886.96970309 685 902 C684.86577637 903.11004395 684.73155273 904.22008789 684.59326172 905.36376953 C682.25210025 924.1941746 678.66046723 942.61467054 674 961 C687.2653099 950.28898598 700.40352394 939.49771802 713 928 C713.91007812 927.18273437 714.82015625 926.36546875 715.7578125 925.5234375 C726.10052824 916.17362247 736.41373302 906.53118447 745.4140625 895.86328125 C747.30191407 893.64528815 749.27702792 891.51757845 751.25 889.375 C755.79283455 884.34021721 759.95720363 879.06249081 764.109375 873.70703125 C766.54580725 870.56675926 769.03414027 867.47215884 771.53735352 864.38500977 C793.10313948 837.73070635 811.05667103 808.29737039 827 778 C827.52207031 777.00790527 828.04414063 776.01581055 828.58203125 774.99365234 C842.35868629 748.60096679 853.53944172 721.21697687 863 693 C863.4134668 691.77297363 863.82693359 690.54594727 864.25292969 689.28173828 C878.60352521 646.41885259 887.52265388 601.94695835 892 557 C892.17789063 555.21553467 892.17789063 555.21553467 892.359375 553.39501953 C899.83225229 474.02905935 889.23202651 392.47626515 864 317 C863.75926758 316.20376221 863.51853516 315.40752441 863.27050781 314.5871582 C861.68213198 309.67191673 859.85104063 307.53190039 855.5 304.8125 C854.33780755 304.06494216 853.17639912 303.31616452 852.015625 302.56640625 C851.37947266 302.16437988 850.74332031 301.76235352 850.08789062 301.34814453 C847.76869146 299.85064479 845.50102334 298.29071696 843.234375 296.71484375 C842.41001953 296.14209717 841.58566406 295.56935059 840.73632812 294.97924805 C839.11998109 293.85507424 837.50407123 292.7302715 835.88867188 291.60473633 C830.75293399 288.07255988 825.50325979 284.92657012 820 282 C820 281.34 820 280.68 820 280 C819.28030029 279.72994141 818.56060059 279.45988281 817.8190918 279.18164062 C815.01330433 278.00557659 812.51036989 276.64380439 809.89453125 275.09375 C808.91991943 274.51963379 807.94530762 273.94551758 806.94116211 273.35400391 C805.90870361 272.74218262 804.87624512 272.13036133 803.8125 271.5 C794.2720335 265.89117477 784.69022772 260.38438749 774.97607422 255.08203125 C773.13615449 254.07455358 771.30393412 253.05432183 769.47265625 252.03125 C733.70482527 232.39716505 694.90442155 218.01387263 656 206 C656 205.67 656 205.34 656 205 C710.21111185 203.50642855 763.68544403 218.00404283 815 234 C815.78258179 234.24381409 816.56516357 234.48762817 817.37145996 234.73883057 C821.91553367 236.1553162 826.4583119 237.57588486 831 239 C824.85403371 226.32270941 818.35235247 214.01718764 811 202 C810.21157715 200.70449219 810.21157715 200.70449219 809.40722656 199.3828125 C807.71482901 196.60574645 806.01541268 193.83312938 804.3125 191.0625 C803.52879028 189.78451538 803.52879028 189.78451538 802.72924805 188.48071289 C799.02491259 182.50010026 795.07024116 176.73617283 791 171 C790.05956413 169.64696745 789.12066092 168.29286778 788.18359375 166.9375 C778.30697157 152.73796312 767.79708808 139.07270647 756.51953125 125.95703125 C754.08185308 123.09606633 751.72434613 120.18363946 749.375 117.25 C745.85897869 112.92403806 742.1039219 108.99663117 738.11328125 105.109375 C736.16104942 103.16075173 734.35299104 101.15909372 732.5625 99.0625 C728.31145511 94.10790222 723.64676814 89.57953194 719 85 C718.13632813 84.11699219 717.27265625 83.23398438 716.3828125 82.32421875 C714.03142374 79.88813575 714.03142374 79.88813575 711 78 C711 77.34 711 76.68 711 76 C710.34 76 709.68 76 709 76 C709 75.34 709 74.68 709 74 C708.41734375 73.731875 707.8346875 73.46375 707.234375 73.1875 C704.97213399 71.98519009 703.19423682 70.66174087 701.25 69 C700.63640625 68.484375 700.0228125 67.96875 699.390625 67.4375 C698 66 698 66 698 64 C697.278125 63.773125 696.55625 63.54625 695.8125 63.3125 C693.10813934 62.05046503 691.57578745 60.74568671 689.55078125 58.6015625 C682.55778981 51.37958141 674.62600136 45.23374354 666.60839844 39.20996094 C665.10122007 38.07614552 663.60112399 36.93293285 662.1015625 35.7890625 C647.86601209 24.98564479 633.12618837 15.0150662 618.09619141 5.35546875 C615.37836462 3.59802939 612.68623317 1.80528756 610 0 C612 -1 612 -1 615.515625 -0.0234375 C617.09788614 0.51401533 618.67566777 1.06474657 620.25 1.625 C621.11753906 1.93203857 621.98507812 2.23907715 622.87890625 2.55541992 C676.60337197 22.08441183 726.32011134 52.27630595 770 89 C770.52094238 89.43602539 771.04188477 89.87205078 771.57861328 90.32128906 C785.34458056 101.86849216 798.27977427 114.1936424 811 126.875 C811.49490936 127.36723053 811.98981873 127.85946106 812.49972534 128.36660767 C818.22133978 134.0646837 823.75862554 139.85482655 829 146 C830.02124143 147.1568902 831.04464781 148.31187326 832.0703125 149.46484375 C839.5159215 157.90344193 846.46426112 166.63039532 853.20776367 175.63745117 C854.53640723 177.38888609 855.88319136 179.12659132 857.23950195 180.85668945 C863.84574459 189.28483829 869.90092685 198.01116248 875.8125 206.9375 C876.29244415 207.66021088 876.77238831 208.38292175 877.26687622 209.12753296 C888.34152982 225.82551916 898.4341374 242.92545723 907.9375 260.5625 C908.86067017 262.27530151 908.86067017 262.27530151 909.80249023 264.02270508 C921 285.04881719 921 285.04881719 921 289 C921.66128906 289.20882813 922.32257813 289.41765625 923.00390625 289.6328125 C927.1012889 291.50254383 930.39667285 294.11565461 933.9375 296.875 C934.68604248 297.45362793 935.43458496 298.03225586 936.20581055 298.62841797 C943.34221798 304.18829166 950.23209887 309.99942038 957 316 C957.93457031 316.82242187 958.86914062 317.64484375 959.83203125 318.4921875 C966.53602539 324.5117179 972.93051154 330.829857 979.3125 337.1875 C980.16086426 338.03119141 981.00922852 338.87488281 981.88330078 339.74414062 C986.7954151 344.66882779 991.4912765 349.70473389 996 355 C996.99700499 356.15268192 997.99438805 357.30503696 998.9921875 358.45703125 C1005.09944939 365.55583974 1011.1134987 372.71619788 1017 380 C1005.95935597 331.79257963 990.35416927 285.59045409 969 241 C968.34765381 239.62956543 968.34765381 239.62956543 967.68212891 238.23144531 C946.12512124 193.20196095 917.36892698 151.09323773 883.40136719 114.51464844 C881.94020577 112.93537223 880.48846795 111.34788156 879.0390625 109.7578125 C878.55115234 109.22293213 878.06324219 108.68805176 877.56054688 108.13696289 C876.20952847 106.65520818 874.8586653 105.17331194 873.5078125 103.69140625 C870.22295799 100.16607174 866.99474603 96.77369136 863.1875 93.8125 C862.1046875 92.9153125 862.1046875 92.9153125 861 92 C861 91.34 861 90.68 861 90 C860.41734375 89.731875 859.8346875 89.46375 859.234375 89.1875 C856.97213399 87.98519009 855.19423682 86.66174087 853.25 85 C852.63640625 84.484375 852.0228125 83.96875 851.390625 83.4375 C850 82 850 82 850 80 C849.18595703 79.65001953 849.18595703 79.65001953 848.35546875 79.29296875 C845.33617183 77.63561008 842.9318839 75.5483924 840.3125 73.3125 C835.30839991 69.07244357 830.21630622 64.97809212 825 61 C825.66 60.67 826.32 60.34 827 60 C829.21704102 60.76586914 829.21704102 60.76586914 832.00390625 62.03515625 C833.041521 62.50711426 834.07913574 62.97907227 835.14819336 63.46533203 C836.83827515 64.25593018 836.83827515 64.25593018 838.5625 65.0625 C840.31348999 65.88016846 840.31348999 65.88016846 842.09985352 66.71435547 C870.17458772 79.95985648 896.66110295 96.73197429 921 116 C921.67595215 116.53463867 922.3519043 117.06927734 923.04833984 117.62011719 C930.415902 123.47547066 937.67094735 129.42434326 944.59375 135.8046875 C945.91428589 137.00946213 947.24261741 138.2065332 948.60375977 139.36523438 C954.76707015 144.62759841 960.49093371 150.30481418 966.2175293 156.03222656 C967.92543056 157.73794598 969.64118045 159.43549027 971.35742188 161.1328125 C977.29407793 167.03986812 982.88081831 173.01719947 988.06933594 179.60180664 C990.0538728 182.06691863 992.14960163 184.37831368 994.3125 186.6875 C1000.39808148 193.39427405 1005.69586385 200.6712517 1011 208 C1011.83821289 209.15749756 1011.83821289 209.15749756 1012.69335938 210.33837891 C1068.08711316 287.24806813 1103.82302078 385.34527456 1104.203125 480.90234375 C1104.21371445 482.68439964 1104.21371445 482.68439964 1104.22451782 484.50245667 C1104.45134844 533.87477889 1104.45134844 533.87477889 1101 556 C1100.79907805 557.33443679 1100.59840548 558.66891114 1100.39794922 560.00341797 C1088.70814117 636.75066365 1057.11283815 709.95053996 1012 773 C1011.24904053 774.05743408 1011.24904053 774.05743408 1010.48291016 775.13623047 C999.81562486 790.14519598 988.75931888 804.82738806 977 819 C975.58318126 820.74987688 974.16651902 822.49988049 972.75 824.25 C964.3409164 834.51962998 955.56979225 844.46835817 946.56640625 854.21875 C941.08953714 860.15410891 935.65379083 866.12554126 930.484375 872.33203125 C928.898784 874.11373482 927.2220603 875.78628866 925.53286743 877.46913147 C923.8273874 879.17238751 922.13061167 880.88402733 920.43481445 882.59692383 C916.83912766 886.22811031 913.23742408 889.85326351 909.63354492 893.47631836 C908.07903674 895.04096429 906.52631663 896.60738863 904.9753418 898.17553711 C902.73430019 900.44070392 900.4869789 902.69946797 898.23828125 904.95703125 C897.54245438 905.66318069 896.8466275 906.36933014 896.12971497 907.09687805 C895.16312202 908.06369759 895.16312202 908.06369759 894.17700195 909.05004883 C893.61028275 909.62120926 893.04356354 910.19236969 892.45967102 910.78083801 C891 912 891 912 889 912 C888.67 912.99 888.34 913.98 888 915 C886.46875 916.5078125 886.46875 916.5078125 884.5 918.125 C881.34893765 920.79214921 878.39410589 923.55564922 875.5 926.5 C872.25743741 929.78103368 868.92952978 932.85459996 865.4296875 935.85546875 C862.05455732 938.83448236 858.78234907 941.91946264 855.5 945 C851.02068309 949.19980404 846.53144369 953.36695359 841.875 957.37109375 C839.61248819 959.33665089 837.40309317 961.35673309 835.1875 963.375 C831.72469918 966.50422827 828.19320997 969.50500349 824.5625 972.4375 C820.75912497 975.51336588 817.09917348 978.68753166 813.5 982 C809.0301488 986.11378909 804.40955107 989.97087297 799.68359375 993.78515625 C797.05291443 995.95632827 794.52057576 998.20241357 792 1000.5 C787.7569853 1004.36214567 783.37657134 1008.00754309 778.91796875 1011.6171875 C775.74582593 1014.20755848 772.61956706 1016.84682867 769.5 1019.5 C764.65060094 1023.62124182 759.74838629 1027.66991814 754.8125 1031.6875 C751.68200056 1034.26146621 748.58837781 1036.87580814 745.5 1039.5 C736.46858188 1047.1691892 727.25652944 1054.60494225 718 1062 C745.90053653 1050.89163771 773.71552783 1039.57239709 801.52099609 1028.22857666 C804.67225343 1026.94371647 807.82435148 1025.6609364 810.9765625 1024.37841797 C820.46397296 1020.5143177 829.93619211 1016.62252987 839.36328125 1012.61328125 C841.6854738 1011.63214201 844.00805844 1010.65193626 846.33071899 1009.67190552 C848.42975108 1008.77985453 850.52081014 1007.87080063 852.61206055 1006.96069336 C859.2676387 1004.11873318 864.70156264 1002.0942994 872 1003 C875.59926072 1005.14424043 877.47566146 1007.13915133 879 1011 C880.29051178 1023.70181057 877.94695476 1036.74485333 876.3125 1049.3125 C876.17617157 1050.37792023 876.03984314 1051.44334045 875.89938354 1052.54104614 C868.8520153 1107.44309136 855.44949723 1173.87261327 809 1210 C770.1380865 1235.98741455 716.11769524 1233.92264377 671.27586365 1236.85112762 C668.02804047 1237.06357935 664.78030659 1237.27738228 661.53256798 1237.49112225 C638.35646586 1239.01622629 615.17884232 1240.51715412 592 1242 C593.43221241 1246.97753147 594.86664744 1251.95441577 596.30310059 1256.9307251 C596.80801533 1258.68055784 597.31249363 1260.43051658 597.81652832 1262.18060303 C600.25438218 1270.64212054 602.69140912 1279.10065102 605.32421875 1287.50390625 C605.65478271 1288.55956787 605.98534668 1289.61522949 606.32592773 1290.70288086 C606.92703845 1292.60372476 607.53677983 1294.50186815 608.15649414 1296.39672852 C608.41938232 1297.22744873 608.68227051 1298.05816895 608.953125 1298.9140625 C609.29585449 1299.9652124 609.29585449 1299.9652124 609.64550781 1301.03759766 C610.46047952 1305.54912838 608.14350923 1308.67777131 605.82421875 1312.41015625 C604.83893188 1314.0036792 604.83893188 1314.0036792 603.83374023 1315.62939453 C603.11849181 1316.77386615 602.40307443 1317.91823219 601.6875 1319.0625 C600.95282307 1320.24569307 600.21853293 1321.42912638 599.48461914 1322.61279297 C594.38243213 1330.83053807 589.2274847 1339.01510561 584.046875 1347.18359375 C580.57011986 1352.67013324 577.12804691 1358.17820548 573.6875 1363.6875 C573.05706787 1364.69699707 572.42663574 1365.70649414 571.77709961 1366.74658203 C570.4923985 1368.80412772 569.20781255 1370.86174532 567.92333984 1372.91943359 C564.78410777 1377.94746487 561.64192849 1382.97365341 558.5 1388 C557.24998536 1389.99999085 555.99998538 1391.99999086 554.75 1394 C538.5 1420 522.25 1446 506 1472 C510.05674529 1468.88982861 513.65734548 1465.4940711 517.25 1461.875 C518.06210938 1461.06869141 518.06210938 1461.06869141 518.890625 1460.24609375 C521.8044102 1457.39531318 521.8044102 1457.39531318 524 1454 C524.66 1454 525.32 1454 526 1454 C526.20238281 1453.46890625 526.40476562 1452.9378125 526.61328125 1452.390625 C528.60452428 1448.95783421 531.3446492 1446.49100784 534.1875 1443.75 C538.45560494 1439.56601868 542.56292829 1435.34849299 546.43359375 1430.7890625 C549.13264102 1427.70636013 552.06420518 1424.85548433 555 1422 C557.18814305 1425.28221457 557.96479182 1427.94461737 559.02099609 1431.74121094 C559.21395327 1432.42902366 559.40691044 1433.11683638 559.6057148 1433.82549191 C560.2500337 1436.12706798 560.88668369 1438.43069553 561.5234375 1440.734375 C561.98042796 1442.37227278 562.43791804 1444.01003122 562.89587402 1445.6476593 C563.87845077 1449.16506845 564.85771684 1452.68337618 565.83441162 1456.2024231 C567.39090599 1461.81019911 568.95476471 1467.41590405 570.52001953 1473.02124023 C572.12659082 1478.77558678 573.73283476 1484.53002264 575.3366394 1490.28514099 C579.75703506 1506.14625117 584.212644 1521.99724192 588.68463135 1537.84387207 C590.71607694 1545.04253039 592.74480105 1552.24195588 594.7734375 1559.44140625 C595.08312784 1560.54038805 595.08312784 1560.54038805 595.39907455 1561.6615715 C601.11239044 1581.93739124 606.80524389 1602.21896157 612.5 1622.5 C619.39262736 1647.04682519 626.28890755 1671.59259513 633.20555305 1696.13266468 C634.59188594 1701.05141287 635.97754432 1705.97035065 637.36279297 1710.8894043 C637.96352876 1713.02253645 638.56426951 1715.15566721 639.16501236 1717.28879738 C639.57095356 1718.73023032 639.97688565 1720.17166582 640.38280869 1721.61310387 C643.28982026 1731.93547501 646.20109426 1742.2566371 649.11468124 1752.57715416 C651.43190792 1760.78608664 653.7462038 1768.99584257 656.05875015 1777.20609474 C657.47401505 1782.23024905 658.89062304 1787.25401569 660.31054688 1792.27685547 C661.64180496 1796.98612731 662.96948575 1801.69639338 664.29453659 1806.40741539 C664.78409227 1808.14553457 665.27494302 1809.88328959 665.76720047 1811.62064552 C668.14928567 1820.03056239 670.46720068 1828.38410571 672 1837 C665.0669171 1842.8969783 658.11209298 1848.75960687 651.0546875 1854.5078125 C647.31846273 1857.5560368 643.59625634 1860.62103358 639.875 1863.6875 C639.15086914 1864.28409424 638.42673828 1864.88068848 637.68066406 1865.49536133 C636.19429252 1866.71999939 634.70796477 1867.94469061 633.22167969 1869.16943359 C628.94148075 1872.69612938 624.66015549 1876.22145789 620.37866211 1879.74658203 C616.8227364 1882.67451075 613.26779942 1885.60362394 609.71484375 1888.53515625 C602.06137765 1894.84776092 594.3859176 1901.13128987 586.67871094 1907.37817383 C581.67946132 1911.43523801 576.72644543 1915.54355107 571.7890625 1919.67578125 C569.06175537 1921.9485372 566.31562501 1924.19612301 563.5625 1926.4375 C559.55980269 1929.7004438 555.61496776 1933.0226573 551.6875 1936.375 C547.25143901 1940.15786631 542.73406529 1943.80541777 538.125 1947.375 C532.34961674 1951.85223554 526.81794094 1956.56419745 521.3203125 1961.37670898 C517.21647753 1964.96382411 513.04259176 1968.4256136 508.76171875 1971.80078125 C505.11950897 1974.70115481 501.52885725 1977.6620295 497.9375 1980.625 C497.20934082 1981.22562256 496.48118164 1981.82624512 495.73095703 1982.44506836 C494.23308426 1983.68096885 492.73536448 1984.91705479 491.23779297 1986.15332031 C487.66088205 1989.1050718 484.08031669 1992.05238133 480.5 1995 C479.08331453 1996.16664383 477.66664789 1997.33331053 476.25 1998.5 C450.74999999 2019.5 450.74999999 2019.5 448.62402344 2021.25073242 C447.21051797 2022.41484354 445.79710616 2023.5790684 444.38378906 2024.7434082 C440.79452429 2027.70012504 437.20354178 2030.65471204 433.609375 2033.60546875 C427.0578381 2038.987271 420.52049232 2044.38108818 414.0625 2049.875 C409.71364726 2053.5741605 405.30499057 2057.18245094 400.83203125 2060.73046875 C397.17325732 2063.66253448 393.55479572 2066.64200329 389.9375 2069.625 C389.21457764 2070.22111084 388.49165527 2070.81722168 387.74682617 2071.43139648 C385.49744583 2073.28706734 383.24862218 2075.14341053 381 2077 C362.48436542 2092.28755365 362.48436542 2092.28755365 354 2099 C353.01 2098.505 353.01 2098.505 352 2098 C352.19873341 2097.09935176 352.19873341 2097.09935176 352.40148163 2096.18050861 C368.82890548 2021.73197277 385.24823977 1947.28167561 401.63623047 1872.82444763 C405.38545245 1855.79044138 409.13640092 1838.75681568 412.88788986 1821.72330856 C415.66916984 1809.09496424 418.45018572 1796.46656198 421.22998047 1783.83789062 C421.47372217 1782.73057272 421.71746387 1781.62325481 421.96859169 1780.48238182 C422.94624382 1776.04086819 423.92388626 1771.59935243 424.90147781 1767.15782547 C427.84560725 1753.78183461 430.79169391 1740.40627777 433.74074936 1727.03137207 C435.65404802 1718.35369813 437.56596923 1709.6757215 439.47684097 1700.99751282 C440.59255084 1695.93085815 441.7089995 1690.86436888 442.82727051 1685.79827881 C443.85436153 1681.14524179 444.87955577 1676.49179117 445.90322113 1671.83799934 C446.27683485 1670.14115419 446.65117535 1668.44446888 447.02628326 1666.74795341 C447.53441848 1664.44933044 448.04000399 1662.15016156 448.54492188 1659.85083008 C448.82783081 1658.5674324 449.11073975 1657.28403473 449.40222168 1655.96174622 C450.06594785 1653.17683376 450.06594785 1653.17683376 450 1651 C449.57332031 1651.53625 449.14664063 1652.0725 448.70703125 1652.625 C442.75300261 1660.08901941 436.73136237 1667.49721855 430.70556641 1674.90332031 C427.96883521 1678.26762714 425.2345045 1681.63388328 422.5 1685 C421.41667893 1686.3333433 420.33334558 1687.66667662 419.25 1689 C418.71375 1689.66 418.1775 1690.32 417.625 1691 C390 1725 362.375 1759 334.75 1793 C334.21318604 1793.6607251 333.67637207 1794.3214502 333.12329102 1795.00219727 C332.04577697 1796.32830607 330.96814131 1797.65431606 329.89038086 1798.98022461 C327.09197944 1802.42327064 324.2960539 1805.86828611 321.50390625 1809.31640625 C320.92769531 1810.02732422 320.35148437 1810.73824219 319.7578125 1811.47070312 C318.6671724 1812.81641228 317.57726827 1814.16271841 316.48828125 1815.50976562 C313.06218352 1819.73499182 309.56057873 1823.88750389 306 1828 C302.59958066 1826.40744839 300.90764415 1824.94831796 298.625 1821.9375 C297.93535156 1821.04804687 297.24570313 1820.15859375 296.53515625 1819.2421875 C296.14215332 1818.73526367 295.74915039 1818.22833984 295.34423828 1817.70605469 C292.64252976 1814.27715183 289.8444183 1810.92636153 287.0625 1807.5625 C285.83446506 1806.07435932 284.60659768 1804.58608033 283.37890625 1803.09765625 C282.79512207 1802.39012207 282.21133789 1801.68258789 281.60986328 1800.95361328 C279.56681111 1798.47431339 277.532288 1795.9881283 275.5 1793.5 C271.67879554 1788.82330201 267.84064015 1784.16073456 264 1779.5 C259.45786868 1773.98798441 254.92539199 1768.4683902 250.40625 1762.9375 C247.27823847 1759.11888852 244.13915083 1755.30945577 241 1751.5 C236.45786868 1745.98798441 231.92539199 1740.4683902 227.40625 1734.9375 C224.27823847 1731.11888852 221.13915083 1727.30945577 218 1723.5 C213.45786868 1717.98798441 208.92539199 1712.4683902 204.40625 1706.9375 C201.27823847 1703.11888852 198.13915083 1699.30945577 195 1695.5 C190.46136348 1689.99222545 185.93085053 1684.47813395 181.41796875 1678.94921875 C179.46851395 1676.57145077 177.51192808 1674.20013857 175.55078125 1671.83203125 C174.93460938 1671.08695313 174.3184375 1670.341875 173.68359375 1669.57421875 C172.47286485 1668.11072808 171.26071821 1666.64840864 170.046875 1665.1875 C169.48097656 1664.50300781 168.91507813 1663.81851562 168.33203125 1663.11328125 C167.83421143 1662.51298096 167.3363916 1661.91268066 166.82348633 1661.29418945 C165.13856377 1659.17433174 163.50835688 1657.02453051 161.8860321 1654.85661316 C161.34561122 1654.13481463 160.80519033 1653.41301611 160.24839306 1652.6693449 C159.83642335 1652.11846108 159.42445364 1651.56757727 159 1651 C162.36505491 1668.18237081 165.98025909 1685.29722532 169.76953125 1702.390625 C170.32418394 1704.90158716 170.87860539 1707.41260041 171.43281555 1709.92366028 C172.61017723 1715.25667031 173.78924184 1720.58930128 174.96954346 1725.92166138 C176.84866335 1734.41131299 178.72414219 1742.901767 180.59912109 1751.39233398 C181.23923688 1754.29082188 181.87937798 1757.18930419 182.51953125 1760.08778381 C182.67843236 1760.80726352 182.83733346 1761.52674322 183.00104976 1762.26802534 C184.13018416 1767.38034534 185.25980315 1772.49255813 186.38964844 1777.60472107 C190.35654071 1795.55396713 194.31754338 1813.50449632 198.26953125 1831.45703125 C198.51512409 1832.57267582 198.76071693 1833.68832039 199.01375198 1834.83777237 C200.47638402 1841.48241266 201.93867434 1848.12712812 203.40086365 1854.77186584 C205.59099772 1864.72431466 207.78178035 1874.67662072 209.97265625 1884.62890625 C210.21490307 1885.72938168 210.45714989 1886.8298571 210.70673752 1887.96368027 C214.42948367 1904.87472007 218.15700912 1921.78470269 221.88682175 1938.69418526 C224.44585777 1950.2960184 227.00436055 1961.89796914 229.5625 1973.5 C229.83805725 1974.74974483 230.1136145 1975.99948967 230.39752197 1977.28710556 C239.33891225 2017.84210337 248.22771336 2058.40807069 257 2099 C253.93765126 2097.51604597 251.4570939 2095.9031207 248.8125 2093.75 C247.93335938 2093.03585938 247.05421875 2092.32171875 246.1484375 2091.5859375 C245.09848959 2090.72452936 244.0490522 2089.86249875 243 2089 C242.38930664 2088.49887695 241.77861328 2087.99775391 241.14941406 2087.48144531 C236.83980941 2083.94345703 232.5377652 2080.39636487 228.23779297 2076.84667969 C223.9568982 2073.31398407 219.67155322 2069.78668609 215.38549805 2066.26025391 C211.78812953 2063.29966478 208.19502005 2060.33415594 204.609375 2057.359375 C203.15652273 2056.15592067 201.70340077 2054.95279185 200.25 2053.75 C199.55076416 2053.17088867 198.85152832 2052.59177734 198.13110352 2051.99511719 C192.62440817 2047.45844293 186.98280989 2043.13172237 181.24609375 2038.890625 C180.50488281 2038.26671875 179.76367188 2037.6428125 179 2037 C179 2036.34 179 2035.68 179 2035 C178.46632813 2034.77570313 177.93265625 2034.55140625 177.3828125 2034.3203125 C174.20766835 2032.56097033 171.59922736 2030.24647278 168.875 2027.875 C167.71181389 2026.87658224 166.54774302 2025.87919437 165.3828125 2024.8828125 C164.80950195 2024.39200195 164.23619141 2023.90119141 163.64550781 2023.39550781 C158.4139744 2018.95879491 152.98745409 2014.75843794 147.5625 2010.5625 C140.23322647 2004.88361253 133.12200373 1998.93500311 126 1993 C124.76830078 1992.00033203 124.76830078 1992.00033203 123.51171875 1990.98046875 C119.07622683 1987.37931556 114.68319985 1983.761641 110.4375 1979.9375 C106.65016806 1976.53225287 102.72465291 1973.35350463 98.73046875 1970.1953125 C95.62935189 1967.7019968 92.59272127 1965.14108036 89.5625 1962.5625 C83.76768989 1957.63411648 77.90200904 1952.79972206 72 1948 C61.89116164 1939.74756869 51.822634 1931.44636694 41.75195312 1923.14746094 C39.54309373 1921.32732221 37.33407443 1919.50737774 35.125 1917.6875 C34.41166504 1917.0996875 33.69833008 1916.511875 32.96337891 1915.90625 C29.06766383 1912.69748026 25.16328545 1909.49984264 21.25 1906.3125 C17.273104 1903.06580797 13.34852906 1899.76278108 9.4375 1896.4375 C4.97741018 1892.64694166 0.46591869 1888.9405541 -4.125 1885.30859375 C-6.49716558 1883.40377057 -8.84631002 1881.47765779 -11.1875 1879.53515625 C-11.93805664 1878.91294189 -12.68861328 1878.29072754 -13.46191406 1877.6496582 C-14.95542739 1876.40968518 -16.44705411 1875.16743524 -17.93652344 1873.92260742 C-20.95855907 1871.41554848 -23.9194575 1869.05304019 -27.203125 1866.890625 C-30.20304484 1864.86274623 -32.48079838 1862.59410746 -35 1860 C-36.96326692 1858.26627598 -38.93341048 1856.55958357 -40.9375 1854.875 C-41.49018555 1854.40634521 -42.04287109 1853.93769043 -42.61230469 1853.45483398 C-45.66285871 1850.88835247 -48.75560766 1848.39789274 -51.92578125 1845.98046875 C-52.56459229 1845.49143066 -53.20340332 1845.00239258 -53.86157227 1844.49853516 C-55.09852399 1843.55790813 -56.34232177 1842.62620101 -57.59350586 1841.70458984 C-61.78274559 1838.52107988 -61.78274559 1838.52107988 -62.75180054 1836.19682312 C-63.07774475 1833.31187821 -62.47479329 1831.23265595 -61.67431641 1828.44067383 C-61.35348587 1827.30309128 -61.03265533 1826.16550873 -60.70210266 1824.99345398 C-60.33892441 1823.74393448 -59.97574615 1822.49441498 -59.6015625 1821.20703125 C-59.22010757 1819.86779323 -58.8395735 1818.52829264 -58.45988464 1817.18855286 C-57.63224325 1814.27512599 -56.79849733 1811.36353962 -55.96011353 1808.45318604 C-54.59839701 1803.7253729 -53.25054609 1798.99367573 -51.9050293 1794.26123047 C-50.46010612 1789.18120719 -49.01442522 1784.10140765 -47.56443787 1779.02282715 C-42.44583972 1761.09208345 -37.40635421 1743.13934939 -32.37185669 1725.18484497 C-30.79805199 1719.57262481 -29.22238545 1713.96092848 -27.64624023 1708.34936523 C-27.38299611 1707.41213151 -27.11975199 1706.47489779 -26.84853077 1705.50926304 C-26.31495136 1703.60957708 -25.78136708 1701.7098925 -25.24777794 1699.81020927 C-23.90748322 1695.03824679 -22.56751288 1690.26619323 -21.22753906 1685.49414062 C-20.96144679 1684.54651824 -20.69535452 1683.59889585 -20.42119884 1682.62255764 C-19.61412865 1679.74837286 -18.80706356 1676.87418665 -18 1674 C-13.72951514 1658.79156879 -9.45881504 1643.58319807 -5.1875 1628.375 C-4.925741 1627.44298012 -4.66398201 1626.51096024 -4.39429092 1625.55069733 C1.11025395 1605.95143807 6.61633185 1586.35261646 12.13671875 1566.7578125 C12.44246732 1565.67248671 12.44246732 1565.67248671 12.75439262 1564.56523514 C14.75901884 1557.44960958 16.7644043 1550.3341993 18.77207088 1543.21943092 C23.48866045 1526.50380837 28.18180672 1509.78182533 32.85205841 1493.05319214 C34.5857653 1486.84534684 36.32226794 1480.63828285 38.05875015 1474.43121338 C39.75632628 1468.36178117 41.44912704 1462.2910425 43.13851357 1456.21932602 C44.18715883 1452.45475506 45.24024057 1448.6914358 46.29453659 1444.92844391 C46.78734161 1443.16591219 47.27825795 1441.4028512 47.76720047 1439.63924408 C48.4383489 1437.21935103 49.11605334 1434.80138833 49.79541016 1432.38378906 C50.08822121 1431.31869236 50.08822121 1431.31869236 50.38694763 1430.23207855 C51.28483578 1427.06180002 52.15251864 1424.77122204 54 1422 C64.6272373 1432.45428045 64.6272373 1432.45428045 68.4375 1436.9375 C71.45352827 1440.476791 74.69447901 1443.73494445 78 1447 C81.86862111 1450.82132022 85.54712619 1454.70221564 89.0703125 1458.84765625 C93.48803685 1463.77511803 98.28866118 1468.35554139 103 1473 C103.33 1473.33 103.66 1473.66 104 1474 C97.32332544 1462.71156355 90.49301027 1451.53972215 83.4230957 1440.49316406 C79.094958 1433.72915778 74.81353684 1426.93772215 70.5625 1420.125 C69.94012451 1419.12758789 69.31774902 1418.13017578 68.67651367 1417.10253906 C67.41448094 1415.07924663 66.15268121 1413.05580884 64.89111328 1411.03222656 C61.76456576 1406.01909459 58.63199839 1401.00972757 55.5 1396 C54.24997074 1394.00001829 52.99997074 1392.00001828 51.75 1390 C50.821875 1388.515 50.821875 1388.515 49.875 1387 C29.25 1354 29.25 1354 27.37231445 1350.99560547 C26.13138348 1349.01018064 24.89033669 1347.02482821 23.64916992 1345.03955078 C20.38442459 1339.81716058 17.12213246 1334.59325809 13.86328125 1329.3671875 C13.18523437 1328.28050781 12.5071875 1327.19382812 11.80859375 1326.07421875 C10.51227577 1323.99655843 9.21666204 1321.91845848 7.921875 1319.83984375 C7.33535156 1318.90011719 6.74882813 1317.96039062 6.14453125 1316.9921875 C5.6026416 1316.11143555 5.06075195 1315.23068359 4.50244141 1314.32324219 C3.24544956 1312.37954144 1.91174368 1310.66715398 0.44921875 1308.8828125 C-2.85481449 1302.31036903 2.66456028 1291.10935152 4.6953125 1284.34375 C5.04761932 1283.16026978 5.39992615 1281.97678955 5.76290894 1280.75744629 C6.88067789 1277.00408373 8.00258531 1273.25197565 9.125 1269.5 C10.25428993 1265.71938588 11.38198915 1261.93829928 12.5085144 1258.15686035 C13.20807798 1255.80931213 13.90915198 1253.46221339 14.61184692 1251.11560059 C14.92572357 1250.06360474 15.23960022 1249.01160889 15.56298828 1247.92773438 C15.84119415 1246.99779663 16.11940002 1246.06785889 16.40603638 1245.10974121 C17.04516647 1243.20486296 17.04516647 1243.20486296 17 1242 C16.40442921 1241.96245731 15.80885841 1241.92491463 15.19524002 1241.88623428 C0.51111347 1240.95999819 -14.1723708 1240.02403679 -28.85523605 1239.07803726 C-35.95659538 1238.62072613 -43.05812081 1238.16642468 -50.16015625 1237.71972656 C-104.99716342 1234.26751186 -104.99716342 1234.26751186 -126.09375 1231.88671875 C-126.78930748 1231.80864738 -127.48486496 1231.73057602 -128.20149994 1231.65013885 C-160.30767778 1227.98074652 -189.69947835 1221.67154907 -213 1198 C-213.68320313 1197.32582031 -214.36640625 1196.65164063 -215.0703125 1195.95703125 C-251.01209932 1158.44364539 -261.17816683 1098.20029208 -267.4375 1048.8125 C-267.56932678 1047.78638611 -267.70115356 1046.76027222 -267.8369751 1045.70306396 C-271.82694969 1014.25812904 -271.82694969 1014.25812904 -268.16186523 1007.72192383 C-266.03440185 1005.04331409 -264.50143066 1003.22138601 -261.00854492 1002.70635986 C-255.61717134 1002.69135907 -251.2651035 1003.61754862 -246.3125 1005.796875 C-245.59401886 1006.097146 -244.87553772 1006.39741699 -244.13528442 1006.70678711 C-241.7505545 1007.70691173 -239.37573138 1008.72870601 -237 1009.75 C-235.28315635 1010.47350251 -233.56552315 1011.19513387 -231.84716797 1011.91503906 C-228.15843923 1013.46124601 -224.47258439 1015.01405462 -220.78808594 1016.5703125 C-211.95164125 1020.29155105 -203.06639996 1023.89355467 -194.18478394 1027.50527954 C-189.04217815 1029.59729217 -183.90208753 1031.695467 -178.76171875 1033.79296875 C-177.72803665 1034.21458786 -176.69435455 1034.63620697 -175.62934875 1035.07060242 C-168.99029197 1037.77874367 -162.35263221 1040.49028381 -155.71588135 1043.20407104 C-151.20833525 1045.04720357 -146.70045607 1046.88952069 -142.19256592 1048.73181152 C-140.04221485 1049.61088662 -137.89202456 1050.49035516 -135.74200439 1051.37023926 C-132.7542096 1052.59292183 -129.76583798 1053.81418444 -126.77734375 1055.03515625 C-125.90245804 1055.39362137 -125.02757233 1055.75208649 -124.12617493 1056.12141418 C-119.11363339 1058.16747388 -114.07854133 1060.12348977 -109 1062 C-115.9281318 1056.10723289 -122.87863183 1050.24959155 -129.9296875 1044.50390625 C-133.75219317 1041.3865702 -137.56537127 1038.25805417 -141.375 1035.125 C-142.10291748 1034.52647217 -142.83083496 1033.92794434 -143.58081055 1033.3112793 C-148.64673011 1029.13705199 -153.66280059 1024.90842847 -158.65063477 1020.64135742 C-162.21168624 1017.61294918 -165.86875032 1014.78810545 -169.70703125 1012.12109375 C-170.13371094 1011.75113281 -170.56039063 1011.38117187 -171 1011 C-171 1010.34 -171 1009.68 -171 1009 C-171.59224365 1008.72615479 -172.1844873 1008.45230957 -172.79467773 1008.17016602 C-174.92117965 1007.04182286 -176.49105363 1005.86920306 -178.28515625 1004.27734375 C-178.89262695 1003.74343018 -179.50009766 1003.2095166 -180.12597656 1002.65942383 C-180.7650293 1002.09118896 -181.40408203 1001.5229541 -182.0625 1000.9375 C-186.56372152 996.98014886 -191.08064208 993.07224274 -195.75 989.3125 C-200.42196729 985.53207676 -204.84168962 981.52695906 -209.26171875 977.45703125 C-211.88160046 975.10623867 -214.56552219 972.88749541 -217.3125 970.6875 C-223.04618969 966.06276175 -228.38434043 961.06657023 -233.75390625 956.03125 C-240.21766169 949.91957372 -240.21766169 949.91957372 -247.2109375 944.4453125 C-248.09652344 943.72988281 -248.09652344 943.72988281 -249 943 C-249 942.34 -249 941.68 -249 941 C-249.57234375 940.7421875 -250.1446875 940.484375 -250.734375 940.21875 C-253.21128995 938.88634058 -255.1341166 937.34943882 -257.25 935.5 C-257.95640625 934.8915625 -258.6628125 934.283125 -259.390625 933.65625 C-261 932 -261 932 -261 930 C-261.82757812 929.66548828 -261.82757812 929.66548828 -262.671875 929.32421875 C-265.7305676 927.58445903 -267.8073812 925.34235518 -270.25 922.8125 C-273.30223856 919.6588142 -276.35772735 916.65596364 -279.69042969 913.80078125 C-283.95978455 910.08225489 -287.99438194 906.16703684 -292 902.16796875 C-293.08172485 901.0912365 -293.08172485 901.0912365 -294.18530273 899.99275208 C-295.69238218 898.49069473 -297.19814717 896.98731744 -298.70263672 895.48266602 C-301.01641031 893.17110539 -303.33810131 890.86769116 -305.66015625 888.56445312 C-307.12809197 887.09944695 -308.59555735 885.6339693 -310.0625 884.16796875 C-310.75923828 883.47841599 -311.45597656 882.78886322 -312.17382812 882.07841492 C-313.12612305 881.12150505 -313.12612305 881.12150505 -314.09765625 880.14526367 C-314.94082397 879.30423347 -314.94082397 879.30423347 -315.80102539 878.44621277 C-317 877 -317 877 -317 875 C-317.59232422 874.74476563 -318.18464844 874.48953125 -318.79492188 874.2265625 C-321.22627304 872.87413687 -322.51365541 871.51057758 -324.28125 869.375 C-327.88766218 865.11497367 -331.66221819 861.05143152 -335.5 857 C-344.36516521 847.64131013 -352.72118707 837.87818731 -361 828 C-361.55139648 827.34290039 -362.10279297 826.68580078 -362.67089844 826.00878906 C-370.60213409 816.53524416 -378.21678484 806.89160094 -385.54980469 796.94873047 C-386.96559498 795.04623248 -388.40364421 793.16328193 -389.8515625 791.28515625 C-398.83217471 779.59241133 -406.95833386 767.35182318 -415 755 C-415.47679199 754.26813477 -415.95358398 753.53626953 -416.44482422 752.78222656 C-455.0489834 693.14688954 -481.98447432 626.46959963 -492 556 C-492.16226074 554.93571777 -492.32452148 553.87143555 -492.49169922 552.77490234 C-498.02716216 515.32912364 -497.56812923 474.41365978 -492 437 C-491.79394509 435.57893883 -491.58789041 434.15787764 -491.38183594 432.73681641 C-479.16801514 349.61939394 -449.34202748 270.04981561 -398 203 C-397.22140625 201.96488281 -396.4428125 200.92976562 -395.640625 199.86328125 C-382.48188179 182.43369469 -367.61714189 166.56468159 -352.25140381 151.07617188 C-350.85776419 149.67065011 -349.46811959 148.26117061 -348.07861328 146.8515625 C-342.77443856 141.54063332 -337.30564255 136.63270823 -331.42895508 131.96142578 C-329.16289318 130.13153923 -327.01098214 128.22887981 -324.875 126.25 C-296.51206517 100.81420079 -261.91913816 79.81663362 -227.4375 64 C-226.5096167 63.57251465 -225.5817334 63.1450293 -224.62573242 62.70458984 C-219.82313068 60.56796874 -219.82313068 60.56796874 -218 60 C-217.34 60.33 -216.68 60.66 -216 61 C-217.77026307 62.47985342 -219.54117075 63.95892351 -221.3125 65.4375 C-221.85720947 65.8927002 -222.40191895 66.34790039 -222.96313477 66.81689453 C-226.42650494 69.7057958 -229.92221182 72.549289 -233.4375 75.375 C-238.42687647 79.42614096 -243.12376923 83.74581165 -247.76147461 88.19091797 C-251.78809452 92 -251.78809452 92 -254 92 C-254.26425781 92.60328125 -254.52851562 93.2065625 -254.80078125 93.828125 C-256.05755074 96.1042287 -257.15440162 97.16818433 -259.1875 98.75 C-262.60083376 101.55557661 -265.39332031 104.63566921 -268.25 107.99609375 C-269.92984577 109.91966714 -271.67650219 111.71313496 -273.5 113.5 C-277.21218372 117.16290694 -280.61329483 121.03669336 -284 125 C-284.81339844 125.93585938 -285.62679688 126.87171875 -286.46484375 127.8359375 C-339.01036538 188.66397697 -375.06019199 263.35041207 -408 380 C-406.58420431 378.44167708 -405.17056967 376.88139063 -403.7578125 375.3203125 C-402.97035645 374.45164551 -402.18290039 373.58297852 -401.37158203 372.68798828 C-399.12396348 370.14050216 -396.984985 367.53691052 -394.875 364.875 C-390.27254083 359.1728382 -385.28305298 353.87174371 -380.22802734 348.56982422 C-377.57999549 345.78645619 -375.04296659 343.05502612 -372.67578125 340.0234375 C-372.12277344 339.35570312 -371.56976562 338.68796875 -371 338 C-370.34 338 -369.68 338 -369 338 C-368.62875 337.13375 -368.62875 337.13375 -368.25 336.25 C-366.81700012 333.67060021 -365.21575324 331.93878408 -363 330 C-362.34 330 -361.68 330 -361 330 C-360.67 329.01 -360.34 328.02 -360 327 C-358.609375 325.59765625 -358.609375 325.59765625 -356.75 324.0625 C-353.62390766 321.42330346 -350.61495237 318.70248373 -347.65209961 315.88110352 C-340.21703201 308.83657395 -332.25966072 302.61624368 -324.03662109 296.52050781 C-322.60831426 295.45415742 -321.1901576 294.37413983 -319.77978516 293.28417969 C-319.06483887 292.73407227 -318.34989258 292.18396484 -317.61328125 291.6171875 C-316.96786377 291.11558105 -316.32244629 290.61397461 -315.6574707 290.09716797 C-314 289 -314 289 -312 289 C-311.7512915 288.18426514 -311.7512915 288.18426514 -311.49755859 287.35205078 C-309.667156 281.58436952 -307.36664684 276.26320448 -304.625 270.875 C-304.19219727 270.0188208 -303.75939453 269.1626416 -303.31347656 268.28051758 C-284.62967893 231.74030996 -262.40255398 196.47423102 -236 165 C-234.49894691 163.14668577 -232.998966 161.29250268 -231.5 159.4375 C-227.83081154 154.9500953 -224.02197865 150.61904751 -220.1171875 146.3359375 C-218.20919797 144.23081252 -216.34952931 142.09386366 -214.5 139.9375 C-211.13123808 136.05472511 -207.50346149 132.46607949 -203.8203125 128.8828125 C-201.93616102 127.12246661 -201.93616102 127.12246661 -201 125 C-200.34 125 -199.68 125 -199 125 C-199 124.34 -199 123.68 -199 123 C-198.34 123 -197.68 123 -197 123 C-197 122.34 -197 121.68 -197 121 C-196.34 121 -195.68 121 -195 121 C-195 120.34 -195 119.68 -195 119 C-193.56640625 117.58984375 -193.56640625 117.58984375 -191.5625 115.9375 C-188.39242783 113.24825006 -185.41418475 110.46486623 -182.5 107.5 C-178.49290064 103.45201187 -174.34079534 99.68445515 -170 96 C-169.04351563 95.17757812 -168.08703125 94.35515625 -167.1015625 93.5078125 C-142.136238 72.11446759 -115.21320483 53.35871145 -86.70117188 36.98876953 C-84.41870845 35.6621368 -82.18026276 34.26744377 -79.9375 32.875 C-73.17635403 28.82506231 -66.09865834 25.40850448 -59 22 C-58.04996094 21.54286621 -57.09992188 21.08573242 -56.12109375 20.61474609 C-41.44655697 13.59517864 -26.65334397 7.24826921 -11.31445312 1.81933594 C-9.37393083 1.13237467 -7.44344102 0.41716289 -5.515625 -0.3046875 C-3 -1 -3 -1 0 0 Z M504 1474 C504 1477 504 1477 504 1477 Z " fill="#00450F" transform="translate(1617,28)"/>
<path d="M0 0 C3.08533129 1.37054627 6.16794567 2.74710174 9.25 4.125 C10.62031372 4.73480713 10.62031372 4.73480713 12.01831055 5.35693359 C17.97106169 8.02542641 23.72931493 10.86184726 29.39453125 14.1015625 C33.97215445 15.68005326 37.96908668 14.43258642 42.33325195 12.60131836 C43.45691162 12.02003174 44.58057129 11.43874512 45.73828125 10.83984375 C46.34512253 10.53051407 46.95196381 10.22118439 47.57719421 9.90248108 C49.49401454 8.92364273 51.40348481 7.93146203 53.3125 6.9375 C55.24039716 5.94218494 57.1697137 4.94981875 59.10136414 3.96180725 C60.84190493 3.07030506 62.57793574 2.17001403 64.3137207 1.26928711 C67 0 67 0 69 0 C70.83588265 5.82812921 72.66774528 11.65750574 74.49627686 17.48794556 C75.16596932 19.62271502 75.83625843 21.7572974 76.50714111 23.89169312 C80.52169623 36.67177953 84.4602378 49.46931773 88.2421875 62.3203125 C88.94066397 64.68142348 89.63923089 67.0425077 90.33789062 69.40356445 C91.34724323 72.81652612 92.3513603 76.23053521 93.33764648 79.65023804 C100.03946196 102.88440017 108.38815515 123.36096205 125.34765625 141.07421875 C127 143 127 143 127 145 C127.66 145 128.32 145 129 145 C129 145.66 129 146.32 129 147 C129.86044922 147.37898438 129.86044922 147.37898438 130.73828125 147.765625 C133.27581613 149.15053177 135.08251862 150.77154756 137.1875 152.75 C140.26598325 155.61004302 143.09736857 157.63136732 146.8125 159.5625 C151.08500993 162.33229739 151.88161787 164.92843304 153.04589844 169.8046875 C153.29015627 170.79981606 153.29015627 170.79981606 153.5393486 171.81504822 C154.04097118 173.87348316 154.52117027 175.93616043 155 178 C155.29193237 179.20358154 155.58386475 180.40716309 155.88464355 181.6472168 C156.76091509 185.28122164 157.6108694 188.92046776 158.453125 192.5625 C158.67930637 193.53823975 158.67930637 193.53823975 158.91005707 194.53369141 C159.70386594 197.95818949 160.4948521 201.38332352 161.28320312 204.80908203 C162.09210262 208.32173269 162.91056354 211.83208477 163.73112869 215.34202576 C164.36768816 218.07243847 164.9973725 220.8044037 165.62520599 223.53683472 C166.06799643 225.45609801 166.51795476 227.37370313 166.96807861 229.29125977 C170.18292953 243.38671609 170.18292953 243.38671609 168.10473633 247.9777832 C167.68474365 248.49687256 167.26475098 249.01596191 166.83203125 249.55078125 C166.35781738 250.15704346 165.88360352 250.76330566 165.39501953 251.38793945 C164.61167236 252.34059692 164.61167236 252.34059692 163.8125 253.3125 C162.70001214 254.72774514 161.5894005 256.14446671 160.48046875 257.5625 C159.90345215 258.29210938 159.32643555 259.02171875 158.73193359 259.7734375 C155.92694865 263.3795078 153.28004806 267.09543272 150.625 270.8125 C145.94908755 277.31561735 141.24235843 283.79515804 136.5 290.25 C135.92459473 291.03608643 135.34918945 291.82217285 134.75634766 292.63208008 C134.20769043 293.3773999 133.6590332 294.12271973 133.09375 294.890625 C132.37735352 295.86563965 132.37735352 295.86563965 131.64648438 296.86035156 C131.10314453 297.56643555 130.55980469 298.27251953 130 299 C128.99996948 300.59400635 128.99996948 300.59400635 127.97973633 302.22021484 C126.26991505 304.23988874 125.34430471 304.920715 122.74069214 305.52026367 C119.88513707 305.69543194 117.09007045 305.67429303 114.23046875 305.5859375 C113.19432938 305.57744781 112.15819 305.56895813 111.09065247 305.56021118 C107.78853396 305.52668398 104.48887753 305.45140187 101.1875 305.375 C98.94599886 305.3448997 96.70445936 305.31752402 94.46289062 305.29296875 C88.97442357 305.2268954 83.48738767 305.12655366 78 305 C79.26630832 301.55734183 80.718501 298.72539843 82.8515625 295.74609375 C83.44461182 294.90908936 84.03766113 294.07208496 84.64868164 293.2097168 C85.3008667 292.29488525 85.95305176 291.38005371 86.625 290.4375 C88.05545926 288.39207377 89.48368724 286.34508601 90.91015625 284.296875 C93.63944428 280.37942613 96.37460959 276.46630777 99.12060547 272.56054688 C101.9094999 268.58715402 104.66696735 264.59320574 107.40911865 260.58743286 C108.50628245 258.99486653 109.61304576 257.40886869 110.72955322 255.82980347 C112.31530862 253.58401255 113.86548063 251.31714004 115.41015625 249.04296875 C115.88956161 248.38004822 116.36896698 247.71712769 116.86289978 247.03411865 C120.53785875 241.50175185 120.22100591 237.38321687 119 231 C118.81630859 229.78763672 118.63261719 228.57527344 118.44335938 227.32617188 C118.24548828 226.21822266 118.04761719 225.11027344 117.84375 223.96875 C117.62589844 222.74671875 117.40804688 221.5246875 117.18359375 220.265625 C116.95800781 219.02296875 116.73242188 217.7803125 116.5 216.5 C116.16162109 214.58960938 116.16162109 214.58960938 115.81640625 212.640625 C114.95417841 206.65153673 114.95417841 206.65153673 113 201 C112.37996094 201.67804688 111.75992187 202.35609375 111.12109375 203.0546875 C92.36296337 222.76847226 66.18038452 234.34102527 38.89453125 235.16796875 C5.48462404 235.54395149 -20.77592719 223.41098269 -45 201 C-52.56694473 224.18328677 -52.56694473 224.18328677 -49.3359375 247.30078125 C-46.16055183 252.38024504 -42.41706996 256.99729558 -38.51513672 261.53205872 C-32.36280824 268.73014594 -27.29371258 276.68684893 -22.07373047 284.57049561 C-20.39084591 287.10117135 -18.68960411 289.61834036 -16.98046875 292.13134766 C-16.44990875 292.91215698 -15.91934875 293.69296631 -15.37271118 294.49743652 C-14.36666684 295.97718496 -13.3596838 297.45629573 -12.35165405 298.93469238 C-9 303.88776761 -9 303.88776761 -9 305 C-15.61403394 305.40890043 -22.22477958 305.68707731 -28.84863281 305.87890625 C-31.09596427 305.95891461 -33.34247446 306.0677801 -35.58691406 306.20703125 C-53.66679457 307.29985958 -53.66679457 307.29985958 -59.14508057 303.51992798 C-62.87302819 299.81705898 -65.48190992 295.54259877 -67.94824219 290.93121338 C-69.26807305 288.50777046 -70.84597857 286.3553712 -72.5234375 284.16796875 C-73.47529206 282.84210232 -74.42584331 281.51529912 -75.375 280.1875 C-80.6090492 272.90216061 -85.90816424 265.66716124 -91.24365234 258.45581055 C-92.33104906 256.98503064 -93.40911979 255.50729795 -94.4765625 254.02197266 C-95.94241417 251.99926562 -95.94241417 251.99926562 -97.5859375 250.31787109 C-99.86474846 247.76575679 -101.05529316 246.06623582 -100.87327576 242.55633545 C-100.69522903 241.62476624 -100.51718231 240.69319702 -100.33374023 239.73339844 C-100.13203217 238.66518356 -99.9303241 237.59696869 -99.72250366 236.49638367 C-98.41574538 230.17263951 -97.05226703 223.86470299 -95.62890625 217.56640625 C-95.30261017 216.11580744 -94.97635257 214.66519997 -94.65013123 213.21458435 C-93.97103877 210.19952306 -93.2889783 207.18514998 -92.60522461 204.17114258 C-91.73164887 200.31760741 -90.86953905 196.46160095 -90.01004124 192.60490513 C-89.34257481 189.61893512 -88.66713406 186.63481027 -87.98948479 183.6511364 C-87.66803592 182.22968829 -87.34949709 180.80757869 -87.03399849 179.38479805 C-86.5930129 177.39990697 -86.13965328 175.41777738 -85.68579102 173.43579102 C-85.3051223 171.74801292 -85.3051223 171.74801292 -84.91676331 170.02613831 C-83.12993413 164.12800498 -80.4158751 161.25498377 -75.4375 157.75 C-49.15270823 138.72553924 -35.10756806 113.80997341 -25.9609375 83.32421875 C-25.42733554 81.58005254 -24.89261105 79.83622942 -24.35684204 78.09272766 C-22.96372042 73.54851698 -21.5858487 68.99982821 -20.21136475 64.44995117 C-18.8249188 59.87062232 -17.4234135 55.29590973 -16.0234375 50.72070312 C-13.957628 43.96155588 -11.89776973 37.20064854 -9.84912109 30.4362793 C-9.61814917 29.67457271 -9.38717724 28.91286612 -9.14920616 28.12807751 C-7.86613961 23.88935001 -6.59732985 19.64672601 -5.34161377 15.39981079 C-5.06764078 14.47648107 -4.79366779 13.55315134 -4.51139259 12.60184193 C-3.98064326 10.81145854 -3.45254032 9.02028803 -2.92737389 7.22825909 C-1.11173998 1.11173998 -1.11173998 1.11173998 0 0 Z " fill="#FEFEFE" transform="translate(1888,1297)"/>
<path d="M0 0 C1.4003356 2.8006712 0.64003584 4.27506563 -0.07421875 7.30859375 C-0.32792236 8.43104492 -0.58162598 9.55349609 -0.84301758 10.70996094 C-1.12169678 11.94004883 -1.40037598 13.17013672 -1.6875 14.4375 C-4.19450063 25.98940859 -6.00768755 37.50221233 -7.3125 49.25 C-7.39317719 49.96332489 -7.47385437 50.67664978 -7.55697632 51.41159058 C-9.85861409 71.99933543 -10.24403314 92.48457094 -10.25 113.1875 C-10.25066278 114.24359529 -10.25066278 114.24359529 -10.25133896 115.32102585 C-10.25986078 141.31123082 -9.36827215 167.10769025 -7 193 C-6.91514343 193.93942444 -6.83028687 194.87884888 -6.74285889 195.84674072 C-3.00222666 236.97111417 2.80974046 277.79122181 10.51098633 318.3581543 C10.67750702 319.24128296 10.84402771 320.12441162 11.01559448 321.03430176 C11.32575255 322.6737959 11.63993572 324.31253609 11.95901489 325.95031738 C12.66569002 329.68035596 13.18100892 333.19975308 13 337 C-23.35501465 290.2415485 -45.616877 218.52330685 -54 161 C-54.11714355 160.23059082 -54.23428711 159.46118164 -54.35498047 158.66845703 C-60.55280562 116.66506844 -55.46055391 68.89873933 -29.6875 33.875 C-20.45166408 22.06135371 -10.60772924 10.60772924 0 0 Z " fill="#FCFDFD" transform="translate(1270,422)"/>
<path d="M0 0 C11.31629072 9.05303257 20.31406505 20.49069394 29 32 C29.64839844 32.85207031 30.29679687 33.70414062 30.96484375 34.58203125 C57.09644299 70.31299347 61.48820433 118.48875659 55.47827148 161.26098633 C55.02264983 164.18173449 54.52182241 167.09035952 54 170 C53.80132324 171.11858398 53.60264648 172.23716797 53.39794922 173.38964844 C43.36185098 228.37393498 21.9612261 289.38932117 -10 336 C-10.66 336.33 -11.32 336.66 -12 337 C-10.73500974 329.3233952 -9.4177327 321.65834092 -8.046875 314 C1.02128812 262.9563741 8.11248227 211.79435755 11 160 C11.05784668 159.00242676 11.11569336 158.00485352 11.17529297 156.97705078 C13.88217669 108.58246785 12.69981919 59.27380889 2.05078125 11.84375 C1.16796043 7.9058341 0.50047646 4.00381171 0 0 Z " fill="#FCFDFD" transform="translate(2573,422)"/>
<path d="M0 0 C0.99 0.495 0.99 0.495 2 1 C-11.57515836 85.19456114 -11.57515836 85.19456114 -41.4375 110 C-72.06267476 131.64606593 -122.6451416 127.73081019 -158.3125 129.6875 C-160.12965515 129.78756348 -160.12965515 129.78756348 -161.98352051 129.88964844 C-165.4640981 130.07965926 -168.94487027 130.26542559 -172.42578125 130.44921875 C-173.46182999 130.50530807 -174.49787872 130.5613974 -175.56532288 130.6191864 C-181.38638391 130.91940713 -187.17118559 131.05312967 -193 131 C-190.70857221 128.70857221 -188.94649953 128.05873296 -185.9375 126.875 C-170.59450831 120.58510056 -156.21682276 112.97573491 -141.87597656 104.66162109 C-139.20500317 103.11844241 -136.52246082 101.59791676 -133.8359375 100.08203125 C-103.71910093 82.89580861 -75.37067078 62.22843363 -48 41 C-47.06414063 40.27683594 -47.06414063 40.27683594 -46.109375 39.5390625 C-39.17053475 34.17183991 -32.35507826 28.68951763 -25.68920898 22.98608398 C-22.28057351 20.06983595 -18.81735613 17.23843137 -15.3125 14.4375 C-9.8219118 9.98043428 -4.9024253 5.0938432 0 0 Z " fill="#FCFDFD" transform="translate(2442,1086)"/>
<path d="M0 0 C4.16784814 3.5195162 8.23454761 7.11966646 12.25 10.8125 C17.15107074 15.28190462 22.20036177 19.50542873 27.36279297 23.66748047 C29.22388068 25.18221604 31.06757206 26.71671785 32.91015625 28.25390625 C42.38811838 36.15019432 52.04064422 43.72101099 62 51 C62.70205566 51.51385254 63.40411133 52.02770508 64.12744141 52.55712891 C69.3948396 56.40442424 74.6909301 60.21047556 80 64 C80.78890625 64.56477051 81.5778125 65.12954102 82.390625 65.71142578 C116.88085762 90.34829961 154.36867301 114.51741495 194 130 C194 130.33 194 130.66 194 131 C63.12419785 126.33033721 63.12419785 126.33033721 41 108 C40.38898438 107.50113281 39.77796875 107.00226563 39.1484375 106.48828125 C13.60089292 83.33217349 4.16801486 37.41560075 0 5 C-0.03058114 3.33361392 -0.04043108 1.66617619 0 0 Z " fill="#FCFDFD" transform="translate(1401,1086)"/>
<path d="M0 0 C3.99305219 2.15010503 6.34523994 3.7818393 8 8 C10.07877637 19.9194355 9.12517459 33.3415041 3 44 C-6.58897787 56.78530383 -20.9951323 67.27675059 -37 70 C-54.36873611 71.69735148 -68.44595704 67.76640085 -82.4609375 57.1328125 C-86.73236904 53.5398755 -89.5715978 50.81521446 -90.4375 45.125 C-89.86352638 41.02518845 -87.94772834 38.7480916 -85 36 C-82.49702636 34.38218457 -79.8686511 33.1938199 -77.140625 32.00390625 C-76.37083313 31.65320068 -75.60104126 31.30249512 -74.80792236 30.94116211 C-72.2949183 29.80035459 -69.77281313 28.68142537 -67.25 27.5625 C-65.50260429 26.77414626 -63.75586568 25.98433453 -62.00976562 25.19311523 C-58.43645505 23.5765268 -54.85952591 21.96839373 -51.27929688 20.3671875 C-46.28521883 18.13185188 -41.30445378 15.86828148 -36.328125 13.59375 C-34.82130501 12.90548266 -33.31446944 12.21724943 -31.80761719 11.52905273 C-31.08876343 11.20073456 -30.36990967 10.87241638 -29.62927246 10.53414917 C-26.26517579 8.99901367 -22.89896012 7.46859679 -19.53125 5.94140625 C-18.43361328 5.44326416 -17.33597656 4.94512207 -16.20507812 4.43188477 C-15.14740234 3.95936279 -14.08972656 3.48684082 -13 3 C-12.08250977 2.58728348 -12.08250977 2.58728348 -11.14648438 2.16622925 C-7.16388672 0.40773131 -4.37343892 -0.65136324 0 0 Z " fill="#FDFDFD" transform="translate(2110,1225)"/>
<path d="M0 0 C5.00358146 1.8062168 9.76585785 4.08940083 14.5625 6.375 C15.99532733 7.04419332 17.42885661 7.71188548 18.86303711 8.37817383 C21.93819414 9.80914126 25.00933227 11.24830809 28.078125 12.69287109 C33.2262969 15.11206157 38.3928631 17.49037768 43.5625 19.86328125 C45.32871436 20.67459905 47.09490914 21.48595946 48.86108398 22.29736328 C49.72466522 22.69409241 50.58824646 23.09082153 51.47799683 23.49957275 C55.60301497 25.39557408 59.72636493 27.29513033 63.84765625 29.19921875 C64.55474731 29.52473221 65.26183838 29.85024567 65.99035645 30.18562317 C69.47292051 31.79654031 72.94053992 33.4364055 76.38842773 35.12036133 C77.03488754 35.43556229 77.68134735 35.75076324 78.34739685 36.07551575 C81.79362413 38.00337293 82.75698811 40.20153236 83.875 43.875 C84.0419762 48.04940503 83.41729086 49.54672734 81 53 C69.40543404 64.43093297 54.70850488 70.43273542 38.57958984 70.36572266 C23.08933533 70.00018082 9.17747925 62.39543719 -2 52 C-11.00964512 42.45529932 -14.17561525 32.00957208 -14.25 19.1875 C-14.270625 18.31029297 -14.29125 17.43308594 -14.3125 16.52929688 C-14.3461345 10.90813152 -13.7620852 6.93690463 -11 2 C-7.13956821 -0.57362119 -4.45166213 -0.79647972 0 0 Z " fill="#FDFDFD" transform="translate(1741,1226)"/>
<path d="M0 0 C41.91 0 83.82 0 127 0 C125.49963177 3.75092057 124.65875813 5.73822963 122.3125 8.71484375 C121.78333984 9.39442139 121.25417969 10.07399902 120.70898438 10.77416992 C120.14501953 11.48806885 119.58105469 12.20196777 119 12.9375 C113.89484032 19.49427975 108.98108623 26.1400565 104.21875 32.94921875 C103.4865625 33.95597656 102.754375 34.96273438 102 36 C101.15610718 37.54385376 101.15610718 37.54385376 100.29516602 39.11889648 C97.45509762 42.46030746 94.63442272 42.5819747 90.38061523 42.93505859 C87.60633234 43.06627857 84.83561742 43.11666498 82.05859375 43.1484375 C80.56990519 43.17791572 79.08122216 43.20767501 77.59254456 43.23770142 C74.47127011 43.29162823 71.35094497 43.31876055 68.22924805 43.33154297 C65.04386176 43.34891264 61.86656115 43.41815086 58.68334961 43.53662109 C30.9296803 44.5512823 30.9296803 44.5512823 24.43823242 38.70117188 C21.669276 35.42650755 19.72377116 31.88672317 17.95272827 27.99517822 C16.61096997 25.18530365 14.79424613 22.85941047 12.87109375 20.421875 C11.72582539 18.86512534 10.58126055 17.3078578 9.4375 15.75 C8.26967689 14.16135126 7.10171346 12.57280566 5.93359375 10.984375 C5.43915771 10.31116211 4.94472168 9.63794922 4.43530273 8.94433594 C3.43027613 7.58287449 2.38695995 6.2492371 1.31665039 4.93847656 C0 3 0 3 0 0 Z " fill="#FBFCFC" transform="translate(1859,1639)"/>
</svg>