<svg xmlns="http://www.w3.org/2000/svg" version="1.1" viewBox="-1.59 -0.5 303.23 300.89">
<path d="M0 0 C2.54729404 0.00850475 5.09232973 -0.02038107 7.6394043 -0.05200195 C23.01602046 -0.11825255 37.68634528 2.6076263 52.24682617 7.57104492 C53.10864502 7.86325928 53.97046387 8.15547363 54.85839844 8.45654297 C93.13121744 22.00633014 123.30968515 51.71677415 140.62866211 87.97973633 C143.93786492 95.27876839 146.48431227 102.7658527 148.74682617 110.44604492 C148.97128418 111.16614746 149.19574219 111.88625 149.42700195 112.62817383 C156.37908043 135.77864852 155.90497842 167.42513766 148.74682617 190.44604492 C148.51608398 191.23672363 148.2853418 192.02740234 148.04760742 192.84204102 C137.12825647 229.68040689 112.81879692 260.9850515 79.74682617 280.44604492 C79.1620752 280.7926416 78.57732422 281.13923828 77.97485352 281.49633789 C58.9202355 292.63201776 36.31510651 300.4686314 14.11401367 300.68432617 C13.28843964 300.69416534 12.4628656 300.70400452 11.61227417 300.71414185 C-22.48831667 301.03704971 -22.48831667 301.03704971 -37.25317383 296.44604492 C-38.04385254 296.21530273 -38.83453125 295.98456055 -39.64916992 295.74682617 C-76.47234309 284.83197853 -109.08046207 259.90138333 -128.25317383 226.44604492 C-134.42895149 214.93126654 -139.81591359 203.07111486 -143.25317383 190.44604492 C-143.44637207 189.80699219 -143.63957031 189.16793945 -143.83862305 188.50952148 C-150.7396851 165.15294739 -150.47650116 133.67655789 -143.25317383 110.44604492 C-143.02243164 109.65536621 -142.79168945 108.8646875 -142.55395508 108.05004883 C-131.39299378 70.39656762 -105.51232309 36.9949698 -70.8449707 18.13598633 C-61.66550247 13.35075701 -52.30133482 9.17818916 -42.44067383 6.00854492 C-41.75005859 5.78585938 -41.05944336 5.56317383 -40.34790039 5.33374023 C-26.95148114 1.31790832 -13.91251404 -0.07043302 0 0 Z " fill="#0D2440" transform="translate(147.253173828125,-0.446044921875)"/>
<path d="M0 0 C3.84478875 1.45836815 5.1822915 3.36458299 7 7 C7.92323685 9.98180551 8.10829157 12.63617342 8.0625 15.75 C8.05347656 16.54921875 8.04445313 17.3484375 8.03515625 18.171875 C8.02355469 18.77515625 8.01195312 19.3784375 8 20 C6.05731159 17.08596738 4.53604696 14.14191424 3 11 C2.87044922 12.34578125 2.87044922 12.34578125 2.73828125 13.71875 C1.35635139 25.99130137 -1.77183508 37.15328421 -6.8125 48.4375 C-9.06458051 53.63569841 -9.62618542 57.36433119 -9 63 C-8.01 64.485 -8.01 64.485 -7 66 C-1.0059486 65.57406612 2.66572709 63.72856221 7.625 60.4375 C15.44501568 55.26341332 15.44501568 55.26341332 20 56 C21 57 21 57 21.0625 59.5625 C21.041875 60.366875 21.02125 61.17125 21 62 C19.96488281 62.38542969 18.92976563 62.77085938 17.86328125 63.16796875 C13.9565975 64.85179952 11.11794276 67.26712816 8.1875 70.3125 C7.67687012 70.83593994 7.16624023 71.35937988 6.64013672 71.89868164 C-6.11227607 85.31779674 -16.82950268 102.36763478 -17.3125 121.375 C-17.19505837 125.20730574 -16.49932238 128.43910934 -15 132 C-14.70996094 131.04287109 -14.70996094 131.04287109 -14.4140625 130.06640625 C-14.02347656 128.82697266 -14.02347656 128.82697266 -13.625 127.5625 C-13.36976563 126.73878906 -13.11453125 125.91507812 -12.8515625 125.06640625 C-12 123 -12 123 -10 122 C-9.62488281 123.06476563 -9.24976563 124.12953125 -8.86328125 125.2265625 C-6.33344653 132.40384654 -3.79990502 139.57981932 -1.25 146.75 C-0.86328125 147.83796875 -0.4765625 148.9259375 -0.078125 150.046875 C0.61734842 151.95186741 1.35186646 153.84326617 2.1328125 155.71484375 C3.10710231 158.28222906 3.15561336 160.27676626 3 163 C1.35 162.34 -0.3 161.68 -2 161 C-1.79503906 161.60328125 -1.59007812 162.2065625 -1.37890625 162.828125 C-1.10949219 163.62734375 -0.84007812 164.4265625 -0.5625 165.25 C-0.29566406 166.03890625 -0.02882813 166.8278125 0.24609375 167.640625 C1.95475725 172.98794498 2.18321647 177.72249966 2.1875 183.3125 C2.19974609 184.14201172 2.21199219 184.97152344 2.22460938 185.82617188 C2.23673399 190.94679921 1.6559124 195.15007474 0 200 C-2.55754885 197.44245115 -3.5502171 194.78912594 -5.0625 191.5 C-7.87668764 185.64346757 -11.1407929 181.13409955 -15.671875 176.42578125 C-19.7373789 172.18974447 -23.37283728 167.61215369 -27 163 C-27.63035156 162.19949219 -28.26070313 161.39898437 -28.91015625 160.57421875 C-35.67195678 151.49408662 -40.07775471 141.14902266 -42 130 C-47.23676006 131.38620119 -50.09953619 134.63587621 -53 139 C-56.39114539 145.06616823 -59.80144329 151.40432986 -62 158 C-62.66 158 -63.32 158 -64 158 C-70.97921944 139.75013168 -77.61603272 117.54919605 -72 98 C-81.30173673 100.78642334 -88.89228422 106.52408118 -96 113 C-97.95253374 107.08853577 -95.19303578 101.59872747 -92.70703125 96.18359375 C-87.25515579 85.67448261 -80.66339194 78.43357551 -70 73 C-69.01 73 -68.02 73 -67 73 C-67 74.98 -67 76.96 -67 79 C-66.34 79 -65.68 79 -65 79 C-64.89558594 77.845 -64.79117188 76.69 -64.68359375 75.5 C-64.11526859 71.01643649 -62.81116715 67.15032691 -61.0625 63 C-60.7538501 62.26507324 -60.4452002 61.53014648 -60.12719727 60.77294922 C-51.7441771 41.54531003 -37.80930777 23.64871855 -24 8 C-22.94425781 6.59814453 -22.94425781 6.59814453 -21.8671875 5.16796875 C-18.17498771 2.3761828 -16.25830543 2.7086302 -11.80664062 3.27148438 C-10.94232422 3.40876953 -10.07800781 3.54605469 -9.1875 3.6875 C-8.30384766 3.80544922 -7.42019531 3.92339844 -6.50976562 4.04492188 C-4.33516603 4.33878668 -2.1674086 4.65767722 0 5 C0 3.35 0 1.7 0 0 Z " fill="#9EA0A1" transform="translate(207,58)"/>
<path d="M0 0 C2.54729404 0.00850475 5.09232973 -0.02038107 7.6394043 -0.05200195 C23.01602046 -0.11825255 37.68634528 2.6076263 52.24682617 7.57104492 C53.10864502 7.86325928 53.97046387 8.15547363 54.85839844 8.45654297 C93.13121744 22.00633014 123.30968515 51.71677415 140.62866211 87.97973633 C143.93786492 95.27876839 146.48431227 102.7658527 148.74682617 110.44604492 C148.97128418 111.16614746 149.19574219 111.88625 149.42700195 112.62817383 C156.37908043 135.77864852 155.90497842 167.42513766 148.74682617 190.44604492 C148.51608398 191.23672363 148.2853418 192.02740234 148.04760742 192.84204102 C137.12825647 229.68040689 112.81879692 260.9850515 79.74682617 280.44604492 C79.1620752 280.7926416 78.57732422 281.13923828 77.97485352 281.49633789 C58.9202355 292.63201776 36.31510651 300.4686314 14.11401367 300.68432617 C13.28843964 300.69416534 12.4628656 300.70400452 11.61227417 300.71414185 C-22.48831667 301.03704971 -22.48831667 301.03704971 -37.25317383 296.44604492 C-38.04385254 296.21530273 -38.83453125 295.98456055 -39.64916992 295.74682617 C-76.47234309 284.83197853 -109.08046207 259.90138333 -128.25317383 226.44604492 C-134.42895149 214.93126654 -139.81591359 203.07111486 -143.25317383 190.44604492 C-143.44637207 189.80699219 -143.63957031 189.16793945 -143.83862305 188.50952148 C-150.7396851 165.15294739 -150.47650116 133.67655789 -143.25317383 110.44604492 C-143.02243164 109.65536621 -142.79168945 108.8646875 -142.55395508 108.05004883 C-131.39299378 70.39656762 -105.51232309 36.9949698 -70.8449707 18.13598633 C-61.66550247 13.35075701 -52.30133482 9.17818916 -42.44067383 6.00854492 C-41.75005859 5.78585938 -41.05944336 5.56317383 -40.34790039 5.33374023 C-26.95148114 1.31790832 -13.91251404 -0.07043302 0 0 Z M-89.25317383 43.44604492 C-89.78958496 43.90269531 -90.32599609 44.3593457 -90.87866211 44.82983398 C-98.13149903 51.06935802 -104.54137864 57.74270345 -110.25317383 65.44604492 C-110.84412842 66.24123535 -110.84412842 66.24123535 -111.44702148 67.05249023 C-121.74939216 81.12382173 -130.18463922 97.44115027 -134.25317383 114.44604492 C-134.43074219 115.10169434 -134.60831055 115.75734375 -134.79125977 116.43286133 C-144.29327066 151.83706548 -137.52986552 189.99307895 -119.58520508 221.56323242 C-99.99936531 254.69587633 -68.57967305 278.04032712 -31.51879883 288.05932617 C5.64948065 297.21888466 44.09639508 290.18820431 76.80932617 270.94604492 C83.25991377 267.00221116 89.06655074 262.43594842 94.74682617 257.44604492 C95.5640918 256.76155273 96.38135742 256.07706055 97.22338867 255.37182617 C124.48943676 231.95764837 140.3073916 197.92062783 143.74682617 162.44604492 C146.13824791 125.38152522 136.45588596 88.93009995 111.74682617 60.44604492 C111.30338867 59.93251465 110.85995117 59.41898438 110.40307617 58.88989258 C96.02122518 42.357914 79.68215993 30.39783925 59.74682617 21.44604492 C59.0471875 21.13006348 58.34754883 20.81408203 57.62670898 20.48852539 C8.7963155 -1.11421785 -49.09506633 9.09292358 -89.25317383 43.44604492 Z " fill="#9DA0A1" transform="translate(147.253173828125,-0.446044921875)"/>
<path d="M0 0 C10.1578731 1.46724834 19.37239085 8.4679182 27 15 C28.21623047 15.99966797 28.21623047 15.99966797 29.45703125 17.01953125 C38.50073667 24.72960269 45.03002071 33.5979526 50.375 44.125 C50.69678223 44.75736572 51.01856445 45.38973145 51.35009766 46.04125977 C56.21313281 56.06950175 57.49933911 65.05914998 57.375 76.1875 C57.36629883 77.47672363 57.35759766 78.76594727 57.34863281 80.09423828 C57.20931507 89.12819428 56.41981768 97.27399079 54 106 C53.73316406 107.20785156 53.46632813 108.41570312 53.19140625 109.66015625 C50.45327735 121.4280258 45.31416813 131.73210042 39 142 C36.74157747 139.74157747 36.47223678 138.58664313 35.67578125 135.55078125 C29.25051593 113.1886133 15.22790977 92.24749832 -0.17724609 75.05883789 C-3.9951985 70.65684452 -3.9951985 70.65684452 -4.01953125 67.328125 C-1.93248367 62.56229987 0.76901606 57.93390025 5.6875 55.875 C8 56 8 56 11 58 C11.1083667 55.2697611 11.18746694 52.54385457 11.25 49.8125 C11.28351563 49.04357422 11.31703125 48.27464844 11.3515625 47.48242188 C11.44120625 42.26067332 10.73179661 39.90782475 7 36 C6.54625 34.845 6.0925 33.69 5.625 32.5 C4.04086931 29.08802621 3.61389224 28.52235252 0.75 26.5625 C-0.1575 25.716875 -1.065 24.87125 -2 24 C-1.9375 20.6875 -1.9375 20.6875 -1.5 18.66796875 C-0.80528587 14.96101757 -0.64255393 11.26152247 -0.4375 7.5 C-0.35307229 6.07290436 -0.26845204 4.6458201 -0.18359375 3.21875 C-0.12300781 2.1565625 -0.06242188 1.094375 0 0 Z " fill="#255F91" transform="translate(222,75)"/>
<path d="M0 0 C-1.30198647 4.82362458 -3.48334433 8.69007717 -6.03710938 12.92651367 C-16.14443382 29.70523169 -22.39851012 46.79205397 -26 66 C-26.18691406 66.82628906 -26.37382813 67.65257812 -26.56640625 68.50390625 C-27.16756711 71.96464309 -27.32439221 75.43510025 -27.5 78.9375 C-27.63573246 81.62952711 -27.80655564 84.31058599 -28 87 C-28.03222656 88.04542969 -28.06445312 89.09085937 -28.09765625 90.16796875 C-29.45440067 94.42614929 -32.30329114 95.99061321 -35.9375 98.375 C-36.58396484 98.82488281 -37.23042969 99.27476562 -37.89648438 99.73828125 C-42.67009403 103 -42.67009403 103 -45 103 C-41.27383821 107.06814222 -37.51900729 109.69025042 -32.6875 112.3125 C-32.04232422 112.67150391 -31.39714844 113.03050781 -30.73242188 113.40039062 C-29.15910645 114.27445475 -27.58012535 115.13830783 -26 116 C-27.42406457 119.88252431 -29.2384254 123.25039741 -31.4375 126.75 C-32.03433594 127.71421875 -32.63117187 128.6784375 -33.24609375 129.671875 C-35 132 -35 132 -38 133 C-53.06195044 106.20973 -58.91297879 82.63611091 -58 52 C-57.97921387 51.24477051 -57.95842773 50.48954102 -57.93701172 49.71142578 C-57.6176025 40.07473121 -55.63949413 34.27321967 -48.875 27.1875 C-48.38563965 26.66833008 -47.8962793 26.14916016 -47.39208984 25.61425781 C-46.39815823 24.56376098 -45.40096217 23.5163424 -44.40039062 22.47216797 C-43.15921987 21.16738072 -41.94470269 19.83735348 -40.734375 18.50390625 C-29.73208406 6.74775464 -16.09623839 -0.31561252 0 0 Z " fill="#255F90" transform="translate(79,88)"/>
<path d="M0 0 C11.03749817 10.50606308 19.73162186 23.6769453 27 37 C27.34901367 37.63760254 27.69802734 38.27520508 28.05761719 38.93212891 C32.11646173 46.44940827 35.59637183 54.08781314 38.5 62.125 C38.88321411 63.17276611 38.88321411 63.17276611 39.27416992 64.24169922 C40.67027065 68.29407174 41.71416688 71.74333866 41 76 C39.48792595 78.53427857 37.61438198 80.64199204 35.625 82.8125 C34.8062439 83.73216553 34.8062439 83.73216553 33.97094727 84.67041016 C26.27552449 93.18654366 17.70280156 100.81783303 8 107 C7.34 107 6.68 107 6 107 C5.4926043 103.79279138 4.995421 100.58407837 4.5 97.375 C4.35691406 96.47136719 4.21382812 95.56773437 4.06640625 94.63671875 C3.36265833 90.04560134 2.81415222 85.66168185 3 81 C3.99 81.33 4.98 81.66 6 82 C6.90406792 69.56906613 2.83476412 57.30101242 -2 46 C-8.05101696 31.7865474 -5.73544914 15.26340101 -1 1 C-0.67 0.67 -0.34 0.34 0 0 Z " fill="#255E90" transform="translate(213,152)"/>
<path d="M0 0 C6.58122054 0.36562336 10.68380925 5.50256952 15 10 C22.35809229 19.09486723 22.35809229 19.09486723 23 24 C21.11470869 26.37934675 19.26271963 28.4317408 17.125 30.5625 C15.90235603 31.82562131 14.68231327 33.0912655 13.46484375 34.359375 C12.86526855 34.98134766 12.26569336 35.60332031 11.64794922 36.24414062 C9.52895543 38.50188927 7.60164202 40.87971132 5.6875 43.3125 C-3.07068906 54.22013472 -13.08171376 64.15277982 -22.9375 74.0625 C-23.53457764 74.66425049 -24.13165527 75.26600098 -24.74682617 75.88598633 C-28.87667469 80 -28.87667469 80 -30 80 C-30.24074356 72.92359828 -29.40872712 66.5405512 -27.9375 59.625 C-27.71416992 58.57497803 -27.49083984 57.52495605 -27.26074219 56.44311523 C-22.79784121 36.41926259 -14.77830706 14.77830706 0 0 Z " fill="#255E90" transform="translate(89,92)"/>
<path d="M0 0 C12.71891505 -1.09613235 25.05831135 9.40719726 34.32470703 17.14892578 C34.83759277 17.58188965 35.35047852 18.01485352 35.87890625 18.4609375 C36.39050293 18.88745605 36.90209961 19.31397461 37.42919922 19.75341797 C51.00441762 31.193112 64.79021884 47.16467357 69.87890625 64.4609375 C66.3231233 61.48569054 62.94717075 58.56672119 59.81640625 55.1484375 C51.39484017 46.65201306 40.03173032 41.31079789 29.375 36.1875 C20.61616024 31.86190539 20.61616024 31.86190539 19.00390625 27.6484375 C17.20720808 23.67678892 15.01471152 21.5124998 11.62109375 18.83984375 C9.17680624 16.90523951 7.04925522 14.69329644 4.87890625 12.4609375 C3.04073032 10.16271135 3.04073032 10.16271135 0.25390625 10.3984375 C-5.04743443 12.06737808 -9.46495782 15.84993427 -12.45239258 20.55981445 C-14.12109375 22.4609375 -14.12109375 22.4609375 -16.23242188 22.88232422 C-17.03099609 22.84381348 -17.82957031 22.80530273 -18.65234375 22.765625 C-19.54050781 22.72920898 -20.42867187 22.69279297 -21.34375 22.65527344 C-22.26027344 22.59114258 -23.17679688 22.52701172 -24.12109375 22.4609375 C-24.98605469 22.40454102 -25.85101563 22.34814453 -26.7421875 22.29003906 C-29.37301905 22.09124314 -31.99563026 21.84576919 -34.62109375 21.5859375 C-35.93013672 21.46798828 -35.93013672 21.46798828 -37.265625 21.34765625 C-43.3118465 20.76542751 -49.18849843 19.75929013 -55.12109375 18.4609375 C-55.12109375 17.4709375 -55.12109375 16.4809375 -55.12109375 15.4609375 C-38.72293989 8.41866103 -22.98337975 2.85438841 -5.18310547 0.70996094 C-3.45185027 0.50088205 -1.72512281 0.25477408 0 0 Z " fill="#245D8F" transform="translate(198.12109375,32.5390625)"/>
<path d="M0 0 C4.68524352 1.75874643 8.80149183 4.25360747 12.8203125 7.21484375 C12.28961168 11.03588966 11.62186238 13.49888093 8.8203125 16.21484375 C6.25243027 16.57567029 4.01295495 16.71725073 1.4453125 16.71484375 C-17.9959768 17.39868617 -31.70324587 27.04093448 -45.1796875 40.21484375 C-45.5096875 39.55484375 -45.8396875 38.89484375 -46.1796875 38.21484375 C-45.13851738 35.71847096 -44.0373743 33.36561874 -42.8046875 30.96484375 C-42.44181641 30.25191162 -42.07894531 29.53897949 -41.70507812 28.80444336 C-37.97609326 21.61499241 -33.7880217 14.86766253 -29.1796875 8.21484375 C-28.61378906 7.26738281 -28.04789063 6.31992188 -27.46484375 5.34375 C-21.13797632 -3.85244506 -9.83882066 -2.42948766 0 0 Z " fill="#255E8F" transform="translate(75.1796875,63.78515625)"/>
<path d="M0 0 C0.01417969 0.61746094 0.02835938 1.23492188 0.04296875 1.87109375 C0.38157034 7.88355979 1.65447035 11.98143362 4.84375 17.08984375 C6 19 6 19 7 22 C-3.94948964 28.43362302 -14.95883012 27.57996264 -27.25 27.3125 C-29.26689929 27.28737386 -31.2838289 27.26456836 -33.30078125 27.24414062 C-38.20128021 27.18951526 -43.10029925 27.10348341 -48 27 C-45.75669863 24.07484504 -43.69762776 21.50732799 -40.671875 19.38671875 C-40.04474609 18.94714844 -39.41761719 18.50757812 -38.77148438 18.0546875 C-38.10439453 17.60351562 -37.43730469 17.15234375 -36.75 16.6875 C-36.05197266 16.21183594 -35.35394531 15.73617187 -34.63476562 15.24609375 C-25.13612737 8.91933738 -11.70381681 0 0 0 Z " fill="#255E90" transform="translate(112,27)"/>
<path d="M0 0 C1.11659752 -0.01428291 1.11659752 -0.01428291 2.25575256 -0.02885437 C4.65621762 -0.05330093 7.05645852 -0.06583895 9.45703125 -0.07421875 C10.67332214 -0.08014038 10.67332214 -0.08014038 11.91418457 -0.08618164 C23.79014835 -0.11331322 34.89419315 0.51302433 46.26953125 4.23828125 C45.93953125 4.89828125 45.60953125 5.55828125 45.26953125 6.23828125 C43.19829245 6.63997605 41.11007003 6.95361214 39.01953125 7.23828125 C30.51656202 8.60234544 22.49759048 11.34050579 14.39453125 14.17578125 C13.15928711 14.60697266 11.92404297 15.03816406 10.65136719 15.48242188 C4.45616874 17.67603297 -1.6473201 19.95607904 -7.64892578 22.63891602 C-10.12240464 23.35113635 -11.3478767 23.16179315 -13.73046875 22.23828125 C-15.87739288 20.33671988 -17.44610414 18.80701046 -18.73046875 16.23828125 C-18.80139717 14.03098895 -18.814619 11.82160673 -18.79296875 9.61328125 C-18.78394531 8.42476562 -18.77492188 7.23625 -18.765625 6.01171875 C-18.75402344 5.09648437 -18.74242188 4.18125 -18.73046875 3.23828125 C-12.36258749 1.01692732 -6.73649336 0.07216107 0 0 Z " fill="#255E90" transform="translate(139.73046875,20.76171875)"/>
<path d="M0 0 C1.05574219 0.26554687 2.11148438 0.53109375 3.19921875 0.8046875 C12.84419296 3.13464699 22.27507583 4.62646723 32.18041992 5.31591797 C33.45042847 5.41090576 33.45042847 5.41090576 34.74609375 5.5078125 C35.87035767 5.57959717 35.87035767 5.57959717 37.01733398 5.65283203 C39 6 39 6 42 8 C41.32195312 8.73863281 40.64390625 9.47726563 39.9453125 10.23828125 C33.61112828 17.14163733 27.29615629 24.06193623 21 31 C9.69246431 27.61740385 2.00471334 18.24851172 -6 10 C-4.6302836 6.00499382 -2.74277578 3.19990508 0 0 Z " fill="#255E90" transform="translate(134,56)"/>
<path d="M0 0 C5.88474263 2.52685849 10.59849919 5.32655292 15 10 C13.22333466 13.25609389 12.17436708 13.94656174 8.55859375 15.0546875 C7.18705317 15.3387482 5.81317214 15.61167473 4.4375 15.875 C-1.88977735 17.23578921 -6.74019812 19.12857457 -12.08203125 22.92578125 C-12.71496094 23.28027344 -13.34789063 23.63476562 -14 24 C-17.69354453 22.76881849 -18.20890997 21.57632552 -20.3125 18.375 C-24.65168831 11.97127157 -29.45698459 6.37998555 -35 1 C-23.39927755 -6.67896522 -12.66489927 -4.11891448 0 0 Z " fill="#255E8F" transform="translate(134,85)"/>
<path d="M0 0 C0.66 0.33 1.32 0.66 2 1 C-0.64 4.63 -3.28 8.26 -6 12 C-5.29875 12.680625 -4.5975 13.36125 -3.875 14.0625 C-0.72065663 17.20780513 2.13934304 20.5888386 5 24 C3.64068359 23.7834375 3.64068359 23.7834375 2.25390625 23.5625 C-1.49216675 22.99166983 -5.24182213 22.48428064 -9 22 C-10.24330078 21.81244141 -10.24330078 21.81244141 -11.51171875 21.62109375 C-17.95579146 21.06125749 -22.22123422 24.1104638 -27.49609375 27.56640625 C-28.32238281 28.03949219 -29.14867188 28.51257813 -30 29 C-30.66 28.67 -31.32 28.34 -32 28 C-31.57847656 27.31292969 -31.15695313 26.62585938 -30.72265625 25.91796875 C-30.17480469 25.01691406 -29.62695312 24.11585937 -29.0625 23.1875 C-28.24458984 21.84751953 -28.24458984 21.84751953 -27.41015625 20.48046875 C-25.88990422 17.99296438 -25.88990422 17.99296438 -25 15 C-25.556875 14.773125 -26.11375 14.54625 -26.6875 14.3125 C-29.6278734 12.64363942 -31.6502353 10.41211335 -34 8 C-32.80246094 8.0928125 -31.60492188 8.185625 -30.37109375 8.28125 C-19.34758739 8.86215252 -12.15302244 7.59581518 -2.80859375 1.65234375 C-1.41833984 0.83443359 -1.41833984 0.83443359 0 0 Z " fill="#72B242" transform="translate(123,53)"/>
<path d="M0 0 C0 4.60780851 -2.90230371 6.79717827 -6 10 C-11.3117207 15 -11.3117207 15 -14 15 C-13.34 16.65 -12.68 18.3 -12 20 C-15.96815475 21.29847996 -19.99669447 21.19110905 -24.125 21.1875 C-25.25699829 21.1884668 -25.25699829 21.1884668 -26.41186523 21.18945312 C-32.1166687 21.1356861 -37.48235874 20.51836811 -43 19 C-42.67 18.34 -42.34 17.68 -42 17 C-39.64522557 16.36054388 -37.32114862 15.81896293 -34.9375 15.3125 C-22.33783212 12.39393286 -10.80890786 7.09334578 0 0 Z " fill="#929699" transform="translate(95,176)"/>
<path d="M0 0 C-0.33 2.97 -0.66 5.94 -1 9 C-2.010625 9.268125 -3.02125 9.53625 -4.0625 9.8125 C-6.75522608 10.56624483 -9.21562654 11.50947566 -11.75 12.6875 C-15 14 -15 14 -18 13 C-15.89746067 11.20639298 -13.79305667 9.41505881 -11.6875 7.625 C-10.79514648 6.86316406 -10.79514648 6.86316406 -9.88476562 6.0859375 C-9.01948242 5.35117188 -9.01948242 5.35117188 -8.13671875 4.6015625 C-7.60780029 4.15119629 -7.07888184 3.70083008 -6.53393555 3.23681641 C-2.51954205 0 -2.51954205 0 0 0 Z " fill="#70B042" transform="translate(141,111)"/>
<path d="M0 0 C1.2065625 0.0309375 1.2065625 0.0309375 2.4375 0.0625 C3.0975 1.3825 3.7575 2.7025 4.4375 4.0625 C3.344375 4.041875 2.25125 4.02125 1.125 4 C-2.50634191 3.87705548 -2.50634191 3.87705548 -5.5625 5.0625 C-3.15007962 0.07683121 -3.15007962 0.07683121 0 0 Z " fill="#6EAD42" transform="translate(198.5625,46.9375)"/>
<path d="M0 0 C0.66 0.33 1.32 0.66 2 1 C-0.3833861 4.14947449 -2.55084975 6.9972676 -6 9 C-6.99 8.67 -7.98 8.34 -9 8 C-6.03 5.36 -3.06 2.72 0 0 Z " fill="#609A41" transform="translate(132,116)"/>
<path d="M0 0 C2 1.375 2 1.375 4 3 C4 3.66 4 4.32 4 5 C2.02 5.99 2.02 5.99 0 7 C0 4.69 0 2.38 0 0 Z " fill="#E2E4E8" transform="translate(211,108)"/>
<path d="M0 0 C2.97 0.495 2.97 0.495 6 1 C5.67 1.66 5.34 2.32 5 3 C2.35139573 3.59355614 -0.29197322 3.74209269 -3 4 C-2.01 3.67 -1.02 3.34 0 3 C0 2.01 0 1.02 0 0 Z " fill="#1C4B76" transform="translate(180,24)"/>
</svg>