<svg xmlns="http://www.w3.org/2000/svg" xmlns:xlink="http://www.w3.org/1999/xlink" version="1.1" id="layer" x="0px" y="0px" style="enable-background:new -153 -46 652 652;" xml:space="preserve" viewBox="-131.1 101.8 600 345.6">
<style type="text/css">
	.st0{fill:#007DC3;}
	.st1{fill:#F05133;}
	.st2{fill:#FFFFFF;}
	.st3{fill:#FDBB30;}
	.st4{fill:#002D62;}
	.st5{fill-rule:evenodd;clip-rule:evenodd;fill:#FFFFFF;}
</style>
<g>
	<path class="st0" d="M-100.3,447.4c35.3-31.2,75-60.8,118.6-88.1c8.2-4.2,16.4-8.3,24.6-12.3c3.4-1.7,10.1-4.9,18.4-8.9   c5.6,6.3,11.4,12.4,17.4,18.4C16.2,385.6-43.7,416.1-100.3,447.4 M345.5,224.7c42.1-9.4,83.5-15.7,123.4-18.8   c-44.2,13.5-89.2,28.6-134.9,45.1C338.1,242.5,341.9,233.7,345.5,224.7"/>
	<path class="st1" d="M-131.1,324c40.9-26,86.3-49.7,135.2-70.3c1.6,3.3,3.3,6.6,5,9.8c-2.6,5.4-5.2,10.7-7.8,16.1   C-44.2,293.7-88.4,308.5-131.1,324 M363,172.7c36.4-1.5,71.8-0.9,105.9,1.7c-36.7,5.2-74,11.2-111.8,18.1   C359.1,186,361.1,179.4,363,172.7"/>
	<path class="st2" d="M168.9,114.4c69,0,123.1,16.2,184.2,46.6c-29.9,112.7-84.6,188.3-184.2,249.8c-37.4-23.1-69.2-49-95.8-78.3   c11.8-5.6,25.1-12,36.9-17.5c4.8,0.4,9.3,0.7,13.5,0.8c-0.3,6.5-2.3,11.3-5.6,14.7c1.9,2.2,3.8,4.3,5.8,6.5   c5.2-4.6,8.5-11.4,8.8-21.1c12.1-0.2,23.8-1.5,34.7-3.8c-0.6,17.8-3.1,30.8-8.1,36c-0.2,0.2-0.3,0.3-0.4,0.5   c-1.3,1.4-2.4,2.4-3.4,3.3c4.9-0.9,9.7-2,14.4-3.4c6.1-12.6,6.2-34.7,6.3-38.5c11.3-2.8,21.4-5.7,30.4-8.8   c0.4,10.4,4.5,20.2,12.4,23.9c3.6-2.5,7-5.2,10.4-8c-2,0.3-14.6,1.2-14.4-19c26.5-10,43.8-22.1,59-40c4-9.1,7.2-18.6,9.5-28.4   c-18.2,28.6-34.9,45.4-67.6,58.5c0.9-5.8,2.6-12.7,5.3-21c9.5-4,19.5-8.8,25.4-11.3l14.3-15c3.6-13.9,7.2-27.8,10.7-41.6l-11.2,3.5   l13.1-13.8c2.7-10.9,5.5-21.7,8.2-32.6c-6.6,1-13.2,2-19.8,3c1.1-5.4,1.9-10.8,2.3-16.2c-3.2-0.8-6.4-1.6-9.6-2.3   c-0.7,6-1.9,12.7-3.6,20.2l-0.9,0.1c-6.2,1-12.5,3-18,7.7l1.8-5.3c-10.6,1.9-21.1,3.9-31.7,5.9l-10.5,11.1l0.4-0.9l3.4-8.9   c-10.4,2.2-20.9,4.4-31.3,6.6c-2.2-14.1-4.3-26.8-6.3-37.1c-2.9,0.4-5.9,0.8-8.8,1.2c1.9,10.4,4.1,23.4,6.3,37.9l-7.4,1.7l-9.4,9.9   c-6.6-6.9-19.9-2.6-28.3-0.4c-9.1,2.3-18.2,4.7-27.3,7.1c-2.7,0.7-5.4,1.6-8.1,2.5c-6.8-9.8-13.2-20-18.5-30.9l-1-2   c-2.8,1.1-5.5,2.3-8.2,3.5l1.2,2.4c5.2,10.7,11.4,20.7,18.1,30.4c-9.8,4.3-18.9,10.4-26.7,19.1c0,0-12.8,13.3-14.3,15   c-3.3,3.8-6.2,7.8-8.7,12c-13.4-27-24-56.4-32-88.5C45.7,130.6,99.9,114.4,168.9,114.4 M175.7,285c6.3-2.8,12.7-5.6,19-8.3l3-3.1   c1.3,0.2,2.7,0.2,4.3,0.1c2.5-0.4,5.5-1.3,8.8-2.4c-2.1,7.8-3.4,14.5-4,20.4c-9,3.2-19.2,6.2-30.7,9.1   C176,295.6,175.9,290.4,175.7,285 M131.7,304.8l6-2.8l15.3-12.3l3.4-9.4c2.2,4.5,3.4,6.2,5.6,10.7l5-2.2c0.2,4.8,0.2,9.6,0.2,14   c-11,2.5-23,3.9-35.3,4.1L131.7,304.8z"/>
	<path class="st1" d="M206.1,137.5c14.6,0,29,0.8,43.2,2.3c10.8,2.3,21.5,5,32.1,8.2c4,14.2,6.2,29.1,6.2,44.6   c0,12.8-1.5,25.2-4.3,37.1c-18.2,28.6-34.9,45.4-67.6,58.5c0.9-5.8,2.6-12.7,5.3-21c9.5-4,19.5-8.8,25.4-11.2l14.3-15   c3.6-13.9,7.2-27.7,10.7-41.6l-11.2,3.5l13.1-13.8c2.7-10.9,5.5-21.7,8.2-32.6c-6.6,1-13.2,2-19.8,3c1.1-5.4,1.9-10.8,2.3-16.2   c-3.2-0.8-6.4-1.6-9.6-2.3c-0.7,6-1.9,12.7-3.6,20.2l-0.9,0.2c-6.2,1-12.5,3-18,7.7l1.7-5.3c-10.6,1.9-21.1,3.9-31.7,5.9l-10.5,11   l0.4-0.9l3.4-8.9c-10.4,2.2-20.9,4.4-31.3,6.6c-2.2-14.1-4.3-26.8-6.3-37.1C173.7,138.4,189.7,137.5,206.1,137.5 M273.8,258.1   c-10.2,23-25.6,43.1-44.6,59c-2,0.3-14.6,1.2-14.4-19C241.3,288.1,258.5,276,273.8,258.1 M218.7,325   c-14.7,10.4-31.3,18.4-49.1,23.4c6.1-12.6,6.2-34.7,6.3-38.5c11.3-2.8,21.4-5.7,30.4-8.8C206.7,311.5,210.8,321.4,218.7,325    M155.2,351.8c-5,0.9-10,1.6-15.2,2.1c-5.6-5.5-11.1-11.1-16.4-16.9c5.1-4.6,8.5-11.4,8.7-21.1c12.1-0.2,23.8-1.4,34.7-3.8   c-0.6,17.7-3.1,30.8-8.1,36c-0.2,0.2-0.3,0.3-0.4,0.5C157.4,349.8,156.2,350.9,155.2,351.8 M117.9,330.4   c-3.9-4.5-7.8-9.1-11.5-13.8l3.5-1.7c4.8,0.4,9.3,0.7,13.5,0.8C123.2,322.2,121.2,327,117.9,330.4 M47.8,214.8   c-4.9-12.5-9.3-25.4-13-38.5c4.1-2,8.3-3.8,12.4-5.6l1.2,2.4c5.2,10.7,11.4,20.7,18.1,30.4C59.8,206.4,53.5,210.1,47.8,214.8    M55.3,167.2c30.4-12.5,61.6-21.1,93.7-25.7c1.9,10.4,4.1,23.5,6.3,37.9l-7.4,1.7l-9.4,9.9c-6.6-6.9-20-2.6-28.3-0.4   c-9.1,2.3-18.2,4.7-27.3,7.1c-2.7,0.7-5.4,1.6-8.1,2.5c-6.8-9.9-13.2-20-18.5-30.9L55.3,167.2z M175.7,285c6.3-2.8,12.7-5.6,19-8.3   l3-3.1c1.3,0.2,2.7,0.2,4.3,0.1c2.5-0.4,5.5-1.3,8.7-2.4c-2.1,7.8-3.4,14.5-4,20.4c-9,3.2-19.2,6.2-30.7,9.1   C176,295.6,175.9,290.4,175.7,285 M131.7,304.8l6-2.8l15.3-12.3l3.4-9.4c2.2,4.5,3.4,6.2,5.6,10.7l5-2.2c0.2,4.9,0.2,9.6,0.2,14.1   c-11,2.5-23,3.9-35.3,4.1L131.7,304.8z"/>
	<path class="st3" d="M171.9,392.1c-29.3-19.9-55.5-43.2-78-69.5l12.6-6c3.7,4.7,7.5,9.3,11.5,13.8c1.9,2.2,3.8,4.3,5.8,6.5   c16.7,18.4,35.2,35.2,55.4,50.3C176.8,388.9,174.3,390.5,171.9,392.1 M33.7,228.7C25.2,210,18,190.4,12.2,170.3   c51.2-24.1,104.1-37.2,160.3-38.7c26.3,0.2,51.8,3,76.8,8.2c-14.2-1.5-28.5-2.3-43.2-2.3c-16.3,0-32.4,1-48.2,2.9   c-3,0.3-5.9,0.8-8.8,1.2c-32.1,4.6-63.3,13.2-93.7,25.7c-2.8,1.1-5.5,2.3-8.2,3.5c-4.1,1.8-8.3,3.7-12.4,5.6   c3.7,13.1,8.1,25.9,13.1,38.5c-2.8,2.3-5.6,4.9-8.2,7.8L33.7,228.7z"/>
	<path class="st4" d="M-30,154.3c66.1-34,124.1-52.5,198.9-52.5s132.9,18.5,198.9,52.5C337.2,278,278.5,359.9,168.9,425.6   c-41.4-24.8-77.5-53.8-107.6-87.5c-8.3,4-15,7.2-18.4,8.9c-10.4,5.1-20.7,10.3-31,15.6C0.3,368.5-12.6,377.5-26,374   c-14.6-6.4-5-24.2-0.5-34.3c11.4-25.6,23.2-51.1,35.6-76.3c-14.9-27.9-26.6-58.3-34.7-91.2L-30,154.3 M168.9,114.4   c-69,0-123.2,16.2-184.3,46.6c8,32.2,18.6,61.5,32,88.5c2.5-4.2,5.4-8.2,8.7-12c1.5-1.7,14.3-15,14.3-15   c7.9-8.7,16.9-14.7,26.8-19.1c-6.7-9.7-12.9-19.7-18.1-30.4l-1.2-2.4c2.8-1.2,5.5-2.3,8.2-3.5l1,2c5.3,11,11.7,21.1,18.5,30.9   c2.7-0.9,5.3-1.7,8.1-2.5c9.1-2.5,18.2-4.9,27.3-7.1c8.4-2.1,21.7-6.5,28.3,0.4l9.4-9.9l7.4-1.7c-2.2-14.4-4.4-27.4-6.3-37.9   c2.9-0.4,5.9-0.8,8.8-1.2c1.9,10.3,4.1,23,6.3,37.1c10.4-2.3,20.9-4.5,31.3-6.6l-3.4,8.9l-0.4,0.9l10.5-11   c10.6-2.1,21.1-4,31.7-5.9l-1.7,5.3c5.5-4.6,11.8-6.7,18-7.7l0.9-0.2c1.8-7.5,3-14.1,3.6-20.2c3.2,0.7,6.4,1.5,9.6,2.3   c-0.4,5.4-1.2,10.8-2.3,16.2c6.6-1,13.2-2,19.8-3c-2.7,10.9-5.4,21.7-8.2,32.6l-13.1,13.8l11.2-3.5c-3.6,13.9-7.1,27.8-10.7,41.6   l-14.3,15c-6,2.5-15.9,7.2-25.4,11.2c-2.7,8.3-4.4,15.2-5.3,21c32.7-13.1,49.4-29.9,67.6-58.5c-2.3,9.8-5.5,19.3-9.5,28.4   c-15.2,18-32.5,30-59,40c-0.2,20.2,12.4,19.3,14.4,19c-3.4,2.8-6.8,5.4-10.4,8c-7.9-3.7-12-13.6-12.4-23.9c-9,3.1-19.1,6-30.4,8.8   c-0.1,3.8-0.2,25.9-6.3,38.5c-4.7,1.3-9.5,2.5-14.4,3.4c1-0.9,2.1-2,3.4-3.3c0.1-0.1,0.2-0.3,0.4-0.5c5-5.2,7.5-18.2,8.1-36   c-10.9,2.3-22.6,3.5-34.7,3.8c-0.3,9.7-3.6,16.5-8.7,21.1c-2-2.1-3.9-4.3-5.8-6.5c3.2-3.4,5.3-8.2,5.6-14.7   c-4.3-0.1-8.8-0.4-13.5-0.8c-11.7,5.6-25,11.9-36.9,17.5c26.6,29.4,58.4,55.2,95.8,78.4c99.6-61.5,154.3-137.1,184.2-249.8   C292,130.6,237.9,114.4,168.9,114.4 M175.7,285c0.2,5.4,0.3,10.7,0.4,15.7c11.5-2.9,21.6-5.9,30.7-9.1c0.6-5.8,1.9-12.6,4-20.4   c-3.3,1.1-6.3,2-8.7,2.4c-1.6,0.1-3.1,0.1-4.3-0.1l-3,3.1C188.4,279.4,182,282.2,175.7,285 M131.7,304.8l0.3,2.2   c12.3-0.2,24.2-1.5,35.3-4.1c0-4.5-0.1-9.2-0.2-14.1l-5,2.2c-2.2-4.5-3.4-6.2-5.6-10.7l-3.4,9.4L137.7,302L131.7,304.8z"/>
	<path class="st5" d="M84.1,202.8C68.5,207,54.6,213.7,43.6,226c-6.4,7.3-10.9,15.7-15.2,24.2C16,275.5,4.1,301-7.3,326.6   c-3,6.7-12.1,23-2.4,27.3c10.7,2.8,24.3-6.3,33.7-11.1c10.3-5.2,20.7-10.5,31-15.6c17.7-8.8,33.5-19.4,44.2-36.5   c4.3-7.2,7.5-15,10.6-22.7c6.8-16.6,13.6-33.2,20.6-49.7c2.6-6.2,7.2-14,5.7-20.8c-2.9-9.1-18.3-3.5-25-1.9   C102.2,198,93.1,200.4,84.1,202.8 M64.4,297.6c-8.2,3.7-16.4,7.4-24.6,11.1c11.9-27.5,24.2-54.9,37-82c7.2-2.3,14.4-4.5,21.7-6.7   C86.8,245.8,75.4,271.7,64.4,297.6 M205,174.4c-11.4,14.9-22.6,29.9-33.7,44.9c5.2-13.8,10.4-27.6,15.7-41.3   c-11.8,2.4-23.5,5-35.3,7.6c-3.1,7.1-6.1,14.2-9.1,21.4c2.5-0.7,5-1.4,7.6-2.1c-9.2,22.4-18.2,44.8-27.1,67.3   c-3.6,9.2-7.2,18.3-10.8,27.5c11.8-5.6,23.6-11.1,35.4-16.5c5.4-14.8,10.8-29.5,16.3-44.3c5,10,10,20.1,14.9,30.2   c7.6-3.4,15.3-6.8,22.9-10.1c-4.7-10.6-9.4-21.2-14.1-31.8c8.5-12.9,17-25.7,25.6-38.4c2.5-0.6,4.9-1.2,7.3-1.7   c1.8-5.5,3.6-11.1,5.5-16.6C219,171.7,212,173,205,174.4 M250.7,166.6c-6.3,1.1-12.1,3.1-16.8,7.8c-3.9,4.2-5.9,9.2-7.6,14.5   c-5.1,15.9-10.2,31.7-15.2,47.6c-2,6.2-5.2,17.7,4.8,16.8c3.4-0.6,6.7-2,9.9-3.4c10.2-4.3,20.4-8.6,30.6-12.8   c2.6-9.9,5.2-19.9,7.7-29.9c-5.3,1.7-10.7,3.4-16.1,5.1c-1.2,4.5-2.5,9-3.8,13.5c-3.7,1.4-7.4,2.7-11.2,4.1   c4.7-16.1,9.4-32.2,14.1-48.2c3.3-0.7,6.6-1.4,9.9-2.1c-0.8,2.8-1.6,5.6-2.3,8.5c4.8-1.2,9.6-2.3,14.4-3.4   c1.8-7.2,3.7-14.5,5.4-21.8C266.6,164,258.7,165.3,250.7,166.6"/>
	<path class="st0" d="M293.6,151.9c4.8,1.6,9.3,3.2,13.9,4.9c11.3,4.2,21.3,8.5,29.6,12.5c-25.6,87.8-78,161.4-151.9,213.8l-6,4.2   c-21.7-16.2-34.4-28.9-34.4-28.9l10.2-1.7c30.9-5.2,60.7-19.2,85.3-42.1c42-39.2,59-95.1,50.3-147.8c-0.2-1.2-0.4-2.4-0.6-3.6   l-0.1-0.5l-0.1-0.5l-0.1-0.6l-0.1-0.6l-0.1-0.6l-0.1-0.6l-0.2-0.6l-0.1-0.6l-0.2-0.6l-0.1-0.5l-0.2-0.7l-0.1-0.6l-0.1-0.5l-0.1-0.5   l-0.1-0.5c-0.5-1.9-0.9-3.5-1.3-5C289.1,150.4,291.4,151.1,293.6,151.9 M294.3,152.9c4.5,1.5,9.2,3.2,13.6,4.9   C303.4,156,298.9,154.4,294.3,152.9"/>
</g>
</svg>