<svg xmlns="http://www.w3.org/2000/svg" xmlns:xlink="http://www.w3.org/1999/xlink" version="1.1" id="layer" x="0px" y="0px" style="enable-background:new -153 -46 652 652;" xml:space="preserve" viewBox="-34.9 25.3 406.8 499.99">
<style type="text/css">
	.st0{fill:#003DA6;}
	.st1{fill:#DD0031;}
</style>
<path class="st0" d="M264.4,493.5c-23.8,0-22.8-30.5-22.8-65.6c0-35.2,3.3-65.5,22.8-65.5c23.9,0,25.2,30.4,25.2,65.5  C289.6,463,284.7,493.5,264.4,493.5 M293.9,321.1c-21.3,0-43.1,8.5-54.5,26.3H239h-0.4h0.4l2.1-30.9c1.2-20.8,6-77.5,34.9-77.5  c13.9,0,10.8,18.4,12.3,26.8c3.8,19.6,12.4,42.1,39.2,42.1c18.3,0,37.5-12.1,37.5-36.9c0-38.2-32-63.3-70.7-63.3  c-99.6,0-139.6,76-139.6,168c0,79.9,31,148.9,116.6,148.9c55.5,0,100.6-39.5,100.6-105.9C371.9,362.7,342.3,321.1,293.9,321.1"/>
<path class="st1" d="M-34.9,206.1v118.6c66.4,9.8,145.7,3.3,201.8-78.7c2.3-3.5,3.7-1,2.2,2c-15.7,31.9-52.7,61.3-84.7,86.5  C53.6,358.7-28.9,445.3-27.8,521.4c0.1,5.9,0.3,4.3,5.4,0.4c25.1-18.6,74.1-19.2,104.2-4.8c4.2,2,4.5,1.4,4-4.1  c-5.8-59,7.5-123.5,32.8-160.9C136.1,326.2,183,259.4,191,207c0.8-5.4-2-4.6-8.7,2.6c-53.2,56.1-149.2,54.8-211.2-4.7  C-32.8,201.1-34.6,202.8-34.9,206.1"/>
<polygon class="st0" points="80.2,25.3 84,37.4 96.9,37.4 86.4,45 90.2,56.9 80.2,49.6 70.1,56.9 73.8,44.9 63.5,37.4 76.3,37.4 "/>
<polygon class="st0" points="155.9,69.4 159.8,81.4 172.7,81.4 162.2,89.1 166.1,100.9 155.9,93.6 145.8,100.9 149.7,89.1   139.1,81.4 152,81.4 "/>
<polygon class="st0" points="123.4,35.4 127.3,47.4 140.2,47.4 129.8,55 133.5,67 123.5,59.6 113.4,67 117.2,55 106.7,47.4   119.6,47.4 "/>
<polygon class="st0" points="168.3,111.1 172.1,123.2 185,123.2 174.6,130.8 178.4,142.7 168.4,135.3 158.2,142.7 162.1,130.8   151.6,123.2 164.4,123.2 "/>
<polygon class="st0" points="162.9,155.2 166.7,167.2 179.6,167.2 169.2,174.9 173,186.8 162.9,179.4 152.9,186.8 156.6,174.8   146.2,167.2 159,167.2 "/>
<polygon class="st0" points="138.5,190.4 142.3,202.5 155.2,202.5 144.8,210.1 148.6,221.9 138.6,214.6 128.5,221.9 132.3,210.1   121.8,202.5 134.7,202.5 "/>
<polygon class="st0" points="100.3,210.1 104.2,222.1 116.9,222.1 106.5,229.8 110.4,241.7 100.3,234.4 90.2,241.7 94,229.8   83.5,222.1 96.4,222.1 "/>
<polygon class="st0" points="3.1,65.5 -0.8,77.5 -13.6,77.5 -3.2,85.2 -7,97.1 3,89.7 13.2,97.1 9.4,85.2 19.9,77.5 7,77.5 "/>
<polygon class="st0" points="34.8,35.4 30.9,47.4 18.1,47.4 28.5,55 24.7,67 34.8,59.6 44.9,67 41.1,55 51.6,47.4 38.7,47.4 "/>
<polygon class="st0" points="-11.7,105.7 -15.5,117.7 -28.4,117.7 -17.9,125.3 -21.7,137.3 -11.7,130 -1.6,137.3 -5.3,125.3   5.2,117.7 -7.7,117.7 "/>
<polygon class="st0" points="-7.7,149.7 -11.6,161.8 -24.5,161.8 -14,169.5 -17.8,181.4 -7.7,174 2.4,181.4 -1.5,169.5 9,161.8   -3.9,161.8 "/>
<polygon class="st0" points="16.6,185.7 12.8,197.8 -0.1,197.8 10.4,205.4 6.5,217.3 16.6,209.9 26.8,217.3 22.9,205.4 33.4,197.8   20.5,197.8 "/>
<polygon class="st0" points="54.9,208.6 51.1,220.7 38.2,220.7 48.6,228.3 44.8,240.1 54.8,232.9 65,240.1 61.1,228.2 71.7,220.7   58.8,220.7 "/>
</svg>