<svg xmlns="http://www.w3.org/2000/svg" version="1.1" viewBox="0 0 299 249">
<path d="M0 0 C2.14074652 5.0884482 4.27687256 10.17880115 6.40869141 15.27099609 C7.13495421 17.00395339 7.86248918 18.73637809 8.59130859 20.46826172 C9.63712065 22.9540218 10.6783812 25.44164521 11.71875 27.9296875 C12.04685669 28.70682098 12.37496338 29.48395447 12.7130127 30.28463745 C15 35.77225659 15 35.77225659 15 38 C15.64960693 37.68772461 16.29921387 37.37544922 16.96850586 37.05371094 C19.9575246 35.61779154 22.94750452 34.18388435 25.9375 32.75 C26.95908203 32.25886719 27.98066406 31.76773437 29.03320312 31.26171875 C33.69750443 29.02643058 38.36664498 26.80051528 43.06640625 24.640625 C43.75806885 24.32125977 44.44973145 24.00189453 45.16235352 23.67285156 C47 23 47 23 50 23 C49.39109635 28.49627802 48.47447839 33.77371656 47.1875 39.1484375 C46.92682739 40.2563414 46.92682739 40.2563414 46.66088867 41.3866272 C46.29643533 42.93156489 45.92995794 44.47602642 45.56152344 46.02001953 C44.99679098 48.38845837 44.43934044 50.75852759 43.8828125 53.12890625 C43.52646627 54.63551716 43.16971025 56.14203121 42.8125 57.6484375 C42.56246216 58.71087173 42.56246216 58.71087173 42.30737305 59.79476929 C41.11575471 64.76849058 41.11575471 64.76849058 40 67 C40.67506592 67.1043335 41.35013184 67.20866699 42.0456543 67.31616211 C45.63061305 68.14596704 48.89931765 69.49884275 52.26953125 70.94140625 C52.95053391 71.22853989 53.63153656 71.51567352 54.33317566 71.81150818 C56.4948362 72.72412034 58.65367581 73.6432013 60.8125 74.5625 C62.28302128 75.18467475 63.75372259 75.8064242 65.22460938 76.42773438 C68.81850919 77.94690673 72.40989431 79.47188423 76 81 C76 85 76 85 74.19921875 87.04296875 C73.37035156 87.75066406 72.54148437 88.45835938 71.6875 89.1875 C70.78 89.96996094 69.8725 90.75242187 68.9375 91.55859375 C65.16630846 94.69289523 61.37652313 97.8015916 57.54296875 100.859375 C54.8730293 103.10688163 52.45343179 105.52021473 50 108 C50.39380859 109.20124512 50.78761719 110.40249023 51.19335938 111.64013672 C52.6499364 116.0857852 54.10265693 120.53268581 55.55419922 124.97998047 C56.18367616 126.90675837 56.81420665 128.83319241 57.44580078 130.75927734 C58.35204048 133.52352183 59.25451761 136.2889699 60.15625 139.0546875 C60.44060913 139.9193161 60.72496826 140.7839447 61.01794434 141.67477417 C61.27821411 142.47545319 61.53848389 143.2761322 61.80664062 144.10107422 C62.03758423 144.8072287 62.26852783 145.51338318 62.50646973 146.24093628 C63 148 63 148 63 150 C58.584041 150.67141148 54.16712555 151.33631007 49.75 152 C48.49574219 152.19078125 47.24148438 152.3815625 45.94921875 152.578125 C44.74394531 152.75859375 43.53867187 152.9390625 42.296875 153.125 C41.18666992 153.29257813 40.07646484 153.46015625 38.93261719 153.6328125 C36 154 36 154 32 154 C31.85594727 154.58160889 31.71189453 155.16321777 31.56347656 155.76245117 C29.35579722 164.27034752 26.49754886 172.52227371 23.61581421 180.81878662 C22.15327284 185.03119032 20.70258048 189.24765385 19.25390625 193.46484375 C18.97049881 194.28982361 18.68709137 195.11480347 18.39509583 195.96478271 C15.09817415 205.59107913 12.00386548 215.27839899 9 225 C5 225 5 225 3.03515625 223.42578125 C2.38417969 222.72839844 1.73320312 222.03101563 1.0625 221.3125 C0.35996094 220.57515625 -0.34257812 219.8378125 -1.06640625 219.078125 C-1.70449219 218.39234375 -2.34257812 217.7065625 -3 217 C-6.1405477 213.77680631 -9.39101859 210.74207729 -12.75 207.75 C-16.14655954 204.71627768 -19.42704832 201.61721399 -22.625 198.375 C-29.95102375 190.49021737 -29.95102375 190.49021737 -39 185 C-41.06089492 185.54204521 -41.06089492 185.54204521 -43.0390625 186.7734375 C-44.15667969 187.3921875 -44.15667969 187.3921875 -45.296875 188.0234375 C-46.06515625 188.46945313 -46.8334375 188.91546875 -47.625 189.375 C-49.15700905 190.24025428 -50.69078269 191.10239393 -52.2265625 191.9609375 C-52.90283691 192.35071777 -53.57911133 192.74049805 -54.27587891 193.14208984 C-56 194 -56 194 -58 194 C-58.02712066 192.56260487 -58.04645067 191.12506137 -58.0625 189.6875 C-58.07410156 188.88699219 -58.08570313 188.08648437 -58.09765625 187.26171875 C-58 185 -58 185 -57 182 C-70.68329087 189.80464689 -84.36083081 197.61841818 -98 205.5 C-109.84640533 212.34430935 -121.72077477 219.13899925 -133.60350037 225.91995239 C-139.89290699 229.50905569 -146.18002556 233.10216007 -152.46710205 236.69534302 C-161.0235747 241.58542303 -161.0235747 241.58542303 -164.26025391 243.42382812 C-165.93142591 244.38525091 -167.59291465 245.36411356 -169.23583984 246.37304688 C-170.783232 247.31869787 -172.38634153 248.17248284 -174 249 C-174.99 248.67 -175.98 248.34 -177 248 C-176.46375 247.57332031 -175.9275 247.14664063 -175.375 246.70703125 C-170.65823732 242.94448207 -165.96198814 239.15898374 -161.28540039 235.34667969 C-155.58418078 230.69926593 -149.86385376 226.08443909 -144.0625 221.5625 C-138.80248554 217.46056388 -133.63749844 213.25422134 -128.5 209 C-122.81856703 204.29536142 -117.0875515 199.67118806 -111.26904297 195.13745117 C-104.09181072 189.53380891 -97.05159145 183.760326 -90 178 C-97.62445335 181.59087158 -104.93872242 185.63089978 -112.25 189.8125 C-121.73724693 195.23208882 -131.33630201 200.40521163 -141 205.5 C-151.1980894 210.87835238 -161.30658854 216.36886333 -171.3112793 222.10180664 C-180.63995482 227.42167071 -190.12381085 232.44336873 -199.62548828 237.44555664 C-205.89066695 240.75319878 -212.0438552 244.13874953 -218.01831055 247.95336914 C-220 249 -220 249 -223 249 C-223 248.34 -223 247.68 -223 247 C-220.74144357 245.31069826 -218.47622016 243.73914146 -216.125 242.1875 C-214.64456218 241.19068737 -213.16544308 240.19191403 -211.6875 239.19140625 C-210.9140625 238.66820801 -210.140625 238.14500977 -209.34375 237.60595703 C-205.55671183 235.01104692 -201.8395171 232.32228205 -198.125 229.625 C-197.00182373 228.81035278 -197.00182373 228.81035278 -195.85595703 227.97924805 C-194.33100324 226.87242675 -192.80642683 225.76508531 -191.28222656 224.65722656 C-187.5270588 221.93043166 -183.76313922 219.21577714 -180 216.5 C-178.49995707 215.41672611 -176.99995709 214.33339274 -175.5 213.25 C-166.5 206.75 -157.5 200.25 -148.5 193.75 C-147.75685547 193.2132666 -147.01371094 192.6765332 -146.24804688 192.12353516 C-144.75462602 191.04498947 -143.26113692 189.96653827 -141.76757812 188.88818359 C-137.91633964 186.1073876 -134.06645867 183.32474101 -130.21875 180.5390625 C-122.51940751 174.9671907 -114.81942672 169.40287022 -107 164 C-124.78324999 172.77547895 -142.34814762 181.95183632 -159.72900391 191.49902344 C-167.21490681 195.60019355 -174.77172495 199.55392189 -182.3527832 203.47583008 C-190.30730124 207.60379697 -198.17161364 211.8865565 -205.99609375 216.25585938 C-206.8571875 216.73216797 -207.71828125 217.20847656 -208.60546875 217.69921875 C-209.35981201 218.12033936 -210.11415527 218.54145996 -210.89135742 218.9753418 C-212.92772272 219.96487811 -214.78906808 220.54354752 -217 221 C-217 220.34 -217 219.68 -217 219 C-215.58911133 217.74169922 -215.58911133 217.74169922 -213.58203125 216.3046875 C-212.83308594 215.76199219 -212.08414063 215.21929687 -211.3125 214.66015625 C-210.4875 214.07105469 -209.6625 213.48195312 -208.8125 212.875 C-207.05742772 211.60317002 -205.30356404 210.3296709 -203.55078125 209.0546875 C-202.63506348 208.38920898 -201.7193457 207.72373047 -200.77587891 207.03808594 C-196.30306545 203.75408886 -191.90251451 200.37732764 -187.5 197 C-180.11426818 191.34558517 -172.66803651 185.78528427 -165.1640625 180.2890625 C-158.33739546 175.27679201 -151.60697555 170.14371494 -144.88208008 164.99609375 C-136.00653276 158.21481397 -127.0173831 151.59100644 -118 145 C-127.44529213 149.32959614 -136.7524935 153.84234714 -145.92504883 158.72412109 C-153.07346882 162.52591315 -160.26271651 166.24467941 -167.46124268 169.95037842 C-177.07163153 174.89813332 -186.67938032 179.85061441 -196.25 184.875 C-197.01119141 185.27332031 -197.77238281 185.67164063 -198.55664062 186.08203125 C-201.46861425 187.61579805 -204.25883784 189.17255856 -207 191 C-207.99 191 -208.98 191 -210 191 C-210 190.34 -210 189.68 -210 189 C-207.96922407 187.41678638 -205.93590846 185.94984225 -203.8125 184.5 C-202.50775661 183.58918179 -201.20439867 182.67637612 -199.90234375 181.76171875 C-199.24218262 181.29813965 -198.58202148 180.83456055 -197.90185547 180.35693359 C-194.63480467 178.02596204 -191.47652276 175.55757412 -188.30859375 173.09472656 C-183.35446408 169.25292814 -178.33614315 165.5002659 -173.3125 161.75 C-165.88991178 156.20308759 -158.54499552 150.56647097 -151.24316406 144.86181641 C-141.64550278 137.36860432 -131.87011064 130.13057205 -122 123 C-132.5524217 128.12873912 -142.9107526 133.5951527 -153.23977661 139.15817261 C-163.02828952 144.42896102 -172.86045355 149.60479565 -182.74194336 154.69995117 C-183.69721924 155.19342041 -184.65249512 155.68688965 -185.63671875 156.1953125 C-186.54083496 156.66227539 -187.44495117 157.12923828 -188.37646484 157.61035156 C-191.67947457 159.3599078 -194.91490799 161.21707931 -198.13598633 163.11279297 C-200 164 -200 164 -203 164 C-203 163.34 -203 162.68 -203 162 C-201.5234375 160.87890625 -201.5234375 160.87890625 -199.375 159.5625 C-195.26585502 156.91040798 -191.38984478 154.03939413 -187.5625 151 C-186.9742041 150.53319824 -186.3859082 150.06639648 -185.77978516 149.58544922 C-184.52041331 148.58544761 -183.26130802 147.58511022 -182.00244141 146.58447266 C-178.43615175 143.76257313 -174.84206679 140.97646085 -171.25 138.1875 C-169.71353073 136.99350366 -168.17707249 135.79949312 -166.640625 134.60546875 C-165.87298828 134.00911621 -165.10535156 133.41276367 -164.31445312 132.79833984 C-160.54184364 129.86700636 -156.77101849 126.93337972 -153 124 C-152.26144775 123.42564209 -151.52289551 122.85128418 -150.76196289 122.25952148 C-146.94853535 119.29389134 -143.13580037 116.32737734 -139.32421875 113.359375 C-130.570862 106.54469345 -121.80042483 99.7538144 -113 93 C-119.6 92.34 -126.2 91.68 -133 91 C-133 90.34 -133 89.68 -133 89 C-125.08 85.04 -117.16 81.08 -109 77 C-112.34402493 74.32478005 -115.01008461 72.29016551 -118.64453125 70.2734375 C-119.48564453 69.7990625 -120.32675781 69.3246875 -121.19335938 68.8359375 C-122.95767482 67.85181524 -124.72332963 66.87009079 -126.49023438 65.890625 C-127.32490234 65.41882813 -128.15957031 64.94703125 -129.01953125 64.4609375 C-129.78370361 64.03603027 -130.54787598 63.61112305 -131.33520508 63.17333984 C-131.8845874 62.7861377 -132.43396973 62.39893555 -133 62 C-133 61.34 -133 60.68 -133 60 C-127.23539358 58.71289073 -121.46959982 57.4312938 -115.70263672 56.15478516 C-113.74103743 55.71977529 -111.77977088 55.28326216 -109.81884766 54.84521484 C-106.99988598 54.21576568 -104.17977113 53.59173588 -101.359375 52.96875 C-100.48319519 52.77188599 -99.60701538 52.57502197 -98.70428467 52.37219238 C-97.88373596 52.19200562 -97.06318726 52.01181885 -96.21777344 51.82617188 C-95.49829529 51.66628784 -94.77881714 51.50640381 -94.03753662 51.3416748 C-92 51 -92 51 -88 51 C-87.86271484 49.13214844 -87.86271484 49.13214844 -87.72265625 47.2265625 C-86.85281114 38.52811138 -85.05417653 29.95857423 -83.4375 21.375 C-83.1044375 19.58991465 -82.77175196 17.80475892 -82.43945312 16.01953125 C-81.63064915 11.6788633 -80.81673848 7.33918169 -80 3 C-75.76952114 4.31069757 -71.95775653 5.92541861 -68.03515625 7.9765625 C-66.91181885 8.56179688 -65.78848145 9.14703125 -64.63110352 9.75 C-64.04740997 10.05679687 -63.46371643 10.36359375 -62.86233521 10.6796875 C-61.04754921 11.63285248 -59.22917197 12.57884339 -57.40991211 13.5234375 C-52.24764987 16.20970779 -47.1007022 18.91490121 -42.03125 21.7734375 C-40.99859009 22.35037354 -40.99859009 22.35037354 -39.94506836 22.93896484 C-38.19634844 23.92456162 -36.45898164 24.93022819 -34.72265625 25.9375 C-32.16875136 27.26369331 -32.16875136 27.26369331 -30.18945312 26.42041016 C-27.1459376 24.44592606 -24.74836076 21.93375443 -22.24609375 19.3359375 C-21.13357757 18.20301301 -20.02094386 17.07020394 -18.90820312 15.9375 C-17.16552216 14.15119656 -15.4253772 12.36250338 -13.68774414 10.57128906 C-12.00522604 8.84064483 -10.31372593 7.11918231 -8.62109375 5.3984375 C-8.10228134 4.85786713 -7.58346893 4.31729675 -7.04893494 3.76034546 C-3.33944639 0 -3.33944639 0 0 0 Z " fill="#F5A500" transform="translate(223,0)"/>
<path d="M0 0 C9.04553009 -0.49339255 15.21974904 1.11924915 22.125 7.1875 C26.36011908 11.22409787 30.28330526 15.48335441 34 20 C36.56568963 19.49801725 39.09517602 18.97507295 41.625 18.3125 C44 18 44 18 47 20 C45.5361389 24.39158329 43.02168662 24.87947433 39 27 C39.3609375 27.68707031 39.721875 28.37414062 40.09375 29.08203125 C40.78984375 30.43361328 40.78984375 30.43361328 41.5 31.8125 C41.9640625 32.70582031 42.428125 33.59914062 42.90625 34.51953125 C44 37 44 37 44 40 C44.71285156 39.97679687 45.42570312 39.95359375 46.16015625 39.9296875 C51.88360394 39.82184326 56.59838814 40.07942689 62 42 C62.33 43.65 62.66 45.3 63 47 C57.39 46.34 51.78 45.68 46 45 C46.99 47.31 47.98 49.62 49 52 C49.1875 55.9375 49.1875 55.9375 49 59 C50.27875 59.061875 51.5575 59.12375 52.875 59.1875 C58.57524395 59.78561781 63.06888932 62.21016494 68 65 C68 67.31 68 69.62 68 72 C66.0087258 71.01321301 64.02880423 70.01545166 62.0703125 68.96484375 C61.42835938 68.62582031 60.78640625 68.28679687 60.125 67.9375 C59.48820313 67.59589844 58.85140625 67.25429687 58.1953125 66.90234375 C55.4992337 65.79416901 52.87870682 65.39777003 50 65 C50.01571045 65.60884033 50.0314209 66.21768066 50.04760742 66.8449707 C50.54021085 88.8167463 50.54021085 88.8167463 47 98 C46.56721076 99.27238669 46.13780396 100.54592659 45.7109375 101.8203125 C40.87380946 115.89663738 32.08581993 132.82136255 19 141 C11.41652574 144.26156504 3.42965243 144.28470375 -4.6875 144.3125 C-6.14796753 144.32059692 -6.14796753 144.32059692 -7.63793945 144.32885742 C-26.91939081 144.14048202 -42.93731016 135.8693501 -57 123 C-60 119.4516129 -60 119.4516129 -60 117 C-59.47792969 116.8047876 -58.95585937 116.6095752 -58.41796875 116.40844727 C-37.74476034 108.60394904 -20.77609423 98.99301526 -4.5 84 C9.06983946 71.51970969 23.73476322 59 43 59 C42.01 54.38 41.02 49.76 40 45 C-1.22398525 45.90362477 -41.21533817 51.74265545 -71.50390625 82.3359375 C-73.08237467 83.9435588 -73.08237467 83.9435588 -74 86 C-74.66 86 -75.32 86 -76 86 C-77.55156583 81.34530252 -78.53868517 77.80256279 -77 73 C-57.27278478 51.52594741 -21.22826486 40.83300421 7 39 C16.99939945 38.69543019 26.99914751 38.80459256 37 39 C34.20568798 31.58728932 34.20568798 31.58728932 28.35449219 26.68798828 C25.1933421 25.93102769 22.10298217 25.44305003 18.875 25.0625 C16.7253773 24.74890492 14.57690827 24.42729633 12.4296875 24.09765625 C11.36959473 23.93894043 10.30950195 23.78022461 9.21728516 23.61669922 C4.88004405 22.78532336 0.82144186 21.41989149 -3.32714844 19.92456055 C-19.83400239 14.21470889 -37.88543285 16.23302811 -54 22 C-54.99 22.33 -55.98 22.66 -57 23 C-55.47763907 18.8420517 -52.47349145 16.79883173 -49 14.3125 C-48.18015625 13.70825195 -48.18015625 13.70825195 -47.34375 13.09179688 C-39.40091976 7.28068211 -30.00187221 8.27229803 -20.48828125 9.42578125 C-10.70119845 11.27862039 -1.07044412 13.99977921 8.54638672 16.57446289 C14.02422323 18.03166994 19.35935631 19.39330286 25 20 C18.35378607 12.50932595 11.5884049 7.58043041 2.9296875 2.71484375 C1.96289062 2.14894531 0.99609375 1.58304688 0 1 C0 0.67 0 0.34 0 0 Z " fill="#E25D00" transform="translate(199,33)"/>
<path d="M0 0 C0.50692692 1.5811292 1.00526443 3.16501383 1.5 4.75 C1.7784375 5.63171875 2.056875 6.5134375 2.34375 7.421875 C3 10 3 10 3 14 C2.06800781 14.13535156 1.13601562 14.27070312 0.17578125 14.41015625 C-14.44130553 16.87835998 -24.87706418 23.25606576 -36 33 C-40.64676971 37.02335391 -45.31167573 41.02514432 -50 45 C-50.56058105 45.47759766 -51.12116211 45.95519531 -51.69873047 46.44726562 C-63.66332527 56.54992494 -83.52979756 72 -100 72 C-100.495 72.99 -100.495 72.99 -101 74 C-107.61138032 63.89834784 -114.40057287 53.18873776 -116 41 C-115.34 41 -114.68 41 -114 41 C-113.75636719 40.43539062 -113.51273437 39.87078125 -113.26171875 39.2890625 C-105.73453195 25.63292794 -87.78221236 16.62357111 -74 11 C-72.75476563 10.46826172 -72.75476563 10.46826172 -71.484375 9.92578125 C-48.42117733 0.75127023 -24.47165149 -0.34666173 0 0 Z " fill="#E25D00" transform="translate(239,78)"/>
<path d="M0 0 C9.04553009 -0.49339255 15.21974904 1.11924915 22.125 7.1875 C26.36011908 11.22409787 30.28330526 15.48335441 34 20 C36.56568963 19.49801725 39.09517602 18.97507295 41.625 18.3125 C44 18 44 18 47 20 C45.5361389 24.39158329 43.02168662 24.87947433 39 27 C39.3609375 27.68707031 39.721875 28.37414062 40.09375 29.08203125 C40.78984375 30.43361328 40.78984375 30.43361328 41.5 31.8125 C41.9640625 32.70582031 42.428125 33.59914062 42.90625 34.51953125 C44 37 44 37 44 40 C44.71285156 39.97679687 45.42570312 39.95359375 46.16015625 39.9296875 C51.88360394 39.82184326 56.59838814 40.07942689 62 42 C62.33 43.65 62.66 45.3 63 47 C57.39 46.34 51.78 45.68 46 45 C46.99 47.31 47.98 49.62 49 52 C49.1875 55.9375 49.1875 55.9375 49 59 C50.27875 59.061875 51.5575 59.12375 52.875 59.1875 C58.57524395 59.78561781 63.06888932 62.21016494 68 65 C68 67.31 68 69.62 68 72 C66.0087258 71.01321301 64.02880423 70.01545166 62.0703125 68.96484375 C61.42835938 68.62582031 60.78640625 68.28679687 60.125 67.9375 C59.48820313 67.59589844 58.85140625 67.25429687 58.1953125 66.90234375 C55.4992337 65.79416901 52.87870682 65.39777003 50 65 C50.01571045 65.60884033 50.0314209 66.21768066 50.04760742 66.8449707 C50.54021085 88.8167463 50.54021085 88.8167463 47 98 C46.56721076 99.27238669 46.13780396 100.54592659 45.7109375 101.8203125 C40.93096643 115.73030726 32.09947951 133.08520932 19 141 C16.125 141.984375 16.125 141.984375 13 142.75 C11.453125 143.14445312 11.453125 143.14445312 9.875 143.546875 C7.12569023 143.98019013 5.58659465 143.92023079 3 143 C3.65484375 142.63390625 4.3096875 142.2678125 4.984375 141.890625 C24.50938085 130.30799441 35.62153085 112.4192593 41.421875 90.66796875 C42.75817989 84.50110226 43.23410623 78.34504963 43.5625 72.0625 C43.62727539 70.89364258 43.62727539 70.89364258 43.69335938 69.70117188 C43.79828077 67.80092883 43.8995245 65.90048331 44 64 C24.1257488 67.41537868 11.59352035 78.85066741 -2.62133789 92.01025391 C-7.56866425 96.57161864 -12.71720192 100.83486019 -18 105 C-19.41732422 106.12728516 -19.41732422 106.12728516 -20.86328125 107.27734375 C-29.74395757 114.15839759 -41.44794012 123.12271856 -52.5625 125.5625 C-56.47747059 124.65904525 -57.72907627 122.24417676 -60 119 C-60 118.34 -60 117.68 -60 117 C-59.47792969 116.8047876 -58.95585937 116.6095752 -58.41796875 116.40844727 C-37.74476034 108.60394904 -20.77609423 98.99301526 -4.5 84 C9.06983946 71.51970969 23.73476322 59 43 59 C42.01 54.38 41.02 49.76 40 45 C-1.22398525 45.90362477 -41.21533817 51.74265545 -71.50390625 82.3359375 C-73.08237467 83.9435588 -73.08237467 83.9435588 -74 86 C-74.66 86 -75.32 86 -76 86 C-77.55156583 81.34530252 -78.53868517 77.80256279 -77 73 C-57.27278478 51.52594741 -21.22826486 40.83300421 7 39 C16.99939945 38.69543019 26.99914751 38.80459256 37 39 C34.20568798 31.58728932 34.20568798 31.58728932 28.35449219 26.68798828 C25.1933421 25.93102769 22.10298217 25.44305003 18.875 25.0625 C16.7253773 24.74890492 14.57690827 24.42729633 12.4296875 24.09765625 C11.36959473 23.93894043 10.30950195 23.78022461 9.21728516 23.61669922 C4.88004405 22.78532336 0.82144186 21.41989149 -3.32714844 19.92456055 C-19.83400239 14.21470889 -37.88543285 16.23302811 -54 22 C-54.99 22.33 -55.98 22.66 -57 23 C-55.47763907 18.8420517 -52.47349145 16.79883173 -49 14.3125 C-48.18015625 13.70825195 -48.18015625 13.70825195 -47.34375 13.09179688 C-39.40091976 7.28068211 -30.00187221 8.27229803 -20.48828125 9.42578125 C-10.70119845 11.27862039 -1.07044412 13.99977921 8.54638672 16.57446289 C14.02422323 18.03166994 19.35935631 19.39330286 25 20 C18.35378607 12.50932595 11.5884049 7.58043041 2.9296875 2.71484375 C1.96289062 2.14894531 0.99609375 1.58304688 0 1 C0 0.67 0 0.34 0 0 Z " fill="#0B0400" transform="translate(199,33)"/>
<path d="M0 0 C2.59846849 0.67588197 5.08044963 1.09865238 7.734375 1.4765625 C21.59749389 3.55943868 21.59749389 3.55943868 25.5234375 7.1640625 C27.40284884 10.30394443 28.8984375 13.04440306 28.8984375 16.75390625 C28.09438477 16.76848877 27.29033203 16.78307129 26.46191406 16.7980957 C5.3658228 17.22392979 -14.8602984 18.18789526 -35.1015625 24.75390625 C-36.89787109 25.29144531 -36.89787109 25.29144531 -38.73046875 25.83984375 C-54.72580501 30.81024021 -68.87582499 38.48204048 -81.90234375 49.01953125 C-84.1015625 50.75390625 -84.1015625 50.75390625 -85.1015625 50.75390625 C-86.33472833 32.35918262 -79.3972174 15.95385458 -68.19140625 1.64453125 C-65.62949698 -0.67315863 -63.41221761 -1.33619757 -60.1015625 -2.24609375 C-59.35132813 -2.51550781 -58.60109375 -2.78492188 -57.828125 -3.0625 C-57.13460937 -3.30871094 -56.44109375 -3.55492187 -55.7265625 -3.80859375 C-55.03820312 -4.05738281 -54.34984375 -4.30617187 -53.640625 -4.5625 C-35.86413548 -9.34847795 -17.05546707 -5.71507756 0 0 Z " fill="#E25D00" transform="translate(207.1015625,55.24609375)"/>
<path d="M0 0 C3.91903388 -0.16189741 6.65796167 -0.06138509 10.125 1.8125 C10.79789062 2.17472656 11.47078125 2.53695312 12.1640625 2.91015625 C14.23137587 4.13734865 16.15244564 5.46037137 18 7 C18.33 6.01 18.66 5.02 19 4 C17.08259607 26.25197715 11.87905037 45.3384549 -5 61 C-10.95055876 65.88118298 -17.74164168 71.23275089 -25 74 C-25.99 73.67 -26.98 73.34 -28 73 C-27.43152344 72.40574219 -26.86304688 71.81148438 -26.27734375 71.19921875 C-10.43792211 54.19630036 -1.11318455 33.67493454 -0.375 10.4375 C-0.33632812 9.42880859 -0.29765625 8.42011719 -0.2578125 7.38085938 C-0.16453797 4.9207436 -0.07874484 2.46061634 0 0 Z " fill="#E05D00" transform="translate(249,98)"/>
<path d="M0 0 C0.33 0.66 0.66 1.32 1 2 C2.3046259 2.72123053 3.64835945 3.37127903 5 4 C6.15628906 4.60714844 7.31257813 5.21429688 8.50390625 5.83984375 C23.85807599 13.83957495 36.75600499 15.58698384 54 16 C49.1118907 21.34636955 43.90887267 26.13041611 36.37890625 26.55859375 C34.77299469 26.54419682 33.16711729 26.50354962 31.5625 26.4375 C30.76779297 26.43169922 29.97308594 26.42589844 29.15429688 26.41992188 C11.85608577 26.06804614 -2.65684556 18.51052948 -16 8 C-10.66666667 5.33333333 -5.33333333 2.66666667 0 0 Z " fill="#BF5B00" transform="translate(161,151)"/>
<path d="M0 0 C0.13148438 0.54785156 0.26296875 1.09570312 0.3984375 1.66015625 C3.97836447 15.58467738 9.78169552 27.78169552 20 38 C17.70967689 38.83719383 15.41789043 39.6698929 13.125 40.5 C12.47402344 40.73847656 11.82304687 40.97695312 11.15234375 41.22265625 C6.2265625 43 6.2265625 43 4 43 C3.67 43.66 3.34 44.32 3 45 C-3.61138032 34.89834784 -10.40057287 24.18873776 -12 12 C-11.34 12 -10.68 12 -10 12 C-9.75507812 11.42765625 -9.51015625 10.8553125 -9.2578125 10.265625 C-7.78889901 7.61975598 -6.04651756 5.85146861 -3.875 3.75 C-3.15054688 3.04359375 -2.42609375 2.3371875 -1.6796875 1.609375 C-1.12539062 1.07828125 -0.57109375 0.5471875 0 0 Z " fill="#BF5B00" transform="translate(135,107)"/>
<path d="M0 0 C1.70481348 1.02670077 3.41345972 2.04705263 5.125 3.0625 C11.26875245 6.91578215 16.08788586 11.70429343 21 17 C17.5778403 18.15497268 15.35397592 17.82723669 11.88671875 16.92578125 C10.89406006 16.6721582 9.90140137 16.41853516 8.87866211 16.15722656 C7.29903687 15.73908691 7.29903687 15.73908691 5.6875 15.3125 C4.60025635 15.0350293 3.5130127 14.75755859 2.39282227 14.47167969 C-2.12986018 13.31082759 -6.64126793 12.13464101 -11.109375 10.77734375 C-22.23741918 7.46662472 -33.45265142 6.74042689 -45 6 C-34.20613534 -2.39263775 -11.62772353 -9.14860512 0 0 Z " fill="#DD5B00" transform="translate(204,36)"/>
<path d="M0 0 C0.33 0.66 0.66 1.32 1 2 C-0.20283247 4.62247177 -1.45761856 7.14509134 -2.8125 9.6875 C-7.49576826 18.50642923 -9.32187937 26.00492904 -9.390625 35.94726562 C-9.50135897 39.39539855 -9.64549494 41.53797472 -11.77734375 44.31640625 C-12.87755859 45.14978516 -12.87755859 45.14978516 -14 46 C-14.69480469 46.56203125 -15.38960937 47.1240625 -16.10546875 47.703125 C-17.13607422 48.46882813 -17.13607422 48.46882813 -18.1875 49.25 C-19.22970703 50.03117187 -19.22970703 50.03117187 -20.29296875 50.828125 C-22 52 -22 52 -23 52 C-24.23612824 33.56108703 -17.29441509 17.02541029 -5.89453125 2.79296875 C-3.88586214 0.89198087 -2.70527625 0.36590211 0 0 Z " fill="#C05C00" transform="translate(145,54)"/>
<path d="M0 0 C6.1105424 -0.11269443 11.95170514 0.10395632 18 1 C18.69951063 3.413762 19.38483919 5.83010234 20.0625 8.25 C20.26166016 8.93191406 20.46082031 9.61382812 20.66601562 10.31640625 C22.40009269 16.58342161 22.40009269 16.58342161 21 20 C20.20335937 19.65066406 19.40671875 19.30132812 18.5859375 18.94140625 C17.52632813 18.48636719 16.46671875 18.03132813 15.375 17.5625 C14.33085937 17.11003906 13.28671875 16.65757813 12.2109375 16.19140625 C9.11314749 15.04198295 6.26789946 14.42688777 3 14 C0.88838269 4.58997722 0.88838269 4.58997722 0 0 Z " fill="#DC5B00" transform="translate(245,78)"/>
<path d="M0 0 C6.39905181 6.022637 10.50970021 11.85596716 14 20 C8.39 19.67 2.78 19.34 -3 19 C-4.98 14.38 -6.96 9.76 -9 5 C-6.03 3.35 -3.06 1.7 0 0 Z " fill="#DF5C00" transform="translate(246,54)"/>
<path d="M0 0 C10.02303474 2.95761681 18.67683486 7.71138634 27 14 C21 18 21 18 18.5859375 17.91796875 C15.22315117 16.7242304 13.89110131 15.04900141 11.625 12.3125 C8.00314261 8.07789957 4.27909697 4.55074004 0 1 C0 0.67 0 0.34 0 0 Z " fill="#DA5A00" transform="translate(216,36)"/>
<path d="M0 0 C0.66 0.33 1.32 0.66 2 1 C-3.615106 6.43812558 -9.68832578 11.07060548 -17 14 C-17.99 13.67 -18.98 13.34 -20 13 C-13.0762192 4.30134137 -13.0762192 4.30134137 -8.875 3.125 C-7.451875 3.063125 -7.451875 3.063125 -6 3 C-4.9275 2.46375 -3.855 1.9275 -2.75 1.375 C-1.8425 0.92125 -0.935 0.4675 0 0 Z " fill="#C05B00" transform="translate(241,158)"/>
<path d="M0 0 C0.66 0.33 1.32 0.66 2 1 C-0.77041558 5.01710259 -3.33251256 7.44417085 -8 9 C-6.4169423 4.7257442 -3.49431596 2.73468206 0 0 Z " fill="#2E1600" transform="translate(150,47)"/>
<path d="M0 0 C3 1 3 1 6 3 C2.7 3 -0.6 3 -4 3 C-2.68 2.01 -1.36 1.02 0 0 Z " fill="#EB6700" transform="translate(165,38)"/>
</svg>