<svg xmlns="http://www.w3.org/2000/svg" xmlns:xlink="http://www.w3.org/1999/xlink" version="1.1" id="layer" x="0px" y="0px" style="enable-background:new -153 -46 652 652;" xml:space="preserve" viewBox="-57 25 451.1 499.9">
<style type="text/css">
	.st0{fill:#061922;}
	.st1{fill:#FFFFFF;}
	.st2{fill:#E03A3E;}
</style>
<g>
	<path class="st0" d="M339.9,159.4c-7.4-11-15.9-21.3-25.3-30.6c-4.1-4.1-8.3-8-12.7-11.7L394.1,25H125.9L22.3,128.6h0   c-0.1,0.1-0.1,0.1-0.2,0.2c-9.4,9.4-17.9,19.7-25.3,30.6c-7.5,11.1-13.9,22.9-19.1,35.1C-33,220-38.4,247.1-38.4,275   c0,27.9,5.5,55,16.3,80.5c5.2,12.3,11.6,24.1,19.1,35.1c7.4,11,15.9,21.3,25.3,30.6c4.1,4.1,8.3,8,12.7,11.7l-92,92H211   l103.9-103.9c9.3-9.3,17.7-19.5,25.1-30.4c7.5-11.1,13.9-22.9,19.1-35.1c10.8-25.5,16.3-52.6,16.3-80.5c0-27.9-5.5-55-16.3-80.5   C353.8,182.3,347.4,170.5,339.9,159.4"/>
	<path class="st1" d="M302.6,140.7c-4.1-4.1-8.2-7.9-12.6-11.5L177.4,241.7c5.5,1.6,10.8,4.5,15.1,8.9l0,0   c13.6,13.6,13.6,35.6,0,49.2L-15.9,508.3H8.5l196.3-196.3c20.3-20.3,20.3-53.1,0.2-73.5l12.2-12.2c26.9,27.1,26.8,70.9-0.2,97.9   L33,508.3h24.4l171.9-171.9c33.8-33.8,33.8-88.5,0.2-122.3l12.2-12.2c40.4,40.6,40.3,106.2-0.2,146.7L81.8,508.3h24.4l147.4-147.4   c47.3-47.3,47.3-123.8,0.2-171.2l12.2-12.2c53.9,54.1,53.8,141.6-0.2,195.6L130.7,508.3h24.4l123-123c60.8-60.7,60.8-159.2,0.2-220   l12.3-12.3c67.4,67.6,67.4,177.1-0.2,244.6L179.7,508.3h24.4l98.5-98.5l-0.1-0.1C376.9,335.5,376.9,215,302.6,140.7"/>
	<path class="st2" d="M34.4,409.6c4.1,4.1,8.2,7.9,12.6,11.5l112.6-112.6c-5.5-1.6-10.8-4.5-15.1-8.9l0,0   c-13.6-13.6-13.6-35.6,0-49.2L353.1,41.6h-24.4L132.1,238.2c-20.3,20.3-20.3,53.1-0.2,73.5l-12.2,12.2   c-26.9-27.1-26.8-70.9,0.2-97.9L304.3,41.6h-24.4L107.7,213.8c-33.8,33.8-33.8,88.5-0.2,122.3l-12.2,12.2   C54.9,307.7,55,242.1,95.5,201.6L255.4,41.6H231L83.3,189.3C36,236.6,35.9,313.2,83.1,360.5l-12.2,12.2C17,318.7,17,231.1,71,177.1   L206.5,41.6h-24.4L58.8,164.9C-1.9,225.7-2,324.1,58.6,385l-12.3,12.3c-67.4-67.6-67.4-177.1,0.2-244.6l111-111h-24.4l-98.8,98.8   l0.1,0.1C-39.9,214.8-39.9,335.3,34.4,409.6"/>
</g>
</svg>