<svg xmlns="http://www.w3.org/2000/svg" version="1.1" viewBox="56 20 373.59 459">
<path d="M0 0 C19.14 0 38.28 0 58 0 C58.56152333 23.20517447 58.56152333 23.20517447 58.68359375 33.25976562 C58.76661442 40.06515363 58.86371858 46.8678538 59.05615234 53.67114258 C60.35414011 100.80153789 60.35414011 100.80153789 45.86256409 119.45549011 C42.41121261 124.17049456 39.77144568 129.36723748 37 134.5 C35.8534363 136.55516045 34.7040821 138.60876893 33.55078125 140.66015625 C32.97537598 141.6877002 32.3999707 142.71524414 31.80712891 143.77392578 C30.21914296 146.60878748 28.63051198 149.44328569 27.04147339 152.27755737 C26.05680343 154.03391677 25.07234552 155.79039504 24.08789062 157.546875 C22.8434705 159.76713537 21.59869248 161.98719519 20.35351562 164.20703125 C19.79728516 165.19960937 19.24105469 166.1921875 18.66796875 167.21484375 C18.17578857 168.09261475 17.6836084 168.97038574 17.17651367 169.87475586 C16.42351086 171.23497365 15.69529931 172.60940138 15 174 C40.245 173.505 40.245 173.505 66 173 C68.041875 169.184375 70.08375 165.36875 72.1875 161.4375 C77.32571588 151.87082296 82.56932085 142.37608948 87.93969727 132.9375 C92.56190881 124.80386814 97.10419049 116.62776444 101.625 108.4375 C101.9731073 107.80790375 102.3212146 107.1783075 102.67987061 106.52963257 C103.67597341 104.72753938 104.67032477 102.924492 105.6640625 101.12109375 C106.23592285 100.0839624 106.8077832 99.04683105 107.39697266 97.97827148 C107.92597168 96.99544189 108.4549707 96.0126123 109 95 C109.54188965 94.03819824 110.0837793 93.07639648 110.64208984 92.08544922 C112.22441411 88.49008532 112.66180905 85.41626725 113.0625 81.51171875 C113.13992432 80.80908401 113.21734863 80.10644928 113.29711914 79.38252258 C113.54233656 77.15185756 113.77280357 74.92006743 114 72.6875 C115.56327348 57.43560527 118.98502119 46.47070687 126.5625 33.0625 C127.2357361 31.85912093 127.90826535 30.65534613 128.58007812 29.45117188 C130.71492339 25.63124379 132.85761496 21.81570455 135 18 C139.95 9.09 139.95 9.09 145 0 C163.48 0 181.96 0 201 0 C201.56152333 23.41463158 201.56152333 23.41463158 201.68359375 33.56640625 C201.76658769 40.43533901 201.86361689 47.30160693 202.05615234 54.16845703 C203.36105644 101.95976055 203.36105644 101.95976055 188.77174377 121.5471344 C185.85239498 125.58878554 183.52866469 129.95252885 181.125 134.3125 C180.1502905 136.01092915 179.17276344 137.70774697 178.19140625 139.40234375 C174.3997694 146.01454448 170.7335406 152.69544292 167.0625 159.375 C162.23671898 168.15324955 157.38173638 176.91266896 152.4375 185.625 C146.03185422 196.91439336 139.72724313 208.25867037 133.43457031 219.61132812 C129.9678857 225.86272661 126.4951556 232.11077096 123.0234375 238.359375 C122.67751179 238.98199471 122.33158607 239.60461441 121.97517776 240.24610138 C119.98352314 243.83077387 117.99179188 247.41540377 116 251 C115.06198547 250.98366013 114.12397095 250.96732025 113.15753174 250.95048523 C104.27255999 250.80432165 95.3892831 250.72778417 86.50308609 250.71759319 C81.93526699 250.71016564 77.37027306 250.67910481 72.80322266 250.59204102 C68.38660951 250.50874765 63.97382631 250.49013828 59.55654144 250.51441383 C57.88046214 250.51263606 56.20423645 250.48842052 54.52884674 250.44031334 C44.20354941 250.09130912 44.20354941 250.09130912 35.3729248 254.8006897 C32.73252859 257.47309611 30.41041224 260.32934969 28.19762421 263.36187172 C26.39842514 265.82284308 24.44134564 268.15064317 22.5 270.5 C21.7884375 271.386875 21.076875 272.27375 20.34375 273.1875 C17.18827844 276.97406588 13.82853195 280.5489286 10.45898438 284.14428711 C6.40617302 288.49429596 2.63562129 293.00248455 -1.0625 297.66015625 C-2.93085059 299.91649093 -4.9163365 301.94422337 -7 304 C2.79348037 304.15151065 12.48819971 303.67904213 22.25 303 C38.87208103 301.85550366 38.87208103 301.85550366 47 302 C39.80730602 309.43245044 31.94946564 316.11496012 23.91796875 322.6171875 C20.74582791 325.20755686 17.61950876 327.84676215 14.5 330.5 C10.42996219 333.96025378 6.33232974 337.37910113 2.1875 340.75 C-2.29904235 344.40107186 -6.68165963 348.15185142 -11 352 C-10.07380859 352.99966797 -10.07380859 352.99966797 -9.12890625 354.01953125 C-3.96024356 359.6444838 0.98531489 365.36932689 5.78515625 371.31640625 C7.95632827 373.94708557 10.20241357 376.47942424 12.5 379 C16.40911732 383.2891704 20.07546466 387.73437873 23.71875 392.25 C26.76647001 395.92396385 29.99031335 399.42019622 33.25 402.90625 C35 405 35 405 36 408 C28.11797595 407.32703701 20.61880142 405.20795068 13 403.18359375 C11.55423568 402.80343034 10.10835147 402.42372264 8.66235352 402.04444885 C4.88008054 401.05109358 1.09945526 400.05160549 -2.68084717 399.05078125 C-6.54796403 398.02815341 -10.41662532 397.01140337 -14.28515625 395.99414062 C-21.85828458 394.00180586 -29.42967992 392.00298212 -37 390 C-39.12376271 393.18564406 -39.92216572 395.72758001 -40.97119141 399.39916992 C-41.1568013 400.04334366 -41.34241119 400.6875174 -41.53364563 401.35121155 C-42.14460482 403.47623614 -42.74810657 405.60330244 -43.3515625 407.73046875 C-43.77423078 409.20604861 -44.19736329 410.68149557 -44.62094116 412.15681458 C-45.73360676 416.03692256 -46.83995715 419.91880379 -47.94500732 423.80108643 C-49.07411697 427.76366234 -50.20918261 431.72453089 -51.34375 435.68554688 C-53.56833667 443.45537152 -55.78625541 451.22707937 -58 459 C-58.99 459 -59.98 459 -61 459 C-61.648479 457.41638672 -61.648479 457.41638672 -62.31005859 455.80078125 C-70.48374618 435.84353912 -78.66558437 415.89079145 -87 396 C-94.4151366 397.47581633 -101.40802867 399.7076086 -108.55078125 402.16796875 C-110.964081 402.98665749 -113.37749586 403.80500699 -115.79101562 404.62304688 C-119.56925105 405.90942787 -123.34649062 407.19858921 -127.12133789 408.49487305 C-130.78225121 409.74930525 -134.44736559 410.99074519 -138.11328125 412.23046875 C-139.81173943 412.81939156 -139.81173943 412.81939156 -141.54450989 413.42021179 C-142.59627914 413.77420547 -143.6480484 414.12819916 -144.73168945 414.49291992 C-145.65496536 414.80887619 -146.57824127 415.12483246 -147.52949524 415.45036316 C-150.12607764 416.0280497 -151.52187378 415.88134139 -154 415 C-153.45359863 414.18184814 -152.90719727 413.36369629 -152.34423828 412.52075195 C-145.15864284 401.75536176 -137.9951402 390.97534625 -130.85546875 380.17944336 C-129.51898857 378.16038954 -128.18072997 376.14251195 -126.84082031 374.12573242 C-124.8869563 371.18431245 -122.93895773 368.23908693 -120.9921875 365.29296875 C-120.38921844 364.38790085 -119.78624939 363.48283295 -119.16500854 362.55033875 C-118.61668365 361.7179921 -118.06835876 360.88564545 -117.50341797 360.02807617 C-116.77588821 358.93011971 -116.77588821 358.93011971 -116.03366089 357.8099823 C-114.83469447 356.05793398 -114.83469447 356.05793398 -115 354 C-117.10985447 352.28631908 -119.22466699 350.696778 -121.4375 349.125 C-122.11127686 348.6388623 -122.78505371 348.15272461 -123.47924805 347.65185547 C-129.09931202 343.60861607 -134.75965304 339.62086267 -140.42480469 335.64111328 C-146.63774629 331.27338988 -152.79532264 326.83136575 -158.93676758 322.36376953 C-162.0932893 320.07290271 -165.24974384 317.81443981 -168.51953125 315.6875 C-169.33808594 315.130625 -170.15664062 314.57375 -171 314 C-171 313.67 -171 313.34 -171 313 C-167.750738 312.29152696 -164.64886386 311.84393247 -161.32763672 311.70288086 C-160.42834442 311.66291489 -159.52905212 311.62294891 -158.60250854 311.58177185 C-157.15571213 311.52389244 -157.15571213 311.52389244 -155.6796875 311.46484375 C-154.66641388 311.42186661 -153.65314026 311.37888947 -152.60916138 311.33460999 C-150.45908534 311.244485 -148.30892494 311.15635407 -146.15869141 311.07006836 C-142.934947 310.93992016 -139.71163705 310.80151246 -136.48828125 310.66210938 C-123.98425761 310.13824624 -111.51459384 309.87431408 -99 310 C-99.0501123 309.36710052 -99.10022461 308.73420105 -99.15185547 308.0821228 C-99.67745615 301.4302499 -100.19534852 294.77780724 -100.70898438 288.125 C-100.90106134 285.6499143 -101.09503256 283.17497478 -101.29101562 280.70019531 C-103.37857926 254.30742646 -103.37857926 254.30742646 -103 243 C-97.96258341 247.17642957 -93.4215205 251.55675487 -89 256.375 C-88.38334473 257.04128418 -87.76668945 257.70756836 -87.13134766 258.39404297 C-83.64619603 262.17108644 -80.21443743 265.98611927 -76.86328125 269.8828125 C-72.34668765 275.01487483 -67.65104236 279.99001021 -63 285 C-62.68248779 284.21874756 -62.36497559 283.43749512 -62.0378418 282.63256836 C-60.84744867 279.70445745 -59.65646251 276.77658864 -58.46508789 273.84887695 C-57.95183317 272.58725333 -57.43880758 271.32553646 -56.92602539 270.0637207 C-56.18437558 268.23884333 -55.44180378 266.41434076 -54.69921875 264.58984375 C-54.25408936 263.49534912 -53.80895996 262.40085449 -53.3503418 261.27319336 C-51.93212147 257.83546421 -50.46489952 254.41809889 -49 251 C-61.87 251 -74.74 251 -88 251 C-89.77375 246.648125 -91.5475 242.29625 -93.375 237.8125 C-93.93106934 236.44843018 -94.48713867 235.08436035 -95.06005859 233.67895508 C-95.50172363 232.59509521 -95.94338867 231.51123535 -96.3984375 230.39453125 C-96.84880371 229.28956299 -97.29916992 228.18459473 -97.76318359 227.04614258 C-98.17133301 226.04091553 -98.57948242 225.03568848 -99 224 C-99.38422119 223.10869385 -99.76844238 222.2173877 -100.16430664 221.29907227 C-101.44381559 217.77902091 -100.92404362 215.62937616 -100 212 C-98.36065176 208.4959217 -96.41093607 205.19980763 -94.4375 201.875 C-93.24313993 199.81345606 -92.05051132 197.75090827 -90.859375 195.6875 C-90.22837891 194.59953125 -89.59738281 193.5115625 -88.94726562 192.390625 C-85.61825027 186.59406467 -82.40569572 180.73348431 -79.1875 174.875 C-78.51122245 173.64639918 -77.83478911 172.41788411 -77.15820312 171.18945312 C-75.7891269 168.70344732 -74.4206552 166.21711049 -73.05273438 163.73046875 C-64.69079864 148.53164278 -56.31129266 133.34230518 -47.89871216 118.17144775 C-46.97648464 116.50782509 -46.05547607 114.84352689 -45.13452148 113.17919922 C-41.67902257 106.95394381 -38.12447621 100.81172268 -34.40942383 94.73706055 C-32.17476438 90.39741616 -31.65689977 86.09921447 -31.21240234 81.28320312 C-30.83586507 77.23564387 -30.39310431 73.19533314 -29.94824219 69.15478516 C-29.69507316 66.83812831 -29.45441688 64.52006281 -29.22753906 62.20068359 C-28.59590761 56.24618593 -27.77946867 51.38404942 -25 46 C-24.4272937 44.8545874 -24.4272937 44.8545874 -23.84301758 43.68603516 C-22.46328638 40.94310577 -21.04743203 38.22101113 -19.625 35.5 C-19.17511719 34.62730469 -18.72523438 33.75460938 -18.26171875 32.85546875 C-12.46110202 21.73120908 -6.1829765 10.93911227 0 0 Z " fill="#081B24" transform="translate(227,20)"/>
<path d="M0 0 C7.92 0 15.84 0 24 0 C18.40277648 11.58495101 12.13475006 22.71895353 5.76464844 33.89404297 C2.84032342 39.04114631 -0.0484477 44.20804107 -2.9375 49.375 C-3.79456543 50.9060437 -3.79456543 50.9060437 -4.66894531 52.46801758 C-7.43730304 57.41411391 -10.20258403 62.36190899 -12.96305847 67.31240845 C-13.94627341 69.07527043 -14.93017403 70.83774783 -15.91430664 72.60009766 C-17.15969997 74.83075329 -18.40372473 77.06217368 -19.64624023 79.29443359 C-20.20255127 80.29039551 -20.7588623 81.28635742 -21.33203125 82.3125 C-21.82421143 83.19550781 -22.3163916 84.07851562 -22.82348633 84.98828125 C-24 87 -24 87 -25 88 C14.6 88.33 54.2 88.66 95 89 C95.66 87.35 96.32 85.7 97 84 C98.05159709 81.97747251 99.13414028 79.97089111 100.23828125 77.9765625 C100.7135601 77.11570541 100.7135601 77.11570541 101.19844055 76.23745728 C102.23345525 74.36495661 103.27283043 72.49491955 104.3125 70.625 C105.03903233 69.31355001 105.76543053 68.0020257 106.49169922 66.69042969 C111.85904106 57.00816597 117.29111871 47.36309043 122.75390625 37.734375 C126.97790298 30.28470968 131.15448658 22.80851725 135.33251953 15.33300781 C135.88407715 14.34655273 136.43563477 13.36009766 137.00390625 12.34375 C137.48674072 11.47943359 137.9695752 10.61511719 138.46704102 9.72460938 C140.29579582 6.47426639 142.14965626 3.23810155 144 0 C151.59 0 159.18 0 167 0 C165.57154707 4.28535879 164.29890041 7.58542212 162.19921875 11.46484375 C161.36197266 13.01751953 161.36197266 13.01751953 160.5078125 14.6015625 C159.90710938 15.70242187 159.30640625 16.80328125 158.6875 17.9375 C158.06230469 19.09121094 157.43710937 20.24492187 156.79296875 21.43359375 C152.2591365 29.78226482 147.60128403 38.05846296 142.8972168 46.31225586 C138.21315529 54.55589273 133.72719848 62.89929853 129.25683594 71.26025391 C124.65566126 79.84197369 119.90962196 88.33453613 115.0859375 96.79296875 C114.57804688 97.68371094 114.07015625 98.57445312 113.546875 99.4921875 C113.10182617 100.26933105 112.65677734 101.04647461 112.19824219 101.84716797 C111.07099446 103.8724472 110.02958241 105.92388718 109 108 C107.81873283 107.87556267 107.81873283 107.87556267 106.61360168 107.74861145 C69.31142249 102.52875125 69.31142249 102.52875125 35.15869141 112.92919922 C25.69902684 122.20121272 20.09050293 134.41326549 14.71972656 146.33886719 C10.74260428 154.95762214 5.25698242 162.58011566 -0.15631104 170.34289551 C-3.32310402 174.90684314 -6.40409893 179.52844508 -9.5 184.140625 C-10.74804793 185.99132391 -11.99674479 187.84158537 -13.24609375 189.69140625 C-13.86339355 190.6055127 -14.48069336 191.51961914 -15.11669922 192.46142578 C-15.73818848 193.38165527 -16.35967773 194.30188477 -17 195.25 C-18.9129724 198.08333275 -20.82576619 200.91678577 -22.73828125 203.75042725 C-23.9111665 205.4881324 -25.08432126 207.22565568 -26.2578125 208.96295166 C-29.85794925 214.29578976 -33.43672012 219.64246573 -37 225 C-23.30903057 225.16741675 -9.67449331 224.6492751 4 224 C0.85454165 227.94170543 -2.21976415 231.22191006 -6.1875 234.375 C-7.13625 235.13425781 -8.085 235.89351562 -9.0625 236.67578125 C-10.5165625 237.82626953 -10.5165625 237.82626953 -12 239 C-13.89614436 240.52044554 -15.79199887 242.04125264 -17.6875 243.5625 C-19.12449468 244.70896699 -20.56179506 245.8550516 -22 247 C-18.06492394 252.52453815 -13.76437943 257.58356009 -9.19140625 262.58984375 C-6.39094711 265.66984961 -3.69185191 268.82499518 -1 272 C-1.33 272.66 -1.66 273.32 -2 274 C-6.35454213 272.87644999 -10.70856546 271.75090201 -15.0625 270.625 C-16.29162109 270.30789063 -17.52074219 269.99078125 -18.78710938 269.6640625 C-24.54495462 268.17416184 -30.29406958 266.67871356 -36 265 C-36.10957031 265.59425781 -36.21914062 266.18851562 -36.33203125 266.80078125 C-37.5755788 273.30160302 -39.17746036 279.63915621 -41 286 C-41.26039063 286.93972656 -41.52078125 287.87945312 -41.7890625 288.84765625 C-42.04429687 289.74355469 -42.29953125 290.63945312 -42.5625 291.5625 C-42.79066406 292.36816406 -43.01882812 293.17382812 -43.25390625 294.00390625 C-44 296 -44 296 -46 298 C-49.96 288.43 -53.92 278.86 -58 269 C-65.96163832 270.5293753 -65.96163832 270.5293753 -73.5703125 272.7265625 C-74.94316406 273.190625 -74.94316406 273.190625 -76.34375 273.6640625 C-77.2615625 273.98117187 -78.179375 274.29828125 -79.125 274.625 C-80.08148438 274.94984375 -81.03796875 275.2746875 -82.0234375 275.609375 C-84.35091277 276.40071659 -86.6763045 277.19764199 -89 278 C-87.62677657 274.16897724 -85.85745615 271.14152393 -83.48828125 267.83984375 C-82.81345703 266.88142578 -82.13863281 265.92300781 -81.44335938 264.93554688 C-80.01700259 262.92871126 -78.58465054 260.92612397 -77.14648438 258.92773438 C-76.47552734 257.97060547 -75.80457031 257.01347656 -75.11328125 256.02734375 C-74.49235596 255.15843506 -73.87143066 254.28952637 -73.23168945 253.39428711 C-71.81970617 251.13151193 -71.81970617 251.13151193 -72.08227539 248.86328125 C-73.23228306 246.52838937 -74.42118244 245.62000682 -76.5703125 244.16015625 C-77.3025 243.65419922 -78.0346875 243.14824219 -78.7890625 242.62695312 C-79.94535156 241.85254883 -79.94535156 241.85254883 -81.125 241.0625 C-82.62767222 240.03265137 -84.13027709 239.00270448 -85.6328125 237.97265625 C-86.72770996 237.22846436 -86.72770996 237.22846436 -87.84472656 236.46923828 C-90.93699538 234.3612553 -93.99327556 232.22912329 -97 230 C-97 229.67 -97 229.34 -97 229 C-92.62527437 228.66300003 -88.25017987 228.33104633 -83.875 228 C-82.01875 227.85691406 -82.01875 227.85691406 -80.125 227.7109375 C-78.32675781 227.57558594 -78.32675781 227.57558594 -76.4921875 227.4375 C-75.39245605 227.35371094 -74.29272461 227.26992188 -73.15966797 227.18359375 C-70.11097428 227.0064482 -67.05383591 227 -64 227 C-64 218.42 -64 209.84 -64 201 C-59.65742945 204.72220333 -56.00470382 207.87977 -52.3125 212.0625 C-51.58675781 212.87847656 -50.86101562 213.69445312 -50.11328125 214.53515625 C-48.01693029 216.98025322 -45.99587691 219.47248997 -44 222 C-37.66272888 208.4751885 -31.46496024 194.90725871 -25.5625 181.1875 C-20.23267868 168.80091525 -14.76572735 156.48376 -9.23046875 144.1875 C-5.35256845 135.57257349 -1.52145924 126.93708587 2.30688477 118.30004883 C2.77795654 117.23810303 3.24902832 116.17615723 3.734375 115.08203125 C4.14913086 114.14593018 4.56388672 113.2098291 4.99121094 112.24536133 C5.63279573 110.81732278 6.29986785 109.4002643 7 108 C-15.11 108 -37.22 108 -60 108 C-58.02 104.37 -56.04 100.74 -54 97 C-53.00703274 95.16258187 -52.01557761 93.32434326 -51.02734375 91.484375 C-45.13595605 80.54363326 -39.15661347 69.66203862 -33.01733398 58.85839844 C-28.7988414 51.43082703 -24.63989154 43.97163722 -20.5 36.5 C-13.73485523 24.29410853 -6.88210846 12.14034863 0 0 Z " fill="#C1CAD0" transform="translate(210,122)"/>
<path d="M0 0 C19.14 0 38.28 0 58 0 C58.56152333 23.20517447 58.56152333 23.20517447 58.68359375 33.25976562 C58.76661442 40.06515363 58.86371858 46.8678538 59.05615234 53.67114258 C60.35414011 100.80153789 60.35414011 100.80153789 45.86256409 119.45549011 C42.41121261 124.17049456 39.77144568 129.36723748 37 134.5 C35.8534363 136.55516045 34.7040821 138.60876893 33.55078125 140.66015625 C32.97537598 141.6877002 32.3999707 142.71524414 31.80712891 143.77392578 C30.21914296 146.60878748 28.63051198 149.44328569 27.04147339 152.27755737 C26.05680343 154.03391677 25.07234552 155.79039504 24.08789062 157.546875 C22.8434705 159.76713537 21.59869248 161.98719519 20.35351562 164.20703125 C19.79728516 165.19960937 19.24105469 166.1921875 18.66796875 167.21484375 C18.17578857 168.09261475 17.6836084 168.97038574 17.17651367 169.87475586 C16.42351086 171.23497365 15.69529931 172.60940138 15 174 C40.245 173.505 40.245 173.505 66 173 C68.041875 169.184375 70.08375 165.36875 72.1875 161.4375 C77.32571588 151.87082296 82.56932085 142.37608948 87.93969727 132.9375 C92.56190881 124.80386814 97.10419049 116.62776444 101.625 108.4375 C101.9731073 107.80790375 102.3212146 107.1783075 102.67987061 106.52963257 C103.67597341 104.72753938 104.67032477 102.924492 105.6640625 101.12109375 C106.23592285 100.0839624 106.8077832 99.04683105 107.39697266 97.97827148 C107.92597168 96.99544189 108.4549707 96.0126123 109 95 C109.54188965 94.03819824 110.0837793 93.07639648 110.64208984 92.08544922 C112.22441411 88.49008532 112.66180905 85.41626725 113.0625 81.51171875 C113.13992432 80.80908401 113.21734863 80.10644928 113.29711914 79.38252258 C113.54233656 77.15185756 113.77280357 74.92006743 114 72.6875 C115.56327348 57.43560527 118.98502119 46.47070687 126.5625 33.0625 C127.2357361 31.85912093 127.90826535 30.65534613 128.58007812 29.45117188 C130.71492339 25.63124379 132.85761496 21.81570455 135 18 C139.95 9.09 139.95 9.09 145 0 C163.48 0 181.96 0 201 0 C201.56152333 23.41463158 201.56152333 23.41463158 201.68359375 33.56640625 C201.76658769 40.43533901 201.86361689 47.30160693 202.05615234 54.16845703 C203.36105644 101.95976055 203.36105644 101.95976055 188.77174377 121.5471344 C185.85239498 125.58878554 183.52866469 129.95252885 181.125 134.3125 C180.1502905 136.01092915 179.17276344 137.70774697 178.19140625 139.40234375 C174.3997694 146.01454448 170.7335406 152.69544292 167.0625 159.375 C162.23671898 168.15324955 157.38173638 176.91266896 152.4375 185.625 C146.03185422 196.91439336 139.72724313 208.25867037 133.43457031 219.61132812 C129.9678857 225.86272661 126.4951556 232.11077096 123.0234375 238.359375 C122.67751179 238.98199471 122.33158607 239.60461441 121.97517776 240.24610138 C119.98352314 243.83077387 117.99179188 247.41540377 116 251 C115.06198547 250.98366013 114.12397095 250.96732025 113.15753174 250.95048523 C104.27255999 250.80432165 95.3892831 250.72778417 86.50308609 250.71759319 C81.93526699 250.71016564 77.37027306 250.67910481 72.80322266 250.59204102 C68.38660951 250.50874765 63.97382631 250.49013828 59.55654144 250.51441383 C57.88046214 250.51263606 56.20423645 250.48842052 54.52884674 250.44031334 C44.20354941 250.09130912 44.20354941 250.09130912 35.3729248 254.8006897 C32.73252859 257.47309611 30.41041224 260.32934969 28.19762421 263.36187172 C26.39842514 265.82284308 24.44134564 268.15064317 22.5 270.5 C21.7884375 271.386875 21.076875 272.27375 20.34375 273.1875 C17.18827844 276.97406588 13.82853195 280.5489286 10.45898438 284.14428711 C6.40617302 288.49429596 2.63562129 293.00248455 -1.0625 297.66015625 C-2.93085059 299.91649093 -4.9163365 301.94422337 -7 304 C2.79348037 304.15151065 12.48819971 303.67904213 22.25 303 C38.87208103 301.85550366 38.87208103 301.85550366 47 302 C39.80730602 309.43245044 31.94946564 316.11496012 23.91796875 322.6171875 C20.74582791 325.20755686 17.61950876 327.84676215 14.5 330.5 C10.42996219 333.96025378 6.33232974 337.37910113 2.1875 340.75 C-2.29904235 344.40107186 -6.68165963 348.15185142 -11 352 C-10.07380859 352.99966797 -10.07380859 352.99966797 -9.12890625 354.01953125 C-3.96024356 359.6444838 0.98531489 365.36932689 5.78515625 371.31640625 C7.95632827 373.94708557 10.20241357 376.47942424 12.5 379 C16.40911732 383.2891704 20.07546466 387.73437873 23.71875 392.25 C26.76647001 395.92396385 29.99031335 399.42019622 33.25 402.90625 C35 405 35 405 36 408 C28.11797595 407.32703701 20.61880142 405.20795068 13 403.18359375 C11.55423568 402.80343034 10.10835147 402.42372264 8.66235352 402.04444885 C4.88008054 401.05109358 1.09945526 400.05160549 -2.68084717 399.05078125 C-6.54796403 398.02815341 -10.41662532 397.01140337 -14.28515625 395.99414062 C-21.85828458 394.00180586 -29.42967992 392.00298212 -37 390 C-39.12376271 393.18564406 -39.92216572 395.72758001 -40.97119141 399.39916992 C-41.1568013 400.04334366 -41.34241119 400.6875174 -41.53364563 401.35121155 C-42.14460482 403.47623614 -42.74810657 405.60330244 -43.3515625 407.73046875 C-43.77423078 409.20604861 -44.19736329 410.68149557 -44.62094116 412.15681458 C-45.73360676 416.03692256 -46.83995715 419.91880379 -47.94500732 423.80108643 C-49.07411697 427.76366234 -50.20918261 431.72453089 -51.34375 435.68554688 C-53.56833667 443.45537152 -55.78625541 451.22707937 -58 459 C-58.99 459 -59.98 459 -61 459 C-61.648479 457.41638672 -61.648479 457.41638672 -62.31005859 455.80078125 C-70.48374618 435.84353912 -78.66558437 415.89079145 -87 396 C-94.4151366 397.47581633 -101.40802867 399.7076086 -108.55078125 402.16796875 C-110.964081 402.98665749 -113.37749586 403.80500699 -115.79101562 404.62304688 C-119.56925105 405.90942787 -123.34649062 407.19858921 -127.12133789 408.49487305 C-130.78225121 409.74930525 -134.44736559 410.99074519 -138.11328125 412.23046875 C-139.81173943 412.81939156 -139.81173943 412.81939156 -141.54450989 413.42021179 C-142.59627914 413.77420547 -143.6480484 414.12819916 -144.73168945 414.49291992 C-145.65496536 414.80887619 -146.57824127 415.12483246 -147.52949524 415.45036316 C-150.12607764 416.0280497 -151.52187378 415.88134139 -154 415 C-153.45359863 414.18184814 -152.90719727 413.36369629 -152.34423828 412.52075195 C-145.15864284 401.75536176 -137.9951402 390.97534625 -130.85546875 380.17944336 C-129.51898857 378.16038954 -128.18072997 376.14251195 -126.84082031 374.12573242 C-124.8869563 371.18431245 -122.93895773 368.23908693 -120.9921875 365.29296875 C-120.38921844 364.38790085 -119.78624939 363.48283295 -119.16500854 362.55033875 C-118.61668365 361.7179921 -118.06835876 360.88564545 -117.50341797 360.02807617 C-116.77588821 358.93011971 -116.77588821 358.93011971 -116.03366089 357.8099823 C-114.83469447 356.05793398 -114.83469447 356.05793398 -115 354 C-117.10985447 352.28631908 -119.22466699 350.696778 -121.4375 349.125 C-122.11127686 348.6388623 -122.78505371 348.15272461 -123.47924805 347.65185547 C-129.09931202 343.60861607 -134.75965304 339.62086267 -140.42480469 335.64111328 C-146.63774629 331.27338988 -152.79532264 326.83136575 -158.93676758 322.36376953 C-162.0932893 320.07290271 -165.24974384 317.81443981 -168.51953125 315.6875 C-169.33808594 315.130625 -170.15664062 314.57375 -171 314 C-171 313.67 -171 313.34 -171 313 C-167.750738 312.29152696 -164.64886386 311.84393247 -161.32763672 311.70288086 C-160.42834442 311.66291489 -159.52905212 311.62294891 -158.60250854 311.58177185 C-157.15571213 311.52389244 -157.15571213 311.52389244 -155.6796875 311.46484375 C-154.66641388 311.42186661 -153.65314026 311.37888947 -152.60916138 311.33460999 C-150.45908534 311.244485 -148.30892494 311.15635407 -146.15869141 311.07006836 C-142.934947 310.93992016 -139.71163705 310.80151246 -136.48828125 310.66210938 C-123.98425761 310.13824624 -111.51459384 309.87431408 -99 310 C-99.0501123 309.36710052 -99.10022461 308.73420105 -99.15185547 308.0821228 C-99.67745615 301.4302499 -100.19534852 294.77780724 -100.70898438 288.125 C-100.90106134 285.6499143 -101.09503256 283.17497478 -101.29101562 280.70019531 C-103.37857926 254.30742646 -103.37857926 254.30742646 -103 243 C-97.96258341 247.17642957 -93.4215205 251.55675487 -89 256.375 C-88.38334473 257.04128418 -87.76668945 257.70756836 -87.13134766 258.39404297 C-83.64619603 262.17108644 -80.21443743 265.98611927 -76.86328125 269.8828125 C-72.34668765 275.01487483 -67.65104236 279.99001021 -63 285 C-62.68248779 284.21874756 -62.36497559 283.43749512 -62.0378418 282.63256836 C-60.84744867 279.70445745 -59.65646251 276.77658864 -58.46508789 273.84887695 C-57.95183317 272.58725333 -57.43880758 271.32553646 -56.92602539 270.0637207 C-56.18437558 268.23884333 -55.44180378 266.41434076 -54.69921875 264.58984375 C-54.25408936 263.49534912 -53.80895996 262.40085449 -53.3503418 261.27319336 C-51.93212147 257.83546421 -50.46489952 254.41809889 -49 251 C-61.87 251 -74.74 251 -88 251 C-89.77375 246.648125 -91.5475 242.29625 -93.375 237.8125 C-93.93106934 236.44843018 -94.48713867 235.08436035 -95.06005859 233.67895508 C-95.50172363 232.59509521 -95.94338867 231.51123535 -96.3984375 230.39453125 C-96.84880371 229.28956299 -97.29916992 228.18459473 -97.76318359 227.04614258 C-98.17133301 226.04091553 -98.57948242 225.03568848 -99 224 C-99.38422119 223.10869385 -99.76844238 222.2173877 -100.16430664 221.29907227 C-101.44381559 217.77902091 -100.92404362 215.62937616 -100 212 C-98.36065176 208.4959217 -96.41093607 205.19980763 -94.4375 201.875 C-93.24313993 199.81345606 -92.05051132 197.75090827 -90.859375 195.6875 C-90.22837891 194.59953125 -89.59738281 193.5115625 -88.94726562 192.390625 C-85.61825027 186.59406467 -82.40569572 180.73348431 -79.1875 174.875 C-78.51122245 173.64639918 -77.83478911 172.41788411 -77.15820312 171.18945312 C-75.7891269 168.70344732 -74.4206552 166.21711049 -73.05273438 163.73046875 C-64.69079864 148.53164278 -56.31129266 133.34230518 -47.89871216 118.17144775 C-46.97648464 116.50782509 -46.05547607 114.84352689 -45.13452148 113.17919922 C-41.67902257 106.95394381 -38.12447621 100.81172268 -34.40942383 94.73706055 C-32.17476438 90.39741616 -31.65689977 86.09921447 -31.21240234 81.28320312 C-30.83586507 77.23564387 -30.39310431 73.19533314 -29.94824219 69.15478516 C-29.69507316 66.83812831 -29.45441688 64.52006281 -29.22753906 62.20068359 C-28.59590761 56.24618593 -27.77946867 51.38404942 -25 46 C-24.4272937 44.8545874 -24.4272937 44.8545874 -23.84301758 43.68603516 C-22.46328638 40.94310577 -21.04743203 38.22101113 -19.625 35.5 C-19.17511719 34.62730469 -18.72523438 33.75460938 -18.26171875 32.85546875 C-12.46110202 21.73120908 -6.1829765 10.93911227 0 0 Z M3 4 C0.36 9.28 -2.28 14.56 -5 20 C-7.02022245 23.78606481 -9.05024522 27.55724977 -11.125 31.3125 C-11.61097656 32.19744141 -12.09695312 33.08238281 -12.59765625 33.99414062 C-13.08363281 34.87908203 -13.56960937 35.76402344 -14.0703125 36.67578125 C-14.78598389 38.00379761 -14.78598389 38.00379761 -15.51611328 39.35864258 C-17 42 -17 42 -18.63623047 44.4753418 C-24.38271711 53.57669863 -24.39815406 63.12782049 -25.01708984 73.58911133 C-25.7549397 85.27412197 -28.05992257 94.04378496 -33.95269775 104.1947937 C-35.52959892 106.91285521 -37.00361487 109.68621518 -38.5 112.44921875 C-39.66331454 114.530523 -40.83006879 116.60990787 -42 118.6875 C-42.97680797 120.43391424 -43.9536012 122.18033685 -44.9296875 123.92715454 C-45.60246159 125.13097279 -46.27563982 126.33456525 -46.94921875 127.53793335 C-50.32503336 133.57108616 -53.66336582 139.62469309 -56.99807739 145.68063354 C-61.88339793 154.55176616 -66.77576062 163.41894921 -71.70043945 172.26831055 C-72.9341537 174.49229601 -74.16065824 176.72029741 -75.37963867 178.95239258 C-78.24065903 184.16918682 -81.15823889 189.31301784 -84.34663391 194.33554077 C-93.21383585 206.68043459 -93.21383585 206.68043459 -95.77734375 220.79296875 C-94.71111308 224.26363383 -93.04244318 227.2255629 -91.06298828 230.25341797 C-89.29711431 233.15490221 -88.31631442 236.23746646 -87.1875 239.4375 C-86.03961144 242.988557 -86.03961144 242.988557 -84 246 C-80.89748799 246.08874135 -77.8173188 246.11518455 -74.71484375 246.09765625 C-73.78402481 246.0962413 -72.85320587 246.09482635 -71.8941803 246.09336853 C-68.90858809 246.08775172 -65.92306971 246.0751964 -62.9375 246.0625 C-60.91862087 246.05748716 -58.89974057 246.05292388 -56.88085938 246.04882812 C-51.92054428 246.03777683 -46.96028468 246.02050095 -42 246 C-44.24175188 251.74758369 -46.48378421 257.49505787 -48.72607422 263.24243164 C-49.48852078 265.19682877 -50.25089129 267.15125558 -51.01318359 269.10571289 C-52.11015044 271.91821002 -53.20739257 274.73059961 -54.3046875 277.54296875 C-54.6443454 278.41398727 -54.9840033 279.2850058 -55.33395386 280.18241882 C-55.65413483 281.002892 -55.9743158 281.82336517 -56.30419922 282.66870117 C-56.59985779 283.42919769 -56.89551636 284.18969421 -57.20013428 284.97323608 C-57.85261447 286.62654271 -58.53720338 288.26714792 -59.23095703 289.90356445 C-60.17219639 292.09723944 -60.17219639 292.09723944 -60 295 C-64.36362368 291.43785822 -68.14329915 287.82115134 -71.78515625 283.53515625 C-74.77522678 280.11265929 -77.88829543 276.81175144 -81 273.5 C-85.36016394 268.85805481 -89.66847155 264.19888181 -93.765625 259.3203125 C-94.98507446 257.86248617 -94.98507446 257.86248617 -97 257 C-97.02716824 259.54173977 -97.04691969 262.08318415 -97.0625 264.625 C-97.07506836 265.69427734 -97.07506836 265.69427734 -97.08789062 266.78515625 C-97.09111328 267.48769531 -97.09433594 268.19023437 -97.09765625 268.9140625 C-97.10289307 269.5529541 -97.10812988 270.1918457 -97.11352539 270.85009766 C-97.03526464 273.10634188 -97.03526464 273.10634188 -96.54101562 275.7265625 C-95.89570899 279.6310171 -95.56119436 283.51833527 -95.24609375 287.4609375 C-95.14833397 288.6467894 -95.14833397 288.6467894 -95.04859924 289.8565979 C-94.84255172 292.36254615 -94.63997332 294.86876069 -94.4375 297.375 C-94.29775572 299.08205007 -94.15778413 300.78908154 -94.01757812 302.49609375 C-93.67575488 306.66385198 -93.33704099 310.83185243 -93 315 C-93.70044434 314.98952637 -94.40088867 314.97905273 -95.12255859 314.96826172 C-115.50253519 314.70845566 -135.6738963 315.59755666 -156 317 C-153.1182239 319.97589028 -150.33352568 322.65060885 -146.8828125 324.9453125 C-145.73607056 325.71657471 -145.73607056 325.71657471 -144.56616211 326.50341797 C-143.76057861 327.03854004 -142.95499512 327.57366211 -142.125 328.125 C-135.34424741 332.69241382 -128.67438717 337.36542306 -122.10571289 342.23217773 C-117.13399265 345.91450163 -112.08831318 349.48046073 -107 353 C-113.88935944 364.06273721 -121.1981833 374.8525864 -128.4375 385.6875 C-129.75466501 387.66073539 -131.07172323 389.63404208 -132.38867188 391.60742188 C-135.59121612 396.40577122 -138.79508122 401.20323638 -142 406 C-138.71694557 407.09435148 -138.19058388 406.97357609 -135.08618164 405.8918457 C-134.3042897 405.62439041 -133.52239777 405.35693512 -132.71681213 405.08137512 C-131.87311569 404.78252914 -131.02941925 404.48368317 -130.16015625 404.17578125 C-129.28282333 403.87310837 -128.40549042 403.57043549 -127.50157166 403.2585907 C-124.68552824 402.28502665 -121.87401122 401.29906691 -119.0625 400.3125 C-117.20276689 399.66647382 -115.3427437 399.02128206 -113.48242188 398.37695312 C-109.91336959 397.13997753 -106.34522944 395.90043105 -102.77783203 394.65869141 C-98.79246652 393.27349969 -94.80494474 391.89617677 -90.80859375 390.54296875 C-89.90810303 390.23770264 -89.0076123 389.93243652 -88.07983398 389.61791992 C-86 389 -86 389 -84 389 C-83.78559769 389.52458801 -83.57119537 390.04917603 -83.35029602 390.58966064 C-81.09542726 396.10652245 -78.83998573 401.62314985 -76.58422852 407.13964844 C-75.74521781 409.19167309 -74.90634757 411.24375519 -74.06762695 413.29589844 C-67.58413948 429.16873702 -67.58413948 429.16873702 -61 445 C-58.16102003 442.16102003 -57.46526926 438.75321118 -56.3125 435 C-56.05484863 434.17346924 -55.79719727 433.34693848 -55.53173828 432.49536133 C-52.64457935 423.08232584 -50.13656745 413.56632341 -47.61328125 404.05078125 C-45.83312787 397.3400097 -43.95048239 390.6631386 -42 384 C-36.14043665 384.90883023 -30.45719 386.09103553 -24.76953125 387.77734375 C-16.7970347 390.08688686 -8.77632111 392.17477382 -0.7277832 394.2019043 C0.90304796 394.61418659 2.53291529 395.03029766 4.16186523 395.44995117 C6.5473626 396.0644871 8.93534675 396.66826601 11.32421875 397.26953125 C12.4162989 397.55374687 12.4162989 397.55374687 13.53044128 397.84370422 C17.76863331 398.89417102 17.76863331 398.89417102 22 398 C21.07380859 397.00033203 21.07380859 397.00033203 20.12890625 395.98046875 C14.96024356 390.3555162 10.01468511 384.63067311 5.21484375 378.68359375 C3.04367173 376.05291443 0.79758643 373.52057576 -1.5 371 C-7.64327499 364.2542322 -13.30724619 357.12553679 -19 350 C-18.47535156 349.78472656 -17.95070312 349.56945312 -17.41015625 349.34765625 C-14.05462345 347.47138589 -11.30919302 344.96504351 -8.4375 342.4375 C-7.17793997 341.34276361 -5.91751466 340.24902202 -4.65625 339.15625 C-4.03492188 338.61742187 -3.41359375 338.07859375 -2.7734375 337.5234375 C0.50127762 334.71035623 3.86294265 332.00518204 7.21484375 329.28515625 C10.94271778 326.22652188 14.60707745 323.09548483 18.27636719 319.96704102 C22.25058715 316.59423062 26.31835733 313.37150204 30.48828125 310.2421875 C30.98714844 309.83226562 31.48601562 309.42234375 32 309 C32 308.67 32 308.34 32 308 C14.99926297 308.64866019 -2.00071636 309.31429608 -19 310 C-18.38253906 309.33355469 -17.76507813 308.66710937 -17.12890625 307.98046875 C-12.82184484 303.2931797 -8.61162122 298.59181799 -4.625 293.625 C-0.75781137 288.8285929 3.34980716 284.3295854 7.55810547 279.83642578 C11.45164274 275.6556705 15.05874789 271.29760566 18.6328125 266.83984375 C21.92062582 262.89555285 25.40767158 259.15108514 28.92773438 255.4140625 C31.84414129 252.34875056 31.84414129 252.34875056 34.19953918 248.85614014 C36.45394415 246.53201761 38.09861939 246.50631157 41.25978088 246.43885803 C41.96900192 246.4438884 42.67822296 246.44891876 43.40893555 246.45410156 C44.16039856 246.44376389 44.91186157 246.43342621 45.68609619 246.42277527 C48.16985398 246.39327816 50.65279935 246.3918467 53.13671875 246.390625 C54.85880596 246.37564794 56.58087877 246.35892179 58.30293274 246.34051514 C62.83538461 246.29677585 67.36764271 246.27682808 71.90026855 246.26177979 C76.52542612 246.2422323 81.15037369 246.20025972 85.77539062 246.16015625 C94.85019575 246.08478301 103.92495403 246.03453472 113 246 C113.86902954 244.34629395 113.86902954 244.34629395 114.75561523 242.65917969 C119.07680266 234.45446542 123.45135243 226.29642172 128.0625 218.25 C133.11511689 209.37312698 138.07896682 200.45018779 143 191.5 C148.31921149 181.82907968 153.69427388 172.19255412 159.14111328 162.59277344 C166.55135172 149.52070306 173.81300766 136.36545439 181.09326172 123.22070312 C182.8317335 120.0818596 184.57135052 116.94365298 186.31158447 113.80578613 C187.29320197 112.03481624 188.2733335 110.26302956 189.25341797 108.49121094 C189.84654785 107.42161133 190.43967773 106.35201172 191.05078125 105.25 C191.83449097 103.83460937 191.83449097 103.83460937 192.6340332 102.390625 C193.68499329 100.55130397 194.82492306 98.76261542 196 97 C196.18478127 94.03943169 196.25210721 91.1742436 196.22705078 88.21411133 C196.22748886 86.86746147 196.22748886 86.86746147 196.22793579 85.49360657 C196.22654125 82.52298351 196.21097415 79.55261055 196.1953125 76.58203125 C196.19158281 74.5236576 196.18873563 72.46528218 196.18673706 70.40690613 C196.17909712 64.98665473 196.15944549 59.56651035 196.1373291 54.14630127 C196.11687847 48.61642912 196.10773702 43.08653969 196.09765625 37.55664062 C196.07619998 26.70438004 196.04205964 15.85219892 196 5 C189.39856569 4.79700464 182.79793637 4.65700265 176.1940918 4.56054688 C173.94834318 4.5203371 171.70280371 4.46575859 169.45776367 4.39648438 C166.22782865 4.29932199 163.00066179 4.25404934 159.76953125 4.21875 C158.76727005 4.17745972 157.76500885 4.13616943 156.7323761 4.09362793 C151.54436001 3.99057785 151.54436001 3.99057785 147.33744812 6.63180542 C146.02404366 8.70031426 144.99402152 10.76250153 144 13 C143.14571411 14.47557373 143.14571411 14.47557373 142.27416992 15.98095703 C141.76474854 16.89731934 141.25532715 17.81368164 140.73046875 18.7578125 C140.15103516 19.79679687 139.57160156 20.83578125 138.97460938 21.90625 C138.38486328 22.9684375 137.79511719 24.030625 137.1875 25.125 C136.01498034 27.23213679 134.84179806 29.338905 133.66796875 31.4453125 C133.07838379 32.52039063 132.48879883 33.59546875 131.88134766 34.703125 C130.61021147 36.93066498 129.26829762 39.11905455 127.86474609 41.265625 C121.76515774 50.85367179 120.30807639 59.54697041 119.25 70.75 C117.17477213 91.02276003 117.17477213 91.02276003 113 99 C112.50967285 99.94053223 112.0193457 100.88106445 111.51416016 101.85009766 C109.78127126 105.07152637 107.99270724 108.25606412 106.1875 111.4375 C105.5222261 112.62057035 104.8576079 113.80400963 104.19360352 114.98779297 C102.81710025 117.44069822 101.43782542 119.89201322 100.05664062 122.34228516 C96.8218171 128.08735153 93.6328399 133.85791519 90.4375 139.625 C88.72043729 142.72176737 87.00106325 145.80375673 85.19335938 148.84887695 C83.28401054 152.2264209 81.93837055 155.70622544 80.55664062 159.32885742 C77.65785303 166.30967786 74.75738772 172.92085193 69 178 C59.55537979 181.83228694 48.81818313 180.78591701 38.83428955 180.18017578 C35.12858366 179.98279476 31.42090331 179.93067912 27.7109375 179.86523438 C20.46459972 179.71650899 13.23675171 179.41030849 6 179 C8.00665722 175.38581415 10.01358454 171.77177844 12.02073669 168.15786743 C12.70006687 166.93463966 13.37932976 165.71137452 14.05851746 164.48806763 C20.41826183 153.03351993 26.81409085 141.59946146 33.22216797 130.171875 C35.09879617 126.82373526 36.97346226 123.47450291 38.84765625 120.125 C39.79596313 118.43044678 39.79596313 118.43044678 40.76342773 116.70166016 C41.97016821 114.54519515 43.17672275 112.38862607 44.38305664 110.23193359 C45.20277954 108.76747803 45.20277954 108.76747803 46.0390625 107.2734375 C46.51553223 106.42185059 46.99200195 105.57026367 47.48291016 104.69287109 C49 102 49 102 51.06643677 98.90345764 C53.52451282 94.57539846 53.53922185 90.73933834 53.45410156 85.85180664 C53.45468567 84.96320953 53.45526978 84.07461243 53.45587158 83.15908813 C53.45310037 80.24237042 53.42205418 77.32669389 53.390625 74.41015625 C53.38315918 72.37992409 53.37746786 70.3496847 53.37347412 68.31944275 C53.35824469 62.99115905 53.31898591 57.66331556 53.2746582 52.33520508 C53.22642961 45.93417202 53.20815869 39.53299128 53.18484497 33.13182831 C53.14613346 23.42091326 53.06946049 13.710963 53 4 C36.5 4 20 4 3 4 Z " fill="#F9F9F9" transform="translate(227,20)"/>
<path d="M0 0 C7.92 0 15.84 0 24 0 C19 10 14 20 9 30 C0.75 30 -7.5 30 -16 30 C-10.97607713 19.77272845 -5.740729 9.84124971 0 0 Z " fill="#C1CAD1" transform="translate(238,38)"/>
<path d="M0 0 C7.26 0 14.52 0 22 0 C20.57790408 4.26628776 19.26365774 7.67837986 17.21484375 11.58203125 C16.68439453 12.59587891 16.15394531 13.60972656 15.60742188 14.65429688 C15.05634766 15.69650391 14.50527344 16.73871094 13.9375 17.8125 C13.38255859 18.87404297 12.82761719 19.93558594 12.25585938 21.02929688 C8.14549992 28.85450008 8.14549992 28.85450008 7 30 C5.29227642 30.08713831 3.58101351 30.10700007 1.87109375 30.09765625 C0.31938477 30.09282227 0.31938477 30.09282227 -1.26367188 30.08789062 C-2.35228516 30.07951172 -3.44089844 30.07113281 -4.5625 30.0625 C-6.2012207 30.05573242 -6.2012207 30.05573242 -7.87304688 30.04882812 C-10.58208495 30.03699826 -13.29101599 30.02051543 -16 30 C-11.00715882 19.77529865 -5.7341794 9.83002182 0 0 Z " fill="#C1CAD0" transform="translate(382,38)"/>
<path d="M0 0 C7.26 0 14.52 0 22 0 C21.855625 2.619375 21.71125 5.23875 21.5625 7.9375 C21.49784546 9.14587524 21.49784546 9.14587524 21.43188477 10.37866211 C21.39377686 11.04647705 21.35566895 11.71429199 21.31640625 12.40234375 C21.27974854 13.06741943 21.24309082 13.73249512 21.20532227 14.41772461 C20.89765832 18.28712007 20.42865186 22.14213324 20 26 C12.74 26 5.48 26 -2 26 C-1.855625 23.380625 -1.71125 20.76125 -1.5625 18.0625 C-1.51939697 17.2569165 -1.47629395 16.45133301 -1.43188477 15.62133789 C-1.39377686 14.95352295 -1.35566895 14.28570801 -1.31640625 13.59765625 C-1.27974854 12.93258057 -1.24309082 12.26750488 -1.20532227 11.58227539 C-0.89765832 7.71287993 -0.42865186 3.85786676 0 0 Z " fill="#C0C9CF" transform="translate(362,80)"/>
<path d="M0 0 C7.26 0 14.52 0 22 0 C21.855625 3.361875 21.71125 6.72375 21.5625 10.1875 C21.49784546 11.76374146 21.49784546 11.76374146 21.43188477 13.37182617 C21.39377686 14.21205322 21.35566895 15.05228027 21.31640625 15.91796875 C21.27974854 16.77156982 21.24309082 17.6251709 21.20532227 18.50463867 C21 21 21 21 20 26 C12.74 26 5.48 26 -2 26 C-1.39290218 17.32717394 -0.73948306 8.66251579 0 0 Z " fill="#C0C9CF" transform="translate(218,80)"/>
<path d="M0 0 C2.85746217 1.26998319 4.48137263 2.2838003 6.3125 4.8125 C7.24508259 7.77980823 7.37237901 9.89684156 7 13 C3.84210526 18.57894737 3.84210526 18.57894737 1 20 C-6.08958838 20.5811138 -6.08958838 20.5811138 -9.9375 18.125 C-13.09695358 14.8698054 -13.33421243 12.57586762 -13.29296875 8.0390625 C-12.83745033 4.86865433 -11.24684343 3.1807598 -9 1 C-5.93570224 -0.53214888 -3.3834358 -0.22938548 0 0 Z " fill="#091C25" transform="translate(161,357)"/>
</svg>