<svg xmlns="http://www.w3.org/2000/svg" version="1.1" viewBox="22.49 22.37 194.51 195.26">
  <defs>
    <style>
      .cls-1 {
        fill: #bd1b21;
      }
    </style>
  </defs>
  <!-- Generator: Adobe Illustrator 28.6.0, SVG Export Plug-In . SVG Version: 1.2.0 Build 709)  -->
  <g>
    <g id="katman_1">
      <path class="cls-1" d="M152.52,210.93c.16.17.27.44.33.39.5,0,1.49-.17,1.49-.17l.99-.45,2.81-1.11s7.11-3.39,7.11-3.44c.06,0,1.27-.67,1.27-.67l.66-.28.77-.55,1.27-.78,1.49-.83,1.93-1.28,3.36-2.39,1.6-1.28,2.37-1.72,2.15-1.61,1.05-.78,1.43-1.33,1.49-1.5,2.37-2.55,2.76-2.66,3.2-3.72,1.76-2.33.61-.83,1.87-2.33,3.64-5.27,1.05-1.72,2.43-4.88,1.38-2.67,2.37-4.83,1.27-2.94,1.32-4.33s1.65-5.94,2.54-9.05c.11-.33.17-.67-.06-1-.5-.72-.88-1.61-1.38-2.44-.22-.39-.61-.83-.83-1.17-.22-.33-.88-1.17-1.1-1.44-.28-.33-.55-.56-.88-.83-.77-.72-1.43-1.44-2.09-1.89-.33-.17-.61-.39-.88-.61-1.98-1.55-4.02-2.78-6.28-3.78-.94-.39-1.93-.78-2.92-1.11-.66-.22-1.82-.5-2.54-.61-.44-.06-.77-.06-1.1.11-.33.22-.33.72-.39,1.17-.11,1.22-.17,2.61-.28,3.83-.11,1.28-.22,2.55-.28,3.89-.11,1.17-.16,2.33-.28,3.5-.16,1.56-.38,3.05-.66,4.61-.55,2.83-1.16,5.66-1.71,8.5-.17.78-.28,1.61-.55,2.33-.5,1.22-.88,2.44-1.1,3.72-.55,2.66-1.49,5.22-2.43,7.77-.72,2.06-1.49,4.22-2.64,6.05-.11.11-.17.28-.17.39-.55,1.33-1.1,2.61-1.65,3.94-.39.83-.94,1.61-1.27,2.44-.44,1.05-1.05,2.05-1.65,3-.99,1.55-2.04,3.05-2.87,4.66-.61,1.11-1.27,2.17-1.98,3.22-.22.28-.39.55-.55.78-.61.89-1.1,1.78-1.76,2.61-1.21,1.55-2.54,3.16-3.8,4.66-.83.94-1.71,1.83-2.59,2.78-.77.83-1.54,1.67-2.37,2.5-.16.17-.39.33-.55.5-.44.39-.99.78-1.38,1.22-.99,1-2.09,2-3.25,2.83-.55.33-1.05.67-1.49,1.11-1.38,1-2.81,1.83-4.41,2.67Z"/>
      <path class="cls-1" d="M215.79,134.58c.05,0,.05-.11.05-.22.06-.22.06-.67.06-.67l.66-6.22.44-5.83v-6.66l-.66-6.55s-.77-5.89-1.38-8.94c-.22-1.05-.88-1.61-1.76-2.05-.28-.17-.61-.28-.94-.39-.61-.22-1.32-.5-1.98-.67-1.49-.39-2.87-.83-4.35-1.11-1.76-.28-3.53-.5-5.29-.67-1.49-.11-2.92-.17-4.35-.22h-3.03c-.61,0-1.27,0-1.54.39-.28.39-.11,1.11.06,1.78.22,1.44.44,2.17.66,3.55.72,4.22,1.43,8.38,1.6,12.66.05,1.94.17,3.83.28,5.77v1.44c0,.33.11.67.22.94.17.28.44.28.72.39.38.11.72.17,1.05.22.39.11,1.05.22,1.54.39,1.71.56,3.47,1.17,5.12,1.83,1.16.44,2.26,1.17,3.36,1.72.11.06.22.17.39.22.66.5,1.32,1,1.98,1.44,1.54,1.11,3.09,2.22,4.3,3.78.22.28.5.56.77.83.44.39,1.21,1.89,1.76,2.55.11.22.22.28.28.28Z"/>
      <path class="cls-1" d="M172.36,64.85c.61-.06,1.1-.06,1.54-.11.33-.06.66-.06.77-.39.16-.33-.11-.72-.22-.89-.06-.28-1.21-2.22-1.21-2.22l-1.1-1.72-4.57-6.61-.94-1.11-.83-1.28-1.49-1.67-3.69-4.05-1.6-1.55-5.73-5.33-4.68-3.66-1.71-.89-5.51-3.39-3.86-2.11-.72-.33-3.14-1.17-4.68-1.78-.33-.11-1.54-.39-.39-.06-1.32-.33-2.75-.5-1.32-.06-2.48-.44-2.98-.22-1.05-.11h-1.87l-3.09.11-3.09.33-2.37.06-2.1.22-2.15.44-1.65.5-2.65.5h-.61l-2.48.89-1.43.39-.88.56-2.15.61-1.05.61-1.32.5-3.2,1.33-4.08,1.61-1.32.67-2.87,1.55-2.48,1.61-2.31,1.22-.83.5-2.54,1.33-.39.28-2.92,2.28-2.37,1.61-.44.33-2.76,2.17-.94.78s-1.49,1.28-1.49,1.44l1.05-.33,1.87-.67c.06,0,.39.06.39.06l2.65-1.11h.39l2.92-1.17,1.54-.5c0,.06,1.54-.56,1.54-.56l2.2-.78,5.29-2.05h.5l2.7-.94,2.15-.89.33.22s4.08.11,4.13.11l2.65.22.06.06,5.29.44.06-.06,7.33.39.06.17,2.59,2.28h.22l2.65,2.61.22-.11,3.64.11.17-.11,9.2.56.06.22,4.08,2.39h.17l7.22,3.55.06.39,4.08-1.61,6.01,2.05.99,1.67,2.31-.06,2.1,2.39h.22l1.71,1.94.06.11h.22l4.74,1.11,1.76,2.72,4.41,1.61s4.68,1.22,7.11,1.5c2.09.33,4.63.22,6.28.11Z"/>
      <path class="cls-1" d="M213.25,92.89c-.16-.72-.66-2.11-.66-2.11l-.28-.78-.22-.94-.77-2.33-.72-2.05-2.26-5.05-.99-2.5-1.32-2.83-1.54-2.55-.33-.72-1.05-2.05-.94-1.61-.44-.56-6.56-8.94s-.66-.78-.94-1.11c-.17-.22-.22-.33-.39-.33h-.06s-2.04,3.33-2.86,4.28c-.83.94-2.54,2.5-2.54,2.5,0,0-1.43,1.17-1.65,1.39-.22.17-1.32.89-1.32.89l-1.49.89s-1.16.5-1.32.61c-.17.06-.39.17-.5.28-.11.17-.17.28-.11.5.06.22.11.39.22.56.61,1.28,1.16,2.61,1.82,3.83.99,1.83,1.6,3.83,2.48,5.77.28.61.55,1.28.77,1.94.55,1.72,1.1,3.44,1.65,5.11.22.78.5,1.5.72,2.28.22.78.39,1.5.61,2.28.11.5.44.72.99.72.5,0,.99,0,1.49-.06,1.76-.06,3.53-.11,5.29-.17.5,0,4.02.33,4.02.33,0,0,1.27.11,1.87.22,1.32.22,2.64.56,3.97.83,1.1.22,2.26.61,3.31,1.11.5.22,1.05.39,1.6.56.16.06.44.11.5.06-.11.06-.06-.11-.06-.22Z"/>
      <path class="cls-1" d="M190.27,53.36c-.06-.28-.5-.94-.5-.94l-.33-.61-.94-1.11-.66-.89-1.21-1.17s-.28-.22-.39-.33c-2.09-1.72-6.28-5.11-6.28-5.16l-1.16-.94-2.15-1.94-10.86-6.55-8.65-4.11s-4.52-1.78-4.57-1.78l-1.65-.56-5.62-1.94-3.97-1-3.86-.83-.61-.06-.28.28.17.17s.39.17.61.28c1.16.5,2.37.89,3.58,1.39.77.33,1.49.72,2.31.94.55.17,1.05.39,1.54.67,1.82,1.05,3.64,2.11,5.46,3.22,1.1.67,2.09,1.39,3.03,2.28.72.67,1.43,1.28,2.32,1.78.39.22.66.56,1.05.83.17.17.39.33.55.5,1.05.89,2.21,1.67,3.2,2.66.99,1.11,2.09,2.17,3.14,3.16.99,1,2.04,2,2.87,3.11.72.94,1.43,1.83,2.26,2.66,1.6,1.55,2.81,3.44,4.24,5.11.16.22.28.44.44.72.94,1.44,1.76,3,2.87,4.33.77.94,1.49,1.94,1.98,3.05.33.67.77,1.28,1.21,1.89.22.39.66.56.88.5.22,0,.61-.22.61-.22l.77-.33s.99-.44,1.38-.61c.33-.17,1.05-.56,1.27-.78.22-.22,1.27-.94,1.87-1.5.55-.56,1.71-1.89,1.71-1.89l.83-1.11,1.43-2.44c-.11.11.16-.44.11-.72Z"/>
      <path class="cls-1" d="M185.75,89.89c-.61-1.83-1.05-3.55-1.71-5.33-.55-1.44-.94-3-1.65-4.39-.39-.83-.61-1.78-.94-2.67-.17-.44-.39-.89-.55-1.33-.83-2.28-1.87-4.16-2.98-6.33-.06-.11-.11-.22-.22-.44s-.17-.39-.44-.56c-.28-.17-.5-.06-.99,0-.94.11-2.09.22-2.59.22-.44,0-2.26.17-3.75.28l-.28-.11h-1.76l-4.68-.61c-1.71-.22-5.62-1.22-5.62-1.22l-2.87-1-3.53-1.22-.27.17-5.57-.44-.17.11-3.14-2.39h-.33l-1.93-1.78-.05-.39-2.26-.33-.22.11-1.76-.61-.22-.17-4.08.28-3.69-1.5-12.79.67-.22-.11-2.42.17-.28.17-6.28.5-.17-.17-8.98,5.22-.11.39-.39.39-.06-.17-4.52-.44-.28.11-7.94.06-.17-.11-2.26-.06-.72-.39-8.32,6.5-.06.17-2.92,2.33-3.25-1.55-.22.06-1.21-.33s-6.01,1.55-5.95,1.61c.06.06-5.62-.89-5.62-.89l-.39-.39-1.05,1.11-2.26,1.11-.06.17-4.46,3.44-6.39,4.61-7.16,5.39-3.25,2.39-.17,1.39-1.38,3.16-.55,2.72-.88,5.5-.55,2.39-.22,2.89-.77,5.94-.33,13.1.33.78.22,3.61s.06.61.22.67l15.87-16.54,5.24-2.11,4.35-.22,2.65-3.05.28-.56.33.17,7.16-.83.33-.22h2.65l.39.17.88-1.17,3.2-2.05,3.42-2.39,9.64.11.06.22,3.75.33,2.98-.61,5.4-5.55h.11l4.3-4.11,6.45-.83.28-.17.28.28,3.36,1.61.22-.22,2.98-.39.17-.17,2.75-.44.22-.17,3.03,2.61.16-.22,6.17-.11.55-.39,4.96.22.28.11.77-.17.11-.22,1.98-.89h.22l2.32-1.05.22-.22,2.43-.94.16-.28,6.78-2.61.05-.11,1.21-.39.27-.28.33.39,1.98.94h.61l2.21,1.22.16-.22.66-.33h.06l1.1-.5.05-.06,1.6-.39,4.08,1.05.88-.22.72.5,2.98.44,2.92,1.11,1.71-.11.55.39.44-.28s5.73-.72,8.65-.94c1.87-.17,3.75-.33,5.62-.56,1.05-.11,2.09-.22,3.14-.33.55.22.88,0,.66-.67Z"/>
      <path class="cls-1" d="M189.94,119.59c0-.39-.06-.67-.11-1.06-.06-1.11-.11-2.22-.17-3.33,0-.39-.06-.72-.11-1.11-.11-1.39-.11-2.78-.28-4.16-.22-1.78-.44-3.5-.72-5.28-.22-1.33-.44-2.72-.72-4.05-.28-1.39-.5-2.72-.77-4.11-.28-1.44-.61-1.61-2.04-1.44-.11,0-.22.06-.33.06-.55.11-1.27.17-1.82.28-2.81.39-5.46.5-8.32.83l-8.1,2.83-11.68-.33-1.27-.44v.22l-3.42,2.55-.5.06-2.7,2.55-.17.39-7,.94-6.39,5h-.66l-3.42,2-1.38.17-1.32,1.17-.33-.28-6.5-.44-1.16,1.28v.22l-5.62,6.22-.06.33-.22.06-7.16,8.27-1.98.06-.17.22-5.9,1.06h-.44s-.11.28-.17.28-9.7,5.44-9.7,5.44l-4.35-.5-.94.33-4.35-.28-4.3,4.5-2.59.5-1.49-.06-1.49.67-.88-.11.06.17-5.35,4.16-.5.11-8.38,6.55.06.39-5.18,12.6.22.56-8.54.78-2.87,2.44-.28.89,3.8,5.33,2.81,4.33,2.42,3.11,3.97,4.33s0,.28.11.33c.06.06.55.06.55.06,0,0,2.37.78,2.37.83l2.92.94.06.17.28-.06,4.85,1.89h.39l.28.33h.44c.06,0,1.16.78,1.16.78l2.04-1.11h.11l.88-.61,7.33,1.83,5.35-2.78,11.9-1.17,4.85-7.94c.77-.78,2.15-2.22,2.15-2.22h.17s1.65-1.55,1.71-1.61v-.22l3.09-2.83,1.43-1.5s.33-.17.33-.22c.06,0,1.65-1.72,1.65-1.72l1.32-1.39.33-.06-.33-1.22,1.38-5.11,2.7-.78.11-.11.77-.17v-.44l3.58-5.83.33-.17,1.49-2.89,2.43-1.39.33-.39.5.05s1.43-.83,1.49-.83h.17l2.65-1.17.22-.33,8.76-4.05.55-.06.11-.5.33-.28.88-3.05,2.76-1.22,3.2-.39,2.92-2.05,4.13.17.39.33.22-.28,5.79-2.61-.06-.78,1.38-2.67,2.87-.78.17-.17,3.91-.83,1.49-1.78.22-.06s.88-.89.94-.89l2.7.39.11.11,1.49.22.88.11s3.91-1.83,5.57-2.5c.72-.28,1.38-.44,2.04-.67.94-.33,1.82-.67,2.75-.94.5-.17.88-.28,1.38-.39l1.82-.33,2.15-.33,1.16-.06s.66-.06.88-.11c.22-.06.61-.06.88-.28.28-.28.28-.5.28-.78.06-.22.06-.39.06-.72Z"/>
      <path class="cls-1" d="M189.83,127.31c0-.33.06-.83-.22-1.11-.22-.28-.55-.33-.77-.33s-1.21.11-1.21.11l-1.71.28c-.22,0-.39.06-.55.11-.99.22-2.04.44-3.03.72-1.1.33-2.26.61-3.31,1.11-1.1.5-2.37.89-3.47,1.44-.39.22-4.13,2.06-5.84,2.89l-2.2,2.33-.06.5-.28-.11-1.38.11-.11.11-4.46,1.5.06.5-.44.44v.28l-2.09,3.72h-.28l-.06.39s-.44.72-.88,1.5l-9.42,6.11h-.22l-1.43,1.22-1.05,3.94-.94.89-3.69,13.66.5,1.55-5.46,2.61h-.88l-1.05,4.77-.17.17-1.32,4.33.05.22-.55,3.72-.22.28.17.33-5.24,8.33-.39.11-1.27,2-.06.39-4.46,6.33-4.74,2.83.27.39c0,.06-.27,1.94-.27,1.94l.44.72-.66.22-3.42,2.05-.33-.11-5.01,3-.61.94c0,.06,1.98.28,1.98.28l3.25.28,2.21.11,2.64.11,1.16.06,1.93.05,1.93-.05,7.05-.89,4.13-.72,3.14-.89,3.42-1,4.35-1.72.33-.17,1.21-.72s3.53-1.89,5.12-3.05c2.7-2.05,5.4-4.11,7.88-6.44.88-.83,1.65-1.61,2.54-2.44.77-.78,1.6-1.61,2.37-2.39.11-.17.33-.28.39-.44.28-.67.77-1.11,1.21-1.55.33-.33.66-.67.94-1.05.55-.83,1.32-1.5,2.04-2.17.55-.56,1.1-1.17,1.54-1.83.83-1.17,1.6-2.39,2.37-3.61,1.05-1.61,2.2-3.16,3.09-4.83.99-1.78,1.93-3.61,2.92-5.38.83-1.5,1.71-3.05,2.37-4.61,1.1-2.67,2.21-5.27,3.25-7.94,1.1-2.83,1.93-5.77,2.7-8.72.55-2.16.94-4.44,1.71-6.55.11-.28.16-.56.22-.89.28-1.78.61-3.61.88-5.39.28-1.72.5-3.39.72-5.11.16-1.17.38-2.33.44-3.5.16-1.61.22-3.22.27-4.83v-1.44Z"/>
    </g>
  </g>
</svg>