<svg xmlns="http://www.w3.org/2000/svg" version="1.1" viewBox="481.69 237.87 1437.31 953.44">
<path d="M0 0 C1.29315737 0.00023397 1.29315737 0.00023397 2.61243912 0.00047267 C3.6051777 -0.00177462 4.59791628 -0.00402192 5.62073785 -0.00633731 C6.72671353 -0.0037103 7.83268922 -0.00108328 8.97217932 0.00162334 C10.13999938 0.00046949 11.30781944 -0.00068435 12.51102799 -0.00187316 C15.78162782 -0.00407922 19.05218989 -0.00175076 22.32278673 0.00240497 C25.8698972 0.00582238 29.41700438 0.0034716 32.96411547 0.00182748 C39.19046171 -0.00025218 45.41679842 0.00140758 51.64314356 0.00546569 C60.90159292 0.01148332 70.16003623 0.01180312 79.41848719 0.0109237 C94.990207 0.00960757 110.56192257 0.01295964 126.13364115 0.01894111 C141.55915177 0.02485128 156.98466063 0.02870567 172.41017237 0.02979392 C173.8470177 0.02989703 173.8470177 0.02989703 175.3128902 0.03000222 C180.17725228 0.03034054 185.04161435 0.03064193 189.90597643 0.0309291 C224.39065837 0.03303141 258.875338 0.03977405 293.36001864 0.04923171 C326.86848205 0.05841106 360.37694484 0.06549716 393.88540926 0.06973952 C395.43380093 0.06993681 395.43380093 0.06993681 397.01347323 0.07013809 C407.37954295 0.07145657 417.74561268 0.07273239 428.11168241 0.07397695 C449.22993787 0.07651339 470.34819329 0.07933464 491.46644869 0.08232803 C492.92303202 0.08253396 492.92303202 0.08253396 494.40904128 0.08274406 C559.29187128 0.09194999 624.1747 0.1077958 689.0575284 0.12467116 C688.58524302 1.56127195 688.11124864 2.99731098 687.63653841 4.43311233 C687.24088151 5.63274391 687.24088151 5.63274391 686.83723154 6.85661048 C685.88033745 9.6400979 684.7427901 12.30016389 683.5184659 14.97623366 C683.02966952 16.05356765 682.54087313 17.13090163 682.03726473 18.2408821 C681.24292025 19.97773269 681.24292025 19.97773269 680.4325284 21.74967116 C679.25332201 24.34969074 678.07874477 26.9517863 676.90518465 29.55435866 C676.5956032 30.2404219 676.28602175 30.92648513 675.96705904 31.63333816 C672.1935828 40.01453084 668.53298894 48.44474905 664.8700284 56.87467116 C663.41850076 60.21334128 661.96663896 63.55186595 660.51455965 66.89029616 C660.14909029 67.73063399 659.78362093 68.57097182 659.40707674 69.43677444 C655.31383687 78.84296378 651.1858808 88.23385385 647.0575284 97.62467116 C641.20136882 110.94812379 635.36685875 124.28073371 629.5575284 137.62467116 C623.37278003 151.83093772 617.15652955 166.02307285 610.9222745 180.20767898 C605.79763309 191.86883027 600.69104357 203.53763122 595.60620394 215.21619338 C589.56404519 229.0931311 583.51459909 242.96688861 577.44131747 256.83023757 C576.65298391 258.630534 575.86536875 260.4311452 575.0785245 262.23209304 C573.9836897 264.73753505 572.88617649 267.24178741 571.78799715 269.74576491 C571.30939493 270.84319266 571.30939493 270.84319266 570.82112398 271.96279067 C568.70576945 276.77555567 566.41502901 281.40966995 564.0575284 286.12467116 C372.3275284 286.45467116 180.5975284 286.78467116 -16.9424716 287.12467116 C-23.8724716 302.96467116 -23.8724716 302.96467116 -30.9424716 319.12467116 C-33.51442111 324.98897411 -36.08637505 330.85325097 -38.66183195 336.71601028 C-39.75918164 339.21403073 -40.85622372 341.71218612 -41.95321378 344.21036452 C-44.67149367 350.400563 -47.3902363 356.5905582 -50.1089755 362.78055495 C-67.57215021 402.53837012 -67.57215021 402.53837012 -84.95419035 442.33170241 C-85.29891889 443.1231314 -85.64364744 443.91456039 -85.99882231 444.72997207 C-88.13071096 449.6244475 -88.13071096 449.6244475 -90.2624484 454.51898879 C-95.88142037 467.41913408 -101.53027472 480.30594691 -107.1924716 493.18717116 C-112.85100328 506.06092625 -118.48204314 518.94562477 -124.06307707 531.85318679 C-127.9480273 540.83675869 -131.85376369 549.8110942 -135.76803312 558.78192824 C-141.09402126 570.98873747 -146.41175522 583.19911731 -151.71981535 595.41373366 C-152.21555052 596.55394973 -152.71128568 597.69416579 -153.22204313 598.86893386 C-155.73494956 604.65141793 -158.24143124 610.43654839 -160.73544035 616.22721023 C-168.85979676 635.07235809 -168.85979676 635.07235809 -173.04012785 643.88248366 C-179.58178028 657.80249187 -182.67810438 669.41461218 -181.81405363 684.91178054 C-181.96208304 687.46261428 -182.78492824 688.86933564 -183.9424716 691.12467116 C-184.39036276 693.56237164 -184.39036276 693.56237164 -184.5830966 696.21842116 C-184.68050138 697.23388015 -184.77790617 698.24933913 -184.87826261 699.2955696 C-184.98195158 700.39417312 -185.08564054 701.49277663 -185.1924716 702.62467116 C-188.64513708 734.80756222 -197.50245457 766.12174335 -211.9424716 795.12467116 C-212.33402433 795.91873366 -212.72557707 796.71279616 -213.12899503 797.53092116 C-225.43127085 822.27425754 -241.53991346 846.47669069 -261.5362216 865.71842116 C-263.11218164 867.23543389 -263.11218164 867.23543389 -264.8799716 869.62467116 C-267.22845023 872.47131194 -269.81464308 874.72392449 -272.61825285 877.11295241 C-275.20164648 879.34899901 -277.69149435 881.67192178 -280.1924716 883.99967116 C-284.98117544 888.38153526 -289.94690266 892.23432313 -295.2159091 896.01920241 C-297.98632343 898.05303257 -297.98632343 898.05303257 -300.2705966 900.53873366 C-303.65786524 903.81705508 -307.32898412 906.19902788 -311.3174716 908.68717116 C-312.14327726 909.20384353 -312.96908293 909.72051589 -313.819913 910.25284499 C-355.00735865 935.60102999 -403.56639882 953.08929366 -452.3565341 953.32779616 C-453.32083845 953.3348558 -454.2851428 953.34191543 -455.2786685 953.34918899 C-494.9899674 953.57395147 -494.9899674 953.57395147 -512.9424716 950.12467116 C-514.54783781 949.8346321 -514.54783781 949.8346321 -516.18563566 949.53873366 C-581.69047996 937.53105641 -644.76042621 902.15766486 -685.9424716 849.12467116 C-686.74169035 848.11920241 -687.5409091 847.11373366 -688.3643466 846.07779616 C-723.97275994 800.98168338 -747.86935856 742.37510516 -748.1455966 684.49185866 C-748.15265623 683.50526763 -748.15971586 682.5186766 -748.16698942 681.50218887 C-748.39255522 640.73427605 -748.39255522 640.73427605 -744.9424716 623.12467116 C-744.75442961 622.10421706 -744.56638761 621.08376296 -744.37264738 620.03238601 C-739.56958577 594.43516267 -731.50068901 569.47678331 -719.9424716 546.12467116 C-719.57750578 545.36783034 -719.21253996 544.61098952 -718.83651457 543.83121413 C-708.88279261 523.29268596 -695.8532525 504.36810384 -680.9424716 487.12467116 C-680.23735441 486.29064773 -679.53223722 485.45662429 -678.80575285 484.59732741 C-666.80184704 470.8010899 -653.67655559 457.95748907 -638.9424716 447.12467116 C-637.99887785 446.38603835 -637.0552841 445.64740554 -636.0830966 444.88638991 C-591.52230809 410.23483753 -533.37122476 389.48797087 -476.9424716 388.12467116 C-476.1690341 388.1042073 -475.3955966 388.08374343 -474.5987216 388.06265945 C-402.5129824 386.40062163 -330.53223356 410.98376456 -277.17294035 460.07779616 C-275.10950885 461.97138304 -273.00672579 463.8029328 -270.8799716 465.62467116 C-255.34132217 479.18966149 -242.5968293 495.65729988 -230.80575285 512.49185866 C-229.18643358 514.9369433 -229.18643358 514.9369433 -227.9424716 516.12467116 C-219.06294891 495.92740263 -210.19182412 475.72657274 -201.3799716 455.49967116 C-201.03232755 454.70171126 -200.68468351 453.90375137 -200.3265048 453.08161086 C-197.86436571 447.42964358 -195.40328916 441.77721393 -192.9424716 436.12467116 C-190.13071458 429.66601407 -187.31841765 423.2075927 -184.5049716 416.74967116 C-183.98330915 415.55215728 -183.98330915 415.55215728 -183.45110807 414.33045119 C-177.5066869 400.68715929 -171.52672332 387.05964339 -165.5379611 373.43576736 C-160.29291981 361.50205186 -155.08424963 349.55370021 -149.91415128 337.58731765 C-144.91092624 326.02106612 -139.83839681 314.48551561 -134.76620207 302.9493782 C-129.96168908 292.02056313 -125.17738072 281.08383493 -120.4424716 270.12467116 C-115.46502669 258.60541901 -110.43138521 247.11165503 -105.3799716 235.62467116 C-98.86406585 220.80718392 -92.38875963 205.97257404 -85.9424716 191.12467116 C-79.27671356 175.77173178 -72.57653191 160.43456162 -65.83797941 145.1134407 C-59.83666072 131.46613477 -53.87992809 117.7998729 -47.9424716 104.12467116 C-40.8531712 87.7969027 -33.72595306 71.48639808 -26.55795011 55.19303054 C-22.71175734 46.44780506 -18.88116092 37.69612051 -15.0752841 28.93326491 C-14.67869093 28.02069427 -14.28209776 27.10812362 -13.87348661 26.16789931 C-11.96554116 21.77724252 -10.06000873 17.38556664 -8.15853605 12.99210281 C-7.48114247 11.43208362 -6.80365747 9.87210412 -6.12606535 8.31217116 C-5.81657957 7.59456115 -5.50709379 6.87695113 -5.18822965 6.13759536 C-2.58945931 0.16619595 -2.58945931 0.16619595 0 0 Z " fill="#FDFDFD" transform="translate(1229.9424715973437,237.87532883509994)"/>
<path d="M0 0 C1.3629618 0.00394052 1.3629618 0.00394052 2.75345817 0.00796065 C3.71360827 0.0068068 4.67375837 0.00565296 5.66300392 0.00446415 C8.92317776 0.00178931 12.18330352 0.00632673 15.44347492 0.01075396 C17.7872247 0.01031843 20.13097443 0.00944387 22.47472391 0.00816479 C28.26799363 0.00615254 34.06124836 0.00882403 39.85451632 0.01340547 C46.78916622 0.01862718 53.72381246 0.01806232 60.65846385 0.01726101 C73.45789748 0.01594496 86.25732595 0.01929667 99.05675808 0.02527842 C111.7358393 0.03118878 124.41491838 0.03504302 137.09400097 0.03613123 C138.27506531 0.03623434 138.27506531 0.03623434 139.47998954 0.03633953 C143.4784261 0.03667785 147.47686265 0.03697924 151.4752992 0.03726641 C179.82052244 0.03936867 208.16574288 0.04611116 236.51096454 0.05556902 C264.05360762 0.06474851 291.59624993 0.07183454 319.13889423 0.07607684 C319.98738646 0.07620836 320.83587869 0.07633989 321.71008281 0.0764754 C330.23073434 0.07779388 338.75138588 0.0790697 347.27203742 0.08031426 C364.63068679 0.0828507 381.98933612 0.08567195 399.34798542 0.08866534 C400.54525604 0.08887127 400.54525604 0.08887127 401.76671396 0.08908137 C455.0977251 0.09828715 508.42873463 0.1141537 561.75974384 0.13100848 C561.29512523 1.54925886 560.82835712 2.96680516 560.36071125 4.38406023 C560.10101582 5.17353297 559.8413204 5.9630057 559.57375541 6.77640185 C558.35580732 10.29943363 556.88795397 13.69260864 555.38083759 17.09975848 C555.0567844 17.84097445 554.73273121 18.58219042 554.39885822 19.34586748 C553.3353685 21.77589522 552.26633161 24.20343906 551.19724384 26.63100848 C550.44136124 28.35538364 549.68583444 30.07991481 548.93064228 31.80459246 C546.94539579 36.3356651 544.95536563 40.86461903 542.96378437 45.39291033 C541.0047871 49.84784906 539.04839169 54.30393002 537.09177509 58.75991473 C534.79940092 63.98026417 532.50675481 69.20049292 530.2126247 74.42007098 C525.34964563 85.48754962 520.52602359 96.57108399 515.73142353 107.66836199 C510.72819848 119.23461352 505.65566906 130.77016404 500.58347431 142.30630144 C495.26520701 154.40375232 489.98163305 166.51501446 484.74118915 178.64638934 C479.31156621 191.19962999 473.80318421 203.71821575 468.28904071 216.2345241 C463.03741813 228.17002997 457.89700101 240.14407508 452.75974384 252.13100848 C288.08974384 252.13100848 123.41974384 252.13100848 -46.24025616 252.13100848 C-46.90025616 254.11100848 -47.56025616 256.09100848 -48.24025616 258.13100848 C-48.81710135 259.56787741 -49.41398535 260.99691296 -50.03346905 262.41592059 C-50.5525861 263.6102093 -50.5525861 263.6102093 -51.08219036 264.82862505 C-51.45532864 265.67993502 -51.82846691 266.53124499 -52.21291241 267.40835223 C-52.60752163 268.31424593 -53.00213086 269.22013964 -53.40869793 270.15348467 C-54.704307 273.12621705 -56.00352888 276.09735587 -57.30275616 279.06850848 C-58.21315418 281.15564262 -59.12330739 283.24288356 -60.03322491 285.33022723 C-61.88485922 289.57676773 -63.73791201 293.82268448 -65.59230694 298.06802019 C-67.94485898 303.45383343 -70.29462323 308.84085547 -72.64259991 314.22866473 C-72.98493161 315.01418215 -73.3272633 315.79969958 -73.67996868 316.60902056 C-74.36119566 318.17218315 -75.04241421 319.73534941 -75.72362408 321.29851946 C-76.74979105 323.65288466 -77.77634152 326.00708231 -78.8030003 328.36123309 C-84.29140808 340.94710896 -89.7671462 353.53847373 -95.24025616 366.13100848 C-101.74195903 381.09013041 -108.25157965 396.04575638 -114.77199444 410.99673113 C-120.6043377 424.3706603 -126.42440696 437.7498991 -132.24025616 451.13100848 C-138.74195903 466.09013041 -145.25157965 481.04575638 -151.77199444 495.99673113 C-158.03012569 510.34701887 -164.27372591 524.70359794 -170.51396832 539.06167254 C-176.39313934 552.58861348 -182.28118607 566.11164364 -188.17775616 579.63100848 C-193.27275358 591.31346242 -198.35975889 602.99931349 -203.42775616 614.69350848 C-203.93234356 615.85753191 -204.43693097 617.02155535 -204.95680889 618.22085223 C-205.43577618 619.32686785 -205.91474347 620.43288348 -206.40822491 621.57241473 C-206.86890362 622.63605242 -207.32958233 623.69969012 -207.804221 624.79555926 C-208.84280518 627.20785729 -209.87448616 629.62240111 -210.89894757 632.04067644 C-211.17330136 632.68657229 -211.44765515 633.33246813 -211.73032269 633.99793658 C-212.50025292 635.81224526 -213.26742671 637.62772294 -214.03444561 639.44326434 C-215.24025616 642.13100848 -215.24025616 642.13100848 -216.24025616 643.13100848 C-218.39185342 643.22794548 -220.54669727 643.25287631 -222.7004765 643.25126299 C-223.38328417 643.25211742 -224.06609184 643.25297184 -224.76959065 643.25385216 C-227.07437307 643.25550891 -229.37908388 643.24998244 -231.68385968 643.24453387 C-233.32930644 643.24425201 -234.97475332 643.2444097 -236.62020001 643.24497637 C-241.10141375 643.24526441 -245.58260097 643.23936669 -250.06380853 643.23240241 C-254.74167721 643.2261699 -259.41954644 643.22556516 -264.09741864 643.22437701 C-272.96200784 643.22126339 -281.82658478 643.21304959 -290.69116858 643.20302752 C-300.78047818 643.19186733 -310.86978836 643.18635617 -320.9591026 643.18133208 C-341.71949398 643.170867 -362.4798743 643.15326697 -383.24025616 643.13100848 C-383.10522891 639.63721709 -382.96065087 636.14388102 -382.81447491 632.65053973 C-382.77672955 631.67089251 -382.73898419 630.69124529 -382.70009503 629.6819118 C-382.32754412 620.96785515 -381.11801599 612.64214025 -379.24025616 604.13100848 C-379.03771222 603.19386004 -378.83516827 602.2567116 -378.62648663 601.29116473 C-369.00554078 557.34968116 -349.50599759 517.60220936 -319.24025616 484.13100848 C-318.29309055 483.06248625 -317.34647217 481.99347868 -316.40041241 480.92397723 C-310.70280738 474.53996156 -304.72943746 468.70522929 -298.24025616 463.13100848 C-288.62213856 467.20275163 -281.50935602 478.14140094 -275.24025616 486.13100848 C-274.43717022 487.14034441 -273.63408429 488.14968035 -272.80666241 489.18960223 C-261.90736707 503.00491837 -252.97352066 517.74466574 -244.41017804 533.10073504 C-243.42065024 534.81795398 -242.33962747 536.48195151 -241.24025616 538.13100848 C-240.84459454 537.21440447 -240.44893292 536.29780047 -240.04128155 535.35342059 C-230.20113799 512.56132024 -220.31082803 489.79155384 -210.38136944 467.03823504 C-207.18617363 459.71594923 -203.99450482 452.39212601 -200.80257306 445.06841692 C-199.0279993 440.99678718 -197.25328314 436.92521951 -195.47853741 432.85366473 C-194.95166333 431.64491938 -194.95166333 431.64491938 -194.41414532 430.41175494 C-192.31977229 425.60703982 -190.2249508 420.80252054 -188.12975201 415.99816546 C-180.15587383 397.71376133 -172.19179674 379.42513891 -164.24025616 361.13100848 C-155.94506666 342.04624407 -147.63543036 322.96782333 -139.31691632 303.89321551 C-136.14559857 296.62107197 -132.97575862 289.34828425 -129.8057774 282.07555804 C-128.03399469 278.01068303 -126.26212091 273.94584772 -124.49025616 269.88100848 C-123.78192239 268.25600867 -123.07358906 266.63100867 -122.36525616 265.00600848 C-111.74025616 240.63100848 -111.74025616 240.63100848 -101.11525616 216.25600848 C-100.589296 215.0493931 -100.589296 215.0493931 -100.05271038 213.81840166 C-99.34453139 212.19375694 -98.63635065 210.56911298 -97.92816815 208.94446978 C-96.154959 204.87654036 -94.38178052 200.80859757 -92.60866436 196.74062762 C-89.44954992 189.49291208 -86.29024763 182.24527884 -83.12975201 174.99816546 C-75.15587383 156.71376133 -67.19179674 138.42513891 -59.24025616 120.13100848 C-51.30247289 101.86852952 -43.3522728 83.61150938 -35.39154705 65.35902056 C-33.20477275 60.34457477 -31.01991319 55.3292987 -28.83634076 50.31345782 C-27.31590295 46.82092848 -25.79497698 43.32861182 -24.27403912 39.83630022 C-23.5607687 38.19815893 -22.84772364 36.55991949 -22.13494 34.92156634 C-18.37988377 26.29074258 -14.60921823 17.66680399 -10.80666241 9.05678973 C-10.46408902 8.27676089 -10.12151562 7.49673205 -9.76856121 6.69306597 C-6.81175239 0.01874997 -6.81175239 0.01874997 0 0 Z " fill="#0D2240" transform="translate(1245.2402561604977,254.8689915239811)"/>
<path d="M0 0 C10.1495549 0 10.1495549 0 15.01171875 0.69921875 C16.62506104 0.9305249 16.62506104 0.9305249 18.27099609 1.16650391 C62.42192737 7.89925275 124.72969747 23.28669227 154.98828125 59.37109375 C155.48908203 60.17740234 155.48908203 60.17740234 156 61 C152.1033819 64.98988821 148.19450866 68.89278914 143.9375 72.5 C139.86606898 76.01910511 136.45792444 79.88768747 133 84 C131.78183594 85.38638672 131.78183594 85.38638672 130.5390625 86.80078125 C114.01452546 105.70362178 100.58286808 127.25957011 90 150 C89.70287109 150.63292969 89.40574219 151.26585937 89.09960938 151.91796875 C73.44720714 185.54164763 67.65000581 218.89991865 65 256 C43.55 256 22.1 256 0 256 C0 171.52 0 87.04 0 0 Z " fill="#2C5235" transform="translate(775,642)"/>
<path d="M0 0 C21.45 0 42.9 0 65 0 C65 83.49 65 166.98 65 253 C33.65457356 250.67811656 33.65457356 250.67811656 24.02880859 248.46386719 C21.74952221 247.94273071 19.46314149 247.46098681 17.17578125 246.9765625 C-19.17582994 239.04536433 -63.28151161 222.23230547 -90 195 C-90 192 -90 192 -87.47265625 189.43359375 C-86.34147689 188.42862593 -85.20434805 187.43032933 -84.0625 186.4375 C-78.30014134 181.26320062 -73.00201137 175.92647551 -68 170 C-67.51563477 169.42797852 -67.03126953 168.85595703 -66.53222656 168.26660156 C-54.58965208 154.08984699 -44.18031354 139.0986309 -35 123 C-34.64228516 122.3817334 -34.28457031 121.7634668 -33.91601562 121.12646484 C-23.53545709 103.03503361 -15.45582862 83.12730782 -10 63 C-9.79713379 62.26894043 -9.59426758 61.53788086 -9.38525391 60.78466797 C-6.6729967 50.92842764 -4.50067138 41.00892367 -2.75 30.9375 C-2.50527954 29.57625 -2.50527954 29.57625 -2.25561523 28.1875 C-0.69563133 18.71634704 -0.51438771 9.77336654 0 0 Z " fill="#FFA401" transform="translate(688,921)"/>
<path d="M0 0 C21.45 0 42.9 0 65 0 C65.495 9.405 65.495 9.405 66 19 C66.6609263 24.06625427 67.36779446 29.03998937 68.25 34.0625 C68.47397461 35.35833008 68.69794922 36.65416016 68.92871094 37.98925781 C70.69510548 47.89642722 72.8952991 57.43548663 76 67 C76.28794434 67.92570801 76.57588867 68.85141602 76.87255859 69.80517578 C86.616247 100.9559826 101.27637044 130.65556115 122 156 C122.70125 156.89203125 123.4025 157.7840625 124.125 158.703125 C133.15813772 170.06096728 143.08350054 180.67989888 154.0859375 190.14453125 C154.71757813 190.75683594 155.34921875 191.36914062 156 192 C156 192.66 156 193.32 156 194 C132.17457099 216.17833343 99.55608923 230.99347457 69 241 C68.02168213 241.32782471 67.04336426 241.65564941 66.03540039 241.9934082 C58.12670904 244.55172651 50.17014538 246.32645966 42.0065918 247.81030273 C39.93398089 248.18814154 37.86449985 248.58053202 35.79492188 248.97460938 C23.75575693 251.22997029 12.32602715 252 0 252 C0 168.84 0 85.68 0 0 Z " fill="#2C5235" transform="translate(775,921)"/>
<path d="M0 0 C0 84.48 0 168.96 0 256 C-20.79 256 -41.58 256 -63 256 C-63.680625 249.6475 -64.36125 243.295 -65.0625 236.75 C-67.06093278 219.38308261 -69.86096813 202.75608256 -75 186 C-75.45415283 184.50895752 -75.45415283 184.50895752 -75.91748047 182.98779297 C-87.79619481 144.8614589 -108.19837046 109.78677123 -135.51171875 80.67578125 C-137.59661085 78.43378582 -139.59110206 76.1532465 -141.5625 73.8125 C-145.62715165 69.10345235 -150.31288769 65.07410969 -155 61 C-128.24773485 32.52178226 -84.20928275 15.05988981 -46.76953125 6.859375 C-43.08409572 6.07162597 -43.08409572 6.07162597 -39.8828125 5.0234375 C-34.085903 3.32670117 -28.02894693 2.7118523 -22.0625 1.875 C-20.82564453 1.69324219 -19.58878906 1.51148438 -18.31445312 1.32421875 C-17.10853516 1.15277344 -15.90261719 0.98132813 -14.66015625 0.8046875 C-13.57355713 0.64983887 -12.48695801 0.49499023 -11.36743164 0.33544922 C-7.59530804 -0.04031369 -3.79079335 0 0 0 Z " fill="#FFA401" transform="translate(752,642)"/>
<path d="M0 0 C12.61158178 5.77799342 22.61179685 19.39551574 31 30 C31.86056019 31.04804175 32.72258903 32.09487897 33.5859375 33.140625 C55.3046562 59.71148147 71.1790028 91.68659502 79.47802734 124.95166016 C79.97911526 126.9180435 80.52956716 128.87164712 81.08203125 130.82421875 C83.29275482 138.88052598 84.68097355 146.90094087 85.75 155.1875 C85.87777832 156.16090332 86.00555664 157.13430664 86.13720703 158.13720703 C87.02499052 165.56786741 87 172.39383119 87 180 C32.22 180 -22.56 180 -79 180 C-79 142.28245792 -69.00533252 102.96507997 -50.94140625 69.75341797 C-50.00021338 68.00039742 -49.10935417 66.22066151 -48.21875 64.44140625 C-36.06481813 40.29350562 -19.13111426 18.95719504 0 0 Z " fill="#0E2240" transform="translate(578,718)"/>
<path d="M0 0 C54.78 0 109.56 0 166 0 C166 52.68942278 144.64224377 104.16949063 112 145 C111.19175781 146.01578125 110.38351562 147.0315625 109.55078125 148.078125 C103.94084813 154.9814019 97.85411975 161.40383388 91.625 167.75 C90.8515625 168.54946045 90.078125 169.3489209 89.28125 170.17260742 C88.54132813 170.91486572 87.80140625 171.65712402 87.0390625 172.421875 C86.38115723 173.08799805 85.72325195 173.75412109 85.04541016 174.44042969 C82.69029751 176.23613983 80.9111665 176.6420334 78 177 C77.62230469 176.56171875 77.24460937 176.1234375 76.85546875 175.671875 C73.65886788 171.98867212 70.41605899 168.36529506 67.08105469 164.80639648 C44.95067431 141.08253567 29.35681572 112.8238282 17 83 C16.6383374 82.14011475 16.2766748 81.28022949 15.90405273 80.39428711 C13.54175257 74.66859858 11.66744939 68.91776787 10.0625 62.9375 C9.81016602 62.00357422 9.55783203 61.06964844 9.29785156 60.10742188 C4.10495772 40.3913657 0 20.40897601 0 0 Z " fill="#0E2240" transform="translate(499,921)"/>
<path d="M0 0 C54.78 0 109.56 0 166 0 C160.9367724 63.29034495 139.17425453 120.37285311 96.15234375 167.62890625 C93.05272047 171.04355477 90.02698472 174.52107917 87 178 C80.98197726 173.75715749 75.73003452 169.0481985 70.5625 163.8125 C69.81532715 163.05855957 69.0681543 162.30461914 68.29833984 161.52783203 C62.81241662 155.93905522 57.71858947 150.25917372 53 144 C52.58621094 143.46262207 52.17242188 142.92524414 51.74609375 142.37158203 C44.05955017 132.37403318 37.31115163 121.91303302 31 111 C30.60039063 110.31212402 30.20078125 109.62424805 29.7890625 108.91552734 C14.02426323 81.4395454 4.93668179 50.29457289 1 19 C0.8954248 18.22301758 0.79084961 17.44603516 0.68310547 16.64550781 C-0.0302865 10.97559254 0 5.82545631 0 0 Z " fill="#0E2240" transform="translate(863,921)"/>
<path d="M0 0 C15.51 0 31.02 0 47 0 C45.43494072 4.69517784 43.70514875 9.16021091 41.71875 13.67578125 C41.39328186 14.42124207 41.06781372 15.16670288 40.73248291 15.93475342 C39.65749611 18.39510741 38.57876897 20.85380228 37.5 23.3125 C36.7397017 25.05060927 35.97961439 26.78881085 35.21972656 28.52709961 C29.36264582 41.91847441 23.48082291 55.29904958 17.59960938 68.67984009 C12.3480263 80.62828194 7.13332892 92.59157013 1.95629883 104.57250977 C-2.51097081 114.89887906 -7.03334747 125.20064501 -11.5625 135.5 C-18.07840712 150.31749038 -24.55312213 165.15235131 -31 180 C-37.25467535 194.40033806 -43.51761502 208.79699313 -49.81835938 223.17724609 C-50.59642789 224.95362152 -51.37379006 226.73030654 -52.15039062 228.50732422 C-53.22319293 230.96152389 -54.29871381 233.41451406 -55.375 235.8671875 C-55.68453613 236.57656464 -55.99407227 237.28594177 -56.31298828 238.01681519 C-58.4035308 242.76920434 -60.67145139 247.34290278 -63 252 C-78.51 252 -94.02 252 -110 252 C-104.26647099 238.02452303 -98.34681263 224.1663774 -92.1875 210.375 C-87.27645457 199.3778799 -82.39619556 188.37124121 -77.625 177.3125 C-72.46482836 165.35364576 -67.24306766 153.42273968 -62 141.5 C-56.80264698 129.67975201 -51.62121669 117.85345551 -46.5 106 C-40.99546488 93.25932409 -35.41988675 80.55051299 -29.83279419 67.84585571 C-24.34369257 55.36277874 -18.88478126 42.86747297 -13.49804688 30.33984375 C-9.1128578 20.1705842 -4.54697412 10.10438694 0 0 Z " fill="#2C5235" transform="translate(1844,255)"/>
<path d="M0 0 C0.33 0 0.66 0 1 0 C0.47876642 6.49744624 -1.78413191 11.87236098 -4.375 17.8125 C-4.77460937 18.76576172 -5.17421875 19.71902344 -5.5859375 20.70117188 C-6.17375 22.06532227 -6.17375 22.06532227 -6.7734375 23.45703125 C-7.12841309 24.28178955 -7.48338867 25.10654785 -7.84912109 25.95629883 C-9 28 -9 28 -12 30 C-9.8197371 23.12052968 -7.19745965 16.54944102 -4.3125 9.9375 C-3.89677734 8.97650391 -3.48105469 8.01550781 -3.05273438 7.02539062 C-2.03848513 4.68212514 -1.02085998 2.34039113 0 0 Z " fill="#FFFFFF" transform="translate(1093,845)"/>
<path d="M0 0 C0.33 0 0.66 0 1 0 C0.80743982 9.17286652 0.80743982 9.17286652 -2.5625 12.625 C-3.366875 13.07875 -4.17125 13.5325 -5 14 C-4.34580901 8.93001981 -2.1453591 4.58009223 0 0 Z " fill="#FFFFFF" transform="translate(1211,577)"/>
<path d="M0 0 C0.99 0.33 1.98 0.66 3 1 C3.33 1.99 3.66 2.98 4 4 C2.35 4 0.7 4 -1 4 C-0.67 2.68 -0.34 1.36 0 0 Z " fill="#FFFFFF" transform="translate(947,1180)"/>
<path d="M0 0 C0.66 0.99 1.32 1.98 2 3 C1.34 3 0.68 3 0 3 C-0.33 3.66 -0.66 4.32 -1 5 C-0.67 3.35 -0.34 1.7 0 0 Z " fill="#FFFFFF" transform="translate(1149,718)"/>
<path d="" fill="#FFFFFF" transform="translate(0,0)"/>
<path d="" fill="#FFFFFF" transform="translate(0,0)"/>
<path d="" fill="#FFFFFF" transform="translate(0,0)"/>
<path d="" fill="#FFFFFF" transform="translate(0,0)"/>
<path d="" fill="#FFFFFF" transform="translate(0,0)"/>
</svg>