<svg xmlns="http://www.w3.org/2000/svg" version="1.1" viewBox="-0.41 -0.35 2035.75 2035.65">
<path d="M0 0 C3.92231785 0.00461059 7.84432396 -0.00223799 11.76660156 -0.02050781 C47.98960798 -0.18732437 84.10356732 1.32914935 120.1003418 5.56567383 C121.44109268 5.7190773 121.44109268 5.7190773 122.80892944 5.87557983 C213.23283439 16.26220872 302.22910615 38.48160032 584.6003418 179.31567383 C585.31496582 179.81276855 586.02958984 180.30986328 586.76586914 180.82202148 C608.10221935 195.68450091 628.66463425 211.39712151 648.79614258 227.84350586 C650.38307226 229.13838894 651.97382916 230.42857861 653.56518555 231.71801758 C664.02947774 240.21545309 674.23778246 248.98849983 684.1706543 258.10083008 C686.20549595 259.955742 688.26355427 261.76996181 690.3503418 263.56567383 C703.5471294 275.0878757 715.92427651 287.48105071 728.29174805 299.87670898 C730.64974993 302.23922026 733.01102483 304.59834895 735.37424469 306.95563316 C737.67080419 309.24768403 739.96352325 311.54356878 742.2565918 313.83911133 C743.09210571 314.67260101 743.92761963 315.5060907 744.78845215 316.36483765 C749.05273834 320.64609726 753.17351915 324.99309007 757.1053772 329.58259583 C759.48258838 332.33844196 761.98573168 334.97429387 764.4753418 337.62817383 C769.01382703 342.50152932 773.29382977 347.5187136 777.46362305 352.71411133 C779.55916673 355.26554112 781.73997334 357.69894156 783.9753418 360.12817383 C787.9578946 364.50346973 791.6185225 369.06296649 795.24145508 373.734375 C798.18809725 377.53079598 801.18828128 381.27376819 804.24194336 384.98461914 C811.72073001 394.07994984 818.82548089 403.43045802 825.81860352 412.90307617 C826.93416423 414.41362303 828.05253485 415.92210327 829.17504883 417.42749023 C859.69308483 458.37460302 886.46377446 502.62760978 909.83862305 547.98364258 C911.49229881 551.19178489 913.16602326 554.38485108 914.89331055 557.55395508 C952.34295317 626.33296645 977.71648623 702.86728295 1019.8503418 918.44067383 C1019.9275647 919.20817963 1020.0047876 919.97568542 1020.08435059 920.76644897 C1020.66387977 926.61077179 1021.14947483 932.460115 1021.6003418 938.31567383 C1021.73114639 939.97397217 1021.73114639 939.97397217 1021.86459351 941.66577148 C1023.6346524 964.79781134 1023.94508661 987.87437742 1023.91601562 1011.06713867 C1023.91140709 1015.04479349 1023.91824403 1019.02214077 1023.93652344 1022.99975586 C1024.10187173 1059.38623497 1022.60605224 1095.6558806 1018.3503418 1131.81567383 C1018.24807281 1132.70950775 1018.14580383 1133.60334167 1018.04043579 1134.52426147 C1010.2156895 1202.64493112 995.81291735 1269.93443034 974.33874512 1335.07366943 C973.62945459 1337.22727903 972.92615139 1339.38275352 972.22436523 1341.53881836 C961.74159544 1373.64349057 949.44490888 1405.22959707 935.20678711 1435.85424805 C933.83251857 1438.81539991 932.4730408 1441.78276126 931.12101746 1444.75411987 C918.58853784 1472.27395799 904.8534208 1499.19949054 889.6003418 1525.31567383 C888.97804688 1526.38479004 888.35575195 1527.45390625 887.71459961 1528.55541992 C873.58832234 1552.77338715 858.52681469 1576.24131977 842.6003418 1599.31567383 C841.77687256 1600.51232666 841.77687256 1600.51232666 840.93676758 1601.7331543 C833.10640588 1613.0850407 824.80560844 1624.05722974 816.39379883 1634.9831543 C814.86141488 1636.97612956 813.33580613 1638.9738783 811.81518555 1640.97583008 C802.25363413 1653.5224512 792.23469149 1665.7017388 781.98608398 1677.69165039 C780.54305088 1679.38281604 779.10659363 1681.07942002 777.6706543 1682.77661133 C771.31335482 1690.26943887 764.77086672 1697.55390852 758.06616211 1704.73657227 C756.60668444 1706.30884102 755.15994006 1707.89180628 753.7175293 1709.47973633 C748.81742873 1714.87348794 743.82633524 1720.13166971 738.63549805 1725.24926758 C736.76388856 1727.1496158 735.01716389 1729.09882477 733.2878418 1731.12817383 C726.70230135 1738.78577899 719.41627203 1745.87213313 711.7253418 1752.40942383 C708.9063854 1754.93819353 706.26116995 1757.62232627 703.6003418 1760.31567383 C699.75881329 1764.19939734 695.87661413 1767.9412216 691.71362305 1771.48364258 C689.54396927 1773.36454391 687.4358112 1775.30480246 685.33154297 1777.25830078 C680.22315371 1781.99828493 675.00109475 1786.50759674 669.5690918 1790.87817383 C666.07751535 1793.74494186 662.68524633 1796.71360701 659.2878418 1799.69067383 C652.8580117 1805.30217666 646.25850871 1810.63327271 639.50170898 1815.84399414 C637.45681689 1817.42676373 635.4224986 1819.02246907 633.3894043 1820.62036133 C612.06465731 1837.35317163 590.1015164 1853.24751864 567.43237305 1868.11352539 C566.2068071 1868.91772139 564.98285495 1869.72438195 563.76049805 1870.53344727 C489.5737367 1919.61855495 408.47694738 1958.0095679 83.83862305 2033.55395508 C83.0683075 2033.61720474 82.29799194 2033.68045441 81.5043335 2033.74562073 C78.87058963 2033.95228436 76.23617771 2034.13750103 73.6003418 2034.31567383 C71.69072159 2034.44560226 71.69072159 2034.44560226 69.74252319 2034.57815552 C57.5690597 2035.35631142 45.42077594 2035.49601679 33.2253418 2035.51879883 C32.1799826 2035.52162621 31.13462341 2035.52445358 30.05758667 2035.52736664 C24.50429038 2035.54225697 18.9510193 2035.55154539 13.39770508 2035.5559082 C8.90901382 2035.56025311 4.42051908 2035.5740037 -0.06811523 2035.59692383 C-28.62797961 2035.73968398 -56.90301931 2035.06898576 -85.35512543 2032.50016022 C-87.2218107 2032.33172172 -89.08894279 2032.16825389 -90.95611572 2032.00531006 C-97.13503406 2031.46128235 -103.29984842 2030.83498528 -109.4621582 2030.12817383 C-110.35670715 2030.02751617 -111.2512561 2029.92685852 -112.1729126 2029.82315063 C-176.53004594 2022.51164262 -240.61865159 2008.96824185 -302.24505615 1989.01171875 C-304.42797127 1988.30652728 -306.61298683 1987.60820776 -308.79858398 1986.91137695 C-343.79278246 1975.73130477 -377.96971682 1962.54476264 -411.3996582 1947.31567383 C-412.35585052 1946.88061523 -412.35585052 1946.88061523 -413.33135986 1946.43676758 C-500.26726502 1906.83357611 -580.95026653 1855.720368 -653.69506836 1793.76586914 C-655.4208515 1792.29764344 -657.15040093 1790.8339385 -658.88012695 1789.37036133 C-666.36728192 1783.0161106 -673.64695676 1776.4775927 -680.82495117 1769.77709961 C-682.3837438 1768.33044338 -683.95352519 1766.89695479 -685.52856445 1765.46801758 C-691.20628489 1760.31521167 -696.71411074 1755.03861681 -702.1027832 1749.58129883 C-704.14236618 1747.56946528 -706.22426239 1745.67781265 -708.3996582 1743.81567383 C-715.28238013 1737.90626612 -721.5363791 1731.40207164 -727.4230957 1724.51098633 C-729.97929097 1721.67189198 -732.68255412 1718.99988117 -735.3996582 1716.31567383 C-739.28338884 1712.4741512 -743.02520614 1708.59194596 -746.56762695 1704.42895508 C-748.44886703 1702.25891055 -750.38953033 1700.15041032 -752.34326172 1698.0456543 C-757.17992798 1692.833637 -761.7682673 1687.49515969 -766.2277832 1681.95239258 C-768.3372217 1679.39147355 -770.52853469 1676.94443928 -772.7746582 1674.50317383 C-776.75649407 1670.12866557 -780.41707903 1665.57038308 -784.03857422 1660.89916992 C-787.00011304 1657.08252815 -790.0192565 1653.32355666 -793.09204102 1649.59594727 C-800.13608411 1641.04034338 -806.77823017 1632.22602117 -813.2746582 1623.24902344 C-814.93552163 1620.95636787 -816.6032542 1618.66923086 -818.2746582 1616.38427734 C-826.2602978 1605.43626011 -833.90922518 1594.29470558 -841.3996582 1583.00317383 C-841.96681549 1582.14994537 -842.53397278 1581.29671692 -843.11831665 1580.41763306 C-851.45810381 1567.86506198 -859.73714445 1555.29710676 -867.3996582 1542.31567383 C-867.98183105 1541.32954102 -868.56400391 1540.3434082 -869.16381836 1539.32739258 C-878.26248177 1523.8471426 -886.9842209 1508.17679585 -895.3996582 1492.31567383 C-895.95476074 1491.2739502 -896.50986328 1490.23222656 -897.08178711 1489.15893555 C-936.29826405 1415.36665402 -964.65764188 1336.5944757 -1006.1496582 1131.81567383 C-1006.24475677 1131.00764313 -1006.33985535 1130.19961243 -1006.43783569 1129.36709595 C-1010.50038358 1094.40107706 -1011.91666829 1059.26424201 -1011.79077148 1024.08618164 C-1011.77368139 1019.27755842 -1011.78388485 1014.46943399 -1011.80109406 1009.66082764 C-1011.90755923 974.44814661 -1010.15213996 939.31240547 -1006.1496582 904.31567383 C-1006.04705688 903.39683411 -1005.94445557 902.47799438 -1005.83874512 901.53131104 C-995.37855401 808.37428773 -972.0541914 716.25136769 -920.3996582 594.31567383 C-920.09930664 593.66254211 -919.79895508 593.0094104 -919.48950195 592.33648682 C-906.92058905 565.02469626 -893.45526469 538.35453476 -878.3996582 512.31567383 C-878.06840942 511.74167847 -877.73716064 511.16768311 -877.39587402 510.57629395 C-869.20323499 496.38139236 -861.01172575 482.19807527 -851.90161133 468.56567383 C-850.14657417 465.93654145 -848.4062035 463.29792414 -846.6652832 460.65942383 C-827.08753614 431.05902847 -806.31631205 402.59290814 -783.86743164 375.11547852 C-782.58469688 373.54257089 -781.30806407 371.96469099 -780.0324707 370.38598633 C-770.85087766 359.05193192 -761.19818527 348.11777443 -751.3996582 337.31567383 C-749.96191119 335.71172854 -748.52441743 334.10755622 -747.0871582 332.50317383 C-745.52534075 330.77339065 -743.96274579 329.04430936 -742.3996582 327.31567383 C-741.62307861 326.45224365 -740.84649902 325.58881348 -740.04638672 324.69921875 C-731.1320665 314.90705416 -721.78973258 305.55369969 -712.41674805 296.20239258 C-709.63775147 293.42879021 -706.86418538 290.64983702 -704.09106445 287.87036133 C-702.30362483 286.08358202 -700.5158753 284.29711267 -698.7277832 282.51098633 C-697.90989319 281.69107208 -697.09200317 280.87115784 -696.24932861 280.02639771 C-692.010568 275.80473372 -687.70371223 271.72916848 -683.15931702 267.83721924 C-680.21877551 265.29458575 -677.41432366 262.60778023 -674.5871582 259.94067383 C-669.54054876 255.21371007 -664.36631672 250.7405824 -658.96606445 246.41723633 C-656.42406457 244.33565956 -654.00436485 242.16529003 -651.5871582 239.94067383 C-647.21728502 235.96305697 -642.66356284 232.30690789 -637.99853516 228.68774414 C-633.36572328 225.09101443 -628.8121432 221.40669894 -624.2746582 217.69067383 C-612.70829387 208.25423325 -600.63752732 199.54591897 -588.51733398 190.84106445 C-586.70059141 189.53244011 -584.89020607 188.21587854 -583.08325195 186.89379883 C-545.38861035 159.53098015 -505.10862174 135.40155758 -463.73168945 114.07739258 C-460.52354714 112.42371682 -457.33048096 110.74999237 -454.16137695 109.02270508 C-382.98866029 70.26970834 -303.38249368 44.10182531 0 0 Z " fill="#FFFFFF" transform="translate(1011.399658203125,-0.315673828125)"/>
<path d="M0 0 C5.10974319 0.98956294 9.42143078 5.05662612 13.5 8.125 C14.32516113 8.73956055 15.15032227 9.35412109 16.00048828 9.98730469 C25.72445086 17.24878829 35.36887759 24.61607108 45 32 C45.62600098 32.47920898 46.25200195 32.95841797 46.89697266 33.45214844 C50.03035531 35.85098847 53.15838508 38.25662902 56.28027344 40.67041016 C57.53038834 41.63692432 58.78112177 42.60263864 60.03222656 43.56787109 C68.85247616 50.37638152 77.60446289 57.25359374 86.23046875 64.30688477 C90.55312875 67.83795766 94.91443061 71.31338588 99.3125 74.75 C105.27906454 79.41617008 111.15694522 84.17966781 117 89 C118.33441831 90.09531663 119.6690711 91.19034765 121.00390625 92.28515625 C128.20456623 98.19606077 135.37735943 104.13480093 142.47265625 110.171875 C145.74058575 112.94838653 149.04336539 115.67539607 152.375 118.375 C158.07514776 123.01619433 163.61420627 127.83273893 169.15625 132.66015625 C172.85487997 135.88054737 176.58173568 139.06695995 180.3125 142.25 C185.19904226 146.42506823 190.01275576 150.66955205 194.7734375 154.98828125 C196.83104391 156.84734669 198.90846763 158.67928358 201 160.5 C204.89790485 163.89494939 208.73347057 167.35665884 212.5703125 170.8203125 C214.6560618 172.69145094 216.75817628 174.53924831 218.875 176.375 C223.81400077 180.67926975 228.6207387 185.12781238 233.43994141 189.56494141 C235.44259498 191.40713197 237.44959526 193.24454436 239.45678711 195.08178711 C241.97315137 197.38572293 244.48673339 199.6926861 247 202 C247.50080078 202.45955078 248.00160156 202.91910156 248.51757812 203.39257812 C252.35568125 206.91696657 256.18134776 210.45455047 260 214 C260.64066406 214.59409668 261.28132813 215.18819336 261.94140625 215.80029297 C271.07181545 224.28198572 280.02136939 232.91166032 288.76049805 241.79736328 C292.05732232 245.13408228 295.3730247 248.37748631 298.9296875 251.4375 C303.70054555 255.54497378 308.12347148 259.97721516 312.5625 264.4375 C313.37396484 265.24509766 314.18542969 266.05269531 315.02148438 266.88476562 C318.63031069 270.49941733 322.16743609 274.12836318 325.49609375 278.00390625 C329.58107971 282.75362814 334.03744747 287.10794593 338.5 291.5 C343.67956642 296.59774073 348.75395007 301.70046338 353.4609375 307.2421875 C355.06850091 309.07823708 356.75761491 310.79209988 358.5 312.5 C361.46715801 315.42130788 364.20058971 318.47991673 366.91796875 321.6328125 C369.560464 324.63722549 372.27840173 327.56734072 375 330.5 C379.41511903 335.26622193 383.76922398 340.06847432 388 345 C388.62527588 345.72775635 388.62527588 345.72775635 389.26318359 346.47021484 C391.78584773 349.40674671 394.30471658 352.34647368 396.8203125 355.2890625 C398.88970698 357.7082138 400.96777307 360.11938733 403.0546875 362.5234375 C408.5413373 368.85685284 413.86216912 375.27772594 419.00073242 381.8972168 C421.88296917 385.60398561 424.84197074 389.2266767 427.875 392.8125 C433.55946882 399.58910299 438.90710578 406.60778594 444.23632812 413.66552734 C446.04367302 416.05780751 447.85774569 418.44489324 449.671875 420.83203125 C471.28594433 449.35978661 490.70626865 479.26185188 509 510 C509.5330072 510.89489136 509.5330072 510.89489136 510.07678223 511.80786133 C550.81809411 580.25473826 587.83871638 651.60617487 614 727 C614.2384967 727.68368652 614.47699341 728.36737305 614.72271729 729.07177734 C640.52547808 803.0683167 657.7341075 880.84128095 653.25 959.625 C653.20743073 960.37746002 653.16486145 961.12992004 653.1210022 961.90518188 C650.57779068 1005.52839549 640.93531021 1048.18795759 623.875 1088.4375 C623.46725342 1089.41541504 623.05950684 1090.39333008 622.6394043 1091.40087891 C620.39600339 1096.56138012 618.34592273 1100.26998033 614 1104 C612.97519531 1105.05960938 612.97519531 1105.05960938 611.9296875 1106.140625 C607.13761728 1111.06024082 602.11167165 1115.45782633 596.75390625 1119.75 C594.0907355 1121.92586716 591.53957552 1124.18178209 589 1126.5 C579.98050041 1134.69696661 570.34186394 1142.16082268 560.73339844 1149.64892578 C559.10436685 1150.91865265 557.47787634 1152.19163775 555.8515625 1153.46484375 C547.4697654 1159.97815459 538.89718093 1166.21143083 530.26123047 1172.3828125 C528.130368 1173.90676337 526.00446034 1175.43740932 523.87890625 1176.96875 C492.11333714 1199.74096013 458.4306886 1219.56982311 424 1238 C422.98760254 1238.54382324 421.97520508 1239.08764648 420.93212891 1239.64794922 C380.26591319 1261.40315031 337.57572696 1278.99159458 294 1294 C293.29635315 1294.24256531 292.5927063 1294.48513062 291.86773682 1294.73504639 C249.6045346 1309.25768565 206.2036928 1319.7892742 162.3125 1328.0625 C161.23242676 1328.26665527 160.15235352 1328.47081055 159.03955078 1328.68115234 C154.30396932 1329.53914284 149.8362615 1330.25540734 145 1330 C144.08885394 1325.95974562 143.70658846 1322.00248655 143.41347671 1317.87324953 C143.36212658 1317.16225417 143.31077645 1316.45125881 143.25787026 1315.71871813 C143.08581755 1313.32550583 142.9183549 1310.93199442 142.75085068 1308.53845978 C142.62697536 1306.80201921 142.50281846 1305.06559871 142.3784048 1303.32919663 C142.03544004 1298.53099904 141.69649831 1293.73252427 141.35817849 1288.93399724 C140.99004042 1283.72257196 140.61818925 1278.51141147 140.24679875 1273.30021715 C139.59565051 1264.15630827 138.94689374 1255.01223212 138.29968071 1245.8680439 C137.33701911 1232.26718471 136.37069136 1218.66658776 135.40359547 1205.06604324 C133.77578674 1182.17225548 132.15095452 1159.27825769 130.52779388 1136.38414001 C128.91689617 1113.66313524 127.30462182 1090.94222882 125.69052887 1068.22145081 C125.6403521 1067.51512951 125.59017532 1066.80880821 125.53847804 1066.08108323 C125.02892895 1058.90835178 124.51935329 1051.73562222 124.00976057 1044.56289387 C122.92090694 1029.23679914 121.83226688 1013.91068924 120.74373245 998.58457184 C120.69181938 997.85365971 120.63990631 997.12274759 120.58642011 996.36968661 C118.05941306 960.79035513 115.53472147 925.2108594 113.01025391 889.63134766 C112.13443492 877.28769831 111.25860877 864.94404946 110.38275146 852.60040283 C110.30131524 851.45270329 110.30131524 851.45270329 110.21823385 850.2818179 C107.70461794 814.8569911 105.18961885 779.43226254 102.67420379 744.00756346 C102.5112735 741.71300836 102.34834398 739.4184532 102.18541459 737.12389804 C99.88252348 704.69203382 97.57941948 672.26018471 95.27626851 639.82833894 C94.44050526 628.05952298 93.60475331 616.29070621 92.76900433 604.52188923 C92.45909361 600.15780509 92.14917971 595.79372116 91.8392635 591.42963741 C89.26836049 555.22745289 86.69822026 519.02521435 84.12923323 482.82289382 C84.05641034 481.79666957 84.05641034 481.79666957 83.98211629 480.74971351 C83.88430477 479.37134713 83.78649341 477.99298074 83.68868222 476.61461434 C82.96834553 466.46357929 82.24791001 456.31255125 81.52738523 446.16152954 C81.43425574 444.84948415 81.34112624 443.53743877 81.24517464 442.18563443 C80.78266241 435.66963985 80.32013608 429.15364628 79.85759893 422.63765347 C79.06585775 411.48379344 78.27416464 400.32993003 77.4830406 389.17602621 C77.31569458 386.81680895 77.1483143 384.45759413 76.98089888 382.09838181 C76.57449915 376.37106191 76.16858743 370.64370836 75.76377001 364.9162764 C75.0047001 354.18613796 74.23678708 343.45678341 73.44759321 332.72881603 C73.15328977 328.71151289 72.86017667 324.69412469 72.56800079 320.67666626 C72.49742087 319.70761835 72.42684094 318.73857043 72.35412223 317.74015743 C71.4340703 305.03102669 70.6758134 292.32403289 70.07221094 279.59609964 C69.83690869 274.77083706 69.56892269 269.94726629 69.29989401 265.12378003 C69.10052396 261.48260126 68.92480786 257.84413194 68.81372151 254.1991114 C68.18840622 234.00987475 63.86739039 220.42631382 49.25563601 206.04052562 C44.98482088 202.02807323 40.53950269 198.28344334 35.9887085 194.59417725 C32.04096927 191.32325913 28.28582596 187.84263863 24.50585938 184.38085938 C17.16934917 177.71436165 9.66377475 171.28628948 2 165 C0.67298012 166.18362612 0.67298012 166.18362612 -0.68084824 167.39116389 C-3.99772787 170.24261891 -7.4576425 172.82889226 -10.99248493 175.40409416 C-40.81322681 197.35111933 -65.48979395 221.25836435 -71.7021728 258.98011785 C-74.97550193 280.85452754 -76.10970469 303.03909122 -77.15778453 325.1101419 C-77.60130879 334.27459331 -78.17995915 343.4237166 -78.84797096 352.57439423 C-78.92080767 353.57359446 -78.92080767 353.57359446 -78.99511582 354.59298056 C-79.24341569 357.99167864 -79.49365263 361.39023125 -79.74457241 364.78873678 C-81.541053 389.1739836 -83.07680847 413.56972642 -84.46759415 437.98117256 C-85.84306607 462.10983269 -87.33451683 486.22691726 -88.97683334 510.33894157 C-89.02807643 511.09203615 -89.07931952 511.84513074 -89.13211542 512.62104636 C-89.60032092 519.50112601 -90.06992798 526.38110938 -90.54121268 533.2609788 C-91.71202633 550.35287294 -92.86537324 567.4459215 -94.00681877 584.5398016 C-94.0587731 585.31763852 -94.11072744 586.09547545 -94.16425614 586.89688319 C-96.6809346 624.59833743 -98.99619199 662.31177661 -101.29394531 700.02709961 C-102.08987991 713.08967008 -102.88670108 726.15218556 -103.68719482 739.21447754 C-103.73684698 740.02470887 -103.78649914 740.83494019 -103.8376559 741.66972399 C-106.15241576 779.4223629 -108.61058021 817.16527148 -111.10532232 854.90639411 C-111.26753313 857.36040321 -111.42968192 859.81441639 -111.59181812 862.26843042 C-112.71997473 879.34206265 -113.85104022 896.41550143 -114.98363539 913.48883975 C-117.07806425 945.06226915 -119.15844929 976.63662149 -121.23013697 1008.21155094 C-121.3313321 1009.75385883 -121.43253844 1011.29616599 -121.53375605 1012.83847241 C-124.64423602 1060.23477701 -127.68815785 1107.63498679 -130.66018677 1155.04017639 C-130.70477545 1155.75135359 -130.74936414 1156.4625308 -130.79530399 1157.19525882 C-132.68214356 1187.29365208 -134.55435429 1217.39294821 -136.4165873 1247.49287412 C-136.64106501 1251.12013444 -136.86574612 1254.74738211 -137.09050601 1258.37462496 C-137.23509694 1260.70830907 -137.37968652 1263.04199325 -137.52427471 1265.37567753 C-137.59427585 1266.50535321 -137.664277 1267.6350289 -137.73639939 1268.79893719 C-138.14021991 1275.31933218 -138.5420399 1281.83984632 -138.94211143 1288.36047238 C-139.18374866 1292.2936352 -139.42687516 1296.22670501 -139.67036453 1300.15975356 C-139.7808911 1301.95065249 -139.89075769 1303.74159231 -139.99988671 1305.53257694 C-140.51841644 1314.0394214 -141.0637085 1322.52644769 -142 1331 C-153.45075347 1329.72661069 -164.7071555 1327.901075 -176 1325.625 C-176.84271454 1325.4559314 -177.68542908 1325.28686279 -178.55368042 1325.1126709 C-214.5833723 1317.8342829 -250.07706505 1308.45117976 -285 1297 C-285.67466309 1296.77934875 -286.34932617 1296.55869751 -287.04443359 1296.33135986 C-340.7885398 1278.71659367 -393.35583321 1255.6830762 -442.39111328 1227.48583984 C-445.46618507 1225.73449351 -448.56938659 1224.03986949 -451.67895508 1222.35083008 C-470.15408365 1212.27713885 -487.84562275 1200.93030796 -505.25 1189.125 C-505.88722992 1188.69287201 -506.52445984 1188.26074402 -507.18099976 1187.81552124 C-528.41005256 1173.39089423 -549.05576856 1158.15896264 -569 1142 C-570.28970703 1140.95585937 -570.28970703 1140.95585937 -571.60546875 1139.890625 C-581.50382977 1131.83481603 -591.28201857 1123.65275987 -600.71875 1115.05859375 C-603.46657562 1112.57896344 -606.27862722 1110.18041489 -609.11328125 1107.80078125 C-614.59562783 1102.56814818 -617.60551623 1097.28873597 -620.5625 1090.375 C-620.98378174 1089.39208984 -621.40506348 1088.40917969 -621.83911133 1087.39648438 C-635.93872731 1053.56356867 -644.86685674 1018.41692591 -649 982 C-649.17571533 980.47487793 -649.17571533 980.47487793 -649.35498047 978.91894531 C-652.6659705 948.64281951 -652.12306198 917.26835585 -649 887 C-648.87641113 885.7821582 -648.75282227 884.56431641 -648.62548828 883.30957031 C-640.26519173 803.76008189 -614.87369822 726.41556392 -577.86791992 644.87908936 C-576.96583073 642.92602184 -576.06763838 640.97119418 -575.16992188 639.01611328 C-562.27941436 610.98086335 -548.60102307 583.31989499 -533.19140625 556.57421875 C-530.90275263 552.60128691 -528.66904444 548.6024407 -526.46484375 544.58203125 C-518.0335642 529.20386022 -509.19174319 514.15346946 -499.98974609 499.22851562 C-498.13829569 496.22439537 -496.29624816 493.21474486 -494.45703125 490.203125 C-476.49830918 460.87785559 -456.75491757 432.57228538 -435.32666016 405.67382812 C-433.96165981 403.95162673 -432.61004984 402.21965176 -431.26171875 400.484375 C-426.27543003 394.07431395 -421.18621711 387.78237037 -415.90966797 381.60864258 C-413.25073441 378.49420397 -410.65773135 375.34268386 -408.125 372.125 C-403.70705902 366.55298465 -399.02978862 361.21582765 -394.35546875 355.859375 C-392.21520557 353.40528844 -390.09154487 350.93898956 -387.98828125 348.453125 C-382.16128449 341.57011235 -376.18349007 334.87402231 -369.98266602 328.32421875 C-367.10839141 325.28450305 -364.29110881 322.21273129 -361.546875 319.0546875 C-357.97751798 314.94782147 -354.29069083 310.96264406 -350.5625 307 C-349.90507813 306.29939453 -349.24765625 305.59878906 -348.5703125 304.87695312 C-344.72383416 300.79054594 -340.82200107 296.77729503 -336.81507874 292.84751892 C-335.11041812 291.11239158 -333.53517743 289.32557032 -331.96264648 287.47094727 C-327.25495795 282.0604336 -322.1717218 277.02726266 -317.09765625 271.96484375 C-316.05050864 270.91702054 -315.00350934 269.8690491 -313.95664978 268.82093811 C-311.77390674 266.63673012 -309.58938975 264.45431668 -307.40356445 262.27319336 C-304.62213576 259.49746119 -301.84522224 256.71726218 -299.06963444 253.93569088 C-296.91198979 251.77440797 -294.75193853 249.61554286 -292.59118462 247.45736885 C-291.5671423 246.43398679 -290.54382326 245.40988039 -289.52128792 244.3849926 C-284.38747356 239.24195747 -279.23020908 234.17631209 -273.68858337 229.46839905 C-270.80853044 226.96389317 -268.16576863 224.22835696 -265.5 221.5 C-261.38656768 217.33439385 -257.22256425 213.33129935 -252.7578125 209.5390625 C-250.92072976 207.9305945 -249.21092213 206.24161132 -247.5 204.5 C-245.24202057 202.20673964 -242.94003496 200.03571972 -240.5 197.9375 C-236.39489552 194.40165805 -232.45003203 190.70666283 -228.5 187 C-224.04668987 182.82434256 -219.58037839 178.68658662 -214.953125 174.703125 C-212.43387724 172.50634095 -209.96897004 170.25310381 -207.5 168 C-200.32792855 161.46566404 -192.99688077 155.13204997 -185.62573242 148.82470703 C-181.23599558 145.06638261 -176.86389691 141.28828218 -172.5 137.5 C-157.49232766 124.47718206 -142.41542393 111.53907661 -127 99 C-125.16620121 97.50056908 -123.33287057 96.00056542 -121.5 94.5 C-120.58605469 93.75234375 -119.67210937 93.0046875 -118.73046875 92.234375 C-116.96177205 90.78702949 -115.19351457 89.33914699 -113.42578125 87.890625 C-111.63766866 86.42592291 -109.84855789 84.96243879 -108.05859375 83.5 C-106.44821076 82.18372271 -104.83814612 80.86705019 -103.23095703 79.546875 C-95.0580764 72.83396708 -86.79835201 66.27154436 -78.36791992 59.88476562 C-73.39292677 56.1023336 -68.52041111 52.21198086 -63.6875 48.25 C-58.35881554 43.88620658 -52.96786598 39.65203906 -47.4296875 35.5546875 C-43.8042569 32.86828108 -40.22477317 30.12260327 -36.64111328 27.38085938 C-26.4654081 19.59608655 -16.20716496 11.93391625 -5.86499023 4.37182617 C-4.51809939 3.38109707 -3.19962147 2.35133876 -1.90063477 1.29858398 C-1.27342529 0.87005127 -0.64621582 0.44151855 0 0 Z " fill="#1E2F55" transform="translate(1017,584)"/>
<path d="M0 0 C5.34425427 3.04815968 10.71920518 6.04085157 16.09130859 9.03955078 C18.15668497 10.19661709 20.22178948 11.35416883 22.28662109 12.51220703 C28.51181931 16.00292637 34.73893759 19.49020953 40.96630859 22.97705078 C43.02620715 24.13069175 45.08610298 25.2843376 47.14599609 26.43798828 C51.5465707 28.90236522 55.94769892 31.36575046 60.34912109 33.82861328 C61.47769531 34.46025391 62.60626953 35.09189453 63.76904297 35.74267578 C65.92384932 36.94865793 68.07878915 38.15440162 70.23388672 39.35986328 C75.32475082 42.20940306 80.40699268 45.07184136 85.46630859 47.97705078 C84.24258555 54.43900753 82.80716023 60.78984434 81.07128906 67.13256836 C80.84000809 67.9878714 80.60872711 68.84317444 80.37043762 69.72439575 C79.61193697 72.52450993 78.84820008 75.32315603 78.08349609 78.12158203 C77.68750402 79.57445397 77.68750402 79.57445397 77.28351212 81.05667686 C75.88401593 86.19124531 74.48058507 91.32471842 73.07373047 96.45727539 C71.63904216 101.69414511 70.21720763 106.93440988 68.79852104 112.17563343 C67.69020772 116.26088594 66.57230896 120.34347393 65.45199966 124.42545128 C64.92479044 126.35252377 64.40095658 128.28052369 63.8809166 130.20954323 C58.92189981 148.57910172 52.54102634 166.26772909 44.40380859 183.47705078 C43.85781006 184.64010742 43.31181152 185.80316406 42.74926758 187.00146484 C32.39919151 208.91589332 21.03203916 230.2487878 8.46630859 250.97705078 C7.56960449 252.45915039 7.56960449 252.45915039 6.65478516 253.97119141 C-7.10856522 276.6101101 -22.28475197 298.06328009 -38.53369141 318.97705078 C-39.5430576 320.28675274 -40.55219287 321.59663272 -41.56103516 322.90673828 C-50.81902636 334.87223985 -60.72283674 346.23513571 -71.01643372 357.31674194 C-72.12279245 358.52741116 -73.21490906 359.7511406 -74.29838562 360.98233032 C-80.401747 367.89047028 -86.84517977 374.40754627 -93.38306046 380.90158463 C-95.33725428 382.84281005 -97.28812739 384.78732144 -99.23825073 386.7326355 C-103.37556363 390.85862371 -107.51682401 394.98063527 -111.65869141 399.10205078 C-116.47135587 403.89099517 -121.28232291 408.68162031 -126.089077 413.47649765 C-127.99849224 415.37949616 -129.9109238 417.2794259 -131.82351685 419.17922974 C-137.11396958 424.44760612 -142.3340151 429.70564468 -147.17697144 435.39547729 C-148.98796454 437.50661205 -150.92552147 439.46557343 -152.90869141 441.41455078 C-153.66666016 442.16478516 -154.42462891 442.91501953 -155.20556641 443.68798828 C-156.75764974 445.21402995 -158.30973307 446.74007161 -159.86181641 448.26611328 C-164.08139625 452.44263619 -168.10948921 456.69716113 -171.97900391 461.19970703 C-174.78182729 464.40393979 -177.86084354 467.32190944 -180.90869141 470.28955078 C-183.60952682 473.0546918 -186.12889724 475.92963274 -188.65966797 478.84912109 C-191.81828167 482.43568662 -195.11802149 485.88704073 -198.40869141 489.35205078 C-204.20715611 495.48531056 -209.92542248 501.66911478 -215.53369141 507.97705078 C-217.03267229 509.64463409 -218.53269597 511.31128055 -220.03369141 512.97705078 C-221.14744141 514.21648437 -221.14744141 514.21648437 -222.28369141 515.48095703 C-223.7785183 517.13928061 -225.27849721 518.7929752 -226.78369141 520.44189453 C-230.61714824 524.65470386 -234.33305687 528.91750047 -237.90869141 533.35205078 C-241.15321658 537.36531362 -244.52116324 541.20120463 -248.03369141 544.97705078 C-252.2471563 549.51044302 -256.21662436 554.18655317 -260.09619141 559.00830078 C-262.96294656 562.49986155 -265.93129325 565.89245233 -268.90869141 569.28955078 C-273.62330425 574.68207734 -278.1315323 580.18942583 -282.51416016 585.85400391 C-285.54494435 589.75888383 -288.68384302 593.5439663 -291.90869141 597.28955078 C-296.70468891 602.87728762 -301.18669299 608.67205177 -305.62915039 614.54321289 C-309.16640357 619.21205303 -312.78197594 623.80269372 -316.47119141 628.35205078 C-322.82448701 636.21883605 -328.78501248 644.36062432 -334.74267578 652.52880859 C-336.5237098 654.96340635 -338.31560314 657.38957268 -340.11181641 659.81298828 C-340.70623535 660.61575195 -341.3006543 661.41851563 -341.91308594 662.24560547 C-343.01186686 663.72888288 -344.11165754 665.21141333 -345.21289062 666.69287109 C-355.16136126 680.15238565 -364.62188221 693.94317804 -373.88818359 707.87841797 C-375.52959992 710.34590019 -377.17593004 712.81005027 -378.82275391 715.27392578 C-388.37482639 729.59546034 -397.7185592 744.06279281 -406.53369141 758.85205078 C-407.02168213 759.66899414 -407.50967285 760.4859375 -408.01245117 761.32763672 C-452.37253414 835.88836526 -489.03510361 915.77198542 -505.84619141 1012.16455078 C-505.99338623 1013.14020996 -506.14058105 1014.11586914 -506.29223633 1015.12109375 C-506.75452994 1018.40232345 -507.15537248 1021.68500482 -507.53369141 1024.97705078 C-507.62049164 1025.72835266 -507.70729187 1026.47965454 -507.79672241 1027.25372314 C-509.39952801 1041.547176 -509.81962465 1055.70817224 -509.73950195 1070.08447266 C-509.72105748 1073.50186552 -509.7189946 1076.91898785 -509.71923828 1080.33642578 C-509.70114963 1091.25603886 -509.5990426 1102.10041578 -508.53369141 1112.97705078 C-509.19369141 1112.97705078 -509.85369141 1112.97705078 -510.53369141 1112.97705078 C-511.71606445 1111.52197266 -511.71606445 1111.52197266 -513.04541016 1109.44580078 C-513.54790283 1108.66785156 -514.05039551 1107.88990234 -514.56811523 1107.08837891 C-515.11363037 1106.22664063 -515.65914551 1105.36490234 -516.22119141 1104.47705078 C-516.79571045 1103.57921875 -517.37022949 1102.68138672 -517.9621582 1101.75634766 C-519.82687749 1098.83464453 -521.68013387 1095.90584464 -523.53369141 1092.97705078 C-524.74457823 1091.08118508 -525.95551546 1089.18535157 -527.16650391 1087.28955078 C-572.2986496 1016.24709448 -607.71219657 938.33367184 -635.53369141 839.97705078 C-635.72684937 839.25555847 -635.92000732 838.53406616 -636.11901855 837.79071045 C-652.46221008 776.58295405 -662.77839273 713.30299863 -665.53369141 649.97705078 C-665.59492187 648.86475098 -665.65615234 647.75245117 -665.71923828 646.60644531 C-666.81491042 625.33009274 -663.11647854 605.62167796 -658.53369141 584.97705078 C-658.35735168 584.17557617 -658.18101196 583.37410156 -657.99932861 582.54833984 C-639.18818701 497.15737857 -607.94826114 412.14600135 -529.53369141 290.97705078 C-529.10185547 290.39890625 -528.67001953 289.82076172 -528.22509766 289.22509766 C-518.2701197 275.9672999 -507.67742401 263.18718191 -496.90625 250.58789062 C-495.50050573 248.93810394 -494.10442032 247.28050334 -492.70947266 245.62158203 C-482.650744 233.70676838 -472.06609219 222.24764285 -460.87744141 211.38330078 C-458.90730271 209.36062505 -457.07630836 207.29898817 -455.24072266 205.15673828 C-451.64655302 201.01577653 -447.76165272 197.30189181 -443.72119141 193.60205078 C-439.07520188 189.30258534 -434.47890066 184.98428621 -430.03369141 180.47705078 C-426.71212683 177.11686336 -423.30710274 173.94915806 -419.71728516 170.87939453 C-417.52548779 168.9699038 -415.38984276 167.00639256 -413.25927734 165.02905273 C-408.04825706 160.19438392 -402.71156539 155.60714483 -397.17041016 151.14892578 C-394.60949112 149.03948729 -392.16245686 146.8481743 -389.72119141 144.60205078 C-385.37046067 140.64124403 -380.83561244 137.00745795 -376.1875 133.40844727 C-372.21202307 130.32176205 -368.31809201 127.1546538 -364.45629883 123.92700195 C-355.54379574 116.48290155 -346.33577602 109.5421269 -336.93652344 102.72705078 C-334.55148628 100.99001091 -332.17927693 99.23690533 -329.81103516 97.47705078 C-261.74361516 46.90623128 -183.22258371 -8.5423492 -97.53369141 -21.02294922 C-96.84057861 -21.12607422 -96.14746582 -21.22919922 -95.43334961 -21.33544922 C-59.31059578 -26.05022422 -31.10561717 -17.78809786 0 0 Z " fill="#1E2F55" transform="translate(775.53369140625,415.02294921875)"/>
<path d="M0 0 C1.03788666 0.00131424 1.03788666 0.00131424 2.09674072 0.00265503 C63.84703029 0.25783611 121.85332485 30.39794657 172.8984375 62.54101562 C175.4992419 64.17784895 178.10703929 65.80252788 180.71875 67.421875 C201.52911087 80.3750817 221.85092962 94.15417773 241.8125 108.375 C242.57852539 108.91962891 243.34455078 109.46425781 244.13378906 110.02539062 C254.46512237 117.3843378 264.62523901 124.94406135 274.65625 132.70703125 C276.86149288 134.41289848 279.07125328 136.11279766 281.28125 137.8125 C295.91511277 149.09737454 310.13713414 160.84040531 324.11962891 172.92041016 C325.8151829 174.37730527 327.52101026 175.82117479 329.23046875 177.26171875 C336.92257323 183.76020203 344.32689889 190.51205634 351.6328125 197.44140625 C354.81869749 200.462036 358.06176098 203.4130501 361.31640625 206.359375 C368.27727274 212.70000075 374.93144209 219.34281833 381.57788086 226.01000977 C383.63607157 228.07360061 385.6996098 230.13173675 387.76367188 232.18945312 C389.09927934 233.5257209 390.43457684 234.86229857 391.76953125 236.19921875 C392.37384476 236.80150803 392.97815826 237.4037973 393.6007843 238.02433777 C397.29404129 241.737619 400.79847499 245.57033526 404.21528625 249.53967285 C406.79070826 252.49904003 409.49600573 255.33414541 412.1875 258.1875 C416.83889178 263.15818955 421.2640005 268.23721192 425.51953125 273.5546875 C427.64719077 276.17167247 429.83253861 278.7196954 432.04858398 281.26123047 C438.79076382 289.00478873 445.05895735 297.05378355 451.22314453 305.26220703 C452.74383815 307.28372509 454.27460146 309.29715711 455.80859375 311.30859375 C509.58551985 382.05128416 547.55766548 465.00080008 590.41290283 626.40270996 C590.76097354 628.12068105 591.12856079 629.83467519 591.49951172 631.54785156 C592.9427227 638.54332837 593.0406677 645.24862662 592.8125 652.375 C592.79195557 653.02176697 592.77141113 653.66853394 592.75024414 654.3348999 C589.99608228 736.60935972 576.9820435 818.92104888 551.8125 897.375 C551.47702148 898.42207123 551.47702148 898.42207123 551.13476562 899.49029541 C531.98937707 959.11246936 507.79181304 1017.40939682 476.36962891 1071.67089844 C474.83532646 1074.33535969 473.32599416 1077.01240434 471.82421875 1079.6953125 C464.60621381 1092.5547707 456.85889039 1105.01889606 448.8125 1117.375 C448.2978418 1118.16890137 447.78318359 1118.96280273 447.25292969 1119.78076172 C445.86288778 1121.92087574 444.46514285 1124.05562892 443.0625 1126.1875 C442.65628418 1126.80995605 442.25006836 1127.43241211 441.83154297 1128.07373047 C439.04762507 1132.25743747 439.04762507 1132.25743747 436.8125 1133.375 C436.88178711 1132.29677979 436.95107422 1131.21855957 437.02246094 1130.10766602 C437.71618244 1118.83882655 438.05436001 1107.6022546 438.0625 1096.3125 C438.06317474 1095.45360168 438.06384949 1094.59470337 438.06454468 1093.70977783 C437.96722476 1014.65144084 413.93182477 937.29069276 380.24902344 866.40380859 C378.83248705 863.41714128 377.43419591 860.42249613 376.0390625 857.42578125 C370.28689734 845.14099091 364.07046168 833.18554455 357.46191406 821.34130859 C355.69773027 818.16859796 353.95329716 814.98552539 352.2109375 811.80078125 C344.13219947 797.07634077 335.73015586 782.60709672 326.8125 768.375 C326.19826172 767.3938623 325.58402344 766.41272461 324.95117188 765.40185547 C311.05284163 743.28212834 296.44642943 721.58771609 281.22949219 700.35253906 C280.25415126 698.99136375 279.28096603 697.62864203 278.30957031 696.26464844 C269.40679354 683.76490332 260.16045002 671.5442012 250.8125 659.375 C249.86172466 658.13300729 248.91117404 656.89084249 247.9609375 655.6484375 C239.35576856 644.41012015 230.60381777 633.3005233 221.64916992 622.33886719 C218.60397555 618.60439048 215.60196511 614.84267764 212.64868164 611.03515625 C206.82967987 603.53307759 200.68495908 596.36076624 194.42675781 589.22314453 C191.84757359 586.27026725 189.29835194 583.29198296 186.75 580.3125 C186.26112305 579.74176758 185.77224609 579.17103516 185.26855469 578.58300781 C182.74604139 575.63757809 180.22714144 572.68910224 177.7109375 569.73828125 C172.49018039 563.62190277 167.22786757 557.55818794 161.82421875 551.6015625 C159.96515331 549.54395609 158.13321642 547.46653237 156.3125 545.375 C152.95631544 541.52389422 149.54375807 537.72565186 146.12109375 533.93359375 C144.6313072 532.28247667 143.14413123 530.62899856 141.66015625 528.97265625 C136.94782953 523.71496079 132.18374935 518.50824173 127.38867188 513.32617188 C124.07951856 509.74994944 120.78553219 506.16047508 117.5 502.5625 C104.00916906 487.78256302 104.00916906 487.78256302 89.9375 473.5625 C88.20051717 471.77442944 86.60889506 469.96206058 85 468.0625 C78.98974927 461.14238189 72.322245 454.81927342 65.8125 448.375 C50.74382307 433.45787585 50.74382307 433.45787585 45.63378906 427.42333984 C41.06643998 422.28660273 36.06525376 417.52791682 31.1875 412.6875 C30.05705619 411.56208543 28.92684628 410.43643588 27.796875 409.31054688 C25.72067762 407.24244253 23.6431341 405.17571208 21.56396484 403.1105957 C18.97530244 400.53686347 16.39370563 397.95620563 13.8125 395.375 C12.5658225 394.13859819 11.31846997 392.9028765 10.0703125 391.66796875 C8.69265605 390.2995318 7.31505306 388.93104103 5.9375 387.5625 C4.91462891 386.55219727 4.91462891 386.55219727 3.87109375 385.52148438 C-0.69672535 380.9754168 -4.99926258 376.27136609 -9.1875 371.375 C-10.13762784 370.28090859 -11.0881283 369.18714063 -12.0390625 368.09375 C-24.77586312 353.34623434 -36.81388963 338.20120431 -48.1875 322.375 C-48.7664502 321.57046387 -49.34540039 320.76592773 -49.94189453 319.93701172 C-62.12035277 302.94563222 -73.48000167 285.38788267 -84.03613281 267.34228516 C-84.83922305 265.9700839 -85.64616913 264.60013518 -86.45605469 263.23193359 C-98.92267856 242.13075089 -110.45962906 220.29664008 -120.375 197.875 C-120.98807007 196.49199707 -120.98807007 196.49199707 -121.61352539 195.08105469 C-127.95664122 180.35966891 -132.53253001 165.17580568 -136.69921875 149.7265625 C-137.19856838 147.89375977 -137.69848364 146.06111107 -138.19892883 144.22860718 C-139.50039583 139.4571345 -140.79433086 134.68365277 -142.08654785 129.90966797 C-143.40009286 125.06222119 -144.72086163 120.21674396 -146.04101562 115.37109375 C-147.52764766 109.91206156 -149.01345791 104.4528113 -150.49479675 98.99234009 C-150.71902722 98.16579107 -150.94325769 97.33924206 -151.17428303 96.4876461 C-151.60446015 94.9002151 -152.03398301 93.31260663 -152.46277905 91.72480202 C-153.34900746 88.44591407 -154.24512555 85.171557 -155.17080688 81.90350342 C-155.44677704 80.92778381 -155.72274719 79.95206421 -156.00708008 78.94677734 C-156.2393782 78.14235199 -156.47167633 77.33792664 -156.71101379 76.50912476 C-157.1875 74.375 -157.1875 74.375 -157.1875 70.375 C-138.4375 59.875 -119.6875 49.375 -100.9375 38.875 C-99.90544434 38.2970166 -98.87338867 37.7190332 -97.81005859 37.12353516 C-95.73497437 35.96155289 -93.65977975 34.79976775 -91.58447266 33.63818359 C-86.24898716 30.65148527 -80.9156951 27.66097185 -75.5859375 24.6640625 C-70.35955118 21.72584725 -65.12569505 18.80134338 -59.88720703 15.88476562 C-57.50992575 14.55531116 -55.14248244 13.21025113 -52.77734375 11.859375 C-36.19366214 2.51130171 -18.83679216 -0.0265177 0 0 Z " fill="#1E2F55" transform="translate(1333.1875,392.625)"/>
<path d="M0 0 C3.92231785 0.00461059 7.84432396 -0.00223799 11.76660156 -0.02050781 C47.98960798 -0.18732437 84.10356732 1.32914935 120.1003418 5.56567383 C121.44109268 5.7190773 121.44109268 5.7190773 122.80892944 5.87557983 C213.23283439 16.26220872 302.22910615 38.48160032 584.6003418 179.31567383 C585.31496582 179.81276855 586.02958984 180.30986328 586.76586914 180.82202148 C608.10221935 195.68450091 628.66463425 211.39712151 648.79614258 227.84350586 C650.38307226 229.13838894 651.97382916 230.42857861 653.56518555 231.71801758 C664.02947774 240.21545309 674.23778246 248.98849983 684.1706543 258.10083008 C686.20549595 259.955742 688.26355427 261.76996181 690.3503418 263.56567383 C703.5471294 275.0878757 715.92427651 287.48105071 728.29174805 299.87670898 C730.64974993 302.23922026 733.01102483 304.59834895 735.37424469 306.95563316 C737.67080419 309.24768403 739.96352325 311.54356878 742.2565918 313.83911133 C743.09210571 314.67260101 743.92761963 315.5060907 744.78845215 316.36483765 C749.05273834 320.64609726 753.17351915 324.99309007 757.1053772 329.58259583 C759.48258838 332.33844196 761.98573168 334.97429387 764.4753418 337.62817383 C769.01382703 342.50152932 773.29382977 347.5187136 777.46362305 352.71411133 C779.55916673 355.26554112 781.73997334 357.69894156 783.9753418 360.12817383 C787.9578946 364.50346973 791.6185225 369.06296649 795.24145508 373.734375 C798.18809725 377.53079598 801.18828128 381.27376819 804.24194336 384.98461914 C811.72073001 394.07994984 818.82548089 403.43045802 825.81860352 412.90307617 C826.93416423 414.41362303 828.05253485 415.92210327 829.17504883 417.42749023 C859.69308483 458.37460302 886.46377446 502.62760978 909.83862305 547.98364258 C911.49229881 551.19178489 913.16602326 554.38485108 914.89331055 557.55395508 C952.34295317 626.33296645 977.71648623 702.86728295 1019.8503418 918.44067383 C1019.9275647 919.20817963 1020.0047876 919.97568542 1020.08435059 920.76644897 C1020.66387977 926.61077179 1021.14947483 932.460115 1021.6003418 938.31567383 C1021.73114639 939.97397217 1021.73114639 939.97397217 1021.86459351 941.66577148 C1023.6346524 964.79781134 1023.94508661 987.87437742 1023.91601562 1011.06713867 C1023.91140709 1015.04479349 1023.91824403 1019.02214077 1023.93652344 1022.99975586 C1024.10187173 1059.38623497 1022.60605224 1095.6558806 1018.3503418 1131.81567383 C1018.24807281 1132.70950775 1018.14580383 1133.60334167 1018.04043579 1134.52426147 C1010.2156895 1202.64493112 995.81291735 1269.93443034 974.33874512 1335.07366943 C973.62945459 1337.22727903 972.92615139 1339.38275352 972.22436523 1341.53881836 C961.74159544 1373.64349057 949.44490888 1405.22959707 935.20678711 1435.85424805 C933.83251857 1438.81539991 932.4730408 1441.78276126 931.12101746 1444.75411987 C918.58853784 1472.27395799 904.8534208 1499.19949054 889.6003418 1525.31567383 C888.97804688 1526.38479004 888.35575195 1527.45390625 887.71459961 1528.55541992 C873.58832234 1552.77338715 858.52681469 1576.24131977 842.6003418 1599.31567383 C841.77687256 1600.51232666 841.77687256 1600.51232666 840.93676758 1601.7331543 C833.10640588 1613.0850407 824.80560844 1624.05722974 816.39379883 1634.9831543 C814.86141488 1636.97612956 813.33580613 1638.9738783 811.81518555 1640.97583008 C802.25363413 1653.5224512 792.23469149 1665.7017388 781.98608398 1677.69165039 C780.54305088 1679.38281604 779.10659363 1681.07942002 777.6706543 1682.77661133 C771.31335482 1690.26943887 764.77086672 1697.55390852 758.06616211 1704.73657227 C756.60668444 1706.30884102 755.15994006 1707.89180628 753.7175293 1709.47973633 C748.81742873 1714.87348794 743.82633524 1720.13166971 738.63549805 1725.24926758 C736.76388856 1727.1496158 735.01716389 1729.09882477 733.2878418 1731.12817383 C726.70230135 1738.78577899 719.41627203 1745.87213313 711.7253418 1752.40942383 C708.9063854 1754.93819353 706.26116995 1757.62232627 703.6003418 1760.31567383 C699.75881329 1764.19939734 695.87661413 1767.9412216 691.71362305 1771.48364258 C689.54396927 1773.36454391 687.4358112 1775.30480246 685.33154297 1777.25830078 C680.22315371 1781.99828493 675.00109475 1786.50759674 669.5690918 1790.87817383 C666.07751535 1793.74494186 662.68524633 1796.71360701 659.2878418 1799.69067383 C652.8580117 1805.30217666 646.25850871 1810.63327271 639.50170898 1815.84399414 C637.45681689 1817.42676373 635.4224986 1819.02246907 633.3894043 1820.62036133 C612.06465731 1837.35317163 590.1015164 1853.24751864 567.43237305 1868.11352539 C566.2068071 1868.91772139 564.98285495 1869.72438195 563.76049805 1870.53344727 C489.5737367 1919.61855495 408.47694738 1958.0095679 83.83862305 2033.55395508 C83.0683075 2033.61720474 82.29799194 2033.68045441 81.5043335 2033.74562073 C78.87058963 2033.95228436 76.23617771 2034.13750103 73.6003418 2034.31567383 C71.69072159 2034.44560226 71.69072159 2034.44560226 69.74252319 2034.57815552 C57.5690597 2035.35631142 45.42077594 2035.49601679 33.2253418 2035.51879883 C32.1799826 2035.52162621 31.13462341 2035.52445358 30.05758667 2035.52736664 C24.50429038 2035.54225697 18.9510193 2035.55154539 13.39770508 2035.5559082 C8.90901382 2035.56025311 4.42051908 2035.5740037 -0.06811523 2035.59692383 C-28.62797961 2035.73968398 -56.90301931 2035.06898576 -85.35512543 2032.50016022 C-87.2218107 2032.33172172 -89.08894279 2032.16825389 -90.95611572 2032.00531006 C-97.13503406 2031.46128235 -103.29984842 2030.83498528 -109.4621582 2030.12817383 C-110.35670715 2030.02751617 -111.2512561 2029.92685852 -112.1729126 2029.82315063 C-176.53004594 2022.51164262 -240.61865159 2008.96824185 -302.24505615 1989.01171875 C-304.42797127 1988.30652728 -306.61298683 1987.60820776 -308.79858398 1986.91137695 C-343.79278246 1975.73130477 -377.96971682 1962.54476264 -411.3996582 1947.31567383 C-412.35585052 1946.88061523 -412.35585052 1946.88061523 -413.33135986 1946.43676758 C-500.26726502 1906.83357611 -580.95026653 1855.720368 -653.69506836 1793.76586914 C-655.4208515 1792.29764344 -657.15040093 1790.8339385 -658.88012695 1789.37036133 C-666.36728192 1783.0161106 -673.64695676 1776.4775927 -680.82495117 1769.77709961 C-682.3837438 1768.33044338 -683.95352519 1766.89695479 -685.52856445 1765.46801758 C-691.20628489 1760.31521167 -696.71411074 1755.03861681 -702.1027832 1749.58129883 C-704.14236618 1747.56946528 -706.22426239 1745.67781265 -708.3996582 1743.81567383 C-715.28238013 1737.90626612 -721.5363791 1731.40207164 -727.4230957 1724.51098633 C-729.97929097 1721.67189198 -732.68255412 1718.99988117 -735.3996582 1716.31567383 C-739.28338884 1712.4741512 -743.02520614 1708.59194596 -746.56762695 1704.42895508 C-748.44886703 1702.25891055 -750.38953033 1700.15041032 -752.34326172 1698.0456543 C-757.17992798 1692.833637 -761.7682673 1687.49515969 -766.2277832 1681.95239258 C-768.3372217 1679.39147355 -770.52853469 1676.94443928 -772.7746582 1674.50317383 C-776.75649407 1670.12866557 -780.41707903 1665.57038308 -784.03857422 1660.89916992 C-787.00011304 1657.08252815 -790.0192565 1653.32355666 -793.09204102 1649.59594727 C-800.13608411 1641.04034338 -806.77823017 1632.22602117 -813.2746582 1623.24902344 C-814.93552163 1620.95636787 -816.6032542 1618.66923086 -818.2746582 1616.38427734 C-826.2602978 1605.43626011 -833.90922518 1594.29470558 -841.3996582 1583.00317383 C-841.96681549 1582.14994537 -842.53397278 1581.29671692 -843.11831665 1580.41763306 C-851.45810381 1567.86506198 -859.73714445 1555.29710676 -867.3996582 1542.31567383 C-867.98183105 1541.32954102 -868.56400391 1540.3434082 -869.16381836 1539.32739258 C-878.26248177 1523.8471426 -886.9842209 1508.17679585 -895.3996582 1492.31567383 C-895.95476074 1491.2739502 -896.50986328 1490.23222656 -897.08178711 1489.15893555 C-936.29826405 1415.36665402 -964.65764188 1336.5944757 -1006.1496582 1131.81567383 C-1006.24475677 1131.00764313 -1006.33985535 1130.19961243 -1006.43783569 1129.36709595 C-1010.50038358 1094.40107706 -1011.91666829 1059.26424201 -1011.79077148 1024.08618164 C-1011.77368139 1019.27755842 -1011.78388485 1014.46943399 -1011.80109406 1009.66082764 C-1011.90755923 974.44814661 -1010.15213996 939.31240547 -1006.1496582 904.31567383 C-1006.04705688 903.39683411 -1005.94445557 902.47799438 -1005.83874512 901.53131104 C-995.37855401 808.37428773 -972.0541914 716.25136769 -920.3996582 594.31567383 C-920.09930664 593.66254211 -919.79895508 593.0094104 -919.48950195 592.33648682 C-906.92058905 565.02469626 -893.45526469 538.35453476 -878.3996582 512.31567383 C-878.06840942 511.74167847 -877.73716064 511.16768311 -877.39587402 510.57629395 C-869.20323499 496.38139236 -861.01172575 482.19807527 -851.90161133 468.56567383 C-850.14657417 465.93654145 -848.4062035 463.29792414 -846.6652832 460.65942383 C-827.08753614 431.05902847 -806.31631205 402.59290814 -783.86743164 375.11547852 C-782.58469688 373.54257089 -781.30806407 371.96469099 -780.0324707 370.38598633 C-770.85087766 359.05193192 -761.19818527 348.11777443 -751.3996582 337.31567383 C-749.96191119 335.71172854 -748.52441743 334.10755622 -747.0871582 332.50317383 C-745.52534075 330.77339065 -743.96274579 329.04430936 -742.3996582 327.31567383 C-741.62307861 326.45224365 -740.84649902 325.58881348 -740.04638672 324.69921875 C-731.1320665 314.90705416 -721.78973258 305.55369969 -712.41674805 296.20239258 C-709.63775147 293.42879021 -706.86418538 290.64983702 -704.09106445 287.87036133 C-702.30362483 286.08358202 -700.5158753 284.29711267 -698.7277832 282.51098633 C-697.90989319 281.69107208 -697.09200317 280.87115784 -696.24932861 280.02639771 C-692.010568 275.80473372 -687.70371223 271.72916848 -683.15931702 267.83721924 C-680.21877551 265.29458575 -677.41432366 262.60778023 -674.5871582 259.94067383 C-669.54054876 255.21371007 -664.36631672 250.7405824 -658.96606445 246.41723633 C-656.42406457 244.33565956 -654.00436485 242.16529003 -651.5871582 239.94067383 C-647.21728502 235.96305697 -642.66356284 232.30690789 -637.99853516 228.68774414 C-633.36572328 225.09101443 -628.8121432 221.40669894 -624.2746582 217.69067383 C-612.70829387 208.25423325 -600.63752732 199.54591897 -588.51733398 190.84106445 C-586.70059141 189.53244011 -584.89020607 188.21587854 -583.08325195 186.89379883 C-545.38861035 159.53098015 -505.10862174 135.40155758 -463.73168945 114.07739258 C-460.52354714 112.42371682 -457.33048096 110.74999237 -454.16137695 109.02270508 C-382.98866029 70.26970834 -303.38249368 44.10182531 0 0 Z M-306.3996582 73.31567383 C-307.43830017 73.65758759 -307.43830017 73.65758759 -308.4979248 74.00640869 C-345.3692983 86.17713326 -381.25368951 100.81741982 -416.3996582 117.31567383 C-417.40319336 117.78585938 -418.40672852 118.25604492 -419.44067383 118.74047852 C-468.66360783 141.87933069 -515.84468046 169.10267938 -560.3996582 200.31567383 C-561.31932373 200.95980225 -561.31932373 200.95980225 -562.25756836 201.61694336 C-566.33130495 204.48045723 -570.37258043 207.38698464 -574.3996582 210.31567383 C-575.11057617 210.83210449 -575.82149414 211.34853516 -576.55395508 211.88061523 C-592.18250452 223.25679173 -607.50478201 234.99291127 -622.3996582 247.31567383 C-623.25172852 248.00532227 -624.10379883 248.6949707 -624.98168945 249.40551758 C-636.43439804 258.67835484 -647.48663866 268.41653279 -658.3996582 278.31567383 C-660.00360349 279.75342084 -661.60777581 281.1909146 -663.2121582 282.62817383 C-664.94207753 284.18984048 -666.67113796 285.75245874 -668.3996582 287.31567383 C-669.71220581 288.49794556 -669.71220581 288.49794556 -671.05126953 289.70410156 C-680.52979547 298.3408289 -689.60328714 307.36677942 -698.65844727 316.4440918 C-701.28719229 319.07823365 -703.92128998 321.70693887 -706.5559082 324.33520508 C-708.25154169 326.03149886 -709.94686524 327.72810253 -711.6418457 329.42504883 C-712.80609573 330.58626251 -712.80609573 330.58626251 -713.99386597 331.77093506 C-718.11533949 335.91000466 -722.08037079 340.12833358 -725.88409424 344.56199646 C-728.27019476 347.3229822 -730.7783968 349.96720371 -733.2746582 352.62817383 C-737.80992364 357.49807195 -742.08646371 362.51221907 -746.25512695 367.70239258 C-748.39840776 370.31415006 -750.6234615 372.81932684 -752.8996582 375.31567383 C-757.60389208 380.49114357 -762.01681307 385.86711273 -766.3996582 391.31567383 C-767.30176482 392.42524166 -768.20411904 393.53460823 -769.10668945 394.64379883 C-776.83155231 404.17607731 -784.21609166 413.94874028 -791.52807617 423.80004883 C-793.31147085 426.19713972 -795.10606307 428.5854021 -796.90356445 430.97192383 C-805.60398473 442.57906981 -813.68123268 454.55276294 -821.65161133 466.67016602 C-823.11026608 468.87770553 -824.58250215 471.07389938 -826.0715332 473.26098633 C-870.1896503 538.11116463 -904.47199794 610.11733893 -971.30200195 1203.61645508 C-963.0268911 1246.583618 -952.08813664 1288.75823859 -938.3996582 1330.31567383 C-938.16525024 1331.0311438 -937.93084229 1331.74661377 -937.68933105 1332.48376465 C-922.71321047 1378.18997376 -903.90105041 1422.31288942 -882.3996582 1465.31567383 C-881.89438599 1466.32621826 -881.89438599 1466.32621826 -881.37890625 1467.35717773 C-872.79102732 1484.50005547 -863.78040493 1501.29325706 -853.92797852 1517.7512207 C-852.53352369 1520.09105352 -851.16010037 1522.44122236 -849.7980957 1524.80004883 C-821.71967136 1573.3664539 -788.20903357 1619.07940855 -751.78540039 1661.69165039 C-750.34236729 1663.38281604 -748.90591003 1665.07942002 -747.4699707 1666.77661133 C-741.53802542 1673.76776353 -735.45756251 1680.58722717 -729.2043457 1687.29223633 C-726.70695415 1689.97224013 -724.26719282 1692.69931805 -721.8371582 1695.44067383 C-718.59789576 1699.06206342 -715.23011497 1702.52682789 -711.7746582 1705.94067383 C-708.67804915 1709.00292383 -705.66750843 1712.06832898 -702.8371582 1715.37817383 C-696.95543841 1722.24487062 -690.46276037 1728.47229505 -683.5949707 1734.33911133 C-680.75587636 1736.89530659 -678.08386555 1739.59856974 -675.3996582 1742.31567383 C-671.55813557 1746.19940446 -667.67593034 1749.94122176 -663.51293945 1753.48364258 C-661.34328567 1755.36454391 -659.23512761 1757.30480246 -657.13085938 1759.25830078 C-652.02247012 1763.99828493 -646.80041116 1768.50759674 -641.3684082 1772.87817383 C-637.87683176 1775.74494186 -634.48456274 1778.71360701 -631.0871582 1781.69067383 C-624.65881308 1787.30088068 -618.06084609 1792.63035465 -611.30541992 1797.83959961 C-609.24638535 1799.43438862 -607.19936931 1801.04379674 -605.15356445 1802.65551758 C-595.46466821 1810.27231413 -585.61992829 1817.6256654 -575.57592773 1824.76733398 C-573.49106423 1826.25064163 -571.411783 1827.74148033 -569.33325195 1829.23364258 C-544.18652834 1847.21338286 -518.13866606 1863.81694404 -491.3996582 1879.31567383 C-490.48200684 1879.84805664 -489.56435547 1880.38043945 -488.61889648 1880.92895508 C-474.25025463 1889.23341885 -459.64246098 1897.02131872 -444.85571289 1904.55395508 C-442.5755039 1905.71628823 -440.29745386 1906.88286774 -438.02172852 1908.05395508 C-360.9926965 1947.6752743 -277.48242567 1975.75831889 -185.3996582 1994.31567383 C-184.6727478 1994.46135803 -183.9458374 1994.60704224 -183.19689941 1994.75714111 C-144.31359189 2002.54388472 -104.91613326 2007.24049229 -65.3996582 2010.31567383 C-64.26530334 2010.40655273 -64.26530334 2010.40655273 -63.10803223 2010.49926758 C-16.66992289 2014.20710664 31.17094773 2014.03536747 77.6003418 2010.31567383 C78.41200806 2010.25250977 79.22367432 2010.1893457 80.05993652 2010.12426758 C165.86411181 2003.43918551 249.8595605 1986.09583472 418.6003418 1923.31567383 C419.58324188 1922.86354523 419.58324188 1922.86354523 420.58599854 1922.40228271 C480.37447281 1894.88490627 537.32661408 1861.90827354 590.40698242 1822.92358398 C592.72091669 1821.22728266 595.04304917 1819.54261702 597.3659668 1817.85864258 C607.13055099 1810.75418419 616.61146771 1803.38787083 625.91967773 1795.6965332 C628.1872289 1793.83347838 630.48615527 1792.01130047 632.7878418 1790.19067383 C637.17409285 1786.69492005 641.45332571 1783.08179808 645.72094727 1779.44311523 C649.07271045 1776.5896534 652.47061278 1773.81015372 655.9128418 1771.06567383 C661.44482552 1766.57195098 666.60729019 1761.71708106 671.76757812 1756.80688477 C675.71131713 1753.05737702 679.73361478 1749.43114433 683.84375 1745.86499023 C685.851023 1744.09457266 687.74151053 1742.24089193 689.6003418 1740.31567383 C692.00416446 1737.82600035 694.50107519 1735.52896076 697.12768555 1733.28051758 C702.19115528 1728.88060975 706.91554477 1724.15074674 711.64599609 1719.40039062 C713.16026759 1717.88075715 714.6798161 1716.36654865 716.19995117 1714.8527832 C721.01185969 1710.04382033 725.73051492 1705.19710494 730.12939453 1700.00097656 C731.7120438 1698.18769392 733.38221684 1696.50043958 735.1003418 1694.81567383 C738.11447762 1691.8483206 740.89951512 1688.7422209 743.65893555 1685.53833008 C745.88838241 1682.985905 748.18035561 1680.49679869 750.4753418 1678.00317383 C754.52555471 1673.56316599 758.35568301 1668.99633102 762.12768555 1664.31958008 C765.00917813 1660.81899905 767.98778742 1657.41310057 770.9753418 1654.00317383 C776.58549226 1647.57477505 781.91501913 1640.97686624 787.12426758 1634.22143555 C788.71905659 1632.16240097 790.32846471 1630.11538493 791.94018555 1628.06958008 C800.10897077 1617.67904917 807.95436833 1607.09572593 815.6003418 1596.31567383 C816.15689453 1595.53498535 816.71344727 1594.75429687 817.28686523 1593.94995117 C826.76381378 1580.64275845 835.77118906 1567.05974617 844.6003418 1553.31567383 C845.12869629 1552.49744141 845.65705078 1551.67920898 846.20141602 1550.83618164 C870.96374799 1512.44780577 892.74486943 1471.89795295 911.6003418 1430.31567383 C912.11097168 1429.19644531 912.62160156 1428.0772168 913.14770508 1426.92407227 C951.45017223 1342.83347419 976.96324267 1253.65182585 998.6003418 1088.31567383 C998.65254883 1087.59684021 998.70475586 1086.87800659 998.75854492 1086.13739014 C1002.04733781 1040.42037759 1002.08605059 994.02156685 998.6003418 948.31567383 C998.53717773 947.47355347 998.47401367 946.63143311 998.40893555 945.76379395 C991.86805411 859.19731227 974.74673906 773.70685854 921.6003418 628.31567383 C920.83125488 626.52299072 920.83125488 626.52299072 920.04663086 624.6940918 C904.51496217 588.7246873 887.12205097 553.37637516 867.02954102 519.72924805 C865.18792931 516.6192082 863.42456559 513.47162205 861.6628418 510.31567383 C845.82055879 482.59167856 827.62619092 455.94718456 808.6003418 430.31567383 C808.11339844 429.65680176 807.62645508 428.99792969 807.12475586 428.3190918 C796.51817643 413.9852167 785.72145721 399.78231976 774.10424805 386.24926758 C771.76790327 383.51199 769.48886748 380.73824368 767.2253418 377.94067383 C758.3170685 367.0157326 748.97118039 356.48692237 739.33886719 346.19775391 C738.06241983 344.81590688 736.80063153 343.42048145 735.54736328 342.01757812 C726.66380344 332.14254561 717.23939815 322.80209023 707.83837891 313.42333984 C705.39110703 310.9817964 702.94839875 308.53574392 700.50697041 306.08835888 C698.14079688 303.71767365 695.77078933 301.3508366 693.40112305 298.98364258 C692.53634842 298.11684372 691.67157379 297.25004486 690.78059387 296.35697937 C686.41914257 292.01219668 681.99947355 287.80326164 677.32202148 283.79924011 C674.56899273 281.42696339 671.93794742 278.9264545 669.2878418 276.44067383 C664.51623285 272.0010209 659.6186619 267.79908241 654.53393555 263.71801758 C651.05129883 260.86605808 647.67272887 257.90725257 644.2878418 254.94067383 C637.85806536 249.32911463 631.25850418 243.99807145 624.50170898 238.78735352 C622.45681689 237.20458393 620.4224986 235.60887858 618.3894043 234.01098633 C572.69790953 198.15841023 523.83099649 166.65643347 472.6003418 139.31567383 C471.26664551 138.60145264 471.26664551 138.60145264 469.90600586 137.87280273 C422.25696802 112.4307289 372.70619772 91.71390633 321.6003418 74.31567383 C320.96539795 74.09844666 320.3304541 73.88121948 319.67626953 73.65740967 C237.82800857 45.6702927 151.48647596 30.03127969 7.7253418 23.12817383 C6.61126953 23.12877808 5.49719727 23.12938232 4.34936523 23.13000488 C-85.69522187 23.26084654 -175.63352635 35.40477781 -306.3996582 73.31567383 Z " fill="#C3CDD4" transform="translate(1011.399658203125,-0.315673828125)"/>
<path d="M0 0 C0.88176253 0.775309 1.76352507 1.55061799 2.67200768 2.3494212 C5.52162978 4.79849218 8.44036486 7.1355231 11.41314634 9.43330675 C39.85768287 31.45691733 68.07187301 55.04018234 73.08700684 92.41025358 C75.0688221 109.33635469 75.41099824 126.42161783 75.58436103 143.44463611 C75.70720974 154.04236082 76.18042781 164.61803912 76.67714971 175.20382879 C76.93638666 180.73164095 77.18439196 186.2599407 77.42969859 191.78838676 C77.50347481 193.44933567 77.50347481 193.44933567 77.57874146 195.14383909 C77.92448637 203.07447964 78.21233475 211.0059999 78.4715513 218.93990713 C79.49341059 250.06511126 81.19333117 281.0782381 83.50531006 312.13394165 C83.58496297 313.20778569 83.66461588 314.28162972 83.74668251 315.38801449 C84.47605669 325.2153403 85.21336048 335.04205521 85.96191915 344.86793882 C87.15256811 360.50258728 88.29370902 376.14022505 89.40014839 391.7810545 C89.47988049 392.90796813 89.55961259 394.03488176 89.64176082 395.19594429 C90.04688424 400.92549069 90.451177 406.65509532 90.85509472 412.38472683 C91.59290675 422.84559539 92.33767576 433.30596969 93.08176623 443.76639316 C93.50246841 449.68168782 93.92269848 455.59701601 94.34297705 461.51234078 C95.296013 474.92473937 96.24926044 488.33712291 97.20254284 501.74950398 C100.19674467 543.87702569 103.19067264 586.00456684 106.18353081 628.13218403 C106.36780901 630.72608285 106.55208722 633.31998166 106.73636544 635.91388048 C106.92093444 638.51187629 107.1055034 641.1098721 107.29007232 643.70786792 C107.66001514 648.91518998 108.02995854 654.122512 108.39990234 659.32983398 C108.49161187 660.62073987 108.58332139 661.91164575 108.67780999 663.24167 C111.6395348 704.93082564 114.60295144 746.61986078 117.5674054 788.30882242 C120.83031222 834.19493073 124.09172975 880.08114462 127.35127556 925.96749181 C127.70267507 930.91424835 128.05408073 935.86100445 128.40549088 940.80776024 C128.4919615 942.02500671 128.57843213 943.24225318 128.66752307 944.49638591 C130.0548307 964.02500494 131.44352565 983.55352506 132.83272687 1003.08200946 C134.21940892 1022.575577 135.60453553 1042.06925457 136.9880514 1061.56304709 C137.80883456 1073.12727123 138.63080149 1084.69140983 139.45444781 1096.25543041 C140.00340166 1103.96439718 140.55082847 1111.67347138 141.09698956 1119.38263651 C141.40838529 1123.77742348 141.72046223 1128.17215923 142.03439413 1132.56676582 C142.31956354 1136.55892334 142.6027968 1140.55121322 142.884457 1144.54361982 C142.98625677 1145.98168524 143.08877359 1147.41970012 143.19207949 1148.85765814 C143.3319216 1150.80561631 143.4689025 1152.75377927 143.60573947 1154.70195085 C143.6824692 1155.78169406 143.75919892 1156.86143727 143.83825379 1157.97389998 C143.99941263 1160.98901096 144.0285403 1163.98121916 144 1167 C143.26354248 1167.35771484 142.52708496 1167.71542969 141.76831055 1168.08398438 C134.59818486 1171.61115463 127.67882011 1175.41757566 120.8125 1179.5 C112.43109618 1184.43828944 104.00230202 1189.27294654 95.5 1194 C87.31791825 1198.5523744 79.1968568 1203.1924851 71.125 1207.9375 C62.65034881 1212.91733456 54.10599004 1217.75087301 45.5 1222.5 C31.97756879 1229.96250153 18.41518491 1237.46982929 5.32568359 1245.67675781 C3 1247 3 1247 1 1247 C0.49619259 1159.33429259 0.13924438 1071.66707735 -0.0976847 745.10231514 C-0.09765626 743.06735826 -0.09763388 741.03240138 -0.09761363 738.9974445 C-0.09693077 671.09188635 -0.08743463 603.18633046 -0.07373433 535.2807738 C-0.06518472 492.90031106 -0.05898692 450.51984868 -0.05512976 408.13938525 C-0.05493171 405.96390818 -0.05473251 403.78843112 -0.05453308 401.61295405 C-0.05321236 387.18614853 -0.05193787 372.759343 -0.05069422 358.33253747 C-0.04822294 329.66958443 -0.0454815 301.00663142 -0.04255217 272.34367843 C-0.04241293 270.98117419 -0.04227387 269.61866994 -0.04213501 268.2561657 C-0.03301933 178.83744307 -0.01715124 89.41872141 0 0 Z " fill="#C2CCD3" transform="translate(1018,748)"/>
<path d="M0 0 C1.14082031 0.40162354 2.28164063 0.80324707 3.45703125 1.21704102 C38.04935236 13.68087195 68.35686688 31.94692362 95.0625 57.1875 C95.91972656 57.99058594 96.77695312 58.79367188 97.66015625 59.62109375 C104.53648677 66.25767899 110.37883568 73.53060691 116.0625 81.1875 C116.46355957 81.72777832 116.86461914 82.26805664 117.27783203 82.82470703 C123.65827889 91.51850097 128.99587544 100.68555554 134.0625 110.1875 C134.41683105 110.85088379 134.77116211 111.51426758 135.13623047 112.19775391 C141.0625 123.38997669 141.0625 123.38997669 141.0625 128.1875 C140.09578369 128.30230713 139.12906738 128.41711426 138.13305664 128.53540039 C53.87443679 138.61980927 -29.24197224 157.44539047 -187.6015625 220.60546875 C-190.88622298 222.16318244 -194.17703669 223.70725726 -197.46875 225.25 C-210.31580002 231.30485346 -222.8443791 237.7879831 -235.24902344 244.70068359 C-237.92846354 246.18250254 -240.6211135 247.63655589 -243.3203125 249.08203125 C-274.03232196 265.55516352 -303.27267858 284.40235238 -331.9375 304.1875 C-332.73526855 304.73647949 -333.53303711 305.28545898 -334.35498047 305.85107422 C-345.63981106 313.63518183 -356.54296348 321.88878532 -367.40673828 330.24755859 C-369.78223908 332.0684856 -372.16764735 333.87520475 -374.55859375 335.67578125 C-382.51353808 341.67792249 -390.21811017 347.86633431 -397.73046875 354.4140625 C-400.64166057 356.94863465 -403.61984301 359.38967188 -406.625 361.8125 C-411.37014955 365.66444493 -415.89238141 369.71937189 -420.390625 373.85546875 C-422.52691749 375.81155252 -424.68530657 377.72937697 -426.875 379.625 C-431.74455638 383.86495717 -436.49657733 388.23187188 -441.23632812 392.61572266 C-442.37390305 393.66677136 -443.5132397 394.71591639 -444.65429688 395.76318359 C-453.81207307 404.17467692 -462.69850334 412.84377943 -471.5 421.625 C-472.01687378 422.13928558 -472.53374756 422.65357117 -473.06628418 423.18344116 C-478.3766391 428.4727769 -483.61964919 433.77684553 -488.46655273 439.50219727 C-490.04920007 441.31547769 -491.71937498 443.00273907 -493.4375 444.6875 C-496.47344925 447.67622337 -499.28258659 450.80456479 -502.0625 454.03125 C-504.11109094 456.38712958 -506.20953002 458.6925746 -508.3125 461 C-512.18783743 465.29358632 -515.8597131 469.71838002 -519.49609375 474.21484375 C-522.21470803 477.5250285 -525.00871916 480.76211422 -527.8125 484 C-533.75181724 490.89102902 -539.39100857 497.97825247 -544.9375 505.1875 C-545.5464209 505.97576172 -546.1553418 506.76402344 -546.78271484 507.57617188 C-555.79344232 519.25254511 -564.52637165 531.07325441 -572.9375 543.1875 C-575.14054411 546.35789384 -577.34989148 549.5237762 -579.5625 552.6875 C-580.07200195 553.42452148 -580.58150391 554.16154297 -581.10644531 554.92089844 C-581.57920898 555.59668945 -582.05197266 556.27248047 -582.5390625 556.96875 C-582.95494629 557.56751953 -583.37083008 558.16628906 -583.79931641 558.78320312 C-584.9375 560.1875 -584.9375 560.1875 -586.9375 561.1875 C-584.6920459 551.92515496 -581.42943896 543.12048088 -578 534.25 C-577.71471436 533.50828552 -577.42942871 532.76657104 -577.13549805 532.00238037 C-561.23709007 490.71969082 -542.6793762 450.20250804 -520.50341797 411.90478516 C-518.9446186 409.19985266 -517.40846324 406.48327871 -515.87890625 403.76171875 C-499.77766567 375.16282372 -481.53641259 347.51420366 -461.9375 321.1875 C-461.4331543 320.5059082 -460.92880859 319.82431641 -460.40917969 319.12207031 C-448.46892422 302.99251685 -436.0257007 287.2927663 -423.01245117 272.0144043 C-420.19619425 268.70164954 -417.45707607 265.34068134 -414.75 261.9375 C-409.55833508 255.55277743 -403.87004057 249.64526612 -398.1953125 243.69140625 C-395.0576763 240.39746508 -391.99346092 237.04516849 -388.94140625 233.671875 C-382.47154404 226.56417538 -375.68048275 219.7796495 -368.87524414 212.99487305 C-366.73922643 210.86425366 -364.60865882 208.72828777 -362.47851562 206.59179688 C-361.09667493 205.2106165 -359.71452433 203.82974611 -358.33203125 202.44921875 C-357.70786819 201.82303146 -357.08370514 201.19684418 -356.44062805 200.55168152 C-352.67382733 196.80452095 -348.79295021 193.24242974 -344.76513672 189.77702332 C-341.80771464 187.20490857 -338.97554645 184.5016637 -336.125 181.8125 C-331.07839056 177.08553624 -325.90415852 172.61240857 -320.50390625 168.2890625 C-317.96190637 166.20748573 -315.54220665 164.0371162 -313.125 161.8125 C-307.56947258 156.75723335 -301.67988161 152.18327626 -295.74316406 147.59033203 C-293.98520058 146.22455889 -292.23696316 144.84741155 -290.4921875 143.46484375 C-213.96160056 82.83217871 -127.49548251 35.4943334 -35.78466797 2.22851562 C-33.30796813 1.32295499 -30.84153669 0.39609247 -28.37890625 -0.546875 C-26.55166016 -1.23523438 -26.55166016 -1.23523438 -24.6875 -1.9375 C-23.71296875 -2.31132812 -22.7384375 -2.68515625 -21.734375 -3.0703125 C-13.84604854 -5.16358349 -7.41700762 -2.63692636 0 0 Z " fill="#E21937" transform="translate(745.9375,159.8125)"/>
<path d="M0 0 C0.75306427 0.27647369 1.50612854 0.55294739 2.28201294 0.83779907 C4.72949798 1.74022985 7.1715998 2.65621128 9.61328125 3.57421875 C10.45724457 3.88884064 11.30120789 4.20346252 12.17074585 4.52761841 C57.72282266 21.51087145 102.44160137 41.4455698 144.51855469 65.87451172 C147.36850258 67.51684478 150.24401666 69.10883382 153.12475586 70.69628906 C188.84388186 90.45522757 222.66626369 114.32822507 254.92578125 139.26171875 C255.61365723 139.79216797 256.3015332 140.32261719 257.01025391 140.86914062 C264.44664425 146.61379508 271.6974057 152.53881071 278.83984375 158.64453125 C281.6818369 161.06863631 284.5786819 163.41903274 287.48828125 165.76171875 C292.56617564 169.8921343 297.37141978 174.27003643 302.16796875 178.71875 C304.32918673 180.71160114 306.50925094 182.6587966 308.73828125 184.57421875 C321.01781441 195.25759645 332.5657272 206.74032226 344.05371094 218.25927734 C346.44741956 220.65840605 348.84651006 223.05206145 351.24609375 225.4453125 C352.79589407 226.9957728 354.3453846 228.54654284 355.89453125 230.09765625 C356.59880249 230.79990326 357.30307373 231.50215027 358.02868652 232.22567749 C361.97805251 236.19357426 365.75552203 240.25886694 369.40603638 244.50386047 C371.64059989 247.08853507 373.97199159 249.57409171 376.30078125 252.07421875 C380.55063422 256.67350407 384.56154628 261.41259815 388.48828125 266.29296875 C391.35505512 269.7845523 394.3238652 273.17667508 397.30078125 276.57421875 C403.4385021 283.61264593 409.24318087 290.85331775 414.92578125 298.26171875 C415.82901123 299.43395996 415.82901123 299.43395996 416.75048828 300.62988281 C471.66500901 371.94353439 515.71356131 450.22532194 548.11328125 534.19921875 C548.44769226 535.06358551 548.78210327 535.92795227 549.12664795 536.81851196 C550.07913897 539.2859338 551.02523749 541.7556953 551.96875 544.2265625 C552.25357742 544.9649234 552.53840485 545.7032843 552.8318634 546.46401978 C554.18632053 550.03725403 555.32941007 553.48162165 555.92578125 557.26171875 C555.26578125 557.26171875 554.60578125 557.26171875 553.92578125 557.26171875 C552.4026806 555.16706918 550.99962681 553.07012451 549.61328125 550.88671875 C536.44779456 530.66837953 521.6026739 511.61688336 506.31835938 492.97021484 C504.47666059 490.71071132 502.66964049 488.42452497 500.86328125 486.13671875 C493.55084241 476.97302957 485.80332703 468.1559299 477.92578125 459.4765625 C476.12974596 457.48759373 474.36624822 455.47608681 472.61328125 453.44921875 C465.34495086 445.1184642 457.80297495 437.05748571 449.9296875 429.296875 C448.04899918 427.38685821 446.2916562 425.42391284 444.55078125 423.38671875 C438.27066375 416.08662857 431.34300545 409.37968036 424.01953125 403.13671875 C421.38591207 400.77825381 418.90773656 398.27705981 416.42578125 395.76171875 C412.76586446 392.05761661 409.03634329 388.50884106 405.07421875 385.12890625 C402.89371423 383.23384959 400.77195594 381.28219783 398.65478516 379.31689453 C393.54689909 374.57790236 388.32572898 370.06914796 382.89453125 365.69921875 C379.4029548 362.83245072 376.01068578 359.86378557 372.61328125 356.88671875 C366.18493613 351.2765119 359.58696914 345.94703793 352.83154297 340.73779297 C350.7725084 339.14300396 348.72549235 337.53359584 346.6796875 335.921875 C336.99499192 328.30838074 327.15474869 320.95761866 317.11523438 313.81884766 C314.99140511 312.30839013 312.87243506 310.79131638 310.75390625 309.2734375 C269.97315979 280.15947204 226.91595533 254.68979621 182.28369141 231.97216797 C179.2583908 230.4311431 176.23824813 228.8804739 173.21875 227.328125 C97.95433746 188.88747477 15.82142405 162.28773764 -157.15185547 129.69433594 C-157.9462352 129.60803925 -158.74061493 129.52174255 -159.55906677 129.43283081 C-161.04972042 129.27584888 -162.54131976 129.12752206 -164.03382874 128.98928833 C-165.72235827 128.81458186 -167.40089195 128.54743146 -169.07421875 128.26171875 C-169.40421875 127.60171875 -169.73421875 126.94171875 -170.07421875 126.26171875 C-168.82509137 122.65692121 -167.04653043 119.25599898 -165.38671875 115.82421875 C-164.88994629 114.79393555 -164.39317383 113.76365234 -163.88134766 112.70214844 C-156.8833602 98.4872812 -148.63872208 85.10850781 -138.07421875 73.26171875 C-137.30078125 72.39160156 -136.52734375 71.52148438 -135.73046875 70.625 C-134.20402349 68.92301353 -132.6704963 67.22734364 -131.12890625 65.5390625 C-129.36856077 63.58795715 -127.68237552 61.60158331 -126.01171875 59.57421875 C-122.71340663 55.71124994 -118.94707938 52.53284566 -115.07421875 49.26171875 C-114.16027344 48.44832031 -113.24632812 47.63492188 -112.3046875 46.796875 C-86.10457263 23.66273102 -53.12106924 7.86784568 -20.07421875 -2.73828125 C-19.47504639 -2.9585498 -18.87587402 -3.17881836 -18.25854492 -3.40576172 C-11.89939832 -4.37381332 -5.8619489 -2.20885889 0 0 Z " fill="#E21937" transform="translate(1319.07421875,159.73828125)"/>
<path d="M0 0 C3 1 3 1 4.21565247 2.86799622 C4.61088608 3.68733139 5.00611969 4.50666656 5.41333008 5.35083008 C6.09668175 6.74813103 6.09668175 6.74813103 6.7938385 8.17366028 C7.28081711 9.1952977 7.76779572 10.21693512 8.26953125 11.26953125 C8.78281479 12.32536911 9.29609833 13.38120697 9.82493591 14.46903992 C11.49666837 17.91248209 13.15451371 21.36242122 14.8125 24.8125 C15.95103209 27.16330141 17.09068099 29.51356226 18.23144531 31.86328125 C19.92704194 35.35601542 21.62201124 38.84903261 23.3132019 42.34390259 C28.06678561 52.16456792 32.92439154 61.92841104 37.85083008 71.66333008 C47 89.81198097 47 89.81198097 47 93 C48.1974585 93.06469482 49.39491699 93.12938965 50.62866211 93.19604492 C116.76235705 96.82358966 183.48583966 103.37166839 248 119 C244.79257424 122.61224649 241.18944245 124.72977562 236.9453125 126.90625 C236.25618774 127.26744431 235.56706299 127.62863861 234.85705566 128.0007782 C233.38207716 128.77290246 231.90535569 129.54170473 230.42706299 130.3074646 C227.3161268 131.91901978 224.21363641 133.54651954 221.11068726 135.17338562 C219.55969474 135.98645226 218.00828345 136.79872054 216.45645142 137.61018372 C210.47723373 140.73891907 204.53819734 143.93558156 198.625 147.1875 C190.48536309 151.65514941 182.3134135 156.06004711 174.125 160.4375 C165.40332981 165.10059895 156.69215047 169.78200767 148 174.5 C139.57145197 179.0704954 131.13935255 183.63434894 122.69458008 188.17480469 C121.45220786 188.84329087 120.21033489 189.51270584 118.96899414 190.18310547 C117.23721867 191.1181182 115.503412 192.04936584 113.76953125 192.98046875 C112.77542236 193.51567139 111.78131348 194.05087402 110.75708008 194.60229492 C108.20986504 195.89360866 105.65630427 196.95850974 103 198 C108.08009405 217.9666413 113.47840671 237.83742478 118.96261597 257.69598389 C120.40330636 262.91319233 121.83973839 268.13156809 123.27563477 273.35009766 C127.28784168 287.92842488 131.30441667 302.50550664 135.348629 317.07499218 C136.98263245 322.96162319 138.61256514 328.84936962 140.2393074 334.73801136 C141.36017569 338.79388323 142.48740273 342.84791639 143.61944294 346.9006834 C144.46939157 349.95045722 145.31015964 353.00276201 146.15234375 356.0546875 C146.45950821 357.14652847 146.76667267 358.23836945 147.08314514 359.36329651 C147.35340012 360.34926315 147.62365509 361.3352298 147.90209961 362.35107422 C148.13996689 363.20675995 148.37783417 364.06244568 148.62290955 364.94406128 C149 367 149 367 148 369 C137.72732524 361.7270133 127.57658567 354.29668519 117.45556641 346.81445312 C113.47350777 343.87205307 109.48651946 340.93635163 105.5 338 C103.92056484 336.83594846 102.34113777 335.67188595 100.76171875 334.5078125 C97.55736102 332.14656803 94.35147783 329.78741454 91.14453125 327.4296875 C83.08482392 321.50190275 75.04675097 315.54832033 67.05126953 309.53417969 C59.5479322 303.89690914 51.98469459 298.34128721 44.42333984 292.78222656 C41.23554769 290.43778946 38.04987299 288.09048806 34.86474609 285.74243164 C33.29673186 284.58706125 31.72805373 283.43259132 30.15869141 282.27905273 C25.99855881 279.21967411 21.85229373 276.14341781 17.72265625 273.04296875 C16.85898438 272.39779297 15.9953125 271.75261719 15.10546875 271.08789062 C13.44666256 269.84824514 11.79152398 268.60367219 10.140625 267.35351562 C9.39425781 266.79728516 8.64789062 266.24105469 7.87890625 265.66796875 C7.2247876 265.17578857 6.57066895 264.6836084 5.89672852 264.17651367 C3.82393167 262.89078732 2.43819494 262.19983266 0 262 C-2.08927805 263.01777856 -2.08927805 263.01777856 -4.09765625 264.69140625 C-4.88922119 265.29927979 -5.68078613 265.90715332 -6.49633789 266.53344727 C-7.34317139 267.20303467 -8.19000488 267.87262207 -9.0625 268.5625 C-10.87432247 269.95921267 -12.68683886 271.35502558 -14.5 272.75 C-15.41910156 273.46285156 -16.33820313 274.17570312 -17.28515625 274.91015625 C-21.3311657 278.02471028 -25.44309811 281.04608617 -29.5625 284.0625 C-31.13686278 285.21985619 -32.71108132 286.37740861 -34.28515625 287.53515625 C-35.45135498 288.39197998 -35.45135498 288.39197998 -36.64111328 289.26611328 C-40.59679621 292.17371628 -44.54816989 295.08716394 -48.5 298 C-50.08331288 299.16669442 -51.66664621 300.3333611 -53.25 301.5 C-54.425625 302.36625 -54.425625 302.36625 -55.625 303.25 C-70.66666667 314.33333333 -85.70833333 325.41666667 -100.75 336.5 C-101.53439453 337.0779834 -102.31878906 337.6559668 -103.12695312 338.25146484 C-104.70374329 339.41329315 -106.28056599 340.5750773 -107.85742188 341.73681641 C-111.91613927 344.72714107 -115.97421743 347.7183273 -120.03125 350.7109375 C-128.33453329 356.83459881 -136.6414779 362.95181098 -145 369 C-146.45127547 365.13195881 -145.53131244 362.37227603 -144.44311523 358.47167969 C-144.26357929 357.81770738 -144.08404335 357.16373507 -143.89906693 356.48994541 C-143.29478624 354.29792218 -142.67664867 352.1100509 -142.05859375 349.921875 C-141.62289109 348.35181975 -141.18808314 346.78151597 -140.75410461 345.21098328 C-139.81750527 341.82866065 -138.87482814 338.44811343 -137.92736816 335.06881714 C-136.42893211 329.72431059 -134.94332144 324.3762953 -133.45996094 319.02758789 C-131.91094711 313.44471999 -130.36086733 307.86215686 -128.80606079 302.28089905 C-125.0804038 288.90659981 -121.38341614 275.52464345 -117.70703125 262.13671875 C-117.45432905 261.2165736 -117.20162685 260.29642845 -116.94126701 259.34840012 C-115.69542398 254.81159341 -114.45001387 250.27466803 -113.2048645 245.7376709 C-111.09595626 238.05387703 -108.98436292 230.37082194 -106.87148094 222.68811989 C-106.25363715 220.44114632 -105.63623828 218.19405085 -105.01887512 215.94694519 C-104.64509398 214.58758914 -104.27129058 213.2282392 -103.89746094 211.86889648 C-103.41741608 210.12237038 -103.41741608 210.12237038 -102.92767334 208.34056091 C-101.96903681 204.88850124 -100.98845337 201.44362136 -100 198 C-100.87946289 197.72704102 -101.75892578 197.45408203 -102.66503906 197.17285156 C-105.77390094 196.07951536 -108.47187477 194.81003872 -111.359375 193.234375 C-112.88884766 192.40486328 -112.88884766 192.40486328 -114.44921875 191.55859375 C-116.08310547 190.66333984 -116.08310547 190.66333984 -117.75 189.75 C-119.49987384 188.79928114 -121.24975163 187.84856946 -122.99987793 186.89831543 C-124.80995092 185.91476989 -126.61891284 184.92920421 -128.42773438 183.94335938 C-133.94048449 180.94121904 -139.47117523 177.9723959 -145 175 C-147.16675041 173.83348887 -149.33341683 172.66682172 -151.5 171.5 C-152.5725 170.9225 -153.645 170.345 -154.75 169.75 C-172.625 160.125 -172.625 160.125 -190.5 150.5 C-191.57386963 149.9217749 -192.64773926 149.3435498 -193.75415039 148.74780273 C-195.90702429 147.58853803 -198.05985675 146.42919638 -200.21264648 145.26977539 C-205.24439911 142.5599594 -210.27653749 139.85086847 -215.31021118 137.1446228 C-217.08386434 136.19100904 -218.85738189 135.23714354 -220.63085938 134.28320312 C-222.84934108 133.08999583 -225.06807391 131.89725526 -227.28710938 130.70507812 C-233.21698772 127.51497765 -239.12485878 124.28989389 -245 121 C-245 120.34 -245 119.68 -245 119 C-183.63159265 104.86686719 -121.11965478 97.51842617 -58.32080078 93.71386719 C-57.61971695 93.67039154 -56.91863312 93.62691589 -56.19630432 93.5821228 C-54.38118242 93.47067127 -52.56572552 93.36471133 -50.75024414 93.25927734 C-47.91206024 93.09612572 -47.91206024 93.09612572 -45 92 C-43.83243972 90.35383525 -43.83243972 90.35383525 -42.89379883 88.26342773 C-42.50464294 87.46471756 -42.11548706 86.66600739 -41.71453857 85.84309387 C-41.29956116 84.96545883 -40.88458374 84.08782379 -40.45703125 83.18359375 C-39.7955307 81.81668648 -39.7955307 81.81668648 -39.1206665 80.42216492 C-37.67550594 77.4315723 -36.24417751 74.43456733 -34.8125 71.4375 C-33.32097824 68.34334886 -31.82587037 65.25094778 -30.33055115 62.15863037 C-29.32676374 60.08224225 -28.32413372 58.00529422 -27.32264709 55.92779541 C-22.68516809 46.31493363 -17.92354365 36.76723438 -13.11074829 27.24118042 C-8.56331436 18.2382757 -4.22000401 9.15953676 0 0 Z " fill="#C3CDD4" transform="translate(1017,241)"/>
<path d="M0 0 C0 0.99 0 1.98 0 3 C-0.99257812 3.53367188 -1.98515625 4.06734375 -3.0078125 4.6171875 C-29.75641122 19.20462033 -54.4504544 39.72191826 -73 64 C-73.46986328 64.6098877 -73.93972656 65.21977539 -74.42382812 65.84814453 C-92.38807368 89.33587938 -107.4914998 116.16128288 -116.81640625 144.28125 C-117.20699219 145.1784375 -117.59757812 146.075625 -118 147 C-118.99 147.33 -119.98 147.66 -121 148 C-121.33507568 147.49476807 -121.67015137 146.98953613 -122.01538086 146.46899414 C-131.19124 132.64415668 -140.48078259 118.89980742 -149.82666016 105.18945312 C-152.68211617 100.99897039 -155.53343874 96.80568545 -158.38427734 92.61206055 C-159.78917768 90.54556336 -161.19444819 88.47931778 -162.60009766 86.41333008 C-165.89442463 81.57108933 -169.18628535 76.72722843 -172.46908569 71.87716675 C-173.62721024 70.16638968 -174.78614049 68.45616122 -175.9453125 66.74609375 C-177.39613188 64.60525052 -178.84545157 62.46338988 -180.29296875 60.3203125 C-184.05775521 54.7687231 -187.9073875 49.31529373 -192 44 C-200.84094891 56.99484056 -209.67661982 69.99322412 -218.5 83 C-232.55051171 103.71171193 -232.55051171 103.71171193 -238.69580078 112.72460938 C-241.99582617 117.56682639 -245.28424116 122.41593047 -248.53738403 127.28974915 C-250.10153565 129.63178933 -251.67147272 131.96992263 -253.24188232 134.30776978 C-254.35264219 135.96661022 -255.45497716 137.63108209 -256.55712891 139.2956543 C-257.22663574 140.29121338 -257.89614258 141.28677246 -258.5859375 142.3125 C-259.1742334 143.19550781 -259.7625293 144.07851563 -260.36865234 144.98828125 C-262 147 -262 147 -265 148 C-265.24008789 147.36835938 -265.48017578 146.73671875 -265.72753906 146.0859375 C-283.13818516 100.6184365 -308.16041315 57.44471035 -347 27 C-347.97324219 26.20980469 -348.94648437 25.41960937 -349.94921875 24.60546875 C-360.88818605 15.88998038 -372.85432766 8.8900252 -385 2 C-384.67 1.34 -384.34 0.68 -384 0 C-381.38973323 -0.68464748 -378.83957666 -1.2400257 -376.19140625 -1.734375 C-375.37542465 -1.8928894 -374.55944305 -2.05140381 -373.71873474 -2.21472168 C-371.00197674 -2.73761914 -368.28267011 -3.24516905 -365.5625 -3.75 C-364.6243042 -3.92607788 -363.6861084 -4.10215576 -362.71948242 -4.28356934 C-274.47589802 -20.78771041 -184.30486197 -24.67623253 0 0 Z " fill="#E21937" transform="translate(1210,129)"/>
</svg>