<?xml version="1.0" encoding="UTF-8"?>
<svg width="48px" height="39px" viewBox="0 0 48 39" version="1.1" xmlns="http://www.w3.org/2000/svg" xmlns:xlink="http://www.w3.org/1999/xlink">
    <title>Icon Copy</title>
    <g id="Symbols" stroke="none" stroke-width="1" fill="none" fill-rule="evenodd">
        <g id="Gallery-Dt" transform="translate(-1565.000000, -615.000000)" fill="#212126">
            <g id="Counter-and-Arrows" transform="translate(0.000000, 106.000000)">
                <g transform="translate(1492.000000, 509.000000)">
                    <g id="Icon-Copy" transform="translate(73.000000, 0.000000)">
                        <polygon id="Fill-1" points="4 35.799 6.398 35.799 6.398 3.799 4 3.799"></polygon>
                        <polygon id="Fill-2" points="41.602 35.799 44 35.799 44 3.799 41.602 3.799"></polygon>
                        <polygon id="Fill-3" points="45.602 32.6 48 32.6 48 6.998 45.602 6.998"></polygon>
                        <polygon id="Fill-4" points="0 32.6 2.398 32.6 2.398 6.998 0 6.998"></polygon>
                        <path d="M8,38.998 L40,38.998 L40,0.6 L8,0.6 L8,38.998 Z M11,35.998 L37,35.998 L37,3.6 L11,3.6 L11,35.998 Z" id="Fill-5"></path>
                    </g>
                </g>
            </g>
        </g>
    </g>
</svg>