<?xml version="1.0" encoding="utf-8"?>
<!-- Generator: Adobe Illustrator 23.0.1, SVG Export Plug-In . SVG Version: 6.00 Build 0)  -->
<svg version="1.1" id="Layer_1" xmlns="http://www.w3.org/2000/svg" xmlns:xlink="http://www.w3.org/1999/xlink" x="0px" y="0px"
	 viewBox="0 0 282 22.9" style="enable-background:new 0 0 282 22.9;" xml:space="preserve">
<style type="text/css">
	.st0{fill:#FFFFFF;}
</style>
<g>
	<rect x="226.8" y="13.2" class="st0" width="5.3" height="2.5"/>
	<g>
		<path class="st0" d="M2.4,21.2C3.3,20.8,4,21,4,21c1.4,0.6,1.6,0.8,3.2,1.2c2.9,0.7,6.6-1.6,6.6-7.1c0-4.9-4.1-5.7-7.2-7.5
			C4.8,6.7,4.1,5.4,4,4.1C3.9,3.1,4.1,3,4.3,2.6c0.2-0.5,0.9-1.2,1.2-1.4C6,0.8,7.8,0.3,9.4,1.5c2,1.5,2.5,5.6,2.9,6
			c0.1,0.2,0.5,0.3,0.5,0.3l-0.3-7c0,0-0.3,0.1-0.5,0.3c-0.4,0.6,0,0.4-0.5,0.7c-0.2,0.1-0.5,0-1-0.4c-0.6-0.5-1.1-0.8-1.6-1
			C7.5,0.1,7.1,0.1,6.2,0.1c-3,0-5.6,2.5-5.6,6.8c0,5,3.8,5.9,6.9,7.8c1,0.6,2,1.2,2.6,2.9c0.5,1.7-0.2,5-2.8,4.1
			c-1.1-0.3-2-0.9-2.7-1.5c-1.1-0.9-1.7-1.9-1.8-1.9S1.5,16,1.1,14.5C1,14,0.6,13.9,0.6,14.3c-0.1,1.9,0,8.3,0,8.3s0.2,0.1,0.3,0.1
			c0.5,0,0.6-0.7,0.7-0.9C1.6,21.8,1.9,21.3,2.4,21.2z"/>
		<path class="st0" d="M20.5,5.7c3,0.5,2.9,2,3,3.7c0.2,2.8-0.3,4.5-1.6,4.5h-2.2V6.1C19.7,5.4,19.9,5.6,20.5,5.7z M14.4,4.7
			c-0.3,0-0.3,0.7-0.3,0.7c1.8,0,1.7,1.7,1.7,2.8v10.5c0,1.2,0.3,2.9-1.5,2.9l-0.5,0.6h8.5l-0.4-0.6c-2,0-2.3-1.7-2.3-2.9v-4.1h2.1
			c3.9-0.1,5.2-2,5.2-4.5c0-3.9-2.7-5.5-6.9-5.4C20.1,4.7,16.8,4.7,14.4,4.7z"/>
		<path class="st0" d="M33.9,6c2.2,0.3,2.7,3.1,2.7,4.9s-0.9,2.9-2.7,2.8h-1.3V5.8L33.9,6z M37.7,22.2h5.7c0,0,0.3-0.6,0-0.7
			c-1.2-0.5-2.5-1.3-2.6-1.5c-1-1.9-0.8-4.7-3.8-6c-0.2-0.1-0.4-0.3,0.1-0.6c0.8-0.4,3.3-1.6,3.3-3.4c0-1.1,0.1-1.4-0.2-2.6
			c-0.6-2.1-3.5-2.9-6.7-2.9H27c0,0-0.2,0.6,0,0.7c1.9,0.2,1.7,1.8,1.7,2.9v10.5c0,1.1,0.2,2.6-1.4,2.9c-0.4,0.1-0.3,0.7-0.3,0.7
			h7.4c0,0,0-0.6-0.3-0.6c-1.6-0.1-1.7-1.8-1.7-3v-4.5h2.7c0.9,0.3,0.9,1.5,1.1,1.7C37.2,18,37,20.8,37.7,22.2z"/>
		<path class="st0" d="M43.6,22.2h7.7c0,0,0.1-0.6-0.2-0.6c-1.7,0-1.5-2.8-1.5-4V8.2c0-1.1,0.1-3,1.5-3c0.2,0,0.3-0.6,0.3-0.6h-7.5
			c0,0,0,0.6,0.2,0.6c1.4,0,1.5,1.8,1.5,3v9.5c0,1.1-0.2,4-1.8,4C43.6,21.7,43.6,22.2,43.6,22.2z"/>
		<path class="st0" d="M66.1,8.2c0-1.1,0.5-2.9,2.5-3c0.2,0,0.2-0.6,0.2-0.6h-6.4c0,0,0,0.5,0.2,0.6c2.1,0.2,2.9,1.9,2.9,3v7.4
			l-8.9-11c0,0-4.2,0-5.4,0c-1,0,0.9,1.6,1.1,2.2c0.8,0.8,1.4,1.6,1.4,1.7v10.2c0,0.7-1.2,2.8-2.6,2.8c-0.2,0-0.2,0.7-0.2,0.7h6.6
			c0,0,0-0.7-0.2-0.7c-1.2,0-2.9-2.1-2.9-2.8V9.2c0,0,6.8,8.7,11.2,13.3c0.2,0.2,0.6-0.1,0.6-0.1L66.1,8.2L66.1,8.2z"/>
		<path class="st0" d="M81.1,6.1c-0.1,0-0.8-0.5-1.1-0.6c-0.3-0.1-0.7-0.3-0.9-0.4c-0.9-0.4-1.9-0.8-3.6-0.8c-4.3,0-8.2,4-8.2,9.1
			s3.8,9.5,8.2,9.5c0.7,0,1.8-0.2,2.8-0.7c0.9-0.5,1.8-1.2,2.7-1.6c0.7-0.3,1.3,1.4,1.8,0.7c0,0-0.4-2.8,0-4.5c0,0-0.5-0.3,0.8-0.6
			c0.3-0.1,0.4-0.8,0.4-0.8h-6.9c0,0,0.2,0.8,0.4,0.8c1.7,0.1,1.4,1.4,1.4,1.4c0.1,1.8-0.3,4.8-4.1,4.6c-1.4-0.1-2.1-1.4-2.6-3.2
			c-0.5-1.8-0.6-4-0.6-5.8c0-2.1,0.3-4,0.8-5.6s1.5-3,3.9-2.9c1,0,2.4,1.1,3.5,2.7c0.8,1.2,1.3,2.7,1.9,3.9c0.1,0.2,0.6,0.2,0.6,0.2
			s0-3.8,0-7c0-0.2-0.5,0.2-0.5,0.2C81.8,5.2,81.6,5.9,81.1,6.1z"/>
		<path class="st0" d="M90.3,5.4c0.3,0,2.2,0.1,3.6,0.8c0.9,0.5,1.6,0.8,3.2,3.1c0.3,0.4,1,0.8,1,0.8s-1.4-4.7-1.8-5.5H83.1l0.2,0.7
			c1.8,0,1.3,1.8,1.3,2.9v10.5c0,0.6,0.2,2.8-1.3,2.9l-0.2,0.7h8.3l-0.2-0.8c-2,0-2.2-1.5-2.2-2.8v-5.2c2.1,0,3.9,0,4.3,2.7l0.4,0.6
			l-0.3-3.7l0.2-3.5l-0.5,0.5c-0.3,3-1.9,2.9-4.2,2.9V5.4H90.3z"/>
		<path class="st0" d="M98.1,22.2h7.7c0,0,0.1-0.6-0.2-0.6c-1.7,0-1.5-2.8-1.5-4V8.2c0-1.1,0.1-3,1.5-3c0.2,0,0.3-0.6,0.3-0.6h-7.5
			c0,0,0,0.6,0.2,0.6c1.4,0,1.5,1.8,1.5,3v9.5c0,1.1-0.2,4-1.8,4C98,21.7,98.1,22.2,98.1,22.2z"/>
		<path class="st0" d="M112,5.4V13c2.3,0,3.8,0.1,4.1-2.9l0.5-0.6l-0.2,3.6l0.2,3.7l-0.4-0.6c-0.4-2.8-2-2.7-4.1-2.7v7.9v0.2h2
			c3.2,0,4.4-2.2,6-4.7l0.9-0.3l-1.4,5.7h-13.1c0,0-0.1-0.6,0.1-0.7c1.2-0.4,1.3-1.9,1.3-2.9V8.2c0-1-0.2-2.1-1.4-2.9
			c-0.2-0.1,0-0.7,0-0.7h12.3l2,5.5l-1-0.6c-0.6-0.9-1-1.6-1.5-2.2c-1.1-1.4-2.7-2-3.9-2L112,5.4L112,5.4z"/>
		<path class="st0" d="M134.3,22.2c0,0,2.9-7.7,1.2-5.8c-0.4,0.4-0.4,0.8-0.6,1.3c-0.8,1.4-2.3,4.1-4.7,4.1
			c-2.9-0.1-3.1-0.4-3.1-1.5V8.2c0-1.2,0.3-2.6,2-2.9c0.2,0,0.2-0.7,0.2-0.7H121c0,0-0.1,0.7,0.2,0.8c1.5,0.4,1.8,1.6,1.8,2.8v10.5
			c0,1.2-0.1,2.5-1.7,2.8c-0.3,0-0.5,0.7-0.3,0.7C125.8,22.2,134.3,22.2,134.3,22.2z"/>
		<path class="st0" d="M141.8,5.5c0.3,0,1.1-0.1,2,0c3.8,0,4.9,3.7,5,8c0,2.4,0.5,8.3-5.5,8.4c-1.5,0-1.5-0.1-1.5-1.2V5.5z
			 M145.3,22.2c4.6,0,7.6-3.4,7.6-8.8s-3.6-8.8-8-8.8h-9.1c0,0,0.1,0.6,0.3,0.7c1.3,0.2,1.4,1.8,1.4,2.9v10.5c0,1.1,0,2.7-1.5,3
			c-0.1,0-0.2,0.6-0.2,0.6h9.5V22.2z"/>
		<path class="st0" d="M177.7,5.4c0-1.3,0.6-3.5,3-3.6c0.2,0,0.3-0.7,0.3-0.7h-7.7c0,0,0,0.6,0.3,0.7c2.5,0.3,3.5,2.3,3.5,3.6v8.9
			L166.4,1.1c0,0-5,0-6.4,0c-1.2,0,1.1,1.9,1.3,2.6c0.9,1,1.6,1.9,1.6,2.1V18c0,0.8-1.5,3.4-3.1,3.4c-0.3,0-0.3,0.8-0.3,0.8h7.9
			c0,0,0.1-0.8-0.3-0.8c-1.5,0-3.5-2.5-3.5-3.4V6.6c0,0,8.2,10.4,13.5,16c0.2,0.2,0.7-0.1,0.7-0.1L177.7,5.4L177.7,5.4z"/>
		<path class="st0" d="M185.5,5.4V13c2.3,0,3.8,0.1,4.1-2.9l0.5-0.6l-0.2,3.6l0.2,3.7l-0.4-0.6c-0.4-2.8-2-2.7-4.1-2.7v7.9v0.2h2
			c3.2,0,4.4-2.2,6-4.7l0.9-0.3l-1.4,5.7H180c0,0-0.1-0.6,0.1-0.7c1.2-0.4,1.3-1.9,1.3-2.9V8.2c0-1-0.2-2.1-1.4-2.9
			c-0.2-0.1,0-0.7,0-0.7h12.3l2,5.5l-1-0.6c-0.6-0.9-1-1.6-1.5-2.2c-1.1-1.4-2.7-2-3.9-2L185.5,5.4L185.5,5.4L185.5,5.4z"/>
		<path class="st0" d="M198.8,5.9c0.1,0.3-0.3-0.6,0-0.6l0.3-0.3V4.7h-5.7c0,0.6,0.8,0.8,0.8,0.8c1.8,5,3.6,11.4,5.7,17.2h0.3
			l3.6-9.7l3.7,9.7h0.5l4.5-14.6c0.2-0.6,0.4-2.3,1.6-2.6l0.4-0.7h-5.3l0.3,0.6c1.1,0,2.5,1.4,2.5,1.7c0,0.1,0.1,0.4,0,0.6l-2.6,8.4
			l-3.3-8.4c0-0.1-0.2-0.5-0.2-0.6c0-0.2-0.1-1.6,1.4-1.6l0.2-0.6h-7.3l0.3,0.6c0.8,0.5,0.9-0.2,1.7,2.5l1.2,3.8l-1.6,4.4
			c-0.8-2.4-2.5-7.5-2.7-8.3L198.8,5.9z"/>
		<path class="st0" d="M215.6,21.3c0.8-0.3,1.3-0.1,1.3,0c1.1,0.5,1.4,0.7,2.6,1c2.4,0.6,5.5-1.3,5.5-5.9c0-4.1-3.4-4.8-6-6.2
			c-1.5-0.8-2.1-1.9-2.1-3c-0.1-0.8,0.1-0.9,0.2-1.3s0.7-1,1-1.2c0.5-0.4,1.9-0.8,3.3,0.2c1.7,1.2,2.1,4.6,2.4,5
			c0.1,0.1,0.4,0.2,0.4,0.2L224,4.2c0,0-0.3,0.1-0.4,0.3c-0.4,0.5,0,0.3-0.5,0.6c-0.2,0.1-0.4,0-0.9-0.4s-0.9-0.7-1.4-0.8
			c-1.1-0.3-1.4-0.3-2.1-0.3c-2.5,0-4.7,2.1-4.7,5.7c0,4.2,3.2,4.9,5.7,6.5c0.8,0.5,1.7,1,2.1,2.4c0.5,1.4-0.2,4.2-2.3,3.4
			c-0.9-0.3-1.7-0.7-2.3-1.3c-0.9-0.8-1.4-1.6-1.5-1.6c0,0-1.1-1.9-1.4-3.2c-0.1-0.4-0.4-0.5-0.4-0.1c0,1.6,0,6.9,0,6.9l0.2,0.1
			c0.4,0,0.5-0.6,0.6-0.7C215,21.8,215.2,21.5,215.6,21.3z"/>
		<path class="st0" d="M235,21.2c0.9-0.4,1.6-0.1,1.6-0.1c1.4,0.6,1.6,0.8,3.2,1.2c2.9,0.7,6.6-1.6,6.6-7.1c0-4.9-4.1-5.7-7.2-7.5
			c-1.8-1-2.5-2.3-2.6-3.6c-0.1-1,0.1-1.1,0.3-1.5c0.2-0.5,0.9-1.2,1.2-1.4c0.5-0.4,2.3-0.9,3.9,0.3c2,1.5,2.5,5.6,2.9,6
			c0.1,0.2,0.5,0.3,0.5,0.3l-0.3-7c0,0-0.3,0.1-0.5,0.3c-0.4,0.6,0,0.4-0.5,0.7c-0.2,0.1-0.5,0-1-0.4c-0.6-0.5-1.1-0.8-1.6-1
			c-1.4-0.3-1.8-0.3-2.7-0.3c-3,0-5.6,2.6-5.6,6.8c0,5,3.8,5.9,6.9,7.8c1,0.6,2,1.2,2.6,2.9c0.5,1.7-0.2,5-2.8,4.1
			c-1.1-0.3-2-0.9-2.7-1.5c-1.1-0.9-1.7-1.9-1.8-1.9s-1.3-2.3-1.7-3.8c-0.1-0.4-0.5-0.6-0.5-0.1c-0.1,1.9,0,8.3,0,8.3
			s0.2,0.1,0.3,0.1c0.5,0,0.6-0.7,0.7-0.9C234.2,21.8,234.5,21.3,235,21.2z"/>
		<path class="st0" d="M261.9,8.2c0-1.1,1.1-2.8,2.8-2.8c0.3,0,0.2-0.8-0.1-0.8c-1.5,0-4.4,0-6.4,0c-0.3,0-0.2,0.8,0.1,0.8
			c1.7,0,3,1.7,3,2.8v8.3c0,2.6-1.4,5.7-5.1,5.1c-2-0.3-3.4-2.2-3.4-5.8V8.2c0-1.2,0.9-2.7,2-2.8c0.3,0,0.3-0.8,0-0.8
			c-2.4,0-4.6,0.1-8.1,0c-0.3,0-0.1,0.8,0.2,0.8c2,0,1.5,1.8,1.5,2.8v7.6c0,5.3,3.4,6.7,7.2,6.7c3,0,6.4-0.9,6.4-6.2L261.9,8.2
			L261.9,8.2z"/>
		<path class="st0" d="M279.3,8.2c0-1.1,0.5-2.9,2.5-3c0.2,0,0.2-0.6,0.2-0.6h-6.4c0,0,0,0.5,0.2,0.6c2.1,0.2,2.9,1.9,2.9,3v7.4
			l-8.9-11c0,0-4.2,0-5.4,0c-1,0,0.9,1.6,1.1,2.2c0.8,0.8,1.4,1.6,1.4,1.7v10.2c0,0.7-1.2,2.8-2.6,2.8c-0.2,0-0.2,0.7-0.2,0.7h6.5
			c0,0,0-0.7-0.2-0.7c-1.2,0-2.9-2.1-2.9-2.8V9.2c0,0,6.8,8.7,11.2,13.3c0.1,0.2,0.6-0.1,0.6-0.1L279.3,8.2L279.3,8.2z"/>
	</g>
</g>
</svg>
