<?xml version="1.0" encoding="utf-8"?>
<!-- Generator: Adobe Illustrator 23.0.6, SVG Export Plug-In . SVG Version: 6.00 Build 0)  -->
<svg version="1.1" id="Layer_1" xmlns="http://www.w3.org/2000/svg" xmlns:xlink="http://www.w3.org/1999/xlink" x="0px" y="0px"
	 viewBox="0 0 500 38.9" style="enable-background:new 0 0 500 38.9;" xml:space="preserve">
<style type="text/css">
	.st0{fill:#FFFFFF;}
</style>
<title>SNS</title>
<path class="st0" d="M9.8,0.2C4.7,0.2,0.3,4.1,0,10.7v1.5c0.4,7.7,6.9,9.1,12.1,12.3c1.7,1,3.6,2,4.5,4.8s-0.3,8.3-4.9,6.8
	c-1.7-0.5-3.3-1.4-4.8-2.5c-1.2-0.9-2.2-2-3.1-3.2c-1.2-2-2.2-4.1-3-6.3C0.6,23.3,0,23,0,23.8v13.8l0.5,0.2c0.9,0,1.1-1.2,1.3-1.5
	c0.4-0.4,0.9-0.8,1.4-1c0.9-0.5,2-0.5,2.9-0.1c1.8,0.9,3.6,1.5,5.6,2c5.2,1.1,11.6-2.7,11.6-11.7c0-8.2-7.1-9.5-12.6-12.4
	c-3.2-1.7-4.4-3.8-4.5-5.9C5.8,6.3,6,5.4,6.4,4.6c0.5-0.9,1.2-1.7,2-2.3c2.2-1.2,4.9-1,6.9,0.4c3.6,2.4,4.5,9.2,5,10
	c0.2,0.3,0.9,0.4,0.9,0.4L20.8,1.5c-0.3,0.1-0.6,0.3-0.8,0.6c-0.8,1.1-0.1,0.7-1,1.1c-0.3,0.1-0.9,0-1.8-0.7
	c-0.8-0.7-1.8-1.3-2.8-1.7C12.9,0.3,11.3,0.1,9.8,0.2"/>
<path class="st0" d="M34.4,7.2c0,0-5.9,0.1-10.1,0c-0.5,0-0.5,1.2-0.5,1.2c3.2,0,3,2.8,3,4.7v17.6c0,1.9,0.5,4.8-2.6,4.9l-0.9,1
	h15.2l-0.8-1c-3.5,0-4-2.9-4-4.9v-6.8l3.7-0.1c7-0.2,9.3-3.3,9.3-7.4c0-6.4-4.7-9.1-12.2-9.1L34.4,7.2 M33.8,9.7
	c0-1.2,0.3-0.9,1.5-0.7c5.3,0.8,5.1,3.3,5.4,6.2c0.3,4.7-0.6,7.5-2.9,7.6l-3.9,0.1V9.7"/>
<path class="st0" d="M47,7.2c0,0-0.4,1,0,1.1c3.3,0.3,3.1,3,3.1,4.8v17.5c0,1.9,0.3,4.4-2.5,4.8c-0.7,0.1-0.6,1.1-0.6,1.1h13
	c0,0,0-1-0.5-1c-2.8-0.1-3-3-3-5V23h4.7c1.7,0.5,1.7,2.4,1.8,2.8c2,3.8,1.6,8.2,2.8,10.6h10c0,0,0.5-1,0.1-1.1
	c-1.7-0.6-3.3-1.4-4.6-2.6c-1.8-3.1-1.4-7.8-6.8-9.9c-0.3-0.1-0.7-0.6,0.2-0.9c1.4-0.6,5.9-2.7,5.9-5.6c0.1-1.5,0-3-0.4-4.4
	c-1-3.5-6.1-4.8-11.8-4.8H47 M59,22.3l-2.3-0.1V9.1L59,9.4c4,0.6,4.8,5.3,4.8,8.2s-1.5,4.7-4.5,4.7L59,22.3"/>
<path class="st0" d="M76.5,7.2c0,0,0,1,0.4,1c2.5,0,2.8,3.1,2.8,5V29c0,1.9-0.3,6.6-3.2,6.6c-0.5,0-0.4,0.9-0.4,0.9h13.2
	c0-0.3,0-0.6,0.1-0.9c-2.9-0.2-2.6-4.8-2.6-6.6V13.1c0-1.9,0.2-4.9,2.7-4.9h0.1c-0.4-0.6-0.5-1,0.2-1L76.5,7.2"/>
<path class="st0" d="M109.7,7.8c0,0,0,0.9,0.4,0.9c2.7,0.1,4.9,2.2,5.1,4.9V26L99.4,7.8h-9.5c-1.7,0,1.6,2.7,1.9,3.7
	c0.9,0.8,1.7,1.8,2.4,2.9v16.9c0,1.1-2.2,4.7-4.6,4.7c-0.4,0-0.4,1.2-0.4,1.2h11.6c0,0,0.1-1.2-0.4-1.2c-2.2,0-5.1-3.4-5.1-4.7V15.6
	c0,0,12.1,14.4,19.9,22c0.3,0.3,1-0.1,1-0.1V13.6c0-1.9,0.9-4.8,4.4-4.9c0.3,0,0.4-0.9,0.4-0.9L109.7,7.8"/>
<path class="st0" d="M118.7,22.4c0,7.3,5.1,13.8,11.5,15.4h5.8c0.8-0.2,1.6-0.5,2.3-0.8c1.7-0.8,3.2-2,4.9-2.7
	c1.2-0.5,2.3,2.3,3.3,1.2c0,0-0.7-4.7,0-7.5c0,0-0.8-0.5,1.5-0.9c0.5-0.1,0.8-1.3,0.8-1.3h-12.3c0,0,0.3,1.3,0.8,1.3
	c3,0.2,2.5,2.3,2.5,2.3c0.1,3-0.5,8-7.3,7.7c-2.5-0.1-3.8-2.4-4.7-5.3c-0.8-3.1-1.1-6.3-1-9.5c-0.1-3.1,0.4-6.3,1.3-9.3
	c0.9-2.7,2.6-4.9,6.9-4.8c1.8,0,4.2,1.8,6.2,4.4c1.4,2,2.2,4.5,3.4,6.5c0.1,0.4,1.1,0.4,1.1,0.4V7.9c0-0.4-0.9,0.4-0.9,0.4
	c-0.2,0.5-0.4,1.6-1.4,1.9c-0.2,0.1-1.4-0.8-2-1c-0.5-0.2-1.1-0.4-1.6-0.7c-2-0.9-4.2-1.3-6.4-1.3C125.6,7.2,118.7,13.9,118.7,22.4"
	/>
<path class="st0" d="M146.9,7.2l0.4,1.1c3.1,0,2.3,3,2.3,4.8v17.5c0,1,0.4,4.6-2.3,4.8l-0.4,1.1h14.6l-0.5-1.3
	c-3.5,0-3.8-2.6-3.8-4.6V22c3.7,0,6.8-0.1,7.5,4.6l0.8,0.9l-0.4-6.2l0.4-5.9l-0.9,0.9c-0.5,5-3.4,4.9-7.4,4.9V8.5h2.4
	c2.2,0.1,4.4,0.5,6.4,1.4c1.6,0.8,2.8,1.3,5.7,5.2c0.4,0.5,1,0.8,1.5,1.2c0,0-2.3-7.8-3.2-9.1H146.9 M173.7,7.2c0,0,0,1,0.4,1
	c2.5,0,2.8,3.1,2.8,5V29c0,1.9-0.3,6.6-3.1,6.6c-0.5,0-0.4,0.9-0.4,0.9H187c0,0,0.1-0.9-0.4-0.9c-3.1,0-2.8-4.7-2.8-6.6V13.1
	c0-1.9,0.2-4.9,2.6-4.9c0.4,0,0.5-1,0.5-1L173.7,7.2 M188.3,7.2c0,0-0.2,0.9,0.1,1.1c1.7,1,2.6,2.9,2.4,4.8v17.5
	c0,1.7-0.2,4.2-2.3,4.8c-0.4,0.1-0.2,1.1-0.2,1.1h23.2l2.5-9.4l-1.7,0.5c-2.9,4.2-5,7.8-10.7,7.8h-3.5V22c3.8,0,6.7-0.1,7.4,4.6
	l0.8,0.9l-0.4-6.1l0.4-6l-0.9,0.9c-0.5,5-3.2,4.9-7.3,4.9V8.5h4.2c2.7,0.1,5.1,1.3,6.9,3.3c0.8,0.9,1.5,2.1,2.6,3.6l1.7,1l-3.5-9.2
	L188.3,7.2 M214.2,7.2c0,0-0.1,1.2,0.4,1.3c2.7,0.6,3.1,2.7,3.1,4.6v17.5c0,1.9-0.2,4.2-3,4.7c-0.5,0.1-0.9,1.2-0.5,1.2H238
	c0,0,5.1-12.9,2.2-9.7c-0.6,0.7-0.6,1.4-1.1,2.2c-1.3,2.3-4.1,6.9-8.4,6.8c-5.1-0.2-5.5-0.6-5.5-2.5V13.1c0-1.9,0.6-4.4,3.5-4.8
	c0.4-0.1,0.4-1.1,0.4-1.1L214.2,7.2"/>
<path class="st0" d="M241,7.2c0,0,0.1,1,0.5,1.1c2.3,0.3,2.5,3,2.5,4.8v17.5c0,1.9,0,4.6-2.6,4.9c-0.2,0-0.4,1-0.4,1h16.6
	c8.1,0,13.4-5.6,13.4-14.7s-6.3-14.7-14-14.7L241,7.2 M251.4,33.8V8.6c0.5,0,2-0.1,3.5-0.1c6.7,0.1,8.6,6.2,8.7,13.4
	c0,4,0.8,13.9-9.6,14h-0.5C251.4,35.9,251.4,35.6,251.4,33.8 M307.6,1.8c0,0,0,1.1,0.5,1.1c4.4,0.4,6.2,3.8,6.2,5.9v14.8L295.2,1.8
	h-11.5c-2.1,0,1.9,3.2,2.4,4.4c1.2,1,2.2,2.2,3,3.4V30c0,1.4-2.7,5.7-5.5,5.7c-0.5,0-0.5,1.4-0.5,1.4h14c0,0,0.1-1.4-0.5-1.4
	c-2.6,0-6.2-4.1-6.2-5.6l0-18.7c0,0,14.6,17.3,24,26.5h0.9c0.1,0,0.2-0.1,0.3-0.2V8.9c0-2.2,1.1-5.8,5.3-5.9c0.4,0,0.5-1.1,0.5-1.1
	L307.6,1.8"/>
<path class="st0" d="M319,7.2c0,0-0.3,0.9,0.1,1.1c1.6,1,2.6,2.9,2.4,4.8v17.5c0,1.7-0.2,4.2-2.3,4.8c-0.4,0.1-0.2,1.1-0.2,1.1h23.2
	l2.5-9.4l-1.7,0.5c-2.9,4.2-5,7.8-10.7,7.8h-3.5V22c3.8,0,6.7-0.1,7.4,4.6l0.8,0.9l-0.4-6.1l0.4-6l-0.9,0.9c-0.5,5-3.2,4.9-7.2,4.9
	V8.5h4.2c2.6,0.1,5.1,1.3,6.9,3.3c0.8,0.9,1.5,2.1,2.6,3.6l1.8,1l-3.5-9.2L319,7.2 M371.3,7.2l0.5,1c2,0,4.5,2.4,4.5,2.8
	c0,0.3,0,0.6,0,0.9l-4.6,14l-5.8-14.1l-0.3-1c-0.2-1.3,0.7-2.5,2-2.7c0,0,0,0,0,0c0.2,0,0.3,0,0.5,0l0.4-1h-13l0.6,1
	c1.5,0.8,1.6-0.4,3.1,4.1l2.1,6.4l-2.8,7.3c-1.5-4-4.4-12.5-4.8-13.8l-0.9-2.9c0.1,0.5-0.5-1-0.1-1l0.6-0.4V7.2h-10.2
	c0,1.1,1.5,1.3,1.5,1.3c3.1,8.4,6.5,19.1,10.2,28.7h0.5l6.4-16.3l6.7,16.3h1l8-24.5c0.3-1,0.8-3.9,2.8-4.4l0.8-1.2L371.3,7.2
	 M380.1,15.4c0,6.9,5.6,8.1,10,10.8c1.4,0.9,3,1.7,3.8,4s-0.3,6.9-4.1,5.7c-1.4-0.4-2.8-1.1-3.9-2.1c-1-0.8-1.8-1.7-2.6-2.6
	c-1-1.6-1.8-3.4-2.5-5.2c-0.2-0.6-0.7-0.8-0.7-0.2c-0.1,2.7,0,11.4,0,11.4l0.4,0.1c0.7,0,0.9-1,1.1-1.2c0.3-0.3,0.7-0.6,1.1-0.8
	c0.7-0.4,1.6-0.4,2.3-0.1c1.5,0.7,3,1.3,4.6,1.6c4.3,0.9,9.6-2.2,9.6-9.7c0-6.8-5.9-7.9-10.5-10.3c-2.7-1.4-3.6-3.2-3.8-4.9
	c-0.1-0.7,0-1.5,0.4-2.1c0.4-0.7,1-1.4,1.7-1.9c1.8-1,4.1-0.9,5.8,0.3c3,2,3.7,7.7,4.2,8.3c0.1,0.2,0.7,0.4,0.7,0.4l-0.4-9.7
	c-0.3,0.1-0.5,0.3-0.7,0.5c-0.6,0.9,0,0.6-0.8,0.9c-0.3,0.1-0.8,0-1.5-0.6c-0.7-0.6-1.5-1.1-2.4-1.4c-1.2-0.4-2.5-0.5-3.7-0.5
	C383.9,6,380.1,9.5,380.1,15.4"/>
<path class="st0" d="M402.3,25.8h9.6v-4.2h-9.6V25.8z M423.6,0c-5.4,0-10,4.3-10,11.3c0,8.4,6.8,9.8,12.2,13.1c1.7,1,3.6,2,4.6,4.8
	s-0.3,8.4-5,6.9c-1.8-0.5-3.4-1.4-4.8-2.5c-1.2-0.9-2.2-2-3.1-3.2c-1.2-2-2.2-4.1-3-6.3c-0.2-0.7-0.8-1-0.8-0.3
	c-0.1,3.3,0,13.8,0,13.8l0.5,0.2c0.9,0,1.1-1.2,1.3-1.5c0.4-0.4,0.9-0.8,1.4-1c0.9-0.4,1.9-0.5,2.9-0.1c1.8,0.9,3.7,1.6,5.6,2
	c5.2,1.1,11.7-2.7,11.7-11.8c0-8.2-7.2-9.6-12.8-12.5c-3.3-1.7-4.5-3.8-4.6-6c-0.1-0.9,0-1.8,0.5-2.6c0.5-0.9,1.2-1.7,2.1-2.3
	c2.2-1.2,4.9-1,7,0.5c3.6,2.5,4.5,9.3,5.1,10c0.2,0.3,0.9,0.4,0.9,0.4l-0.5-11.7c-0.3,0.1-0.6,0.3-0.8,0.6c-0.8,1.1,0,0.7-1,1.1
	c-0.3,0.1-0.9,0-1.8-0.7c-0.9-0.7-1.8-1.2-2.9-1.6C426.7,0.1,425.2-0.1,423.6,0 M458.4,7.2c-0.5,0-0.4,1.3,0.1,1.3
	c2.9,0,5.3,2.8,5.3,4.6V27c0,4.3-2.5,9.6-9.1,8.6c-3.5-0.5-6-3.7-6-9.7V13.1c0-1.9,1.6-4.5,3.6-4.7c0.5,0,0.5-1.3,0-1.3
	c-4.2,0-8.2,0.1-14.5,0c-0.5,0-0.2,1.3,0.3,1.3c3.5,0,2.6,2.9,2.6,4.6v12.8c0,8.8,6,11.3,12.8,11.3c5.4,0,11.3-1.5,11.3-10.3V13.1
	c0.2-2.4,2.1-4.3,4.4-4.6c-0.6-0.7-0.9-1.3,0-1.3H458.4"/>
<path class="st0" d="M489.1,7.8c0,0,0,0.9,0.4,0.9c2.7,0.1,4.9,2.2,5.1,4.9V26L478.9,7.8h-9.5c-1.8,0,1.5,2.7,1.9,3.7
	c0.9,0.8,1.8,1.8,2.4,2.9v16.9c0,1.1-2.2,4.7-4.5,4.7c-0.4,0-0.4,1.2-0.4,1.2h11.6c0,0,0.1-1.2-0.4-1.2c-2.2,0-5.1-3.4-5.1-4.7V15.6
	c0,0,12,14.4,19.8,22c0.3,0.3,1-0.1,1-0.1V13.6c0-1.8,0.9-4.8,4.3-4.9V7.8H489.1"/>
</svg>
