<svg xmlns="http://www.w3.org/2000/svg" xmlns:xlink="http://www.w3.org/1999/xlink" width="835" height="63" viewBox="0 0 835 63">
    <defs>
        <path id="a" d="M.001.343h38.51v62.506H.002z"/>
        <path id="c" d="M0 63h835V0H0z"/>
    </defs>
    <g fill="none" fill-rule="evenodd">
        <mask id="b" fill="#fff">
            <use xlink:href="#a"/>
        </mask>
        <path fill="#231F20" d="M16.366.341C7.85.341.516 6.894.001 17.865v2.458C.64 33.14 11.52 35.483 20.147 40.783c2.873 1.74 5.989 3.356 7.564 7.936 1.602 4.73-.515 13.886-8.229 11.384-3.116-.949-5.898-2.473-7.925-4.151-3.268-2.594-4.993-5.221-5.145-5.313-.15-.091-3.781-6.254-4.99-10.497-.393-1.22-1.362-1.708-1.362-.429-.032 1.17-.05 2.914-.059 4.92v7.478C.016 57.594.06 62.605.06 62.605l.817.243c1.452.062 1.816-2.012 2.117-2.411 0 0 .908-1.037 2.27-1.62 2.662-1.128 4.63-.242 4.688-.15 3.995 1.586 4.75 2.32 9.287 3.297 8.625 1.832 19.273-4.426 19.273-19.503 0-13.641-11.922-15.81-21.089-20.631-5.353-2.81-7.318-6.35-7.53-9.86-.242-2.653.303-2.96.756-4.272.454-1.282 2.542-3.206 3.389-3.847 1.572-1.19 6.806-2.561 11.553.736 5.963 4.086 7.415 15.41 8.382 16.601.301.488 1.452.733 1.452.733L34.67 2.507s-.999.307-1.362.948c-1.3 1.77-.091 1.132-1.605 1.862-.513.212-1.511.062-2.993-1.22-1.666-1.374-3.178-2.258-4.78-2.807C20.239.34 19.09.34 16.367.34" mask="url(#b)"/>
        <path fill="#231F20" d="M57.392 12s-9.81.125-16.796.062c-.828 0-.765 1.966-.765 1.966 5.32.06 5.011 4.64 5.011 7.863v29.215c0 3.227.893 8.08-4.428 8.14L39 61h25.282l-1.262-1.755c-5.905-.059-6.735-4.76-6.735-8.139V39.678l6.214-.152C74.219 39.249 78 34.09 78 27.146 78 16.437 70.11 12 57.651 12h-.259m-1.107 4.116c0-1.966.524-1.413 2.43-1.166 8.92 1.35 8.58 5.528 8.98 10.382.494 7.803-.95 12.505-4.857 12.597l-6.553.122V16.116"/>
        <path fill="#231F20" d="M78.328 12s-.695 1.752-.062 1.811c5.482.553 5.118 4.978 5.118 8.08v29.215c0 3.102.575 7.28-4.118 8.08-1.181.214-.938 1.814-.938 1.814h21.802s-.061-1.6-.756-1.6c-4.573-.214-4.907-5.067-4.969-8.294l-.061-12.594h7.876c2.785.889 2.785 4.053 3.09 4.728 3.268 6.27 2.661 13.671 4.66 17.76h16.655s.756-1.6.12-1.814c-3.664-1.353-7.237-3.566-7.691-4.3-3.028-5.255-2.33-13.21-11.294-16.621-.484-.214-1.12-.952.273-1.567 2.33-1.014 9.81-4.577 9.81-9.398 0-3.042.273-3.842-.694-7.283C115.51 14.15 107.004 12 97.375 12H78.328m20.105 25.25l-3.904-.15V15.101l3.845.523c6.63.952 8.023 8.907 8.023 13.73 0 4.723-2.52 7.905-7.536 7.905-.14 0-.281-.003-.428-.01"/>
        <path fill="#231F20" d="M127.673 12s.063 1.627.655 1.627c4.208 0 4.646 5.103 4.646 8.264v26.512c0 3.164-.438 11.06-5.301 11.06-.842 0-.655 1.537-.655 1.537h22.016c-.003-.235.006-1.082.241-1.552-4.827-.381-4.265-7.958-4.265-11.045V21.89c0-3.161.314-8.264 4.462-8.264a.383.383 0 0 0 .163-.036c-.637-.916-.78-1.591.365-1.591h-22.327"/>
        <path fill="#231F20" d="M183.033 13s.062 1.466.64 1.525c6.1.612 8.567 5.313 8.567 8.245v20.545L165.831 13h-15.885c-2.896 0 2.622 4.486 3.262 6.076 2.196 2.228 4.056 4.365 4.056 4.761v28.178c0 1.862-3.69 7.817-7.625 7.817-.7 0-.638 1.921-.638 1.921h19.363s.124-1.92-.64-1.92c-3.6 0-8.508-5.68-8.508-7.818l-.06-25.98S179.282 50 192.365 62.824c.458.487 1.645-.186 1.645-.186V22.77c0-3.082 1.526-8.03 7.383-8.245.549 0 .608-1.525.608-1.525h-18.967"/>
        <path fill="#231F20" d="M198 37.302c0 12.203 8.525 23.012 19.175 25.698h9.636a21.53 21.53 0 0 0 3.839-1.371c2.817-1.253 5.356-3.327 8.108-4.547 2.082-.916 3.827 3.873 5.48 2.074 0 0-1.164-7.816 0-12.514 0 0-1.348-.792 2.48-1.527.823-.213 1.282-2.199 1.282-2.199h-20.47s.46 2.14 1.283 2.199c4.96.336 4.133 3.876 4.133 3.876.213 5.006-.886 13.309-12.21 12.789-4.1-.213-6.367-3.969-7.774-8.85-1.466-4.946-1.712-10.956-1.712-15.903 0-5.77.735-10.96 2.263-15.445 1.47-4.485 4.408-8.181 11.538-7.969 2.998.062 7.01 3.023 10.404 7.36 2.417 3.266 3.732 7.476 5.66 10.895.247.609 1.897.67 1.897.67s.062-10.56 0-19.38c0-.673-1.591.671-1.591.671-.305.795-.702 2.656-2.417 3.206-.305.121-2.355-1.404-3.303-1.74a46.65 46.65 0 0 1-2.634-1.132C230.407 13.067 227.47 12 222.388 12 209.505 12 198 23.17 198 37.302"/>
        <path fill="#231F20" d="M245 12l.635 1.811c5.232.063 3.841 5.07 3.841 8.08v29.215c0 1.63.635 7.681-3.84 8.08L245 61h24.313l-.697-2.213c-5.867-.062-6.35-4.303-6.35-7.681V36.698c6.23 0 11.37-.122 12.46 7.619l1.24 1.537-.605-10.414.606-9.832-1.423 1.538c-.846 8.416-5.627 8.14-12.278 8.14V14.15h4.023c.755 0 6.41.277 10.705 2.364 2.752 1.353 4.597 2.153 9.494 8.758.577.797 2.512 1.933 2.512 1.933S285.04 14.15 283.587 12H245M289.663 12s.063 1.627.616 1.627c4.178 0 4.61 5.103 4.61 8.264v26.512c0 3.164-.432 11.06-5.226 11.06-.83 0-.646 1.537-.646 1.537h22.966s.184-1.537-.646-1.537c-5.166 0-4.613-7.896-4.613-11.06V21.89c0-3.161.34-8.264 4.428-8.264.643 0 .83-1.627.83-1.627h-22.319M314.159 12s-.43 1.475.124 1.811c3.39 2.153 4.094 5.192 4.094 8.08v29.215c0 2.888-.397 7.066-3.88 8.08-.705.214-.338 1.814-.338 1.814h38.714L357 45.271l-2.783.86c-4.798 7.066-8.286 13.055-17.827 13.055h-5.81V36.698c6.299 0 11.222-.122 12.293 7.619l1.285 1.537-.642-10.23.642-10.016-1.468 1.538c-.826 8.416-5.352 8.14-12.11 8.14V14.15h7.003c3.517 0 8.103 1.752 11.469 5.531 1.344 1.475 2.537 3.563 4.402 5.99l2.904 1.751L350.579 12h-36.42M357.316 12s-.213 1.966.642 2.15c4.49 1.014 5.193 4.517 5.193 7.741v29.215c0 3.227-.367 7.066-5.072 7.863-.763.157-1.526 2.031-.763 2.031h39.531s8.464-21.474 3.697-16.222c-1.07 1.136-1.07 2.364-1.834 3.717-2.23 3.902-6.814 11.49-13.991 11.307-8.461-.28-9.227-1.077-9.227-4.241V21.89c0-3.224 1.008-7.342 5.776-8.08.7-.122.638-1.811.638-1.811h-24.59"/>
        <path fill="#231F20" d="M402 12s.182 1.752.877 1.811c3.849.553 4.15 4.978 4.15 8.08v29.215c0 3.102.062 7.619-4.329 8.202C402.302 59.4 402 61 402 61h27.668C443.24 61 452 51.66 452 36.516 452 21.43 441.484 12 428.603 12H402m17.392 44.36V14.303c.819 0 3.362-.214 5.758-.152 11.15.152 14.424 10.382 14.547 22.366 0 6.724 1.335 23.13-16.001 23.286-.306.003-.593.005-.857.005-3.447 0-3.447-.452-3.447-3.446M513.103 3s.062 1.776.766 1.868c7.34.706 10.344 6.342 10.344 9.894V39.48L492.324 3h-19.183c-3.503 0 3.158 5.39 3.925 7.32 2.671 2.666 4.912 5.237 4.912 5.729v33.905c0 2.265-4.448 9.435-9.209 9.435-.858 0-.766 2.327-.766 2.327h23.387s.155-2.327-.766-2.327c-4.389 0-10.281-6.861-10.281-9.435l-.092-31.24S508.56 47.535 524.367 63h1.441c.318-.116.553-.243.553-.243V14.762c0-3.706 1.842-9.648 8.872-9.894C535.941 4.868 536 3 536 3h-22.897"/>
        <path fill="#231F20" d="M532.17 12s-.456 1.475.125 1.811c3.359 2.153 4.063 5.192 4.063 8.08v29.215c0 2.888-.397 7.066-3.88 8.08-.707.214-.308 1.814-.308 1.814h38.672L575 45.271l-2.812.86c-4.77 7.066-8.283 13.055-17.822 13.055h-5.78V36.698c6.298 0 11.19-.122 12.256 7.619l1.287 1.537-.642-10.23.642-10.016-1.468 1.538c-.822 8.416-5.35 8.14-12.074 8.14V14.15h6.999c3.489 0 8.073 1.752 11.435 5.531 1.347 1.475 2.569 3.563 4.404 5.99l2.936 1.751L568.55 12h-36.38M619.318 12l.768 1.69c3.384 0 7.533 3.966 7.533 4.707 0 .4.184 1.015.065 1.57l-7.598 23.368-9.745-23.461-.494-1.602c0-.553-.277-4.46 4.09-4.581l.648-1.691h-21.709l.955 1.69c2.43 1.263 2.706-.675 5.194 6.86l3.506 10.672-4.732 12.113c-2.432-6.612-7.352-20.818-8.06-23.03l-1.536-4.923c.247.863-.83-1.691-.125-1.691l1.015-.738V12H572c0 1.753 2.461 2.152 2.461 2.152 5.227 13.962 10.79 31.797 16.942 47.848h.89l10.7-27.152L614.12 62h1.601l13.37-40.775c.527-1.69 1.298-6.519 4.673-7.257L635 12h-15.682M634 25.626c0 11.548 9.34 13.465 16.754 18.004 2.383 1.495 4.97 2.804 6.268 6.611 1.327 3.96-.426 11.575-6.843 9.504-2.558-.82-4.88-2.07-6.568-3.47-2.71-2.165-4.154-4.359-4.276-4.418-.12-.062-3.136-5.21-4.13-8.744-.327-1.005-1.144-1.403-1.144-.336-.122 4.477 0 19.039 0 19.039l.694.182c1.208.062 1.506-1.675 1.777-2.008 0 0 .752-.852 1.87-1.312 2.199-.944 3.823-.212 3.887-.15 3.314 1.338 3.944 1.949 7.71 2.74C657.142 62.791 666 57.583 666 45.062c0-11.362-9.914-13.161-17.507-17.18-4.46-2.316-6.084-5.27-6.268-8.196-.178-2.194.242-2.468.633-3.533.365-1.067 2.141-2.683 2.803-3.2 1.327-1.005 5.665-2.16 9.614.579 4.938 3.412 6.143 12.828 6.96 13.83.242.398 1.172.61 1.172.61l-.6-16.174s-.815.271-1.147.82c-1.053 1.462-.059.914-1.295 1.524-.452.213-1.266.06-2.532-1.005-1.353-1.127-2.62-1.858-3.946-2.345C650.815 10 649.879 10 647.62 10 640.265 10 634 15.88 634 25.626"/>
        <mask id="d" fill="#fff">
            <use xlink:href="#c"/>
        </mask>
        <path fill="#231F20" d="M671 43h16v-7h-16zM706.592 0C697.654 0 690 7.105 690 18.918c0 13.999 11.388 16.336 20.417 21.842 2.907 1.754 6.03 3.383 7.654 7.999 1.592 4.767-.55 13.995-8.33 11.473-3.15-.956-5.965-2.492-8.048-4.184-3.274-2.614-5.046-5.261-5.203-5.354-.154-.092-3.793-6.304-5.023-10.58-.394-1.23-1.375-1.721-1.375-.432-.154 5.444 0 23.072 0 23.072l.827.245c1.47.062 1.837-2.028 2.142-2.43 0 0 .919-1.045 2.294-1.632 2.664-1.138 4.652-.244 4.747-.152 4.039 1.6 4.806 2.338 9.397 3.323C718.225 63.955 729 57.648 729 42.452c0-13.749-12.093-15.935-21.339-20.794-5.417-2.832-7.408-6.4-7.654-9.937-.21-2.674.308-2.984.768-4.306.459-1.293 2.601-3.231 3.458-3.877 1.591-1.2 6.89-2.582 11.696.741 6.03 4.118 7.5 15.532 8.478 16.732.308.492 1.47.739 1.47.739l-.768-19.567s-1.01.31-1.375.956c-1.318 1.783-.092 1.14-1.624 1.876-.518.214-1.529.062-3.058-1.23-1.683-1.385-3.218-2.275-4.806-2.83C710.506 0 709.347 0 706.592 0M764.607 12c-.825 0-.579 2.152.246 2.152 4.902 0 8.885 4.737 8.885 7.69v23.246c0 7.195-4.23 15.962-15.131 14.269-5.795-.86-10.084-6.118-10.084-16.144V21.9c0-3.227 2.634-7.534 6.006-7.749.768-.062.768-2.152 0-2.152-7.076 0-13.633.214-24.111 0-.828 0-.306 2.152.522 2.152 5.792 0 4.413 4.921 4.413 7.75v21.31c0 14.668 9.985 18.788 21.412 18.788 9.07 0 18.874-2.489 18.874-17.189v-22.97c0-2.92 2.918-7.135 7.361-7.638-.967-1.215-1.444-2.203-.071-2.203h-18.322" mask="url(#d)"/>
        <path fill="#231F20" d="M815.888 13s.089 1.466.639 1.525c6.075.612 8.54 5.313 8.54 8.245v20.545L798.748 13h-15.804c-2.916 0 2.586 4.486 3.219 6.076 2.22 2.228 4.045 4.365 4.045 4.761v28.178c0 1.862-3.648 7.817-7.57 7.817-.697 0-.636 1.921-.636 1.921h19.3s.121-1.92-.64-1.92c-3.614 0-8.48-5.68-8.48-7.818l-.059-25.98S812.178 50 825.218 62.824c.426.487 1.642-.186 1.642-.186V22.77c0-3.05 1.488-7.923 7.14-8.233V13h-18.112" mask="url(#d)"/>
    </g>
</svg>
