<svg xmlns="http://www.w3.org/2000/svg" width="400" height="50" viewBox="0 0 400 50" fill="none">
<g clip-path="url(#clip0_1_31)">
<path d="M2.73839 30.1096C4.00978 29.5212 4.98777 30.0115 4.98777 30.0115C6.94376 30.7962 7.33496 31.1885 9.48655 31.6788C13.6919 32.6596 18.7775 29.4231 18.7775 21.675C18.7775 14.7115 13.0073 13.5346 8.60636 11.0827C6.06357 9.61154 5.08557 7.84615 4.98777 5.98269C4.88997 4.60962 5.08558 4.41346 5.37897 3.825C5.57457 3.13846 6.65036 2.15769 7.04156 1.86346C7.82396 1.275 10.3667 0.588462 12.6161 2.25577C15.4523 4.31538 16.2347 10.2 16.6259 10.7885C16.7237 11.0827 17.3105 11.1808 17.3105 11.1808L16.9193 1.17692C16.9193 1.17692 16.4303 1.37308 16.2347 1.66731C15.6479 2.55 16.2347 2.25577 15.4523 2.64808C15.1589 2.74615 14.7677 2.64808 13.9853 2.05962C13.2029 1.37308 12.4205 0.882692 11.6381 0.588461C9.97555 -1.16917e-07 9.38876 0 8.11736 0C3.81418 0 0.195597 3.62885 0.195597 9.61154C0.195597 16.7712 5.67237 17.9481 9.97555 20.7923C11.3447 21.675 12.8117 22.5577 13.5941 24.9115C14.3765 27.3635 13.3007 32.0712 9.58436 30.7962C8.11736 30.3058 6.74817 29.5212 5.77017 28.6385C4.20538 27.3635 3.32519 25.9904 3.32519 25.8923C3.22739 25.8923 1.46699 22.6558 0.880198 20.4981C0.684599 19.9096 0.195597 19.6154 0.195597 20.3019C0.0977971 23.0481 0.195597 32.0712 0.195597 32.0712C0.195597 32.0712 0.488997 32.1692 0.586796 32.1692C1.27139 32.1692 1.46699 31.0904 1.56479 30.8942C1.66259 30.8942 2.05379 30.4038 2.73839 30.1096Z" fill="#ffffff"/>
<path fill-rule="evenodd" clip-rule="evenodd" d="M28.4597 8.04231C32.665 8.72885 32.5672 10.8865 32.7628 13.3385C32.9584 17.3596 32.2738 19.7135 30.4156 19.8115L27.2861 19.9096V8.63078C27.2861 7.65001 27.4817 7.94424 28.4597 8.04231ZM19.8533 6.57116C19.4621 6.57116 19.4621 7.55193 19.4621 7.55193C22.0049 7.55193 21.8093 9.90577 21.8093 11.5731V26.4808C21.8093 28.1481 22.2005 30.6 19.7555 30.6L19.0709 31.4827H31.1003L30.5134 30.6C27.6773 30.6 27.2861 28.1481 27.2861 26.4808V20.5962L30.2201 20.4981C35.7946 20.4 37.555 17.7519 37.555 14.2212C37.555 8.72885 33.7408 6.47308 27.7751 6.47308C27.7751 6.47308 23.1785 6.57116 19.8533 6.57116Z" fill="#ffffff"/>
<path fill-rule="evenodd" clip-rule="evenodd" d="M47.335 8.33654C50.5623 8.82692 51.2469 12.8481 51.2469 15.3C51.2469 17.7519 49.9756 19.4192 47.4328 19.3212L45.5746 19.2231V8.14038L47.335 8.33654ZM52.9095 31.5808H60.9291C60.9291 31.5808 61.3203 30.7961 61.0269 30.6981C59.2665 30.0115 57.5061 28.8346 57.3105 28.5404C55.8435 25.8923 56.1369 21.7731 51.8337 20.0077C51.6381 19.9096 51.247 19.5173 51.9315 19.2231C53.1051 18.7327 56.7237 16.8692 56.7237 14.4173C56.7237 12.8481 56.8215 12.4558 56.4303 10.6904C55.6479 7.74807 51.5403 6.57115 46.846 6.57115H37.6528C37.6528 6.57115 37.3594 7.45384 37.6528 7.45384C40.2934 7.74808 40.0978 10.0038 40.0978 11.5731V26.4808C40.0978 28.05 40.3912 30.2077 38.1418 30.6C37.555 30.6981 37.6528 31.4827 37.6528 31.4827H48.2152C48.2152 31.4827 48.2152 30.6981 47.824 30.6981C45.5746 30.6 45.4768 28.1481 45.379 26.4808V20.0077H49.1932C50.5624 20.4981 50.5624 22.0673 50.6602 22.4596C52.2249 25.6962 51.9315 29.4231 52.9095 31.5808Z" fill="#ffffff"/>
<path d="M61.3203 31.5808H72.2738C72.2738 31.5808 72.3716 30.7962 71.9804 30.7962C69.5355 30.7962 69.8288 26.775 69.8288 25.2058V11.5731C69.8288 10.0038 70.0244 7.35577 71.8826 7.35577C72.176 7.35577 72.2738 6.57115 72.2738 6.57115H61.6137C61.6137 6.57115 61.6137 7.35577 61.9071 7.35577C63.8631 7.35577 64.0587 10.0038 64.0587 11.5731V25.1077C64.0587 26.6769 63.8631 30.6981 61.5159 30.6981C61.2225 30.7961 61.3203 31.5808 61.3203 31.5808Z" fill="#ffffff"/>
<path d="M93.203 11.5731C93.203 10.0038 93.8875 7.45384 96.7237 7.35577C97.0171 7.35577 97.0171 6.57115 97.0171 6.57115H87.9218C87.9218 6.57115 87.9218 7.35577 88.2152 7.35577C91.1492 7.65 92.3227 10.1019 92.3227 11.5731V22.1654L79.7066 6.57115C79.7066 6.57115 73.7408 6.57115 72.0783 6.57115C70.7091 6.57115 73.3497 8.82692 73.6431 9.70961C74.7188 10.8865 75.599 11.9654 75.599 12.1615V26.6769C75.599 27.6577 73.8387 30.6981 71.9805 30.6981C71.6871 30.6981 71.6871 31.6788 71.6871 31.6788H80.978C80.978 31.6788 81.0758 30.6981 80.6846 30.6981C78.9242 30.6981 76.577 27.7558 76.577 26.6769V13.3385C76.577 13.3385 86.2592 25.5981 92.5184 32.2673C92.714 32.4635 93.3007 32.1692 93.3007 32.1692V11.5731H93.203Z" fill="#ffffff"/>
<path d="M114.523 8.63077C114.328 8.72884 113.35 7.94423 112.958 7.74807C112.469 7.55192 111.98 7.35577 111.687 7.15961C110.416 6.57115 109.046 6.08076 106.601 6.08076C100.44 6.08076 94.9633 11.8673 94.9633 19.0269C94.9633 26.1865 100.44 32.5615 106.601 32.5615C107.677 32.5615 109.144 32.2673 110.611 31.4827C111.98 30.7961 113.154 29.7173 114.523 29.1288C115.501 28.6385 116.381 31.0904 117.164 30.2077C117.164 30.2077 116.577 26.1865 117.164 23.7346C117.164 23.7346 116.479 23.3423 118.337 22.95C118.729 22.8519 118.924 21.7731 118.924 21.7731H109.144C109.144 21.7731 109.34 22.8519 109.731 22.95C112.078 23.1461 111.687 24.9115 111.687 24.9115C111.785 27.4615 111.296 31.7769 105.819 31.4827C103.863 31.3846 102.787 29.4231 102.103 26.9711C101.418 24.4211 101.32 21.3808 101.32 18.8308C101.32 15.8885 101.711 13.2404 102.396 10.8865C103.081 8.63077 104.45 6.66923 107.873 6.7673C109.34 6.7673 111.198 8.33653 112.861 10.5923C114.034 12.2596 114.621 14.4173 115.599 16.1827C115.697 16.4769 116.479 16.575 116.479 16.575C116.479 16.575 116.479 11.1808 116.479 6.57115C116.479 6.17884 115.697 6.96346 115.697 6.96346C115.501 7.35577 115.306 8.33653 114.523 8.63077Z" fill="#ffffff"/>
<path d="M127.628 7.65C128.02 7.65 130.758 7.74807 132.812 8.82692C134.181 9.51346 135.061 9.90577 137.408 13.3385C137.702 13.7308 138.582 14.3192 138.582 14.3192C138.582 14.3192 136.626 7.65 135.941 6.57115H117.359L117.653 7.45384C120.196 7.45384 119.511 10.0038 119.511 11.5731V26.4808C119.511 27.2654 119.804 30.4038 117.653 30.6L117.359 31.4827H129.095L128.802 30.3058C125.966 30.3058 125.77 28.1481 125.77 26.3827V19.0269C128.802 19.0269 131.247 18.9288 131.834 22.95L132.421 23.7346L132.127 18.4385L132.421 13.4365L131.736 14.2212C131.345 18.5365 128.998 18.3404 125.77 18.3404V7.55192H127.628V7.65Z" fill="#ffffff"/>
<path d="M138.68 31.5808H149.633C149.633 31.5808 149.731 30.7962 149.34 30.7962C146.895 30.7962 147.188 26.775 147.188 25.2058V11.5731C147.188 10.0038 147.384 7.35577 149.242 7.35577C149.535 7.35577 149.633 6.57115 149.633 6.57115H138.973C138.973 6.57115 138.973 7.35577 139.266 7.35577C141.222 7.35577 141.418 10.0038 141.418 11.5731V25.1077C141.418 26.6769 141.222 30.6981 138.875 30.6981C138.582 30.7961 138.68 31.5808 138.68 31.5808Z" fill="#ffffff"/>
<path d="M158.337 7.65V18.4385C161.565 18.4385 163.716 18.5365 164.108 14.3192L164.792 13.5346L164.499 18.6346L164.792 23.8327L164.205 23.0481C163.716 19.125 161.369 19.125 158.337 19.125V30.4038V30.6H161.076C165.672 30.6 167.335 27.5596 169.584 23.9308L170.954 23.4404L168.998 31.4827H150.513C150.513 31.4827 150.318 30.6981 150.709 30.6C152.372 30.1096 152.567 27.9519 152.567 26.4808V11.5731C152.567 10.1019 152.274 8.53269 150.611 7.45384C150.318 7.25769 150.513 6.57115 150.513 6.57115H167.922L170.66 14.4173L169.291 13.5346C168.411 12.2596 167.824 11.2788 167.237 10.4942C165.672 8.53269 163.423 7.65 161.76 7.65H158.337Z" fill="#ffffff"/>
<path d="M190.122 31.5808C190.122 31.5808 194.132 20.5962 191.883 23.3423C191.394 23.9308 191.394 24.5192 191.002 25.2058C189.927 27.1673 187.775 31.0904 184.352 30.9923C180.342 30.8942 179.951 30.4038 179.951 28.8346V11.5731C179.951 9.90577 180.44 7.84615 182.689 7.45384C182.983 7.35577 182.983 6.57115 182.983 6.57115H171.247C171.247 6.57115 171.149 7.55192 171.54 7.65C173.692 8.14038 174.083 9.90577 174.083 11.5731V26.4808C174.083 28.1481 173.888 30.1096 171.638 30.5019C171.247 30.6 170.954 31.5808 171.247 31.5808C177.995 31.5808 190.122 31.5808 190.122 31.5808Z" fill="#ffffff"/>
<path fill-rule="evenodd" clip-rule="evenodd" d="M200.685 7.65001C201.076 7.65001 202.249 7.55193 203.423 7.55193C208.802 7.65001 210.367 12.8481 210.465 18.9289C210.465 22.3615 211.149 30.7962 202.738 30.7962C200.685 30.7962 200.685 30.6981 200.685 29.0308V7.65001ZM205.672 31.5808C212.225 31.5808 216.43 26.775 216.43 19.0269C216.43 11.2789 211.345 6.47308 205.183 6.47308H192.372C192.372 6.47308 192.469 7.35578 192.763 7.35578C194.621 7.65001 194.817 9.90578 194.817 11.475V26.4808C194.817 28.05 194.817 30.4039 192.763 30.6981C192.567 30.6981 192.469 31.5808 192.469 31.5808H205.672Z" fill="#ffffff"/>
<path d="M251.736 7.55193C251.736 5.68847 252.616 2.64808 255.941 2.45193C256.235 2.45193 256.333 1.47116 256.333 1.47116H245.477C245.477 1.47116 245.477 2.35385 245.868 2.45193C249.389 2.84424 250.758 5.68847 250.758 7.55193V20.2039L235.599 1.56924C235.599 1.56924 228.46 1.56924 226.504 1.56924C224.841 1.56924 227.971 4.31539 228.362 5.29616C229.633 6.66924 230.709 7.94424 230.709 8.23847V25.5981C230.709 26.775 228.557 30.4039 226.308 30.4039C225.917 30.4039 225.917 31.5808 225.917 31.5808H237.066C237.066 31.5808 237.164 30.4039 236.675 30.4039C234.621 30.4039 231.785 26.8731 231.785 25.5981V9.61155C231.785 9.61155 243.325 24.4212 250.856 32.2673C251.149 32.5615 251.834 32.1692 251.834 32.1692V7.55193H251.736Z" fill="#ffffff"/>
<path d="M262.885 7.65V18.4385C266.112 18.4385 268.264 18.5365 268.655 14.3192L269.34 13.5346L269.046 18.6346L269.34 23.8327L268.753 23.0481C268.264 19.125 265.917 19.125 262.885 19.125V30.4038V30.6H265.623C270.22 30.6 271.883 27.5596 274.132 23.9308L275.501 23.4404L273.545 31.4827H255.061C255.061 31.4827 254.866 30.6981 255.257 30.6C256.919 30.1096 257.115 27.9519 257.115 26.4808V11.5731C257.115 10.1019 256.822 8.53269 255.159 7.45384C254.866 7.25769 255.061 6.57115 255.061 6.57115H272.469L275.208 14.4173L273.839 13.5346C272.958 12.2596 272.372 11.2788 271.785 10.4942C270.22 8.53269 267.971 7.65 266.308 7.65H262.885Z" fill="#ffffff"/>
<path fill-rule="evenodd" clip-rule="evenodd" d="M281.663 8.23847C281.76 8.72885 281.271 7.35578 281.565 7.35578L282.054 6.96347V6.47308H273.936C273.936 7.35578 275.11 7.55193 275.11 7.55193C277.653 14.7115 280.293 23.7346 283.13 31.9731H283.521L288.606 18.1442L293.888 31.9731H294.67L301.027 11.1808C301.223 10.2981 301.614 7.84616 303.276 7.45385L303.863 6.47308H296.43L296.822 7.35578C298.386 7.35578 300.44 9.41539 300.44 9.8077C300.44 10.0039 300.538 10.2981 300.44 10.5923L296.822 22.5577L292.225 10.5923C292.225 10.4942 292.029 9.90578 292.029 9.8077C292.029 9.51347 291.932 7.55193 293.985 7.45385L294.279 6.57116H284.01L284.499 7.45385C285.672 8.14039 285.77 7.06155 286.944 10.9846L288.606 16.3789L286.357 22.5577C285.183 19.2231 282.836 11.9654 282.543 10.7885L281.663 8.23847Z" fill="#ffffff"/>
<path d="M305.624 30.3058C306.699 29.8154 307.482 30.2077 307.482 30.2077C309.046 30.8942 309.438 31.1885 311.198 31.5808C314.621 32.3654 318.924 29.7173 318.924 23.2442C318.924 17.3596 314.132 16.4769 310.416 14.4173C308.264 13.2404 307.482 11.6712 307.384 10.2C307.286 9.02307 307.482 8.925 307.677 8.33654C307.873 7.74807 308.753 6.96346 309.046 6.66923C309.731 6.17884 311.785 5.59038 313.741 6.96346C316.186 8.72884 316.675 13.5346 317.164 14.1231C317.262 14.3192 317.751 14.4173 317.751 14.4173L317.457 6.08077C317.457 6.08077 317.066 6.17884 316.87 6.47307C316.381 7.25769 316.87 6.96346 316.186 7.25769C315.99 7.35577 315.599 7.25769 315.012 6.7673C314.328 6.17884 313.741 5.78654 313.056 5.59038C311.589 5.19807 311.1 5.19807 310.024 5.19807C306.504 5.19807 303.472 8.23846 303.472 13.2404C303.472 19.2231 307.971 20.2038 311.589 22.5577C312.763 23.3423 314.034 24.0288 314.621 25.9904C315.306 28.05 314.425 31.9731 311.296 30.8942C310.024 30.5019 308.949 29.8154 308.068 29.1288C306.797 28.05 306.015 26.8731 306.015 26.8731C305.917 26.8731 304.45 24.225 303.961 22.3615C303.765 21.8712 303.374 21.675 303.374 22.1654C303.276 24.4212 303.374 31.9731 303.374 31.9731C303.374 31.9731 303.57 32.0712 303.668 32.0712C304.254 32.0712 304.352 31.1885 304.548 30.9923C304.743 30.9923 305.037 30.6 305.624 30.3058Z" fill="#ffffff"/>
<path d="M328.9 18.7327H321.467V22.2635H328.9V18.7327Z" fill="#ffffff"/>
<path d="M333.007 30.1096C334.279 29.5212 335.257 30.0115 335.257 30.0115C337.213 30.7962 337.604 31.1885 339.756 31.6788C343.961 32.6596 349.046 29.4231 349.046 21.675C349.046 14.7115 343.276 13.5346 338.875 11.0827C336.333 9.61154 335.355 7.84615 335.257 5.98269C335.159 4.60962 335.355 4.41346 335.648 3.825C335.844 3.13846 336.919 2.15769 337.311 1.86346C338.093 1.275 340.636 0.588462 342.885 2.25577C345.721 4.31538 346.504 10.2 346.895 10.7885C346.993 11.0827 347.579 11.1808 347.579 11.1808L347.188 1.17692C347.188 1.17692 346.699 1.37308 346.504 1.66731C345.917 2.55 346.504 2.25577 345.721 2.64808C345.428 2.74615 345.037 2.64808 344.254 2.05962C343.472 1.37308 342.689 0.882692 341.907 0.588461C340.245 -1.16917e-07 339.756 0 338.386 0C334.083 0 330.465 3.62885 330.465 9.61154C330.465 16.7712 335.941 17.9481 340.244 20.7923C341.614 21.675 343.081 22.5577 343.863 24.9115C344.645 27.3635 343.57 32.0712 339.853 30.7962C338.386 30.3058 337.017 29.5212 336.039 28.6385C334.474 27.3635 333.594 25.9904 333.594 25.8923C333.496 25.8923 331.736 22.6558 331.149 20.4981C330.954 19.9096 330.465 19.6154 330.465 20.3019C330.367 23.0481 330.465 32.0712 330.465 32.0712C330.465 32.0712 330.758 32.1692 330.856 32.1692C331.54 32.1692 331.736 31.0904 331.834 30.8942C331.932 30.8942 332.421 30.4038 333.007 30.1096Z" fill="#ffffff"/>
<path d="M371.345 11.5731C371.345 10.0038 372.91 7.65 375.257 7.65C375.648 7.65 375.55 6.57115 375.159 6.57115C373.105 6.57115 368.9 6.57115 366.064 6.57115C365.672 6.57115 365.77 7.65 366.161 7.65C368.509 7.65 370.367 10.1019 370.367 11.5731V23.4404C370.367 27.0692 368.313 31.5808 363.13 30.6981C360.391 30.2077 358.337 27.5596 358.337 22.4596V11.5731C358.337 9.90577 359.609 7.74808 361.174 7.65C361.565 7.65 361.565 6.57115 361.174 6.57115C357.751 6.57115 354.621 6.66923 349.633 6.57115C349.242 6.57115 349.438 7.65 349.829 7.65C352.567 7.65 351.883 10.2 351.883 11.5731V22.4596C351.883 29.9135 356.675 32.0712 362.152 32.0712C366.455 32.0712 371.149 30.7961 371.149 23.3423V11.5731H371.345Z" fill="#ffffff"/>
<path d="M395.99 11.5731C395.99 10.0038 396.675 7.45384 399.511 7.35577C399.804 7.35577 399.804 6.57115 399.804 6.57115H390.709C390.709 6.57115 390.709 7.35577 391.002 7.35577C393.936 7.65 395.11 10.1019 395.11 11.5731V22.1654L382.494 6.57115C382.494 6.57115 376.528 6.57115 374.866 6.57115C373.496 6.57115 376.137 8.82692 376.43 9.70961C377.506 10.8865 378.386 11.9654 378.386 12.1615V26.6769C378.386 27.6577 376.626 30.6981 374.768 30.6981C374.474 30.6981 374.474 31.6788 374.474 31.6788H383.765C383.765 31.6788 383.863 30.6981 383.472 30.6981C381.712 30.6981 379.364 27.7558 379.364 26.6769V13.3385C379.364 13.3385 389.046 25.5981 395.306 32.2673C395.501 32.4635 396.088 32.1692 396.088 32.1692V11.5731H395.99Z" fill="#ffffff"/>
<path d="M125.672 41.1731H122.641V50.0981H120.782V41.1731H117.751V39.5058H125.672V41.1731Z" fill="#ffffff"/>
<path d="M130.171 44.7038H132.029C133.399 44.7038 133.888 43.9192 133.888 42.9385C133.888 41.9577 133.301 41.1731 132.225 41.1731H130.073V44.7038H130.171ZM131.051 46.2731H130.073V50.1962H128.215V39.5058H132.421C134.768 39.5058 135.746 41.1731 135.746 42.9385C135.746 44.4096 134.963 45.8808 133.105 46.2731L135.843 50.1962H133.594L131.051 46.2731Z" fill="#ffffff"/>
<path d="M138.778 46.3712V39.5058H140.636V46.2731C140.636 47.8423 141.614 48.4308 142.787 48.4308C143.863 48.4308 144.939 47.7442 144.939 46.2731V39.5058H146.797V46.3712C146.797 48.8231 144.939 50.2942 142.787 50.2942C140.636 50.2942 138.778 48.8231 138.778 46.3712Z" fill="#ffffff"/>
<path d="M149.633 47.0577H151.491C151.491 47.8423 152.274 48.6269 153.447 48.6269C154.523 48.6269 155.208 48.0385 155.208 47.1558C155.208 46.3711 154.621 45.9788 153.643 45.7827L152.274 45.3904C150.024 44.8019 149.633 43.4288 149.633 42.5461C149.633 40.6827 151.296 39.4077 153.252 39.4077C155.208 39.4077 156.675 40.5846 156.675 42.6442H154.817C154.817 41.7615 154.132 41.1731 153.154 41.1731C152.274 41.1731 151.491 41.7615 151.491 42.5461C151.491 42.8404 151.589 43.4288 152.763 43.8211L154.034 44.1154C155.697 44.6058 156.968 45.4885 156.968 47.1558C156.968 49.1173 155.306 50.3923 153.252 50.3923C151.198 50.2942 149.633 48.8231 149.633 47.0577Z" fill="#ffffff"/>
<path d="M166.748 41.1731H163.716V50.0981H161.858V41.1731H158.826V39.5058H166.748V41.1731Z" fill="#ffffff"/>
<path d="M176.039 48.4308V50.0981H169.389V39.5058H175.941V41.1731H171.247V44.0173H175.355V45.7827H171.247V48.4308H176.039Z" fill="#ffffff"/>
<path d="M183.276 48.4308C185.232 48.4308 186.21 46.7635 186.21 44.8019C186.21 42.8404 185.232 41.1731 183.276 41.1731H181.027V48.4308H183.276ZM179.071 39.5058H183.276C186.308 39.5058 188.068 41.8596 188.068 44.8019C188.068 47.8423 186.308 50.0981 183.276 50.0981H179.071V39.5058Z" fill="#ffffff"/>
<path d="M195.795 47.0577H197.653C197.653 47.8423 198.435 48.6269 199.609 48.6269C200.685 48.6269 201.369 48.0385 201.369 47.1558C201.369 46.3711 200.782 45.9788 199.804 45.7827L198.435 45.3904C196.186 44.8019 195.795 43.4288 195.795 42.5461C195.795 40.6827 197.457 39.4077 199.413 39.4077C201.369 39.4077 202.836 40.5846 202.836 42.6442H200.978C200.978 41.7615 200.293 41.1731 199.315 41.1731C198.435 41.1731 197.653 41.7615 197.653 42.5461C197.653 42.8404 197.751 43.4288 198.924 43.8211L200.196 44.1154C201.858 44.6058 203.13 45.4885 203.13 47.1558C203.13 49.1173 201.467 50.3923 199.413 50.3923C197.262 50.2942 195.795 48.8231 195.795 47.0577Z" fill="#ffffff"/>
<path d="M208.02 39.5058H206.161V50.0981H208.02V39.5058Z" fill="#ffffff"/>
<path d="M219.56 39.5058V50.0981H217.8L213.594 42.9385V50.0981H211.736V39.5058H213.496L217.702 46.5673V39.5058H219.56Z" fill="#ffffff"/>
<path d="M222.494 44.8019C222.494 41.7615 224.939 39.3096 227.873 39.3096C229.633 39.3096 231.1 40.0942 232.078 41.3692L230.709 42.4481C230.024 41.5654 229.144 41.075 227.971 41.075C225.917 41.075 224.45 42.7423 224.45 44.8019C224.45 46.8615 225.917 48.5288 227.971 48.5288C229.144 48.5288 230.122 47.9404 230.709 47.1558L232.078 48.2346C231.1 49.5096 229.633 50.2942 227.873 50.2942C224.939 50.2942 222.494 47.8423 222.494 44.8019Z" fill="#ffffff"/>
<path d="M241.467 48.4308V50.0981H234.817V39.5058H241.369V41.1731H236.675V44.0173H240.782V45.7827H236.675V48.4308H241.467Z" fill="#ffffff"/>
<path d="M253.496 39.2115V50.0981H251.638V41.8596L249.193 42.7423V40.9769L253.399 39.2115H253.496Z" fill="#ffffff"/>
<path d="M259.364 42.1538C259.364 42.8404 259.951 43.4288 260.734 43.4288C261.516 43.4288 262.103 42.8404 262.103 42.1538C262.103 41.4673 261.516 40.8788 260.734 40.8788C260.049 40.8788 259.364 41.4673 259.364 42.1538ZM262.885 46.7635C262.885 45.6846 261.907 44.9 260.734 44.9C259.56 44.9 258.582 45.6846 258.582 46.7635C258.582 47.8423 259.462 48.6269 260.734 48.6269C262.103 48.5288 262.885 47.7442 262.885 46.7635ZM264.939 46.8615C264.939 48.9211 263.179 50.2942 260.831 50.2942C258.484 50.2942 256.724 48.9211 256.724 46.9596C256.724 45.5865 257.604 44.4096 258.778 44.0173C258.093 43.625 257.604 42.9385 257.604 41.9577C257.604 40.3885 258.973 39.2115 260.831 39.2115C262.69 39.2115 264.059 40.3885 264.059 41.9577C264.059 42.9385 263.57 43.7231 262.885 44.0173C264.059 44.4096 264.939 45.4885 264.939 46.8615Z" fill="#ffffff"/>
<path d="M273.447 42.8404C273.447 41.7615 272.567 40.9769 271.491 40.9769C270.318 40.9769 269.438 41.7615 269.438 42.8404C269.438 43.8211 270.22 44.6058 271.394 44.7038C272.469 44.6058 273.35 43.9192 273.447 42.8404ZM275.501 44.4096C275.501 47.3519 274.132 50.2942 271.002 50.2942C269.633 50.2942 268.264 49.7058 267.579 48.1365L269.144 47.3519C269.535 48.2346 270.22 48.5288 271.002 48.5288C272.469 48.5288 273.545 47.1558 273.545 45.2923C273.056 45.8808 272.176 46.3711 271.1 46.3711C268.949 46.3711 267.482 44.8019 267.482 42.8404C267.482 40.8788 269.046 39.2115 271.394 39.2115C273.936 39.2115 275.501 41.3692 275.501 44.4096Z" fill="#ffffff"/>
<path d="M280.782 42.1538C280.782 42.8404 281.369 43.4288 282.152 43.4288C282.934 43.4288 283.521 42.8404 283.521 42.1538C283.521 41.4673 282.934 40.8788 282.152 40.8788C281.369 40.8788 280.782 41.4673 280.782 42.1538ZM284.303 46.7635C284.303 45.6846 283.325 44.9 282.152 44.9C280.978 44.9 280 45.6846 280 46.7635C280 47.8423 280.88 48.6269 282.152 48.6269C283.423 48.5288 284.303 47.7442 284.303 46.7635ZM286.357 46.8615C286.357 48.9211 284.597 50.2942 282.249 50.2942C279.902 50.2942 278.142 48.9211 278.142 46.9596C278.142 45.5865 279.022 44.4096 280.196 44.0173C279.511 43.625 279.022 42.9385 279.022 41.9577C279.022 40.3885 280.391 39.2115 282.249 39.2115C284.108 39.2115 285.477 40.3885 285.477 41.9577C285.477 42.9385 284.988 43.7231 284.303 44.0173C285.477 44.4096 286.357 45.4885 286.357 46.8615Z" fill="#ffffff"/>
</g>
<defs fill="#ffffff">
<clipPath id="clip0_1_31" fill="#ffffff">
<rect width="400" height="50" fill="#ffffff"/>
</clipPath>
</defs>
</svg>