<?xml version="1.0" encoding="utf-8"?>
<svg viewBox="-54.904 174.191 500.05 61.88" xmlns="http://www.w3.org/2000/svg">
  <g class="cls-2" transform="matrix(1, 0, 0, 1, -54.904221, 174.201218)">
    <path class="cls-3" d="M9.81.2C4.71.2.31,4.13,0,10.71v1.47c.38,7.69,6.91,9.09,12.08,12.27,1.72,1,3.59,2,4.53,4.76S16.3,37.53,11.68,36a13.86,13.86,0,0,1-4.75-2.49,18.64,18.64,0,0,1-3.09-3.18,30.89,30.89,0,0,1-3-6.29C.62,23.33,0,23,0,23.81s0,1.75,0,3v4.48c0,3.29,0,6.29,0,6.29l.49.15c.87,0,1.08-1.21,1.26-1.45a4.28,4.28,0,0,1,1.37-1A3.42,3.42,0,0,1,6,35.17a25.88,25.88,0,0,0,5.56,2c5.17,1.1,11.56-2.65,11.56-11.69,0-8.18-7.15-9.48-12.65-12.37C7.24,11.4,6.06,9.28,5.93,7.18a4.07,4.07,0,0,1,.45-2.56,7.43,7.43,0,0,1,2-2.31,6.47,6.47,0,0,1,6.92.44c3.58,2.45,4.45,9.24,5,10,.18.3.87.44.87.44L20.78,1.5a1.66,1.66,0,0,0-.81.57c-.78,1.06-.06.68-1,1.12-.31.12-.91,0-1.8-.73A9,9,0,0,0,14.35.77,14.11,14.11,0,0,0,9.81.2" style="fill: rgb(255, 255, 255);"/>
  </g>
  <path class="cls-3" d="M34.41,7.19s-5.88.08-10.07,0c-.5,0-.46,1.18-.46,1.18,3.19,0,3,2.78,3,4.71V30.64c0,1.93.54,4.84-2.65,4.88l-.85,1H38.54l-.76-1c-3.54,0-4-2.86-4-4.88V23.79l3.73-.09c7-.17,9.29-3.26,9.29-7.43,0-6.42-4.73-9.08-12.2-9.08h-.15m-.67,2.47c0-1.18.32-.85,1.46-.7,5.35.81,5.14,3.32,5.38,6.23.3,4.68-.57,7.49-2.91,7.55l-3.93.07V9.66" style="fill: rgb(255, 255, 255);" transform="matrix(1, 0, 0, 1, -54.904221, 174.201218)"/>
  <path class="cls-3" d="M47,7.19s-.42,1,0,1.09c3.29.33,3.07,3,3.07,4.84V30.64c0,1.86.34,4.36-2.47,4.84-.71.13-.56,1.09-.56,1.09H60s0-1-.45-1c-2.75-.13-2.95-3-3-5l0-7.55h4.72c1.67.53,1.67,2.43,1.85,2.83,2,3.76,1.6,8.2,2.8,10.65h10s.46-1,.08-1.09a14.34,14.34,0,0,1-4.62-2.57C69.56,29.75,70,25,64.6,22.94c-.29-.13-.67-.57.17-.94,1.39-.61,5.88-2.74,5.88-5.63A11.65,11.65,0,0,0,70.23,12c-1-3.52-6.08-4.81-11.85-4.81H47M59,22.33l-2.34-.09V9.05L59,9.37c4,.57,4.81,5.34,4.81,8.23s-1.51,4.74-4.52,4.74H59" style="fill: rgb(255, 255, 255);" transform="matrix(1, 0, 0, 1, -54.904221, 174.201218)"/>
  <path class="cls-3" d="M76.54,7.19s0,1,.39,1c2.53,0,2.79,3.06,2.79,4.95V29c0,1.9-.26,6.63-3.18,6.63-.5,0-.39.92-.39.92h13.2a2.49,2.49,0,0,1,.14-.93c-2.89-.23-2.55-4.77-2.55-6.62V13.12c0-1.89.18-4.95,2.67-4.95l.1,0c-.38-.55-.47-1,.22-1H76.54" style="fill: rgb(255, 255, 255);" transform="matrix(1, 0, 0, 1, -54.904221, 174.201218)"/>
  <path class="cls-3" d="M109.73,7.79s0,.88.39.92a5.33,5.33,0,0,1,5.13,4.94V26L99.42,7.79H89.9c-1.74,0,1.57,2.69,1.95,3.65a14,14,0,0,1,2.43,2.85V31.18c0,1.12-2.21,4.69-4.57,4.69-.42,0-.38,1.15-.38,1.15h11.61s.07-1.15-.39-1.15c-2.15,0-5.1-3.4-5.1-4.69l0-15.57s12.06,14.37,19.91,22c.27.3,1-.11,1-.11V13.65c0-1.85.92-4.81,4.43-4.94.33,0,.36-.92.36-.92H109.73" style="fill: rgb(255, 255, 255);" transform="matrix(1, 0, 0, 1, -54.904221, 174.201218)"/>
  <path class="cls-3" d="M118.7,22.36c0,7.32,5.12,13.8,11.5,15.41H136a13.4,13.4,0,0,0,2.3-.82c1.69-.75,3.21-2,4.86-2.73,1.25-.55,2.29,2.32,3.29,1.25,0,0-.7-4.69,0-7.51,0,0-.81-.47,1.48-.91.5-.13.77-1.32.77-1.32H136.41s.27,1.28.77,1.32c3,.2,2.48,2.32,2.48,2.32.12,3-.54,8-7.32,7.67-2.46-.13-3.82-2.38-4.67-5.31a35.56,35.56,0,0,1-1-9.53A29,29,0,0,1,128,12.94c.89-2.69,2.65-4.91,6.92-4.78,1.8,0,4.2,1.81,6.24,4.41,1.45,2,2.24,4.49,3.39,6.54.15.36,1.14.4,1.14.4s0-6.33,0-11.62c0-.4-.95.4-.95.4-.19.48-.42,1.59-1.45,1.92-.19.08-1.41-.84-2-1s-1.06-.44-1.58-.68a15.08,15.08,0,0,0-6.4-1.3c-7.73,0-14.63,6.7-14.63,15.17" style="fill: rgb(255, 255, 255);" transform="matrix(1, 0, 0, 1, -54.904221, 174.201218)"/>
  <path class="cls-3" d="M146.88,7.19l.38,1.09c3.14,0,2.31,3,2.31,4.84V30.64c0,1,.38,4.6-2.31,4.84l-.38,1.09h14.58L161,35.24c-3.52,0-3.81-2.58-3.81-4.6V22c3.74,0,6.82-.07,7.47,4.57l.75.92-.37-6.24.37-5.9-.86.92c-.5,5.05-3.37,4.88-7.36,4.88V8.48h2.42a17.68,17.68,0,0,1,6.41,1.42c1.65.81,2.76,1.29,5.69,5.25a6.89,6.89,0,0,0,1.51,1.16S170.89,8.48,170,7.19H146.88m26.78,0s0,1,.37,1c2.5,0,2.76,3.06,2.76,4.95V29c0,1.9-.26,6.63-3.13,6.63-.5,0-.39.92-.39.92H187s.11-.92-.39-.92c-3.09,0-2.76-4.73-2.76-6.63V13.12c0-1.89.2-4.95,2.65-4.95.39,0,.5-1,.5-1H173.66m14.68,0s-.25.89.08,1.09a5.24,5.24,0,0,1,2.45,4.84V30.64c0,1.73-.23,4.24-2.32,4.84-.43.13-.21,1.09-.21,1.09h23.21L214,27.14l-1.67.52c-2.88,4.23-5,7.82-10.69,7.82h-3.48V22c3.78,0,6.73-.07,7.37,4.57l.77.92-.39-6.13.39-6-.88.92c-.5,5.05-3.21,4.88-7.26,4.88V8.48h4.2a9.62,9.62,0,0,1,6.87,3.32c.81.88,1.52,2.14,2.64,3.59l1.74,1.05-3.46-9.25H188.34m25.88,0s-.13,1.18.38,1.29c2.69.61,3.12,2.71,3.12,4.64V30.64c0,1.93-.22,4.24-3,4.71-.46.1-.92,1.22-.46,1.22h23.7s5.07-12.87,2.21-9.72c-.64.68-.64,1.41-1.1,2.22-1.33,2.34-4.08,6.89-8.38,6.78-5.08-.17-5.54-.64-5.54-2.54V13.12c0-1.93.61-4.4,3.47-4.84.42-.07.38-1.09.38-1.09H214.22" style="fill: rgb(255, 255, 255);" transform="matrix(1, 0, 0, 1, -54.904221, 174.201218)"/>
  <path class="cls-3" d="M241,7.19s.11,1,.52,1.09c2.31.33,2.49,3,2.49,4.84V30.64c0,1.86,0,4.57-2.59,4.92-.24,0-.42,1-.42,1h16.58c8.14,0,13.39-5.6,13.39-14.68s-6.3-14.7-14-14.7H241m10.42,26.6V8.57c.49,0,2-.12,3.46-.09,6.68.09,8.64,6.23,8.72,13.41,0,4,.8,13.87-9.6,14h-.51c-2.07,0-2.07-.27-2.07-2.07m56.19-32s0,1.06.45,1.12c4.41.42,6.21,3.8,6.21,5.93V23.67L295.16,1.8h-11.5c-2.1,0,1.89,3.23,2.35,4.39A16.93,16.93,0,0,1,289,9.62V30c0,1.36-2.67,5.65-5.53,5.65-.51,0-.45,1.4-.45,1.4h14s.09-1.4-.46-1.4c-2.63,0-6.17-4.11-6.17-5.65l-.05-18.73s14.57,17.28,24.05,26.55h.86a2.43,2.43,0,0,0,.33-.15V8.85c0-2.22,1.11-5.78,5.32-5.93.43,0,.46-1.12.46-1.12H307.62" style="fill: rgb(255, 255, 255);" transform="matrix(1, 0, 0, 1, -54.904221, 174.201218)"/>
  <path class="cls-3" d="M319.05,7.19s-.28.89.07,1.09a5.25,5.25,0,0,1,2.44,4.84V30.64c0,1.73-.24,4.24-2.33,4.84-.42.13-.18,1.09-.18,1.09h23.18l2.49-9.43-1.68.52c-2.86,4.23-5,7.82-10.69,7.82h-3.46V22c3.77,0,6.71-.07,7.35,4.57l.77.92-.39-6.13.39-6-.88.92c-.5,5.05-3.21,4.88-7.24,4.88V8.48h4.19a9.64,9.64,0,0,1,6.86,3.32c.81.88,1.54,2.14,2.64,3.59l1.76,1.05-3.48-9.25H319.05m52.24,0,.46,1c2,0,4.52,2.38,4.52,2.82a4,4,0,0,1,0,.94l-4.56,14-5.84-14.07-.29-1a2.38,2.38,0,0,1,2.45-2.74l.39-1h-13l.57,1c1.46.75,1.63-.41,3.12,4.11l2.1,6.4L358.39,26c-1.46-4-4.41-12.48-4.83-13.81l-.92-2.95c.15.52-.5-1-.08-1l.61-.44V7.19H342.93c0,1.06,1.47,1.29,1.47,1.29,3.13,8.37,6.47,19.07,10.16,28.69h.53l6.42-16.28,6.67,16.28h1l8-24.45c.32-1,.78-3.9,2.8-4.35l.75-1.18h-9.41m8.81,8.17c0,6.93,5.6,8.08,10,10.8,1.43.89,3,1.68,3.76,4s-.26,6.94-4.1,5.7a12,12,0,0,1-3.94-2.08,16.69,16.69,0,0,1-2.57-2.65,25,25,0,0,1-2.47-5.24c-.2-.61-.69-.84-.69-.2-.07,2.68,0,11.41,0,11.41l.42.11c.72,0,.9-1,1.06-1.2a3.26,3.26,0,0,1,1.12-.79,2.84,2.84,0,0,1,2.34-.09,19.86,19.86,0,0,0,4.62,1.64c4.28.91,9.59-2.21,9.59-9.71,0-6.82-5.94-7.89-10.5-10.3-2.67-1.39-3.64-3.16-3.75-4.92a3.29,3.29,0,0,1,.38-2.12,6.17,6.17,0,0,1,1.68-1.91,5.34,5.34,0,0,1,5.76.34c3,2.05,3.68,7.69,4.17,8.29.15.24.71.37.71.37l-.36-9.7a1.52,1.52,0,0,0-.69.49c-.63.88,0,.55-.78.92-.27.13-.76,0-1.52-.6A7.8,7.8,0,0,0,392,6.47,11.71,11.71,0,0,0,388.26,6c-4.41,0-8.16,3.52-8.16,9.36" style="fill: rgb(255, 255, 255);" transform="matrix(1, 0, 0, 1, -54.904221, 174.201218)"/>
  <g class="cls-4" transform="matrix(1, 0, 0, 1, -54.904221, 174.201218)">
    <path class="cls-3" d="M402.28,25.78h9.59v-4.2h-9.59ZM423.62,0c-5.36,0-9.95,4.26-9.95,11.34,0,8.39,6.83,9.8,12.24,13.1,1.74,1,3.61,2,4.59,4.79s-.33,8.39-5,6.88a14.36,14.36,0,0,1-4.82-2.51,19.53,19.53,0,0,1-3.12-3.21,31.18,31.18,0,0,1-3-6.34c-.24-.74-.83-1-.83-.26-.09,3.26,0,13.83,0,13.83l.5.15c.88,0,1.1-1.22,1.28-1.46a4.52,4.52,0,0,1,1.38-1,3.48,3.48,0,0,1,2.85-.09,26.53,26.53,0,0,0,5.63,2c5.23,1.1,11.69-2.68,11.69-11.79,0-8.24-7.25-9.55-12.79-12.47C421,11.29,419.82,9.15,419.67,7a4.11,4.11,0,0,1,.46-2.58,7.46,7.46,0,0,1,2.07-2.33,6.56,6.56,0,0,1,7,.45c3.62,2.46,4.5,9.31,5.09,10,.18.29.88.44.88.44l-.46-11.73a1.61,1.61,0,0,0-.83.57c-.79,1.07-.05.69-1,1.13-.31.12-.92,0-1.83-.74A9.47,9.47,0,0,0,428.2.57,14.34,14.34,0,0,0,423.62,0M458.4,7.19c-.5,0-.35,1.29.14,1.29,2.94,0,5.33,2.84,5.33,4.61V27c0,4.31-2.53,9.57-9.07,8.56-3.47-.52-6.05-3.67-6.05-9.68V13.13c0-1.94,1.58-4.52,3.61-4.65.46,0,.46-1.29,0-1.29-4.25,0-8.18.13-14.46,0-.5,0-.18,1.29.31,1.29,3.48,0,2.65,2.95,2.65,4.65V25.91c0,8.79,6,11.26,12.84,11.26,5.43,0,11.31-1.49,11.31-10.31V13.09a5.14,5.14,0,0,1,4.41-4.58c-.58-.72-.86-1.32,0-1.32h-11" style="fill: rgb(255, 255, 255);"/>
  </g>
  <g class="cls-4" transform="matrix(1, 0, 0, 1, -54.904221, 174.201218)">
    <path class="cls-3" d="M489.14,7.79s.05.88.38.92a5.32,5.32,0,0,1,5.12,4.94V26L478.87,7.79h-9.48c-1.75,0,1.55,2.69,1.93,3.65a13.65,13.65,0,0,1,2.43,2.85V31.18c0,1.12-2.19,4.69-4.54,4.69-.42,0-.38,1.15-.38,1.15H480.4s.07-1.15-.39-1.15c-2.16,0-5.08-3.4-5.08-4.69l0-15.57s12,14.37,19.84,22c.26.3,1-.11,1-.11V13.65c0-1.83.89-4.75,4.28-4.93V7.79H489.14" style="fill: rgb(255, 255, 255);"/>
  </g>
  <path d="M37.73,53.07c0-4.29,2.86-6.32,6.12-6.32a5.75,5.75,0,0,1,4.84,2.32l-2,1.65a3.59,3.59,0,0,0-3-1.44c-1.68,0-3.14,1.26-3.14,3.74s1.36,3.65,3.17,3.65a3.07,3.07,0,0,0,3.07-2L49,55.83a5.64,5.64,0,0,1-5.47,3.3C40.16,59.13,37.73,56.81,37.73,53.07Z" transform="matrix(1, 0, 0, 1, -54.904221, 174.201218)" style="fill: rgb(255, 255, 255);"/>
  <path d="M50.48,59V46.4h2.65V59Z" transform="matrix(1, 0, 0, 1, -54.904221, 174.201218)" style="fill: rgb(255, 255, 255);"/>
  <path d="M60.68,53.44c0-.9-.24-1.44-1.36-1.44a7.71,7.71,0,0,0-2.87.55l-.81-2.18a9,9,0,0,1,4-.83c2.47,0,3.66,1,3.66,3.6v4h1.06v1.75a6.55,6.55,0,0,1-1.67.27c-1,0-1.6-.19-1.8-1.24l-.08-.49a3.29,3.29,0,0,1-3.27,1.73,2.67,2.67,0,0,1-2.87-2.82c0-1.86,1.51-3,3.84-3a8.84,8.84,0,0,1,2.2.27Zm0,1.7A6.8,6.8,0,0,0,59.39,55c-1.23,0-2.21.26-2.21,1s.41,1,1.35,1c1.38,0,2.15-.63,2.15-1.61Z" transform="matrix(1, 0, 0, 1, -54.904221, 174.201218)" style="fill: rgb(255, 255, 255);"/>
  <path d="M65.59,59V49.9l2-.18.47,1.88A3.7,3.7,0,0,1,71,49.7l.62,2.58c-2.53.06-3.36.89-3.36,2.12V59Z" transform="matrix(1, 0, 0, 1, -54.904221, 174.201218)" style="fill: rgb(255, 255, 255);"/>
  <path d="M75.51,56.72V59H72.88V46.4h2.63v7.17l3.06-3.79h2.75l-3,3.73L81.66,59H78.75l-2.21-3.5Z" transform="matrix(1, 0, 0, 1, -54.904221, 174.201218)" style="fill: rgb(255, 255, 255);"/>
  <path d="M91.51,53.44c0-.9-.24-1.44-1.36-1.44a7.71,7.71,0,0,0-2.87.55l-.81-2.18a9,9,0,0,1,4-.83c2.47,0,3.66,1,3.66,3.6v4h1.06v1.75a6.55,6.55,0,0,1-1.67.27c-1,0-1.6-.19-1.8-1.24l-.08-.49a3.3,3.3,0,0,1-3.27,1.73,2.67,2.67,0,0,1-2.87-2.82c0-1.86,1.51-3,3.84-3a8.84,8.84,0,0,1,2.2.27Zm0,1.7A6.8,6.8,0,0,0,90.22,55C89,55,88,55.26,88,56s.41,1,1.35,1c1.37,0,2.15-.63,2.15-1.61Z" transform="matrix(1, 0, 0, 1, -54.904221, 174.201218)" style="fill: rgb(255, 255, 255);"/>
  <path d="M96.4,59V49.9l2-.18.43,1.6a3.43,3.43,0,0,1,3.27-1.75c2.28,0,3.14,1.41,3.14,3.69V59h-2.66v-5c0-1.2-.37-1.86-1.54-1.86a1.74,1.74,0,0,0-2,1.94v5Z" transform="matrix(1, 0, 0, 1, -54.904221, 174.201218)" style="fill: rgb(255, 255, 255);"/>
  <path d="M106.72,54.33c0-2.54,1.24-4.76,3.84-4.76a3.27,3.27,0,0,1,3,1.51V46.4h2.66V58.87l-2,.2-.44-1.77a3.61,3.61,0,0,1-3.4,1.81C107.86,59.11,106.72,56.88,106.72,54.33Zm6.84,0A2.1,2.1,0,0,0,111.29,52c-1.31,0-1.86,1-1.86,2.36s.53,2.52,1.86,2.52A2.26,2.26,0,0,0,113.56,54.33Z" transform="matrix(1, 0, 0, 1, -54.904221, 174.201218)" style="fill: rgb(255, 255, 255);"/>
  <path d="M121.19,53.07c0-4.29,2.87-6.32,6.13-6.32a5.76,5.76,0,0,1,4.84,2.32l-2,1.65a3.57,3.57,0,0,0-3-1.44c-1.69,0-3.15,1.26-3.15,3.74s1.37,3.65,3.18,3.65a3.06,3.06,0,0,0,3.06-2l2.24,1.12a5.65,5.65,0,0,1-5.48,3.3C123.62,59.13,121.19,56.81,121.19,53.07Z" transform="matrix(1, 0, 0, 1, -54.904221, 174.201218)" style="fill: rgb(255, 255, 255);"/>
  <path d="M133.84,59V46.4h2.65v4.68a3.35,3.35,0,0,1,3.06-1.51c2.28,0,3.14,1.41,3.14,3.69V59H140v-5c0-1.2-.37-1.86-1.54-1.86a1.74,1.74,0,0,0-2,1.94v5Z" transform="matrix(1, 0, 0, 1, -54.904221, 174.201218)" style="fill: rgb(255, 255, 255);"/>
  <path d="M150.08,53.44c0-.9-.25-1.44-1.36-1.44a7.63,7.63,0,0,0-2.87.55L145,50.37a8.92,8.92,0,0,1,4-.83c2.46,0,3.66,1,3.66,3.6v4h1.05v1.75a6.55,6.55,0,0,1-1.67.27c-1,0-1.6-.19-1.79-1.24l-.09-.49a3.28,3.28,0,0,1-3.27,1.73A2.68,2.68,0,0,1,144,56.29c0-1.86,1.51-3,3.84-3a8.86,8.86,0,0,1,2.21.27Zm0,1.7a6.9,6.9,0,0,0-1.3-.14c-1.23,0-2.2.26-2.2,1s.4,1,1.34,1c1.38,0,2.16-.63,2.16-1.61Z" transform="matrix(1, 0, 0, 1, -54.904221, 174.201218)" style="fill: rgb(255, 255, 255);"/>
  <path d="M155,59V49.9l2-.18.42,1.6a3.29,3.29,0,0,1,3.18-1.75,2.45,2.45,0,0,1,2.7,1.88,3.47,3.47,0,0,1,3.29-1.88c2.28,0,3.05,1.41,3.05,3.69V59h-2.68v-5c0-1.2-.26-1.86-1.42-1.86-1.46,0-1.9.77-1.9,1.94v5H161v-5c0-1.2-.27-1.86-1.44-1.86-1.46,0-1.89.77-1.89,1.94v5Z" transform="matrix(1, 0, 0, 1, -54.904221, 174.201218)" style="fill: rgb(255, 255, 255);"/>
  <path d="M171.53,61.64V49.9l2-.18L174,51.4a3.62,3.62,0,0,1,3.41-1.83c2.52,0,3.66,2.24,3.66,4.78s-1.23,4.76-3.86,4.76a3.22,3.22,0,0,1-3-1.5v4Zm6.8-7.19c0-1.41-.53-2.45-1.86-2.45a2.22,2.22,0,0,0-2.29,2.45,2.16,2.16,0,0,0,2.29,2.41C177.76,56.86,178.33,55.86,178.33,54.45Z" transform="matrix(1, 0, 0, 1, -54.904221, 174.201218)" style="fill: rgb(255, 255, 255);"/>
  <path d="M187.89,53.44c0-.9-.24-1.44-1.36-1.44a7.63,7.63,0,0,0-2.87.55l-.81-2.18a8.92,8.92,0,0,1,4-.83c2.46,0,3.66,1,3.66,3.6v4h1.05v1.75a6.47,6.47,0,0,1-1.66.27c-1,0-1.61-.19-1.8-1.24l-.08-.49a3.3,3.3,0,0,1-3.28,1.73,2.67,2.67,0,0,1-2.86-2.82c0-1.86,1.5-3,3.84-3a8.84,8.84,0,0,1,2.2.27Zm0,1.7a6.9,6.9,0,0,0-1.3-.14c-1.23,0-2.2.26-2.2,1s.41,1,1.34,1c1.38,0,2.16-.63,2.16-1.61Z" transform="matrix(1, 0, 0, 1, -54.904221, 174.201218)" style="fill: rgb(255, 255, 255);"/>
  <path d="M192.86,49V46.65h2.71V49Zm0,10V49.78h2.66V59Z" transform="matrix(1, 0, 0, 1, -54.904221, 174.201218)" style="fill: rgb(255, 255, 255);"/>
  <path d="M205.82,48.42l.64,2.22h-1.8v.08A2,2,0,0,1,206,52.83c0,1.78-1.81,2.78-4.32,2.78a8.26,8.26,0,0,1-1.25-.09.69.69,0,0,0-.08.32c0,.34.19.45,1.63.47,3.78,0,5.11.63,5.11,2.3,0,2.11-2.22,3.26-6.21,3.26-2.82,0-4.06-.75-4.06-2.08,0-1.1.79-1.78,2.12-2a1.33,1.33,0,0,1-.84-1.26A1.79,1.79,0,0,1,199,55.1a2.59,2.59,0,0,1-1.57-2.4c0-2,1.76-3.13,4.28-3.13a11.46,11.46,0,0,1,1.58.11ZM204.37,59c0-.57-.54-.7-2.9-.77-1,0-1.95.28-1.95.94s.6.88,1.69.88C203.22,60.07,204.37,59.75,204.37,59Zm-1-6.18c0-.76-.61-1.15-1.71-1.15s-1.69.39-1.69,1.15.65,1.17,1.69,1.17S203.39,53.61,203.39,52.84Z" transform="matrix(1, 0, 0, 1, -54.904221, 174.201218)" style="fill: rgb(255, 255, 255);"/>
  <path d="M208.19,59V49.9l2-.18.42,1.6a3.43,3.43,0,0,1,3.27-1.75c2.29,0,3.14,1.41,3.14,3.69V59h-2.65v-5c0-1.2-.38-1.86-1.54-1.86a1.73,1.73,0,0,0-2,1.94v5Z" transform="matrix(1, 0, 0, 1, -54.904221, 174.201218)" style="fill: rgb(255, 255, 255);"/>
  <path d="M221.94,53.07c0-4.29,2.87-6.32,6.13-6.32a5.76,5.76,0,0,1,4.84,2.32l-2,1.65a3.6,3.6,0,0,0-3-1.44c-1.69,0-3.14,1.26-3.14,3.74s1.36,3.65,3.17,3.65a3.06,3.06,0,0,0,3.06-2l2.24,1.12a5.65,5.65,0,0,1-5.48,3.3C224.37,59.13,221.94,56.81,221.94,53.07Z" transform="matrix(1, 0, 0, 1, -54.904221, 174.201218)" style="fill: rgb(255, 255, 255);"/>
  <path d="M234.16,54.35a4.8,4.8,0,0,1,9.59,0,4.8,4.8,0,1,1-9.59,0Zm6.92.07c0-1.46-.73-2.42-2.13-2.42s-2.1,1-2.1,2.42.73,2.44,2.1,2.44S241.08,55.87,241.08,54.42Z" transform="matrix(1, 0, 0, 1, -54.904221, 174.201218)" style="fill: rgb(255, 255, 255);"/>
  <path d="M245.24,55.42V49.78h2.66V55c0,1.2.35,1.86,1.52,1.86a1.7,1.7,0,0,0,1.94-1.93V49.78H254v9.07l-2,.2-.42-1.64a3.47,3.47,0,0,1-3.26,1.7C246,59.11,245.24,57.72,245.24,55.42Z" transform="matrix(1, 0, 0, 1, -54.904221, 174.201218)" style="fill: rgb(255, 255, 255);"/>
  <path d="M256,59V49.9l2-.18.42,1.6a3.44,3.44,0,0,1,3.27-1.75c2.29,0,3.15,1.41,3.15,3.69V59H262.2v-5c0-1.2-.37-1.86-1.54-1.86a1.73,1.73,0,0,0-2,1.94v5Z" transform="matrix(1, 0, 0, 1, -54.904221, 174.201218)" style="fill: rgb(255, 255, 255);"/>
  <path d="M267.63,52.07h-1.78V49.78h1.92l.46-2.15,2.07-.47v2.62h2.87v2.29H270.3v3.46c0,.94.13,1.19.89,1.19a4.92,4.92,0,0,0,1.77-.36l.69,2.07a8,8,0,0,1-3.37.7c-2,0-2.65-1.15-2.65-2.93Z" transform="matrix(1, 0, 0, 1, -54.904221, 174.201218)" style="fill: rgb(255, 255, 255);"/>
  <path d="M275.11,49V46.65h2.71V49Zm0,10V49.78h2.66V59Z" transform="matrix(1, 0, 0, 1, -54.904221, 174.201218)" style="fill: rgb(255, 255, 255);"/>
  <path d="M282.11,55.39a1.83,1.83,0,0,0,2,1.57,4.53,4.53,0,0,0,3-1l1.2,1.67a6.43,6.43,0,0,1-4.47,1.56c-3.16,0-4.38-2.19-4.38-4.8a4.45,4.45,0,0,1,4.73-4.78c3.6,0,4.15,2.74,4,5.82Zm3.61-1.93c0-1.13-.55-1.62-1.57-1.62a1.87,1.87,0,0,0-2,1.62Z" transform="matrix(1, 0, 0, 1, -54.904221, 174.201218)" style="fill: rgb(255, 255, 255);"/>
  <path d="M289.14,57.74l1.43-1.8A5,5,0,0,0,293.78,57c.82,0,1.37-.16,1.37-.7s-.58-.66-1.88-.82c-1.58-.2-3.63-.57-3.63-2.95,0-1.94,1.67-3,3.68-3a7.78,7.78,0,0,1,4,.89l-1,2.11a6,6,0,0,0-2.86-.7c-.68,0-1.14.15-1.14.6,0,.6.54.68,1.67.83,1.6.21,3.79.47,3.79,2.82,0,2.12-1.88,3-4.13,3A6.77,6.77,0,0,1,289.14,57.74Z" transform="matrix(1, 0, 0, 1, -54.904221, 174.201218)" style="fill: rgb(255, 255, 255);"/>
  <path d="M299.19,51.48c1.16-.53,1.34-.76,1.34-1.5h-1.44V47h3.08v2.13c0,2.09-.29,2.8-2.34,3.69Z" transform="matrix(1, 0, 0, 1, -54.904221, 174.201218)" style="fill: rgb(255, 255, 255);"/>
  <path d="M306.7,59V47h2.77v4.6h5.41V47h2.78V59h-2.78V54.16h-5.41V59Z" transform="matrix(1, 0, 0, 1, -54.904221, 174.201218)" style="fill: rgb(255, 255, 255);"/>
  <path d="M319.4,54.35a4.8,4.8,0,0,1,9.6,0,4.8,4.8,0,0,1-9.6,0Zm6.92.07c0-1.46-.73-2.42-2.12-2.42s-2.11,1-2.11,2.42.73,2.44,2.11,2.44S326.32,55.87,326.32,54.42Z" transform="matrix(1, 0, 0, 1, -54.904221, 174.201218)" style="fill: rgb(255, 255, 255);"/>
  <path d="M330.53,59V49.9l2-.18.42,1.6a3.3,3.3,0,0,1,3.18-1.75,2.45,2.45,0,0,1,2.71,1.88,3.44,3.44,0,0,1,3.28-1.88c2.29,0,3.05,1.41,3.05,3.69V59h-2.67v-5c0-1.2-.26-1.86-1.43-1.86-1.46,0-1.89.77-1.89,1.94v5h-2.66v-5c0-1.2-.28-1.86-1.44-1.86-1.46,0-1.9.77-1.9,1.94v5Z" transform="matrix(1, 0, 0, 1, -54.904221, 174.201218)" style="fill: rgb(255, 255, 255);"/>
  <path d="M349.34,55.39a1.84,1.84,0,0,0,2,1.57,4.5,4.5,0,0,0,3-1l1.2,1.67A6.43,6.43,0,0,1,351,59.15c-3.16,0-4.38-2.19-4.38-4.8a4.45,4.45,0,0,1,4.73-4.78c3.6,0,4.15,2.74,4,5.82ZM353,53.46c0-1.13-.55-1.62-1.58-1.62a1.87,1.87,0,0,0-2,1.62Z" transform="matrix(1, 0, 0, 1, -54.904221, 174.201218)" style="fill: rgb(255, 255, 255);"/>
  <path d="M358,52.07H356.2V49.78h1.92l.46-2.15,2.07-.47v2.62h2.87v2.29h-2.87v3.46c0,.94.13,1.19.89,1.19a4.92,4.92,0,0,0,1.77-.36l.7,2.07a8,8,0,0,1-3.37.7c-2,0-2.66-1.15-2.66-2.93Z" transform="matrix(1, 0, 0, 1, -54.904221, 174.201218)" style="fill: rgb(255, 255, 255);"/>
  <path d="M364.62,54.35a4.8,4.8,0,0,1,9.59,0,4.8,4.8,0,1,1-9.59,0Zm6.92.07c0-1.46-.73-2.42-2.12-2.42s-2.11,1-2.11,2.42.73,2.44,2.11,2.44S371.54,55.87,371.54,54.42Z" transform="matrix(1, 0, 0, 1, -54.904221, 174.201218)" style="fill: rgb(255, 255, 255);"/>
  <path d="M377.53,59.07l-3-9.29h2.72l1.65,5.62,1.7-5.62h2.48l1.72,5.62,1.63-5.62h2.5l-3,9.29h-2.43l-1.79-5.71L380,59.07Z" transform="matrix(1, 0, 0, 1, -54.904221, 174.201218)" style="fill: rgb(255, 255, 255);"/>
  <path d="M390.15,59V49.9l2-.18.42,1.6a3.46,3.46,0,0,1,3.28-1.75c2.28,0,3.14,1.41,3.14,3.69V59h-2.66v-5c0-1.2-.37-1.86-1.54-1.86a1.73,1.73,0,0,0-2,1.94v5Z" transform="matrix(1, 0, 0, 1, -54.904221, 174.201218)" style="fill: rgb(255, 255, 255);"/>
  <path d="M404.55,59V47h3.05l5.27,7.36V47h2.64V59h-2.58l-5.72-8v8Z" transform="matrix(1, 0, 0, 1, -54.904221, 174.201218)" style="fill: rgb(255, 255, 255);"/>
  <path d="M419.94,55.39a1.84,1.84,0,0,0,2,1.57,4.49,4.49,0,0,0,3-1l1.2,1.67a6.43,6.43,0,0,1-4.47,1.56c-3.16,0-4.37-2.19-4.37-4.8A4.45,4.45,0,0,1,422,49.57c3.59,0,4.14,2.74,4,5.82Zm3.62-1.93c0-1.13-.55-1.62-1.57-1.62a1.88,1.88,0,0,0-2.05,1.62Z" transform="matrix(1, 0, 0, 1, -54.904221, 174.201218)" style="fill: rgb(255, 255, 255);"/>
  <path d="M429.62,59.07l-3-9.29h2.72L431,55.4l1.71-5.62h2.47l1.72,5.62,1.64-5.62H441l-3,9.29h-2.43l-1.78-5.71-1.78,5.71Z" transform="matrix(1, 0, 0, 1, -54.904221, 174.201218)" style="fill: rgb(255, 255, 255);"/>
  <path d="M441.17,57.74l1.42-1.8A5,5,0,0,0,445.8,57c.83,0,1.38-.16,1.38-.7s-.58-.66-1.88-.82c-1.59-.2-3.63-.57-3.63-2.95,0-1.94,1.67-3,3.68-3a7.74,7.74,0,0,1,4,.89l-1,2.11a6.11,6.11,0,0,0-2.87-.7c-.68,0-1.13.15-1.13.6,0,.6.53.68,1.67.83,1.6.21,3.79.47,3.79,2.82,0,2.12-1.88,3-4.13,3A6.76,6.76,0,0,1,441.17,57.74Z" transform="matrix(1, 0, 0, 1, -54.904221, 174.201218)" style="fill: rgb(255, 255, 255);"/>
</svg>