<svg xmlns="http://www.w3.org/2000/svg" viewBox="1.11 1 249.95 298.91"><path fill="#600" d="m128.47 1.0029c-0.77305-0.00645-1.5352-0.00273-2.2852 0.00977-6 0-12.699 0.39961-20.699 1.5996-4 0.8-4.1008 5.5008-3.3008 8.8008 0.8 2.8 7.6008 0.39961 7.3008 2.5996l-93.903 240.4-3.8008 3.8008c-3 1.4-4.7988-2.4008-7.2988-2.3008-2.4 1.4-3.9012 4.2996-3.2012 7.5996 4.1 6.7 9.7016 11.901 15.102 17.701 5.3 5.2 10.499 10.798 17.699 13.398 10.3-6-4.7996-11.6-0.59961-19.5l36.9-87.398h111.3l36.9 87.398c4.3 7.9-10.9 13.5-0.59961 19.5 7.2-2.6 12.499-8.1984 17.699-13.398 5.4-5.8 11-11.001 15.1-17.701 0.9-3.4-0.5-6.2992-3-7.6992-2.5-0.1-4.1988 3.6988-7.2988 2.2988l-3.8008-3.7988-93.799-240.3c-0.4-2.2 6.4988 0.20039 7.2988-2.5996 0.9-3.3 0.80117-7.9008-3.2988-8.8008-7-1.05-13.005-1.5643-18.416-1.6094zm-76.938 34.603c-0.46328 0.03867-1.007 0.16875-1.6445 0.40625-12.7 5.7-22.202 14.6-33.102 25-3 3.1-5.1988 7.4012-3.7988 12.201 1.8 4.5 9.2004-6.3016 10.9-4.1016v151.8l20.199-51.9v-111.1l2.3008-7.9004c2.3-3.6 6.6996-3.2996 7.5996-7.5996 0.0875-2.8875 0.78789-7.0773-2.4551-6.8066zm149.44 0.10156c-3.1773-0.2707-2.4883 3.9172-2.4883 6.8047 0.7 4.2 5.2 3.9 7.5 7.5l2.2988 7.9004v111.1l20.301 51.9v-151.8c1.6-2.3 9.1004 8.6012 10.9 4.2012 1.4-4.8-0.80078-9.1012-3.8008-12.201-11-10.4-20.4-19.3-33.1-25-0.625-0.2375-1.1574-0.36562-1.6113-0.4043zm-74.789 6.5059 49.6 124.7h-99.299l49.699-124.7zm-4.2988 39c0.1-0.1-3.8008 0.1-4.3008 2-0.7 3.1 2.5008 2.8984 2.3008 4.3984l-26.992 69.498c-0.9 2.4-3.8012 4.9012-6.7012 4.7012-0.9 0-1.2 2.6988 0 3.7988h22.701c1.5-0.1 1.5-1.6992 1.5-3.1992 0.4-3-4.5008-0.30078-3.8008-2.3008l4.6992-11.6h29.801l4.6992 11.6c0.7 2-4.1988-0.69922-3.7988 2.3008 0 1.5-0.1 3.0992 1.5 3.1992h22.6c1.2-1 0.9-3.7988 0-3.7988-2.9 0.2-5.7992-2.3012-6.6992-4.7012l-27-69.5c-0.2-1.5 2.9988-1.2984 2.2988-4.3984-0.4-1.9-4.4004-2-4.4004-2h-8.3984zm4.2988 28.799 10.9 26.9h-21.9l11-26.9zm-44.799 82.1c-2.2 0.5-1.8012 3.1004-1.2012 4.4004 0.9 0.5 1.9004 0.60117 2.9004 1.2012 1.5 1.8-12.699 34.799-12.699 34.799-1.4 4.7-1.5016-0.80039-4.1016 2.0996-1.2 1.2-1.1988 2.6-0.29883 3.5 4.4 4.7 8.1988 11.701 14.799 14.201 4.6-2.3-0.3-5.5004 0-8.4004l13.701-33.699h0.90039l30.799 58.398 30.801-58.398h0.90039l13.699 33.699c0.3 2.9-4.6 6.2004 0 8.4004 6.7-2.6 10.401-9.5012 14.801-14.201 0.9-0.9 0.89922-2.3-0.30078-3.5-2.6-2.9-2.6992 2.6004-4.1992-2.0996 0 0-14.201-32.999-12.701-34.799 1-0.5 2.0004-0.60117 2.9004-1.2012 0.6-1.3 1.0008-3.9004-1.1992-4.4004h-19.201l-25.6 47.102-25.6-47.102h-19.1zm-25.4 37.5-11.6 30.301s29.499 40 81.799 40 81.801-40 81.801-40l-11.6-30.199s-20.901 43.699-70.201 43.699c-49.4 0-70.199-43.801-70.199-43.801z"/></svg>