<svg xmlns="http://www.w3.org/2000/svg" xmlns:xlink="http://www.w3.org/1999/xlink" version="1.1" style="shape-rendering:geometricPrecision; text-rendering:geometricPrecision; image-rendering:optimizeQuality; fill-rule:evenodd; clip-rule:evenodd" viewBox="-0.5 -0.5 453 440">
<g><path style="opacity:0.981" fill="#225dab" d="M 71.5,-0.5 C 73.5,-0.5 75.5,-0.5 77.5,-0.5C 53.5098,17.1289 46.0098,40.1289 55,68.5C 63.8641,86.6863 78.3641,97.1863 98.5,100C 104.491,100.499 110.491,100.666 116.5,100.5C 113.17,106.503 110.336,112.837 108,119.5C 105.956,125.711 104.956,132.045 105,138.5C 110.529,123.59 119.362,111.09 131.5,101C 138.404,99.4284 145.404,98.4284 152.5,98C 171.892,95.9254 191.226,96.2588 210.5,99C 216.556,99.7893 221.723,102.289 226,106.5C 232.187,101.324 239.353,98.4905 247.5,98C 270.877,96.463 294.211,97.1297 317.5,100C 326.642,105.142 333.808,112.308 339,121.5C 341.667,126.833 344.333,132.167 347,137.5C 346.492,124.475 342.659,112.475 335.5,101.5C 357.684,103.058 376.184,95.7243 391,79.5C 405.558,56.1748 404.558,33.5081 388,11.5C 383.522,7.36541 379.022,3.36541 374.5,-0.5C 376.5,-0.5 378.5,-0.5 380.5,-0.5C 422.212,5.87851 446.212,29.8785 452.5,71.5C 452.5,76.5 452.5,81.5 452.5,86.5C 448.436,119.084 432.103,143.584 403.5,160C 414.991,163.096 426.657,164.096 438.5,163C 441.713,162.394 444.713,161.227 447.5,159.5C 447.833,159.833 448.167,160.167 448.5,160.5C 438.241,189.258 418.574,208.425 389.5,218C 382.272,219.89 374.938,221.223 367.5,222C 369.361,227.996 370.528,234.163 371,240.5C 372.361,255.686 371.361,270.686 368,285.5C 364.262,292.573 359.096,298.406 352.5,303C 336.209,312.623 321.042,323.789 307,336.5C 303.974,340.852 300.974,345.185 298,349.5C 289.833,345.722 281.333,343.055 272.5,341.5C 274.493,313.19 282.159,286.523 295.5,261.5C 320.864,258.968 335.197,245.134 338.5,220C 338.363,217.102 337.863,214.269 337,211.5C 308.428,227.302 288.761,250.636 278,281.5C 270.36,302.868 265.86,324.868 264.5,347.5C 279.991,348.603 293.491,354.269 305,364.5C 311.01,384.826 306.177,402.326 290.5,417C 286.714,420.226 282.381,422.393 277.5,423.5C 267.772,416.47 257.105,411.303 245.5,408C 249.939,396.056 258.272,388.556 270.5,385.5C 277.527,386.024 282.027,389.691 284,396.5C 289.163,387.669 288.33,379.502 281.5,372C 274.94,369.1 268.607,369.766 262.5,374C 251.346,382.796 243.513,393.963 239,407.5C 230.345,404.994 221.678,404.994 213,407.5C 208.612,394.788 201.446,383.955 191.5,375C 173.003,365 164.503,370.5 166,391.5C 166.471,393.246 167.138,394.913 168,396.5C 174.051,385.195 182.551,383.028 193.5,390C 198.93,395.031 203.264,400.864 206.5,407.5C 195.106,411.113 184.606,416.447 175,423.5C 165.103,420.381 157.436,414.381 152,405.5C 144.156,393.302 142.156,380.302 146,366.5C 150.716,360.132 156.883,355.632 164.5,353C 171.991,350.377 179.658,348.544 187.5,347.5C 186.217,310.338 175.383,276.338 155,245.5C 144.117,231.284 130.784,219.95 115,211.5C 112.797,241.153 126.63,257.82 156.5,261.5C 170.065,286.421 177.732,313.087 179.5,341.5C 170.667,343.055 162.167,345.722 154,349.5C 149.493,341.356 143.659,334.19 136.5,328C 125.512,319.838 114.179,312.172 102.5,305C 97.2004,301.425 92.3671,297.258 88,292.5C 83.6634,285.487 81.3301,277.82 81,269.5C 79.6674,253.618 80.8341,237.952 84.5,222.5C 44.9715,217.932 17.9715,197.265 3.5,160.5C 3.83333,160.167 4.16667,159.833 4.5,159.5C 10.2213,162.805 16.388,164.138 23,163.5C 31.6219,163.258 40.1219,162.091 48.5,160C 18.8555,142.537 2.52212,116.703 -0.5,82.5C -0.5,79.8333 -0.5,77.1667 -0.5,74.5C 4.40154,31.2635 28.4015,6.26352 71.5,-0.5 Z M 83.5,174.5 C 96.477,175.245 108.477,179.078 119.5,186C 126.007,190.086 132.34,194.42 138.5,199C 149.469,208.481 160.802,217.481 172.5,226C 179.846,230.67 187.846,233.67 196.5,235C 186.098,238.839 176.098,237.839 166.5,232C 148.167,218.333 129.833,204.667 111.5,191C 99.6534,184.075 86.9867,179.409 73.5,177C 76.9523,176.115 80.2856,175.282 83.5,174.5 Z M 364.5,174.5 C 369.547,175.007 374.547,175.84 379.5,177C 360.687,180.242 343.687,187.576 328.5,199C 315.12,210.048 301.453,220.715 287.5,231C 277.452,237.821 266.786,239.155 255.5,235C 264.938,233.632 273.605,230.299 281.5,225C 292.382,217.386 302.716,209.053 312.5,200C 322.494,192.332 333.161,185.666 344.5,180C 351.129,177.513 357.796,175.679 364.5,174.5 Z"/></g>
<g><path style="opacity:0.756" fill="#225dab" d="M 399.5,238.5 C 410.989,237.155 415.823,242.155 414,253.5C 410.723,259.109 405.89,260.942 399.5,259C 393.891,255.723 392.058,250.89 394,244.5C 395.36,241.977 397.193,239.977 399.5,238.5 Z M 408.5,254.5 C 408.489,252.983 407.823,251.816 406.5,251C 409.167,248.667 409.167,246.333 406.5,244C 404.19,243.503 401.857,243.337 399.5,243.5C 405.637,240.566 409.637,242.566 411.5,249.5C 411.243,251.692 410.243,253.359 408.5,254.5 Z M 399.5,243.5 C 399.5,247.167 399.5,250.833 399.5,254.5C 395.5,250.833 395.5,247.167 399.5,243.5 Z M 408.5,254.5 C 405.5,257.167 402.5,257.167 399.5,254.5C 402.5,253.167 405.5,253.167 408.5,254.5 Z"/></g>
<g><path style="opacity:0.743" fill="#225dab" d="M 399.5,243.5 C 401.857,243.337 404.19,243.503 406.5,244C 409.167,246.333 409.167,248.667 406.5,251C 407.823,251.816 408.489,252.983 408.5,254.5C 405.5,253.167 402.5,253.167 399.5,254.5C 399.5,250.833 399.5,247.167 399.5,243.5 Z"/></g>
<g><path style="opacity:0.95" fill="#225dab" d="M 259.5,439.5 C 253.167,439.5 246.833,439.5 240.5,439.5C 231.163,436.893 221.83,436.893 212.5,439.5C 205.833,439.5 199.167,439.5 192.5,439.5C 188.355,437.877 184.855,435.211 182,431.5C 181.219,430.056 181.386,428.723 182.5,427.5C 211.345,409.015 240.345,408.848 269.5,427C 270.167,427.667 270.833,428.333 271.5,429C 268.863,434.138 264.863,437.638 259.5,439.5 Z"/></g>
</svg>