<svg xmlns="http://www.w3.org/2000/svg" viewBox="1.01 1.01 245 223.19">
 <g transform="matrix(2.458 0 0 2.458 .57142 1.0114)">
  <path d="m93 23.3c1.2-4.6 3-15.4-4.8-20.8-2.3-1.6-5-2.4-8-2.4-5.7 0-10.9 2.9-13.2 4.5-8.3-1.2-14-1.3-16.2-1.3h-1.5c-2.2 0-7.9 0.1-16.2 1.3-2.4-1.7-7.6-4.6-13.3-4.6-3 0-5.7 0.8-8 2.4-6.6 4.6-6.8 13.7-4.8 20.7-1.9 3.3-6 11-6.6 19.3-0.5 4.2-0.2 8.6 1.4 12.6v0.1l1.8-1.3c0.8 9.2 5 24.5 22.8 29.6l6.9 1.9c0.2 0.2 0.4 0.5 0.6 0.7 3 3.2 8.4 4.8 16.1 4.8 7.6 0 13-1.6 16.1-4.8 0.2-0.2 0.4-0.5 0.6-0.7l6.9-1.9c17.8-5 21.9-20.4 22.8-29.6l1.8 1.3v-0.1c5.3-12.9-3.7-29.2-5.2-31.7z" fill="#7c878e"/>
  <path d="m89.5 24c0.5-1.5 4.3-13.9-3.1-19-1.8-1.2-3.9-1.9-6.3-1.9-6 0-11.6 4-12.5 4.6-8.6-1.3-14.7-1.4-16.9-1.4h-1.5c-2.2 0-8.2 0.1-16.9 1.4-0.9-0.6-6.5-4.6-12.5-4.6-2.3 0-4.5 0.6-6.3 1.9-7.4 5.1-3.6 17-3.2 18.5-0.9 1.4-8.7 14.7-6.6 25.8l0.3 0.4 0.4-0.3s1.1-0.8 2.3-1.9c-0.3 4.5-0.5 26.8 20.6 32.8l0.6 0.2-0.3-0.5s-0.4-0.9-0.7-2.1c2.3 0.8 4.8 1.4 7.6 1.8l0.1 0.8c0 0.1-0.1 1.8 1.6 3.5 1.7 1.8 5.4 3.9 13.8 3.9s12.1-2.1 13.8-3.9 1.6-3.5 1.6-3.5l0.1-0.8c2.8-0.4 5.3-1 7.6-1.8-0.3 1.3-0.7 2.1-0.7 2.1l-0.3 0.6 0.6-0.2c21.1-6 20.9-28.3 20.6-32.8 1.1 1 2.3 1.9 2.3 1.9l0.4 0.3 0.1-0.5c2.2-11.1-5.7-23.9-6.6-25.3z"/>
  <path d="m35 27c-0.3 0.4-0.40039 0.69961-0.40039 1.0996 0 0.9 0.60039 1.7 1.4004 2-0.1-0.2-0.19922-0.39961-0.19922-0.59961 0-0.6 0.49922-1.1992 1.1992-1.1992 0.6 0 1.1992 0.49922 1.1992 1.1992 0 0.2-0.099219 0.39961-0.19922 0.59961 0.6-0.3 1.0992-0.89961 1.1992-1.5996-1.4-0.3-2.7992-0.9-4.1992-1.5zm30.1 0.09961c-1.4 0.6-2.7992 1.1-4.1992 1.5 0.2 0.9 0.89883 1.6008 1.7988 1.8008-0.2-0.2-0.29883-0.50117-0.29883-0.70117 0-0.6 0.49922-1.1992 1.1992-1.1992 0.6 0 1.2012 0.49922 1.2012 1.1992 0 0.1-0.0016 0.20078-0.10156 0.30078 0.4-0.6 0.70117-1.2008 0.70117-1.8008 0-0.4-0.10078-0.79961-0.30078-1.0996zm-22.6 24.701s-0.20078 3.7996 2.6992 6.5996c0 0-0.59961-2.7996-0.09961-4.5996l2 2.0996 0.59961-1.5996 1.4004 1.7988 0.90039-2 0.90039 2 1.4004-1.7988 0.59961 1.5996 2-2.0996c0.6 1.8-0.09961 4.5996-0.09961 4.5996 2.9-2.8 2.6992-6.5996 2.6992-6.5996s-4 1.0996-7.5 1.0996-7.5-1.0996-7.5-1.0996zm2.5 18.699s-1.2008 1.9996-0.30078 4.0996c0 0 1.3008 0.70117 5.3008 0.70117s5.3-0.70117 5.5-0.70117c0.9-2.1-0.30078-4.0996-0.30078-4.0996s-0.09883 1.5004-1.2988 2.9004l-1-1.2012-0.90039 1.1016-0.90039-1-1 1.0996-1-1.0996-0.90039 1-0.89844-1.1016-1 1.2012c-1.2-1.4-1.3008-2.9004-1.3008-2.9004z" fill="#fff"/>
  <path d="m79.021 7.6641c-4.9058 0.14853-10.121 4.8359-10.121 4.8359s-4.8008-2-18.801-2-18.799 2-18.799 2-8.0004-6.9996-13.4-4.0996c-5.6 3-4.5 12.5 1 15.9 0 0-3.6008-6.5004 2.1992-9.9004 0 0-0.69883-0.50039-2.7988-0.90039 0 0 6.6996-2.5 10.1 2.5 0 0-8.9008 4.6992 5.1992 8.6992 0 0-1.0996-2.3-1.0996-4 0 0 16 11.601 17.5 0.70117 1.5 10.9 17.5-0.70117 17.5-0.70117 0 1.7-1.0996 4-1.0996 4 14.1-4.1 5.1992-8.6992 5.1992-8.6992 3.4-5 10.1-2.5 10.1-2.5-2.1 0.4-2.7988 0.90039-2.7988 0.90039 5.8 3.5 2.1992 9.9004 2.1992 9.9004 5.6-3.4 6.6012-12.9 1.2012-15.9-1.0312-0.5625-2.1472-0.77061-3.2793-0.73633zm-64.621 18.736c-2.9 5.8-4.1004 13-2.9004 20.5 2.2 13.7 11.701 24.1 22.801 26-2.1-3-5.7012-9.7996-6.2012-21.6-0.5-11.7 5.4996-15 9.0996-16 0.4 0.1 0.80078 0.19883 1.3008 0.29883 0 0-8.4992 4.4012-1.6992 20.201 0 0 0.09963-7.7008 7.5996-5.8008 5.2 1.3 4.9004-3.6992 4.9004-3.6992s-0.3004-2.2012-2.9004-2.2012c-2.6 0-2.0996 2.3008-2.0996 2.3008s-4.4004-0.20079-4.4004-3.3008 3.0988-5 10.299-5 10.201 2 10.201 5-4.4004 3.3008-4.4004 3.3008 0.50038-2.3008-2.0996-2.3008c-2.6 0-2.9004 2.2012-2.9004 2.2012s-0.2996 4.9992 4.9004 3.6992c7.4-1.9 7.5996 5.8008 7.5996 5.8008 6.7-15.6-1.8008-20-1.8008-20 7.9-1.6 7.1016-6.7012 7.1016-6.7012-0.5 1.5-3.7004 4.7008-9.4004 1.3008-5.7-3.4-9.4004-2.9004-9.4004-2.9004s-3.7004-0.4996-9.4004 2.9004c-5.7 3.4-8.9004 0.19922-9.4004-1.3008 0 0-0.29922 2.2012 1.8008 4.2012-2.6 0.5-5.8004 1.7984-8.9004 4.8984 0 0-2.1988-4.1992-1.2988-7.6992 0 0-4.9008 3.5004-4.8008 9.4004 0 0-4.1996-4.7-3.5996-13.5zm72.1 2c0.4 12.3-3.3008 16.6-3.3008 16.6-0.8-8.4-5.7988-13.6-5.7988-13.6 0.1 4.8-2.2012 8.1992-2.2012 8.1992-2.2-2.2-4.4992-3.4004-6.6992-3.9004 2.1 3.5 3.9 8.7004 3.5 15.9-0.5 11.8-4.0992 18.6-6.1992 21.6 11.1-1.9 20.599-12.3 22.799-26 1.1-6.9 0.20039-13.299-2.0996-18.799z" fill="#582c83"/>
  <path d="m49.996 33.613c-7.1 0-9.2012 2-9.2012 2l2 0.39844c-6.2 3.2-8.7984 9.8008-7.8984 14.301 0.4 1.7 0.99844 3.5 1.8984 5.5 0 0 0.20158-7.7008 7.6016-5.8008 5.2 1.3 4.8984-3.6992 4.8984-3.6992s-0.29844-2.1992-2.8984-2.1992c-2.6 0-2.1016 2.2988-2.1016 2.2988s-4.3984-0.29883-4.3984-3.2988 3.0988-5 10.299-5c7.1 0 10.201 1.9 10.201 5s-4.4004 3.2988-4.4004 3.2988 0.50039-2.2988-2.0996-2.2988c-2.6 0-2.9004 2.1992-2.9004 2.1992s-0.2996 4.9992 4.9004 3.6992c7.5-1.9 7.5996 5.8008 7.5996 5.8008 0.4-1 0.79961-2.0004 1.0996-2.9004 1.3-4.3 0.1996-13-7.4004-16.9l2-0.39844s-2.0992-2-9.1992-2zm-11.297 24.688s1.3008 6.9989 1.3008 19.799c0 0-0.4992 3.4004 9.8008 3.4004 10.3 0 9.7988-3.4004 9.7988-3.4004 0.2-12.8 1.5-19.799 1.5-19.799s-3.7992 4.4-4.1992 19c0 0-2.6 0.79883-7 0.79883-4.4 0-7-0.79883-7-0.79883-0.4-14.5-4.2012-19-4.2012-19z" fill="#7c878e"/>
 </g>
</svg>