<svg xmlns="http://www.w3.org/2000/svg" xmlns:xlink="http://www.w3.org/1999/xlink" version="1.1" style="shape-rendering:geometricPrecision; text-rendering:geometricPrecision; image-rendering:optimizeQuality; fill-rule:evenodd; clip-rule:evenodd" viewBox="97.5 221.44 884.07 634.56">
<g><path style="opacity:0.857" fill="#f9f9f9" d="M 704.5,221.5 C 718.171,221.333 731.837,221.5 745.5,222C 756.364,228.075 765.031,236.409 771.5,247C 802.401,243.953 833.401,241.62 864.5,240C 881.167,239.333 897.833,239.333 914.5,240C 917.226,240.182 919.893,240.682 922.5,241.5C 907.261,259.236 896.094,279.236 889,301.5C 884.301,317.917 884.467,334.251 889.5,350.5C 895.89,348.94 900.224,345.107 902.5,339C 925.729,336.466 945.229,326.966 961,310.5C 964.943,304.275 968.609,297.942 972,291.5C 975.587,302.589 978.253,313.923 980,325.5C 985.016,364.413 978.016,400.747 959,434.5C 929.952,477.284 889.452,500.284 837.5,503.5C 834.786,511.264 831.786,518.931 828.5,526.5C 831.491,536.362 830.158,545.528 824.5,554C 821.382,555.893 818.049,557.226 814.5,558C 816.442,564.704 817.609,571.538 818,578.5C 811.321,586.024 805.154,594.024 799.5,602.5C 803.644,627.63 811.978,651.13 824.5,673C 822.102,680.355 820.435,687.855 819.5,695.5C 813.608,697.14 807.608,698.14 801.5,698.5C 801.984,704.711 801.151,710.711 799,716.5C 796.374,719.231 793.207,721.064 789.5,722C 783.509,722.499 777.509,722.666 771.5,722.5C 770.4,731.168 769.234,739.835 768,748.5C 764.876,749.741 761.709,750.908 758.5,752C 761.604,762.972 766.437,773.139 773,782.5C 778.167,788.333 783.667,793.833 789.5,799C 792.331,800.583 794.997,802.416 797.5,804.5C 795.153,805.712 792.653,806.379 790,806.5C 787.491,805.907 784.991,805.741 782.5,806C 798.917,820.515 818.25,827.182 840.5,826C 837.992,829.042 834.992,831.376 831.5,833C 811.576,842.604 790.576,845.938 768.5,843C 776.011,847.08 784.011,850.08 792.5,852C 788.804,853.969 784.804,854.969 780.5,855C 761.016,857.173 742.516,854.006 725,845.5C 727.329,849.831 730.829,853.331 735.5,856C 729.508,855.675 723.508,855.008 717.5,854C 710.946,851.783 704.612,849.116 698.5,846C 694.746,842.962 691.579,839.462 689,835.5C 688.333,837.5 688.333,839.5 689,841.5C 690.5,845.167 692,848.833 693.5,852.5C 693,852.833 692.5,853.167 692,853.5C 673.536,846.967 658.203,836.301 646,821.5C 644.366,818.52 642.7,815.52 641,812.5C 640.592,816.949 640.925,821.283 642,825.5C 614.576,807.383 595.242,782.716 584,751.5C 583.712,758.951 584.545,766.284 586.5,773.5C 586.167,774.167 585.833,774.833 585.5,775.5C 581.283,773.808 577.45,771.474 574,768.5C 575.449,776.038 577.782,783.371 581,790.5C 584.581,797.33 588.414,803.997 592.5,810.5C 590.234,811.206 587.901,811.039 585.5,810C 569.865,800.368 557.699,787.534 549,771.5C 548.333,773.833 548.333,776.167 549,778.5C 551.363,785.283 554.03,791.95 557,798.5C 562.068,802.022 561.568,803.188 555.5,802C 531.112,788.629 509.279,771.795 490,751.5C 485.239,745.75 480.906,739.75 477,733.5C 477.519,741.925 478.853,750.258 481,758.5C 482.069,761.208 483.236,763.875 484.5,766.5C 483.635,767.583 482.635,767.749 481.5,767C 455.138,741.101 440.471,709.601 437.5,672.5C 438.336,666.817 438.836,661.151 439,655.5C 420.379,675.78 397.879,689.947 371.5,698C 354.872,703.428 337.872,707.428 320.5,710C 279.185,716.161 243.852,704.827 214.5,676C 229.12,677.245 243.787,677.578 258.5,677C 258.833,676.667 259.167,676.333 259.5,676C 252.325,669.155 248.325,660.988 247.5,651.5C 253.987,655.104 260.987,657.271 268.5,658C 283.682,659.188 298.682,658.021 313.5,654.5C 325.564,641.774 337.23,628.607 348.5,615C 332.65,618.828 316.65,622.494 300.5,626C 287.91,628.219 275.243,629.719 262.5,630.5C 285.545,551.469 326.211,483.635 384.5,427C 374.307,429.428 363.974,431.761 353.5,434C 342.854,434.98 332.187,435.48 321.5,435.5C 321.664,432.813 321.497,430.146 321,427.5C 319.167,430.667 316.667,433.167 313.5,435C 300.5,435.667 287.5,435.667 274.5,435C 275.337,433.989 275.67,432.822 275.5,431.5C 228.071,434.664 183.071,446.497 140.5,467C 125.679,474.911 111.679,484.077 98.5,494.5C 98.1667,492.833 97.8333,491.167 97.5,489.5C 104.229,459.308 117.729,432.641 138,409.5C 152.294,394.206 168.128,380.706 185.5,369C 182.813,368.463 180.313,368.963 178,370.5C 177.333,369.5 177.333,368.5 178,367.5C 208.198,336.387 244.031,313.887 285.5,300C 298.348,296.468 311.348,293.468 324.5,291C 320.093,290.792 316.093,289.458 312.5,287C 314.377,285.815 316.377,284.815 318.5,284C 353.003,275.806 388.003,271.306 423.5,270.5C 458.384,270.207 491.884,276.54 524,289.5C 577.844,250.48 638.01,227.813 704.5,221.5 Z"/></g>
<g><path style="opacity:1" fill="#040404" d="M 234.5,684.5 C 242.167,683.833 249.833,683.167 257.5,682.5C 264.493,684.004 267.327,681.337 266,674.5C 262.237,671.127 259.07,667.294 256.5,663C 264.645,663.33 272.812,663.83 281,664.5C 292.568,663.539 304.068,662.039 315.5,660C 319.762,656.283 323.928,652.45 328,648.5C 336.624,637.54 345.624,626.874 355,616.5C 355.667,614.167 355.667,611.833 355,609.5C 353.874,608.056 352.374,607.39 350.5,607.5C 324.096,616.011 297.096,621.511 269.5,624C 294.619,548.844 335.452,483.344 392,427.5C 393.757,422.515 392.09,419.849 387,419.5C 370.343,425.456 353.177,428.789 335.5,429.5C 333.167,429.5 330.833,429.5 328.5,429.5C 328.795,427.265 328.461,425.265 327.5,423.5C 326.826,418.849 324.159,417.349 319.5,419C 317.284,423.225 314.284,426.892 310.5,430C 301.173,430.5 291.839,430.666 282.5,430.5C 282.993,426.662 281.326,424.662 277.5,424.5C 275.146,424.511 273.146,425.344 271.5,427C 219.124,429.875 170.124,443.875 124.5,469C 117.773,473.118 111.273,477.618 105,482.5C 117.478,441.862 140.978,409.196 175.5,384.5C 145.306,408.916 123.473,439.249 110,475.5C 155.186,443.324 205.686,425.824 261.5,423C 271.547,420.393 280.381,415.56 288,408.5C 288.052,413.199 287.552,417.866 286.5,422.5C 295.506,422.666 304.506,422.5 313.5,422C 320.431,415.908 326.431,409.074 331.5,401.5C 332.502,408.488 332.502,415.488 331.5,422.5C 360.467,422.905 387.467,416.072 412.5,402C 452.582,367.771 496.582,339.271 544.5,316.5C 545.833,315.833 545.833,315.167 544.5,314.5C 511.507,292.893 475.174,281.393 435.5,280C 403.309,278.156 371.642,281.323 340.5,289.5C 342.993,291.58 345.659,293.414 348.5,295C 294.826,301.512 247.492,322.179 206.5,357C 214.011,356.858 221.344,355.858 228.5,354C 216.726,358.721 205.393,364.221 194.5,370.5C 197.607,366.534 196.94,363.368 192.5,361C 231.051,326.405 276.051,304.738 327.5,296C 331.421,294.253 332.421,291.419 330.5,287.5C 382.17,274.775 434.17,273.275 486.5,283C 499.228,286.298 511.561,290.464 523.5,295.5C 525.5,295 527.5,294.5 529.5,294C 592.875,247.228 664.208,224.895 743.5,227C 753.179,234.347 761.513,243.013 768.5,253C 789.795,251.003 811.128,249.003 832.5,247C 858.823,245.68 885.156,245.346 911.5,246C 885.829,276.326 876.329,311.159 883,350.5C 883.785,352.286 884.951,353.786 886.5,355C 890.236,355.61 893.903,355.277 897.5,354C 901.833,351 905.5,347.333 908.5,343C 927.349,341.14 944.016,334.14 958.5,322C 962.714,317.454 966.547,312.621 970,307.5C 979.792,345.542 976.792,382.542 961,418.5C 933.981,468.191 892.148,494.358 835.5,497C 834.667,497.833 833.833,498.667 833,499.5C 830.283,507.268 827.283,514.935 824,522.5C 823.735,526.828 823.902,531.162 824.5,535.5C 824.999,541.701 822.999,546.868 818.5,551C 815.341,551.011 812.507,551.845 810,553.5C 809.387,561.01 810.053,568.343 812,575.5C 805.172,583.807 799.006,592.473 793.5,601.5C 797.265,626.627 805.098,650.293 817,672.5C 817.29,679.172 815.79,685.339 812.5,691C 806.678,691.239 801.511,693.072 797,696.5C 797.757,703.592 795.923,709.759 791.5,715C 783.895,716.19 776.229,716.857 768.5,717C 768,717.5 767.5,718 767,718.5C 764.946,727.042 763.78,735.709 763.5,744.5C 754.291,744.895 751.125,749.562 754,758.5C 757.051,767.863 761.384,776.529 767,784.5C 771.272,789.86 776.105,794.694 781.5,799C 775.542,798.956 773.375,801.79 775,807.5C 788.399,820.088 804.232,827.921 822.5,831C 813.517,834.611 804.183,836.944 794.5,838C 783.699,838.639 773.032,837.972 762.5,836C 760.556,838.153 760.056,840.653 761,843.5C 763.167,845.667 765.333,847.833 767.5,850C 760.094,849.924 752.761,848.924 745.5,847C 737.156,843.827 728.823,840.66 720.5,837.5C 715.849,838.193 714.349,840.859 716,845.5C 717.338,846.224 717.505,846.89 716.5,847.5C 710.667,844.948 705,842.115 699.5,839C 695.756,834.93 692.422,830.597 689.5,826C 686.653,825.056 684.153,825.556 682,827.5C 682.172,832.864 682.505,838.198 683,843.5C 667.447,834.946 654.78,823.279 645,808.5C 643.819,804.637 641.986,801.137 639.5,798C 636.975,797.104 634.808,797.604 633,799.5C 632.814,803.516 632.814,807.516 633,811.5C 610.985,792.026 595.151,768.526 585.5,741C 582.653,740.056 580.153,740.556 578,742.5C 577.545,749.53 577.545,756.53 578,763.5C 573.186,758.995 569.686,759.829 567.5,766C 569.509,776.685 572.676,786.851 577,796.5C 566.382,786.546 557.215,775.379 549.5,763C 546.653,762.056 544.153,762.556 542,764.5C 542.68,772.549 543.68,780.549 545,788.5C 517.739,773.244 495.572,752.41 478.5,726C 475.653,725.056 473.153,725.556 471,727.5C 471.054,733.535 471.388,739.535 472,745.5C 449.67,718.538 440.837,687.538 445.5,652.5C 445.167,648.011 442.833,646.511 438.5,648C 416.8,670.678 390.8,686.345 360.5,695C 332.15,704.717 303.15,707.383 273.5,703C 259.158,699.357 246.158,693.191 234.5,684.5 Z"/></g>
<g><path style="opacity:1" fill="#0f2c51" d="M 710.5,236.5 C 720.172,236.334 729.839,236.5 739.5,237C 744.801,241.3 749.801,245.966 754.5,251C 740.859,253.952 727.359,257.452 714,261.5C 710.526,276.623 708.693,291.956 708.5,307.5C 695.946,297.632 687.946,284.965 684.5,269.5C 663.45,273.077 642.783,278.244 622.5,285C 600.297,292.517 578.463,301.017 557,310.5C 550.682,306.344 544.516,302.01 538.5,297.5C 590.591,262.469 647.924,242.136 710.5,236.5 Z"/></g>
<g><path style="opacity:1" fill="#0f2c52" d="M 808.5,263.5 C 826.274,262.94 843.941,263.94 861.5,266.5C 853.77,288.879 850.603,311.879 852,335.5C 854.491,363.277 867.991,383.444 892.5,396C 896.422,397.647 900.422,398.647 904.5,399C 900.243,392.47 898.576,385.303 899.5,377.5C 914.393,378.536 927.393,374.202 938.5,364.5C 940.368,390.693 934.535,415.026 921,437.5C 906.993,455.589 888.493,465.422 865.5,467C 846.44,467.971 827.44,467.305 808.5,465C 775.073,457.381 741.406,451.048 707.5,446C 685.709,443.833 664.042,444.167 642.5,447C 658.652,436.725 676.319,430.391 695.5,428C 682.195,424.956 668.695,423.456 655,423.5C 606.199,424.659 559.699,435.493 515.5,456C 450.888,487.585 395.221,530.918 348.5,586C 332.149,595.343 314.815,602.176 296.5,606.5C 327.525,526.643 375.525,458.81 440.5,403C 482.619,371.098 528.285,345.098 577.5,325C 607.246,312.807 637.579,302.307 668.5,293.5C 677.035,301.534 686.035,309.034 695.5,316C 703.77,320.968 712.437,325.135 721.5,328.5C 720.31,309.908 722.643,291.741 728.5,274C 755.043,268.373 781.709,264.873 808.5,263.5 Z"/></g>
<g><path style="opacity:1" fill="#a89666" d="M 175.5,384.5 C 181.271,379.11 187.605,374.443 194.5,370.5C 205.393,364.221 216.726,358.721 228.5,354C 221.344,355.858 214.011,356.858 206.5,357C 247.492,322.179 294.826,301.512 348.5,295C 345.659,293.414 342.993,291.58 340.5,289.5C 371.642,281.323 403.309,278.156 435.5,280C 475.174,281.393 511.507,292.893 544.5,314.5C 545.833,315.167 545.833,315.833 544.5,316.5C 496.582,339.271 452.582,367.771 412.5,402C 387.467,416.072 360.467,422.905 331.5,422.5C 332.502,415.488 332.502,408.488 331.5,401.5C 326.431,409.074 320.431,415.908 313.5,422C 304.506,422.5 295.506,422.666 286.5,422.5C 287.552,417.866 288.052,413.199 288,408.5C 280.381,415.56 271.547,420.393 261.5,423C 205.686,425.824 155.186,443.324 110,475.5C 123.473,439.249 145.306,408.916 175.5,384.5 Z"/></g>
<g><path style="opacity:1" fill="#777777" d="M 327.5,423.5 C 328.461,425.265 328.795,427.265 328.5,429.5C 330.833,429.5 333.167,429.5 335.5,429.5C 333.052,430.473 330.385,430.806 327.5,430.5C 327.5,428.167 327.5,425.833 327.5,423.5 Z"/></g>
<g><path style="opacity:1" fill="#a79465" d="M 641.5,465.5 C 704.46,462.447 765.794,470.781 825.5,490.5C 824.53,496.183 823.363,501.85 822,507.5C 821.167,509 820,510.167 818.5,511C 804.475,510.257 790.475,508.924 776.5,507C 761.347,506.019 746.347,506.352 731.5,508C 758.105,512.854 784.439,518.854 810.5,526C 816.393,529.821 817.893,534.988 815,541.5C 813.922,543.39 812.255,544.39 810,544.5C 770.222,533.287 729.722,526.12 688.5,523C 620.819,518.754 554.486,525.921 489.5,544.5C 489.343,543.127 489.51,541.793 490,540.5C 507.1,529.538 525.6,521.705 545.5,517C 524.462,519.004 504.462,524.837 485.5,534.5C 485.167,534.167 484.833,533.833 484.5,533.5C 486.994,530.174 489.994,527.34 493.5,525C 520.072,509.88 547.739,497.213 576.5,487C 543.629,493.766 512.962,506.099 484.5,524C 481.647,525.43 478.647,526.263 475.5,526.5C 475.744,523.737 477.077,521.571 479.5,520C 528.786,487.738 582.786,469.571 641.5,465.5 Z"/></g>
<g><path style="opacity:1" fill="#a59364" d="M 464.5,529.5 C 482.059,528.229 488.559,536.229 484,553.5C 482.011,559.851 477.844,562.351 471.5,561C 469.218,558.603 467.884,555.769 467.5,552.5C 454.507,555.011 449.674,550.011 453,537.5C 456.15,533.689 459.983,531.023 464.5,529.5 Z"/></g>
<g><path style="opacity:1" fill="#f8f8f8" d="M 709.5,542.5 C 699.675,541.342 689.675,541.175 679.5,542C 680.745,542.791 682.078,543.291 683.5,543.5C 700.498,546 715.498,552.833 728.5,564C 702.759,561.378 677.092,557.878 651.5,553.5C 653.164,546.839 654.831,540.173 656.5,533.5C 704.684,533.051 752.018,539.051 798.5,551.5C 799.417,559.338 801.084,567.005 803.5,574.5C 801.609,578.725 798.942,582.392 795.5,585.5C 794.601,580.179 793.768,574.846 793,569.5C 791.669,574.15 790.335,578.817 789,583.5C 788.439,584.022 787.772,584.355 787,584.5C 773.391,577.614 760.891,569.114 749.5,559C 737.673,549.922 724.34,544.422 709.5,542.5 Z"/></g>
<g><path style="opacity:1" fill="#4d4c4c" d="M 709.5,542.5 C 700.651,542.174 691.984,542.507 683.5,543.5C 682.078,543.291 680.745,542.791 679.5,542C 689.675,541.175 699.675,541.342 709.5,542.5 Z"/></g>
<g><path style="opacity:1" fill="#f7f7f7" d="M 542.5,559.5 C 555.47,561.486 567.136,566.486 577.5,574.5C 576.253,576.323 575.586,578.323 575.5,580.5C 567.346,578.17 559.346,575.337 551.5,572C 545.42,570.969 539.753,571.969 534.5,575C 535.624,575.249 536.624,575.749 537.5,576.5C 525.824,585.539 524.324,596.206 533,608.5C 539.561,616.791 544.395,625.957 547.5,636C 559.854,639.628 565.688,635.128 565,622.5C 562.596,629.638 557.929,632.305 551,630.5C 550.616,626.347 549.616,622.347 548,618.5C 544.333,611.833 540.667,605.167 537,598.5C 536.214,590.023 539.047,583.023 545.5,577.5C 555.058,580.615 564.058,584.781 572.5,590C 571.574,594.811 570.741,599.644 570,604.5C 569.667,617.5 569.333,630.5 569,643.5C 566.185,646.496 562.685,647.829 558.5,647.5C 552.101,646.822 545.767,645.822 539.5,644.5C 538.645,631.457 533.478,620.457 524,611.5C 518.548,601.819 515.548,591.486 515,580.5C 522.952,571.69 532.118,564.69 542.5,559.5 Z"/></g>
<g><path style="opacity:1" fill="#a79565" d="M 440.5,560.5 C 448.857,559.379 450.69,562.379 446,569.5C 438.229,576.584 429.396,582.084 419.5,586C 402.894,595.273 390.394,608.439 382,625.5C 381.333,626.5 381.333,627.5 382,628.5C 390.121,615.379 400.621,604.545 413.5,596C 429.625,588.863 444.125,579.363 457,567.5C 456.142,575.052 453.142,581.719 448,587.5C 442.429,593.742 436.262,599.242 429.5,604C 445.879,598.288 457.046,587.121 463,570.5C 464.571,568.077 466.737,566.744 469.5,566.5C 461.503,610.975 438.837,645.808 401.5,671C 355.462,697.95 306.462,705.284 254.5,693C 249.38,690.94 244.38,688.607 239.5,686C 274.812,690.672 304.979,680.172 330,654.5C 343.333,638.5 356.667,622.5 370,606.5C 381.355,593.467 394.189,582.301 408.5,573C 418.728,567.374 429.394,563.207 440.5,560.5 Z"/></g>
<g><path style="opacity:1" fill="#fcfcfc" d="M 789.5,625.5 C 789.41,628.152 790.076,630.485 791.5,632.5C 795.055,644.996 799.889,656.996 806,668.5C 806.289,673.679 805.456,678.679 803.5,683.5C 788.52,680.392 773.52,677.392 758.5,674.5C 758.083,665.833 757.583,657.166 757,648.5C 752.769,657.203 748.936,666.036 745.5,675C 746.598,677.46 747.598,679.96 748.5,682.5C 736.282,688.905 723.282,692.905 709.5,694.5C 699.781,694.888 691.615,691.555 685,684.5C 685.086,687.702 686.086,690.702 688,693.5C 695.745,702.791 705.578,708.625 717.5,711C 730.203,713.394 742.87,715.894 755.5,718.5C 755.021,723.603 753.355,728.27 750.5,732.5C 741.671,734.917 732.671,736.583 723.5,737.5C 724.295,742.149 724.461,746.816 724,751.5C 721.923,755.9 718.423,758.4 713.5,759C 701.893,761.113 693.393,756.947 688,746.5C 684.864,735.229 679.864,724.895 673,715.5C 657.942,699.995 641.942,685.661 625,672.5C 619.207,657.621 613.707,642.621 608.5,627.5C 615.672,611.817 620.838,595.484 624,578.5C 624.139,589.871 623.806,601.204 623,612.5C 633.536,597.094 641.702,580.427 647.5,562.5C 648.333,562.167 649.167,561.833 650,561.5C 667.302,565.701 684.802,568.701 702.5,570.5C 702.367,596.837 714.367,615.003 738.5,625C 759.939,632.358 775.439,625.858 785,605.5C 787.03,611.994 788.53,618.661 789.5,625.5 Z"/></g>
<g><path style="opacity:1" fill="#9c9a9a" d="M 789.5,625.5 C 790.924,627.515 791.59,629.848 791.5,632.5C 790.076,630.485 789.41,628.152 789.5,625.5 Z"/></g>
<g><path style="opacity:1" fill="#a29063" d="M 261.5,665.5 C 262.097,664.861 262.93,664.528 264,664.5C 275.444,666.616 286.944,667.116 298.5,666C 290.548,670.541 282.048,673.708 273,675.5C 269.011,672.344 265.177,669.011 261.5,665.5 Z"/></g>
<g><path style="opacity:1" fill="#b1b1b1" d="M 257.5,682.5 C 249.833,683.167 242.167,683.833 234.5,684.5C 233.527,684.013 232.527,683.513 231.5,683C 240.16,682.5 248.827,682.334 257.5,682.5 Z"/></g>
</svg>