<svg xmlns="http://www.w3.org/2000/svg" xmlns:xlink="http://www.w3.org/1999/xlink" version="1.1" style="shape-rendering:geometricPrecision; text-rendering:geometricPrecision; image-rendering:optimizeQuality; fill-rule:evenodd; clip-rule:evenodd" viewBox="-0.5 -0.5 300 226">
<g><path style="opacity:0.945" fill="#0a0501" d="M 172.5,-0.5 C 179.5,-0.5 186.5,-0.5 193.5,-0.5C 200.486,0.399035 207.486,1.89904 214.5,4C 228.08,4.32546 241.58,5.49212 255,7.5C 264.491,5.43232 273.991,5.26566 283.5,7C 288,8.83333 291.167,12 293,16.5C 295.936,23.2841 297.602,30.2841 298,37.5C 294.14,38.6929 291.64,41.1929 290.5,45C 291.812,48.7199 292.812,52.5532 293.5,56.5C 291.479,64.2822 291.146,72.1155 292.5,80C 290.527,91.6075 285.861,101.941 278.5,111C 276.598,112.301 274.598,112.968 272.5,113C 274.716,103.342 275.716,93.5083 275.5,83.5C 275.333,78.8333 275.167,74.1667 275,69.5C 274.89,66.3543 273.557,65.3543 271,66.5C 269.147,79.0588 265.48,91.0588 260,102.5C 255.406,109.609 249.239,114.609 241.5,117.5C 243.891,108.489 246.391,99.4895 249,90.5C 250.629,82.6472 251.463,74.8139 251.5,67C 249.033,63.5634 247.533,59.7301 247,55.5C 230.241,61.962 214.408,70.1287 199.5,80C 195,83.1667 191.167,87 188,91.5C 188.446,94.7393 189.779,97.7393 192,100.5C 202.577,111.255 214.41,120.255 227.5,127.5C 245.704,121.779 264.204,120.446 283,123.5C 288.733,123.586 294.233,122.586 299.5,120.5C 299.5,121.167 299.5,121.833 299.5,122.5C 295.789,124.683 291.789,126.183 287.5,127C 279.167,127.333 270.833,127.667 262.5,128C 279.626,132.797 291.293,143.463 297.5,160C 297.167,160.167 296.833,160.333 296.5,160.5C 292.01,155.841 287.677,151.008 283.5,146C 276.006,139.252 267.339,134.585 257.5,132C 248.083,131.608 238.75,131.608 229.5,132C 234.12,137.408 238.62,142.908 243,148.5C 245.66,152.814 247.327,157.481 248,162.5C 252.93,171.347 251.763,179.513 244.5,187C 239.299,191.235 233.299,193.402 226.5,193.5C 210.781,190.316 196.114,184.483 182.5,176C 164.608,162.284 146.275,149.117 127.5,136.5C 118.641,144.212 114.308,154.045 114.5,166C 114.955,170.9 115.789,175.733 117,180.5C 121.068,186.913 124.735,193.579 128,200.5C 130.576,209.847 127.41,216.347 118.5,220C 109.726,222.783 100.726,224.283 91.5,224.5C 84.1812,223.53 76.8479,223.363 69.5,224C 68.2625,224.232 67.2625,224.732 66.5,225.5C 63.1667,225.5 59.8333,225.5 56.5,225.5C 52.8333,224.167 49.1667,224.167 45.5,225.5C 42.8333,225.5 40.1667,225.5 37.5,225.5C 36.5707,224.685 35.5707,223.852 34.5,223C 27.2092,221.919 19.8758,221.253 12.5,221C 7.99485,220.673 4.82818,218.506 3,214.5C 1.74505,209.046 0.578384,203.713 -0.5,198.5C -0.5,188.167 -0.5,177.833 -0.5,167.5C 4.32221,137.52 16.4889,110.853 36,87.5C 52.5341,68.9708 67.5341,49.3042 81,28.5C 99.8175,10.3742 122.151,4.04082 148,9.5C 155.593,4.61567 163.759,1.28234 172.5,-0.5 Z"/></g>
<g><path style="opacity:1" fill="#d4711b" d="M 210.5,6.5 C 212.924,6.19244 215.257,6.52577 217.5,7.5C 216.619,8.97051 215.286,9.80384 213.5,10C 210,10.5 206.5,11 203,11.5C 201.027,11.6906 199.527,11.024 198.5,9.5C 202.71,8.82234 206.71,7.82234 210.5,6.5 Z"/></g>
<g><path style="opacity:1" fill="#ea7c1d" d="M 234.5,10.5 C 243.542,9.73673 244.542,11.9034 237.5,17C 242.851,18.2118 243.851,21.0451 240.5,25.5C 239.675,26.3857 238.675,26.719 237.5,26.5C 236.975,22.4771 234.641,20.3104 230.5,20C 229.424,18.2739 229.257,16.4406 230,14.5C 231.397,12.9297 232.897,11.5964 234.5,10.5 Z"/></g>
<g><path style="opacity:1" fill="#ef7e1e" d="M 92.5,76.5 C 84.4716,76.8336 82.1383,73.5003 85.5,66.5C 83.045,65.0714 80.545,63.7381 78,62.5C 76,63.8333 74,63.8333 72,62.5C 70.2729,62.6465 70.1062,63.3131 71.5,64.5C 69.6488,67.6249 69.1488,70.9583 70,74.5C 70.9025,75.7014 72.0692,76.5348 73.5,77C 72.7562,78.0386 71.7562,78.5386 70.5,78.5C 66.289,77.7407 64.9557,75.4074 66.5,71.5C 62.2662,69.9852 58.4329,70.6519 55,73.5C 54.8333,73.1667 54.6667,72.8333 54.5,72.5C 64.3985,56.537 75.3985,41.3703 87.5,27C 106.254,11.4363 127.254,7.60299 150.5,15.5C 152.65,12.8494 154.983,10.3494 157.5,8C 160.351,6.71138 163.351,6.21138 166.5,6.5C 166.697,10.3421 164.864,12.6754 161,13.5C 159.774,13.3552 158.607,13.0219 157.5,12.5C 156.289,13.2739 156.289,14.1072 157.5,15C 163.054,15.8077 166.888,13.641 169,8.5C 172.316,6.93088 175.149,7.59754 177.5,10.5C 178.485,12.0983 178.651,13.765 178,15.5C 169.772,15.0201 162.606,17.5201 156.5,23C 157,23.1667 157.5,23.3333 158,23.5C 161.189,21.3232 164.689,19.8232 168.5,19C 174.171,18.9269 179.838,18.9269 185.5,19C 188.869,17.2615 192.369,16.0949 196,15.5C 204.388,17.1842 212.555,19.6842 220.5,23C 217.5,23.6667 214.5,23.6667 211.5,23C 206.373,21.593 201.207,20.4263 196,19.5C 191.693,19.9908 187.693,21.3241 184,23.5C 176.112,22.0222 168.278,22.1889 160.5,24C 149.76,34.7438 138.427,44.7438 126.5,54C 123.167,55.3333 119.833,56.6667 116.5,58C 112.789,58.8253 109.122,58.6586 105.5,57.5C 107.507,55.9918 109.174,54.1584 110.5,52C 106.953,52.0862 103.953,50.9195 101.5,48.5C 102.506,47.6043 102.506,46.9377 101.5,46.5C 100.112,47.5909 99.6124,48.9242 100,50.5C 102.052,51.7234 104.219,52.7234 106.5,53.5C 105.167,54.8333 103.833,56.1667 102.5,57.5C 107.138,62.7995 112.804,63.9662 119.5,61C 128.718,55.78 137.384,49.78 145.5,43C 151.414,40.3774 155.414,42.2107 157.5,48.5C 156.375,51.9619 154.041,53.9619 150.5,54.5C 151.624,52.269 152.124,49.9357 152,47.5C 149.618,46.1337 147.452,46.467 145.5,48.5C 146.833,49.6199 147.333,50.9532 147,52.5C 144.274,54.1876 141.441,55.6876 138.5,57C 140.866,57.5625 143.199,57.3958 145.5,56.5C 146.932,56.7332 147.432,57.3999 147,58.5C 143.157,62.3129 138.657,63.3129 133.5,61.5C 132.445,68.8884 128.445,71.2218 121.5,68.5C 117.757,71.4283 114.424,71.095 111.5,67.5C 108.792,69.4357 105.792,69.9357 102.5,69C 101.773,67.6012 101.273,66.1012 101,64.5C 98.949,66.8091 99.1157,68.9757 101.5,71C 107.436,72.1387 113.436,72.8054 119.5,73C 115.49,74.1209 111.49,75.2876 107.5,76.5C 105.389,76.5142 103.555,75.8475 102,74.5C 100.535,75.3295 99.0349,75.4962 97.5,75C 95.3699,73.1677 93.2033,71.3343 91,69.5C 90.3333,68.1667 90.3333,66.8333 91,65.5C 92.8161,64.6705 94.6494,63.8372 96.5,63C 93.8333,62.3333 91.1667,62.3333 88.5,63C 88.8333,63.3333 89.1667,63.6667 89.5,64C 87.8131,65.913 87.3131,68.0797 88,70.5C 89.7448,71.9557 91.5781,73.289 93.5,74.5C 93.1373,75.1835 92.8039,75.8501 92.5,76.5 Z"/></g>
<g><path style="opacity:1" fill="#d1d1d1" d="M 195.5,21.5 C 196.5,21.5 197.5,21.5 198.5,21.5C 197.637,28.1011 196.637,34.7677 195.5,41.5C 194.808,40.9747 194.308,40.3081 194,39.5C 192.979,33.2899 193.479,27.2899 195.5,21.5 Z"/></g>
<g><path style="opacity:1" fill="#eb7d1e" d="M 155.5,36.5 C 164.865,35.013 167.365,38.3463 163,46.5C 161.989,47.3366 160.822,47.67 159.5,47.5C 159.456,43.4457 157.456,40.779 153.5,39.5C 154.193,38.4822 154.859,37.4822 155.5,36.5 Z"/></g>
<g><path style="opacity:1" fill="#d2711b" d="M 216.5,28.5 C 217.837,37.9531 213.837,44.4531 204.5,48C 194.274,51.3666 185.44,49.1999 178,41.5C 175.545,37.814 174.545,33.814 175,29.5C 177.703,36.5298 182.203,42.0298 188.5,46C 203.838,49.8355 213.171,44.0022 216.5,28.5 Z"/></g>
<g><path style="opacity:1" fill="#007f42" d="M 282.5,41.5 C 284.5,41.5 286.5,41.5 288.5,41.5C 289.759,47.1056 290.259,52.7723 290,58.5C 287.187,62.4893 283.354,64.1559 278.5,63.5C 271.799,64.2973 268.966,61.2973 270,54.5C 268.92,56.5535 268.086,58.7202 267.5,61C 262.136,61.8295 256.802,61.6628 251.5,60.5C 250.438,57.8971 250.272,55.2305 251,52.5C 253.251,50.6227 255.751,49.1227 258.5,48C 266.539,45.4927 274.539,43.326 282.5,41.5 Z"/></g>
<g><path style="opacity:1" fill="#e97c1d" d="M 260.5,18.5 C 262.266,16.2294 264.266,14.0627 266.5,12C 272.08,10.739 273.913,12.9057 272,18.5C 270.663,21.0021 268.829,23.0021 266.5,24.5C 268.611,25.8485 270.445,25.5152 272,23.5C 273.455,20.0879 275.288,16.9212 277.5,14C 284.259,13.6434 286.593,16.81 284.5,23.5C 282.833,22.5 281.5,21.1667 280.5,19.5C 279.363,25.3305 277.696,30.9971 275.5,36.5C 277.738,37.3832 279.905,37.0499 282,35.5C 285.11,19.9994 288.943,19.6661 293.5,34.5C 292.448,34.6495 291.448,34.4828 290.5,34C 289.406,32.2197 288.406,30.3864 287.5,28.5C 286.5,28.8333 285.833,29.5 285.5,30.5C 286.711,31.8745 287.711,33.3745 288.5,35C 284.261,37.7547 279.594,39.7547 274.5,41C 266.831,42.382 259.164,43.382 251.5,44C 252.618,42.9264 253.618,41.7598 254.5,40.5C 255.446,40.9867 256.446,41.3201 257.5,41.5C 262.176,40.2865 266.842,39.1199 271.5,38C 271.957,37.586 272.291,37.086 272.5,36.5C 270.604,35.5344 268.604,35.2011 266.5,35.5C 266.838,32.9885 266.838,30.6552 266.5,28.5C 264.461,31.821 262.794,35.321 261.5,39C 258.86,39.839 256.527,39.339 254.5,37.5C 251.828,39.6726 249.494,42.1726 247.5,45C 245.741,45.7975 244.074,45.6309 242.5,44.5C 246.157,40.1136 247.324,35.1136 246,29.5C 244.932,34.0504 243.098,38.2171 240.5,42C 236.229,43.5126 233.895,42.0126 233.5,37.5C 231.798,41.7406 229.465,45.5739 226.5,49C 224.55,50.4961 222.55,50.6627 220.5,49.5C 221.645,48.109 221.645,46.7757 220.5,45.5C 217.84,51.1661 214.007,55.8327 209,59.5C 209.053,57.0641 208.887,54.7308 208.5,52.5C 205.487,55.3487 202.82,58.5153 200.5,62C 198.866,62.4935 197.199,62.6602 195.5,62.5C 195.657,61.1266 195.49,59.7932 195,58.5C 192.276,62.131 189.442,65.631 186.5,69C 185.167,69.6667 183.833,69.6667 182.5,69C 182.056,67.4667 181.723,65.9667 181.5,64.5C 178.638,67.0666 176.305,70.0666 174.5,73.5C 172.591,74.3482 170.591,74.6816 168.5,74.5C 168.762,73.0222 168.429,71.6888 167.5,70.5C 165.044,73.458 162.378,76.2913 159.5,79C 155.681,81.5486 153.015,80.7153 151.5,76.5C 149.861,78.8061 147.861,80.8061 145.5,82.5C 141.895,80.2067 141.562,77.3733 144.5,74C 157.149,71.8404 169.149,67.8404 180.5,62C 186.414,62.1428 191.414,60.1428 195.5,56C 211.22,51.7773 220.553,41.6106 223.5,25.5C 226.28,25.1931 228.78,24.1931 231,22.5C 233.768,23.2749 234.934,25.1082 234.5,28C 234.114,31.9277 232.114,34.7611 228.5,36.5C 227.522,36.0233 226.689,35.3567 226,34.5C 224.961,36.7463 223.794,38.913 222.5,41C 229.98,38.2304 236.48,33.7304 242,27.5C 243.536,22.5855 245.036,17.7521 246.5,13C 248.112,12.2797 249.612,12.4464 251,13.5C 252.292,17.627 251.125,20.7937 247.5,23C 249.367,23.7112 250.867,23.2112 252,21.5C 253.171,18.6497 254.338,15.8164 255.5,13C 257.134,12.5065 258.801,12.3398 260.5,12.5C 260.5,14.5 260.5,16.5 260.5,18.5 Z"/></g>
<g><path style="opacity:1" fill="#140a01" d="M 260.5,18.5 C 262.59,23.415 262.423,28.415 260,33.5C 255.791,36.6023 252.291,36.1023 249.5,32C 249.667,31.5 249.833,31 250,30.5C 254.815,35.009 258.148,34.009 260,27.5C 260.495,25.5273 260.662,23.5273 260.5,21.5C 256.94,21.2825 256.94,20.2825 260.5,18.5 Z"/></g>
<g><path style="opacity:1" fill="#de771c" d="M 235.5,45.5 C 237.5,45.5 239.5,45.5 241.5,45.5C 241.23,49.2056 239.397,50.5389 236,49.5C 235.51,48.2068 235.343,46.8734 235.5,45.5 Z"/></g>
<g><path style="opacity:1" fill="#ec7e1e" d="M 230.5,47.5 C 231.675,47.281 232.675,47.6143 233.5,48.5C 230.609,55.1191 225.942,56.9524 219.5,54C 224.073,53.2389 227.74,51.0722 230.5,47.5 Z"/></g>
<g><path style="opacity:1" fill="#062414" d="M 285.5,49.5 C 286.117,49.6107 286.617,49.944 287,50.5C 288.922,55.9606 287.089,59.2939 281.5,60.5C 280.304,60.1543 280.304,59.6543 281.5,59C 286.514,57.4767 287.847,54.31 285.5,49.5 Z"/></g>
<g><path style="opacity:1" fill="#d9751c" d="M 215.5,56.5 C 217.225,56.8425 217.725,57.8425 217,59.5C 215.247,60.627 213.413,61.627 211.5,62.5C 210.479,61.9984 210.312,61.3317 211,60.5C 212.667,59.2668 214.167,57.9335 215.5,56.5 Z"/></g>
<g><path style="opacity:1" fill="#d8741b" d="M 204.5,60.5 C 206.344,61.2039 206.844,62.5372 206,64.5C 203.555,65.9064 201.055,67.2398 198.5,68.5C 197.479,67.9984 197.312,67.3317 198,66.5C 200.664,65.0016 202.83,63.0016 204.5,60.5 Z"/></g>
<g><path style="opacity:1" fill="#f6f6f6" d="M 254.5,63.5 C 257.85,63.335 261.183,63.5017 264.5,64C 266.651,64.2649 268.318,65.2649 269.5,67C 265.878,78.9665 261.711,90.7999 257,102.5C 253.951,107.216 249.951,110.882 245,113.5C 251.036,97.4823 254.203,80.8156 254.5,63.5 Z"/></g>
<g><path style="opacity:1" fill="#f7f7f7" d="M 277.5,99.5 C 278.495,88.6794 278.828,77.6794 278.5,66.5C 279.791,66.7373 280.791,66.404 281.5,65.5C 283.861,65.3259 286.194,64.9926 288.5,64.5C 290.797,80.8757 286.964,95.5424 277,108.5C 276.699,105.493 276.865,102.493 277.5,99.5 Z"/></g>
<g><path style="opacity:1" fill="#1b0f03" d="M 92.5,76.5 C 93.791,76.2627 94.791,76.596 95.5,77.5C 90.2825,77.7582 85.1159,77.4249 80,76.5C 75.1816,76.6244 73.6816,78.7911 75.5,83C 77.9005,83.1858 80.2338,83.6858 82.5,84.5C 79.9285,85.7277 78.5952,87.7277 78.5,90.5C 77.5284,88.5069 76.1951,88.1736 74.5,89.5C 74.5,88.8333 74.1667,88.5 73.5,88.5C 73.1667,87.8333 72.8333,87.1667 72.5,86.5C 73.8474,87.0283 75.1807,87.195 76.5,87C 74.1165,85.5904 72.4498,83.5904 71.5,81C 70.552,80.5172 69.552,80.3505 68.5,80.5C 69.1667,79.8333 69.8333,79.1667 70.5,78.5C 71.7562,78.5386 72.7562,78.0386 73.5,77C 72.0692,76.5348 70.9025,75.7014 70,74.5C 69.1488,70.9583 69.6488,67.6249 71.5,64.5C 70.1062,63.3131 70.2729,62.6465 72,62.5C 74,63.8333 76,63.8333 78,62.5C 80.545,63.7381 83.045,65.0714 85.5,66.5C 82.1383,73.5003 84.4716,76.8336 92.5,76.5 Z"/></g>
<g><path style="opacity:1" fill="#e67a1d" d="M 72.5,65.5 C 75.5739,65.8726 78.5739,66.5392 81.5,67.5C 81.1504,74.1728 78.1504,75.8394 72.5,72.5C 71.4249,70.1889 71.4249,67.8555 72.5,65.5 Z"/></g>
<g><path style="opacity:1" fill="#ea7d1e" d="M 192.5,65.5 C 194.225,65.8425 194.725,66.8425 194,68.5C 192.395,71.2735 190.228,71.9402 187.5,70.5C 189.394,69.0546 191.06,67.3879 192.5,65.5 Z"/></g>
<g><path style="opacity:1" fill="#727272" d="M 281.5,65.5 C 280.791,66.404 279.791,66.7373 278.5,66.5C 278.828,77.6794 278.495,88.6794 277.5,99.5C 277.5,88.1667 277.5,76.8333 277.5,65.5C 278.833,65.5 280.167,65.5 281.5,65.5 Z"/></g>
<g><path style="opacity:1" fill="#d5731b" d="M 180.5,71.5 C 181.5,71.5 182.5,71.5 183.5,71.5C 183.719,72.675 183.386,73.675 182.5,74.5C 179.239,75.0161 176.405,76.3495 174,78.5C 172.743,78.1501 172.409,77.4835 173,76.5C 175.544,74.7331 178.044,73.0664 180.5,71.5 Z"/></g>
<g><path style="opacity:1" fill="#da761c" d="M 165.5,76.5 C 166.978,76.238 168.311,76.5713 169.5,77.5C 167.956,79.4461 165.956,79.9461 163.5,79C 164.381,78.2917 165.047,77.4584 165.5,76.5 Z"/></g>
<g><path style="opacity:1" fill="#ea7c1d" d="M 95.5,77.5 C 103.465,80.1145 103.465,82.9479 95.5,86C 91.1556,87.4757 88.8222,85.9757 88.5,81.5C 87.5,81.5 86.5,81.5 85.5,81.5C 85.5191,83.0603 85.8524,84.5603 86.5,86C 84.0842,87.4738 83.0842,89.6405 83.5,92.5C 81.4471,92.5979 79.7804,91.9313 78.5,90.5C 78.5952,87.7277 79.9285,85.7277 82.5,84.5C 80.2338,83.6858 77.9005,83.1858 75.5,83C 73.6816,78.7911 75.1816,76.6244 80,76.5C 85.1159,77.4249 90.2825,77.7582 95.5,77.5 Z"/></g>
<g><path style="opacity:1" fill="#e1781c" d="M 136.5,76.5 C 137.833,76.5 139.167,76.5 140.5,76.5C 140.072,82.1157 137.239,84.449 132,83.5C 131.278,79.7242 132.778,77.3908 136.5,76.5 Z"/></g>
<g><path style="opacity:1" fill="#7c410f" d="M 113.5,81.5 C 111.167,82.1667 108.833,82.8333 106.5,83.5C 105.957,83.44 105.624,83.1067 105.5,82.5C 108.086,81.52 110.753,81.1866 113.5,81.5 Z"/></g>
<g><path style="opacity:1" fill="#e97c1d" d="M 68.5,80.5 C 69.552,80.3505 70.552,80.5172 71.5,81C 72.4498,83.5904 74.1165,85.5904 76.5,87C 75.1807,87.195 73.8474,87.0283 72.5,86.5C 68.1197,86.1656 66.7864,84.1656 68.5,80.5 Z"/></g>
<g><path style="opacity:1" fill="#d6721b" d="M 149.5,81.5 C 150.675,81.281 151.675,81.6143 152.5,82.5C 151.277,83.6139 149.944,83.7805 148.5,83C 149.056,82.6174 149.389,82.1174 149.5,81.5 Z"/></g>
<g><path style="opacity:1" fill="#e67a1d" d="M 45.5,87.5 C 46.6266,88.1217 47.6266,88.955 48.5,90C 47.5944,92.4471 46.7611,94.9471 46,97.5C 41.9247,101.922 39.9247,101.255 40,95.5C 42.054,92.9528 43.8874,90.2861 45.5,87.5 Z"/></g>
<g><path style="opacity:1" fill="#f07f1e" d="M 108.5,111.5 C 109.675,111.719 110.675,111.386 111.5,110.5C 110.263,109.719 109.263,108.719 108.5,107.5C 110.862,107.026 113.195,106.692 115.5,106.5C 112.814,104.143 109.814,102.143 106.5,100.5C 105.167,99.5 105.167,98.5 106.5,97.5C 108.432,96.4798 110.432,96.3131 112.5,97C 114.351,98.6837 116.018,100.517 117.5,102.5C 117.833,102.167 118.167,101.833 118.5,101.5C 117.557,98.5999 115.89,96.2666 113.5,94.5C 116.447,93.6786 119.447,93.1786 122.5,93C 124.686,91.4884 126.353,89.4884 127.5,87C 129.833,86.6667 132.167,86.3333 134.5,86C 137.11,84.5186 139.777,83.3519 142.5,82.5C 142.67,83.8221 142.337,84.9887 141.5,86C 137.5,88 133.5,90 129.5,92C 124.351,98.338 124.184,104.838 129,111.5C 136.209,118.186 144.042,124.019 152.5,129C 156.956,133.946 161.623,138.613 166.5,143C 185.465,155.488 204.798,167.488 224.5,179C 232.401,181.756 239.401,180.256 245.5,174.5C 246.408,175.79 246.241,177.123 245,178.5C 235.709,187.196 224.876,189.696 212.5,186C 200.417,180.458 188.751,174.125 177.5,167C 154.537,148.509 129.871,132.509 103.5,119C 101.875,118.147 101.542,117.147 102.5,116C 104.473,115.505 106.473,115.338 108.5,115.5C 108.5,114.167 108.5,112.833 108.5,111.5 Z"/></g>
<g><path style="opacity:1" fill="#eb7c1d" d="M 73.5,88.5 C 74.1667,88.5 74.5,88.8333 74.5,89.5C 74.1961,90.1499 73.8627,90.8165 73.5,91.5C 74.5,92.8333 75.5,94.1667 76.5,95.5C 74.8972,98.9119 75.7305,101.579 79,103.5C 79.1971,106.692 80.0304,109.692 81.5,112.5C 79.0092,116.25 75.6758,117.25 71.5,115.5C 70.5153,113.902 70.3486,112.235 71,110.5C 73.0739,108.548 75.2406,106.715 77.5,105C 73.9854,105.706 70.4854,105.539 67,104.5C 66.3333,103.167 66.3333,101.833 67,100.5C 68.9194,98.3089 70.2527,95.9755 71,93.5C 65.339,96.809 63.6723,101.476 66,107.5C 66.9246,108.047 67.7579,108.713 68.5,109.5C 66.7293,114.219 67.7293,118.219 71.5,121.5C 70.359,127.153 67.0256,129.32 61.5,128C 60.5769,125.959 60.2436,123.792 60.5,121.5C 63.4633,118.537 62.9633,116.204 59,114.5C 58.0711,110.569 58.9045,107.069 61.5,104C 59.0545,100.541 59.0545,97.2076 61.5,94C 58.0295,95.0904 54.3629,95.5904 50.5,95.5C 50.2965,93.6096 50.9632,92.1096 52.5,91C 55.7259,90.1145 58.7259,88.7812 61.5,87C 58.0241,86.7664 55.3574,85.2664 53.5,82.5C 55.1412,78.0894 57.8079,77.4228 61.5,80.5C 62.0995,88.4481 66.0995,91.1148 73.5,88.5 Z"/></g>
<g><path style="opacity:1" fill="#008042" d="M 228.5,156.5 C 230.996,159.409 230.996,162.576 228.5,166C 232.381,167.059 235.381,165.892 237.5,162.5C 236.311,161.571 234.978,161.238 233.5,161.5C 233.215,159.712 233.548,158.045 234.5,156.5C 236.786,157.42 239.119,157.42 241.5,156.5C 241.599,162.243 239.599,166.91 235.5,170.5C 230.551,171.041 225.884,170.208 221.5,168C 217.431,164.937 213.098,162.27 208.5,160C 207.687,158.197 206.52,156.697 205,155.5C 198.769,151.627 192.269,148.127 185.5,145C 183.861,140.195 180.527,137.362 175.5,136.5C 174.833,135.167 174.167,133.833 173.5,132.5C 164.661,126.914 155.994,121.081 147.5,115C 131.013,98.792 134.347,92.1253 157.5,95C 170.398,98.4225 181.731,104.589 191.5,113.5C 190.975,114.192 190.308,114.692 189.5,115C 193.826,117.335 198.16,119.335 202.5,121C 194.89,112.384 186.39,104.884 177,98.5C 172.992,91.8855 173.826,86.0522 179.5,81C 184.267,77.2747 189.6,75.2747 195.5,75C 190.647,78.8553 186.147,83.022 182,87.5C 181.333,90.1667 181.333,92.8333 182,95.5C 186.467,100.968 191.3,106.135 196.5,111C 202.792,115.623 208.792,120.623 214.5,126C 208.551,127.006 202.884,126.172 197.5,123.5C 193.824,135.512 197.491,144.845 208.5,151.5C 208.833,151.333 209.167,151.167 209.5,151C 206.249,147.581 203.582,143.747 201.5,139.5C 202.833,137.833 204.167,136.167 205.5,134.5C 206.5,135 207.5,135.5 208.5,136C 211.964,140.422 214.797,145.256 217,150.5C 220.044,153.375 222.877,156.375 225.5,159.5C 226.855,158.812 227.855,157.812 228.5,156.5 Z"/></g>
<g><path style="opacity:1" fill="#e97c1d" d="M 108.5,111.5 C 104.065,114.351 100.065,113.684 96.5,109.5C 93.0851,111.153 90.0851,110.653 87.5,108C 87.9981,106.842 88.8315,106.009 90,105.5C 93.5015,107.733 97.0015,107.9 100.5,106C 97.3771,105.794 94.3771,105.127 91.5,104C 90.6634,102.989 90.33,101.822 90.5,100.5C 87.8589,101.263 85.1922,101.43 82.5,101C 81.0099,98.7997 81.3432,96.9664 83.5,95.5C 89.643,98.3152 95.643,98.1486 101.5,95C 97.1667,94.6667 92.8333,94.3333 88.5,94C 87.4838,91.2034 88.4838,89.3701 91.5,88.5C 94.8333,89.8333 98.1667,91.1667 101.5,92.5C 103.797,91.3403 103.464,90.3403 100.5,89.5C 99.4173,88.635 99.2506,87.635 100,86.5C 102.294,85.5783 104.461,84.5783 106.5,83.5C 108.833,82.8333 111.167,82.1667 113.5,81.5C 118.796,80.2377 124.129,78.9044 129.5,77.5C 128.779,83.522 125.112,86.522 118.5,86.5C 118.992,82.7104 118.159,82.0437 116,84.5C 115.333,85.5 115.333,86.5 116,87.5C 118.147,88.1125 120.314,88.7792 122.5,89.5C 122.291,90.086 121.957,90.586 121.5,91C 115.021,89.1104 109.521,90.6104 105,95.5C 104.333,97.5 104.333,99.5 105,101.5C 108.822,102.787 109.322,104.787 106.5,107.5C 107.63,108.622 108.297,109.956 108.5,111.5 Z"/></g>
<g><path style="opacity:1" fill="#1e1104" d="M 60.5,121.5 C 60.5,120.833 60.1667,120.5 59.5,120.5C 57.6527,118.376 55.986,116.042 54.5,113.5C 55.4373,110.46 56.7706,107.626 58.5,105C 57.8853,102.485 56.8853,100.152 55.5,98C 53.5273,97.5045 51.5273,97.3379 49.5,97.5C 49.8333,96.8333 50.1667,96.1667 50.5,95.5C 54.3629,95.5904 58.0295,95.0904 61.5,94C 59.0545,97.2076 59.0545,100.541 61.5,104C 58.9045,107.069 58.0711,110.569 59,114.5C 62.9633,116.204 63.4633,118.537 60.5,121.5 Z"/></g>
<g><path style="opacity:1" fill="#e47a1d" d="M 43.5,102.5 C 47.3924,103.742 48.3924,106.242 46.5,110C 39.7463,110.218 38.7463,107.718 43.5,102.5 Z"/></g>
<g><path style="opacity:1" fill="#e97c1d" d="M 84.5,112.5 C 86.5243,115.519 88.191,118.852 89.5,122.5C 85.5849,124.382 82.7516,123.382 81,119.5C 80.1301,120.108 79.6301,120.941 79.5,122C 83.621,128.345 81.621,130.679 73.5,129C 72.3977,126.599 72.231,124.099 73,121.5C 77.2844,119.046 81.1177,116.046 84.5,112.5 Z"/></g>
<g><path style="opacity:1" fill="#ec7d1e" d="M 92.5,206.5 C 93.0431,206.44 93.3764,206.107 93.5,205.5C 89.8927,204.511 86.226,204.177 82.5,204.5C 77.2603,204.742 74.427,202.408 74,197.5C 77.2729,196.34 80.6062,196.34 84,197.5C 84.8333,197.167 85.6667,196.833 86.5,196.5C 86.3333,196.167 86.1667,195.833 86,195.5C 82.6879,194.024 79.1879,193.19 75.5,193C 70.9359,190.924 69.9359,187.924 72.5,184C 75.7527,182.964 79.086,182.297 82.5,182C 83.8333,181 83.8333,180 82.5,179C 79.3771,178.794 76.3771,178.127 73.5,177C 72.5939,175.301 72.2606,173.467 72.5,171.5C 77.3825,171.807 82.0492,170.974 86.5,169C 85.8333,168.333 85.1667,167.667 84.5,167C 81.8333,166.667 79.1667,166.333 76.5,166C 73.2365,161.599 74.4031,159.099 80,158.5C 90.8794,159.5 91.0461,157.834 80.5,153.5C 79.4173,152.635 79.2506,151.635 80,150.5C 83.7208,149.045 87.5541,147.878 91.5,147C 89.5101,145.249 87.1768,144.249 84.5,144C 83.1667,142.667 83.1667,141.333 84.5,140C 88.1516,139.501 91.8183,139.335 95.5,139.5C 95.5,138.5 95.5,137.5 95.5,136.5C 88.8323,136.691 88.1656,135.191 93.5,132C 97.211,131.825 100.878,131.325 104.5,130.5C 103.009,128.988 101.176,127.988 99,127.5C 98.4562,125.155 99.4562,123.821 102,123.5C 108.68,126.09 115.18,129.09 121.5,132.5C 122.811,135.063 121.978,136.73 119,137.5C 116.929,136.213 114.762,135.047 112.5,134C 111.056,133.219 109.723,133.386 108.5,134.5C 110.795,136.48 113.461,137.647 116.5,138C 118.037,139.11 118.703,140.61 118.5,142.5C 113.367,142.921 108.534,141.921 104,139.5C 103.5,139.833 103,140.167 102.5,140.5C 105.348,143.093 108.681,144.926 112.5,146C 113.911,149.282 112.745,151.116 109,151.5C 106.333,150.833 103.667,150.167 101,149.5C 97.9165,150.593 98.0832,151.76 101.5,153C 104.5,153.333 107.5,153.667 110.5,154C 111.517,155.049 111.684,156.216 111,157.5C 106.012,159.033 100.846,160.033 95.5,160.5C 99.1224,161.325 102.789,161.825 106.5,162C 109.394,162.869 110.561,164.702 110,167.5C 104.884,168.764 99.7172,168.764 94.5,167.5C 90.5513,168.813 90.5513,170.313 94.5,172C 99.5,172.333 104.5,172.667 109.5,173C 110.833,174.667 110.833,176.333 109.5,178C 103.53,178.975 97.5298,179.808 91.5,180.5C 98.4764,181.331 105.476,181.831 112.5,182C 113.86,183.938 113.527,185.604 111.5,187C 107.584,188.102 103.584,188.769 99.5,189C 97.8753,189.853 97.5419,190.853 98.5,192C 105.143,191.627 111.81,191.127 118.5,190.5C 118.451,193.099 117.451,195.266 115.5,197C 111.038,198.317 106.704,199.817 102.5,201.5C 104.765,202.647 107.098,202.814 109.5,202C 112.592,200.136 115.926,198.969 119.5,198.5C 121.374,198.39 122.874,199.056 124,200.5C 125.668,207.665 123.168,212.832 116.5,216C 104.095,219.15 91.762,219.15 79.5,216C 76.141,213.966 75.8076,211.632 78.5,209C 83.2431,208.484 87.9097,207.651 92.5,206.5 Z"/></g>
<g><path style="opacity:1" fill="#d7751b" d="M 90.5,124.5 C 91.525,124.897 91.6917,125.563 91,126.5C 88.9783,129.759 86.145,131.259 82.5,131C 85.0534,128.575 87.7201,126.408 90.5,124.5 Z"/></g>
<g><path style="opacity:1" fill="#eb7d1d" d="M 49.5,97.5 C 51.5273,97.3379 53.5273,97.5045 55.5,98C 56.8853,100.152 57.8853,102.485 58.5,105C 56.7706,107.626 55.4373,110.46 54.5,113.5C 55.986,116.042 57.6527,118.376 59.5,120.5C 56.3853,125.864 57.052,130.697 61.5,135C 60.1354,138.321 60.4688,141.487 62.5,144.5C 64.1667,145.167 65.8333,145.833 67.5,146.5C 66.2332,150.382 63.7332,151.715 60,150.5C 59.6948,148.443 59.6948,146.443 60,144.5C 58.3804,146.241 56.8804,148.075 55.5,150C 54.6683,150.688 54.0016,150.521 53.5,149.5C 52.0246,144.061 52.3579,138.727 54.5,133.5C 54.3333,133.167 54.1667,132.833 54,132.5C 53.044,133.579 52.2106,134.745 51.5,136C 50.365,136.749 49.365,136.583 48.5,135.5C 50.4113,132.878 52.7446,130.711 55.5,129C 52.9703,129.796 50.3037,130.129 47.5,130C 45.174,123.319 47.5073,119.319 54.5,118C 52.9194,117.293 51.4194,116.46 50,115.5C 48.2845,118.397 45.7845,119.731 42.5,119.5C 42.5,117.833 42.5,116.167 42.5,114.5C 43.552,114.649 44.552,114.483 45.5,114C 48.8333,111.333 52.1667,108.667 55.5,106C 51.2526,105.897 48.5859,103.897 47.5,100C 47.6842,98.6244 48.3509,97.7911 49.5,97.5 Z"/></g>
<g><path style="opacity:1" fill="#e67b1d" d="M 235.5,170.5 C 237.928,169.788 240.261,168.788 242.5,167.5C 242.939,171.727 240.939,174.56 236.5,176C 230.54,176.761 224.873,175.761 219.5,173C 193.602,159.101 169.935,142.101 148.5,122C 143.999,119.584 139.666,116.917 135.5,114C 133.549,112.266 132.549,110.099 132.5,107.5C 133.552,107.351 134.552,107.517 135.5,108C 141.208,113.377 147.208,118.377 153.5,123C 155.345,124.128 157.345,124.628 159.5,124.5C 160.637,129.106 163.637,131.94 168.5,133C 170.037,134.11 170.703,135.61 170.5,137.5C 172.564,137.687 174.564,138.187 176.5,139C 181.976,144.565 187.642,149.898 193.5,155C 196.393,156.149 199.393,156.649 202.5,156.5C 202.178,158.722 202.845,160.556 204.5,162C 206.952,162.29 209.285,162.956 211.5,164C 215.156,167.163 219.156,169.829 223.5,172C 226.833,172.667 230.167,172.667 233.5,172C 234.416,171.722 235.082,171.222 235.5,170.5 Z"/></g>
<g><path style="opacity:1" fill="#007f42" d="M 228.5,156.5 C 221.05,150.351 215.383,142.684 211.5,133.5C 221.864,131.597 229.697,135.264 235,144.5C 242.279,158.621 240.779,159.121 230.5,146C 229.234,145.691 228.067,145.191 227,144.5C 226.501,139.86 224.001,137.36 219.5,137C 220.729,138.529 222.229,139.696 224,140.5C 224.333,141.833 224.667,143.167 225,144.5C 227.488,146.743 230.154,148.743 233,150.5C 233.49,151.793 233.657,153.127 233.5,154.5C 231.302,154.12 229.635,154.787 228.5,156.5 Z"/></g>
<g><path style="opacity:1" fill="#743d0e" d="M 62.5,144.5 C 64.604,144.201 66.604,144.534 68.5,145.5C 68.3764,146.107 68.0431,146.44 67.5,146.5C 65.8333,145.833 64.1667,145.167 62.5,144.5 Z"/></g>
<g><path style="opacity:1" fill="#e77b1d" d="M 14.5,144.5 C 21.6769,151.184 21.0102,157.184 12.5,162.5C 12.1667,161.833 11.8333,161.167 11.5,160.5C 12.504,155.154 13.504,149.82 14.5,144.5 Z"/></g>
<g><path style="opacity:1" fill="#e97c1d" d="M 33.5,103.5 C 37.5482,103.724 39.2149,105.891 38.5,110C 38.4129,114.335 36.4129,117.501 32.5,119.5C 32.8869,120.72 33.7202,121.387 35,121.5C 36.5671,120.144 38.4004,119.477 40.5,119.5C 40.6655,123.514 40.4988,127.514 40,131.5C 39.3257,133.517 38.1591,135.183 36.5,136.5C 36.8869,137.72 37.7202,138.387 39,138.5C 40.9597,137.708 42.4597,136.375 43.5,134.5C 46.2879,140.304 45.9546,145.971 42.5,151.5C 42.8333,151.833 43.1667,152.167 43.5,152.5C 44.8745,151.289 46.3745,150.289 48,149.5C 51.1953,154.257 51.0286,159.09 47.5,164C 49.7674,163.366 51.7674,162.366 53.5,161C 57.4322,165.737 57.4322,170.404 53.5,175C 51.5,175.333 49.5,175.667 47.5,176C 50.1667,177.333 50.1667,178.667 47.5,180C 45.0243,181.309 43.0243,183.142 41.5,185.5C 40.8076,184.975 40.3076,184.308 40,183.5C 38.3742,185.917 36.8742,188.417 35.5,191C 33.5594,191.743 31.7261,191.576 30,190.5C 30.5024,196.155 28.0024,199.155 22.5,199.5C 22.0257,204.973 19.0257,207.64 13.5,207.5C 13.4889,205.453 13.1556,203.453 12.5,201.5C 14.2703,196.062 17.9369,192.729 23.5,191.5C 24.9587,189.417 26.2921,187.25 27.5,185C 29.9494,184.275 32.2827,183.275 34.5,182C 38.4078,177.515 42.0745,172.848 45.5,168C 43.1044,161.92 40.9377,155.753 39,149.5C 38.2419,147.231 38.4086,145.064 39.5,143C 34.7631,137.792 32.5965,131.625 33,124.5C 28.3241,117.404 28.4908,110.404 33.5,103.5 Z"/></g>
<g><path style="opacity:1" fill="#ec7d1e" d="M 68.5,130.5 C 72.7088,132.48 77.0421,134.147 81.5,135.5C 76.4022,141.515 74.0688,148.515 74.5,156.5C 73.5224,156.977 72.6891,157.643 72,158.5C 71.8236,161.882 71.3236,165.215 70.5,168.5C 66.1735,171.477 65.5068,175.144 68.5,179.5C 66.5984,181.063 65.5984,183.063 65.5,185.5C 66.0961,188.515 67.0961,191.349 68.5,194C 68.0665,195.928 67.3998,197.761 66.5,199.5C 67.5589,202.068 69.2256,204.235 71.5,206C 72.3511,216.653 67.6844,220.487 57.5,217.5C 58.4803,216.019 59.647,214.685 61,213.5C 61.6877,212.668 61.521,212.002 60.5,211.5C 54.2067,217.589 50.2067,216.255 48.5,207.5C 48.4858,205.407 49.1524,203.574 50.5,202C 48.6123,202.127 46.9457,202.96 45.5,204.5C 44.8333,204.333 44.1667,204.167 43.5,204C 41.3742,201.567 40.0409,198.734 39.5,195.5C 37.7026,200.62 38.7026,205.12 42.5,209C 40.9269,212.452 38.4269,213.286 35,211.5C 32.414,200.94 30.7473,201.273 30,212.5C 26.4566,215.38 23.2899,215.047 20.5,211.5C 27.784,202.714 35.6173,194.381 44,186.5C 44.6284,192.302 47.7951,194.968 53.5,194.5C 52.4209,202.562 55.7542,206.729 63.5,207C 64.3081,206.692 64.9747,206.192 65.5,205.5C 61.9504,205.308 59.4504,203.642 58,200.5C 57.3208,195.978 57.6541,191.644 59,187.5C 55.1848,192.867 51.6848,192.7 48.5,187C 49.2779,184.61 50.4445,182.443 52,180.5C 54.1238,181.622 55.9571,183.122 57.5,185C 59.9563,185.946 61.9563,185.446 63.5,183.5C 61.5767,182.692 59.5767,182.192 57.5,182C 56.0183,179.408 56.3517,177.075 58.5,175C 60.6705,173.414 63.0038,172.08 65.5,171C 63.567,170.749 61.7337,170.249 60,169.5C 58.332,164.654 56.4987,159.82 54.5,155C 54.3875,153.338 55.0542,152.171 56.5,151.5C 57.9842,153.074 59.6508,154.407 61.5,155.5C 59.8953,158.58 60.562,161.08 63.5,163C 69.852,163.231 70.0186,162.398 64,160.5C 62.8991,156.943 63.8991,154.277 67,152.5C 68.582,154.029 70.4153,154.529 72.5,154C 70.6969,153.363 69.3636,152.197 68.5,150.5C 70.5821,146.253 73.2488,142.419 76.5,139C 73.8355,139.48 71.1688,140.313 68.5,141.5C 65.1961,140.713 63.6961,138.713 64,135.5C 65.7073,133.963 67.2073,132.296 68.5,130.5 Z"/></g>
<g><path style="opacity:1" fill="#65350d" d="M 82.5,204.5 C 86.226,204.177 89.8927,204.511 93.5,205.5C 93.3764,206.107 93.0431,206.44 92.5,206.5C 89.1667,205.833 85.8333,205.167 82.5,204.5 Z"/></g>
<g><path style="opacity:1" fill="#ed7e1e" d="M 43.5,211.5 C 45.4828,212.902 47.1495,214.736 48.5,217C 45.8626,219.074 43.3626,218.907 41,216.5C 41.2133,214.6 42.0466,212.933 43.5,211.5 Z"/></g>
</svg>