<svg xmlns="http://www.w3.org/2000/svg" viewBox="0.89 1.07 246 101.75">
 <g transform="matrix(1.3333 0 0 -1.3333 -88.213 140.78)">
  <g transform="translate(220.62 30.448)">
   <path d="m-61.656 74.336c-5.9462-0.0017-11.892-0.13811-17.834-0.40861-3.4894-3.6263-6.9771-7.2977-10.462-11.017v-46.91c3.4848-3.2169 6.9724-6.479 10.462-9.7879 11.883 0.53984 23.784 0.54367 35.668 0.010237 3.5215 3.3101 7.042 6.5719 10.56 9.7871v14.426c-6.2475 0.44841-12.502 0.74771-18.759 0.89912v-8.5382c-1.0209-0.95622-2.0419-1.9169-3.0633-2.8825-4.2494 0.06988-8.4986 0.07011-12.748 0.0026-1.1199 1.0622-2.2395 2.1185-3.3593 3.1708v34.153c1.1199 1.1397 2.2395 2.2745 3.3593 3.4054 4.2494 0.06697 8.4986 0.06589 12.748-0.0034 1.0214-1.0308 2.0425-2.0653 3.0633-3.1043v-7.9496c6.2579-0.15025 12.512-0.44986 18.759-0.89826v14.231c-3.518 3.7206-7.0385 7.3923-10.56 11.018-5.9417 0.26672-11.888 0.3992-17.834 0.39752zm32.936-2.0814v-10.998c1.1367-0.09492 2.2724-0.19433 3.4079-0.29857v-46.316c3.4807-3.7888 6.9588-7.6232 10.432-11.503 10.664-1.2684 21.289-2.9725 31.848-5.1132 3.472 2.7638 6.9368 5.4806 10.394 8.1501v46.317c1.1169-0.25856 2.2339-0.52146 3.3491-0.78993v10.998c-8.4091 2.019-16.868 3.7582-25.363 5.2164v-10.998c1.1769-0.20208 2.3539-0.409 3.5291-0.62273v-38.956c-1.1065-0.91138-2.2142-1.8273-3.3218-2.7485-2.9793 0.51247-5.9625 0.99077-8.9494 1.4357-1.1111 1.2771-2.2223 2.5502-3.3346 3.8191v38.955c1.2142-0.17005 2.4275-0.34549 3.64-0.52719v10.998c-8.5169 1.2736-17.065 2.2672-25.631 2.9806zm-76.925-0.38729c-12.688-1.4256-25.324-3.4673-37.864-6.1258-3.4347-4.1958-6.862-8.4389-10.281-12.727v-46.911c3.419-2.6462 6.8463-5.3393 10.281-8.0793 12.539 2.659 25.175 4.7013 37.864 6.1258 3.2792 3.6397 6.5615 7.2392 9.8459 10.796v28.362c-10.84-0.94341-21.651-2.336-32.404-4.1757v-13.544c4.5621 0.78152 9.1346 1.4812 13.715 2.1002v-9.5192c-0.68717-0.77977-1.3744-1.5612-2.061-2.345-5.1666-0.72619-10.322-1.5563-15.464-2.4875-1.1065 0.87877-2.2128 1.7537-3.3175 2.6231v34.446c1.1053 1.3225 2.2116 2.6404 3.3175 3.953 5.1422 0.93176 10.298 1.7613 15.464 2.4875 0.68659-0.62312 1.3738-1.2481 2.061-1.8759v-5.7888c6.216 0.84033 12.448 1.5321 18.689 2.0755v11.776c-3.2845 2.9857-6.5667 5.9303-9.8459 8.8334z" fill="#522398"/>
  </g>
 </g>
</svg>