<?xml version="1.0" encoding="UTF-8"?>
<svg version="1.1" xmlns="http://www.w3.org/2000/svg" width="839" height="615">
<path d="M0 0 C90.42 0 180.84 0 274 0 C274 31.02 274 62.04 274 94 C315.25 94 356.5 94 399 94 C399 62.98 399 31.96 399 0 C489.09 0 579.18 0 672 0 C669.75192719 6.74421842 669.75192719 6.74421842 667.41796875 9.85546875 C666.90500244 10.5501123 666.39203613 11.24475586 665.86352539 11.96044922 C665.31043701 12.69537598 664.75734863 13.43030273 664.1875 14.1875 C663.0005536 15.79666657 661.81571993 17.40739329 660.6328125 19.01953125 C660.02727539 19.84404785 659.42173828 20.66856445 658.79785156 21.51806641 C655.97366887 25.41684984 653.26504292 29.3913438 650.5625 33.375 C646.10731879 39.92792434 641.61206606 46.44969849 637.0625 52.9375 C636.48556396 53.76040527 635.90862793 54.58331055 635.31420898 55.43115234 C632.92753422 58.8331015 630.53876021 62.23357061 628.14892578 65.63330078 C626.90788935 67.39910346 625.66740938 69.16529737 624.42749023 70.93188477 C623.2759262 72.57258666 622.12320872 74.21248 620.96899414 75.85131836 C617.84967957 80.29651819 614.79866591 84.78142034 611.79052734 89.30273438 C611.07826996 90.3727771 610.36601257 91.44281982 609.63217163 92.54528809 C608.82424667 93.76037048 608.82424667 93.76037048 608 95 C608.90496247 94.99392447 609.80992495 94.98784895 610.74231052 94.98158932 C633.0070595 94.83256894 655.27184552 94.69094164 677.53669071 94.5570364 C688.30484074 94.49210559 699.07296639 94.42488626 709.84106445 94.35180664 C719.2526087 94.28793984 728.66417024 94.22884746 738.07577699 94.17494446 C743.03542588 94.14638673 747.99503909 94.11581069 752.95463753 94.07946587 C781.65325766 93.87124737 810.31042424 94.25372415 839 95 C838.09711393 99.20621907 836.06121761 102.42721499 833.76953125 106.015625 C833.32728714 106.71504211 832.88504303 107.41445923 832.42939758 108.1350708 C827.28069053 116.22009911 821.89550778 124.14641348 816.50698853 132.07263184 C804.08568423 150.35051829 791.85413675 168.748627 779.71948242 187.21777344 C779.14241547 188.09602783 778.56534851 188.97428223 777.97079468 189.87915039 C776.91781781 191.48238911 775.86542901 193.08601435 774.81387329 194.69018555 C774.32655731 195.43276611 773.83924133 196.17534668 773.3371582 196.94042969 C772.86184914 197.69731803 772.38654007 198.45420637 771.8968277 199.23403072 C770 202 770 202 767.53153801 204.77014256 C757.71640552 216.31554785 758.56185821 228.99373707 758.70741236 243.50525773 C758.73233682 247.09029231 758.69910258 250.67489067 758.6736908 254.25985718 C758.63328393 261.26265798 758.64628068 268.26435838 758.67884222 275.26716121 C758.70425484 280.96138838 758.70955521 286.65531391 758.70078087 292.34958839 C758.69953726 293.16282294 758.69829365 293.97605748 758.69701236 294.81393549 C758.69438718 296.46643879 758.69171075 298.118942 758.68898364 299.77144513 C758.66569573 315.23060369 758.70270856 330.68915868 758.76120319 346.14819495 C758.80998882 359.39274461 758.80921119 372.63652631 758.77172852 385.88110352 C758.72814742 401.29295912 758.71368186 416.70437395 758.74650019 432.11627132 C758.74993705 433.76146712 758.75334363 435.40666298 758.75671959 437.0518589 C758.75840306 437.86115807 758.76008652 438.67045724 758.76182101 439.50428062 C758.77171575 445.18858702 758.76119132 450.87264292 758.74277687 456.55692101 C758.72095621 463.48856442 758.73173132 470.41927011 758.78335563 477.35076984 C758.80888501 480.88289887 758.82044924 484.41351545 758.79256821 487.94566154 C758.09677269 506.52490372 758.09677269 506.52490372 766.81792736 522.03277302 C767.53801133 522.68195792 768.2580953 523.33114283 769 524 C769.89785923 525.11733748 770.77335472 526.25363875 771.609375 527.41796875 C772.66898438 528.78888672 772.66898438 528.78888672 773.75 530.1875 C774.58877847 531.2745569 775.42730648 532.3618071 776.265625 533.44921875 C776.70326172 534.01688965 777.14089844 534.58456055 777.59179688 535.16943359 C780.23600633 538.60672252 782.86719639 542.05397224 785.5 545.5 C790.98550527 552.67790151 796.48796795 559.84245105 802 567 C804.08617229 569.71128275 806.17170585 572.42305677 808.25732422 575.13476562 C810.30233987 577.79352478 812.34794817 580.45182177 814.39453125 583.109375 C816.45711747 585.78840459 818.5175545 588.46906159 820.57714844 591.15039062 C822.186854 593.24289738 823.8006423 595.33223127 825.4140625 597.421875 C826.58865728 598.94782768 827.76313756 600.4738685 828.9375 602 C829.49348877 602.71833008 830.04947754 603.43666016 830.62231445 604.17675781 C831.14784912 604.86092773 831.67338379 605.54509766 832.21484375 606.25 C832.91275024 607.15492188 832.91275024 607.15492188 833.62475586 608.078125 C835.22200162 610.31024263 836.5984672 612.64117936 838 615 C791.12941541 615.08563069 744.25882473 615.1652287 697.38818359 615.2117157 C696.34688144 615.21275113 696.34688144 615.21275113 695.28454289 615.21380747 C680.19603081 615.22877359 665.1075179 615.24262427 650.01900375 615.25532665 C642.61911429 615.26156308 635.21922506 615.26804589 627.81933594 615.2746582 C626.71479572 615.2756389 626.71479572 615.2756389 625.58794156 615.2766394 C601.73985239 615.2979289 577.89182263 615.33547253 554.04376942 615.3814861 C529.52751898 615.42870278 505.01130139 615.45943966 480.49500625 615.46957495 C477.02865317 615.47101563 473.5623002 615.47264381 470.09594727 615.47438622 C469.4137497 615.47472333 468.73155213 615.47506045 468.0286819 615.47540778 C457.06720174 615.48130596 446.10582345 615.50446802 435.14438476 615.53416017 C424.1122897 615.5636726 413.08028033 615.57441743 402.04814517 615.56750689 C396.07556015 615.56430869 390.103273 615.56916499 384.13074112 615.59602737 C378.65496165 615.62047487 373.17967854 615.62151301 367.70387554 615.60449447 C365.73051178 615.60239312 363.75711623 615.60863764 361.78381443 615.62441591 C346.48349827 615.7395697 333.380075 613.43234864 319.6875 606.125 C319.02782227 605.78186768 318.36814453 605.43873535 317.68847656 605.08520508 C307.47569853 599.69650961 298.80234274 593.49809111 290.52050781 585.46923828 C289.01491141 584.01440862 287.48943978 582.58304154 285.9609375 581.15234375 C265.49054532 561.69491263 254.19808393 537.99281476 247 511 C165.49 510.67 83.98 510.34 0 510 C4.05637645 503.62569415 8.0471643 497.36907929 12.4375 491.25 C13.48123521 489.78309714 14.52415905 488.31561673 15.56640625 486.84765625 C16.11828613 486.0705127 16.67016602 485.29336914 17.23876953 484.49267578 C20.47719164 479.90932539 23.67424808 475.29719719 26.875 470.6875 C31.90345418 463.44900475 36.9415021 456.21753342 42 449 C47.03045031 441.81918855 52.05185546 434.63214776 57.0625 427.4375 C57.66255859 426.57705078 58.26261719 425.71660156 58.88085938 424.83007812 C60.12422322 423.04348427 61.35032861 421.24477268 62.56011486 419.43527317 C64.30423137 416.89408686 66.1997279 414.56330795 68.20176411 412.22109127 C79.4072542 398.49609088 79.87324636 386.31193229 79.69799805 369.09008789 C79.7101614 366.32159681 79.74162249 363.55339371 79.77189636 360.78504944 C79.83308976 354.09004489 79.82496898 347.39691831 79.79055705 340.70179064 C79.76376912 335.25316816 79.76239912 329.80507292 79.77854347 324.35641289 C79.78082422 323.57655906 79.78310498 322.79670524 79.78545484 321.99321948 C79.79018429 320.4082151 79.79496478 318.82321087 79.79979572 317.2382068 C79.84189222 302.42578133 79.8040024 287.61439497 79.73860685 272.80210816 C79.68463168 260.13513229 79.70173225 247.46986227 79.77026367 234.80297852 C79.85011596 220.03983969 79.88358806 205.27773367 79.84595329 190.51439279 C79.84206442 188.93539631 79.83824045 187.35639967 79.83448219 185.77740288 C79.83261732 185.00081457 79.83075245 184.22422626 79.82883107 183.42410498 C79.81896007 177.99228988 79.84163227 172.56118973 79.8775692 167.12950325 C79.92065235 160.49452892 79.91282309 153.86183425 79.84269085 147.22705609 C79.80823733 143.85017666 79.80249663 140.48028635 79.84383392 137.10301971 C80.04022809 119.513196 77.41770466 108.68364282 65.84327567 95.22204864 C62.67296068 91.40026863 59.92094229 87.28657889 57.125 83.1875 C56.16037842 81.810177 56.16037842 81.810177 55.17626953 80.4050293 C50.09144544 73.13812236 45.0282303 65.85626121 39.96582031 58.57373047 C35.61235315 52.31285973 31.24924664 46.05886996 26.875 39.8125 C26.31103516 39.00707764 25.74707031 38.20165527 25.16601562 37.37182617 C22.1886942 33.12112859 19.20860665 28.87238562 16.2265625 24.625 C15.60281738 23.73578857 14.97907227 22.84657715 14.33642578 21.93041992 C13.1560023 20.2476652 11.97475564 18.56548747 10.79248047 16.8840332 C0 1.49403979 0 1.49403979 0 0 Z " fill="#0463AB" transform="translate(0,0)"/>
<path d="M0 0 C40.92 0 81.84 0 124 0 C124 57.09 124 114.18 124 173 C199.57 173 275.14 173 353 173 C353 115.91 353 58.82 353 0 C393.92 0 434.84 0 477 0 C472.50459793 7.86695363 472.50459793 7.86695363 470.2578125 10.734375 C469.75540039 11.38212891 469.25298828 12.02988281 468.73535156 12.69726562 C468.20393555 13.37466797 467.67251953 14.05207031 467.125 14.75 C461.43480153 22.08900671 455.89123241 29.52477436 450.40673828 37.01855469 C449.8445459 37.78586914 449.28235352 38.55318359 448.703125 39.34375 C447.95530762 40.36758789 447.95530762 40.36758789 447.19238281 41.41210938 C446 43 446 43 445 44 C444.89013072 45.69689554 444.85051655 47.39836676 444.8378458 49.09876823 C444.82722097 50.21069538 444.81659614 51.32262253 444.80564934 52.46824443 C444.79901251 53.70525667 444.79237567 54.9422689 444.78553772 56.21676636 C444.77480537 57.51911889 444.76407303 58.82147143 444.75301546 60.16328919 C444.72345896 63.79563137 444.70046906 67.42799021 444.67870772 71.06038642 C444.65930915 74.17230203 444.63626102 77.28418671 444.61331386 80.39607786 C444.39663167 109.94640383 444.28375288 139.49751326 444.19249821 169.04846001 C444.18039043 172.90063422 444.16805686 176.75280764 444.15551758 180.60498047 C444.15085731 182.0411233 444.15085731 182.0411233 444.1461029 183.50627913 C444.0943824 198.98111951 443.99027679 214.45516695 443.86572535 229.92957376 C443.73883007 245.82781419 443.66552807 261.72564399 443.64209074 277.62437737 C443.62748054 286.54645191 443.58906015 295.46704275 443.48921394 304.38860703 C443.4040838 311.99601856 443.3671891 319.60177851 443.39146752 327.2096598 C443.40234679 331.08572777 443.39140614 334.95821155 443.3176651 338.83367157 C442.99386163 356.76752805 444.32369043 369.55224266 457.18785274 383.03211808 C460.24032265 386.3469151 462.84025954 389.99398999 465.5 393.625 C465.96403069 394.2363137 466.42806139 394.84762739 466.90615362 395.47746575 C470.49684063 400.20795374 473.68743601 405.03115401 477 410 C436.08 410 395.16 410 353 410 C353 352.91 353 295.82 353 237 C277.43 237 201.86 237 124 237 C124 294.09 124 351.18 124 410 C83.08 410 42.16 410 0 410 C4.3307203 403.50391956 8.73963196 397.3145322 13.52929688 391.18554688 C14.6189002 389.77842527 15.68495564 388.35287963 16.73192787 386.91375637 C18.47546386 384.67386328 20.21689256 382.70434225 22.16570091 380.6601038 C33.97107424 367.48283946 33.88923846 353.73712608 33.69942069 336.93717992 C33.66967306 333.03295996 33.7155689 329.12945849 33.75115967 325.22538757 C33.8086294 317.60151482 33.79663594 309.97931605 33.75879534 302.35538071 C33.72930291 296.15396812 33.72551135 289.95302108 33.73960495 283.7515583 C33.74159698 282.86523909 33.74358901 281.97891988 33.7456414 281.06574251 C33.74979829 279.26459342 33.75401307 277.46344447 33.75828509 275.66229565 C33.79525568 258.81748182 33.75289002 241.97359135 33.68288033 225.12892903 C33.62479689 210.70780542 33.63490648 196.28804249 33.69482422 181.86694336 C33.76455502 165.07641819 33.79169665 148.28669972 33.75186479 131.49604994 C33.74772412 129.70224206 33.74363729 127.90843406 33.73960495 126.11462593 C33.73759937 125.23228431 33.73559379 124.34994269 33.73352743 123.44086344 C33.72235133 117.25381803 33.74114251 111.06728883 33.77183914 104.88032341 C33.80848015 97.33010241 33.79806621 89.78163568 33.72918947 82.23161309 C33.69525541 78.38647071 33.68122134 74.54424126 33.72462845 70.6991272 C33.88853576 54.89094955 33.7436462 42.14338174 22.19049644 30.16574955 C21.64184071 29.62974853 21.09318498 29.0937475 20.52790332 28.54150403 C18.36562566 26.35997874 16.61515346 23.9322192 14.84375 21.4296875 C14.2765625 20.65882812 13.709375 19.88796875 13.125 19.09375 C12.58875 18.3615625 12.0525 17.629375 11.5 16.875 C10.9328125 16.10414062 10.365625 15.33328125 9.78125 14.5390625 C8.18249274 12.36297624 6.58967345 10.18272817 5 8 C4.49984375 7.31583008 3.9996875 6.63166016 3.484375 5.92675781 C0 1.11861394 0 1.11861394 0 0 Z " fill="#FEFEFE" transform="translate(98,50)"/>
<path d="M0 0 C40.59 0 81.18 0 123 0 C121.50944054 2.98111892 120.18654964 5.25651944 118.234375 7.87890625 C117.68040039 8.6265625 117.12642578 9.37421875 116.55566406 10.14453125 C115.95979492 10.94246094 115.36392578 11.74039063 114.75 12.5625 C113.48951759 14.26166998 112.229103 15.96089028 110.96875 17.66015625 C110.31777344 18.53559082 109.66679688 19.41102539 108.99609375 20.31298828 C105.73660342 24.7007024 102.49327637 29.10029555 99.25 33.5 C98.65413086 34.30638916 98.05826172 35.11277832 97.44433594 35.94360352 C96.89036133 36.69440186 96.33638672 37.4452002 95.765625 38.21875 C95.03520996 39.2077832 95.03520996 39.2077832 94.29003906 40.21679688 C91.71807468 43.77198761 90.74970809 45.60286342 90.7438736 49.96560287 C90.7376415 50.99689402 90.73140941 52.02818517 90.72498846 53.09072757 C90.72828743 54.22736889 90.73158641 55.36401021 90.73498535 56.53509521 C90.73060408 57.73989005 90.72622281 58.94468489 90.72170877 60.18598866 C90.71149445 63.53658803 90.71023023 66.88697899 90.71264386 70.23757911 C90.71306256 73.84931554 90.70197211 77.46101803 90.69218445 81.07273865 C90.67670999 87.33579425 90.66831538 93.59882728 90.66447449 99.86190033 C90.65872742 108.93363427 90.6401394 118.00530763 90.61803395 127.07701483 C90.58228499 141.81614451 90.55398899 156.55527762 90.53173828 171.29443359 C90.53040329 172.17701502 90.5290683 173.05959645 90.52769285 173.96892276 C90.51827109 180.22928157 90.50911109 186.48964074 90.5 192.75 C90.48961352 199.88037139 90.47909175 207.01074255 90.46826172 214.14111328 C90.46693098 215.01898175 90.46560023 215.89685022 90.46422917 216.80132076 C90.44175184 231.47019642 90.41152907 246.13904652 90.37586927 260.8078959 C90.35426732 269.84815556 90.33960128 278.88837538 90.33403051 287.92865941 C90.32976346 294.13527486 90.31847382 300.34185248 90.30180657 306.54844692 C90.29245761 310.12291561 90.28626611 313.69731365 90.28886986 317.27179527 C90.30536729 345.60696042 88.76955332 369.73526033 69 392 C68.11248047 393.02867187 68.11248047 393.02867187 67.20703125 394.078125 C53.87633038 408.51734897 33.63759893 416.35775904 15 421 C13.76223155 421.33914177 12.5244631 421.67828354 11.24918652 422.02770233 C-1.75700028 425.42231461 -14.37772539 425.56803355 -27.75463867 425.51757812 C-30.19598302 425.5230101 -32.63732409 425.53013874 -35.07865906 425.53881836 C-40.97683945 425.55505177 -46.87483204 425.55283263 -52.77300688 425.5411678 C-57.57175959 425.53207592 -62.37045536 425.53093408 -67.16921425 425.53526306 C-68.19982022 425.53618246 -68.19982022 425.53618246 -69.25124652 425.53712043 C-70.64766295 425.53839952 -72.04407937 425.53969638 -73.44049577 425.5410108 C-86.48314357 425.55237154 -99.52567825 425.53937276 -112.5683075 425.51780933 C-123.72747958 425.49993039 -134.88648519 425.50305773 -146.0456543 425.52148438 C-159.05129726 425.54295042 -172.05684161 425.5512859 -185.06249982 425.53903532 C-186.45241088 425.53776131 -187.84232196 425.53650382 -189.23223305 425.53526306 C-189.91584015 425.53464596 -190.59944726 425.53402886 -191.30376973 425.53339306 C-196.0909519 425.52995819 -200.87807079 425.53572769 -205.66524315 425.54518127 C-212.12101921 425.55765171 -218.57655629 425.54861758 -225.03230476 425.52560425 C-227.39163572 425.52034598 -229.75099329 425.52178106 -232.11031342 425.53065491 C-259.13598973 425.62288118 -277.81862559 418.98702489 -297.5625 399.875 C-307.4663771 389.96823758 -314.44455115 378.27007828 -319 365 C-319.32817089 364.07794455 -319.65634178 363.15588909 -319.99445724 362.20589256 C-323.25484345 352.11900517 -323.54634484 342.93718097 -323.45410156 332.42822266 C-323.45297071 330.60352097 -323.45361158 328.77881746 -323.45587158 326.95411682 C-323.45701038 322.04378227 -323.43363754 317.13384558 -323.40557575 312.22360277 C-323.38042167 307.0760406 -323.37820912 301.92846742 -323.37347412 296.78085327 C-323.36108526 287.05246617 -323.32831944 277.32426076 -323.28807616 267.59595335 C-323.23483082 254.43644274 -323.21337991 241.2768818 -323.19006729 228.1172905 C-323.15255477 207.41139114 -323.07283677 186.70587503 -323 166 C-292.97 166 -262.94 166 -232 166 C-231.96261719 177.85808594 -231.92523438 189.71617187 -231.88671875 201.93359375 C-231.85642626 209.46680835 -231.82539006 217.00000787 -231.79101562 224.53320312 C-231.73664838 236.47793169 -231.68523045 248.42261842 -231.65356445 260.36743164 C-231.63048232 269.06901819 -231.59697168 277.77049374 -231.55129844 286.47199208 C-231.52750304 291.07296769 -231.50868515 295.67383432 -231.50238609 300.27486992 C-231.49627262 304.61941676 -231.47605159 308.96368525 -231.44572449 313.30812836 C-231.43704332 314.88933683 -231.43320065 316.47058184 -231.43499184 318.05181313 C-231.44915972 336.35582409 -229.75185364 356.24978923 -216.90625 370.44921875 C-212.06538375 374.38738248 -207.55151071 375.44078752 -201.44306946 375.38095093 C-200.7024976 375.3856309 -199.96192575 375.39031087 -199.19891232 375.39513266 C-196.72788271 375.40705783 -194.25741027 375.39763518 -191.78637695 375.38818359 C-190.01025571 375.39225058 -188.234137 375.39759317 -186.45802307 375.40411377 C-181.63954847 375.41778305 -176.82126673 375.41248898 -172.00278878 375.40297651 C-166.95239006 375.39537201 -161.90200766 375.40242828 -156.85160828 375.40713501 C-148.3653162 375.41259275 -139.87910245 375.40540305 -131.39282227 375.39111328 C-121.59988998 375.37481304 -111.80714535 375.3800561 -102.01421767 375.3965925 C-93.59444528 375.41023825 -85.17472916 375.41211116 -76.75494927 375.40427649 C-71.73170062 375.39961355 -66.70853992 375.39893652 -61.68529701 375.40888596 C-56.95660512 375.4175974 -52.2281531 375.41145783 -47.49948692 375.39420319 C-45.77060722 375.39025943 -44.04170709 375.3913359 -42.31283569 375.39799118 C-25.86846367 375.51356144 -25.86846367 375.51356144 -11 369.125 C-10.29875 368.65320313 -9.5975 368.18140625 -8.875 367.6953125 C-1.86023288 361.3527939 -1.38321294 350.20774446 -0.7249037 341.26152706 C-0.6108163 337.49731401 -0.58718411 333.74428512 -0.60127258 329.97839355 C-0.59581544 328.54152322 -0.58905664 327.10465736 -0.58113068 325.66779852 C-0.5633082 321.77035139 -0.56363712 317.87309673 -0.56726015 313.9756186 C-0.56788919 309.75360764 -0.55121583 305.53165843 -0.53674316 301.30967712 C-0.51404784 294.01168853 -0.5020878 286.71374737 -0.49761391 279.41572571 C-0.49112976 268.86428566 -0.46815279 258.31293103 -0.44127061 247.76152557 C-0.39808874 230.63871791 -0.36807299 213.51591386 -0.34643555 196.39306641 C-0.32540001 179.76902491 -0.29810251 163.14501295 -0.26245117 146.52099609 C-0.26025235 145.4946862 -0.25805352 144.4683763 -0.25578807 143.4109661 C-0.24471777 138.26179144 -0.23352508 133.11261706 -0.22227156 127.9634428 C-0.12920831 85.30897974 -0.05999743 42.6545249 0 0 Z " fill="#FEFEFE" transform="translate(620,144)"/>
<path d="M0 0 C40.59 0 81.18 0 123 0 C123 18.48 123 36.96 123 56 C92.97 56 62.94 56 32 56 C31.67 52.04 31.34 48.08 31 44 C29.03076583 40.56032743 27.28885889 37.93283451 24.8125 34.9375 C23.54090678 33.31048944 22.27009762 31.68286585 21 30.0546875 C20.01386719 28.8167041 20.01386719 28.8167041 19.0078125 27.55371094 C15.66658392 23.30404521 12.49875902 18.92879247 9.3125 14.5625 C8.16372085 13.00059523 7.01404634 11.43934842 5.86328125 9.87890625 C5.38157471 9.2247876 4.89986816 8.57066895 4.40356445 7.89672852 C3.40003802 6.54059756 2.36922391 5.20449018 1.32104492 3.88256836 C0 2 0 2 0 0 Z " fill="#FEFEFE" transform="translate(265,145)"/>
</svg>
