<svg xmlns="http://www.w3.org/2000/svg" xmlns:xlink="http://www.w3.org/1999/xlink" version="1.1" style="shape-rendering:geometricPrecision; text-rendering:geometricPrecision; image-rendering:optimizeQuality; fill-rule:evenodd; clip-rule:evenodd" viewBox="1.57 -0.5 631.93 628">
<g><path style="opacity:1" fill="#ff8200" d="M 8.5,-0.5 C 216.833,-0.5 425.167,-0.5 633.5,-0.5C 633.5,78.5 633.5,157.5 633.5,236.5C 587.167,236.5 540.833,236.5 494.5,236.5C 494.5,203.833 494.5,171.167 494.5,138.5C 462.167,138.5 429.833,138.5 397.5,138.5C 397.5,144.167 397.5,149.833 397.5,155.5C 384.113,155.192 374.447,161.026 368.5,173C 365.049,172.869 361.882,171.702 359,169.5C 358.5,146.502 358.333,123.502 358.5,100.5C 416.501,100.333 474.501,100.5 532.5,101C 533.496,134.093 533.829,167.26 533.5,200.5C 554.167,200.5 574.833,200.5 595.5,200.5C 595.5,146.167 595.5,91.8333 595.5,37.5C 412.833,37.5 230.167,37.5 47.5,37.5C 47.5,91.8333 47.5,146.167 47.5,200.5C 68.8333,200.5 90.1667,200.5 111.5,200.5C 111.5,167.167 111.5,133.833 111.5,100.5C 169.5,100.5 227.5,100.5 285.5,100.5C 285.5,112.5 285.5,124.5 285.5,136.5C 271.702,133.467 258.036,133.967 244.5,138C 212.502,138.5 180.502,138.667 148.5,138.5C 148.5,171.5 148.5,204.5 148.5,237.5C 101.833,237.5 55.1667,237.5 8.5,237.5C 8.5,158.167 8.5,78.8333 8.5,-0.5 Z"/></g>
<g><path style="opacity:1" fill="#197097" d="M 396.5,205.5 C 393.833,205.5 391.167,205.5 388.5,205.5C 388.5,206.5 388.5,207.5 388.5,208.5C 387.995,211.841 387.828,215.174 388,218.5C 394.444,212.796 401.944,210.296 410.5,211C 412.329,211.273 413.829,212.107 415,213.5C 420.422,228.773 426.422,243.773 433,258.5C 438.821,249.896 440.821,240.563 439,230.5C 436.333,227.833 433.667,225.167 431,222.5C 429.877,219.044 430.71,216.21 433.5,214C 439.833,213.333 446.167,213.333 452.5,214C 456.528,214.428 459.695,216.262 462,219.5C 463.183,229.401 462.183,239.067 459,248.5C 452.313,266.216 443.313,282.549 432,297.5C 420.467,311.371 405.8,319.704 388,322.5C 383.982,321.941 379.982,321.275 376,320.5C 375.167,320.833 374.333,321.167 373.5,321.5C 371.057,326.61 371.057,331.61 373.5,336.5C 378.405,337.958 383.405,338.958 388.5,339.5C 389.934,341.22 390.767,343.22 391,345.5C 405.041,334.522 420.208,332.688 436.5,340C 441.414,344.393 444.247,349.893 445,356.5C 455.773,338.122 471.606,331.622 492.5,337C 498.2,339.515 503.2,343.015 507.5,347.5C 515.581,342.043 524.414,338.377 534,336.5C 539.055,337.027 543.055,339.361 546,343.5C 556.36,332.071 567.027,331.738 578,342.5C 589.578,334.035 601.578,333.368 614,340.5C 616.899,338.609 620.066,338.109 623.5,339C 626.581,348.438 625.581,357.438 620.5,366C 617.053,367.109 614.386,366.109 612.5,363C 614.479,355.455 611.479,351.289 603.5,350.5C 600.044,351.155 596.877,352.489 594,354.5C 593.192,356.579 593.359,358.579 594.5,360.5C 603.354,363.274 611.521,367.274 619,372.5C 630.762,391.549 626.262,405.383 605.5,414C 593.379,416.039 582.046,414.039 571.5,408C 562.185,399.389 562.185,390.722 571.5,382C 573.025,380.991 574.692,380.491 576.5,380.5C 578.857,380.663 581.19,380.497 583.5,380C 582.956,379.283 582.289,378.783 581.5,378.5C 578.269,376.78 575.436,374.447 573,371.5C 572.059,368.607 570.393,366.274 568,364.5C 560.386,366.795 554.22,364.795 549.5,358.5C 548.167,357.167 546.833,357.167 545.5,358.5C 542.862,362.111 541.029,366.111 540,370.5C 539.112,378.163 538.278,385.829 537.5,393.5C 537.57,394.772 537.903,395.938 538.5,397C 544.615,397.439 547.448,400.606 547,406.5C 546.5,408.333 545.333,409.5 543.5,410C 530.833,410.667 518.167,410.667 505.5,410C 502.006,407.859 501.173,405.025 503,401.5C 505.557,398.808 508.391,396.475 511.5,394.5C 515.571,382.832 517.071,370.832 516,358.5C 514.333,357.167 512.667,357.167 511,358.5C 509.97,362.773 509.303,367.106 509,371.5C 508.394,374.548 506.894,377.048 504.5,379C 498.437,380.126 492.271,380.626 486,380.5C 480.118,380.479 474.285,380.146 468.5,379.5C 465.405,385.149 466.072,390.315 470.5,395C 475.757,396.426 480.257,395.259 484,391.5C 484.975,388.24 486.142,385.073 487.5,382C 492.527,381.062 497.36,381.562 502,383.5C 502.222,400.625 493.722,410.459 476.5,413C 457.315,415.656 445.648,407.49 441.5,388.5C 441.784,386.585 441.451,384.919 440.5,383.5C 440.5,381.833 440.5,380.167 440.5,378.5C 428.204,379.44 415.871,379.773 403.5,379.5C 400.558,391.046 404.892,396.213 416.5,395C 421.568,391.99 423.901,387.49 423.5,381.5C 427.514,381.334 431.514,381.501 435.5,382C 437.066,382.608 438.4,383.442 439.5,384.5C 439.5,387.167 439.5,389.833 439.5,392.5C 438.133,397.588 438.3,402.588 440,407.5C 445,413.833 450.667,419.5 457,424.5C 466.95,436.431 466.95,448.431 457,460.5C 440.594,476.078 421.094,482.245 398.5,479C 392.332,477.944 386.332,476.277 380.5,474C 361.047,462.195 341.88,450.029 323,437.5C 321.601,438.227 320.101,438.727 318.5,439C 311.26,454.614 299.26,459.947 282.5,455C 269.228,446.775 265.395,435.275 271,420.5C 272.793,417.705 274.96,415.205 277.5,413C 272.113,412.216 266.78,412.382 261.5,413.5C 256.444,412.472 252.11,410.139 248.5,406.5C 242.978,409.396 237.145,411.396 231,412.5C 228.739,412.135 226.573,411.469 224.5,410.5C 222.673,407.158 220.173,404.492 217,402.5C 206.629,409.318 195.296,411.318 183,408.5C 180.62,409.201 178.453,410.367 176.5,412C 163.443,412.922 150.443,412.589 137.5,411C 136.333,409.833 135.167,408.667 134,407.5C 120.717,415.112 106.884,416.278 92.5,411C 89.0976,409.6 86.2643,407.433 84,404.5C 80.725,397.707 78.225,390.707 76.5,383.5C 71.2929,392.749 65.9595,401.915 60.5,411C 49.886,412.893 39.2193,412.893 28.5,411C 27.0325,409.902 26.1992,408.402 26,406.5C 21.3333,377.833 16.6667,349.167 12,320.5C 8.56707,318.349 5.23374,316.015 2,313.5C 0.972602,309.82 1.80593,306.653 4.5,304C 19.1667,303.333 33.8333,303.333 48.5,304C 53.6364,310.957 51.9697,315.623 43.5,318C 41.8757,319.117 40.8757,320.617 40.5,322.5C 42.9455,341.289 45.9455,359.956 49.5,378.5C 58.8056,358.887 66.1389,338.553 71.5,317.5C 61.937,316.48 59.937,311.98 65.5,304C 80.1667,303.333 94.8333,303.333 109.5,304C 113.202,306.531 114.035,309.698 112,313.5C 109.136,315.68 106.136,317.68 103,319.5C 98.7172,328.047 95.0505,336.714 92,345.5C 94.2336,343.3 96.7336,341.467 99.5,340C 104.772,338.231 109.939,336.398 115,334.5C 114.599,329.285 113.765,324.118 112.5,319C 116.922,303.28 127.255,296.946 143.5,300C 149.056,302.028 154.556,304.195 160,306.5C 160.772,306.355 161.439,306.022 162,305.5C 163.636,297.912 166.802,291.079 171.5,285C 167.167,284 162.833,283 158.5,282C 156.522,279.503 156.022,276.669 157,273.5C 159.748,271.542 162.582,269.709 165.5,268C 166.701,267.097 167.535,265.931 168,264.5C 170.468,241.655 172.968,218.821 175.5,196C 175,194.5 174.5,193 174,191.5C 171,189.5 168,187.5 165,185.5C 163,182.833 163,180.167 165,177.5C 181.436,176.84 197.936,176.173 214.5,175.5C 216.08,168.34 219.247,162.007 224,156.5C 242.934,140.147 264.434,135.647 288.5,143C 316.651,153.826 343.817,166.66 370,181.5C 376.558,162.47 389.058,156.97 407.5,165C 417.98,174.396 419.813,185.229 413,197.5C 408.734,202.717 403.234,205.383 396.5,205.5 Z M 271.5,176.5 C 304.615,175.403 335.115,183.736 363,201.5C 363.667,203.833 363.667,206.167 363,208.5C 340.006,203.331 324.006,211.664 315,233.5C 311.74,241.874 309.74,250.54 309,259.5C 307.216,262.003 305.549,262.003 304,259.5C 303.182,256.893 302.682,254.226 302.5,251.5C 304.284,239.464 306.284,227.464 308.5,215.5C 307.887,210.333 304.887,207.667 299.5,207.5C 294.241,209.632 289.241,209.465 284.5,207C 270.906,204.65 258.573,207.483 247.5,215.5C 245.247,214.747 243.413,213.414 242,211.5C 239.482,205.57 239.149,199.57 241,193.5C 249.27,184.285 259.436,178.618 271.5,176.5 Z M 213.5,188.5 C 214.978,188.238 216.311,188.571 217.5,189.5C 221.432,196.266 226.598,201.933 233,206.5C 237.36,211.026 240.193,216.359 241.5,222.5C 239.563,230.643 237.229,238.643 234.5,246.5C 230.537,246.089 226.87,246.922 223.5,249C 220.949,253.271 218.782,257.771 217,262.5C 216.25,263.126 215.416,263.626 214.5,264C 208.258,265.37 201.925,265.87 195.5,265.5C 198.065,241.515 200.565,217.515 203,193.5C 206.324,191.308 209.824,189.641 213.5,188.5 Z M 274.5,223.5 C 281.707,225.912 284.207,230.912 282,238.5C 280.764,244.449 278.764,250.116 276,255.5C 271.682,261.728 267.015,262.061 262,256.5C 260.675,246.456 262.675,237.123 268,228.5C 269.805,226.174 271.972,224.508 274.5,223.5 Z M 351.5,223.5 C 354.787,224.055 357.287,225.722 359,228.5C 360.238,240.115 357.071,250.282 349.5,259C 344.968,261.045 341.468,259.878 339,255.5C 338.1,246.666 339.767,238.333 344,230.5C 345.742,227.254 348.242,224.921 351.5,223.5 Z M 367.5,301.5 C 366.77,305.061 366.103,308.727 365.5,312.5C 361.074,312.927 356.74,313.761 352.5,315C 351.299,315.903 350.465,317.069 350,318.5C 349.092,323.193 348.092,327.86 347,332.5C 346.097,333.701 344.931,334.535 343.5,335C 340.167,335.333 336.833,335.667 333.5,336C 331.951,337.214 330.785,338.714 330,340.5C 324.995,335.912 319.162,334.412 312.5,336C 306.833,338.833 301.167,341.667 295.5,344.5C 293.638,338.576 289.638,335.576 283.5,335.5C 272.269,336.777 263.602,342.111 257.5,351.5C 257.529,353.029 258.196,354.196 259.5,355C 262.95,355.763 265.95,357.263 268.5,359.5C 266.436,370.779 264.603,382.112 263,393.5C 260.705,400.751 257.538,401.251 253.5,395C 249.783,394.998 247.45,393.331 246.5,390C 250.233,374.681 252.399,359.181 253,343.5C 249.255,338.845 244.422,337.345 238.5,339C 230.935,340.624 224.435,344.124 219,349.5C 218.333,351.5 218.333,353.5 219,355.5C 221.333,356.877 223.833,357.877 226.5,358.5C 226.833,359.5 227.167,360.5 227.5,361.5C 226.398,367.512 225.231,373.512 224,379.5C 220.381,386.476 214.714,389.143 207,387.5C 207.828,375.688 209.828,364.021 213,352.5C 213.667,348.5 213.667,344.5 213,340.5C 211.442,338.232 209.276,337.066 206.5,337C 198.8,335.666 191.467,336.666 184.5,340C 182.959,341.371 181.625,342.871 180.5,344.5C 179.566,343.432 179.232,342.099 179.5,340.5C 179.877,337.492 181.211,334.992 183.5,333C 209.623,333.226 219.79,320.726 214,295.5C 212.018,291.854 209.351,288.854 206,286.5C 205.312,285.668 205.479,285.002 206.5,284.5C 214.195,283.928 221.861,283.095 229.5,282C 231.824,278.901 233.324,275.401 234,271.5C 238.035,278.383 243.868,282.716 251.5,284.5C 253.867,284.158 256.2,283.658 258.5,283C 263.356,279.822 268.523,277.322 274,275.5C 277.167,278 280.333,280.5 283.5,283C 285.5,283.667 287.5,283.667 289.5,283C 296.773,280.362 303.773,277.195 310.5,273.5C 314.279,275.444 317.279,278.278 319.5,282C 325.066,284.838 330.733,284.838 336.5,282C 340.939,279.697 345.439,277.53 350,275.5C 352.794,278.294 355.627,281.127 358.5,284C 370.787,283.776 381.287,279.276 390,270.5C 390.667,268.5 390.667,266.5 390,264.5C 387.436,262.923 384.603,261.923 381.5,261.5C 381.167,260.5 380.833,259.5 380.5,258.5C 381.595,251.503 382.595,244.503 383.5,237.5C 388.681,237.277 393.514,238.277 398,240.5C 401.798,253.561 405.798,266.561 410,279.5C 412.423,280.785 414.256,282.618 415.5,285C 411.752,293.243 406.085,299.743 398.5,304.5C 396.277,300.401 393.777,296.401 391,292.5C 388.902,290.951 386.568,289.951 384,289.5C 377.626,290.686 372.293,293.686 368,298.5C 367.517,299.448 367.351,300.448 367.5,301.5 Z M 187.5,304.5 C 194.978,305.75 196.311,309.25 191.5,315C 186.201,316.033 183.701,313.866 184,308.5C 184.69,306.65 185.856,305.316 187.5,304.5 Z M 129.5,320.5 C 140.531,319.081 149.864,322.247 157.5,330C 153.962,349.729 150.795,369.562 148,389.5C 147.77,393.29 146.437,396.624 144,399.5C 143.13,398.892 142.63,398.059 142.5,397C 147.971,384.011 150.137,370.511 149,356.5C 148.209,350.75 145.709,345.917 141.5,342C 135.336,338.39 128.836,335.557 122,333.5C 120.409,326.671 122.909,322.337 129.5,320.5 Z M 178.5,346.5 C 179.167,347.167 179.833,347.833 180.5,348.5C 181.749,350.136 183.416,351.303 185.5,352C 187.124,353.117 188.124,354.617 188.5,356.5C 185.396,371.186 182.23,385.852 179,400.5C 175.261,398.774 173.094,395.94 172.5,392C 174.829,376.867 176.829,361.7 178.5,346.5 Z M 413.5,351.5 C 421.167,350.5 424.5,353.833 423.5,361.5C 417.794,361.829 412.128,361.495 406.5,360.5C 407.037,355.977 409.371,352.977 413.5,351.5 Z M 477.5,351.5 C 484.361,351.026 487.361,354.026 486.5,360.5C 480.863,361.663 475.196,361.83 469.5,361C 470.255,358.825 471.088,356.659 472,354.5C 473.876,353.391 475.709,352.391 477.5,351.5 Z M 115.5,352.5 C 118.862,352.07 121.695,353.07 124,355.5C 126.664,368.528 124.664,380.862 118,392.5C 113.808,398.711 109.475,398.711 105,392.5C 104.042,389.925 103.542,387.259 103.5,384.5C 104.545,376.652 106.378,368.986 109,361.5C 110.675,358.015 112.842,355.015 115.5,352.5 Z M 372.5,355.5 C 375.833,355.5 379.167,355.5 382.5,355.5C 381.523,361.605 380.023,367.605 378,373.5C 377.879,380.246 377.212,386.913 376,393.5C 372.196,396.802 368.196,397.469 364,395.5C 363.705,382.601 365.371,369.934 369,357.5C 370.302,356.915 371.469,356.249 372.5,355.5 Z M 333.5,357.5 C 335.767,358.423 338.1,359.256 340.5,360C 341.022,360.561 341.355,361.228 341.5,362C 338.191,376.346 336.358,390.846 336,405.5C 336.785,407.286 337.951,408.786 339.5,410C 354.683,415.961 368.516,413.794 381,403.5C 392.614,415.196 406.447,418.696 422.5,414C 426.531,412.568 430.364,410.734 434,408.5C 437.873,410.659 439.373,413.993 438.5,418.5C 438.706,423.422 437.206,427.755 434,431.5C 422.83,440.501 409.997,444.835 395.5,444.5C 384.153,444.053 373.153,441.887 362.5,438C 353.833,433.667 345.167,429.333 336.5,425C 333.72,423.188 331.22,421.021 329,418.5C 327.953,415.961 327.453,413.295 327.5,410.5C 329.09,392.778 331.09,375.112 333.5,357.5 Z M 299.5,359.5 C 304.736,359.237 307.069,361.737 306.5,367C 305.445,381.499 302.945,395.666 299,409.5C 297.098,404.395 293.765,400.395 289,397.5C 289.623,386.377 291.289,375.377 294,364.5C 295.73,362.598 297.563,360.931 299.5,359.5 Z M 440.5,383.5 C 440.5,384.167 440.167,384.5 439.5,384.5C 438.4,383.442 437.066,382.608 435.5,382C 431.514,381.501 427.514,381.334 423.5,381.5C 423.901,387.49 421.568,391.99 416.5,395C 404.892,396.213 400.558,391.046 403.5,379.5C 415.871,379.773 428.204,379.44 440.5,378.5C 440.5,380.167 440.5,381.833 440.5,383.5 Z M 589.5,383.5 C 596.153,384.992 600.819,388.825 603.5,395C 600.573,400.956 595.907,402.789 589.5,400.5C 589.167,400 588.833,399.5 588.5,399C 589.797,396.275 590.797,393.441 591.5,390.5C 590.827,388.149 590.16,385.816 589.5,383.5 Z M 290.5,427.5 C 296.04,428.369 297.707,431.369 295.5,436.5C 288.712,440.217 285.879,438.217 287,430.5C 288.145,429.364 289.312,428.364 290.5,427.5 Z"/></g>
<g><path style="opacity:1" fill="#cbdaec" d="M 396.5,205.5 C 393.695,206.065 391.028,207.065 388.5,208.5C 388.5,207.5 388.5,206.5 388.5,205.5C 391.167,205.5 393.833,205.5 396.5,205.5 Z"/></g>
<g><path style="opacity:1" fill="#a0badd" d="M 367.5,301.5 C 368.08,305.649 367.414,309.316 365.5,312.5C 366.103,308.727 366.77,305.061 367.5,301.5 Z"/></g>
<g><path style="opacity:1" fill="#a1badd" d="M 179.5,340.5 C 179.232,342.099 179.566,343.432 180.5,344.5C 180.5,345.833 180.5,347.167 180.5,348.5C 179.833,347.833 179.167,347.167 178.5,346.5C 178.205,344.265 178.539,342.265 179.5,340.5 Z"/></g>
<g><path style="opacity:1" fill="#96b3d9" d="M 581.5,378.5 C 582.289,378.783 582.956,379.283 583.5,380C 581.19,380.497 578.857,380.663 576.5,380.5C 578.167,379.833 579.833,379.167 581.5,378.5 Z"/></g>
<g><path style="opacity:1" fill="#9cb7db" d="M 440.5,383.5 C 441.451,384.919 441.784,386.585 441.5,388.5C 440.833,389.833 440.167,391.167 439.5,392.5C 439.5,389.833 439.5,387.167 439.5,384.5C 440.167,384.5 440.5,384.167 440.5,383.5 Z"/></g>
<g><path style="opacity:1" fill="#ff8200" d="M 256.5,417.5 C 259.797,417.89 262.797,418.89 265.5,420.5C 260.203,437.055 264.87,449.888 279.5,459C 281.436,459.813 283.436,460.313 285.5,460.5C 285.5,482.5 285.5,504.5 285.5,526.5C 251.5,526.5 217.5,526.5 183.5,526.5C 183.5,548.167 183.5,569.833 183.5,591.5C 275.5,591.5 367.5,591.5 459.5,591.5C 459.5,570.167 459.5,548.833 459.5,527.5C 425.833,527.5 392.167,527.5 358.5,527.5C 358.333,507.164 358.5,486.831 359,466.5C 369.227,474.697 380.727,480.364 393.5,483.5C 394.671,484.345 396.005,485.011 397.5,485.5C 397.5,486.5 397.5,487.5 397.5,488.5C 430.833,488.5 464.167,488.5 497.5,488.5C 497.5,534.833 497.5,581.167 497.5,627.5C 379.833,627.5 262.167,627.5 144.5,627.5C 144.5,580.833 144.5,534.167 144.5,487.5C 179.167,487.5 213.833,487.5 248.5,487.5C 248.333,462.831 248.5,438.164 249,413.5C 251.162,415.496 253.662,416.83 256.5,417.5 Z"/></g>
<g><path style="opacity:1" fill="#fcd5b6" d="M 256.5,417.5 C 259.833,417.5 263.167,417.5 266.5,417.5C 266.737,418.791 266.404,419.791 265.5,420.5C 262.797,418.89 259.797,417.89 256.5,417.5 Z"/></g>
<g><path style="opacity:1" fill="#fbc191" d="M 393.5,483.5 C 395.483,483.157 396.817,483.824 397.5,485.5C 396.005,485.011 394.671,484.345 393.5,483.5 Z"/></g>
</svg>