<svg xmlns:rdf="http://www.w3.org/1999/02/22-rdf-syntax-ns#" xmlns="http://www.w3.org/2000/svg" xmlns:cc="http://creativecommons.org/ns#" xmlns:xlink="http://www.w3.org/1999/xlink" xmlns:dc="http://purl.org/dc/elements/1.1/" xml:space="preserve" version="1.1" viewBox="1.06 1.24 97.84 74.77"><g transform="matrix(1.25 0 0 -1.25 -255.97 852.96)"><g><path d="m257.03 681.12-4.7433-7.7341h-15.058l-4.6923 7.7341h-26.656v-14.179h4.2801v-29.031h-4.2801v-16.088h29.855v16.088h-4.4862v12.067l13.51-26.866 13.561 26.866v-12.067h-4.5373v-16.088h29.855v16.088h-4.2783v29.031h4.2783v14.179h-26.607z" fill="#fff"/><path d="m208.05 678.95h23.616l3.454-5.5695h19.544l3.454 5.5695h23.41v-9.9006h-4.3312v-33.258h4.3312v-11.859h-25.577v11.859h4.4862v22.739l-15.674-30.267-15.676 30.267v-22.739h4.5373v-11.859h-25.575v11.859h4.2801v33.258h-4.2801v9.9006z" stroke="#222" stroke-width=".644" fill="#f76800"/><path d="m205.88 681.12v-14.182h4.2799v-29.028h-4.2799v-16.088h29.854v16.088h-4.4851v12.065l13.509-26.865 13.563 26.865v-12.065h-4.5392v-16.088h29.854v16.088h-4.277v29.028h4.277v14.182h-26.605l-4.7444-7.7334h-15.057l-4.6931 7.7334h-26.657z" stroke="#000" stroke-miterlimit="3.864" stroke-width=".644" fill="none"/><path d="m244.76 674c0.009-0.005-2.9999 1.6595-3.713 1.4443-0.52157-0.16413-0.84436-0.48327-1.2893-0.5161-0.41397-0.0748-1.076 0.15684-1.7525 0.0511-0.46138-0.10213-0.70211-0.34103-1.1343-0.41215-0.42856-0.0365-0.91183-0.0365-1.2893 0.15501-0.37385 0.2389-1.0194-0.40485-1.4954-0.5161-0.49056-0.10394-2.4765-0.31914-4.6412 1.0322-1.4626 0.91547-3.0528-0.0438-3.3519-0.15502-0.82247-0.33737-4.5774-0.28266-4.2272-3.868 0.39756-3.6674 2.854-4.0303 2.8358-5.0534-0.0748-1.406-1.4188-2.9634-1.1343-4.7944 0.11306-0.87171 0.73675-0.90818 0.61822-1.3422-0.0967-0.42673-0.20425-2.0917-0.10213-2.5768 0.11307-0.48145 0.27355-0.64193 0.25714-1.0322 0.0164-0.3629-0.0365-0.95195 0.10395-1.2893 0.18236-0.3082 0.34284-0.73858 0.25713-1.1343-0.12948-0.35561-0.35379-0.62551-0.31002-1.1854 0.12766-0.88812 1.3094-1.9094 1.5483-2.6297 0.18966-0.67658 0.70575-2.8157 0.9793-3.3008 0.71488-1.189 2.2723-1.1343 2.6808-1.5975 0.45044-0.50515 1.5082-2.2522 2.3726-2.6808 1.4626-0.7787 2.0534-1.0468 3.2479-1.4443 0.81152-0.24072 2.3343-0.65287 3.8151-3.9701 0.2006-0.46686 0.89906 0.0711 1.2383-0.87718 0.18784-0.63281-0.39391-1.2 1.4443-2.9908 0.68387-0.65652 1.975-0.57263 3.0419-0.5161 1.0833-0.0565 2.3744-0.14042 3.0929 0.5161 1.8036 1.7908 1.2218 2.358 1.4443 2.9908 0.30455 0.9483 1.003 0.41032 1.2383 0.87718 1.4462 3.3172 2.9671 3.7294 3.8151 3.9701 1.1598 0.39756 1.7507 0.66564 3.1969 1.4443 0.88083 0.42856 1.9386 2.1756 2.3726 2.6808 0.42491 0.46321 1.9823 0.4085 2.6808 1.5975 0.28996 0.48509 0.80605 2.6242 1.0322 3.3008 0.20242 0.72034 1.3842 1.7416 1.4936 2.6297 0.062 0.55987-0.1623 0.82977-0.25713 1.1854-0.12036 0.39574 0.0401 0.82612 0.20607 1.1343 0.15684 0.33737 0.10395 0.92642 0.10395 1.2893 0 0.39027 0.16048 0.55075 0.25714 1.0322 0.11853 0.48509 0.0109 2.1501-0.10213 2.5768-0.10212 0.43404 0.52157 0.47051 0.66928 1.3422 0.24985 1.831-1.0942 3.3884-1.1343 4.7944-0.0529 1.0231 2.4036 1.386 2.7847 5.0534 0.36655 3.5853-3.3884 3.5306-4.1762 3.868-0.33373 0.11125-1.924 1.0705-3.403 0.15502-2.1483-1.3513-4.1342-1.1361-4.6412-1.0322-0.45956 0.11125-1.1051 0.755-1.4954 0.5161-0.36109-0.19148-0.84436-0.19148-1.2893-0.15501-0.41579 0.0711-0.65652 0.31367-1.1343 0.41215-0.66017 0.10212-1.3222-0.12584-1.7525-0.0511-0.42856 0.0328-0.75135 0.35197-1.2893 0.5161-0.69663 0.21519-3.7038-1.4498-3.713-1.4443"/><path d="m237.8 673.9c-0.28814 0.1386-2.2682-0.711-2.2682-0.72376 0 0.0128-1.8274 0.0131-2.5788-0.51576-0.75134-0.54527-1.5051-1.081-1.496-1.0828-0.009 0.002 1.9265-1.4497 2.1143-1.7524 0.24072-0.34102 0.0251-0.93029-0.10258-1.2367-0.0857-0.3392 0.12823-0.44679 0.31059-0.77505 0.14043-0.31732-0.0732-1.4996-0.0513-1.496-0.0219-0.004 0.0308-0.37864 0.35903-0.25645 2.8413 2.2942 3.4048 1.1891 3.9209 1.3934 1.1234 0.41944 2.1978-0.92289 2.6301-0.61834 0.21336 0.17872 0.0484 2.8646 0.0484 2.8865l-0.5129 0.46447v0.5129l-2.3223 1.704c-0.0109-0.0201-0.063 0.1949 0.36188 0.35903 0.43403 0.15866 0.3816 0.10372 0.87764-0.0513 0.4705-0.16595 2.2439-1.5633 2.7326-2.063 0.4778-0.46686 0.90476-0.57263 1.2367-0.41032 0.31367 0.16048-1.1897 3.8098-3.2997 3.6074-1.6413-0.18236-1.3823-0.27959-1.9604 0.0541zm13.974 0c-0.59816-0.33373-0.3376-0.2365-2.0117-0.0541-2.079 0.20243-3.5793-3.4469-3.2455-3.6074 0.31002-0.16231 0.73881-0.0565 1.2367 0.41032 0.46868 0.49968 2.2421 1.8971 2.7326 2.063 0.47598 0.15501 0.42172 0.20995 0.87764 0.0513 0.40485-0.16413 0.34809-0.37909 0.35903-0.35903l-2.3195-1.704v-0.5129l-0.51576-0.46447c-0.0219-0.0219-0.18214-2.7078 0.0513-2.8865 0.41032-0.30455 1.4848 1.0378 2.6301 0.61834 0.49603-0.20425 1.0567 0.90077 3.918-1.3934 0.3082-0.12219 0.36189 0.2528 0.36189 0.25645 0-0.004-0.2136 1.1786-0.0513 1.496 0.16048 0.32826 0.37317 0.43585 0.25645 0.77505-0.0985 0.30638-0.3123 0.89565-0.10258 1.2367 0.22067 0.30273 2.1528 1.7542 2.1656 1.7524-0.0128 0.002-0.76468 0.53752-1.496 1.0828-0.77323 0.52886-2.596 0.52852-2.5759 0.51576-0.0201 0.0128-2.0048 0.86236-2.271 0.72376zm-26.452-1.2395c0.006-0.007-0.371-0.27605-0.7722-0.15387-0.35015 0.093-0.24471-0.33749-0.2593-0.61833 0.0146-0.25531-0.0916-0.63213-0.10258-0.62119l0.82634-1.4931c-0.009-0.0219 0.36508 0.78167 0.66963 1.4418 0.39573 0.73858 1.0937 1.0619 1.0828 1.0856l-0.41318 0.35903h-1.0315zm37.898 0-0.46161-0.35903c0.0201-0.0237 0.71806-0.34707 1.0828-1.0856 0.33373-0.66016 0.70815-1.4637 0.72092-1.4418l0.77505 1.4931c0.0201-0.0109-0.089 0.36588-0.10543 0.62119 0.0164 0.28084 0.12469 0.71134-0.25646 0.61833-0.37202-0.12218-0.74644 0.14658-0.72091 0.15387h-1.0344zm-32.946-2.6557c-0.0368 0.0261-0.0986 0.0222-0.20802-0.0256-2.161-0.9793-3.0211-3.8776-3.4023-4.4338-0.3702-0.51791-0.74656-0.89473-0.92893-1.4418-0.14042-0.52703 0.18146-0.52954 0.20517-0.5186v-2.5275l0.10543-0.71806c-0.0201 0.0146-0.0196-1.8669 0.10258-2.4249 0.19331-1.0158 0.3612-1.5912 0.61833-2.3736 0.38662-1.1507 0.8675-1.4163 0.87479-1.4418-0.007 0.0255 0.42469-0.94352 0.72377-0.92893-0.031 0.46868-0.0854 1.3824-0.10543 1.3934-0.76046 1.5483-0.99948 2.8908-1.0286 3.8154-0.0784 0.90089 0.19114 2.1356 0.51575 2.5788 0.31914 0.41762-0.21793 1.7047 0.20516 2.6785 0.43585 0.95925 1.1869 1.4444 1.7011 2.1684 0.55987 0.67293 2.1177 1.3714 2.063 2.3708-0.0529 1.0413-0.80378 0.98501-1.0828 1.2367-0.35425 0.1737-0.24867 0.51439-0.35903 0.59269zm29.016 0c-0.12054-0.0783-0.0214-0.41899-0.39893-0.59269-0.24802-0.25166-1.0005-0.19536-1.0315-1.2367-0.0766-0.99936 1.4782-1.6978 2.0089-2.3708 0.54345-0.724 1.2991-1.2092 1.704-2.1684 0.45409-0.97383-0.0828-2.2609 0.25645-2.6785 0.30455-0.44315 0.57229-1.6779 0.51575-2.5788-0.0511-0.92459-0.29132-2.2671-1.0828-3.8154 0.0127-0.0109-0.0424-0.92471-0.10258-1.3934 0.33008-0.0146 0.75762 0.95446 0.77221 0.92893-0.0146 0.0255 0.47073 0.2911 0.82634 1.4418 0.28996 0.78235 0.45626 1.3578 0.66963 2.3736 0.10212 0.55804 0.10257 2.4395 0.10257 2.4249l0.10258 0.71806v2.5275c0.004-0.0109 0.32632-0.008 0.15672 0.5186-0.15136 0.5471-0.52954 0.92392-0.92893 1.4418-0.35196 0.55622-1.21 3.4545-3.351 4.4338-0.1149 0.0479-0.17924 0.0517-0.21941 0.0256zm-14.529-1.4162c0.009-0.93006-0.91149-2.3481-0.92608-2.3736 0.0146-0.36656 0.61446-0.97395 0.56704-1.8037-0.11124-1.5519-1.7623-3.0659-1.704-3.8154 0.83706 0.33008 2.0721-0.35094 2.063-0.36188 0.009 0.0109 1.2426 0.69196 2.1143 0.36188 0.0255 0.74952-1.6248 2.2635-1.7524 3.8154-0.031 0.82976 0.56886 1.4372 0.56704 1.8037 0.002 0.0255-0.91981 1.4435-0.92892 2.3736zm-10.261-4.5905c1.6759-1.8182 1.9062-3.1606 3.2484-3.6074 1.8109-0.57263 3.208 0.0182 3.1971 0l-0.41317 1.7524c-0.007-0.0164-1.4563-1.4661-2.7839-0.56704-1.3568 0.92642-0.66028 2.2142-0.61834 2.422h-2.63zm17.895 0c0.0711-0.20789 0.76685-1.4956-0.5699-2.422-1.3477-0.89907-2.7985 0.55063-2.7839 0.56704l-0.46161-1.7524c0.0201 0.0182 1.4146-0.57263 3.2455 0 1.3203 0.4468 1.5522 1.7892 3.1971 3.6074h-2.6272zm-13.717-0.41317c-0.27355-0.0109-0.51393-0.24973-0.51575-0.56704 0.002-0.2772 0.2422-0.51758 0.51575-0.51576 0.31914-0.002 0.55975 0.23856 0.56705 0.51576-0.007 0.31731-0.24791 0.5561-0.56705 0.56704zm12.17 0c-0.28997-0.0109-0.53035-0.24973-0.51576-0.56704-0.0146-0.2772 0.22579-0.51758 0.51576-0.51576 0.30272-0.002 0.54333 0.23856 0.56704 0.51576-0.0237 0.31731-0.26432 0.5561-0.56704 0.56704zm-19.285-1.0828c0.0492-1.9896-0.43506-2.0818-0.41318-2.7839-0.0219-0.4395 0.21964-0.53353 0.36188-0.82349-0.19513-0.12583-0.16948-0.4476-0.15672-0.77221-0.0128-1.3659 0.68604-2.1051 0.66963-3.4564 0.0164-0.73129 0.0164-1.3356 0-2.1143 0.0164-1.0869 0.0178-1.5966 0.67247-2.1656 0.36473-0.37203 0.31082-0.85666 0.77221-1.0828l0.0513 1.0315c-0.0839 0.66016-0.51108 0.8341-0.5129 1.3392 0.002 0.19148 0.37613 0.63395 0.5129 1.0315v1.0828c0.45409 1.4626-0.94351 2.4561-0.92892 3.6616-0.0146 0.41944 0.25383 0.65971 0.2593 1.0828-0.006 0.23525-0.58072 0.63406-0.36188 0.87478 0.51792 0.56898 0.25656 1.4832 1.2395 1.496 1.2674-0.0128 2.2863-2.6465 2.8352-2.63 0.31003-0.12401 0.15023 0.46799 0.15388 0.62118-0.004 0.39756-0.36758 0.35778-0.41318 0.66962-0.14224 0.48145 0.006 0.99082-0.20516 1.496-0.25896 0.71853-1.4264 0.90385-2.6301 1.4418 0.0219-0.002-1.8443-0.0419-1.9063 0zm24.494 0c-1.1726-0.53798-2.3419-0.7233-2.6301-1.4418-0.18236-0.50515-0.0363-1.0145-0.15672-1.496-0.0675-0.31184-0.42673-0.27206-0.41032-0.66962-0.0164-0.15319-0.18088-0.74519 0.15102-0.62118 0.52704-0.0164 1.5506 2.6173 2.8381 2.63 0.96289-0.0128 0.69869-0.92699 1.2367-1.496 0.19695-0.24072-0.37545-0.63953-0.35903-0.87478-0.0164-0.42309 0.25098-0.66336 0.25645-1.0828-0.005-1.2054-1.4015-2.199-0.98022-3.6616v-1.0828c0.1696-0.39756 0.54516-0.84003 0.56705-1.0315-0.0219-0.50515-0.45216-0.67909-0.56705-1.3392l0.0541-1.0315c0.49239 0.22614 0.43688 0.71077 0.8235 1.0828 0.63463 0.56898 0.63475 1.0787 0.61833 2.1656 0.0164 0.7787 0.0164 1.383 0 2.1143 0.0164 1.3513 0.71362 2.0905 0.72092 3.4564-0.007 0.32461 0.0212 0.64638-0.15387 0.77221 0.12036 0.28996 0.3637 0.38399 0.36188 0.82349 0.002 0.70211-0.48247 0.79432-0.41317 2.7839-0.0839-0.0419-1.9485-0.002-1.9576 0zm-13.407-2.8352c-1.4097-0.0127-2.1356-1.8893-2.1684-2.3708-0.009-0.88995 0.47369-2.8792 2.2682-3.2512-0.34285 0.72034-1.2539 1.3268-1.2338 2.3736-0.0201 0.65834 0.48954 0.71282 0.77221 0.72377 0.0127-0.0109 0.17324 1.4915 1.1854 1.5444 1.1197 0.062 0.92163-1.6639 0.92892-2.5246h0.72092c0.0237 0.86077-0.17416 2.5866 0.98021 2.5246 0.97748-0.0529 1.1377-1.5554 1.1341-1.5444 0.29908-0.0109 0.80891-0.0654 0.8235-0.72377-0.0146-1.0468-0.92665-1.6533-1.2367-2.3736 1.7598 0.37202 2.2424 2.3613 2.2169 3.2512-0.0146 0.48144-0.73949 2.358-2.1656 2.3708-0.73494-0.0127-1.0858-0.28186-2.1143-0.41317-1.0121 0.13131-1.3583 0.40041-2.1115 0.41317zm-3.2-5.2088c-0.2389-0.33738-0.85507-1.1959-1.5444-1.0828-0.22431 0.0274-0.009-0.64318-0.0541-0.87479-0.27902-1.0632-0.33145-1.2244-0.30774-2.1143v-2.5788c0.99571-0.61457 0.51495-1.0829 0.92892-1.7011 0.43768-0.68934 0.87376-0.9532 1.2367-1.6498 0.28267-0.50151 0.26682-1.3708 0.72092-1.6498 0.0565 0.26443 0.15649 1.3307 0.10543 1.6498-0.33008 1.7708-0.49227 1.985-1.3421 2.5759-0.43585 0.29361-0.115 1.6648-0.61833 3.0945-0.0237 0.14772 0.43574 0.85404 0.56704 1.0856 0.31185 0.66928 0.47176 1.4334 0.46447 2.3708 0.007 0.32644-0.0601 0.67236-0.15672 0.87479zm10.674 0c-0.11671-0.20243-0.18328-0.54835-0.20516-0.87479 0.0219-0.93736 0.18385-1.7015 0.51575-2.3708 0.11125-0.23161 0.56864-0.93793 0.51576-1.0856-0.47233-1.4298-0.1541-2.8009-0.5699-3.0945-0.86988-0.59087-1.031-0.80515-1.3392-2.5759-0.0711-0.31914 0.0288-1.3854 0.10544-1.6498 0.43221 0.27902 0.41693 1.1483 0.66677 1.6498 0.39574 0.69664 0.83308 0.95868 1.2908 1.6498 0.39209 0.61822-0.0887 1.0866 0.92893 1.7011v2.5788c0.004 0.88995-0.0506 1.0511-0.30774 2.1143-0.0657 0.23161 0.14828 0.90215-0.0541 0.87479-0.70941-0.11307-1.3284 0.74542-1.5473 1.0828zm-5.8044-2.1086c-0.83749-0.0256-2.7182-0.22818-4.354-1.3962-0.0219 0.0146 0.0255-1.7728 1.5501-3.1971v3.1458c0.13678-0.031 1.4619-1.3257 1.4418-1.3421 0.63281 2.3598 1.0848 2.0395 1.1341 2.1143l0.66963 0.0541 0.72376-0.0541c0.0146-0.0748 0.4664 0.24551 1.0828-2.1143-0.004 0.0164 1.3215 1.3111 1.4418 1.3421l0.0513-3.1458c1.4899 1.4243 1.5345 3.2117 1.5473 3.1971-2.2157 1.5574-4.8451 1.3989-4.8469 1.3934 0.00046 0.001-0.1625 0.0114-0.44167 0.003zm-16.986-0.52145c-0.53069-0.0164 0.23821-0.7045 0.25645-0.72091 0.58174-0.58358 0.36803-1.2142 0.51575-1.7011 0.2006-0.59998 1.2473-1.3 1.7524-1.9091 0.23343-0.29178 0.38776-0.75693 0.62119-1.0287 0.21884-0.2936 0.89222-0.52635 1.288-0.62118 1.1854-0.26443 2.1528-1.3916 2.1656-1.0287-0.0127 1.2218-1.9305 1.6979-2.3736 2.5788-0.16412 0.33555-0.99605 0.79124-1.0799 1.1341-0.14407 0.61092-0.17188 1.2939-0.87764 1.3905-1.2146 0.49421-1.0263 1.8899-2.2682 1.9063zm34.909 0c-1.2638-0.0164-1.0739-1.4121-2.3195-1.9063-0.67476-0.0967-0.70416-0.77962-0.82635-1.3905-0.10577-0.34285-0.93873-0.79854-1.0828-1.1341-0.4632-0.88083-2.3809-1.3569-2.3736-2.5788-0.007-0.3629 0.96118 0.76423 2.1684 1.0287 0.37385 0.0948 1.0472 0.32758 1.288 0.62118 0.21155 0.27173 0.36485 0.73688 0.61834 1.0287 0.48327 0.6091 1.5315 1.3092 1.7011 1.9091 0.17872 0.48692-0.0366 1.1176 0.56704 1.7011-0.002 0.0164 0.7681 0.7045 0.2593 0.72091zm-20.832-7.1151c0.19149-0.74223 0.40725-2.031 0.31059-2.8352-0.0109-0.002 1.7602-0.6466 3.0404-0.41317 1.2966-0.23343 3.0854 0.41135 3.0945 0.41317-0.11672 0.80424 0.099 2.093 0.31059 2.8352-0.61458-0.39391-1.1255-1.3321-1.4447-1.9576-0.28449 0.35744-0.38069 0.73288-1.0828 1.1341-0.1696-0.37385-0.0479-1.1534-0.10258-1.5473 0.002 0.0164-0.33737-0.0878-0.77505-0.0513-0.42127-0.0365-0.7428 0.0677-0.72092 0.0513-0.0748 0.39391 0.0467 1.1734-0.15387 1.5473-0.67293-0.40121-0.76708-0.77665-1.0315-1.1341-0.3392 0.62551-0.85016 1.5637-1.4447 1.9576zm-2.5246-2.8352c0.16231-0.16595 0.0182-0.29053 0-0.31059 0.0182-1.3769 0.7297-1.7846 1.2367-2.0089 0.0237 0.0146 0.31139-1.3936 0.30775-1.4447 0.47779-1.0577 1.037-1.5669 1.0315-1.855 0.11854 0.009 0.72092-0.25953 0.72092-0.31059l2.5788-0.20516 2.5788 0.20516c0.0182 0.0511 0.62062 0.31971 0.72092 0.31059 0.0146 0.28814 0.57012 0.79728 1.0315 1.855 0.0128 0.0511 0.3033 1.4593 0.3106 1.4447 0.52339 0.22431 1.2348 0.63201 1.2367 2.0089-0.002 0.0201-0.1459 0.14464 0 0.31059h-0.15388c-0.11124-0.20607-1.1488-1.5068-1.7524-2.063-0.14771-1.2164-0.57833-2.2892-1.2367-2.4733-0.13859-0.0201-0.49957 0.34764-0.56704 0.25645-0.49239-0.71669-1.4627-0.93257-2.1684-0.92892-0.68935-0.004-1.655 0.21223-2.1656 0.92892-0.0492 0.0912-0.41203-0.27651-0.56704-0.25645-0.64193 0.18419-1.0725 1.257-1.2367 2.4733-0.58722 0.55621-1.6276 1.8569-1.7553 2.063h-0.15103z" fill="#fff"/></g></g></svg>