<?xml version="1.0" encoding="UTF-8"?>
<svg width="144" height="90" viewBox="0 0 144 90" version="1.1" xmlns="http://www.w3.org/2000/svg" xmlns:xlink="http://www.w3.org/1999/xlink">
    <g stroke="none" stroke-width="1" fill="none" fill-rule="evenodd">
                    <path d="M60.8780402,31.8284211 L63.8657112,29.0334211 L63.8657112,7.92052632 L60.8780402,5.11894737 L52.717426,5.11894737 L49.7302815,7.52342105 L49.7302815,29.4292105 L52.717426,31.8284211 L60.8780402,31.8284211 Z M54.5786325,28.3047368 L59.0155174,28.3047368 L59.0155174,8.64184211 L54.5786325,8.64184211 L54.5786325,28.3047368 Z" id="Fill-1" fill="#FFFFFE"/>
                    <polyline id="Fill-2" fill="#FFFFFE" points="73.3333821 8.64184211 77.7768483 8.64184211 77.7768483 17.0039474 75.0958684 20.5305263 78.5834589 31.8284211 83.0722048 31.8284211 79.8315466 21.3523684 82.5746545 17.7463158 82.5746545 7.92052632 79.5838245 5.11894737 66.542479 5.11894737 66.542479 5.97289474 68.6277148 7.03684211 68.6277148 29.9163158 66.542479 30.9794737 66.542479 31.8284211 73.3333821 31.8284211 73.3333821 8.64184211"/>
                    <polyline id="Fill-3" fill="#FFFFFE" points="88.224351 29.9163158 86.142011 30.9794737 86.142011 31.8284211 93.0700695 31.8284211 93.0700695 8.93026316 96.4668373 8.93026316 96.4668373 5.11894737 84.5066764 5.11894737 84.5066764 8.93026316 88.2196124 8.93026316 88.224351 29.9163158"/>
                    <path d="M41.9861353,64.1310526 C43.134713,64.8289474 44.2853967,65.5265789 45.4368702,66.2221053 C48.6006581,65.8494737 51.919766,65.5334211 55.0946106,65.3007895 C56.2724095,64.2584211 57.4512614,63.2284211 58.6298501,62.2160526 L58.6298501,40.6102632 L55.0946106,37.3113158 L45.521638,37.3260526 L41.9861353,40.1515789 L41.9861353,64.1310526 Z M47.7161243,41.4784211 L52.8995978,41.4644737 L52.8995978,61.7702632 C51.260841,61.8960526 49.346457,62.0702632 47.7161243,62.2268421 L47.7161243,41.4784211 L47.7161243,41.4784211 Z" id="Fill-4" fill="#FFFFFE"/>
                    <path d="M82.7326069,64.0423684 L82.7326069,65.0686842 C84.5572212,65.1789474 87.9876856,65.3647368 90.9256015,65.66 L90.9256015,37.3113158 L82.7326069,37.3113158 L82.7326069,38.3505263 L85.1969287,39.5973684 L85.1969287,62.9631579 L82.7326069,64.0423684" id="Fill-5" fill="#FFFFFE"/>
                    <path d="M122.432644,30.4221053 L118.014186,33.9560526 L118.014186,67.0615789 L114.943064,67.9110526 L114.943064,69.1878947 C117.215737,69.6873684 121.503356,70.6226316 125.175488,71.5786842 L125.175488,35.6121053 L131.465945,35.6121053 L131.465945,49.5173684 C130.217068,51.1518421 128.859203,52.9005263 127.621382,54.4447368 C128.905536,54.6413158 130.187583,54.8447368 131.465945,55.0552632 L131.465945,73.315 C133.714399,73.9655263 136.410647,74.7821053 138.629353,75.5021053 L138.629353,34.5444737 L134.211422,30.4221053 L122.432644,30.4221053" id="Fill-6" fill="#FFFFFE"/>
                    <path d="M71.4355832,53.1215789 C72.8218793,56.995 74.2155466,60.88 75.6107934,64.7878947 C77.4030274,64.8273684 79.1955247,64.8889474 80.9861792,64.9723684 C79.6812285,61.2971053 78.382596,57.6526316 77.0852797,54.0268421 C78.1509324,52.8302632 79.2131627,51.6344737 80.2753931,50.4426316 L80.2753931,40.6102632 L76.7398903,37.3113158 L61.3205704,37.3113158 L61.3205704,38.36 L63.7835759,39.5810526 L63.7835759,62.5868421 L61.3205704,63.9005263 L61.3205704,64.9260526 C63.1099086,64.8657895 66.4513931,64.7278947 69.3508739,64.7402632 L69.3508739,41.4631579 L74.5996344,41.4631579 L74.5996344,49.5481579 C73.5458282,50.7355263 72.4909689,51.9281579 71.4355832,53.1215789" id="Fill-7" fill="#FFFFFE"/>
                    <path d="M40.1891627,60.3918421 L39.1448336,60.5407895 L37.9357075,63.1565789 C36.625755,63.3439474 34.7116344,63.6123684 33.8434223,63.7463158 L33.8434223,37.3113158 L25.8128556,37.3113158 L25.8128556,38.3528947 L28.2742815,39.5781579 L28.2742815,66.8194737 L25.8128556,68.5494737 L25.8128556,69.585 C29.5515905,68.7915789 36.3153784,67.6089474 40.1891627,67.0223684 L40.1891627,60.3918421" id="Fill-8" fill="#FFFFFE"/>
                    <path d="M16.1382669,48.1873684 L16.1382669,35.5086842 L24.7730018,35.5086842 L24.7730018,30.4776316 L5.51412066,30.4776316 L5.51412066,31.8489474 L8.77715539,33.4634211 L8.77715539,71.7636842 L5.51412066,74.0581579 L5.51412066,75.5839474 C8.32198903,74.6463158 12.0570384,73.4915789 16.1382669,72.4181579 L16.1382669,54.4778947 L22.081755,53.4694737 L23.1073931,47.1289474 L16.1382669,48.1873684" id="Fill-9" fill="#FFFFFE"/>
                    <path d="M93.8732578,64.9592105 L93.8732578,65.9844737 C98.7955832,66.5234211 105.105258,67.3692105 109.31706,68.1271053 C110.40509,67.3468421 111.739788,66.3684211 112.827291,65.5697368 L112.827291,40.6102632 L109.293367,37.3113158 L93.8732578,37.3113158 L93.8732578,38.3728947 L96.3357367,39.6002632 L96.3357367,63.8828947 L93.8732578,64.9592105 Z M101.904088,41.4631579 L106.939086,41.4631579 L106.939086,63.8373684 C105.375093,63.6015789 103.468607,63.3207895 101.904088,63.1142105 L101.904088,41.4631579 L101.904088,41.4631579 Z" id="Fill-10" fill="#FFFFFE"/>
                    <polyline id="Fill-11" fill="#FFFFFE" points="29.6866399 29.9242105 27.6119342 30.9918421 27.6111444 31.8342105 34.3902011 31.8342105 34.3902011 14.5 40.2939378 31.8481579 45.4466106 31.8481579 45.4466106 5.11894737 38.6575503 5.11894737 38.6575503 5.965 40.7298867 7.03605263 40.7298867 19.02 35.7572797 5.11684211 27.6079854 5.11894737 27.6079854 5.965 29.681638 7.03605263 29.6866399 29.9242105"/>
                    <polyline id="Fill-12" fill="#FFFFFE" points="105.007854 20.4884211 109.932022 20.4884211 109.933601 31.8284211 114.644797 31.8284211 114.656117 5.11894737 107.86732 5.11894737 107.86732 5.965 109.938077 7.03605263 109.932022 16.5321053 105.007854 16.5321053 105.007854 5.11894737 98.2140548 5.11894737 98.2140548 5.97289474 100.299554 7.03684211 100.299554 29.9163158 98.2140548 30.9794737 98.2140548 31.8284211 105.007854 31.8284211 105.007854 20.4884211"/>
                    <path d="M136.285865,25.1594737 L125.506399,25.1594737 L125.506399,21.3839474 L119.611086,21.3839474 L119.611086,0.166842105 L22.6543327,0.166842105 L22.6543327,8.97578947 L24.7266691,10.05 L24.7300914,25.2142105 L0.249038391,25.2142105 L0.249038391,35.1152632 L3.51023035,36.7307895 L3.51023035,69.0321053 L0.249038391,71.3326316 L0.249038391,82.9281579 L2.36639122,82.1626316 C7.41034004,80.3447368 12.546691,78.7210526 17.7646508,77.2947368 L20.9489726,80.6492105 L20.9489726,89.9810526 L27.2344278,88.5407895 C55.2723071,82.1 84.4661353,82.3668421 112.611422,88.0002632 C115.525645,88.5807895 118.431971,89.2084211 121.339612,89.8192105 L121.339612,80.7055263 L124.901704,76.8944737 C130.628271,78.4134211 136.256907,80.1718421 141.775766,82.1610526 L143.892066,82.9257895 L143.892066,32.2536842 L136.285865,25.1594737 Z M121.627086,22.9236842 L122.31181,22.9236842 L122.920453,24.6318421 L123.534888,22.9236842 L124.213821,22.9236842 L124.213821,25.3128947 L123.775503,25.3128947 L123.775503,23.3831579 L123.115788,25.3128947 L122.733543,25.3128947 L122.065404,23.3831579 L122.065404,25.3128947 L121.627086,25.3128947 L121.627086,22.9236842 Z M119.1883,22.9236842 L121.222728,22.9236842 L121.222728,23.3221053 L120.444285,23.3221053 L120.444285,25.3128947 L119.966479,25.3128947 L119.966479,23.3221053 L119.1883,23.3221053 L119.1883,22.9236842 Z M142.311225,80.6752632 C136.455664,78.5652632 130.476373,76.7142105 124.389411,75.1297368 L119.757718,80.0826316 L119.757718,87.8763158 L115.470625,86.9757895 C111.508651,86.1384211 107.526669,85.3952632 103.527576,84.7584211 C78.1448775,80.7115789 51.9671517,81.2389474 26.881404,87.0018421 L22.5284973,88.0002632 L22.5284973,80.0207895 L18.2593053,75.5244737 C12.6870055,77.0194737 7.20684461,78.7394737 1.8301426,80.6768421 L1.8301426,72.1523684 L5.09212431,69.8515789 L5.09212431,35.7465789 L1.8301426,34.1365789 L1.8301426,26.7931579 L26.3111956,26.7931579 L26.3077733,9.08684211 L24.2349104,8.01473684 L24.2349104,1.74947368 L118.029718,1.74947368 L118.029718,29.2252632 L121.139276,26.7381579 L135.660636,26.7381579 L142.311225,32.9447368 L142.311225,80.6752632 L142.311225,80.6752632 Z" id="Fill-13" fill="#B2B3B2"/>
                    <path d="M62.6913346,72.0552632 C62.6152541,72.015 62.4757294,72.0010526 62.2756563,72.0105263 L59.3990786,72.1576316 L59.3990786,73.6394737 L62.2756563,73.4915789 C62.4757294,73.4821053 62.6152541,73.4521053 62.6913346,73.4057895 C62.798479,73.3357895 62.8527093,73.2068421 62.8527093,73.0197368 L62.8527093,72.4244737 C62.8527093,72.2371053 62.798479,72.1144737 62.6913346,72.0552632" id="Fill-14" fill="#B2B3B2"/>
                    <path d="M22.4055576,74.7242105 L26.0869031,78.5992105 L26.0869031,83.5371053 C38.3166362,80.7278947 53.7180548,78.5544737 71.2126069,78.5544737 C88.6021207,78.5544737 104.046713,80.9376316 116.202208,83.4971053 L116.202208,78.6792105 L119.912249,74.7094737 C106.363349,71.1907895 89.5361463,68.595 71.1899671,68.595 C52.8235174,68.595 35.9636709,71.1963158 22.4055576,74.7242105 Z M40.4987495,77.2768421 C40.4987495,77.7865789 40.4037148,78.1473684 40.2146984,78.3555263 C40.0251554,78.5613158 39.6708154,78.7078947 39.1479927,78.7902632 L35.1431079,79.4186842 C34.6247605,79.4989474 34.2704205,79.4665789 34.0795612,79.3192105 C33.8905448,79.1697368 33.7957733,78.8405263 33.7957733,78.3247368 L33.7957733,75.4273684 C33.7957733,74.9155263 33.8905448,74.5531579 34.0795612,74.3457895 C34.2704205,74.1384211 34.6247605,73.9942105 35.1431079,73.9123684 L39.1479927,73.2855263 C39.6708154,73.2047368 40.0251554,73.2371053 40.2146984,73.3857895 C40.4037148,73.5339474 40.4987495,73.8631579 40.4987495,74.375 L40.4987495,77.2768421 Z M52.2964826,75.9239474 C52.2964826,76.4365789 52.1980256,76.7921053 52.0045338,76.9886842 C51.8091993,77.1860526 51.4509104,77.3107895 50.9280878,77.3647368 L47.5415868,77.7110526 C47.0192907,77.7642105 46.6578428,77.7134211 46.4646143,77.5552632 C46.269543,77.3978947 46.1726654,77.0618421 46.1726654,76.5521053 L46.1726654,76.4026316 L47.2980768,76.0526316 L47.2980768,76.7018421 L51.1723876,76.3063158 L51.1723876,75.0494737 L47.7542962,75.3989474 C47.2314735,75.4521053 46.8729214,75.3997368 46.6804826,75.2415789 C46.4904132,75.0842105 46.3945887,74.7457895 46.3945887,74.2331579 L46.3945887,73.6278947 C46.3945887,73.1152632 46.4904132,72.7605263 46.6804826,72.5639474 C46.8729214,72.3665789 47.2314735,72.2410526 47.7542962,72.1876316 L50.8659598,71.8694737 C51.3666691,71.8176316 51.7186399,71.8671053 51.919766,72.0165789 C52.1214186,72.1676316 52.222245,72.4723684 52.222245,72.9347368 L52.222245,73.0513158 L51.0978867,73.4328947 L51.0978867,72.8044737 L47.5002559,73.1731579 L47.5002559,74.3557895 L50.9244022,74.0057895 C51.4493309,73.9510526 51.8091993,74.0018421 52.0032176,74.16 C52.1980256,74.3171053 52.2964826,74.6518421 52.2964826,75.1692105 L52.2964826,75.9239474 Z M64.0863181,73.2718421 C64.0863181,73.9818421 63.6748519,74.3581579 62.8527093,74.3997368 L59.3990786,74.5755263 L59.3990786,76.7218421 L58.1412505,76.7865789 L58.1412505,71.2842105 L62.8527093,71.0428947 C63.6748519,70.9997368 64.0863181,71.3357895 64.0863181,72.0465789 L64.0863181,73.2718421 Z M102.346618,77.2128947 L103.464921,77.155 L103.464921,77.805 L107.311064,78.4110526 L107.311064,77.1536842 L103.918245,76.6184211 C103.398318,76.5360526 103.043715,76.3918421 102.851539,76.1836842 C102.66226,75.9771053 102.567751,75.6178947 102.567751,75.1057895 L102.567751,74.4952632 C102.567751,73.9842105 102.66226,73.6542105 102.851539,73.5060526 C103.043715,73.3589474 103.398318,73.3257895 103.918245,73.4065789 L107.005952,73.8947368 C107.504293,73.9742105 107.853367,74.1136842 108.05423,74.3147368 C108.25325,74.5176316 108.353287,74.8521053 108.353287,75.3147368 L108.353287,75.4321053 L107.23709,75.5228947 L107.23709,74.8939474 L103.664731,74.3263158 L103.664731,75.5128947 L107.066764,76.0502632 C107.585901,76.1321053 107.943927,76.2776316 108.136629,76.4857895 C108.330121,76.6934211 108.427525,77.0526316 108.427525,77.5644737 L108.427525,78.32 C108.427525,78.8357895 108.330121,79.165 108.137945,79.3131579 C107.943927,79.4602632 107.588534,79.4918421 107.070186,79.4102632 L103.706852,78.8797368 C103.187452,78.7965789 102.828636,78.6476316 102.635671,78.4402632 C102.443759,78.2328947 102.346618,77.8721053 102.346618,77.3610526 L102.346618,77.2128947 Z M92.6172724,71.9873684 L94.494011,74.3002632 L96.3812797,72.3952632 L97.8784059,72.5563158 L95.0442121,75.2592105 L95.0442121,77.7510526 L93.7632176,77.6123684 L93.7632176,75.1505263 L90.9174406,71.8023684 L92.6172724,71.9873684 Z M81.0132943,71.11 L86.6364022,71.4507895 L86.6364022,72.3873684 L82.2937623,72.1260526 L82.2937623,73.3502632 L84.8275832,73.5023684 L84.8275832,74.4413158 L82.2937623,74.2878947 L82.2937623,75.6563158 L86.6906325,75.9207895 L86.6906325,76.9555263 L81.0132943,76.6115789 L81.0132943,71.11 Z M75.2143327,71.9673684 L75.2143327,73.2571053 C75.2143327,73.9655263 74.8026033,74.3178947 73.9770384,74.3147368 L73.2512468,74.3102632 L75.7898062,76.4057895 L73.954925,76.3965789 L71.7346399,74.3026316 L70.5210384,74.2978947 L70.5210384,76.3771053 L69.2621572,76.3718421 L69.2621572,70.8663158 L73.9770384,70.8902632 C74.8026033,70.8947368 75.2143327,71.2563158 75.2143327,71.9673684 L75.2143327,71.9673684 Z" id="Fill-15" fill="#B2B3B2"/>
                    <polyline id="Fill-16" fill="#B2B3B2" points="35.0599196 78.3934211 39.2327605 77.7410526 39.2327605 74.2523684 35.0599196 74.9076316 35.0599196 78.3934211"/>
                    <path d="M73.8161901,73.3110526 C73.921755,73.2471053 73.9770384,73.1228947 73.9770384,72.9378947 L73.9770384,72.2726316 C73.9770384,72.0868421 73.921755,71.9610526 73.8161901,71.8963158 C73.7382669,71.8515789 73.599532,71.8292105 73.3994589,71.8292105 L70.5210384,71.8139474 L70.5210384,73.3589474 L73.3994589,73.3742105 C73.599532,73.375 73.7382669,73.355 73.8161901,73.3110526" id="Fill-17" fill="#B2B3B2"/>
                    <polygon id="Fill-18" fill="#041732" points="54.5786325 28.3047368 59.0155174 28.3047368 59.0155174 8.64184211 54.5786325 8.64184211"></polygon>
                    <path d="M52.8995978,41.4644737 L47.7161243,41.4784211 L47.7161243,62.2268421 C49.346457,62.0702632 51.260841,61.8960526 52.8995978,61.7702632 L52.8995978,41.4644737" id="Fill-19" fill="#041732"/>
                    <path d="M106.939086,41.4631579 L101.904088,41.4631579 L101.904088,63.1142105 C103.468607,63.3207895 105.375093,63.6015789 106.939086,63.8373684 L106.939086,41.4631579" id="Fill-20" fill="#041732"/>
                    <path d="M121.139276,26.7381579 L118.029718,29.2252632 L118.029718,1.74947368 L24.2349104,1.74947368 L24.2349104,8.01473684 L26.3077733,9.08684211 L26.3111956,26.7931579 L1.8301426,26.7931579 L1.8301426,34.1365789 L5.09212431,35.7465789 L5.09212431,69.8515789 L1.8301426,72.1523684 L1.8301426,80.6768421 C7.20684461,78.7394737 12.6870055,77.0194737 18.2593053,75.5244737 L22.5284973,80.0207895 L22.5284973,88.0002632 L26.881404,87.0018421 C51.9671517,81.2389474 78.1448775,80.7115789 103.527576,84.7584211 C107.526669,85.3952632 111.508651,86.1384211 115.470625,86.9757895 L119.757718,87.8763158 L119.757718,80.0826316 L124.389411,75.1297368 C130.476373,76.7142105 136.455664,78.5652632 142.311225,80.6752632 L142.311225,32.9447368 L135.660636,26.7381579 L121.139276,26.7381579 Z M98.2140548,30.9794737 L100.299554,29.9163158 L100.299554,7.03684211 L98.2140548,5.97289474 L98.2140548,5.11894737 L105.007854,5.11894737 L105.007854,16.5321053 L109.932022,16.5321053 L109.938077,7.03605263 L107.86732,5.965 L107.86732,5.11894737 L114.656117,5.11894737 L114.644797,31.8284211 L109.933601,31.8284211 L109.932022,20.4884211 L105.007854,20.4884211 L105.007854,31.8284211 L98.2140548,31.8284211 L98.2140548,30.9794737 Z M93.8732578,38.3728947 L93.8732578,37.3113158 L109.293367,37.3113158 L112.827291,40.6102632 L112.827291,65.5697368 C111.739788,66.3684211 110.40509,67.3468421 109.31706,68.1271053 C105.105258,67.3692105 98.7955832,66.5234211 93.8732578,65.9844737 L93.8732578,64.9592105 L96.3357367,63.8828947 L96.3357367,39.6002632 L93.8732578,38.3728947 Z M84.5066764,5.11894737 L96.4668373,5.11894737 L96.4668373,8.93026316 L93.0700695,8.93026316 L93.0700695,31.8284211 L86.142011,31.8284211 L86.142011,30.9794737 L88.224351,29.9163158 L88.2196124,8.93026316 L84.5066764,8.93026316 L84.5066764,5.11894737 Z M82.7326069,38.3505263 L82.7326069,37.3113158 L90.9256015,37.3113158 L90.9256015,65.66 C87.9876856,65.3647368 84.5572212,65.1789474 82.7326069,65.0686842 L82.7326069,64.0423684 L85.1969287,62.9631579 L85.1969287,39.5973684 L82.7326069,38.3505263 Z M66.542479,30.9794737 L68.6277148,29.9163158 L68.6277148,7.03684211 L66.542479,5.97289474 L66.542479,5.11894737 L79.5838245,5.11894737 L82.5746545,7.92052632 L82.5746545,17.7463158 L79.8315466,21.3523684 L83.0722048,31.8284211 L78.5834589,31.8284211 L75.0958684,20.5305263 L77.7768483,17.0039474 L77.7768483,8.64184211 L73.3333821,8.64184211 L73.3333821,31.8284211 L66.542479,31.8284211 L66.542479,30.9794737 Z M69.3508739,41.4631579 L69.3508739,64.7402632 C66.4513931,64.7278947 63.1099086,64.8657895 61.3205704,64.9260526 L61.3205704,63.9005263 L63.7835759,62.5868421 L63.7835759,39.5810526 L61.3205704,38.36 L61.3205704,37.3113158 L76.7398903,37.3113158 L80.2753931,40.6102632 L80.2753931,50.4426316 C79.2131627,51.6344737 78.1509324,52.8302632 77.0852797,54.0268421 C78.382596,57.6526316 79.6812285,61.2971053 80.9861792,64.9723684 C79.1955247,64.8889474 77.4030274,64.8273684 75.6107934,64.7878947 C74.2155466,60.88 72.8218793,56.995 71.4355832,53.1215789 C72.4909689,51.9281579 73.5458282,50.7355263 74.5996344,49.5481579 L74.5996344,41.4631579 L69.3508739,41.4631579 Z M49.7302815,7.52342105 L52.717426,5.11894737 L60.8780402,5.11894737 L63.8657112,7.92052632 L63.8657112,29.0334211 L60.8780402,31.8284211 L52.717426,31.8284211 L49.7302815,29.4292105 L49.7302815,7.52342105 Z M55.0946106,37.3113158 L58.6298501,40.6102632 L58.6298501,62.2160526 C57.4512614,63.2284211 56.2724095,64.2584211 55.0946106,65.3007895 C51.919766,65.5334211 48.6006581,65.8494737 45.4368702,66.2221053 C44.2853967,65.5265789 43.134713,64.8289474 41.9861353,64.1310526 L41.9861353,40.1515789 L45.521638,37.3260526 L55.0946106,37.3113158 Z M27.6079854,5.11894737 L35.7572797,5.11684211 L40.7298867,19.02 L40.7298867,7.03605263 L38.6575503,5.965 L38.6575503,5.11894737 L45.4466106,5.11894737 L45.4466106,31.8481579 L40.2939378,31.8481579 L34.3902011,14.5 L34.3902011,31.8342105 L27.6111444,31.8342105 L27.6119342,30.9918421 L29.6866399,29.9242105 L29.681638,7.03605263 L27.6079854,5.965 L27.6079854,5.11894737 Z M25.8128556,68.5494737 L28.2742815,66.8194737 L28.2742815,39.5781579 L25.8128556,38.3528947 L25.8128556,37.3113158 L33.8434223,37.3113158 L33.8434223,63.7463158 C34.7116344,63.6123684 36.625755,63.3439474 37.9357075,63.1565789 L39.1448336,60.5407895 L40.1891627,60.3918421 L40.1891627,67.0223684 C36.3153784,67.6089474 29.5515905,68.7915789 25.8128556,69.585 L25.8128556,68.5494737 Z M16.1382669,54.4778947 L16.1382669,72.4181579 C12.0570384,73.4915789 8.32198903,74.6463158 5.51412066,75.5839474 L5.51412066,74.0581579 L8.77715539,71.7636842 L8.77715539,33.4634211 L5.51412066,31.8489474 L5.51412066,30.4776316 L24.7730018,30.4776316 L24.7730018,35.5086842 L16.1382669,35.5086842 L16.1382669,48.1873684 L23.1073931,47.1289474 L22.081755,53.4694737 L16.1382669,54.4778947 Z M116.202208,78.6792105 L116.202208,83.4971053 C104.046713,80.9376316 88.6021207,78.5544737 71.2126069,78.5544737 C53.7180548,78.5544737 38.3166362,80.7278947 26.0869031,83.5371053 L26.0869031,78.5992105 L22.4055576,74.7242105 C35.9636709,71.1963158 52.8235174,68.595 71.1899671,68.595 C89.5361463,68.595 106.363349,71.1907895 119.912249,74.7094737 L116.202208,78.6792105 Z M138.629353,75.5021053 C136.410647,74.7821053 133.714399,73.9655263 131.465945,73.315 L131.465945,55.0552632 C130.187583,54.8447368 128.905536,54.6413158 127.621382,54.4447368 C128.859203,52.9005263 130.217068,51.1518421 131.465945,49.5173684 L131.465945,35.6121053 L125.175488,35.6121053 L125.175488,71.5786842 C121.503356,70.6226316 117.215737,69.6873684 114.943064,69.1878947 L114.943064,67.9110526 L118.014186,67.0615789 L118.014186,33.9560526 L122.432644,30.4221053 L134.211422,30.4221053 L138.629353,34.5444737 L138.629353,75.5021053 L138.629353,75.5021053 Z" id="Fill-21" fill="#041732"/>
                    <polyline id="Fill-22" fill="#041732" points="119.966479 25.3128947 120.444285 25.3128947 120.444285 23.3221053 121.222728 23.3221053 121.222728 22.9236842 119.1883 22.9236842 119.1883 23.3221053 119.966479 23.3221053 119.966479 25.3128947"/>
                    <polyline id="Fill-23" fill="#041732" points="122.065404 23.3831579 122.733543 25.3128947 123.115788 25.3128947 123.775503 23.3831579 123.775503 25.3128947 124.213821 25.3128947 124.213821 22.9236842 123.534888 22.9236842 122.920453 24.6318421 122.31181 22.9236842 121.627086 22.9236842 121.627086 25.3128947 122.065404 25.3128947 122.065404 23.3831579"/>
                    <path d="M40.2146984,73.3857895 C40.0251554,73.2371053 39.6708154,73.2047368 39.1479927,73.2855263 L35.1431079,73.9123684 C34.6247605,73.9942105 34.2704205,74.1384211 34.0795612,74.3457895 C33.8905448,74.5531579 33.7957733,74.9155263 33.7957733,75.4273684 L33.7957733,78.3247368 C33.7957733,78.8405263 33.8905448,79.1697368 34.0795612,79.3192105 C34.2704205,79.4665789 34.6247605,79.4989474 35.1431079,79.4186842 L39.1479927,78.7902632 C39.6708154,78.7078947 40.0251554,78.5613158 40.2146984,78.3555263 C40.4037148,78.1473684 40.4987495,77.7865789 40.4987495,77.2768421 L40.4987495,74.375 C40.4987495,73.8631579 40.4037148,73.5339474 40.2146984,73.3857895 Z M39.2327605,77.7410526 L35.0599196,78.3934211 L35.0599196,74.9076316 L39.2327605,74.2523684 L39.2327605,77.7410526 L39.2327605,77.7410526 Z" id="Fill-24" fill="#041732"/>
                    <path d="M52.0032176,74.16 C51.8091993,74.0018421 51.4493309,73.9510526 50.9244022,74.0057895 L47.5002559,74.3557895 L47.5002559,73.1731579 L51.0978867,72.8044737 L51.0978867,73.4328947 L52.222245,73.0513158 L52.222245,72.9347368 C52.222245,72.4723684 52.1214186,72.1676316 51.919766,72.0165789 C51.7186399,71.8671053 51.3666691,71.8176316 50.8659598,71.8694737 L47.7542962,72.1876316 C47.2314735,72.2410526 46.8729214,72.3665789 46.6804826,72.5639474 C46.4904132,72.7605263 46.3945887,73.1152632 46.3945887,73.6278947 L46.3945887,74.2331579 C46.3945887,74.7457895 46.4904132,75.0842105 46.6804826,75.2415789 C46.8729214,75.3997368 47.2314735,75.4521053 47.7542962,75.3989474 L51.1723876,75.0494737 L51.1723876,76.3063158 L47.2980768,76.7018421 L47.2980768,76.0526316 L46.1726654,76.4026316 L46.1726654,76.5521053 C46.1726654,77.0618421 46.269543,77.3978947 46.4646143,77.5552632 C46.6578428,77.7134211 47.0192907,77.7642105 47.5415868,77.7110526 L50.9280878,77.3647368 C51.4509104,77.3107895 51.8091993,77.1860526 52.0045338,76.9886842 C52.1980256,76.7921053 52.2964826,76.4365789 52.2964826,75.9239474 L52.2964826,75.1692105 C52.2964826,74.6518421 52.1980256,74.3171053 52.0032176,74.16" id="Fill-25" fill="#041732"/>
                    <path d="M62.8527093,71.0428947 L58.1412505,71.2842105 L58.1412505,76.7865789 L59.3990786,76.7218421 L59.3990786,74.5755263 L62.8527093,74.3997368 C63.6748519,74.3581579 64.0863181,73.9818421 64.0863181,73.2718421 L64.0863181,72.0465789 C64.0863181,71.3357895 63.6748519,70.9997368 62.8527093,71.0428947 Z M62.8527093,73.0197368 C62.8527093,73.2068421 62.798479,73.3357895 62.6913346,73.4057895 C62.6152541,73.4521053 62.4757294,73.4821053 62.2756563,73.4915789 L59.3990786,73.6394737 L59.3990786,72.1576316 L62.2756563,72.0105263 C62.4757294,72.0010526 62.6152541,72.015 62.6913346,72.0552632 C62.798479,72.1144737 62.8527093,72.2371053 62.8527093,72.4244737 L62.8527093,73.0197368 L62.8527093,73.0197368 Z" id="Fill-26" fill="#041732"/>
                    <path d="M69.2621572,76.3718421 L70.5210384,76.3771053 L70.5210384,74.2978947 L71.7346399,74.3026316 L73.954925,76.3965789 L75.7898062,76.4057895 L73.2512468,74.3102632 L73.9770384,74.3147368 C74.8026033,74.3178947 75.2143327,73.9655263 75.2143327,73.2571053 L75.2143327,71.9673684 C75.2143327,71.2563158 74.8026033,70.8947368 73.9770384,70.8902632 L69.2621572,70.8663158 L69.2621572,76.3718421 Z M70.5210384,71.8139474 L73.3994589,71.8292105 C73.599532,71.8292105 73.7382669,71.8515789 73.8161901,71.8963158 C73.921755,71.9610526 73.9770384,72.0868421 73.9770384,72.2726316 L73.9770384,72.9378947 C73.9770384,73.1228947 73.921755,73.2471053 73.8161901,73.3110526 C73.7382669,73.355 73.599532,73.375 73.3994589,73.3742105 L70.5210384,73.3589474 L70.5210384,71.8139474 L70.5210384,71.8139474 Z" id="Fill-27" fill="#041732"/>
                    <polyline id="Fill-28" fill="#041732" points="86.6906325 75.9207895 82.2937623 75.6563158 82.2937623 74.2878947 84.8275832 74.4413158 84.8275832 73.5023684 82.2937623 73.3502632 82.2937623 72.1260526 86.6364022 72.3873684 86.6364022 71.4507895 81.0132943 71.11 81.0132943 76.6115789 86.6906325 76.9555263 86.6906325 75.9207895"/>
                    <polyline id="Fill-29" fill="#041732" points="93.7632176 77.6123684 95.0442121 77.7510526 95.0442121 75.2592105 97.8784059 72.5563158 96.3812797 72.3952632 94.494011 74.3002632 92.6172724 71.9873684 90.9174406 71.8023684 93.7632176 75.1505263 93.7632176 77.6123684"/>
                    <path d="M103.706852,78.8797368 L107.070186,79.4102632 C107.588534,79.4918421 107.943927,79.4602632 108.137945,79.3131579 C108.330121,79.165 108.427525,78.8357895 108.427525,78.32 L108.427525,77.5644737 C108.427525,77.0526316 108.330121,76.6934211 108.136629,76.4857895 C107.943927,76.2776316 107.585901,76.1321053 107.066764,76.0502632 L103.664731,75.5128947 L103.664731,74.3263158 L107.23709,74.8939474 L107.23709,75.5228947 L108.353287,75.4321053 L108.353287,75.3147368 C108.353287,74.8521053 108.25325,74.5176316 108.05423,74.3147368 C107.853367,74.1136842 107.504293,73.9742105 107.005952,73.8947368 L103.918245,73.4065789 C103.398318,73.3257895 103.043715,73.3589474 102.851539,73.5060526 C102.66226,73.6542105 102.567751,73.9842105 102.567751,74.4952632 L102.567751,75.1057895 C102.567751,75.6178947 102.66226,75.9771053 102.851539,76.1836842 C103.043715,76.3918421 103.398318,76.5360526 103.918245,76.6184211 L107.311064,77.1536842 L107.311064,78.4110526 L103.464921,77.805 L103.464921,77.155 L102.346618,77.2128947 L102.346618,77.3610526 C102.346618,77.8721053 102.443759,78.2328947 102.635671,78.4402632 C102.828636,78.6476316 103.187452,78.7965789 103.706852,78.8797368" id="Fill-30" fill="#041732"/>
    </g>
</svg>