<svg xmlns="http://www.w3.org/2000/svg" xmlns:xlink="http://www.w3.org/1999/xlink" version="1.1" style="shape-rendering:geometricPrecision; text-rendering:geometricPrecision; image-rendering:optimizeQuality; fill-rule:evenodd; clip-rule:evenodd" viewBox="-0.5 -0.5 866 650">
<g><path style="opacity:1" fill="#fefefe" d="M -0.5,-0.5 C 288.167,-0.5 576.833,-0.5 865.5,-0.5C 865.5,216.167 865.5,432.833 865.5,649.5C 576.833,649.5 288.167,649.5 -0.5,649.5C -0.5,432.833 -0.5,216.167 -0.5,-0.5 Z"/></g>
<g><path style="opacity:1" fill="#535354" d="M 343.5,166.5 C 336.492,166.334 329.492,166.5 322.5,167C 320.618,167.198 318.952,167.698 317.5,168.5C 312.069,168.272 306.736,167.439 301.5,166C 315.673,165.173 329.673,165.339 343.5,166.5 Z"/></g>
<g><path style="opacity:1" fill="#38373b" d="M 343.5,166.5 C 408.905,167.248 472.905,177.082 535.5,196C 558.665,203.75 580.332,214.416 600.5,228C 607.14,233.989 614.473,238.989 622.5,243C 660.278,254.888 694.945,272.555 726.5,296C 736.163,304.321 744.33,313.821 751,324.5C 761.345,346.764 758.345,367.098 742,385.5C 730.181,398.281 716.681,408.447 701.5,416C 710.701,373.943 693.701,351.776 650.5,349.5C 646.18,348.834 641.68,348.501 637,348.5C 629.609,348.364 622.443,349.031 615.5,350.5C 595.68,352.431 576.347,356.597 557.5,363C 585.805,370.01 607.972,385.51 624,409.5C 625.626,412.058 626.626,414.725 627,417.5C 610.841,405.274 592.674,397.608 572.5,394.5C 575.838,402.011 581.171,407.844 588.5,412C 602.558,419.797 617.558,424.797 633.5,427C 648.434,428.926 663.434,429.926 678.5,430C 655.905,440.155 632.238,444.155 607.5,442C 593.659,440.232 579.993,437.565 566.5,434C 545.729,427.521 524.729,421.855 503.5,417C 435.018,412.603 375.518,433.436 325,479.5C 341.433,434.168 337.099,390.835 312,349.5C 299.102,329.256 283.935,310.756 266.5,294C 239.467,269.313 209.8,248.313 177.5,231C 215.172,233.121 251.172,241.788 285.5,257C 249.761,230.464 210.428,210.797 167.5,198C 148.014,192.545 128.347,187.878 108.5,184C 141.137,177.184 174.137,173.184 207.5,172C 252.927,170.786 298.261,172.286 343.5,176.5C 348.621,177.97 353.954,178.47 359.5,178C 354.899,176.516 350.232,175.35 345.5,174.5C 336.234,172.288 326.901,170.288 317.5,168.5C 318.952,167.698 320.618,167.198 322.5,167C 329.492,166.5 336.492,166.334 343.5,166.5 Z"/></g>
<g><path style="opacity:1" fill="#a4a3a8" d="M 421.5,186.5 C 419.901,186.232 418.568,186.566 417.5,187.5C 415.821,187.108 414.154,186.608 412.5,186C 415.696,185.195 418.696,185.362 421.5,186.5 Z"/></g>
<g><path style="opacity:1" fill="#fbfbfb" d="M 417.5,187.5 C 418.568,186.566 419.901,186.232 421.5,186.5C 465.538,190.01 508.204,199.51 549.5,215C 567.756,221.601 582.922,232.434 595,247.5C 607.312,270.097 603.479,289.597 583.5,306C 575.362,312.126 566.696,317.46 557.5,322C 527.991,333.945 499.324,347.612 471.5,363C 454.511,374.315 439.011,387.481 425,402.5C 399.725,408.56 376.225,418.56 354.5,432.5C 353.833,427.833 353.167,423.167 352.5,418.5C 347.49,352.609 317.49,301.776 262.5,266C 303.745,279.037 338.912,301.537 368,333.5C 365.94,327.705 363.273,322.039 360,316.5C 325.419,262.595 278.586,223.095 219.5,198C 212.039,195.458 204.706,192.625 197.5,189.5C 290.876,182.764 383.209,189.764 474.5,210.5C 475.696,210.154 475.696,209.654 474.5,209C 456.304,199.767 437.304,192.6 417.5,187.5 Z"/></g>
<g><path style="opacity:1" fill="#898989" d="M 393.5,218.5 C 387.31,218.177 381.31,218.51 375.5,219.5C 368.46,219.587 361.46,219.087 354.5,218C 367.673,217.173 380.673,217.34 393.5,218.5 Z"/></g>
<g><path style="opacity:1" fill="#d9d8dc" d="M 345.5,174.5 C 350.232,175.35 354.899,176.516 359.5,178C 353.954,178.47 348.621,177.97 343.5,176.5C 344.167,175.833 344.833,175.167 345.5,174.5 Z"/></g>
<g><path style="opacity:1" fill="#39383c" d="M 375.5,219.5 C 381.31,218.51 387.31,218.177 393.5,218.5C 437.674,218.226 480.674,224.726 522.5,238C 513.601,228.784 502.934,222.45 490.5,219C 509.212,221.522 525.546,229.189 539.5,242C 546.864,249.698 554.53,257.031 562.5,264C 569.507,269.003 577.174,272.67 585.5,275C 579.383,275.823 573.383,277.157 567.5,279C 556.415,284.207 545.082,288.874 533.5,293C 510.644,297.648 488.311,295.982 466.5,288C 471.454,288.52 476.454,289.186 481.5,290C 495.917,291.709 509.917,290.043 523.5,285C 526.433,283.729 529.099,282.062 531.5,280C 518.702,276.2 510.202,268.034 506,255.5C 505.259,252.438 505.425,249.438 506.5,246.5C 501.391,242.612 495.725,239.779 489.5,238C 452.3,227.189 414.3,221.022 375.5,219.5 Z"/></g>
<g><path style="opacity:1" fill="#9b908e" d="M 510.5,218.5 C 527.903,220.155 543.236,226.989 556.5,239C 565.474,250.818 576.141,260.818 588.5,269C 581.446,267.532 574.779,264.866 568.5,261C 557.518,250.354 546.185,240.021 534.5,230C 527.148,224.824 519.148,220.991 510.5,218.5 Z"/></g>
<g><path style="opacity:1" fill="#6b3342" d="M 521.5,249.5 C 519.565,248.85 517.565,248.517 515.5,248.5C 515.5,251.833 515.5,255.167 515.5,258.5C 514.518,255.038 514.185,251.371 514.5,247.5C 516.527,247.338 518.527,247.505 520.5,248C 521.056,248.383 521.389,248.883 521.5,249.5 Z"/></g>
<g><path style="opacity:1" fill="#803343" d="M 521.5,250.5 C 523.544,251.508 525.544,252.508 527.5,253.5C 525.269,254.624 522.936,255.124 520.5,255C 522.548,253.774 522.881,252.274 521.5,250.5 Z"/></g>
<g><path style="opacity:1" fill="#9f2c47" d="M 521.5,249.5 C 521.5,249.833 521.5,250.167 521.5,250.5C 522.881,252.274 522.548,253.774 520.5,255C 522.936,255.124 525.269,254.624 527.5,253.5C 528.552,255.256 530.219,255.923 532.5,255.5C 532.075,258.119 531.075,260.453 529.5,262.5C 528.595,266.144 526.262,267.311 522.5,266C 521.672,264.008 520.339,262.508 518.5,261.5C 517.728,260.306 516.728,259.306 515.5,258.5C 515.5,255.167 515.5,251.833 515.5,248.5C 517.565,248.517 519.565,248.85 521.5,249.5 Z"/></g>
<g><path style="opacity:1" fill="#66333e" d="M 532.5,255.5 C 533.613,256.946 533.78,258.613 533,260.5C 529.868,263.013 529.701,265.68 532.5,268.5C 531.504,268.586 530.671,268.252 530,267.5C 529.506,265.866 529.34,264.199 529.5,262.5C 531.075,260.453 532.075,258.119 532.5,255.5 Z"/></g>
<g><path style="opacity:1" fill="#8c3048" d="M 518.5,261.5 C 520.339,262.508 521.672,264.008 522.5,266C 526.262,267.311 528.595,266.144 529.5,262.5C 529.34,264.199 529.506,265.866 530,267.5C 530.671,268.252 531.504,268.586 532.5,268.5C 534.539,269.911 535.539,271.911 535.5,274.5C 530.083,273.056 525.249,270.39 521,266.5C 519.906,264.922 519.072,263.255 518.5,261.5 Z"/></g>
<g><path style="opacity:1" fill="#723041" d="M 637.5,265.5 C 642.2,266.57 646.867,267.57 651.5,268.5C 651.5,269.5 651.5,270.5 651.5,271.5C 647.655,269.957 643.655,268.624 639.5,267.5C 638.287,267.253 637.62,266.586 637.5,265.5 Z"/></g>
<g><path style="opacity:1" fill="#ebeced" d="M 543.5,265.5 C 546.245,266.737 548.578,268.57 550.5,271C 547.028,272.58 543.362,272.913 539.5,272C 542.693,270.974 544.026,268.808 543.5,265.5 Z"/></g>
<g><path style="opacity:1" fill="#9b8c89" d="M 267.5,209.5 C 291.87,215.354 314.203,225.521 334.5,240C 356.234,256.231 375.9,274.731 393.5,295.5C 388.869,282.955 382.036,271.289 373,260.5C 362.454,247.953 350.62,236.787 337.5,227C 339.553,226.675 341.553,227.009 343.5,228C 367.092,238.27 387.259,253.103 404,272.5C 416.713,290.883 431.88,307.049 449.5,321C 463.397,331.411 479.064,337.078 496.5,338C 469.72,349.455 446.22,365.622 426,386.5C 422.241,393.899 416.074,397.066 407.5,396C 392.222,399.643 377.889,405.476 364.5,413.5C 363.161,377.145 351.161,344.811 328.5,316.5C 328.833,316.167 329.167,315.833 329.5,315.5C 339.14,320.308 347.807,326.474 355.5,334C 366.002,345.473 376.168,357.307 386,369.5C 385.62,352.312 381.62,335.979 374,320.5C 357.693,289.191 335.86,262.357 308.5,240C 294.89,229.529 281.223,219.362 267.5,209.5 Z"/></g>
<g><path style="opacity:1" fill="#47323b" d="M 620.5,287.5 C 617.675,293.34 614.008,298.674 609.5,303.5C 611.218,299.733 613.218,296.067 615.5,292.5C 614.242,290.313 613.242,287.98 612.5,285.5C 613.385,280.878 613.718,276.211 613.5,271.5C 614.833,271.5 616.167,271.5 617.5,271.5C 616.536,276.124 615.869,280.624 615.5,285C 616.385,287.157 618.052,287.99 620.5,287.5 Z"/></g>
<g><path style="opacity:1" fill="#363639" d="M 639.5,276.5 C 644.158,279.837 649.491,281.837 655.5,282.5C 662.774,284.923 669.774,287.923 676.5,291.5C 673.329,295.181 669.996,295.014 666.5,291C 662.886,290.064 659.22,289.564 655.5,289.5C 651.968,289.69 648.635,289.023 645.5,287.5C 642.09,287.543 638.757,287.043 635.5,286C 634.549,282.943 634.216,279.777 634.5,276.5C 636.167,276.5 637.833,276.5 639.5,276.5 Z"/></g>
<g><path style="opacity:1" fill="#9f2c47" d="M 637.5,265.5 C 637.62,266.586 638.287,267.253 639.5,267.5C 643.655,268.624 647.655,269.957 651.5,271.5C 653.857,271.337 656.19,271.503 658.5,272C 664.145,274.708 669.478,277.874 674.5,281.5C 675.749,283.136 677.416,284.303 679.5,285C 676.344,285.603 673.344,285.103 670.5,283.5C 669.061,284.063 667.561,284.397 666,284.5C 662.705,282.791 659.205,281.791 655.5,281.5C 651.726,280.462 648.059,278.962 644.5,277C 642.866,276.506 641.199,276.34 639.5,276.5C 637.833,276.5 636.167,276.5 634.5,276.5C 634.216,279.777 634.549,282.943 635.5,286C 638.757,287.043 642.09,287.543 645.5,287.5C 645.511,289.017 646.177,290.184 647.5,291C 653.909,292.371 660.243,294.038 666.5,296C 668.868,296.79 671.034,297.956 673,299.5C 674.44,298.852 675.94,298.519 677.5,298.5C 690.16,302.659 701.16,309.493 710.5,319C 711.448,319.483 712.448,319.649 713.5,319.5C 713.76,321.595 714.926,322.928 717,323.5C 719.319,322.591 719.986,320.925 719,318.5C 715.243,319.982 714.743,319.316 717.5,316.5C 716.609,315.41 715.609,315.41 714.5,316.5C 713.269,315.349 713.269,314.183 714.5,313C 713.062,312.781 711.729,312.281 710.5,311.5C 711.931,309.062 713.931,307.396 716.5,306.5C 720.769,310.102 724.769,314.102 728.5,318.5C 729.689,319.429 731.022,319.762 732.5,319.5C 732.273,321.933 733.273,323.599 735.5,324.5C 735.662,326.824 736.828,328.491 739,329.5C 739.813,331.436 740.313,333.436 740.5,335.5C 740.802,340.699 741.469,345.866 742.5,351C 742.293,354.523 741.96,358.023 741.5,361.5C 739.666,368.166 736.5,374.166 732,379.5C 731.51,380.793 731.343,382.127 731.5,383.5C 730.5,383.5 729.5,383.5 728.5,383.5C 726.53,385.647 724.697,387.98 723,390.5C 721.587,392.414 719.753,393.747 717.5,394.5C 716.669,387.189 716.169,379.856 716,372.5C 715.015,370.825 714.181,369.158 713.5,367.5C 709.907,364.044 706.741,360.044 704,355.5C 703.51,354.207 703.343,352.873 703.5,351.5C 699.528,350.051 696.194,347.551 693.5,344C 690.754,342.25 687.754,341.25 684.5,341C 682.048,339.476 679.714,337.809 677.5,336C 670.249,334.012 662.916,332.512 655.5,331.5C 648.836,328.6 641.836,327.934 634.5,329.5C 636.022,330.562 637.688,331.229 639.5,331.5C 639.791,332.649 640.624,333.316 642,333.5C 644.731,334.617 647.565,335.283 650.5,335.5C 636.167,336.167 621.833,336.833 607.5,337.5C 607.5,337.833 607.5,338.167 607.5,338.5C 601.931,338.376 596.598,339.043 591.5,340.5C 584.675,341.206 578.009,342.873 571.5,345.5C 567.191,346.375 563.191,347.708 559.5,349.5C 557.071,349.884 554.737,350.551 552.5,351.5C 546.977,354.21 541.31,356.71 535.5,359C 532.937,360.079 530.271,360.579 527.5,360.5C 527.719,361.675 527.386,362.675 526.5,363.5C 517.499,367.588 509.166,372.588 501.5,378.5C 512.546,379.856 523.546,381.523 534.5,383.5C 534.511,385.017 535.177,386.184 536.5,387C 541.759,387.868 546.759,389.368 551.5,391.5C 555.134,393.801 558.467,396.468 561.5,399.5C 561.5,400.5 561.5,401.5 561.5,402.5C 557.869,402.968 554.535,402.301 551.5,400.5C 551.167,400.833 550.833,401.167 550.5,401.5C 552.86,403.853 555.527,405.853 558.5,407.5C 560.132,404.854 562.465,403.521 565.5,403.5C 565.5,404.5 565.5,405.5 565.5,406.5C 564.325,406.281 563.325,406.614 562.5,407.5C 560.703,408.695 559.703,410.362 559.5,412.5C 557.099,411.951 554.765,411.118 552.5,410C 549.518,409.502 546.518,409.335 543.5,409.5C 540.777,407.812 537.777,406.312 534.5,405C 529.931,404.734 525.597,403.734 521.5,402C 518.183,401.502 514.85,401.335 511.5,401.5C 494.223,399.82 476.89,399.154 459.5,399.5C 458.022,399.762 456.689,399.429 455.5,398.5C 457.864,394.816 460.531,391.482 463.5,388.5C 467.186,385.467 471.186,382.633 475.5,380C 476.793,379.51 478.127,379.343 479.5,379.5C 479.5,378.5 479.5,377.5 479.5,376.5C 480.873,376.657 482.207,376.49 483.5,376C 488.015,373.738 492.015,370.905 495.5,367.5C 496.552,367.649 497.552,367.483 498.5,367C 503.646,364.012 508.646,360.845 513.5,357.5C 519.763,354.032 526.096,350.532 532.5,347C 536.663,346.884 540.329,345.717 543.5,343.5C 548.273,341.742 553.106,340.076 558,338.5C 559.03,338.164 559.53,337.497 559.5,336.5C 563.179,335.064 566.845,333.397 570.5,331.5C 576.381,329.561 582.048,327.061 587.5,324C 589.041,322.629 590.375,321.129 591.5,319.5C 593.697,318.155 596.03,316.989 598.5,316C 601.938,313.308 604.938,310.141 607.5,306.5C 607.285,304.821 607.952,303.821 609.5,303.5C 614.008,298.674 617.675,293.34 620.5,287.5C 622.5,279.325 624.167,270.992 625.5,262.5C 629.484,263.488 633.484,264.488 637.5,265.5 Z"/></g>
<g><path style="opacity:1" fill="#5c2d39" d="M 639.5,276.5 C 641.199,276.34 642.866,276.506 644.5,277C 648.059,278.962 651.726,280.462 655.5,281.5C 655.5,281.833 655.5,282.167 655.5,282.5C 649.491,281.837 644.158,279.837 639.5,276.5 Z"/></g>
<g><path style="opacity:1" fill="#453336" d="M 655.5,289.5 C 659.22,289.564 662.886,290.064 666.5,291C 669.996,295.014 673.329,295.181 676.5,291.5C 680.137,292.832 683.804,294.165 687.5,295.5C 687.5,296.5 687.5,297.5 687.5,298.5C 688.552,298.351 689.552,298.517 690.5,299C 695.009,302.332 699.676,305.499 704.5,308.5C 707.527,312.194 710.86,315.527 714.5,318.5C 714.376,319.107 714.043,319.44 713.5,319.5C 712.448,319.649 711.448,319.483 710.5,319C 701.16,309.493 690.16,302.659 677.5,298.5C 674.781,296.014 671.447,294.847 667.5,295C 663.343,293.3 659.343,291.467 655.5,289.5 Z"/></g>
<g><path style="opacity:1" fill="#8c3049" d="M 645.5,287.5 C 648.635,289.023 651.968,289.69 655.5,289.5C 659.343,291.467 663.343,293.3 667.5,295C 671.447,294.847 674.781,296.014 677.5,298.5C 675.94,298.519 674.44,298.852 673,299.5C 671.034,297.956 668.868,296.79 666.5,296C 660.243,294.038 653.909,292.371 647.5,291C 646.177,290.184 645.511,289.017 645.5,287.5 Z"/></g>
<g><path style="opacity:1" fill="#982d47" d="M 655.5,282.5 C 655.5,282.167 655.5,281.833 655.5,281.5C 659.205,281.791 662.705,282.791 666,284.5C 667.561,284.397 669.061,284.063 670.5,283.5C 673.344,285.103 676.344,285.603 679.5,285C 677.416,284.303 675.749,283.136 674.5,281.5C 682.045,283.414 688.712,286.914 694.5,292C 697.521,292.849 700.521,293.683 703.5,294.5C 703.5,295.5 703.5,296.5 703.5,297.5C 705.514,297.392 707.18,298.058 708.5,299.5C 711.167,301.833 713.833,304.167 716.5,306.5C 713.931,307.396 711.931,309.062 710.5,311.5C 711.729,312.281 713.062,312.781 714.5,313C 713.269,314.183 713.269,315.349 714.5,316.5C 715.609,315.41 716.609,315.41 717.5,316.5C 714.743,319.316 715.243,319.982 719,318.5C 719.986,320.925 719.319,322.591 717,323.5C 714.926,322.928 713.76,321.595 713.5,319.5C 714.043,319.44 714.376,319.107 714.5,318.5C 710.86,315.527 707.527,312.194 704.5,308.5C 699.676,305.499 695.009,302.332 690.5,299C 689.552,298.517 688.552,298.351 687.5,298.5C 687.5,297.5 687.5,296.5 687.5,295.5C 683.804,294.165 680.137,292.832 676.5,291.5C 669.774,287.923 662.774,284.923 655.5,282.5 Z"/></g>
<g><path style="opacity:1" fill="#512f39" d="M 708.5,299.5 C 710.764,300.219 713.097,300.552 715.5,300.5C 716.509,304.682 719.176,307.515 723.5,309C 726.825,313.174 730.825,316.341 735.5,318.5C 734.833,319.167 734.167,319.833 733.5,320.5C 734.63,321.622 735.297,322.956 735.5,324.5C 733.273,323.599 732.273,321.933 732.5,319.5C 731.022,319.762 729.689,319.429 728.5,318.5C 724.769,314.102 720.769,310.102 716.5,306.5C 713.833,304.167 711.167,301.833 708.5,299.5 Z"/></g>
<g><path style="opacity:1" fill="#7a3242" d="M 607.5,306.5 C 604.938,310.141 601.938,313.308 598.5,316C 596.03,316.989 593.697,318.155 591.5,319.5C 591.5,318.5 591.5,317.5 591.5,316.5C 592.552,316.649 593.552,316.483 594.5,316C 598.892,312.815 603.226,309.648 607.5,306.5 Z"/></g>
<g><path style="opacity:1" fill="#713242" d="M 591.5,319.5 C 590.375,321.129 589.041,322.629 587.5,324C 582.048,327.061 576.381,329.561 570.5,331.5C 570.414,330.504 570.748,329.671 571.5,329C 576.735,327.391 581.735,325.391 586.5,323C 587.337,321.989 587.67,320.822 587.5,319.5C 588.833,319.5 590.167,319.5 591.5,319.5 Z"/></g>
<g><path style="opacity:1" fill="#732c3c" d="M 655.5,331.5 C 651.304,331.077 647.137,330.41 643,329.5C 641.319,329.608 640.152,330.275 639.5,331.5C 637.688,331.229 636.022,330.562 634.5,329.5C 641.836,327.934 648.836,328.6 655.5,331.5 Z"/></g>
<g><path style="opacity:1" fill="#7b2f44" d="M 650.5,335.5 C 652.288,335.215 653.955,335.548 655.5,336.5C 639.514,337.499 623.514,337.833 607.5,337.5C 621.833,336.833 636.167,336.167 650.5,335.5 Z"/></g>
<g><path style="opacity:1" fill="#642e3b" d="M 607.5,338.5 C 602.417,340.078 597.084,340.745 591.5,340.5C 596.598,339.043 601.931,338.376 607.5,338.5 Z"/></g>
<g><path style="opacity:1" fill="#5f303b" d="M 559.5,336.5 C 559.53,337.497 559.03,338.164 558,338.5C 553.106,340.076 548.273,341.742 543.5,343.5C 547.956,339.429 553.289,337.096 559.5,336.5 Z"/></g>
<g><path style="opacity:1" fill="#552d37" d="M 571.5,345.5 C 568.192,348.603 564.192,349.936 559.5,349.5C 563.191,347.708 567.191,346.375 571.5,345.5 Z"/></g>
<g><path style="opacity:1" fill="#b9bcbd" d="M 650.5,349.5 C 638.817,349.398 627.15,349.731 615.5,350.5C 622.443,349.031 629.609,348.364 637,348.5C 641.68,348.501 646.18,348.834 650.5,349.5 Z"/></g>
<g><path style="opacity:1" fill="#6d3143" d="M 740.5,335.5 C 743.431,343.051 744.264,351.051 743,359.5C 742.722,360.416 742.222,361.082 741.5,361.5C 741.96,358.023 742.293,354.523 742.5,351C 741.469,345.866 740.802,340.699 740.5,335.5 Z"/></g>
<g><path style="opacity:1" fill="#592e3a" d="M 513.5,357.5 C 508.646,360.845 503.646,364.012 498.5,367C 497.552,367.483 496.552,367.649 495.5,367.5C 495.281,366.325 495.614,365.325 496.5,364.5C 501.623,360.676 507.29,358.342 513.5,357.5 Z"/></g>
<g><path style="opacity:1" fill="#773042" d="M 556.5,370.5 C 557.791,370.263 558.791,370.596 559.5,371.5C 552.825,371.334 546.158,371.5 539.5,372C 536.957,372.14 534.623,372.806 532.5,374C 541.822,373.9 550.822,375.067 559.5,377.5C 548.952,375.854 538.285,375.187 527.5,375.5C 527.5,374.5 527.5,373.5 527.5,372.5C 534.474,371.393 541.474,370.393 548.5,369.5C 551.197,369.703 553.864,370.036 556.5,370.5 Z"/></g>
<g><path style="opacity:1" fill="#3b353a" d="M 552.5,351.5 C 552.719,352.675 552.386,353.675 551.5,354.5C 543.955,356.565 536.955,359.732 530.5,364C 532.902,364.814 535.235,364.647 537.5,363.5C 539.945,361.978 542.611,360.645 545.5,359.5C 549.336,360.916 552.669,363.083 555.5,366C 555.167,366.333 554.833,366.667 554.5,367C 561.167,367.667 561.167,368.333 554.5,369C 555.416,369.278 556.082,369.778 556.5,370.5C 553.864,370.036 551.197,369.703 548.5,369.5C 541.474,370.393 534.474,371.393 527.5,372.5C 527.5,373.5 527.5,374.5 527.5,375.5C 538.285,375.187 548.952,375.854 559.5,377.5C 561.072,378.687 562.739,379.687 564.5,380.5C 562.257,381.312 559.924,381.979 557.5,382.5C 555.611,382.564 553.944,382.064 552.5,381C 554.595,380.444 554.762,379.944 553,379.5C 549.813,380.045 546.646,380.711 543.5,381.5C 546.144,382.396 548.81,383.229 551.5,384C 548.765,383.802 546.099,383.969 543.5,384.5C 546.122,385.459 548.122,387.125 549.5,389.5C 544.532,387.498 539.532,385.498 534.5,383.5C 523.546,381.523 512.546,379.856 501.5,378.5C 509.166,372.588 517.499,367.588 526.5,363.5C 527.386,362.675 527.719,361.675 527.5,360.5C 530.271,360.579 532.937,360.079 535.5,359C 541.31,356.71 546.977,354.21 552.5,351.5 Z"/></g>
<g><path style="opacity:1" fill="#a22b47" d="M 559.5,371.5 C 561.703,371.604 563.703,372.27 565.5,373.5C 565.5,374.5 565.5,375.5 565.5,376.5C 567.288,376.215 568.955,376.548 570.5,377.5C 569.333,377.833 568.167,378.167 567,378.5C 564.502,378.083 562.002,377.749 559.5,377.5C 550.822,375.067 541.822,373.9 532.5,374C 534.623,372.806 536.957,372.14 539.5,372C 546.158,371.5 552.825,371.334 559.5,371.5 Z"/></g>
<g><path style="opacity:1" fill="#4c2e36" d="M 571.5,375.5 C 575.751,375.927 579.751,377.093 583.5,379C 585.439,379.908 586.439,381.408 586.5,383.5C 581.827,380.096 576.827,377.43 571.5,375.5 Z"/></g>
<g><path style="opacity:1" fill="#7a3045" d="M 534.5,383.5 C 539.532,385.498 544.532,387.498 549.5,389.5C 550.833,389.5 551.5,390.167 551.5,391.5C 546.759,389.368 541.759,387.868 536.5,387C 535.177,386.184 534.511,385.017 534.5,383.5 Z"/></g>
<g><path style="opacity:1" fill="#843147" d="M 565.5,373.5 C 567.315,374.63 569.315,375.296 571.5,375.5C 576.827,377.43 581.827,380.096 586.5,383.5C 591.809,387.133 597.143,390.799 602.5,394.5C 602,394.833 601.5,395.167 601,395.5C 596.324,392.415 591.49,389.748 586.5,387.5C 579.305,384.992 571.971,382.658 564.5,380.5C 562.739,379.687 561.072,378.687 559.5,377.5C 562.002,377.749 564.502,378.083 567,378.5C 568.167,378.167 569.333,377.833 570.5,377.5C 568.955,376.548 567.288,376.215 565.5,376.5C 565.5,375.5 565.5,374.5 565.5,373.5 Z"/></g>
<g><path style="opacity:1" fill="#7d2e43" d="M 713.5,367.5 C 714.181,369.158 715.015,370.825 716,372.5C 716.169,379.856 716.669,387.189 717.5,394.5C 719.753,393.747 721.587,392.414 723,390.5C 724.697,387.98 726.53,385.647 728.5,383.5C 728.649,384.552 728.483,385.552 728,386.5C 725.642,390.358 722.475,393.358 718.5,395.5C 717.571,396.689 717.238,398.022 717.5,399.5C 716.5,399.5 715.5,399.5 714.5,399.5C 715.501,388.817 715.167,378.15 713.5,367.5 Z"/></g>
<g><path style="opacity:1" fill="#4d313c" d="M 551.5,391.5 C 554.559,391.797 557.059,393.13 559,395.5C 563.005,394.451 564.838,396.118 564.5,400.5C 563.609,399.89 562.609,399.557 561.5,399.5C 558.467,396.468 555.134,393.801 551.5,391.5 Z"/></g>
<g><path style="opacity:1" fill="#62313f" d="M 463.5,388.5 C 460.531,391.482 457.864,394.816 455.5,398.5C 456.689,399.429 458.022,399.762 459.5,399.5C 458.5,403.148 456.166,404.314 452.5,403C 451.978,402.439 451.645,401.772 451.5,401C 454.322,395.679 458.322,391.512 463.5,388.5 Z"/></g>
<g><path style="opacity:1" fill="#8a324a" d="M 511.5,401.5 C 514.85,401.335 518.183,401.502 521.5,402C 525.597,403.734 529.931,404.734 534.5,405C 537.777,406.312 540.777,407.812 543.5,409.5C 532.573,407.465 521.907,404.798 511.5,401.5 Z"/></g>
<g><path style="opacity:1" fill="#b6b5b6" d="M 352.5,418.5 C 353.167,423.167 353.833,427.833 354.5,432.5C 354.44,433.043 354.107,433.376 353.5,433.5C 352.506,428.544 352.173,423.544 352.5,418.5 Z"/></g>
<g><path style="opacity:1" fill="#972e47" d="M 561.5,399.5 C 562.609,399.557 563.609,399.89 564.5,400.5C 570.169,405.569 575.836,410.736 581.5,416C 589.216,419.677 596.883,423.343 604.5,427C 610.81,428.248 617.144,429.414 623.5,430.5C 613.414,431.841 603.414,431.341 593.5,429C 585.502,426.338 577.502,423.671 569.5,421C 564.622,418.037 559.289,416.037 553.5,415C 550.635,412.714 547.302,411.88 543.5,412.5C 543.5,411.5 543.5,410.5 543.5,409.5C 546.518,409.335 549.518,409.502 552.5,410C 554.765,411.118 557.099,411.951 559.5,412.5C 559.703,410.362 560.703,408.695 562.5,407.5C 563.325,406.614 564.325,406.281 565.5,406.5C 565.5,405.5 565.5,404.5 565.5,403.5C 562.465,403.521 560.132,404.854 558.5,407.5C 555.527,405.853 552.86,403.853 550.5,401.5C 550.833,401.167 551.167,400.833 551.5,400.5C 554.535,402.301 557.869,402.968 561.5,402.5C 561.5,401.5 561.5,400.5 561.5,399.5 Z"/></g>
<g><path style="opacity:1" fill="#424244" d="M 365.5,468.5 C 369.5,468.5 373.5,468.5 377.5,468.5C 377.5,469.5 377.5,470.5 377.5,471.5C 376.167,471.5 374.833,471.5 373.5,471.5C 373.5,475.167 373.5,478.833 373.5,482.5C 372.167,482.5 370.833,482.5 369.5,482.5C 369.5,478.833 369.5,475.167 369.5,471.5C 368.167,471.5 366.833,471.5 365.5,471.5C 365.5,470.5 365.5,469.5 365.5,468.5 Z"/></g>
<g><path style="opacity:1" fill="#444446" d="M 380.5,468.5 C 382.288,468.215 383.955,468.548 385.5,469.5C 387.314,477.219 388.648,476.885 389.5,468.5C 391.5,468.5 393.5,468.5 395.5,468.5C 395.5,473.167 395.5,477.833 395.5,482.5C 394.167,482.5 392.833,482.5 391.5,482.5C 391.419,473.316 390.753,473.316 389.5,482.5C 388.167,482.5 386.833,482.5 385.5,482.5C 385.425,479.794 385.092,477.127 384.5,474.5C 384.44,473.957 384.107,473.624 383.5,473.5C 382.833,476.167 382.167,478.833 381.5,481.5C 380.508,477.217 380.174,472.884 380.5,468.5 Z"/></g>
<g><path style="opacity:1" fill="#676768" d="M 380.5,468.5 C 380.174,472.884 380.508,477.217 381.5,481.5C 382.167,478.833 382.833,476.167 383.5,473.5C 384.107,473.624 384.44,473.957 384.5,474.5C 383.527,476.948 383.194,479.615 383.5,482.5C 382.167,482.5 380.833,482.5 379.5,482.5C 379.181,477.637 379.514,472.97 380.5,468.5 Z"/></g>
</svg>