<svg xmlns:inkscape="http://www.inkscape.org/namespaces/inkscape" xmlns:sodipodi="http://sodipodi.sourceforge.net/DTD/sodipodi-0.dtd" xmlns="http://www.w3.org/2000/svg" xmlns:svg="http://www.w3.org/2000/svg" version="1.1" id="svg1" sodipodi:docname="ab094904-2e4e-4fe0-a831-303529ab29f5.ai" viewBox="-473.8 -255.24 1105.8 702.26">
  <defs id="defs1">
    <clipPath clipPathUnits="userSpaceOnUse" id="clipPath2">
      <path d="M 0,400 H 560 V 0 H 0 Z" transform="translate(-473.80271,-177.0664)" id="path2"/>
    </clipPath>
    <clipPath clipPathUnits="userSpaceOnUse" id="clipPath4">
      <path d="M 0,400 H 560 V 0 H 0 Z" transform="translate(-388.12501,-212.3042)" id="path4"/>
    </clipPath>
    <clipPath clipPathUnits="userSpaceOnUse" id="clipPath6">
      <path d="M 0,400 H 560 V 0 H 0 Z" transform="translate(-288.46581,-255.23831)" id="path6"/>
    </clipPath>
    <clipPath clipPathUnits="userSpaceOnUse" id="clipPath8">
      <path d="M 0,400 H 560 V 0 H 0 Z" transform="translate(-336.21581,-227.01271)" id="path8"/>
    </clipPath>
  </defs>
  <sodipodi:namedview id="namedview1" pagecolor="#ffffff" bordercolor="#000000" borderopacity="0.25" inkscape:showpageshadow="2" inkscape:pageopacity="0.0" inkscape:pagecheckerboard="0" inkscape:deskcolor="#d1d1d1">
    <inkscape:page x="0" y="0" inkscape:label="1" id="page1" width="746.66669" height="533.33331" margin="86.315735 114.66666 86.317337 114.66814" bleed="0"/>
  </sodipodi:namedview>
  <g id="layer-MC0" inkscape:groupmode="layer" inkscape:label="katman 1">
    <path id="path1" d="m 0,0 c -1.412,22.931 -15.105,46.328 -49.334,56.087 -0.404,0.461 -1.153,1.236 -2.147,1.991 2.82,25.046 -11.192,48.702 -28.903,65.253 -19.678,18.385 -49.911,32.151 -79.33,33.34 11.327,-6.098 31.236,-19.742 37.297,-29.325 -31.646,24.51 -74.118,34.214 -113.496,29.828 -31.319,-3.491 -65.8,-19.71 -78.291,-52.563 32.11,22.731 74.431,32.079 111.409,23.525 31.932,-7.396 60.498,-27.598 76.928,-56.13 0,0 -2.489,0.747 -3.945,1.86 -22.228,16.934 -41.738,30.444 -68.055,30.065 -20.2,-0.292 -42.866,-12.939 -49.588,-33.771 8.638,3.395 20.922,5.39 30.163,5.239 -0.143,-2.781 -0.243,-5.593 -0.1,-8.374 -23.292,-0.188 -80.488,-2.259 -115.299,-35.765 9.049,1.795 22.946,2.654 31.624,2.405 -30.783,-12.608 -71.633,-37.978 -83.389,-77.354 8.348,6.322 31.794,16.897 44.658,21.489 -14.994,-14.696 -40.572,-48.206 -48.004,-90.129 43.233,58.978 110.2,86.517 156.311,96.537 -4.545,6.037 -12.373,12.62 -20.44,17.537 14.438,4.097 31.834,5.002 46.764,3.739 -0.96,5.501 -4.995,14.57 -10.653,19.848 19.631,1.469 37.138,-8.462 55.839,-12.399 17.116,-3.616 35.038,-1.472 49.049,9.644 7.139,1.06 14.776,1.455 21.88,-0.026 5.612,-12.97 26.099,-6.582 23.989,7.199 -2.144,14.04 -20.58,14.511 -30.914,10.836 1.741,3.207 3.088,6.356 4.155,9.272 21.082,-1.205 44.134,-4.17 57.131,-22.791 15.279,-21.863 11.957,-53.096 -4.377,-73.373 -24.515,32.19 -72.381,34.971 -108.773,26.884 3.695,7.063 14.99,18.996 21.921,23.713 -20.204,0.634 -39.847,-4.605 -55.637,-17.68 -19.04,-15.764 -27.08,-41.247 -11.939,-66.5 1.697,8.515 7.917,25.148 14.816,34.737 0,0 0.542,-6.053 1.575,-11.169 25.092,10.605 56.536,17.904 83.053,10.893 19.559,-5.171 41.051,-18.524 43.582,-41.771 C -14.803,-75.057 2.231,-34.611 0.004,0" style="fill:#babcbe;fill-opacity:1;fill-rule:nonzero;stroke:none" transform="matrix(1.3333333,0,0,-1.3333333,631.73693,297.2448)" clip-path="url(#clipPath2)"/>
    <path id="path3" d="m 0,0 c -4.317,-0.064 -9.23,-1.2 -13.33,-4.504 0,0 8.934,0.61 16.381,-2.581 0,0 -0.845,-3.73 2.972,-5.198 2.957,-1.13 5.633,0.005 6.775,2.475 1.221,2.693 0.813,5.658 -3.067,7.884 C 8.011,-0.943 4.303,0.064 0,0 m 44.011,10.137 c 14.128,-11.464 22.402,-28.25 23.717,-41.776 2.722,-28.16 -9.777,-51.05 -22.278,-61.564 -20.59,38.441 -81.763,40.631 -119.56,27.646 4.521,18.587 17.303,27.692 17.303,27.692 -26.221,-3.427 -57.168,-30.852 -51.3,-56.245 0,0 6.602,22.639 25.204,32.37 -2.16,-5.444 -3.223,-11.922 -2.472,-19.603 76.88,29.633 119.67,-8.042 125.662,-30.853 25.642,11.985 40.051,46.498 38.11,76.506 -1.33,20.522 -13.063,37.831 -34.386,45.827 M -134.83,115.588 c -34.905,-0.497 -61.384,-13.039 -75.938,-28.002 55.258,31.776 146.53,18.116 181.703,-56.322 -4.194,-4.329 -14.582,-2.295 -19.62,1.671 -46.747,36.64 -74.564,35.7 -101.058,11.805 0,0 11.177,3.435 26.932,2.567 -1.173,-3.647 -1.815,-7.517 -1.815,-11.551 0,-3.93 0.61,-7.729 1.737,-11.304 -17.492,0.348 -70.583,-0.314 -100.958,-19.602 0,0 21.161,2.32 43.688,-2.735 0,0 -71.809,-14.883 -104.33,-64.715 27.178,15.989 62.613,20.245 62.613,20.245 0,0 -41.848,-19.979 -64.478,-76.725 0,0 42.022,52.803 126.288,72.204 0,0 -7.136,6.805 -24.233,14.658 28.845,12.626 53.821,10.59 53.821,10.59 0,0 -3.817,9.272 -18.156,14.318 0,0 14.793,9.126 42.391,2.412 19.979,-4.855 43.072,-19.067 66.695,-8.055 18.164,8.478 25.173,24.55 28.161,35.151 10.373,-0.327 26.269,-1.761 42.775,-6.748 0,0 -1.721,1.737 -5.084,4.212 7.055,34.908 -26.614,74.364 -76.491,92.72 25.581,-16.21 41.757,-37.778 42.493,-64.132 -9.34,19.71 -40.036,47.915 -65.85,56.823 -22.404,7.73 -42.993,10.777 -61.283,10.515 z" style="fill:#031b49;fill-opacity:1;fill-rule:nonzero;stroke:none" transform="matrix(1.3333333,0,0,-1.3333333,517.5,250.26107)" clip-path="url(#clipPath4)"/>
    <path id="path5" d="m 0,0 c -1.549,-4.125 -2.425,-8.596 -2.425,-13.259 0,-20.943 16.99,-37.915 37.94,-37.915 13.719,0 25.735,7.297 32.416,18.22 -5.821,-1.683 -10.67,-1.431 -15.16,0.116 -2.41,-5.557 -8.871,-9.548 -16.521,-9.548 -9.685,0 -17.554,6.408 -17.554,14.315 0,1.616 0.344,3.16 0.939,4.606 1.111,-0.468 2.315,-0.727 3.567,-0.727 3.864,0 7.15,2.431 8.448,5.841 C 23.608,-11.782 13.94,-4.622 0,0 m 108.562,11.6 c 0.626,-5.044 0.641,-12.104 -1.158,-19.601 2.441,0.072 4.506,1.505 5.523,3.575 0.719,-0.762 1.392,-1.578 1.908,-2.544 1.628,-3.041 1.8,-6.562 0.751,-9.928 1.143,-0.611 2.253,-1.194 3.286,-1.776 3.207,11.515 -2.44,23.203 -10.31,30.274" style="fill:#ffffff;fill-opacity:1;fill-rule:nonzero;stroke:none" transform="matrix(1.3333333,0,0,-1.3333333,384.62107,193.0156)" clip-path="url(#clipPath6)"/>
    <path id="path7" d="m 0,0 c -2.504,-3.017 -6.759,-5.018 -11.547,-5.018 -4.756,0 -8.933,1.947 -11.436,4.919 0.156,-5.078 5.225,-9.166 11.483,-9.166 6.29,0 11.391,4.138 11.5,9.265 m 65.896,17.942 c -1.533,-1.424 -3.52,-2.491 -5.757,-3.076 1.189,-0.475 2.331,-0.965 3.411,-1.452 1.22,1.241 2.065,2.788 2.346,4.528" style="fill:#babcbe;fill-opacity:1;fill-rule:nonzero;stroke:none" transform="matrix(1.3333333,0,0,-1.3333333,448.28773,230.64973)" clip-path="url(#clipPath8)"/>
  </g>
</svg>