<svg xmlns="http://www.w3.org/2000/svg" xmlns:xlink="http://www.w3.org/1999/xlink" version="1.1" style="shape-rendering:geometricPrecision; text-rendering:geometricPrecision; image-rendering:optimizeQuality; fill-rule:evenodd; clip-rule:evenodd" viewBox="-0.5 -0.5 300 256">
<g><path style="opacity:0.963" fill="#316c56" d="M 12.5,-0.5 C 27.5,-0.5 42.5,-0.5 57.5,-0.5C 64.9324,1.6593 69.099,6.6593 70,14.5C 70.6667,41.1667 70.6667,67.8333 70,94.5C 69.6481,96.2475 69.1481,97.9142 68.5,99.5C 64.0812,101.064 59.5812,102.397 55,103.5C 52.2476,102.394 49.4143,101.894 46.5,102C 44.8757,103.117 43.8757,104.617 43.5,106.5C 44.5654,110.291 45.8987,113.958 47.5,117.5C 34.2394,123.382 21.0727,129.382 8,135.5C 5.51844,134.002 3.01844,132.502 0.5,131C 1.28711,129.687 0.953781,128.52 -0.5,127.5C -0.5,89.5 -0.5,51.5 -0.5,13.5C 0.507582,10.4737 1.84092,7.47371 3.5,4.5C 6.43302,2.53756 9.43302,0.870892 12.5,-0.5 Z M 32.5,20.5 C 34.7224,20.178 36.5557,20.8446 38,22.5C 38.6667,47.1667 38.6667,71.8333 38,96.5C 37.119,99.885 34.9523,101.552 31.5,101.5C 30.3617,76.5302 30.195,51.5302 31,26.5C 31.3153,24.4144 31.8153,22.4144 32.5,20.5 Z"/></g>
<g><path style="opacity:0.945" fill="#316c56" d="M 82.5,-0.5 C 93.1667,-0.5 103.833,-0.5 114.5,-0.5C 114.5,11.5 114.5,23.5 114.5,35.5C 117.167,35.5 119.833,35.5 122.5,35.5C 122.5,23.5 122.5,11.5 122.5,-0.5C 133.167,-0.5 143.833,-0.5 154.5,-0.5C 154.5,29.5 154.5,59.5 154.5,89.5C 144.037,92.0922 133.37,93.0922 122.5,92.5C 122.5,79.1667 122.5,65.8333 122.5,52.5C 119.794,52.5751 117.127,52.9084 114.5,53.5C 114.5,67.1667 114.5,80.8333 114.5,94.5C 111.071,96.6999 107.238,98.0332 103,98.5C 96.1942,97.6389 89.3609,97.3056 82.5,97.5C 82.5,64.8333 82.5,32.1667 82.5,-0.5 Z"/></g>
<g><path style="opacity:0.917" fill="#316c56" d="M 168.5,-0.5 C 179.167,-0.5 189.833,-0.5 200.5,-0.5C 200.5,30.8333 200.5,62.1667 200.5,93.5C 192.166,92.2367 183.832,92.2367 175.5,93.5C 172.824,93.0606 170.491,92.0606 168.5,90.5C 167.167,60.1667 167.167,29.8333 168.5,-0.5 Z"/></g>
<g><path style="opacity:0.943" fill="#316c56" d="M 226.5,-0.5 C 241.167,-0.5 255.833,-0.5 270.5,-0.5C 276.88,2.05332 281.046,6.71998 283,13.5C 284.56,47.4824 284.894,81.4824 284,115.5C 284.39,134.58 276.39,138.914 260,128.5C 248.578,123.098 236.411,117.431 223.5,111.5C 224.391,109.391 225.558,107.391 227,105.5C 227.667,103.167 227.667,100.833 227,98.5C 222.399,97.858 217.899,97.1913 213.5,96.5C 212.811,69.1118 212.144,41.9451 211.5,15C 213.291,6.70934 218.291,1.54267 226.5,-0.5 Z M 245.5,20.5 C 247.467,20.2606 249.301,20.5939 251,21.5C 251.5,48.1646 251.667,74.8313 251.5,101.5C 247.893,101.621 245.727,99.9548 245,96.5C 244.186,71.1241 244.352,45.7908 245.5,20.5 Z"/></g>
<g><path style="opacity:0.879" fill="#f5f5f5" d="M 154.5,89.5 C 159.23,89.2834 163.897,89.6167 168.5,90.5C 170.491,92.0606 172.824,93.0606 175.5,93.5C 183.832,92.2367 192.166,92.2367 200.5,93.5C 204.793,94.6564 209.126,95.6564 213.5,96.5C 217.899,97.1913 222.399,97.858 227,98.5C 227.667,100.833 227.667,103.167 227,105.5C 225.558,107.391 224.391,109.391 223.5,111.5C 218.879,115.483 213.879,118.983 208.5,122C 218.668,131.166 225.668,142.333 229.5,155.5C 229.144,158.688 227.477,160.855 224.5,162C 245.912,165.435 266.245,172.102 285.5,182C 288.361,183.832 290.861,185.999 293,188.5C 293.855,191.956 292.689,194.456 289.5,196C 293,198.669 296.333,201.502 299.5,204.5C 299.5,207.167 299.5,209.833 299.5,212.5C 297.399,214.109 295.065,214.609 292.5,214C 284.699,209.854 276.699,206.521 268.5,204C 274.291,208.122 279.791,212.622 285,217.5C 286.471,222.371 284.805,225.704 280,227.5C 263.506,216.337 245.673,208.003 226.5,202.5C 226.458,216.799 221.792,229.299 212.5,240C 210.167,240.667 207.833,240.667 205.5,240C 200.684,234.017 195.351,228.517 189.5,223.5C 187.343,229.495 183.51,234.162 178,237.5C 177.024,245.304 172.858,250.471 165.5,253C 143.278,257.27 126.444,249.77 115,230.5C 107.49,237.524 101.99,245.857 98.5,255.5C 95.1667,255.5 91.8333,255.5 88.5,255.5C 73.1474,246.371 65.3141,233.038 65,215.5C 54.0971,220.699 43.5971,226.533 33.5,233C 26.9065,232.752 24.7398,229.586 27,223.5C 33.2825,216.211 40.4492,210.044 48.5,205C 46.4473,204.675 44.4473,205.009 42.5,206C 34.9172,209.043 27.4172,212.21 20,215.5C 15.454,212.761 14.454,209.095 17,204.5C 19.1667,202.333 21.3333,200.167 23.5,198C 21.5561,195.847 21.0561,193.347 22,190.5C 26.6715,185.498 32.1715,181.665 38.5,179C 45.213,176.659 51.8797,174.326 58.5,172C 54.1744,173.445 50.5078,172.445 47.5,169C 51.6393,152.729 59.306,138.063 70.5,125C 63.1564,121.608 55.4897,119.108 47.5,117.5C 45.8987,113.958 44.5654,110.291 43.5,106.5C 43.8757,104.617 44.8757,103.117 46.5,102C 49.4143,101.894 52.2476,102.394 55,103.5C 59.5812,102.397 64.0812,101.064 68.5,99.5C 73.0611,98.1885 77.7277,97.5219 82.5,97.5C 89.3609,97.3056 96.1942,97.6389 103,98.5C 107.238,98.0332 111.071,96.6999 114.5,94.5C 117.067,93.525 119.733,92.8583 122.5,92.5C 133.37,93.0922 144.037,92.0922 154.5,89.5 Z"/></g>
<g><path style="opacity:1" fill="#0d0c0c" d="M 207.5,101.5 C 212.5,102.167 217.5,102.833 222.5,103.5C 215.369,110.227 207.702,116.227 199.5,121.5C 210.38,130.259 218.046,141.259 222.5,154.5C 219.933,154.145 217.433,153.479 215,152.5C 214.5,152.833 214,153.167 213.5,153.5C 216.308,158.285 218.975,163.118 221.5,168C 237.155,170.747 252.489,174.747 267.5,180C 274.276,182.554 280.609,185.887 286.5,190C 274.498,186.997 262.498,183.664 250.5,180C 242.89,178.398 235.223,177.231 227.5,176.5C 220.597,175.101 213.597,175.268 206.5,177C 207.793,177.49 209.127,177.657 210.5,177.5C 235.952,179.698 259.952,186.864 282.5,199C 286.344,201.422 290.01,204.089 293.5,207C 279.924,200.914 265.924,195.58 251.5,191C 239.065,187.427 226.398,185.261 213.5,184.5C 211.372,183.371 209.039,183.204 206.5,184C 208.154,184.608 209.821,185.108 211.5,185.5C 230.121,190.476 247.454,198.143 263.5,208.5C 263.158,209.338 262.492,209.672 261.5,209.5C 248.789,203.041 235.455,198.374 221.5,195.5C 220.791,194.596 219.791,194.263 218.5,194.5C 218.263,195.791 218.596,196.791 219.5,197.5C 220.718,208.313 218.884,218.646 214,228.5C 212.71,230.792 211.043,232.792 209,234.5C 204.133,229.968 199.633,225.134 195.5,220C 191.898,216.559 187.898,213.725 183.5,211.5C 182.698,210.115 182.031,210.282 181.5,212C 181.57,212.765 181.903,213.265 182.5,213.5C 184.993,222.847 181.827,229.513 173,233.5C 171.388,244.443 165.054,249.443 154,248.5C 142.59,248.588 133.257,244.255 126,235.5C 123.236,230.962 120.236,226.629 117,222.5C 106.137,228.526 98.8032,237.526 95,249.5C 94.4387,250.022 93.772,250.355 93,250.5C 82.3212,245.477 75.6545,237.144 73,225.5C 71.7614,219.565 71.2614,213.565 71.5,207.5C 67.6754,208.074 64.0087,209.241 60.5,211C 51.4791,216.008 42.4791,220.674 33.5,225C 43.2557,214.283 54.9223,206.283 68.5,201C 82.7926,195.577 97.4593,191.744 112.5,189.5C 114.429,189.769 116.095,189.269 117.5,188C 113.311,187.188 109.311,187.355 105.5,188.5C 101.766,188.323 98.0991,188.656 94.5,189.5C 89.2502,189.302 84.2502,189.969 79.5,191.5C 61.1243,193.511 43.4576,198.177 26.5,205.5C 25.8333,205.5 25.5,205.167 25.5,204.5C 34.6907,197.238 45.024,192.071 56.5,189C 73.5488,184.493 90.8821,181.993 108.5,181.5C 114.842,181.666 121.175,181.5 127.5,181C 125.26,180.023 122.927,179.523 120.5,179.5C 94.1506,178.574 68.1506,181.074 42.5,187C 24.2342,194.581 23.9009,193.581 41.5,184C 48.1157,181.645 54.7824,179.478 61.5,177.5C 65.8023,171.064 70.469,164.898 75.5,159C 68.171,159.89 61.3376,162.39 55,166.5C 54.5162,164.087 54.8495,161.754 56,159.5C 62.2486,146.659 69.7486,134.659 78.5,123.5C 77.0758,121.282 75.0758,119.782 72.5,119C 65.9591,116.598 59.2924,114.598 52.5,113C 46.764,107.695 47.264,106.529 54,109.5C 67.6948,104.228 81.8614,102.061 96.5,103C 99,103.5 101.5,104 104,104.5C 110.218,101.538 116.718,99.3717 123.5,98C 134.565,97.7831 145.565,96.9498 156.5,95.5C 162.964,95.6997 169.297,96.6997 175.5,98.5C 186.474,96.5863 197.141,97.5863 207.5,101.5 Z"/></g>
<g><path style="opacity:1" fill="#dbccb3" d="M 123.5,163.5 C 127.5,164.167 131.5,164.833 135.5,165.5C 133.996,167.836 131.996,169.669 129.5,171C 116.5,171.333 103.5,171.667 90.5,172C 85.2739,172.466 80.1072,173.299 75,174.5C 74.1667,174.167 73.3333,173.833 72.5,173.5C 78.8063,164.528 86.1396,156.528 94.5,149.5C 95.0431,149.44 95.3764,149.107 95.5,148.5C 91.0162,147.189 86.6829,147.189 82.5,148.5C 77.3461,148.705 72.3461,149.705 67.5,151.5C 67.1667,151.167 66.8333,150.833 66.5,150.5C 68.4674,146.703 70.6341,143.036 73,139.5C 78.5138,132.656 84.0138,125.822 89.5,119C 84.4961,114.654 78.6628,111.821 72,110.5C 98.7433,103.445 121.077,111.778 139,135.5C 139.667,134.5 139.667,133.5 139,132.5C 132.783,121.949 124.283,113.783 113.5,108C 118.777,103.354 124.944,101.52 132,102.5C 144.804,101.736 155.138,106.403 163,116.5C 166.779,121.723 169.779,127.39 172,133.5C 173.033,128.106 172.033,123.106 169,118.5C 164.167,111 158,104.833 150.5,100C 158.357,98.4137 165.523,99.9137 172,104.5C 184.445,101.639 196.778,101.973 209,105.5C 210.257,105.85 210.591,106.517 210,107.5C 208.833,108.667 207.667,109.833 206.5,111C 200.282,114.127 193.949,116.96 187.5,119.5C 200.474,125.141 209.808,134.474 215.5,147.5C 212.998,147.621 210.332,147.788 207.5,148C 210.82,152.771 212.154,157.937 211.5,163.5C 209.449,161.28 207.116,160.614 204.5,161.5C 206.287,163.858 207.287,166.525 207.5,169.5C 203.501,170.338 199.501,170.838 195.5,171C 191.712,164.44 186.046,160.94 178.5,160.5C 178.5,159.167 178.5,157.833 178.5,156.5C 188.971,152.903 193.304,145.569 191.5,134.5C 184.823,137.837 177.823,140.17 170.5,141.5C 172.731,149.675 174.064,158.008 174.5,166.5C 168.853,167.48 163.186,167.98 157.5,168C 153.926,163.797 149.426,161.297 144,160.5C 142.526,156.578 141.359,152.578 140.5,148.5C 135.333,148.167 130.167,147.833 125,147.5C 117.766,147.033 110.6,147.033 103.5,147.5C 106.309,151.477 109.309,155.31 112.5,159C 115.726,161.575 119.393,163.075 123.5,163.5 Z"/></g>
<g><path style="opacity:1" fill="#b2b2b2" d="M 207.5,101.5 C 212.875,101.172 218.208,101.505 223.5,102.5C 223.376,103.107 223.043,103.44 222.5,103.5C 217.5,102.833 212.5,102.167 207.5,101.5 Z"/></g>
<g><path style="opacity:1" fill="#e1e1e1" d="M 178.5,143.5 C 181.33,146.66 180.663,149.326 176.5,151.5C 175.347,148.447 176.013,145.78 178.5,143.5 Z"/></g>
<g><path style="opacity:1" fill="#6a6356" d="M 82.5,148.5 C 86.6829,147.189 91.0162,147.189 95.5,148.5C 95.3764,149.107 95.0431,149.44 94.5,149.5C 90.7016,148.517 86.7016,148.183 82.5,148.5 Z"/></g>
<g><path style="opacity:1" fill="#d3d3d3" d="M 123.5,153.5 C 127.641,152.901 130.974,154.568 133.5,158.5C 132.277,159.614 130.944,159.781 129.5,159C 126.977,157.64 124.977,155.807 123.5,153.5 Z"/></g>
<g><path style="opacity:1" fill="#9e9380" d="M 123.5,163.5 C 127.884,163.174 132.217,163.508 136.5,164.5C 136.376,165.107 136.043,165.44 135.5,165.5C 131.5,164.833 127.5,164.167 123.5,163.5 Z"/></g>
<g><path style="opacity:1" fill="#d6c7ae" d="M 142.5,164.5 C 151.229,165.055 156.395,169.722 158,178.5C 160.488,180.743 163.154,182.743 166,184.5C 166.667,185.833 166.667,187.167 166,188.5C 156.873,191.319 147.706,194.153 138.5,197C 133.95,198.338 130.283,197.171 127.5,193.5C 132.679,191.899 138.012,191.066 143.5,191C 144.042,188.745 145.209,186.912 147,185.5C 147.72,183.888 147.554,182.388 146.5,181C 142.346,179.139 138.013,177.806 133.5,177C 133.043,176.586 132.709,176.086 132.5,175.5C 135.174,171.163 138.507,167.496 142.5,164.5 Z"/></g>
<g><path style="opacity:1" fill="#d7c8af" d="M 176.5,161.5 C 183.351,164.514 188.851,169.18 193,175.5C 194.412,193.925 186.912,198.925 170.5,190.5C 168.786,187.225 169.619,184.892 173,183.5C 175.248,180.672 177.248,177.672 179,174.5C 179.667,172.5 179.667,170.5 179,168.5C 177.097,166.559 176.264,164.226 176.5,161.5 Z"/></g>
<g><path style="opacity:1" fill="#656565" d="M 227.5,176.5 C 221.642,176.178 215.975,176.511 210.5,177.5C 209.127,177.657 207.793,177.49 206.5,177C 213.597,175.268 220.597,175.101 227.5,176.5 Z"/></g>
<g><path style="opacity:1" fill="#b2b2b2" d="M 120.5,179.5 C 122.927,179.523 125.26,180.023 127.5,181C 121.175,181.5 114.842,181.666 108.5,181.5C 112.5,180.833 116.5,180.167 120.5,179.5 Z"/></g>
<g><path style="opacity:1" fill="#999999" d="M 213.5,184.5 C 212.508,184.328 211.842,184.662 211.5,185.5C 209.821,185.108 208.154,184.608 206.5,184C 209.039,183.204 211.372,183.371 213.5,184.5 Z"/></g>
<g><path style="opacity:1" fill="#616161" d="M 105.5,188.5 C 109.311,187.355 113.311,187.188 117.5,188C 116.095,189.269 114.429,189.769 112.5,189.5C 110.393,188.532 108.059,188.198 105.5,188.5 Z"/></g>
<g><path style="opacity:1" fill="#bdbdbd" d="M 94.5,189.5 C 89.7312,190.889 84.7312,191.556 79.5,191.5C 84.2502,189.969 89.2502,189.302 94.5,189.5 Z"/></g>
<g><path style="opacity:1" fill="#e9e9e9" d="M 161.5,192.5 C 164.187,192.336 166.854,192.503 169.5,193C 173.422,194.798 177.422,196.298 181.5,197.5C 181.908,200.599 180.741,202.933 178,204.5C 177.55,202.481 176.717,200.648 175.5,199C 168.144,198.169 160.811,198.335 153.5,199.5C 151.914,201.173 151.247,203.173 151.5,205.5C 147.274,205.049 145.441,202.716 146,198.5C 151.397,196.877 156.564,194.877 161.5,192.5 Z"/></g>
<g><path style="opacity:1" fill="#777777" d="M 221.5,195.5 C 220.167,195.5 219.5,196.167 219.5,197.5C 218.596,196.791 218.263,195.791 218.5,194.5C 219.791,194.263 220.791,194.596 221.5,195.5 Z"/></g>
<g><path style="opacity:1" fill="#d3c5ac" d="M 116.5,194.5 C 118.924,194.192 121.257,194.526 123.5,195.5C 129.379,203.106 132.212,211.773 132,221.5C 132.92,225.263 134.42,228.763 136.5,232C 139.544,233.923 142.877,234.756 146.5,234.5C 154.445,233.065 162.445,232.065 170.5,231.5C 170.225,236.228 167.892,239.394 163.5,241C 139.672,245.871 126.505,236.038 124,211.5C 123.02,213.059 122.187,214.726 121.5,216.5C 116.665,212.175 113.331,206.841 111.5,200.5C 107.793,204.044 104.626,208.044 102,212.5C 100.95,207.552 100.45,202.552 100.5,197.5C 106.097,197.23 111.43,196.23 116.5,194.5 Z"/></g>
<g><path style="opacity:1" fill="#a29784" d="M 93.5,202.5 C 93.5299,201.503 93.0299,200.836 92,200.5C 89.2764,201.687 86.4431,202.353 83.5,202.5C 86.7994,200.517 90.4661,199.517 94.5,199.5C 94.7373,200.791 94.404,201.791 93.5,202.5 Z"/></g>
<g><path style="opacity:1" fill="#d9cab1" d="M 93.5,202.5 C 91.3474,208.812 89.1808,215.146 87,221.5C 82.6818,216.214 80.6818,210.214 81,203.5C 81.6708,202.748 82.5041,202.414 83.5,202.5C 86.4431,202.353 89.2764,201.687 92,200.5C 93.0299,200.836 93.5299,201.503 93.5,202.5 Z"/></g>
<g><path style="opacity:1" fill="#505050" d="M 25.5,204.5 C 25.5,205.167 25.8333,205.5 26.5,205.5C 25.1252,207.07 23.4585,207.903 21.5,208C 22.7051,206.624 24.0384,205.458 25.5,204.5 Z"/></g>
<g><path style="opacity:1" fill="#666666" d="M 183.5,211.5 C 182.662,211.842 182.328,212.508 182.5,213.5C 181.903,213.265 181.57,212.765 181.5,212C 182.031,210.282 182.698,210.115 183.5,211.5 Z"/></g>
<g><path style="opacity:1" fill="#30302f" d="M 263.5,208.5 C 267.898,210.725 271.898,213.559 275.5,217C 270.53,215.228 265.864,212.728 261.5,209.5C 262.492,209.672 263.158,209.338 263.5,208.5 Z"/></g>
<g><path style="opacity:1" fill="#f0f0f0" d="M 171.5,211.5 C 174.586,212.654 175.919,214.988 175.5,218.5C 175.881,221.325 174.881,223.491 172.5,225C 164.094,223.927 155.761,224.427 147.5,226.5C 144.822,225.825 142.156,225.158 139.5,224.5C 139.078,220.278 139.745,216.278 141.5,212.5C 142.86,215.228 144.693,217.561 147,219.5C 148.584,219.012 149.751,218.012 150.5,216.5C 152.048,218.922 153.714,218.922 155.5,216.5C 156.167,217.167 156.833,217.833 157.5,218.5C 158.833,217.5 160.167,216.5 161.5,215.5C 162.386,216.325 162.719,217.325 162.5,218.5C 168.188,219.469 171.188,217.136 171.5,211.5 Z"/></g>
</svg>