<svg xmlns="http://www.w3.org/2000/svg" xmlns:xlink="http://www.w3.org/1999/xlink" version="1.1" style="shape-rendering:geometricPrecision; text-rendering:geometricPrecision; image-rendering:optimizeQuality; fill-rule:evenodd; clip-rule:evenodd" viewBox="4.44 4.33 580.13 564.23">
<g><path style="opacity:1" fill="#bcbcc0" d="M 4.5,4.5 C 87.8532,4.02783 171.187,4.52783 254.5,6C 293.566,11.2561 323.4,30.4227 344,63.5C 360.615,99.144 360.615,134.811 344,170.5C 327.398,198.071 303.232,215.238 271.5,222C 262.597,223.986 253.597,225.319 244.5,226C 222.503,226.5 200.503,226.667 178.5,226.5C 178.5,229.833 178.5,233.167 178.5,236.5C 211.833,236.5 245.167,236.5 278.5,236.5C 278.667,258.169 278.5,279.836 278,301.5C 276.692,310.615 272.859,318.448 266.5,325C 271.976,335.453 277.31,345.953 282.5,356.5C 288.706,344.587 295.039,332.754 301.5,321C 297.647,315.781 295.147,309.948 294,303.5C 293.5,281.169 293.333,258.836 293.5,236.5C 341.167,236.5 388.833,236.5 436.5,236.5C 436.667,258.503 436.5,280.503 436,302.5C 432.822,319.35 423.322,331.184 407.5,338C 404.4,340.919 402.4,344.419 401.5,348.5C 415.14,346.934 426.473,351.267 435.5,361.5C 441.13,355.037 448.13,350.871 456.5,349C 487.832,348.5 519.165,348.333 550.5,348.5C 550.667,366.17 550.5,383.836 550,401.5C 548.963,407.406 546.463,412.573 542.5,417C 549.462,431.758 556.295,446.592 563,461.5C 575.251,468.745 582.251,479.412 584,493.5C 584.5,509.497 584.667,525.497 584.5,541.5C 490.833,541.333 397.166,541.5 303.5,542C 290.43,567.036 270.763,574.369 244.5,564C 235.769,558.534 229.102,551.201 224.5,542C 158.501,541.5 92.5008,541.333 26.5,541.5C 26.3334,524.497 26.5001,507.497 27,490.5C 27.873,484.752 29.873,479.419 33,474.5C 37.4094,469.42 42.4094,465.086 48,461.5C 55.3722,446.589 62.8722,431.756 70.5,417C 66.4973,411.826 63.9973,405.993 63,399.5C 62.5001,382.503 62.3334,365.503 62.5,348.5C 85.5,348.5 108.5,348.5 131.5,348.5C 130.35,344.657 128.683,340.99 126.5,337.5C 88.5058,336.5 50.5058,336.167 12.5,336.5C 11.4561,317.179 11.2894,297.846 12,278.5C 14.286,262.932 22.286,251.265 36,243.5C 36.5,195.501 36.6667,147.501 36.5,99.5C 18.8457,94.3425 8.34569,82.6758 5,64.5C 4.50005,44.5028 4.33338,24.5028 4.5,4.5 Z M 178.5,105.5 C 191.171,105.333 203.838,105.5 216.5,106C 226.192,108.219 228.692,113.719 224,122.5C 221.696,124.068 219.196,125.235 216.5,126C 203.838,126.5 191.171,126.667 178.5,126.5C 178.5,119.5 178.5,112.5 178.5,105.5 Z"/></g>
<g><path style="opacity:1" fill="#8a77a4" d="M 216.5,215.5 C 200.167,215.5 183.833,215.5 167.5,215.5C 167.5,226.167 167.5,236.833 167.5,247.5C 167.167,247.5 166.833,247.5 166.5,247.5C 166.5,236.5 166.5,225.5 166.5,214.5C 183.342,214.17 200.008,214.503 216.5,215.5 Z"/></g>
<g><path style="opacity:1" fill="#4f2683" d="M 242.5,16.5 C 280.604,18.1281 310.437,34.4614 332,65.5C 350.117,100.621 349.784,135.621 331,170.5C 315.363,192.416 294.197,205.916 267.5,211C 250.682,214.46 233.682,215.96 216.5,215.5C 200.008,214.503 183.342,214.17 166.5,214.5C 166.5,225.5 166.5,236.5 166.5,247.5C 199.662,248.498 232.996,248.832 266.5,248.5C 266.5,265.833 266.5,283.167 266.5,300.5C 264.74,309.353 260.407,316.687 253.5,322.5C 262.432,342.357 272.098,361.691 282.5,380.5C 293.301,360.397 303.968,340.23 314.5,320C 309.745,314.322 306.745,307.822 305.5,300.5C 305.5,283.167 305.5,265.833 305.5,248.5C 345.167,248.5 384.833,248.5 424.5,248.5C 424.5,265.833 424.5,283.167 424.5,300.5C 423.723,309.449 419.723,316.616 412.5,322C 407.06,325.109 401.893,328.609 397,332.5C 391.913,341.005 387.08,349.672 382.5,358.5C 392.149,359.332 401.816,359.832 411.5,360C 419.279,361.447 425.113,365.613 429,372.5C 430.61,377.331 432.61,381.997 435,386.5C 438.255,380.992 441.255,375.325 444,369.5C 447.227,365.093 451.394,362.093 456.5,360.5C 483.833,360.5 511.167,360.5 538.5,360.5C 538.5,373.5 538.5,386.5 538.5,399.5C 538.174,402.311 537.341,404.978 536,407.5C 533.447,409.716 531.28,412.216 529.5,415C 537.863,433.56 546.363,452.06 555,470.5C 563.06,474.227 568.727,480.227 572,488.5C 572.5,502.496 572.667,516.496 572.5,530.5C 480.499,530.333 388.499,530.5 296.5,531C 292.879,539.573 287.546,546.907 280.5,553C 265.586,560.788 252.419,558.621 241,546.5C 237.555,541.268 234.389,535.935 231.5,530.5C 167.335,529.501 103.002,529.168 38.5,529.5C 38.5,516.5 38.5,503.5 38.5,490.5C 41.257,481.237 47.0903,474.57 56,470.5C 65.3025,452.062 74.4692,433.562 83.5,415C 81.3475,412.178 79.1808,409.344 77,406.5C 75.2503,403.754 74.2503,400.754 74,397.5C 73.5001,384.838 73.3334,372.171 73.5,359.5C 98.8421,359.833 124.175,359.5 149.5,358.5C 144.741,347.146 139.074,336.313 132.5,326C 96.1682,325.5 59.8349,325.333 23.5,325.5C 23.3334,308.497 23.5001,291.497 24,274.5C 28.5545,263.778 36.0545,255.778 46.5,250.5C 47.6666,198.17 47.8333,145.837 47,93.5C 42.8974,90.5732 38.3974,88.4065 33.5,87C 23.4847,81.7884 17.818,73.6217 16.5,62.5C 16.5,47.1667 16.5,31.8333 16.5,16.5C 91.8333,16.5 167.167,16.5 242.5,16.5 Z M 178.5,105.5 C 178.5,112.5 178.5,119.5 178.5,126.5C 191.171,126.667 203.838,126.5 216.5,126C 219.196,125.235 221.696,124.068 224,122.5C 228.692,113.719 226.192,108.219 216.5,106C 203.838,105.5 191.171,105.333 178.5,105.5 Z"/></g>
<g><path style="opacity:1" fill="#fdc225" d="M 43.5,29.5 C 112.834,29.3333 182.167,29.5 251.5,30C 277.058,32.6908 297.891,43.8575 314,63.5C 330.947,90.8057 331.947,118.806 317,147.5C 306.628,163.446 292.128,173.612 273.5,178C 264.644,180.399 255.644,182.066 246.5,183C 213.835,183.5 181.168,183.667 148.5,183.5C 148.333,204.836 148.5,226.169 149,247.5C 149.744,254.158 153.244,258.658 159.5,261C 189.165,261.5 218.831,261.667 248.5,261.5C 248.666,271.172 248.5,280.839 248,290.5C 243,294.167 238,297.833 233,301.5C 231.517,304.702 231.183,308.036 232,311.5C 249.723,348.612 267.723,385.612 286,422.5C 306.07,385.416 325.736,348.083 345,310.5C 345.79,307.366 345.457,304.366 344,301.5C 340.248,297.816 336.581,294.15 333,290.5C 332.5,280.839 332.334,271.172 332.5,261.5C 357.167,261.5 381.833,261.5 406.5,261.5C 406.666,271.506 406.5,281.506 406,291.5C 399.922,296.122 393.755,300.622 387.5,305C 383.95,308.883 380.783,313.049 378,317.5C 343.744,385.011 309.744,452.678 276,520.5C 269.415,527.652 264.081,526.652 260,517.5C 228.394,451.955 197.061,386.288 166,320.5C 162,313.833 158,307.167 154,300.5C 151.108,297.943 147.941,295.776 144.5,294C 113.168,293.5 81.8351,293.333 50.5,293.5C 50.3336,285.826 50.5003,278.159 51,270.5C 52.0458,268.91 53.2125,267.41 54.5,266C 60.5901,262.54 66.4234,258.706 72,254.5C 73.3989,251.637 74.3989,248.637 75,245.5C 75.6667,189.5 75.6667,133.5 75,77.5C 73.7334,73.1308 71.5667,69.2975 68.5,66C 62.1009,62.4683 55.4342,59.4683 48.5,57C 47,55.5 45.5,54 44,52.5C 43.5003,44.8406 43.3336,37.1739 43.5,29.5 Z M 178.5,105.5 C 178.5,112.5 178.5,119.5 178.5,126.5C 191.171,126.667 203.838,126.5 216.5,126C 219.196,125.235 221.696,124.068 224,122.5C 228.692,113.719 226.192,108.219 216.5,106C 203.838,105.5 191.171,105.333 178.5,105.5 Z"/></g>
<g><path style="opacity:1" fill="#ffe9ae" d="M 131.5,174.5 C 130.502,201.328 130.169,228.328 130.5,255.5C 129.336,228.003 129.17,200.336 130,172.5C 130.717,173.044 131.217,173.711 131.5,174.5 Z"/></g>
<g><path style="opacity:1" fill="#fffdf9" d="M 131.5,174.5 C 134.464,176.962 137.297,179.629 140,182.5C 140.333,205.833 140.667,229.167 141,252.5C 142.797,260.964 147.964,266.131 156.5,268C 184.498,268.5 212.498,268.667 240.5,268.5C 240.821,274.026 240.488,279.36 239.5,284.5C 237.2,281.676 234.2,279.843 230.5,279C 204.465,278.944 178.465,278.278 152.5,277C 140.924,274.067 133.59,266.901 130.5,255.5C 130.169,228.328 130.502,201.328 131.5,174.5 Z"/></g>
<g><path style="opacity:1" fill="#fef1cc" d="M 129.5,131.5 C 130.495,143.655 130.829,155.989 130.5,168.5C 153.167,168.5 175.833,168.5 198.5,168.5C 175.673,169.498 152.673,169.831 129.5,169.5C 129.5,156.833 129.5,144.167 129.5,131.5 Z"/></g>
<g><path style="opacity:1" fill="#4e2683" d="M 148.5,62.5 C 173.169,62.3334 197.836,62.5 222.5,63C 253.992,67.1544 267.825,84.9877 264,116.5C 260.388,131.237 251.554,141.404 237.5,147C 231.944,148.806 226.278,150.139 220.5,151C 196.502,151.5 172.502,151.667 148.5,151.5C 148.5,121.833 148.5,92.1667 148.5,62.5 Z M 178.5,105.5 C 178.5,112.5 178.5,119.5 178.5,126.5C 191.171,126.667 203.838,126.5 216.5,126C 219.196,125.235 221.696,124.068 224,122.5C 228.692,113.719 226.192,108.219 216.5,106C 203.838,105.5 191.171,105.333 178.5,105.5 Z"/></g>
<g><path style="opacity:1" fill="#8e7ea7" d="M 211.5,94.5 C 196.833,94.5 182.167,94.5 167.5,94.5C 167.5,108.833 167.5,123.167 167.5,137.5C 181.833,137.5 196.167,137.5 210.5,137.5C 196.01,138.496 181.343,138.829 166.5,138.5C 166.5,123.5 166.5,108.5 166.5,93.5C 181.676,93.1706 196.676,93.5039 211.5,94.5 Z"/></g>
<g><path style="opacity:1" fill="#bdbdc1" d="M 211.5,94.5 C 233.173,95.3099 241.006,105.977 235,126.5C 228.812,134.34 220.645,138.007 210.5,137.5C 196.167,137.5 181.833,137.5 167.5,137.5C 167.5,123.167 167.5,108.833 167.5,94.5C 182.167,94.5 196.833,94.5 211.5,94.5 Z M 178.5,105.5 C 178.5,112.5 178.5,119.5 178.5,126.5C 191.171,126.667 203.838,126.5 216.5,126C 219.196,125.235 221.696,124.068 224,122.5C 228.692,113.719 226.192,108.219 216.5,106C 203.838,105.5 191.171,105.333 178.5,105.5 Z"/></g>
<g><path style="opacity:1" fill="#fffdfa" d="M 198.5,168.5 C 175.833,168.5 153.167,168.5 130.5,168.5C 130.829,155.989 130.495,143.655 129.5,131.5C 129.333,104.165 129.5,76.8313 130,49.5C 133.333,52.8333 136.667,56.1667 140,59.5C 140.5,92.8317 140.667,126.165 140.5,159.5C 167.835,159.667 195.169,159.5 222.5,159C 228.731,158.156 234.731,156.823 240.5,155C 227.927,163.802 213.927,168.302 198.5,168.5 Z"/></g>
<g><path style="opacity:1" fill="#fffdf9" d="M 51.5,37.5 C 112.664,36.5009 173.998,36.1676 235.5,36.5C 257.555,36.8436 277.555,43.3436 295.5,56C 310.123,67.7476 317.956,82.9143 319,101.5C 309.088,73.924 289.922,56.424 261.5,49C 255.536,47.7838 249.536,46.7838 243.5,46C 182.5,45.6667 121.5,45.3333 60.5,45C 57.3347,42.6653 54.3347,40.1653 51.5,37.5 Z"/></g>
<g><path style="opacity:1" fill="#fed259" d="M 235.5,36.5 C 173.998,36.1676 112.664,36.5009 51.5,37.5C 50.9569,37.44 50.6236,37.1067 50.5,36.5C 112.332,35.1685 173.999,35.1685 235.5,36.5 Z"/></g>
<g><path style="opacity:1" fill="#6f5295" d="M 242.5,16.5 C 167.167,16.5 91.8333,16.5 16.5,16.5C 16.5,31.8333 16.5,47.1667 16.5,62.5C 15.5037,47.0089 15.1704,31.3422 15.5,15.5C 91.3352,15.1674 167.002,15.5007 242.5,16.5 Z"/></g>
<g><path style="opacity:1" fill="#6c4e93" d="M 166.5,247.5 C 166.833,247.5 167.167,247.5 167.5,247.5C 200.833,247.5 234.167,247.5 267.5,247.5C 267.83,265.341 267.497,283.008 266.5,300.5C 266.5,283.167 266.5,265.833 266.5,248.5C 232.996,248.832 199.662,248.498 166.5,247.5 Z"/></g>
<g><path style="opacity:1" fill="#6b4c93" d="M 424.5,300.5 C 424.5,283.167 424.5,265.833 424.5,248.5C 384.833,248.5 345.167,248.5 305.5,248.5C 305.5,265.833 305.5,283.167 305.5,300.5C 304.503,283.008 304.17,265.341 304.5,247.5C 344.833,247.5 385.167,247.5 425.5,247.5C 425.83,265.341 425.497,283.008 424.5,300.5 Z"/></g>
<g><path style="opacity:1" fill="#fffdfb" d="M 340.5,268.5 C 360.167,268.5 379.833,268.5 399.5,268.5C 399.829,274.206 399.495,279.872 398.5,285.5C 396.064,281.784 392.731,279.284 388.5,278C 375.5,277.667 362.5,277.333 349.5,277C 345.953,274.616 342.953,271.783 340.5,268.5 Z"/></g>
<g><path style="opacity:1" fill="#fee08b" d="M 240.5,268.5 C 241.816,274.013 241.816,279.68 240.5,285.5C 239.893,285.376 239.56,285.043 239.5,284.5C 240.488,279.36 240.821,274.026 240.5,268.5 Z"/></g>
<g><path style="opacity:1" fill="#fefdf8" d="M 222.5,307.5 C 241.686,347.875 261.519,388.208 282,428.5C 281.886,432.842 280.553,436.842 278,440.5C 257.744,400.989 237.744,361.322 218,321.5C 216.924,315.989 218.424,311.323 222.5,307.5 Z"/></g>
<g><path style="opacity:1" fill="#63448f" d="M 456.5,360.5 C 483.995,359.502 511.662,359.169 539.5,359.5C 539.829,373.01 539.496,386.344 538.5,399.5C 538.5,386.5 538.5,373.5 538.5,360.5C 511.167,360.5 483.833,360.5 456.5,360.5 Z"/></g>
<g><path style="opacity:1" fill="#fcc227" d="M 96.5,373.5 C 116.169,373.333 135.836,373.5 155.5,374C 156.333,374.833 157.167,375.667 158,376.5C 172.688,411.709 188.855,446.209 206.5,480C 210.639,482.479 214.472,485.313 218,488.5C 218.5,494.825 218.666,501.158 218.5,507.5C 195.833,507.5 173.167,507.5 150.5,507.5C 150.334,501.158 150.5,494.825 151,488.5C 152.683,486.486 154.683,484.82 157,483.5C 157.875,482.127 158.375,480.627 158.5,479C 157.678,476.528 157.011,474.028 156.5,471.5C 139.5,471.5 122.5,471.5 105.5,471.5C 103.915,475.011 103.415,478.678 104,482.5C 107.31,484.146 109.977,486.48 112,489.5C 112.499,495.491 112.666,501.491 112.5,507.5C 95.1667,507.5 77.8333,507.5 60.5,507.5C 60.3338,501.158 60.5005,494.825 61,488.5C 64.7336,485.048 68.9003,482.215 73.5,480C 85.8486,455.974 98.0153,431.807 110,407.5C 110.667,405.5 110.667,403.5 110,401.5C 105.43,398.862 101.096,395.862 97,392.5C 96.5005,386.175 96.3338,379.842 96.5,373.5 Z"/></g>
<g><path style="opacity:1" fill="#fdc226" d="M 356.5,373.5 C 375.836,373.333 395.17,373.5 414.5,374C 416.049,375.214 417.215,376.714 418,378.5C 424.16,394.821 430.993,410.821 438.5,426.5C 447.431,408.915 456.765,391.581 466.5,374.5C 486.12,373.512 505.787,373.179 525.5,373.5C 525.666,380.175 525.5,386.842 525,393.5C 520.318,396.007 515.985,399.007 512,402.5C 511.333,403.833 511.333,405.167 512,406.5C 522.727,430.287 533.727,453.953 545,477.5C 547.989,481.491 551.822,484.324 556.5,486C 557.701,486.903 558.535,488.069 559,489.5C 559.499,495.491 559.666,501.491 559.5,507.5C 536.833,507.5 514.167,507.5 491.5,507.5C 491.334,501.158 491.5,494.825 492,488.5C 494.333,486.5 496.667,484.5 499,482.5C 499.667,480.167 499.667,477.833 499,475.5C 490.435,456.703 481.602,438.037 472.5,419.5C 465.065,432.036 458.398,445.036 452.5,458.5C 455.47,465.774 458.97,472.774 463,479.5C 467.179,482.257 471.179,485.257 475,488.5C 475.5,494.825 475.666,501.158 475.5,507.5C 453.167,507.5 430.833,507.5 408.5,507.5C 408.334,501.491 408.501,495.491 409,489.5C 410.86,486.728 413.194,484.395 416,482.5C 416.667,479.833 416.667,477.167 416,474.5C 407.853,456.381 399.519,438.381 391,420.5C 382.409,438.684 374.076,457.017 366,475.5C 365.333,477.833 365.333,480.167 366,482.5C 368.653,484.155 370.986,486.155 373,488.5C 373.5,494.825 373.666,501.158 373.5,507.5C 356.5,507.5 339.5,507.5 322.5,507.5C 322.334,501.158 322.5,494.825 323,488.5C 328.365,484.981 333.365,480.981 338,476.5C 348.667,453.167 359.333,429.833 370,406.5C 370.667,404.833 370.667,403.167 370,401.5C 365.43,398.862 361.096,395.862 357,392.5C 356.5,386.175 356.334,379.842 356.5,373.5 Z"/></g>
<g><path style="opacity:1" fill="#fefcf7" d="M 104.5,379.5 C 119.995,378.339 135.661,378.172 151.5,379C 167.385,411.94 182.885,445.107 198,478.5C 202.086,483.851 206.752,488.517 212,492.5C 212.818,495.227 212.652,497.894 211.5,500.5C 207.938,496.051 203.605,492.551 198.5,490C 196.641,488.442 195.141,486.609 194,484.5C 179,452.5 164,420.5 149,388.5C 148.167,387.667 147.333,386.833 146.5,386C 134.5,385.667 122.5,385.333 110.5,385C 108.63,382.96 106.63,381.127 104.5,379.5 Z"/></g>
<g><path style="opacity:1" fill="#fefefb" d="M 470.5,380.5 C 486.658,379.504 502.991,379.17 519.5,379.5C 519.817,382.572 519.484,385.572 518.5,388.5C 516.885,387.846 515.218,387.346 513.5,387C 501.5,386.667 489.5,386.333 477.5,386C 475.004,384.334 472.671,382.5 470.5,380.5 Z"/></g>
<g><path style="opacity:1" fill="#fefcf7" d="M 363.5,380.5 C 379.236,379.17 395.069,379.17 411,380.5C 426,413.833 441,447.167 456,480.5C 459.893,484.419 463.893,488.085 468,491.5C 468.667,494.167 468.667,496.833 468,499.5C 464.79,495.813 460.956,492.979 456.5,491C 453.96,488.795 451.793,486.295 450,483.5C 435.736,451.027 420.903,418.861 405.5,387C 393.5,386.667 381.5,386.333 369.5,386C 367.63,383.96 365.63,382.127 363.5,380.5 Z"/></g>
<g><path style="opacity:1" fill="#fefdf8" d="M 109.5,451.5 C 108.957,451.56 108.624,451.893 108.5,452.5C 120.482,453.499 132.482,453.832 144.5,453.5C 142.996,455.836 140.996,457.669 138.5,459C 125.167,459.667 111.833,459.667 98.5,459C 107.299,441.234 115.966,423.401 124.5,405.5C 125.976,407.42 126.976,409.587 127.5,412C 121.351,425.129 115.351,438.295 109.5,451.5 Z"/></g>
<g><path style="opacity:1" fill="#fffcf6" d="M 504.5,407.5 C 507.478,411.443 509.978,415.777 512,420.5C 521.06,440.953 530.393,461.286 540,481.5C 543.299,484.978 546.966,487.978 551,490.5C 552.483,493.702 552.817,497.036 552,500.5C 547.622,496.065 542.788,492.232 537.5,489C 536.696,487.229 535.529,485.729 534,484.5C 523.333,461.833 512.667,439.167 502,416.5C 501.333,414.833 501.333,413.167 502,411.5C 503.095,410.307 503.928,408.973 504.5,407.5 Z"/></g>
<g><path style="opacity:1" fill="#4f2682" d="M 129.5,419.5 C 130.376,419.369 131.043,419.702 131.5,420.5C 135.833,429.167 140.167,437.833 144.5,446.5C 135.5,447.833 126.5,447.833 117.5,446.5C 121.894,437.642 125.894,428.642 129.5,419.5 Z"/></g>
<g><path style="opacity:1" fill="#fee9ac" d="M 109.5,451.5 C 121.167,452.167 132.833,452.833 144.5,453.5C 132.482,453.832 120.482,453.499 108.5,452.5C 108.624,451.893 108.957,451.56 109.5,451.5 Z"/></g>
<g><path style="opacity:1" fill="#fffbf3" d="M 96.5,462.5 C 98.9345,463.099 100.601,464.599 101.5,467C 99.7202,471.051 98.3868,475.218 97.5,479.5C 98.5005,484.033 101,487.699 105,490.5C 105.667,493.833 105.667,497.167 105,500.5C 101.14,495.728 96.8063,491.395 92,487.5C 89.7552,484.119 89.0885,480.452 90,476.5C 92.4518,471.932 94.6185,467.265 96.5,462.5 Z"/></g>
<g><path style="opacity:1" fill="#fffaef" d="M 359.5,484.5 C 364.814,486.808 367.814,490.808 368.5,496.5C 368.167,497.833 367.833,499.167 367.5,500.5C 365.167,497.5 362.5,494.833 359.5,492.5C 358.176,489.802 358.176,487.136 359.5,484.5 Z"/></g>
<g><path style="opacity:1" fill="#64458f" d="M 38.5,490.5 C 38.5,503.5 38.5,516.5 38.5,529.5C 103.002,529.168 167.335,529.501 231.5,530.5C 166.833,530.5 102.167,530.5 37.5,530.5C 37.1711,516.99 37.5044,503.656 38.5,490.5 Z"/></g>
</svg>