<?xml version="1.0" encoding="utf-8"?>
<!-- Generator: Adobe Illustrator 24.3.0, SVG Export Plug-In . SVG Version: 6.00 Build 0)  -->
<svg version="1.1" id="katman_1" xmlns="http://www.w3.org/2000/svg" xmlns:xlink="http://www.w3.org/1999/xlink" x="0px" y="0px"
	 viewBox="0 0 560 400" style="enable-background:new 0 0 560 400;" xml:space="preserve">
<style type="text/css">
	.st0{fill:#FFFFFF;}
	.st1{fill:#FFD700;}
	.st2{fill:#C99700;}
	.st3{fill:#FCFAA8;}
	.st4{fill:#CBD3EC;}
	.st5{fill:#0033A0;}
	.st6{fill:#0033A0;stroke:#0033A0;stroke-width:0.7861;stroke-miterlimit:4.7608;}
</style>
<g transform="matrix(1.48774 0 0 -1.48774 -209.547 605.363)">
	<path class="st0" d="M405.1,247.8c2.7,0,8.4-0.4,15.6-2.9c2-0.7,6-1.9,8.2-1.9c0.9,0,1.7,0.1,2.6,0.2c4.4,0.9,8.1,2.9,10.9,5.9
		c1.5,1.7,2.4,2.9,3.2,5.6c1,3.3,0.3,6.7-0.3,9.1c-0.6,2.5-2,6.3-4.5,11.3c-1.2,2.4-2.5,4.6-3.8,7.3c-1.3,2.6-6.1,9.8-8.5,12.5
		c-2.9,3.3-5.8,6.4-10,8.1c-1.3,4.3-4.4,14.8-6.5,21.8c-2.2,7.2-4.2,11.2-8,15.9c-4.5,5.5-10.8,8.2-18.9,11.5l-2.4,1
		c-4.4,1.8-8.6,4-11.1,5.2c-2.6,1.2-7.3,3.3-8.2,2.3c-2-2.3-3.3-9.1-3.5-13.8c0-0.8,0-1.6,0-2.4c-5.3,0.9-10.4,2-14.7,3.4
		c-9.8,3.2-20.7,7.9-25.7,9.9s-10.4,5.1-11.2,2.6c-0.6-2-0.4-6.5,1.3-11.2c1-2.7,3.2-6.1,4.7-8.6c2-3.2,4.3-6.3,6.9-9.4l-0.8-1.2
		c-1.3,0.6-2.9,1.3-4.7,1.9c-2.9,0.9-7.6,2-13.7,2c-5.6,0-11.3-1-16.8-2.8c-18.7-6.2-32.6-23.6-33.7-41.8c-4-4.3-11-8.8-23-8.8
		c-2.9,0-6.4,0.3-9.2,0.8c-2.8,0.5-6.7,1.4-7,0.3c-0.2-1.2-0.1-3.7,1-6.8c1.1-3.1,7-13,15.4-18.8c1.8-1.2,3.7-2.3,5.3-3.1
		c0,0,5.9-2.8,13.2-3c7.1-0.2,14.1,1.8,20,5.4c0.7-0.5,1.4-0.9,2.1-1.4c1.2-0.7,2.4-1.3,3.7-1.9l0.2-0.1c0.2-0.1,0.3-0.1,0.5-0.2
		c2.5-1,5.2-1.8,7.8-2.2c0.7-0.1,1.4-0.2,2.2-0.3c1.4-0.1,2.9-0.2,4.4-0.2c3.5,0,7.4,0.4,11.5,1.3c1.4,0.3,2.5,0.4,3.4,0.4
		c1.4,0,2.3-0.3,3.7-1.8c2.4-3,3.4-6.2,4.3-9.3H275c-4.1,0-8.4-2-8.4-2l-0.7,1.8l-43.9,0l7.2-17.7v-8.9c0-2.3-2.9-2.3-6.8-3.1
		c0,0-2.5-24-2.3-23.9c22.9,3.3,26.2,8,26.2,8c19.2,5.4,41.1,8.2,56,9.6c-0.3-0.7-0.5-1.4-0.8-2.1c-1.4-4-1.8-6.8-0.9-9.8
		c2-6,11.8-7.8,15.2-7.8c2.1,0,3.9,0.4,5.3,1.1c1.1,0.5,5.6,4,7.6,5.6c2,1.6,10.2,6.1,12.9,8.6c1.9,1.6,3.4,3.7,4.5,5.6
		c8.1-0.4,40.8-2.5,73.2-11.5c0,0,11.1-6.2,17.7-0.8c2.3,1.9,8,11.3,3.9,24.3v16.7c0,0-5.2,7.4-17.5,6.2h-38.2c4.4,3,6.9,5,15,7.7
		C400.7,247.4,402.2,247.8,405.1,247.8"/>
	<path class="st1" d="M369.3,350.4l-0.2-0.1c-0.7-0.3-0.7-1.2-0.7-2.1l0-0.3l0.2-0.2c1.6-1.7,5-3.7,9-6c6.2-3.6,13.8-8.1,17.5-13.3
		c2.9-4.1,7.6-16,10.2-22.8c1.4-3.5,2.9-5.7,3.8-6.5l0.2-0.2l0.2,0l0.6-0.1l0.4,0c0.2,0,0.4,0.1,0.5,0.1l-0.1,0.7
		c0,0.1-2.2,11.7-6.6,24.5c-4.3,12.4-11.8,16.3-22.7,20.9c-4.4,1.8-7.5,3.3-9.4,4.2c-1.8,0.9-2.2,1.1-2.6,1.1H369.3z M320.9,347.6
		c-0.3,0-0.5-0.1-0.7-0.4c-0.1-0.2-0.2-0.5,0-0.7c2.3-4.1,7.4-12,15.7-18.8c1.3-1,2.5-2,3.8-3c4.3-3.1,8.6-5.7,12.1-7.7
		c6.7-3.6,14.7-6.7,25.5-9.5c2-0.6,4.3-1.1,6.8-1.7c0.2-0.1,0.4-0.1,0.5-0.2l-0.1,0.2l0.1-0.2l0,0l0,0c0,0,0.1-0.1,0.1-0.1l0,0
		l0.1-0.1c1.4-1.8,7.6-10.6,1.3-21.4c0.1,0.8,0.2,1.4,0.3,1.9l0.1,0.8l-0.3,0c0,0,0,0,0,0l-3.6-0.7c-4.4-1.3-11.5-4.1-16-5.9
		c0.8,0.6,1.8,1.2,2.7,1.9l1.7,1.2l-2,0.1c-1.8,0.1-4.4,0.4-7.1,1.8l-1.3,0.7l0.4-1.5c-0.1-0.4-1.5-1.5-2.7-2.3
		c-2-1.5-4.4-3.3-6.2-5.7c-1.9-2.5-3.2-5.2-4.2-8.1c-0.2-0.5-0.4-0.5-0.5-0.5c-0.2,0-0.4,0.1-0.4,0.1l-1.5,0.8l0.5-1.6
		c0.1-0.2,0.1-0.4,0.2-0.6c0.1-0.4,0.3-1,0.3-1.2l-0.3-0.8l0.8-0.1c1.9-0.3,3.7-0.6,5.1-0.8c-1.9-0.2-4.6-0.5-6.6-1l-0.1,0l-0.1,0
		c-1.7-0.8-3.1-5.9-3.6-8c-2.9-14.4-7.9-34.3-8.6-36.1c-0.6-2-3-6.3-3.8-7.9c0-0.2,0.1-0.4,0.1-0.7c0.1-0.1,0.2-0.2,0.2-0.2
		c0.3-1.2,0.2-2.3,0.2-2.3s-0.2-1-0.3-1.3c-0.1-0.5,0-2.6-0.1-3.1l1.1,0.2c2.5,2.5,5.5,5.8,7.1,7.7l0.1,0.1l0.1,0.1l0.1,0.1l0,0.1
		c1.1,1.6,2.1,3.5,3.2,5.5l0.1,0.1c0.3,0.6,0.9,1.9,1.7,3.7c1.6,3.5,4.1,8.9,6.6,13.5c0.9,1.7,2,3.5,3,5.3c0.3,0.6,0.6,1.2,0.9,1.8
		c3.8,7.2,10.2,16.7,17,23.3c-2.8-3.1-4.8-6.4-6.2-9.9c0-0.1-0.1-0.2-0.1-0.3c1.8-0.7,7.7-2.6,13.4-1.4c3.1,0.7,5.7,1.6,7.6,2.5
		c-1.9,1.1-3.3,2.6-4.5,4.7l-0.6,1l-0.6-1c-0.1-0.1-0.2-0.3-0.2-0.4c-2.5,5.9-1.3,9.7,0.5,12.3c0.2,0.4,0.4,0.8,0.7,1.2
		c0.8,0.8,1.1,1.3,1.6,1.7c0,0,0,0,0,0c0,0,0,0,0,0c0-0.2,0.1-0.3,0.1-0.5c-0.1-0.5-0.1-1.5,0.9-4.2c1.7-4.5,8.8-10,20.1-9.3
		c0.4,0,0.8,0,1.2,0.1c0.1,0,0.2,0,0.3,0c0.3,0,0.5,0,0.8,0c0.1,0,0.3,0,0.4,0c0.2,0,0.4,0,0.7,0c0.1,0,0.3,0,0.4,0
		c0.2,0,0.4,0,0.6,0c0.1,0,0.2,0,0.4,0c0.2,0,0.4,0,0.6,0c0.1,0,0.2,0,0.3,0c0.2,0,0.4,0,0.6,0h0.3c0.3,0,0.5,0,0.8,0
		c0.1,0,0.1,0,0.2,0c0.2,0,0.4,0,0.6,0c0.1,0,0.2,0,0.3,0c0.1,0,0.3,0,0.4,0c0.1,0,0.2,0,0.3,0c0.1,0,0.3,0,0.4,0c0.1,0,0.2,0,0.4,0
		c0.1,0,0.2,0,0.4,0c0.1,0,0.2,0,0.4,0c0.1,0,0.2,0,0.3-0.1c0.1,0,0.3,0,0.4-0.1c0.1,0,0.2,0,0.3,0c0.4-0.1,0.7-0.1,1.1-0.2
		c0.8-0.2,1.7-0.6,1.7-0.6c0.1,0.2,0.2,0.4,0.3,0.6h0c0.1,0.1,0.1,0.3,0.2,0.4c1.2,2.2,2.8,3.5,4.3,2.9c0.1,0.1,1,0.4,1.3,0.5
		c2.1,0.5,9.2,0.9,9.8-9.6c0,0,0,0,0,0c0.7,0.6,1.3,1.2,1.9,2l0.1,0.2l0,0.2c0.2,2.4-0.5,4.5-1.3,6.2c2.5-2.9,2.6-2.9,2.9-2.9
		c0.3,0,0.8,0.2,1.4,0.6l0.1,0.1l-0.2,0.2c0.2,0.3,0.3,0.6,0.3,1c-0.4,1.8-1.2,5-3.1,8.9c-0.5,0.7-1.1,1.4-1.8,1.9l0.8,0
		c-0.9,1.6-1.5,2.1-1.8,2.3l-1.2,0.7l0.2,1.3c0,0.3,0.2,0.8-0.1,1.3c-0.5,0.9-1.7,3.1-3.3,5.6c-1.7,2.1-3.7,4.3-5.7,6.3
		c-4.1,4.3-9.1,6.6-14.8,6.9c-0.4,0-0.8,0-1.3,0c-1.4,0-2.7-0.1-3.6-0.3c0.6,0.6,1.3,1.2,2,1.7l0.5,0.3l-0.3,0.5l-0.1,0.1l-0.1,0.2
		c-0.4,0.7-0.8,1.6-1.3,2.7c-2.2,4.6-5.6,11.6-9.4,16.9c-1.8,2.5-3.8,5-6.1,7.2c-5.3,3.9-10.3,6.2-11.8,6.8
		c-0.4,0.1-0.9,0.2-1.3,0.2c-10,1.5-21.9,3.9-28,5.4c-3.8,1-13.9,3.7-26,8.9l-0.1,0.1L320.9,347.6L320.9,347.6z M333,335.8
		c12.5-7.7,27.7-9.7,37.1-10.9c3.2-0.4,5.7-0.7,7.2-1.2c10.3-4.4,15-15.2,16.3-23.8c-1.5,5.1-4.8,11.1-12.5,14.5l-0.1,0.1l-0.2,0
		c0,0-0.1,0-0.2,0h-1.3l0.7-1.1c0.4-0.6,0.8-1.2,1.1-1.7c-4.4,0.8-18.7,3.9-33.7,13.2C341.5,328.5,336.1,332.8,333,335.8L333,335.8z
		 M300.3,324.8c-3.6,0-7.2-0.5-10.8-1.5c-1.6-0.4-3.1-0.9-4.5-1.4c-7.3-3.4-13.6-8-18.3-13.4c-0.9-1.2-1.8-2.5-2.7-3.9
		c-2.3-3.5-4.2-7.8-5.1-11.8c-0.3-1.3-0.6-2.5-0.8-3.6c0-0.5-0.1-1.1-0.1-1.6c0-0.3,0-0.5-0.1-0.8c-0.1-0.1-0.2-0.2-0.3-0.3
		c-0.2-1.2-0.3-2.3-0.3-3.1l0,0l-0.7-0.8c-8-8.2-17.6-9.9-24.2-9.9c-1.9,0-4.9,0.2-8.1,0.9c-0.1,0-0.2,0-0.3,0c0,0-0.1,0-0.1,0
		c-0.3,0-0.6-0.1-0.8-0.4c-0.1-0.2-0.1-0.4-0.1-0.6c0.2-0.3,0.3-0.5,0.5-0.7c0.8-0.9,1.6-1.3,3.4-2.5c1.8-1.3,2.6-1.5,4.4-2.3
		c1.9-0.8,4.2-1.4,6.6-1.7c3.6-0.5,11.6-0.7,17.9,2.1c2.2,1,4,2.3,5.3,3.4l0-0.1c-0.1,0.3-0.3,0.6-0.4,0.9c0.2-0.1,0.3-0.1,0.3-0.1
		s8.3-8.5,21.6-7.4c13.3,1.1,21.1,10.9,21.1,10.9l0.6-1.9c0,0,2.1,1.8,4.2,5.5c3.1,5.4,3.5,10.3,3.5,12.3c0.1-0.3,0.1-0.7,0.1-0.7
		l0.6-3.2c0,0.1,0,0.3,0,0.4c0.1-0.6,0.2-1.1,0.2-1.7l0.1-0.7c0,0,0-0.2,0-0.5c0.8-8.6-1.5-16.1-6.6-21.4l-0.3-0.3
		c2.2-1.5,5.5-4.4,7.9-9.3c0.3-0.5,0.6-1,0.9-1.6c0.6-0.9,1-1.8,1.3-2.6c2.4-5.2,4.2-9.9,5.4-13.1c-0.5-1.4-0.7-2.4-0.6-3.1l0-0.2
		l0.1-0.2c0.1-0.2,0.4-0.4,0.7-0.6c0,0,0,0.1,0.1,0.1c0-0.1,0.1-0.1,0.1-0.2c0.6-0.3,1.3-0.6,2-0.7c0.9,0.1,1.6,0,2.6,0
		c0.1,0.1,0.2,0.2,0.3,0.4c1.9,5,4.6,10.8,7.6,16.8c0.8,2.1,1.9,4.2,3.1,6.3c0,0,0,0,0,0c0.9,1.8,1.9,3.7,2.9,5.5c0.5,1,1,2,1.5,3
		c-0.1,0.2-0.3,0.6-0.6,0.9c-0.9,1.1-2.9,3.9-4.1,6.9c-0.5,1.1-0.8,2.1-1.1,3.1c0-0.1,0-0.2,0-0.2c-0.3,0.5-0.6,1.1-0.9,1.7
		l-0.8,1.4l-0.5-1.5c-0.9-2.9-1.8-6.2-2.8-9.6c-1.8-6.5-3.8-13.8-6.5-20.8l-0.1-0.4c-3.5,10.6-0.3,36.2,2,45
		c1.1,4.4-3.3,11.6-8.1,15.5c-5.3,4.3-9.9,6.2-15.4,6.4c-0.5,0-1,0-1.5,0c-11.8,0-21.3-5.4-26.3-8.9c9.9,9.9,21.5,11.1,26.3,11.1
		c1,0,1.9,0,2.8-0.1c6.3-0.6,11.6-2.7,16.3-6.6c6.4-5.3,10.4-13.8,9.4-17.4c-0.1-0.5-0.3-1-0.4-1.6c-1.5-5.5-3.6-12.9-4-26.3
		c-0.1-2.6,0-4.5,0.3-5.7l1.3,0c1.1,4,2.2,8.9,3.4,14.1c1.7,7.7,3.5,15.8,5.8,22.5c0.4,1.5,0.9,2.9,1.3,4.3c0.3,0.8,0.6,1.6,1.2,2.5
		l0.3,0.5l-0.4,0.4c-3.5,3.3-8.2,8.1-14.3,14.6C318.9,321.3,310,324.8,300.3,324.8L300.3,324.8z M407.3,290c1.4-0.3,2.9-1,4.3-2.4
		c0.9-0.9,2-2.2,3.2-3.6c0,0,0,0,0.1-0.1c1.8-1.6,3.7-3.5,4.6-5.1c0.9-0.8,1.7-1.5,2.5-1.9c1.9-0.9,3.2-1.3,4.1-1.5
		c-0.6-0.3-1.3-0.7-2.1-0.8l0-1.1c-1.5,0.6-3.2,0.7-3.8,0.7c-0.4,0-1,0-1.5-0.2l-0.1,0l-0.1,0c-1.1-0.7-2.7-1.1-4.6-1.1
		c-2.9,0-7.1,1.1-9.4,4.1c-1.4,1.9-2,4.1-1.6,6.2c0.4,1.8,1.4,3.2,2.9,4.1c0.4,0.2,0.9,0.5,1.7,0.5h0.1l0.9,0l-0.2,0.9
		C408.1,289.2,407.8,289.6,407.3,290L407.3,290z"/>
	<path class="st2" d="M320.7,347.6c-0.2,0-0.4-0.2-0.5-0.4c-0.1-0.2-0.2-0.5,0-0.7c2.3-4.1,7.4-12,15.7-18.8
		c10.4-8.5,21-14.9,41.4-20.2c2-0.6,4.3-1.1,6.8-1.7c0.2-0.1,0.4-0.1,0.5-0.2l-0.1,0.2l0.1-0.2l0,0l0,0c0,0,0.1-0.1,0.1-0.1l0,0
		l0.1-0.1c1.4-1.8,7.6-10.6,1.3-21.4c0.1,0.8,0.2,1.4,0.3,1.9l0.1,0.8l-0.8-0.1c-2.2-0.2-8.7-2.5-14.4-4.7l-8.7-4.2l0-0.5
		c0,0,8.6,2.9,16.8,2.2c-0.7-2.5-0.9-5.3-0.3-8.4c0.1,0.2,0.3,0.2,0.5,0.1c0.1,0.2,1.7,2.7,2.6,3.3c0-0.2,0.1-0.3,0.1-0.5
		c-0.1-0.5-0.1-1.5,0.9-4.2c1.7-4.5,8.8-10,20.1-9.3c6.5,0.4,9.7,0.4,13.7-0.7c0,0.1,0.1,0.1,0.1,0.2l0.5,0.8l0.2,0.3l0.2,0.3
		c0.4,0.5,0.8,1,1.3,1.5l0.8,0.8l0.1,0.3l0.3-0.1l0,0l2-0.6c0.1,0.1,1,0.4,1.3,0.5c2.1,0.5,9.2,0.9,9.8-9.6c0,0,0,0,0,0
		c0.7,0.6,1.3,1.2,1.9,2l0.1,0.2l0,0.2c0.2,2.4-0.5,4.5-1.3,6.2c-0.2,0.4-0.9,1.5-1.6,2.1c-1.1,1.3-2.7,3.5-3.5,4.5
		c-1,1.5-5,4.2-5,4.2c-1.5,0.6-3.2,0.7-3.8,0.7c-0.4,0-1,0-1.5-0.2l-0.1,0l-0.1,0c-1.1-0.7-2.7-1.1-4.6-1.1c-2.9,0-7.1,1.1-9.4,4.1
		c-1.4,1.9-2,4.1-1.6,6.2c0.4,1.8,1.4,3.2,2.9,4.1c0.3,0.2,0.9,0.5,1.7,0.5h0.1l0.9,0l-0.2,0.9c-0.1,0.6-0.4,1-0.7,1.3
		c-0.3,0.2-2.8,0.7-5,0.7c-1.7-0.9-4.2-2.7-4.9-6.8c-0.7-4.1,0.4-7.5,4.8-10.2c6-3.7,13.6-3,16.1-1.4c-0.2-1.2-0.6-3.2-3-4.9
		c-5.1-3.6-12.5-2.9-17.9-1.4c-3.3,0.9-6.3,2.5-8.6,4.6c-1.2,1.2-2.6,3.1-3.2,5.9c-0.7,3.4,1.1,6.3,3,8c1.2,1.1,2.7,1.7,2.7,1.7
		c0,0.1,0,0.1,0,0.2c-0.9,0.2-2,0.2-3.1-0.1c1.3,2,2.5,4.5,2.8,7.4c0.6,5.9-3.7,15.9-11.9,20.9h-0.2c0.6-0.6,1.6-1.7,1.8-2.8
		c0,0-1,0.2-2.7,0.6c-6.1,1.4-18.3,4.8-31,12.7c-5.9,3.7-11.4,8-14.4,10.9c0.2-0.1,0.5-0.3,0.7-0.4
		C325.3,342.4,322,345.9,320.7,347.6L320.7,347.6z M267.7,295.3c-2.4-2.1-7.4-9.3-8.5-16.7c-0.2-1-0.2-1.9-0.2-2.6
		c-11.8-11-29.7-6.6-36.1-2.9c0.1-0.6,0.5-1,0.5-1c2.6-2.1,7-5.6,14.4-6.5c3.6-0.4,11.6-0.8,17.9,2.1c2.4,1.1,4.3,2.5,5.7,3.8
		c1.9-1.7,9.7-8,21.2-7c13.3,1.1,21.1,10.9,21.1,10.9l0.6-1.9c0,0,2.1,1.8,4.2,5.5c4,7,3.5,13.2,3.5,13.2s-0.4,0.7-0.5,1.3
		c0,0.1-0.1,0.3-0.1,0.6c-6.2-18.4-20.7-21.7-20.7-21.7l1,4.8c-3.9-2.6-9.5-4.5-13.8-3.9c-10.3,1.3-12.7,7.6-12.5,13.7
		c0.1,3.6,2.7,8,2.7,8L267.7,295.3z M312.4,292l-0.3-0.9c0.3-1.3,0.5-2.8,0.6-4.3c0-0.2,0.1-0.4,0.1-0.6l0.1-0.7c0,0,0-0.2,0-0.5
		c0.8-8.6-1.5-16.1-6.6-21.4l-0.6-0.6l0.7-0.4c2.9-1.7,5.8-5.2,8.4-10.1c0.6-0.9,1-1.8,1.3-2.6c2-4.4,3.6-8.5,4.8-11.5l0.9-2
		l0.2-0.3c0.2,0.8,0.6,1.8,1,3.2c-0.1,0.3-0.2,0.6-0.4,0.9c-2.9,6.4-5.8,16.6-6.3,21.7c-0.1,1.6-0.2,2.9-0.2,4.2l-3.6-1.8l-0.2,0.1
		c2.3,2.6,3.9,9.6,3.1,15.5C314.9,285.7,312.4,292,312.4,292z M329.4,287.2c-1.5-5.4-3.3-12.7-3.7-25.1c-0.1-2.6,0-4.5,0.3-5.7
		l1.3,0c1.1,4,2.3,8.9,3.4,14.1c0.8,3.5,1.6,7,2.4,10.4C332.3,282.3,330.7,285,329.4,287.2z M338.3,269.6
		c-3.7-11.4-9-22.9-13.2-34.1c-0.3-0.9-3.2-2.4-3.6-2.6c0,0,0.1-0.1,0.1-0.1l2.9-1.2c0.4-0.1,0.8-0.1,1.1-0.1c0.8,0,1.1,0.4,1.2,0.7
		c3.1,8.3,8.5,18.6,13.7,28.6c0.5,1,1.1,2.1,1.6,3.1C341.9,264.2,339.9,266.6,338.3,269.6L338.3,269.6z M372.9,269
		c-0.1-0.1-0.2-0.1-0.3-0.2c-7.2-4.9-11.8-8.4-15-11.5c-4-3.9-5.7-7.1-7.1-10c-5.4-11.4-9.9-22.5-14.2-31.6
		c-1.7-3.7-4.4-6.1-6.8-8.7c0,0,0,0,0,0c0-0.4,0-0.7-0.1-1.1c-0.1-0.6-0.2-1.1-0.3-1.6c0,0,0,0,0,0c0-0.4,0-0.7-0.1-1.1l-0.1-1.8
		l1.3,1.3c2.5,2.6,5.7,6,7.3,8l0.1,0.1l0.1,0.1l0.1,0.1l0,0.1c1.1,1.6,2.1,3.5,3.2,5.5l0.1,0.1c0.3,0.6,0.9,1.9,1.7,3.7
		c1.6,3.5,4.1,8.9,6.6,13.5c0.9,1.7,2,3.5,3,5.3c0.3,0.6,0.6,1.2,0.9,1.8c3.6,6.6,9.2,15.3,15.5,21.7c0.5,0.5,2.5,2.1,2.5,2.1
		s0.5,1.8,0.8,2.6C372.4,267.9,372.6,268.4,372.9,269L372.9,269z M345.3,268.5l0.5-1.6c0.1-0.2,0.1-0.4,0.2-0.6
		c0.1-0.4,0.3-1,0.3-1.2l-0.3-0.8l0.8-0.1c1.9-0.3,5.1-0.8,5.1-0.8l2.9,0.1c0,0-3.1,1.9-7.2,4.7c0-0.1,0-0.1-0.1-0.2
		c-0.2-0.5-0.4-0.5-0.5-0.5c-0.2,0-0.4,0.1-0.4,0.1L345.3,268.5z M439,256.4l-1.4-0.4c-1-0.2-1.8-0.4-2-0.4l-0.3,0l-0.2-0.2
		c-0.3-0.4-0.8-1-1.5-1.6c0-0.1,0-0.2,0.1-0.3c1.4-0.1,2.5,0,3.6,0.4c0.4,0.4,0.8,1,1.2,1.7C438.7,255.9,438.9,256.1,439,256.4z"/>
	<g>
		<path class="st3" d="M257.8,281l0.3,0.2c0,0,0.9,13.3,8.7,23.4c5.7,7.4,11,10.9,19.4,14.2c11.1,4.3,26.9,3.6,35.6-4.9
			c7.3-7.2,12.6-12.4,16.4-16.1c0.2,0.6,0.5,1.2,0.9,1.8l0.3,0.5l-0.4,0.4c-3.5,3.3-8.2,8.1-14.3,14.6c-5.7,6.1-14.6,9.7-24.3,9.7
			c-3.6,0-7.2-0.5-10.8-1.5c-12.9-3.5-19.3-9.4-25-17.8c-3-5-4.8-10-5.8-13.4C256.9,285.9,257.8,281,257.8,281"/>
		<path class="st3" d="M271.9,299.4l0.4-0.1c0,0,15.2,10.6,29.9,9.6c13.5-0.9,22.6-13.3,21.3-19.6c-3.4-16.5-5-41.2,1-46
			c0,1-0.1,1.7-0.1,2.1c-2.4,7.8-1.4,23.2,0.2,34.4c0.3,2.7,0.7,5.2,1.2,7.2c0.2,1.2,0.5,2.2,0.7,3.1c1.1,4.4-3.3,11.6-8.1,15.5
			c-5.3,4.3-9.9,6.2-15.4,6.4c-0.5,0-1,0-1.5,0c-11.8,0-21.3-5.4-26.3-8.9c0.1,0.1,0.3,0.3,0.4,0.4
			C274.3,302.2,273,300.9,271.9,299.4"/>
		<path class="st3" d="M334.5,277.4l-0.5-1.5c-0.9-2.9-1.8-6.2-2.8-9.6c-1.5-5.3-3.1-11.2-5.1-17c-0.9-3.7-1.5-6.2-1.5-6.2l0.9,1.1
			c0,0,5.3,10.7,10.9,29.6C335.7,275.2,335.1,276.2,334.5,277.4"/>
		<path class="st3" d="M433.8,272.4l0.8,0c-0.2,0.5-0.9,1.8-1.8,2.3l-1.2,0.7l0.2,1.3c0,0.3,0.1,0.8-0.1,1.3c0,0,0,0.1-0.1,0.2
			c-0.6,1.3-1.9,3.4-3.5,5.7c-1.7,2-3.6,4.2-5.5,6.1c-4.1,4.3-9.1,6.6-14.8,6.9c-0.4,0-0.8,0-1.3,0c-1.4,0-2.7-0.1-3.6-0.3
			c0.6,0.6,1.3,1.2,2,1.7l0.5,0.3l-0.3,0.5l-0.1,0.1l-0.1,0.2c-0.4,0.7-0.8,1.6-1.3,2.7c-2.2,4.6-5.6,11.6-9.4,16.9
			c-4.6,6.3-10.5,13-19.1,14.2c-10,1.5-21.9,3.9-28,5.4c-3.8,1-13.9,3.7-26,8.9l-0.1,0.1h-0.1c-0.2,0-0.4-0.1-0.6-0.3
			c7.2-5.8,18.2-10.4,27.1-12.6c5.5-1.4,11.6-2.6,16.4-3.4c7.5-1.2,13.4-1.6,16.3-3.1c12.3-6.7,21.4-28.7,22.2-31.6
			c-0.6-0.3-1.1-0.7-1.5-1.1c-0.6-0.6-0.9-1.1-0.9-1.1l0.1-0.1c0,0,1.2,0.4,3.4,0.4c5.8,0.2,10.7-1.8,14.3-4.7
			c3.7-2.9,10.1-10.4,10.8-11.3c0.7-0.9,0.8-1.1,0.7-1.2c-0.3-0.1-1.1-0.7-1.5-1.4c0.1,0,0.1-0.1,0.1-0.1c2.1-0.4,3.4-1.9,3.7-2.6
			c-0.5,0-1.3-0.4-1.7-0.5c-0.1,0-0.1-0.1,0-0.1c1.2-0.2,3.2-1.7,5-4.8c2.1-3.8,1.9-7.3,1.9-8c-0.4,0.2-0.1,0,0.5-0.3
			c0.3,0.1,0.6,0.3,1.1,0.5l0.4,0.2l0,0.4c0,0.2,0,0.4,0,0.5c-0.1,0.4-0.2,0.8-0.3,1.3c-0.3,1.1-0.8,3.4-1.7,5.4
			c-0.3,0.7-0.6,1.4-1,2.2C435.1,271.1,434.5,271.8,433.8,272.4"/>
	</g>
	<path class="st4" d="M351.6,297.4c-4.1-0.1-6.1-1.4-7.5-3c0-0.1-0.2-0.2-0.3-0.4c2,0.7,4.2,1.2,6.4,1.2c2.7,0,5.1-0.6,7.2-1.7
		l0.4-0.2l0.4,0.3c1.3,1,1.5,1.4,1.5,1.8c0,0.1,0,0.3-0.2,0.9C358.2,296.5,354.8,297.4,351.6,297.4z M311.9,292.1c0-0.1,0-0.4,0-0.8
		c0.1-0.3,0.1-0.7,0.1-0.7l0.1-4.9c0,0-1.1-10.3-10.1-16.8c-6.4-4.6-13.6-6.7-19.2-6.7c-8.8,0-15.8,3-19.9,7.2
		c-0.8,0.8-1.4,1.6-1.9,2.5c0,0-0.1,0.1-0.1,0.1s-0.1,0-0.3,0.1c0.1-0.4,0.3-0.8,0.6-1.3c0.5-0.8,1.1-1.6,1.7-2.4
		c2.7-3.2,5.9-5.7,9.5-7.4c3.6-1.7,7.8-2.6,12-2.6c2.6,0,5.3,0.3,7.8,1c4.6,1.2,8.5,3.2,11.6,5.8c3.5,3.3,6.1,7.4,7.6,12.1
		c0.5,1.7,0.8,3.4,1,5.3c0.2,1.7,0.2,3.3,0.2,4.7C312.5,289,312.3,290.5,311.9,292.1z M352.9,286.9c-2.2,0-4.5-0.2-6.3-0.8
		c-4-1.4-7.1-9.3-8.4-16.6c1.4-2.7,2.9-4.8,3.7-5.9c0.8,1.6,1.6,3.1,2.4,4.7l0.2,0.3l-0.2,0.3c-0.7,1.2-1.2,2.1-1.5,2.7
		c1.1-0.3,1.8-0.4,2.3-0.4c0.3,0,0.4,0,0.4,0l0.4,0.1l0.1,0.4c0,0,1.2,4.1,4.2,7.5c1.9,2.2,4.7,4.2,6.3,5.4c1.5,1.1,1.8,1.3,1.7,1.8
		c0,0,0,0,0,0C357.1,286.7,355,286.9,352.9,286.9L352.9,286.9z M409.7,286.7l-0.3-0.1c-0.3-0.1-0.6-0.3-1-0.6
		c-1.6-1.2-2.5-3-2.6-4.9c-0.1-1.9,0.6-3.8,2.1-5.3c0.5-0.5,1.2-1,1.9-1.4c1.3-0.6,2.9-1,4.3-1c1.1,0,1.9,0.1,2.6,0.2
		c0.8,0.2,1.5,0.6,2.1,1c0.2,0.2,0.4,0.4,0.6,0.6c0,0,0,0,0,0l0,0.2l0,0.1c0,0,0,0.2-0.1,0.4c-0.1-0.1-0.1-0.1-0.2-0.2
		c-2.2-2.4-7.1-2-9.6,0.5c-2.5,2.5-2.1,6.2,0.4,8.2c1,0.8,1.9,0.8,2.6,0.5c0,0,0,0,0.1,0c-0.9,0.6-1.8,1.1-2.8,1.6L409.7,286.7z
		 M262.9,267.9c-7.7-7.7-17.3-7.2-17.3-7.2l-1.6-3.1l0.8-0.1c0.5-0.1,1.1-0.1,1.9-0.1c2.6,0,6.8,0.6,10.5,2.4
		c3.9,1.8,6.1,4.2,7.1,5.5l0.3,0.4l-0.3,0.4C263.8,266.6,263.3,267.3,262.9,267.9z M421.4,264.3c0,0-6.1-5.2-2.7-10.4
		c1.1-1.6,3-2.5,5-2.7c0,0,0,0,0,0c0.1,0,0.2,0,0.3,0l0.1,0c3.9,0.1,7.1,1.2,9.3,3c-0.1,0.1-0.1,0.2-0.2,0.2
		c-1.4-0.2-5.5-0.7-9.1,0.2c-3.8,0.9-4.3,5.3-0.8,8c-0.7,0.2-1.6,1.1-1.6,1.1S421.5,264.2,421.4,264.3L421.4,264.3z M383.4,263.8
		c-0.8-0.9-1.3-1.7-1.5-2.4c0.4-0.6,0.8-1.2,1.5-1.8c2.1-2.1,5.8-3.2,11.5-3.2c3.3,0,6.6,0.3,9.3,0.6c1.6,0.2,2.9,0.3,3.9,0.3
		c0.2,0,0.4,0,0.6,0c3.1,0,5.2-0.7,6.4-1.2l0.7-0.3c0.1,0,0.1,0,0.1,0s0.1,0.1,0.2,0.2l0,0.8c0,0.5,0,0.9,0.2,1.4
		c-3.2,1.9-8.6,1.2-13.1,0.8c-3.6-0.4-8.1-0.4-13.1,0.7C385.3,260.5,383.4,263.8,383.4,263.8L383.4,263.8z M433.7,253.9
		c-1.1-1-2.9-2-5.6-2.6c-1.2-0.4-2.3-0.6-3.5-0.6c0.3-0.4,2.9-0.8,2.9-0.8c0.9-0.2,1.9-0.1,2.7,0c2,0.4,3.7,1.2,5.1,2.1
		c-0.8,0.3-1.2,1.1-1.3,1.4c0,0.1-0.1,0.1-0.2,0C433.8,253.6,433.8,253.7,433.7,253.9z M388.5,253.6
		C388.5,253.6,388.5,253.6,388.5,253.6c-5.3-3-17.8-8.1-25.7-3.6c-0.3-0.9-0.5-1.8-0.6-2.6l-0.1-0.6l0.6-0.2c2.2-0.7,4.5-1,6.9-1
		c5.7,0,12,1.8,19.1,5.4c0.5,0.2,0.9,0.5,1.5,0.8l0.2,0.1l0.2,0.1l1.8,1l-2.1,0.3C389.7,253.4,389.1,253.5,388.5,253.6L388.5,253.6z
		 M329.5,207c-0.4-0.4-1.2-1.4-2.3-2.2c-2.5-1.7-6.2-3.4-7.9-3c-2.4,0.5-6,2.5-7.4,3.4c-1.3-1.5-1.6-3.3-1.4-4.3
		c0.2-1.2,5.5-5.5,9.3-4.7c4.4,0.9,8.8,3,9.7,9.7C329.5,206.3,329.5,206.6,329.5,207L329.5,207z M307.9,200.3c0,0.2-0.8-1.8-0.8-2.6
		c0-0.3,0.3-0.7,0.8-1.1c-0.4-1.3-0.6-2.7-0.5-3.2c0.1-1.1,4.8-3.2,8.3-2.9c3.8,0.4,2.8,1.7,1.1,2.2c0,0,0.1,0,0.1,0
		c1.7,0.1,3.7,1.5,5.2,2.6c-0.2,0.1-0.4,0.2-0.6,0.4c-1.1-0.7-3.5-1.3-5.1-1.1C310.3,195.6,307.9,200.3,307.9,200.3z"/>
	<path class="st5" d="M367.3,354.6c-0.1,0-0.2,0-0.3-0.1c-1.6-0.4-1.8-4.1-2-8c-0.1-3.4,0.3-6,0.7-7.8c0-0.2,0-0.3,0-0.5
		c-7.4,1.2-15.5,2.6-22,4.7c-10.4,3.3-16.7,6.1-27.2,10.5c-0.8,0.3-1.5,0.8-2.1,0.2c-0.6-0.6-0.5-1.9,0.2-3.4
		c0.7-1.5,6-13.4,19.6-25.2c10.1-8.8,23-16.1,42.9-21c1.2-0.3,2.8-0.7,4.4-1c2.5-2.4,3.6-5.3,4.1-7.6l-1-4c0,0-7.9-3.5-10.2-5.1
		c0,0,0,0-0.1,0c-2.5-0.2-5.4,0-8.5,1.4c-0.3,1.7-0.6,3.2-1,3.4c-0.3,0.2-0.7,0.4-1.1,0.6c-0.2,1.5-0.4,3.2-0.6,3.4
		c-0.9,0.5-1.4,0.8-1.8,1c-0.6,2.2-1.3,4.3-1.7,4.5c-0.4,0.2-0.7,0.3-1.1,0.4c-0.4,1.7-0.9,3.6-1.2,3.8c-3.5,2.5-10.9,2.1-15.8-1.7
		c-2.5,2.3-5,4.8-7.2,7.2c-5.5,6.1-8.3,10.5-10.5,15.4c-0.1-0.2-0.6-1-0.8-1.7c-0.2-0.8-0.3-1.3-0.3-1.3s-3,2.5-8.3,4.2
		c-6,1.9-16,3.1-27.5-0.7c-18.5-6.1-30.2-23.4-30.5-38.9c-6.4-7.8-18.2-14.1-37.9-10.9c0,0-0.4,0-0.3-0.7
		c0.2-1.3,5.5-10.1,13.3-15.5c2.3-1.6,4.9-2.9,6-3.3c1.2,0.3,4.7,1.2,4.7,1.2s-1.4-2.5-1.6-2.8c10.5-2.1,20.5,1.3,26.9,6.3
		c1-0.9,2.4-2.1,4.4-3.3c0.9-0.6,2-1.1,3.2-1.6c0.2-0.1,0.4-0.2,0.6-0.2c0,0,0,0,0,0c2.1-0.9,4.4-1.5,6.7-1.9
		c0.6-0.1,1.2-0.2,1.9-0.3c4-0.4,8.8-0.2,14.3,1c5.6,1.2,8.7,0.5,11.9-3.1c4.6-5.8,5.7-14.7,5.8-15.3c0-0.1,0-0.1,0-0.1l2.3,1.5
		c0-3.1,0.1-6.6,0.2-7.5c0.1-1.5,6-3.3,7.3-3.4c0.1,0,0.1,0,0.2,0c1.4-0.1,6.4,2.2,7.6,2.7c-1.4-6.2-2.5-11.1-2.6-11.7
		c-0.4-1.9-2.6-5.5-2.6-5.5s-2.2,0.5-3.4-0.5c0,0,0,0-0.1-0.1l0,0c0,0-2.2-2.1-6-3.2c-3.6-1-7.4-0.7-7.9-1.5c-0.3-0.6-1.1-2-1.7-3.4
		c-0.9,0-1.6,0-1.8-0.3c-0.4-0.6-2.5-5.6-2.1-6.2c0.3-0.4,0.7-0.8,1.2-1.3c-0.4-1.4-0.8-3.3-0.8-3.4c1.1-3.1,10-4.9,13-3.4
		c1.4,0.7,3.9,2.8,6.6,5.3c0.4,0.1,0.9,0.3,1.3,0.5c3.3,1.5,9.6,5.7,11.6,7.7c3,2.5,4.9,7,5.7,8.4c4.6,7,21.1,25.3,26.2,30.9
		c3.7,0.6,8,1.7,13,3.5c-0.3-1.4-0.4-2.8,0.4-3.5c1.1,2.2,5.8,6.6,15.2,9.7c4.4,1.4,13.7,1.2,23.8-2.4c0.7-0.2,1.2-0.3,1.6-0.3
		c1.7-1,4.2-1.6,6.6-1.2c4,0.8,6.5,2.5,8.1,4.3c1.5,1.6,2.1,3.3,2.4,4.3c0.2,0.1,0.3,0.2,0.5,0.4c0.6,0.6-0.2,3.4-0.6,4.1
		c-0.1,0.1-0.2,0.2-0.3,0.3c-0.5,2.6-1.7,6.8-4.3,11.6c-1.1,2-2,2.9-2.7,3.3c0.1,0.5,0.1,1.2-0.1,2.1c-0.6,2.4-4.9,8.5-8.7,13
		c-2.9,3.3-5.5,6.2-9.5,7.2c-0.3,0.1-0.8,0.4-1,0.9c-0.3,1.1-4.4,15-7,23.5c-2.1,6.9-3.9,10.2-7.1,14.2c-4,5-10.5,7.3-19.3,11
		C371.7,352.2,369.1,354.7,367.3,354.6L367.3,354.6z M369.4,349.7c0.3,0.1,4.2-2.1,11.8-5.2c10.6-4.4,18.1-8.3,22.3-20.5
		c4.5-12.8,6.6-24.4,6.6-24.4l-0.6,0.1c-0.5,0.5-2,2.4-3.6,6.2c-2.7,7.3-7.3,18.8-10.2,22.9c-6,8.5-22.5,15.1-26.5,19.4
		C369.1,349.1,369.2,349.6,369.4,349.7L369.4,349.7z M320.9,346.9c10.4-4.5,19.9-7.4,26.1-9c6.3-1.6,18.2-4,28-5.4
		c8-1.2,13.8-7.2,18.7-13.9c4.7-6.5,8.8-15.8,10.7-19.5c0.1-0.1,0.1-0.2,0.2-0.3c-1.5-1.1-3.1-2.7-3.6-3.3c0-0.1,0.1-0.1,0.1-0.1
		s2.8,1,6.8,0.8c4.3-0.3,9.5-1.7,14.4-6.7c4.3-4.4,9.7-10.8,9.2-12.4c0,0,0-0.1,0-0.1c0,0,0,0,0,0c0,0-1.3,0.2-2.4-0.6
		c0.1,0,0.1-0.1,0.1-0.1c0,0,3.2,0,4.8-3.2c-0.5,0-1.4-0.1-1.7-0.2c-0.1,0,0-0.1,0-0.1l0,0c0,0,0,0,0,0c0,0,0,0,0,0
		c4.1-2.1,5.7-8.2,6-11.9c-0.8-0.5-1-0.5-1-0.5s0-0.1-2.7,3.1c-1.5,1.8-2.7,2.4-2.7,2.4l-0.1-0.4c0,0,3.6-4.1,3.3-9
		c-3.2-4.5-9.1-4.6-10.7-4.7c-1.6-0.1-4.7,0.3-6,3.8c-0.6,1.5-0.3,2.9,0.4,4.3c1.8-0.3,3-0.6,3-0.6s0.7,0.4,1.2,1.2
		c0.5,0.8-1.4,0.8-1.4,0.8l-1.9,0.2c0.1,0.2,0.2,0.4,0.4,0.6c0.2,0.3,0.4,0.5,0.6,0.7c1.7-0.5,2.7-0.8,2.7-0.8s0.5,0.3,1,1
		c0.5,0.7-1,0.9-1,0.9l-1.3,0.3c1.6,1.3,3,1.8,3,1.8l-0.1,0.1c0,0-2.4-0.2-4.5-1.5l-16,3.7c0,0-0.7-0.4-0.5-0.5
		c0.2-0.1,9.3-2.8,15-4.5c-0.5-0.5-0.9-1-1.3-1.5l-17.5,2.2c0,0-0.8-0.5-0.5-0.5c0.2,0,10.6-2,17.1-3.2c-0.7-1.2-1.1-2.5-1-3.7
		c-1.5,0.7-3.8,1.4-7.3,1.3c-4.7-0.1-19.2-3-24.1,2c-2.6,2.7-2.2,4.4-2.2,4.4s-0.6-0.6-1-1.1c-1.1,3.3-1,7.8,1.5,10.7l0.4,1.4
		c-3.4-2.8-8.3-7.6-3.3-17.8c0,0,0.3,0.8,0.8,1.7c2.4-4.5,6.2-6.2,10.2-6.7c-0.1-0.1-0.3-0.1-0.4-0.2c-0.5-0.3-1-0.5-1.5-0.8
		c-6.5-3.3-16.3-7.2-25.5-4.4c0.5,2,1.1,4.4,1.9,6.6c1.6,4.2,4,7.5,6.4,10.1c0.2,0.8,0.4,1.6,0.7,2.4c-7.6-6.5-14.8-17.3-19.1-25.2
		c-0.3-0.6-0.6-1.2-0.9-1.8c-1-1.7-2-3.5-3-5.3c-3.8-6.9-7.4-15.4-8.4-17.1c-1.1-2-2.1-3.9-3.2-5.5c-0.1-0.1-0.1-0.1-0.2-0.2
		c-1.5-1.9-4.7-5.3-7.3-8c0.1,2.3,0,4,0,4s-0.2-0.2-0.2-0.2c-1.3-3.6-4.8-9.6-9.4-9.9c-5-0.4-9,3.6-9.1,4.9
		c-0.1,0.8,1.2,2.9,1.4,3.1c0,0,0.2,0.1,0.5,0.1c1.4,0.1,5.1,0.3,8.1,1.5c3.5,1.1,5.2,2.8,5.5,3c0.3,0.2,2.1,0.2,3-0.3
		c0.3,0.5,3.4,6.1,4.2,8.6c0.7,2,5.7,22,8.6,36.2c0.8,3.4,2.1,7,3.2,7.6c3.4,0.8,8.7,1.1,8.9,1.2c0.3,0.1,0.5,0.6,0.5,0.6
		s-3.6,0.8-8,1.4c0.2,0.5-0.2,1.3-0.5,2.2c0,0,1.3-0.8,1.8,0.7c0.6,1.7,1.7,4.6,4.1,7.9c3.3,4.5,9.3,7.1,8.9,8.6c0,0,0,0,0,0
		c2.7-1.4,5.4-1.8,7.4-1.9c-3.1-2.2-6.3-4.4-6.3-4.4v-0.4c0,0,19.3,8,23.2,8.3c-0.2-2.7-1-4.7-1.1-5c-0.1-0.4,0.3-0.1,0.3-0.1
		c9.3,12.3,2.2,22.7,0.5,24.9c0,0,0,0.1,0,0.1c-0.1,0.1-0.1,0.2-0.2,0.2c-0.1,0.1-0.1,0.2-0.1,0.2c0,0,0,0,0,0
		c-0.2,0.1-0.4,0.2-0.7,0.2c-2.3,0.5-4.6,1.1-6.8,1.7c-21.3,5.6-31.5,12.2-41.1,20.1c-8.3,6.8-13.3,14.6-15.5,18.6
		C320.7,346.8,320.8,346.9,320.9,346.9L320.9,346.9z M330.1,338.5c-0.1,0-0.1,0-0.2-0.2c1-2.2,8.8-8.9,17.2-14.1
		c18.3-11.3,35.4-13.5,35.4-13.5c-0.1,0.2-0.9,1.6-1.8,3c0,0,0.2,0,0.2,0c11.6-5.2,13.1-16.6,13.2-21l0.6,0.6
		c0.4,8-3.1,24.9-17.1,30.9C371.2,326.2,347,326,330.1,338.5L330.1,338.5z M299.8,324.1c9.9,0.1,18.8-3.5,24.3-9.4
		c6.7-7.1,11.1-11.6,14.4-14.7c-0.5-0.8-0.9-1.6-1.2-2.6c-0.5-1.6-1-3.1-1.3-4.3c-3.9-11.3-6.4-26.8-9.2-36.6
		c-0.2,1-0.3,2.8-0.3,5.6c0.4,14.7,2.9,22.4,4.4,27.7c1.1,4-3.2,12.8-9.6,18.1c-5.9,4.8-11.9,6.3-16.7,6.7
		c-8,0.7-22.5-1.3-33.2-15.1l0.5-0.1c0,0,12.9,12.5,31.2,11.8c4.9-0.2,9.3-1.6,15-6.2c4.9-3.9,8.9-10.9,7.9-14.8
		c-2.3-8.9-6-36.9-1.4-46.8v0c0,0,0,0,0,0c0,0,0.1-0.2,0.1-0.2l0.7,2.1c4.2,10.8,6.7,22.1,9.3,30.5c1.2-2.2,2.7-4.5,2.7-4.5
		c0,0.1,0.1,0.2,0.1,0.2c-1.3,5.4-2.6,14.9,4.6,20c5.2,3.6,14.1,1.6,14.6,0.6c0.5-1,0.8-5.2,0.8-5.6c0-0.3-4.8-3.1-7.8-6.6
		c-3.1-3.6-4.3-7.8-4.3-7.8s-1.4-0.2-3.7,0.8c0.2-1,1.2-2.7,2.1-4.3c-6.3-12.4-13.6-25.8-17.6-36.2c-0.3-0.8-4,0.5-4.5,1.1
		c0,0.7,0.2,1.6,0.7,3.1c-1.2,3.1-3,7.9-5.5,13.3c-0.3,0.9-0.8,1.8-1.4,2.7c-1.9,3.6-4.9,8.2-8.7,10.4c6.8,7.1,8,16.9,6.2,26.1
		c-0.6,3.3-1.6,5.6-1.6,5.6l-0.3-1c0,0,1.3-4.5,0.6-11.1c-1.1-10.7-7.1-19.3-19.7-22.6c-6.6-1.7-13.6-1.2-19.4,1.5
		c-6.1,2.8-10.8,8-13.7,14.4c-0.1,0-0.3-0.2-0.3-0.2s0.2-0.9,0.3-1.3c1-3.2,2.6-6.3,4.6-9c-1.1-1.4-3.2-3.6-6.8-5.3
		c-4.6-2.2-9.9-2.6-12-2.2c1.2,2.1,2.6,4.5,2.6,4.5l-0.3,0c0,0-7-1.6-10.2-1.6c-3.5,1.7-8.2,4.9-13.3,11.8c0,0-0.2,0.4,0.3,0.3
		c0.4,0,19.1-5.1,33.1,9.2c0.3-0.9,0.7-1.4,0.7-1.4l0.2,0.2c0,0-0.2,4.2,1.5,11.6c0.8,3.5,2.5,7.7,5,11.6
		c5.6,8.5,11.7,14.8,25.2,18.4C293.1,323.6,296.5,324.1,299.8,324.1z M351.6,304.4c2,0,3.4-0.5,3.6-0.9c0.1-0.3,0.2-0.8,0.3-1.5
		c-3.2,0.7-6.7,0.6-10.6-0.7c-1.2-0.4-2.4-1.1-3.5-1.8c0.3,0.5,0.6,1,0.8,1.3c0.7,0.8,1.5,1.4,2.5,2
		C347.1,304,349.7,304.5,351.6,304.4L351.6,304.4z M351.9,300.5c3.2,0,5.5-0.9,5.8-1.6c0.4-1.1,1.2-3.2,1.2-3.6
		c0-0.2-0.5-0.7-1.3-1.3c-5.5,3-13.3,2.1-18.4-1.6c0.8,3,2.6,5.8,6.1,7C347.7,300.2,350,300.5,351.9,300.5z M404.6,290.9
		c-1.1-0.1-1.9-0.3-1.9-0.3l0.4-0.4c0,0,4,0.2,4.5-1.8c-0.8,0-1.6-0.2-2.1-0.6c-3.5-2.1-4.6-7.1-1.5-11.3c3.4-4.5,11.3-5.4,14.9-3.2
		c0.9,0.3,3.5,0.2,5.3-0.7c1.8-1,4.5-3.6,4.9-4c0.1-0.1,0.4,0,0.4,0s-3.3,4.7-4.1,5c-0.2,0.1-0.7,0.2-1.3,0.3c2,0.4,3.5,1.8,3.5,1.8
		s0,0.2-0.2,0.3c0,0-1.6-0.2-5.2,1.5c-2.7,1.3-7.4,7.8-10.2,10.5C409.5,290.6,406.5,291,404.6,290.9L404.6,290.9z M409.7,286
		c1.7-0.8,3.1-1.8,4.2-2.7c-0.9,0-1.7-0.2-2.4-0.7c0.1,0,0.3,0,0.4-0.1c0.6-0.3,0.8-1.1,0.4-1.8c-0.4-0.7-1.1-0.9-1.7-0.6
		c-0.2,0.1-0.3,0.3-0.4,0.5c-0.4-1.6,0.4-3.5,2-4.4c2-1.2,4.4-0.6,5.5,1.2c0.2,0.3,0.3,0.5,0.3,0.8c0.7-1.5,0.8-2.5,0.8-2.5l0-0.1
		c-2.6-2.3-7.7-1.8-10.4,0.8c-2.8,2.8-2.3,7,0.5,9.2C409.2,285.8,409.4,285.9,409.7,286L409.7,286z M437.8,255.4
		c-1.9-4.2-6.1-5.1-8.2-5.3c-0.8-0.1-2.1-0.1-3,0.3c5.7,0.7,8.2,3.5,9.1,4.6c0,0,0,0,0,0C435.9,255,436.8,255.1,437.8,255.4
		L437.8,255.4z M309.3,200.9c2.3-3.8,7.6-6.1,12-5.5c-1.1-1-2.2-1.8-2.6-1.9c-1-0.3-2.8,0-3.8,0.2c-4.4,0.9-7.4,3.9-7.3,4.6
		c0.1,0.7,0.6,2.1,0.8,2.3C308.5,200.8,308.8,200.9,309.3,200.9z M308.8,194.7c1.8-1.1,4-2.1,6-2.6c0.9-0.2,1.7-0.2,2.5-0.1
		c-0.6-0.7-1.6-1.1-2.7-1c0,0,0,0,0,0c-3.3,0.3-6.3,2-6.2,2.6C308.4,193.7,308.6,194.2,308.8,194.7z"/>
	<path class="st0" d="M436.3,216.1v15.5c0,0-0.6,0.8-1.9,1.6c-1.3,0.8-3.1,2-7.6,2c-1.8,0-5.4-0.2-5.4-0.2l-92.5,0l2.2-4.3l-1.2-2.9
		c-0.4,4.8-5.2,7.2-9.5,7.4c-0.5,0-0.9,0-1.3,0c-0.1,0-0.2,0-0.3,0H285c-0.2,0.1-1.1,0.2-1.8,0.3c-6.3,1-10.2,0-13.2-1.9
		c-3.1-1.9-4.8-5.1-4.8-5.1s-1.6,4.6-1.8,5.3c-0.1,0.4-0.2,0.6-0.3,0.9h0v0h-33.7c0,0,5.1-10.7,5.1-12.1c0-4.6,0-9.5,0-12.5
		s-6.8-4.1-6.8-4.1l-2.1-14.5c0,0,10.2,2.5,11.6,2.9c1.4,0.4,2.5,0.9,3.9,1.7c0.9,0.5,1.7,1.1,2.4,1.7c1.4,0.4,2.1,0.6,3.5,0.9
		c2.3,0.6,5,1.2,7.3,1.7c2.2,0.5,4.4,1,6.7,1.5c2.3,0.5,4.5,1,6.8,1.4c1.7,0.3,3.3,0.6,5,0.9c0.2,0,3.1,0.6,6.3,1.1
		c3.5,0.6,7.3,1.1,8,1.2c2.8,0.4,5.7,0.7,8.6,1c1.8,0.2,3.7,0.4,5.6,0.6c0.9,0.1,1.4,0.1,2.3,0.2c1.4,0.1,2.1,0.2,3.5,0.3
		c0.8,0.1,1.2,0.1,2,0.1c1.6,0.1,2.4,0.2,4,0.2c2,0.1,3,0.2,5,0.2c1.6,0.1,2.5,0.1,4.1,0.1c1,0,1.6,0,2.6,0.1c1.6,0,4.3,0.1,4.5,0.1
		c2.2,0,4.4,0,6.6,0c0.3,0,0.5,0,0.8,0c2,0,4-0.1,6-0.1c0.7,0,1.1,0,1.8-0.1c2-0.1,3-0.1,5-0.2c2.3-0.1,4.5-0.3,6.8-0.5
		c1.1-0.1,1.7-0.1,2.8-0.2c0,0,1.3-0.1,2.1-0.1c0.9-0.1,1.4-0.1,2.4-0.2c2.2-0.2,4.5-0.5,6.7-0.7c3.3-0.4,6.6-0.8,9.9-1.3
		c0.5-0.1,2.1-0.3,2.2-0.3c0.7-0.1,1.1-0.2,1.9-0.3c1.9-0.3,3.7-0.6,5.6-0.9c2.5-0.4,5-0.9,7.5-1.4c0.2,0,0.3-0.1,0.5-0.1
		c1.9-0.4,4.3-0.8,6.1-1.2c0.3-0.1,0.4-0.1,0.6-0.1c2.9-0.6,5.8-1.3,8.7-2c2.2-0.6,5-1.1,7.2-1.7c0.3-0.1,0.4-0.1,0.6-0.2
		c0.2-0.1,0.5-0.2,0.6-0.3c0,0,0.1,0,0.1-0.1c1.2-0.6,2.4-1.1,3.4-1.3c3.2-0.8,7.8-1.1,10.2,1.9c2.2,2.8,2.6,6.3,2.9,9.8
		c0,0,0,0.1,0,0.1c0,0,0,0,0,0v0.1C437.8,210.6,437.1,213.7,436.3,216.1"/>
	<path class="st2" d="M333.7,233.1l0.4-0.9l0.7-1.6c0.1-0.2,0.1-0.4,0.1-0.7c0-0.3-0.1-0.7-0.4-1.4c-1.4-3.6-2.9-7.2-4.3-10.8
		c-0.4-0.9-0.7-1.5-1.2-2.1c-0.8,0.9-1.5,1.6-2,2.2c-0.7,0.9-1.3,1.8-1.9,2.8l-0.4,0.6l-0.2,0.4l-0.4,0.7c1.5,0.9,2.3,2.2,2.6,4
		c0.1,0.4,0.1,0.7,0.1,1.1c0,2-1,3.6-2.8,4.6c-1.6,0.9-3.4,1-4.4,1c-0.3,0-0.7,0-1.1,0h-0.1c-2.8,0-5.6,0-8.4-0.1l-2,0l-0.2,0
		l-2.4,0c-2,0-4-0.1-6.1-0.1l-0.6,0l-0.9,0v0l-1,0l-2.3,0c-1.1,0-2,0-3,0c-1.1,0-2.3,0-3.5-0.1l-2,0l-1.1,0l0.2-0.4l-0.5,0.1l-1,0.2
		l-0.2,0l-0.3,0.1l-0.8,0.1l-0.1,0l-0.2,0l-0.1,0c-0.4,0.1-0.8,0.1-1.3,0.2c-0.7,0.1-1.4,0.1-1.9,0.1c-0.1,0-0.2,0-0.3,0
		c-6.6-0.2-11.3-4.8-12-11.8c-0.1-0.5-0.1-1.1-0.1-1.7v-0.1c0-2.1,0.4-4.2,1.2-6c1.6-3.6,5-5.7,9.2-5.7c0.7,0,1.4,0.1,2.1,0.2
		c0.4,0.1,0.8,0.1,1.3,0.2c1.3,0.3,2.6,0.6,3.8,1.1l0.1,0l1.3,0.1l2.6,0.3c2.4,0.3,4.8,0.5,7.2,0.8l2.1,0.2l1.2,0.1l-0.7,0.9
		l-1.3,1.7c-0.4,0.5-0.6,1-0.7,1.9c0,0.1,0,0.2,0,0.4l0,0.6c1.1-2.4,2.8-5.3,5.7-5.3c0.2,0,0.4,0,0.6,0l0.8,0.1l0.5,0
		c1.2,0.1,1.9,0.1,3.1,0.2l1.7,0.1l1.6,0.1c2.4,0.1,5,0.3,7.5,0.4l2.5,0.1l1.4,0.1l-0.9,1l-1.7,1.9c-0.6,0.7-0.7,0.9-0.7,2v0.4
		c0.2-0.4,0.5-0.8,0.7-1.1c1.1-1.7,1.7-2.6,2.4-3.2c1-0.9,1.9-1,2.7-1h0.2l0.9,0c1.3,0,2.1,0,3.3,0l2.2,0l0.5,0c0.5,0,1.1,0,1.6,0
		c1.2,0,2.3,0,3.5,0l2.1,0l1.1,0l0.3,0l2.1-0.1c2.5-0.1,5-0.2,7.5-0.3l2.4-0.1c3-0.2,6.1-0.4,9.1-0.6c0.1,0,0.2,0,0.4,0
		c0.1,0,0.2,0,0.2,0l0.1,0l0.1,0c3.2,0.1,7,1.5,7.6,5.3c0.1,0.4,0.1,0.8,0.1,1.3c0,1.9-0.9,3.6-2.5,4.8c0.9,0.7,1.5,1.6,1.7,2.8
		c0.1,0.5,0.2,1.1,0.2,1.7c0,3.6-3.1,5.7-6,5.9l-0.9,0.1l-0.1,0h0l-0.2,0l-0.2,0c-3.1,0.1-6.3,0.1-9.4,0.1l-2.1,0l-1.1,0l0.6-1
		l1-1.8c0.5-0.8,0.6-1.2,0.7-2.1l0-0.1l0,0c0-0.1,0-0.2,0-0.3l0-5.6l0-5.5c0-0.7-0.1-1.1-0.3-1.5c-0.6,0.7-0.9,1.3-1.3,2.3
		c-1.6,4.6-3.4,9.3-5.2,14.4l-0.3,0.8l-0.2,0.4l-0.5,0l-0.8,0c-1.8,0-3.7,0-5.5,0l-1.7,0L333.7,233.1L333.7,233.1z M366.7,232.7
		l0.5-1l1-1.8c0.5-0.9,0.6-1.3,0.7-2.3l0-0.1l0,0c0-0.1,0-0.2,0-0.4l0-3.9l0.1-7.8v-0.1c0-1-0.1-1.5-0.7-2.2l-1.5-1.7l-0.8-0.9
		l1.2-0.1l2.2-0.2c3-0.3,6.1-0.7,9.1-1c0.3,0,0.5,0,0.7,0l0.1,0l0.2,0h0c1.2,0,2.9,0.2,4.5,1.1c1.6,1,2.7,2.4,3,4.3
		c0.1,0.4,0.1,0.9,0.1,1.3c0,2-1,3.9-2.6,5.3c1,0.7,1.6,1.7,1.9,3c0.1,0.6,0.2,1.1,0.2,1.8c0,3.3-2.6,6-6,6.3l-0.8,0.1l-0.1,0
		l-0.1,0h0l-0.2,0l-0.2,0c-3,0.1-6.2,0.2-9.4,0.2l-2,0L366.7,232.7L366.7,232.7z M297.9,232.5l0.2-0.6c0,0,0.1-0.4,0.2-0.9
		c0-0.3-0.1-1-1.4-2.6c-0.4-0.5-0.8-1-1.1-1.5v0.4c0,1.4,0,2,0.3,2.5l1.3,1.9L297.9,232.5z M385,232.2l0.7-1l1.3-1.9
		c0.6-0.9,0.8-1.5,0.8-3l0-3.2l0.1-9.7l0-0.1c0-1.2-0.1-1.9-0.7-2.7l-0.9-1.5l-0.5-0.8l1-0.1l1.7-0.3c2.2-0.3,4.5-0.7,6.8-1.1
		l2.3-0.4l1.3-0.2l-0.6,1.2l-1,2.1c-0.6,1.2-0.8,1.8-0.8,3.4l-0.1,13.4v0.1c0,1.3,0.3,2.2,0.9,3.2l0.6,0.9l-0.9-4.8l-0.4-2.2
		l-0.2-1.3l1.2,0.6c0,0,2.2,1.1,3.7,1.3c0.9,0.1,1.7,0.2,2.3,0.2c0,0,0.1,0,0.1,0c0-3.1,0-9.5,0-12.9c0-1.6-0.2-1.9-0.8-2.6
		l-1.2-1.5l-0.6-0.7l0.9-0.3l1.9-0.6l0,0l0,0c2.5-0.5,4.9-1,7.3-1.5l2.5-0.5l1.4-0.3l-0.7,1.2l-1.2,2.2c-0.7,1.4-1,2.3-1,3.9l0,4.6
		l0,4.9l0,3.7v0.1c0.5-0.1,1-0.1,1.6-0.3c1.4-0.3,2.1-0.7,2.2-0.7l1.4-0.8l0.5-0.3c0-0.8,0.1-1.5,0.3-2.4c0.7-2.5,3.7-5.4,6.7-8.2
		l0.4-0.4l0.1-0.1c0.9-0.8,1-1.6,1-2.5c0-0.3-0.1-0.5-0.2-0.6c0,0-0.1-0.1-0.4-0.1c-0.1,0-0.2,0-0.4,0c-0.6,0.1-1.4,0.5-2.2,1.1
		c-1.1,0.7-2.3,1.8-3.3,2.9c-0.6,0.7-1.7,2.1-1.7,2.1l-0.4,0.5l-0.5-0.3l-0.1-0.1l-0.4-0.2l0.1-0.4c0-0.3,0.9-7.1,1.2-9.1l0-0.2
		l0.1-0.6l0.1-0.3l0.3-0.2l0.5-0.3l0.1-0.1l0.2-0.1l0.3-0.1l0.2-0.1c0.4-0.2,0.7-0.3,1.1-0.5l0.1,0c1.1-0.5,2.1-0.9,3.1-1.1
		c0.8-0.2,1.6-0.3,2.4-0.3c4.5,0,7.5,3.7,7.6,9.3v0.2c0,4.8-2.2,7.7-5.5,10.7l-0.1,0.1l-0.5,0.4c-1.1,1-1.6,1.4-2,2.1
		c-0.1,0.3-0.2,0.5-0.2,0.8c0,0.2,0,0.3,0.1,0.3c0,0,0,0,0.1,0c0.7-0.1,1.3-0.3,1.9-0.6c0.5-0.3,1.3-0.8,1.8-1.4
		c0.6-0.6,1.5-1.8,1.5-1.9l0.3-0.4l0.5,0.2l0.1,0l0.4,0.2v0.4l0,8.4v0.4l-0.4,0.2l-0.7,0.3c-0.2,0.1-0.3,0.1-0.4,0.2
		c-1.5,0.7-2.8,1.1-4.2,1.1c-0.2,0-0.4,0-0.5,0c-3.1,0-5.7-1.5-7.2-3.9l0.4,2.5l0.2,1.4l0.1,0.8l-0.8,0l-1.4,0l-18.1,0.1l-0.7,0
		l0.1,0.1l-1.2,0l-2.1,0c-2.4,0-4.9,0-7.3,0.1l-2.3,0L385,232.2L385,232.2z M285.1,232.1l0.3-0.5l1-1.7c0.5-0.9,0.6-1.4,0.6-2.6
		v-0.1l-0.1-8l0-1.7l-0.2,0.2l-0.4-0.2c0,0-2.4-1.5-4.5-2.2c-0.8-0.3-1.5-0.5-2.1-0.5c-0.2,0-0.4,0-0.7,0c-1.6,0-2.5,0.8-3.1,1.5
		c-0.8,1-1.2,2.5-1.2,4.1l0,0.1c0,0.1,0,0.2,0,0.3c0,0.1,0,0.2,0,0.3l0,0.1c0.1,2.2,1.2,5.7,3.9,5.8h0.2c0.7,0,1.5-0.2,2.4-0.6
		c0.7-0.3,1.1-0.6,1.4-0.7c0.7-0.4,1.2-0.9,1.2-0.9l0.4-0.3l0.4,0.3l0.1,0.1l0.2,0.2v0.3l0,6.3V232.1L285.1,232.1z M261.6,231.7
		l-0.5,0l-0.9,0c-1.8,0-3.7-0.1-5.5-0.1l-1.5,0l-0.8,0l0.2-0.8l0.4-1.5c0.1-0.4,0.2-0.8,0.2-1.2v-0.1l0-0.1c0-0.6-0.2-1.2-0.5-2.3
		c-1-3.3-1.9-6.7-2.8-10.1c-0.5-1.8-1-3.7-1.5-5.5c-0.5-1.9-1-2.9-1.9-4.5l-1.4-2.3l-0.8-1.3l1.5,0.3l2.6,0.6
		c1.8,0.4,3.7,0.8,5.7,1.2l1.5,0.3l0.8,0.2l0,0l0.9,0.2l2.3,0.4c2.5,0.5,5.2,1,7.9,1.4l2,0.4l1.1,0.2l-0.7,0.9l-1.3,1.6
		c-0.8,0.9-1.1,1.6-1.5,3c-0.4,1.4-0.8,2.8-1.2,4.2c-1.3,4.4-2.6,8.9-3.8,13.4l-0.2,0.9L261.6,231.7L261.6,231.7z M336.4,231.3
		c1.8,0,3.7,0,5.5,0c1.7-4.8,3.5-9.6,5.2-14.4c0.5-1.4,1-2.2,1.9-3.3c-2.6,0.1-5.3,0.2-7.9,0.3c0.4,0.6,0.6,1.4,0.6,2
		c0,0.1,0,0.2,0,0.3c-0.1,0.4-0.2,0.7-0.3,1.1c0,0.2-0.1,0.3-0.1,0.5c0,0.1,0,0.1,0,0.2l0,0.1l-0.1,0c-0.1,0-0.1,0-0.2,0
		c-2.1,0-3.2,0.1-5.3,0.1c-0.1,0-0.1,0-0.1,0h-0.1l0-0.1c0-0.1,0-0.1,0-0.1c-0.1-0.2-0.1-0.3-0.2-0.5c0-0.1,0-0.1-0.1-0.2
		c0-0.1-0.1-0.2-0.1-0.3c-0.1-0.4-0.2-0.8-0.2-1.1v0c0-0.5,0.2-1.1,0.6-1.7c-1.2,0-2.3,0-3.5,0c-0.7,0-1.5,0-2.2,0
		c1,1,1.5,1.8,2,3.2c1.4,3.6,2.9,7.2,4.3,10.8c0.4,0.9,0.5,1.5,0.5,2l0,0C336.7,230.4,336.6,230.8,336.4,231.3L336.4,231.3z
		 M318.4,231.2h0.1c0.3,0,0.7,0,1,0c1.1,0,2.5-0.2,3.6-0.8c1.1-0.6,1.9-1.5,1.9-3v0c0-0.3,0-0.5,0-0.7c-0.2-1.5-1-2.4-2.5-3
		c-0.2-0.1-0.3-0.1-0.4-0.2c-0.1,0-0.1,0-0.2-0.1c-0.1,0-0.1,0-0.2-0.1l-0.1,0l0.1-0.1c0-0.1,0.1-0.1,0.1-0.2
		c0.5-0.9,0.8-1.3,1.3-2.2c0.2-0.4,0.3-0.6,0.6-1c0.5-0.9,1.2-1.9,2-3c0.6-0.8,1.4-1.7,2.3-2.5l0,0c0.1-0.1,0.2-0.2,0.3-0.3
		c-1.4,0-2.2,0-3.8,0c-0.3,0-0.5,0-0.9,0c0,0-0.1,0-0.1,0c-0.6,0-0.9,0.1-1.5,0.5c-0.5,0.5-1.1,1.3-2,2.8c-1.2,1.9-2.3,3.8-3,6
		c0,0,0.1,0,0.1,0c0,0,0,0,0,0c0.2,0,0.4,0,0.6,0.1c0.8,0.2,1.5,0.5,1.9,1c0.5,0.6,0.8,1.1,0.9,1.6c0,0,0,0,0,0.1c0,0.2,0,0.3,0,0.5
		v0v0c0,0.8-0.2,1.3-0.8,1.7c-0.5,0.4-1.3,0.6-2.4,0.6h-0.1c-0.2,0-1.2,0-1.2,0l-0.1,0l0-0.1v-0.2l0-11.4v-0.1
		c0-1.5,0.2-2.2,1.2-3.2c-2.5-0.1-5-0.2-7.5-0.4c1,1.1,1.3,2,1.3,3.4c0,3.7,0,7.4,0.1,11.1v0.1c0,1.4-0.2,2.2-0.9,3.3
		C312.8,231.2,315.6,231.2,318.4,231.2L318.4,231.2z M249.1,231.2l-1.1,0l-2.1,0c-2.4,0-7.6-0.1-7.6-0.1l-2.1,0l-1.2,0l0.6-1
		l1.2-1.8c0.9-1.4,1.2-2.3,1.2-4.2V224l0-7.4l0-7.1c0-1.3-0.1-1.6-0.7-2.8c-0.8-1.5-2.3-2.5-4.8-3l-0.8-0.2l-0.4-0.1l-0.1-0.4
		l-0.1-0.8l-0.4-2.6l-0.1-0.3l-0.3-1.8l-0.2-1l1,0.3l1.8,0.5c0.5,0.1,1.3,0.3,2.1,0.5c1.1,0.3,1.9,0.5,2.4,0.7
		c1.6,0.6,2.9,1.3,3.5,1.6c3.7,2.1,5.7,5.3,5.7,9.3l0,0.5l0,0.5l0.1,14c0,0.3,0,0.5,0,0.6c0.1,1.5,0.3,2.4,0.8,3.4l1,1.8
		L249.1,231.2L249.1,231.2z M351.3,231.2c3.1,0,6.3-0.1,9.4-0.1c0.2,0,0.2,0,0.4,0c0.4,0,0.6,0,0.9-0.1c2.2-0.1,4.3-1.6,4.3-4.1v0
		c0-0.4-0.1-0.8-0.2-1.2c-0.4-1.6-1.5-2.4-3.9-2.9c-0.1,0-0.6-0.1-0.6-0.1l-0.1,0l0-0.2l0-0.1l0.1,0c0,0,0.6-0.1,0.8-0.1
		c2.1-0.4,4.3-2.1,4.3-4.6v0c0-0.4,0-0.7-0.1-0.9c-0.5-2.8-3.5-3.7-5.9-3.8c-0.1,0-0.3,0-0.4,0c-0.1,0-0.1,0-0.2,0
		c-3.1,0.2-6.1,0.4-9.2,0.6c0.9,1,1.2,1.9,1.2,3.2v0.1c0,3.7-0.1,7.4-0.1,11.1c0,0.2,0,0.4,0,0.6
		C352.1,229.4,351.9,230.1,351.3,231.2L351.3,231.2z M307.8,231.1l0.6-1c0.5-0.8,0.6-1.2,0.6-2.3v-0.1l0-5.5l0-5.6
		c0-1-0.2-1.4-0.9-2.2l-0.4-0.4l-0.4,0.3c-1.3,1.3-2.5,2.7-3.5,4.2c-0.5,0.8-1,1.5-2.4,4.3l-0.2,0.3c1.7,2.1,3.6,4.4,5.5,6.6
		L307.8,231.1z M305.4,231.1c-2.1-2.5-4.1-4.9-6.1-7.5c0,0-0.1-0.1-0.1-0.1l0-0.1l0-0.1c0,0,0-0.1,0.1-0.1c0.2-0.5,0.4-0.7,0.6-1.2
		c1.5-2.9,1.9-3.6,2.5-4.5c1.1-1.7,2.4-3.2,3.8-4.6c-1.2-0.1-1.8-0.1-3.1-0.2c-0.5,0-0.8-0.1-1.3-0.1h0l0,0c-0.1,0-0.3,0-0.4,0
		c-2.5,0-4,4.3-4.9,6.2c-0.6,1.1-1.1,2.3-1.7,3.6c1.2,1.6,2.4,3.2,3.6,4.7c0.4,0.6,1,1.4,1.4,2.1c0.4,0.7,0.3,1.4,0.3,1.6
		C302,231,303.4,231.1,305.4,231.1z M278.8,231c0.5,0,1.1,0,1.8-0.1c0.4,0,0.9-0.1,1.3-0.2c0.1,0,0.1,0,0.2,0c0.3,0,0.5-0.1,0.8-0.1
		c0.2,0,0.3,0,0.4-0.1c0-1.3,0-2.1,0-3.4c0,0-0.1,0-0.1,0.1c-0.1,0.1-0.1,0.1-0.2,0.2c0,0,0,0,0,0l0,0l0,0c0,0,0,0,0,0
		c-0.1,0.1-0.3,0.1-0.4,0.2c-0.1,0.1-0.3,0.1-0.4,0.2c-1.1,0.5-2.1,0.8-3.1,0.8c-0.1,0-0.1,0-0.2,0c-3.7-0.2-5.6-4.2-5.7-7.5
		c0-0.1,0-0.3,0-0.4c0-0.1,0-0.2,0-0.3c0-0.1,0-0.1,0-0.2c0-2,0.6-3.8,1.6-5.2c1-1.4,2.6-2.2,4.5-2.2c0.3,0,0.6,0,0.9,0.1h0
		c0.8,0.1,1.6,0.3,2.5,0.6c0.9,0.3,1.7,0.8,2.4,1.3c-0.7-1.5-1-2.4-1.8-4.1c-1.1-0.5-2.3-0.8-3.4-1c-0.4-0.1-0.8-0.1-1.2-0.2
		c-0.6-0.1-1.2-0.1-1.8-0.1c-3.2,0-6.1,1.4-7.5,4.6c-0.7,1.5-1.1,3.3-1.1,5.2v0.1c0,0.5,0,1,0.1,1.5c0.6,5.9,4.5,10,10.3,10.1
		C278.6,231.1,278.7,231.1,278.8,231L278.8,231z M369.9,230.9c3.1-0.1,6.3-0.1,9.4-0.2c0.2,0,0.2,0,0.4,0c0.4,0,0.6,0,0.9-0.1
		c2.4-0.1,4.3-1.9,4.4-4.5v0c0-0.5-0.1-0.9-0.1-1.3c-0.4-1.7-1.5-2.6-3.9-3.1c-0.2,0-0.6-0.1-0.6-0.1l-0.1,0l0.1-0.3l0.1,0
		c0,0,0.5-0.1,0.8-0.1c2.2-0.5,4.3-2.5,4.3-5.1v0c0-0.4,0-0.7-0.1-1c-0.5-2.8-3.2-3.9-5.7-3.9c-0.1,0-0.1,0-0.2,0
		c-0.2,0-0.4,0-0.6,0c-3.1,0.4-6.1,0.7-9.2,1c0.9,1,1.2,1.9,1.2,3.3v0.1c0,3.9-0.1,7.8-0.1,11.7c0,0.2,0,0.4,0,0.6
		C370.7,229,370.5,229.7,369.9,230.9L369.9,230.9z M294.5,230.9c-0.5-0.8-0.6-1.9-0.6-3.5c0-3.9-0.1-7.8-0.1-11.7v-0.1
		c0-0.2,0-0.4,0-0.5c0.1-1.1,0.4-2,1-2.8c-2.4-0.2-4.9-0.5-7.3-0.8c0.7,1.1,1,2,1.2,3.1c0,0.2,0,0.4,0,0.6c0,4,0.1,8,0.1,12
		c0,0,0,0.1,0,0.1c0,1.5-0.2,2.4-0.9,3.5C290.3,230.8,292.2,230.8,294.5,230.9L294.5,230.9z M388.5,230.4c2.4,0,4.9,0,7.3-0.1
		c-0.9-1.3-1.2-2.6-1.2-4.2c0,0,0-0.1,0-0.1c0-4.5,0.1-8.9,0.1-13.4c0-1.8,0.2-2.7,1-4.2c-2.3,0.4-4.6,0.8-6.9,1.1
		c0.7,1.2,0.9,2.1,0.9,3.7v0.1c0,4.3-0.1,8.7-0.1,13C389.7,228.1,389.5,229.1,388.5,230.4L388.5,230.4z M399.8,230.2l18.1-0.2
		l-1-5.8c0,0-0.9,0.5-2.6,0.9c-2,0.4-3.8,0.5-3.8,0.5c0,0,0-2.6,0-5.8c0-3.2,0-7,0.1-9.5c0-1.8,0.3-3.1,1.2-4.7
		c-2.5,0.5-4.9,1-7.4,1.5c0.9,1.2,1.2,2.1,1.2,4c0,4.7,0.1,14.7,0.1,14.7s-2.3,0.3-4,0.1c-1.7-0.2-2.8-0.7-2.8-0.7L399.8,230.2z
		 M260.2,229.9c1.5-5.9,3.3-11.8,5.1-17.7c0.5-1.7,1-2.6,1.9-3.7c-2.6-0.5-5.3-0.9-7.9-1.4c0.4,0.9,0.7,1.9,0.7,2.7
		c0,0.1,0,0.3,0,0.4c-0.1,0.6-0.1,0.9-0.2,1.4c0,0.3-0.1,0.4-0.1,0.6c0,0.1,0,0.1,0,0.2l0,0.1l-0.1,0c-0.1,0-0.1,0-0.2,0
		c-2.1-0.3-3.2-0.5-5.3-0.9c-0.1,0-0.1,0-0.1,0l-0.1,0l0-0.1c0-0.1,0-0.1,0-0.2c-0.1-0.3-0.1-0.4-0.2-0.7c-0.1-0.3-0.1-0.4-0.2-0.7
		c-0.1-0.6-0.2-1.1-0.2-1.6c0,0,0,0,0,0c0-0.8,0.2-1.4,0.6-2.2c-1.9-0.4-3.8-0.8-5.7-1.2c1,1.7,1.5,2.9,2.1,4.9
		c1.4,5.1,2.6,10.5,4.2,15.5c0.4,1.2,0.6,2,0.6,2.8c0,0.1,0,0.1,0,0.2c0,0.5-0.1,1-0.2,1.7C256.5,229.8,258.3,229.9,260.2,229.9
		L260.2,229.9z M426.5,229.4c0.1,0,0.3,0,0.4,0c1.1-0.1,2.2-0.4,3.6-1c0,0,0,0,0,0l0,0l0,0c0,0,0,0,0,0c0.1,0,0.2-0.1,0.3-0.1
		c0-1.9,0-2.9,0-4.8c-0.6,0.7-1.2,1.2-1.9,1.5c-0.8,0.4-1.7,0.7-2.7,0.8h0h0h0h0c-0.5,0-0.9-0.2-1.2-0.4c-0.5-0.4-0.8-1-0.8-1.7v0
		c0-0.6,0.2-1.1,0.4-1.6c0.6-1.2,1.4-1.7,2.9-3.1c3-2.7,4.9-5.3,4.9-9.4c0-0.1,0-0.1,0-0.2c-0.1-4.2-2.2-7.4-5.8-7.4
		c-0.6,0-1.2,0.1-1.9,0.3c-0.8,0.2-1.8,0.6-2.8,1c-0.1,0-0.1,0-0.1,0.1c-0.3,0.1-0.7,0.3-1,0.5c-0.2,0.1-0.3,0.2-0.5,0.3
		c-0.1,0.1-0.2,0.1-0.3,0.2c-0.3,2-0.6,4.1-0.9,6.1c0.9-1.3,2-2.3,3.3-3.2c1-0.7,2-1.2,2.9-1.3c0.3-0.1,0.5-0.1,0.8-0.1
		c0.8,0,1.4,0.3,1.8,0.8c0.4,0.5,0.6,1.1,0.6,1.7v0c-0.1,1.2-0.2,2.5-1.6,3.8c-1.9,1.8-6,5.5-6.7,7.8c-0.3,0.9-0.3,1.8-0.3,2.6
		c0,0,0,0.1,0,0.1C419.9,226.6,422.7,229.4,426.5,229.4L426.5,229.4z M246,229.4c-0.8-1.3-0.9-2.5-1.1-4.1c0-0.3,0-0.5,0-0.8
		c0-4.7,0-9.3-0.1-14c0-0.4,0-0.6,0-0.9c0-3.5-1.9-6.1-4.8-7.7c-0.8-0.4-1.8-1-3.2-1.5c-0.5-0.2-1.2-0.4-2.3-0.7
		c-0.8-0.2-1.6-0.4-2-0.5c0.2,1.1,0.3,1.8,0.5,2.9c2.3,0.5,4.8,1.5,6,3.9c0.8,1.5,0.8,2.1,0.9,3.6c0,4.8,0,9.7,0.1,14.5v0.1
		c0,2.3-0.4,3.5-1.5,5.2C238.4,229.3,243.6,229.3,246,229.4L246,229.4z M358.9,228.5c-0.2,0-0.5,0-0.9,0c-0.1,0-0.2,0-0.3,0
		c0,0,0,0,0,0h0h0h0c-0.1,0-0.2,0-0.3,0c-0.1,0-0.1,0-0.2,0l-0.1,0v-0.2c0-1.6,0-2.4,0-4c0-0.1,0-0.1,0-0.2v-0.1l0.1,0
		c0.1,0,0.1,0,0.2,0c0.4-0.1,0.7-0.1,1-0.1c0.1,0,0.2,0,0.3,0c0,0,0,0,0.1,0c1.9,0,2.9,0.8,3,2.3c0,0.2,0,0.2,0,0.4
		c-0.1,1.3-0.7,1.9-2.3,2.1c0,0,0,0,0,0h0h0c0,0,0,0,0,0C359.3,228.5,359.2,228.5,358.9,228.5z M377.3,227.9c-0.2,0-0.4,0-0.7,0
		c-0.1,0-0.5,0-0.6-0.1c-0.1,0-0.1,0-0.2,0l-0.1,0v-0.1c0-0.1,0-0.1,0-0.2c0-1.7,0-2.6,0-4.3v-0.2l0-0.1l0.1,0c0.1,0,0.1,0,0.2,0
		c0.4-0.1,0.7-0.2,1-0.2c0.2,0,0.4,0,0.5,0h0.1c1.8,0,2.8,0.8,2.8,2.5c0,0.2,0,0.2,0,0.4c-0.1,1.4-0.7,2-2.3,2.3c0,0,0,0,0,0
		C377.9,227.9,377.6,227.9,377.3,227.9L377.3,227.9z M338.4,226L338.4,226c-0.7-2-1-3-1.7-4.9c0-0.1-0.1-0.1-0.1-0.2l0-0.1h0.1
		c0.1,0,0.2,0,0.3,0c1.3,0,1.9,0,3.2,0c0.1,0,0.2,0,0.3,0h0.1l0,0.1c0,0.1,0,0.1-0.1,0.2c-0.6,1.9-0.9,2.9-1.5,4.9l0,0.1h-0.1
		C338.7,226,338.6,226,338.4,226L338.4,226L338.4,226z M257.1,222.7L257.1,222.7c-0.2,0-0.3,0-0.5,0l-0.1,0l0-0.1
		c-0.6-2.2-1.2-4.4-1.7-6.7c0-0.1-0.1-0.2-0.1-0.4l0-0.1l0.1,0c0.1,0,0.2,0,0.3,0c1.3,0.2,1.9,0.3,3.2,0.4c0.1,0,0.2,0,0.3,0l0.1,0
		l0,0.1c0,0.1,0,0.2-0.1,0.3C258.1,218.4,257.6,220.5,257.1,222.7L257.1,222.7L257.1,222.7z M338.6,222.3l0.1-0.3
		c-0.1,0-0.1,0-0.2,0L338.6,222.3L338.6,222.3z M358.4,221.4c0,0-0.1,0-0.1,0c0,0-0.1,0-0.1,0h0h0h0c-0.1,0-0.2,0-0.3,0
		c-0.1,0-0.2,0-0.3,0c-0.1,0-0.1,0-0.2,0l-0.1,0v-0.1c0-0.1,0-0.1,0-0.2c0-2,0-2.9,0-4.9V216l0,0c0,0,0.1,0,0.1-0.1c0,0,0,0,0,0
		c0,0,0,0,0,0l0,0l0,0c0,0,0,0,0,0c0.2,0,0.3-0.1,0.5-0.1c0.7-0.1,1-0.1,1.4-0.1h0c0,0,0,0,0,0c1.5,0.2,2.3,1,2.4,2.6
		C361.9,220.3,360.8,221.3,358.4,221.4L358.4,221.4L358.4,221.4z M377,220.3c0,0-1,0-1,0l-0.1,0l0-0.1c0-0.1,0-0.1,0-0.2
		c0-2.1,0-3.1,0-5.2c0,0,0-0.1,0-0.1v-0.2c0,0,0.6-0.2,0.8-0.2c0.4-0.1,0.7-0.1,1-0.2c0.3,0,0.3,0,0.4-0.1c0.1,0,0.6,0.1,0.9,0.2
		c1,0.3,1.4,1.2,1.5,2.5C380.5,219,379.4,220.2,377,220.3L377,220.3L377,220.3z M337,216.2c1.1,0,1.9,0,3,0c0-0.1,0-0.2,0.1-0.3
		c0-0.2-0.1-0.6-0.3-1l-1.2-1.8l-0.1-0.2l-0.1,0.2l-1.1,1.8c-0.3,0.5-0.3,0.6-0.3,0.7C336.9,215.8,336.9,215.9,337,216.2L337,216.2z
		 M287,215.4l0-0.2c0-0.2,0-0.3,0-0.4c-0.1-1-0.3-1.5-0.8-2.3l-0.7-1.1L287,215.4z M258,210.3c0-0.1,0-0.3,0.1-0.5c0,0,0-0.1,0-0.1
		c0-0.5-0.2-1.3-0.5-1.9l-1-2.1l-0.3-0.7l-0.2,0.4l-0.7,1.4c-0.3,0.5-0.4,0.9-0.4,1.4c0,0.3,0,0.7,0.2,1.2l0.1,0.5
		C256.3,210.1,257.1,210.2,258,210.3L258,210.3z"/>
	<path class="st6" d="M278.9,235.9c-3.9,0.1-6.6-0.9-8.9-2.3c-3.1-1.9-4.8-5.1-4.8-5.1s-1.6,4.6-1.8,5.3c-0.1,0.4-0.2,0.6-0.3,0.9h0
		v0h-33.7c0,0,5.1-10.7,5.1-12.1c0-4.6,0-9.5,0-12.5c0-3-6.8-4.1-6.8-4.1l-2.1-14.5c0,0,10.2,2.5,11.6,2.9c1.4,0.4,2.5,0.9,3.9,1.7
		c0.9,0.5,1.7,1.1,2.4,1.7c1.4,0.4,2.1,0.6,3.5,0.9c2.3,0.6,5,1.2,7.3,1.7c2.2,0.5,4.4,1,6.7,1.5c2.3,0.5,4.5,0.9,6.8,1.4
		c1.7,0.3,3.3,0.6,5,0.9c0.2,0,3.1,0.6,6.3,1.1c3.5,0.6,7.3,1.1,8,1.2c2.8,0.4,5.7,0.7,8.6,1c1.8,0.2,3.7,0.4,5.6,0.6
		c0.9,0.1,1.4,0.1,2.3,0.2c1.4,0.1,2.1,0.2,3.5,0.3c0.8,0.1,1.2,0.1,2,0.1c1.6,0.1,2.4,0.2,4,0.2c2,0.1,3,0.2,5,0.2
		c1.6,0.1,2.5,0.1,4.1,0.1c1,0,1.6,0,2.6,0.1c1.6,0,4.3,0.1,4.5,0.1c2.2,0,4.4,0,6.6,0c0.3,0,0.5,0,0.8,0c2,0,4-0.1,6-0.1
		c0.7,0,1.1,0,1.8-0.1c2-0.1,3-0.1,5-0.2c2.3-0.1,4.5-0.3,6.8-0.5c1.1-0.1,1.7-0.1,2.8-0.2c0,0,1.3-0.1,2.1-0.1
		c0.9-0.1,1.4-0.1,2.4-0.2c2.2-0.2,4.5-0.5,6.7-0.7c3.3-0.4,6.6-0.8,9.9-1.3c0.5-0.1,2.1-0.3,2.2-0.3c0.7-0.1,1.1-0.2,1.9-0.3
		c1.9-0.3,3.7-0.6,5.6-0.9c2.5-0.4,5-0.9,7.5-1.4c0.2,0,0.3-0.1,0.5-0.1c1.9-0.4,4.3-0.8,6.1-1.2c0.3-0.1,0.4-0.1,0.6-0.1
		c2.9-0.7,5.8-1.3,8.7-2c2.2-0.6,5-1.1,7.2-1.7c0.3-0.1,0.4-0.1,0.6-0.2c0.2-0.1,0.5-0.2,0.7-0.3c0,0,0.1,0,0.1-0.1
		c1.2-0.6,2.4-1.1,3.4-1.3c3.2-0.8,7.8-1.1,10.2,1.9c2.2,2.8,2.6,6.3,2.9,9.8c0,0,0,0.1,0,0.1c0,0,0,0,0,0v0v0.1
		c0,2.5-0.7,5.6-1.5,7.9v15.5c0,0-0.6,0.8-1.9,1.7c-1.3,0.8-3.1,2-7.6,2c-1.8,0-5.4-0.2-5.4-0.2l-92.5,0l2.2-4.3l-1.2-2.9
		c-0.4,4.8-5.2,7.2-9.5,7.4c-0.5,0-0.9,0-1.3,0c-0.1,0-0.2,0-0.3,0H285c-0.2,0.1-1.1,0.2-1.8,0.3
		C281.6,235.7,280.2,235.9,278.9,235.9z M334.7,232.4l1.7,0c1.8,0,3.7,0,5.5,0l0.8,0l0.3-0.8c1.9-5.1,3.6-9.8,5.2-14.4
		c0.5-1.3,0.9-2,1.7-2.9l0.2-0.2l0.1,0.1c0.7,0.8,0.9,1.4,0.9,2.5v0.1c0,3.7-0.1,7.4-0.1,11.1c0,0.2,0,0.3,0,0.4l0,0l0,0
		c-0.1,0.9-0.2,1.4-0.7,2.3l-1,1.8l2.1,0c3.1,0,6.3-0.1,9.4-0.1h0.2l0.2,0h0l0,0l0.9-0.1c2.6-0.1,5.4-2,5.4-5.2v-0.1
		c0-0.5-0.1-1-0.2-1.5c-0.4-1.5-1.2-2.4-2.3-2.9c1.7-1,3-2.7,3-4.8v0c0-0.4,0-0.8-0.1-1.1c-0.6-3.4-4-4.7-7-4.7l-0.1,0
		c-0.1,0-0.2,0-0.3,0c-0.1,0-0.2,0-0.3,0c-3.1,0.2-6.1,0.4-9.2,0.6l-2.4,0.1l0,0c-2.5,0.1-5,0.2-7.5,0.3l-2.1,0.1l1.2,1.8
		c0.3,0.5,0.5,1,0.5,1.3c0,0,0,0.1,0,0.1c0,0.3-0.1,0.5-0.2,0.7c0,0.1,0,0.1,0,0.2c-1.5,0-2.5,0-4,0.1l0,0l-0.1-0.2l0-0.1
		c-0.1-0.3-0.1-0.6-0.1-0.8s0-0.5,0.4-1.1l1.1-1.8l-2.1,0c-1.2,0-2.3,0-3.5,0c-0.7,0-1.5,0-2.2,0l-2.2,0c-1.2,0-2,0-3.3,0
		c-0.3,0-0.5,0-0.9,0h-0.1h-0.1c-0.8,0-1.5,0.1-2.2,0.8c-0.6,0.5-1.2,1.4-2.3,3c-0.6,1-1.3,2.1-1.9,3.3l0-2.9v0
		c0-1.2,0.2-1.6,0.9-2.4l1.7-1.9l-2.5-0.1c-2.5-0.1-5-0.2-7.5-0.4L308,212l-1.7-0.1c-1.2-0.1-1.8-0.1-3.1-0.2
		c-0.5,0-0.8-0.1-1.3-0.1c-0.2,0-0.4,0-0.5,0h0c-2.9,0-4.4,3.5-5.5,5.8c-0.2,0.4-0.3,0.7-0.5,1c-0.1,0.2-0.2,0.5-0.3,0.7
		c0-1.2,0-2.3,0-3.5v-0.1c0-0.2,0-0.3,0-0.4c0.1-1,0.3-1.6,0.8-2.2l1.3-1.7L295,211c-2.4-0.2-4.8-0.5-7.3-0.8l-2.6-0.3l1.5,2.1
		c0.6,0.9,0.8,1.5,1,2.6c0,0.1,0,0.3,0,0.5l0,4l0.1,8v0.1c0,1.3-0.2,1.9-0.7,2.9l-1,1.7l2,0c2.3,0.1,4.2,0,6.5,0.1l2.3,0l-1.3-1.9
		c-0.4-0.7-0.4-1.4-0.4-2.9c0-0.8,0-1.6,0-2.4c0.7,1,1.5,2,2.3,3c0.9,1.1,1.5,2.3,1.5,3.1c0,0.6-0.2,1.1-0.2,1.1l0.6,0
		c2,0,4,0.1,6.1,0.1l2.4,0h0l0.1,0l2,0c2.8,0,5.6,0.1,8.4,0.1h0.1c0.4,0,0.7,0,1.1,0c0.9,0,2.6-0.2,4.1-1c1.6-0.9,2.5-2.3,2.5-4v0
		c0-0.3,0-0.6-0.1-0.9c-0.3-1.8-1.2-3-2.9-3.8l0.8-1.3l0.2-0.4l0.4-0.6c0.6-1,1.2-1.9,1.9-2.8c0.6-0.7,1.3-1.5,2.2-2.4l0.3-0.3l0,0
		l0,0l0,0c0.9,0.9,1.3,1.6,1.8,2.8c1.4,3.6,2.8,7.2,4.3,10.8c0.3,0.7,0.4,1.2,0.4,1.6c0,0.3-0.1,0.6-0.2,0.9L334.7,232.4
		L334.7,232.4z M278.8,232.2c0.6,0,1.2,0,1.9-0.1c0.5,0,0.9-0.1,1.3-0.2l0,0l0.1,0l0.1,0l0.1,0l0.8-0.1l0,0l0,0l0.3,0l0.2,0l1-0.2
		l0-6.3l-0.1-0.1c0,0-0.6,0.5-1.3,0.9c-0.7,0.4-1.4,0.8-1.5,0.8c-0.9,0.4-1.8,0.7-2.6,0.7c-0.1,0-0.1,0-0.2,0
		c-3.2-0.1-4.5-4-4.5-6.4c0-0.1,0-0.3,0-0.4c0-0.1,0-0.2,0-0.3c0-0.1,0-0.1,0-0.1c0-1.7,0.5-3.3,1.4-4.5c0.6-0.8,1.7-1.8,3.6-1.8
		c0.2,0,0.5,0,0.7,0.1c0.7,0.1,1.5,0.3,2.2,0.6c2.1,0.8,4.6,2.3,4.6,2.3l0.1-0.1l-2.8-6.9l-0.5-0.2c-1.2-0.5-2.4-0.8-3.7-1.1
		c-0.5-0.1-0.9-0.2-1.3-0.2c-0.6-0.1-1.3-0.2-2-0.2c-3.9,0-7.1,1.9-8.6,5.3c-0.8,1.7-1.2,3.7-1.2,5.7l0,0.1c0,0.6,0,1.1,0.1,1.6
		c0.7,6.6,5.2,11,11.4,11.2C278.6,232.2,278.7,232.2,278.8,232.2L278.8,232.2z M307.9,232.2l-1.6-1.9c-2-2.4-3.9-4.7-5.7-7
		c0.1-0.1,0.1-0.2,0.2-0.3l0.2-0.4c1.5-2.8,1.9-3.5,2.5-4.4c1-1.6,2.2-3.1,3.6-4.4l0.9-0.8l0.8,0.9c0.8,0.9,1,1.5,1,2.6
		c0,3.7,0,7.4,0.1,11.1v0.1c0,1.2-0.1,1.8-0.7,2.6L307.9,232.2z M367.9,232.1l2,0c3.2-0.1,6.4-0.1,9.4-0.2l0.2,0l0.2,0l0,0l0,0
		l0.1,0l0.8-0.1c3.1-0.2,5.4-2.6,5.4-5.6v0c0-0.6-0.1-1.1-0.2-1.6c-0.4-1.5-1.1-2.5-2.4-3.2c1.7-1.1,3.1-3,3.1-5.3v0
		c0-0.4,0-0.8-0.1-1.2c-0.3-1.6-1.2-3-2.7-3.8c-1.5-0.8-3.1-1-4.2-1h0c-0.1,0-0.1,0-0.2,0h-0.1c-0.2,0-0.4,0-0.6,0
		c-3,0.4-6.1,0.7-9.2,1l-2.2,0.2l1.5,1.7c0.7,0.8,0.9,1.4,0.9,2.6v0.1l-0.1,7.8l0,3.9c0,0.2,0,0.3,0,0.5l0,0l0,0
		c-0.1,1-0.2,1.6-0.8,2.5L367.9,232.1z M386.3,231.6l2.3,0c2.5,0,4.9,0,7.3-0.1l2.1,0l-1.2-1.8c-0.7-1.1-1-2.2-1-3.6V226l0.1-13.4
		c0-1.7,0.2-2.4,0.8-3.7l1-2.1l-2.3,0.4c-2.3,0.4-4.6,0.8-6.9,1.1l-1.7,0.3l0.9,1.5c0.6,1,0.8,1.7,0.8,3.1l0,0.1
		c0,4.3-0.1,8.7-0.1,13c0,1.7-0.2,2.4-0.9,3.4L386.3,231.6L386.3,231.6z M398.9,231.4l1,0l18.1-0.2l1.4,0l-0.2-1.4l-1-5.8l-0.3-1.6
		l-1.4,0.8c0,0-0.8,0.4-2.3,0.7c-0.9,0.2-1.7,0.3-2.4,0.4c0-0.2,0-0.5,0-0.8l0-3.7l0-4.9l0-4.6c0-1.6,0.3-2.7,1.1-4.2l1.2-2.2
		l-2.5,0.5c-2.4,0.5-4.9,1-7.3,1.5l-1.9,0.6l1.2,1.5c0.7,0.9,1,1.3,0.9,3c0,3.7,0,10.8,0,13.5c-0.4,0.1-1.6,0.1-3.2-0.1
		c-1.6-0.2-3.9-1.4-3.9-1.4l0.4,2.2l0.9,5.1L398.9,231.4L398.9,231.4z M261.1,231.1l0.2-0.9c1.2-4.5,2.5-9.1,3.8-13.5
		c0.4-1.4,0.8-2.8,1.2-4.2c0.4-1.5,0.8-2.3,1.7-3.3l1.3-1.6l-2-0.4c-2.6-0.5-5.3-0.9-7.9-1.4l-2.3-0.4l1,2.1
		c0.3,0.7,0.6,1.6,0.6,2.2c0,0.1,0,0.2,0,0.2c-0.1,0.4-0.1,0.7-0.2,1l0,0.1c-1.4-0.2-2.3-0.4-3.8-0.6l0-0.2l0-0.1l-0.1-0.6
		c-0.1-0.5-0.2-0.9-0.2-1.3v0c0-0.6,0.1-1,0.4-1.7l0.7-1.4l-1.5-0.3c-1.9-0.4-3.8-0.8-5.7-1.2l-2.6-0.6l1.4,2.3c1,1.6,1.4,2.7,2,4.6
		c0.5,1.8,1,3.7,1.5,5.5c0.9,3.3,1.8,6.8,2.8,10.1c0.4,1.1,0.5,1.8,0.5,2.5v0.1c0,0.4-0.1,0.9-0.2,1.3l-0.4,1.5l1.5,0
		c1.8,0,3.7,0.1,5.5,0.1L261.1,231.1z M248,230.5l-1-1.8c-0.6-1.1-0.8-2.1-0.9-3.6c0-0.2,0-0.4,0-0.7l-0.1-14v0l0-0.4l0-0.5
		c0-3.7-1.9-6.8-5.4-8.8c-0.6-0.4-1.8-1-3.4-1.6c-0.5-0.2-1.2-0.4-2.3-0.7c-0.8-0.2-1.6-0.4-2.1-0.5l-1.8-0.5l0.3,1.8
		c0.2,1.1,0.3,1.8,0.5,2.9l0.1,0.8l0.8,0.2c2.7,0.6,4.3,1.7,5.2,3.3c0.7,1.3,0.7,1.7,0.7,3l0,7.1l0,7.4v0.1l0,0c0,2-0.3,3-1.3,4.6
		l-1.2,1.8l2.1,0c0,0,5.2,0,7.6,0.1L248,230.5z M426.5,230.5c0.2,0,0.3,0,0.5,0c1.3-0.1,2.6-0.4,4-1.1c0.1,0,0.2-0.1,0.4-0.2
		l0.7-0.3v-8.4l-0.1,0c0,0-0.9,1.2-1.5,1.9c-0.6,0.7-1.4,1.2-2,1.5c-0.6,0.3-1.4,0.6-2.2,0.6c-0.3,0-0.4-0.1-0.5-0.2
		c-0.2-0.2-0.3-0.4-0.3-0.8c0-0.4,0.1-0.7,0.3-1.1c0.5-0.8,1-1.3,2.1-2.3c0.2-0.2,0.3-0.3,0.5-0.5c3.2-2.9,5.3-5.7,5.3-10.3l0-0.2
		c-0.1-5.2-2.9-8.6-7-8.6c-0.7,0-1.4,0.1-2.2,0.3c-0.9,0.2-1.9,0.6-3,1.1l0,0l-0.1,0l0,0c-0.3,0.1-0.7,0.3-1,0.5l-0.2,0.1l-0.3,0.1
		l-0.2,0.1l-0.1,0.1l-0.5,0.3l-0.1,0.6l0,0.2c-0.3,2-1.1,9-1.1,9l0.1,0.1c0,0,1.1-1.4,1.8-2.2c0.9-1,2.2-2.2,3.4-3
		c0.9-0.6,1.8-1,2.4-1.2c0.2,0,0.4-0.1,0.5-0.1c0.4,0,0.7,0.1,0.9,0.4c0.2,0.2,0.3,0.6,0.3,1c-0.1,1.1-0.2,2-1.3,3
		c-0.1,0.1-0.3,0.3-0.5,0.4c-3,2.7-5.9,5.6-6.6,7.9c-0.3,1-0.3,1.9-0.3,2.9v0.1C418.7,227.1,421.9,230.5,426.5,230.5L426.5,230.5z
		 M317.3,227.5c0,0-0.1,0-0.2,0l0-3.2c0.1,0,0.2,0,0.4,0.1c0.6,0.2,1.1,0.4,1.3,0.6c0.3,0.4,0.5,0.7,0.6,1v0l0,0c0,0.1,0,0.3,0,0.4
		c0,0.6-0.2,0.7-0.3,0.8C318.8,227.3,318.4,227.5,317.3,227.5L317.3,227.5z M358.9,227.3c-0.2,0-0.4,0-0.5,0l0-2.5c0,0,0.1,0,0.1,0
		c0.1,0,0.2,0,0.3,0h0.1c1.7,0,1.8,0.7,1.8,1.2l0,0.3c0,0.5-0.1,0.8-1.3,1C359.3,227.3,359.1,227.3,358.9,227.3z M377.3,226.8
		c-0.1,0-0.2,0-0.3,0l0-0.4l0-2.4c0.1,0,0.1,0,0.2,0c0.2,0,0.3,0,0.4,0h0.1c1.3,0,1.6,0.4,1.6,1.3v0.2v0.2c-0.1,0.7-0.1,1-1.3,1.2
		C377.8,226.7,377.6,226.8,377.3,226.8L377.3,226.8z M338.6,224.3c-0.3-1-0.7-1.9-1-3c0.7,0,1.3,0,2,0L338.6,224.3z M358.5,220.2
		l0-2.2l0-1.1c0.5-0.1,0.7-0.1,1-0.1c0.8,0.1,1.2,0.4,1.3,1.5C360.7,219.4,360.3,220.1,358.5,220.2L358.5,220.2z M256.8,219.8
		c-0.3-1.2-0.6-2.4-0.9-3.6c0.6,0.1,1.1,0.2,1.7,0.2C257.4,217.5,257.1,218.7,256.8,219.8z M377,219.1l0-1.8l0-2
		c0.3,0,0.5-0.1,0.7-0.1c0.1,0,0.2,0,0.2,0c0,0,0.1,0,0.1,0c0.1,0,0.3,0.1,0.4,0.1c0.2,0.1,0.7,0.2,0.7,1.5
		C379.3,218.4,378.7,219,377,219.1L377,219.1z"/>
</g>
</svg>
