<svg xmlns:rdf="http://www.w3.org/1999/02/22-rdf-syntax-ns#" xmlns="http://www.w3.org/2000/svg" xmlns:cc="http://creativecommons.org/ns#" xmlns:dc="http://purl.org/dc/elements/1.1/" xml:space="preserve" version="1.1" viewBox="0.99 1.01 177.62 135.46"><g transform="matrix(1.25 0 0 -1.25 -266.68 341.22)"><g transform="matrix(.25 0 0 .25 214.09 163.69)"><path d="m367.67 129.09c-0.96125 1.1912-1.5919 2.6718-1.7344 4.3106-0.3825 4.3862 2.8625 8.2537 7.25 8.6387 4.3138 0.3775 8.1227-2.7497 8.6152-7.0234l-3.1621-1.3262-4.9609 4.3672-2.3535-7.4336-3.6543-1.5332zm34.977 1.082c-16.256 5.83-31.384 21.515-29.232 35.598l60.363 0.97265c-9.3438-8.2762-46.348-8.0391-46.348-8.0391l-7.4961 3.3438 6.1621-8.9414 31.76 1.9c32.079 1.9088 36.572 20.012 36.572 20.012s14.061-17.419-3.6953-33.16c-13.509-11.976-48.092-11.676-48.092-11.676zm12.186 5.1836c0.73153 0.005 1.4952 0.028 2.2891 0.0723l-1.1211 6.0898-16.191-2.1855s4.0506-4.0529 15.023-3.9766zm2.5449 174.65c-51.964 0.20039-68.439 9.5015-68.639 48.107 0 33.071 30.509 34.687 69.908 36.404 17.424 0.75875 34.877 1.5391 52.342 1.5391l8.5762-0.0859 0.21093-26.713c-11.116 3.6175-19.488 4.918-31.766 4.918-8.9525 0-29.144-0.1239-36.518-4.1602-5.6788-3.11-6.0234-8.4023-6.0234-13.072 0-18.338 6.943-25.404 34.137-25.404 18.649 0 27.742 0.2336 41.676 9.5586l0.22461-30.096c-19.655-0.51-39.318-0.98828-58.988-0.98828-1.7507-0.0118-3.4644-0.0143-5.1406-0.008zm-337.4 1.9824-0.01172 49.402c10.354-14.115 15.28-20.91 38.68-20.91v74.758c19.765-5.2212 45.227-8.7026 65.527-12.785-4.0138-2.9188-12.098-6.5559-12.098-14.398-0.9675-19.751 0.19093-27.808-0.16407-47.574 6.325-0.37375 11.791-0.13477 18.145-0.13477 9.1225 0 16.031 2.7492 20.342 6.668v-35.025h-130.42zm260.97 0s-83.471 0.0709-125.38 0.24219c1.9312 1.615 4.3844 3.8145 5.6094 5.7695 0.56875 0.90875 1.5391 7.3203 1.5391 7.3203s-0.0303 66.513 0.0234 74.676c38.879-4.9212 79.046-7.199 118.52-8.0215v-28.23c-3.7388 1.6612-8.5304 4.3477-12.588 5.6152-8.1138 2.5387-42.497 2.6502-53.918 3.2715l-0.20312-10.625c18.59-0.83 32.383-1.6299 51.006-1.9199v-16.99c-18.711 0.19-32.058 0.9225-50.754 1.4688l-0.0488-11.928c12.488-0.2575 25.179-0.0312 37.674-0.0312 12.938 0 18.021 1.7596 28.832 6.5684l-0.30859-27.186zm230.61 0c4.6587 4.66 7.4394 7.8784 7.4394 13.711 0 7.1438-0.18524 14.297-0.24024 21.443-10.09-0.84625-20.192-1.6053-30.307-2.2891l-0.20507-32.494-59.783-0.25782c1.755 1.4775 3.746 2.9691 5.0098 4.6953 1.1875 1.6238 1.5664 3.342 1.5664 5.1582 0 25.052-0.19211 50.108-0.28711 75.16 18.229 1.9212 36.147 4.319 54.078 7.334l-0.21875-34.398c10.154 1.1662 20.871 2.4462 30.955 3.8887v36.332c18.059 4.2875 35.058 7.5676 52.273 13.33l0.0664-111.61h-60.348zm-93.684 2.5352-0.15234 20.168c-12.064-6.61-21.792-6.7637-38.109-6.7637-28.351 0-37.75 7.9356-37.75 29.016 0 2.855 0.0954 6.706 1.9004 10.229-7.67-4.1988-7.9219-11.569-7.9219-16.252 0-21.079 9.3993-29.016 37.748-29.016 16.32 0 26.046 0.15367 38.111 6.7637l0.10743-8.7109 6.0664-5.4336zm-271.09 1.0781v24.678c-4.5538-2.2388-10.204-3.5449-16.729-3.5449-6.4288 0-11.957-0.23758-18.357 0.13867l-3.4629 0.20312 0.0625 3.4688c0.3575 19.788-0.79843 27.865 0.16406 47.604 0.0362 5.4375 3.2362 9.2568 6.3262 11.842 0.32875 0.275 0.66109 0.53938 0.99609 0.79688-17.206 3.0938-37.152 5.9034-53.527 9.8184l6.8164-8.1524c15.089-3.2312 20.082-3.9012 35.229-6.625-0.33375-0.25624-0.85133-2.9139-1.2051-4.8164-0.635-3.4162-0.61875-3.446-0.65625-8.8848-0.96125-19.739 0.19219-27.817-0.16406-47.604l-0.0625-3.4688 3.4629-0.20313c6.4-0.37625 11.929-0.14062 18.357-0.14062 6.5238 0 12.175-0.34813 16.729 1.8906v-12.346l6.0215-4.6543zm421.5 0-0.0625 103.04c-14.819-4.605-29.568-7.6149-45.051-11.232l4.4531-3.752c13.309 3.0388 21.689 4.9591 34.578 8.9629l0.0469-91.16 6.0352-5.8594zm-290.92 0.0156 0.20508 18.035c-8.055-3.315-13.825-4.6602-25.156-4.6602-12.52 0-25.237-0.2243-37.748 0.0332l-3.5527 0.0742 0.0527 15.67-5.9961 3.7891-0.0801-25.48 3.5547-0.0723c12.511-0.25875 25.228-0.0352 37.748-0.0352 11.331 0 17.101-0.60867 25.154 2.7051l-0.15039-5.7188 5.9688-4.3398zm207.28 0.33984 0.16797 29.289-5.9883 4.5156 0.0176-29.205 5.8027-4.5996zm-434.48 14.848c0.77819 0.005 1.5917 0.019 2.4453 0.041h14.947l-4.8184 6.0488c-23.786-1.5838-31.871 5.1395-39.17 13.832l5.4492-13.309c5.932-4.8082 9.4735-6.6876 21.146-6.6133zm211.76 15.947v9.7832c-16.909 0.3325-30.128 1.0858-47.555 1.8633l-3.5176 0.15625 0.0215 15.295-5.9023 5.7207-0.14063-27.037 3.5176-0.1582c17.425-0.77625 30.646-1.5308 47.555-1.8633 0 0 3.959-3.7285 6.0215-3.7598zm217.01 13.221 4.0527 0.46679c10.186 1.17 20.937 2.4548 31.051 3.9024l14.178 2.2812-5.4199 4.5664c-9.2462-1.2812-24.578-3.6698-33.789-4.7285l-4.0508-0.4668 0.21875 34.189c-15.525-2.525-31.061-4.6007-46.814-6.3144l5.252-4.9648c13.688 1.5762 22.003 3.056 35.537 5.2598l-0.21485-34.191zm-201.31 9.5039v18.963c-37.085 0.855-74.73 3.0207-111.3 7.4707l7.2148-7.0059c34.68-3.9725 63.012-5.6788 98.068-6.4863l-0.21485-6.1602c1.635-0.62375 6.2363-6.7812 6.2363-6.7812zm138.49 4.6758-0.14453 18.242-5.0273 0.0508c-17.4-0.001-34.79-0.78211-52.15-1.5371-31.041-1.3538-53.16-2.8573-62.082-16.059 11.089 7.7112 30.566 8.9239 56.061 10.035 17.36 0.7575 34.75 1.5366 52.148 1.5391l5.0293-0.0508 0.084-6.502c2.2638-2.1075 3.7695-3.0112 6.082-5.7188z" transform="matrix(.8 0 0 -.8 0 434)" fill="#fff"/><path d="m32.881 0.10156c-33.925 30.17-35.287 61.962-30.766 111.52 6.0225 65.99 26.613 126.18 57.365 178.1h-3.6406v160.24l45.457 42.369 4.123-1.209c41.214-12.098 90.821-22.687 155.01-28.113 39.164 17.709 61.149 34.729 73.562 47.016 14.024 13.876 22.764 31.9 22.764 31.9s7.7034-18.611 21.287-31.967c12.326-12.122 33.966-29.378 73.396-47.193 62.726 5.0375 116.82 15.798 157.65 27.115l47.781-44.367-0.0488-155.79-4.9844 0.002c30.751-51.915 51.342-112.11 57.363-178.1 4.5238-49.555-0.83797-80.16-17.137-97.24l-13.625-14.277 0.0801 9.8672c0 0.19 0.0837 12.721-0.73632 17.346-0.87875 4.9525-2.6934 11.931-6.4434 19.781-7.4162 15.531-22.615 34.944-54.275 48.799l-91.135 37.598 8.252-19.406-61.545 19.199c-9.8538-13.582-34.715-19.957-37.178-20.684 1.9525-2.8988 3.6443-23.367-32.002-32.305-67.725-16.976-121.68 27.055-133.01 43.809 4.9012 2.45 8.916 3.9082 8.916 3.9082s-5.9804 6.0074-12.057 14.514l-90.168-28.441 8.252 19.406-90.982-37.545c-31.753-13.859-65.828-47.481-61.517-95.853zm-7.973 19.671s-0.73476 54.059 66.365 83.344l108.77 44.873-9.1035-21.414 73.104 22.814c-4.4788 6.5113-9.1093 13.755-12.717 20.586l-23.328-6.9785 16.014 28.49-161.9-66.795c-22.051-9.625-38.292-21.819-50.1-34.535 0.21 5.7062 0.61406 11.899 1.2266 18.621 0.56375 6.17 1.2639 12.286 2.0977 18.342l175.64 69.15-171.07-42.61c1.3038 6.295 2.753 12.519 4.3418 18.67l174.52 49.97-166-21.48c2.3475 6.8825 4.8734 13.661 7.5684 20.33l89.008 13.361c31.108 3.7575 72.629 7.6881 121.02 9.6094 2.21-16.569 1.9883-30.584 1.9883-30.584l-14.062 7.1992c5.4988-27.885 15.918-45.797 15.918-45.797l-13.297-3.0371c10.672-24.262 34.605-48.266 34.605-48.266l-9.8027-3.2676s41.586-39.669 97.688-32.471c56.099 7.1988 43.047 29.994 43.047 29.994 14.466 4.8175 54.672 11.736 45.398 50.246-6.2912 26.124-26.969 34.656-26.969 34.656 4.5125-20.444-17.422-23.611-24.619-19.1-3.945 2.4725-19.436 10.07-0.33594 43.902 2.6925 4.77 5.1979 9.8403 7.5254 15.102l8.1856-0.4375c-2.7438-6.4262-5.744-12.635-9.0215-18.441-9.135-16.18-8.886-24.208-7.8223-27.678 0.52625-1.7112 1.3944-2.837 2.2969-3.6758 0.4725-0.43875 0.98102-0.82008 1.5098-1.1738 0.68875-0.46 1.2972-0.80914 1.7422-1.0879 4.4962-2.8188 15.341 0.48484 13.035 10.934l-3.1699 14.373 13.604-5.6152c0.7625-0.31375 24.344-10.204 31.51-39.959 2.9425-12.224 1.581-22.039-2.3027-29.848l43.359-13.525-9.1074 21.414 108.77-44.873c67.1-29.285 66.365-83.344 66.365-83.344 13.699 14.355 19.524 41.672 15.012 91.139-6.3625 69.719-29.32 132.75-63.416 186.18l11.443-0.002v145.33l-0.71289-0.25-41.709 39.643c-41.895-11.615-93.284-21.619-157.74-26.625-83.416 37.63-92.967 73.094-92.967 73.094s-9.7193-35.203-93.686-72.861c-66.036 5.3912-116.98 16.201-159.29 28.617l-39.799-37.537-0.32812 0.10352v-0.41211-149.1h9.9668c-34.03-53.44-56.925-116.5-63.282-186.17-4.5133-49.464 1.311-76.782 15.01-91.137zm350.51 80.247c-32.22-0.584-56.99 21.39-56.99 21.39l10.893 3.0234c-27.072 18.096-35.512 37.191-35.512 37.191l10.557-1.3438c-12.572 19.435-16.268 36.855-16.268 36.855l10.223-4.3652c-2.3562 21.685-4.6888 38.69-7.9238 52.027 19.368 0.51625 39.685 0.68812 60.75 0.39062 13.284-0.18625 26.124-0.49203 38.51-0.89453-12.702-18.814-8.9824-38.719-8.9824-38.719-8.6338 1.4612-14.188 22.344-14.188 22.344-4.5012-14.825-0.86133-28.676-0.86133-28.676-8.8212 2.9225-14.865 13.85-14.865 13.85-3.885-17.96 10.547-31.113 10.547-31.113-6.045-0.4875-15.482 0.97461-15.482 0.9746 4.9462-14.589 19.975-17.178 19.975-17.178s-2.8618-8.0848 2.8144-15.84c0 0-10.527-0.79282-10.564-12.914-0.0225-7.835 4.5117-11.564 4.5117-11.564l-14.105-15.037s27.761 10.146 42.148 13.676c9.4225 2.3112 9.2148-9.2148 9.2148-9.2148 7.1988 10.894 15.262 3.0234 15.262 3.0234s0.33477-15.405-36.521-17.756c-1.054-0.0673-2.0995-0.11008-3.1387-0.12891zm301.83 27.102-175.64 69.154 171.07-42.604c1.8062-8.7175 3.3353-17.572 4.5703-26.551zm-8.9141 45.221-174.52 49.965 165.99-21.475c3.1738-9.31 6.0215-18.809 8.5215-28.49zm-16.09 48.82-36.561 5.4883 0.16211 22.273 23.627 0.53711c4.5975-9.1938 8.864-18.631 12.771-28.299zm-545.96 21.746-0.0488 16.748c2.2538-1.3662 4.5472-2.7617 7.2734-2.7617 2.6875 0 5.3639 0.42383 8.0352 0.67383l-0.0801 40.533 24.318 0.83203c-4.7212-5.2625-3.4189-31.014-3.6914-39.221 7.4 0.68625 9.2087 0.24781 15.545 4.7266l-0.33-14.68c-17.07-1.85-34.08-4.09-51.03-6.86zm491.11 1.1211c-16.478 2.2812-32.987 4.245-49.537 5.9375 0.82875 0.80375 1.477 1.7594 2.082 2.7344 1.0962 1.7638 0.53461 40.569 0.53711 46.248l46.943 0.002 0.0586-17.787c-5.2038 4.19-10.855 5.1406-17.365 5.1406-2.9338 0-5.8702-0.0726-8.8027 0.0137l0.008-9.8828 22.279-1.252 0.0293-10.102-22.301 1.7852 0.008-7.9297c5.6962-0.52875 11.505-1.6289 17.227-1.6289 3.3488 0 6.083 1.5706 8.7793 3.3906l0.0547-16.67zm-508.32 5.0703-15.953 0.36133c3.2338 6.4662 6.6318 12.81 10.186 19.031h6.2715l-0.50391-19.393zm454.32 1.3027c-16.432 1.5225-32.886 2.8018-49.354 3.873 0.82125 0.74125 1.4701 1.6338 2.0801 2.5488 1.1037 1.6588 0.54382 36.824 0.54882 42.123l46.959 0.002-0.0156-15.723c-5.3062 3.75-11.35 4.4043-17.67 4.4043-2.8162 0-5.633-0.0864-8.4492-0.0352l-0.01-8.8789 22.23-0.82618-0.002-8.9512-22.238 1.1758-0.01-7.123c5.405-0.32875 10.826-1.0606 16.246-1.0606 4.0625 0 6.3132 1.1251 9.6894 3.2051l-0.006-14.734zm-381.99 0.85c0.79375 0.95625 1.5837 1.9274 2.1387 3.0449 1.1788 2.3775 1.4314 38.671 1.5664 44.641h46.951l-0.36719-14.195c-3.9825 2.4275-5.2662 3.293-10.094 3.293-5.3175 0-10.638-0.18-15.955-0.28125l-0.23047-8.7461 22.258 0.66797-0.21289-8.1856-22.27-0.95703-0.1836-7.0195c9.4425 0.5575 17.669-0.58266 26.07 4.8711l-0.3418-13.318c-16.465-0.99875-32.909-2.2457-49.33-3.8144zm326.44 3.4023c-8.2875 0.475-38.751 0.27813-43.816 5.2031-2.4912 2.4212-2.6641 6.0427-2.6641 9.3027 0 15.938 10.541 13.07 22.426 13.07 2.5362 0 4.9473 0.30992 4.9473 3.4199 0 2.9688-2.3467 3.4414-4.793 3.4414l-7.623 0.002c-5.2788 0-9.4892-1.8363-14.074-4.2676l0.48047 14.121 33.787-0.002c11.338 0 14.441-3.4531 14.441-14.609 0-15.305-10.644-11.805-21.621-11.805-1.9275 0-6.4941 0.0605-6.4941-2.7383 0-4.4125 5.3386-4.6465 8.5898-4.6465 6.4738 0 10.834-0.24476 16.422 3.5215l-0.008-14.014zm-272.02 0.69922c0.8175 0.80875 1.4861 1.7416 2.1211 2.6953 1.1575 1.7387 1.435 35.642 1.5625 40.889h15.947c-2.8288-2.8838-3.0469-7.4838-3.0469-11.281 0-2.5212 0.19242-5.0446 0.13867-7.5684 5.9675 6.1012 11.931 12.205 17.957 18.246l0.60352 0.60547 16.736 0.002-0.54102-41.572-13.619-0.39649 0.28516 16.889c-1.4762-1.6075-15.88-17.4-16.014-17.461-0.17-0.0775-20.046-0.94313-22.131-1.0469zm217.32 1.7422c-8.0862 0.24125-38.848-0.61031-43.82 3.9922-2.4888 2.3025-2.6875 5.7905-2.6875 8.9668 0 15.444 10.686 12.875 22.207 12.875 2.4588 0 5.1328 0.1925 5.1328 3.3125 0 2.8562-2.3662 3.2617-4.7012 3.2617l-6-0.002c-6.3575 0-10.188-1.3291-15.799-4.2441l0.45507 13.688 33.098 0.002c11.006 0 15.166-2.1807 15.166-13.783 0-14.336-10.808-11.443-21.117-11.443-1.9 0-6.9727 0.1025-6.9727-2.7188 0-3.9538 4.4872-4.2734 7.4609-4.2734 6.6038 0 11.844-0.14187 17.559 3.6094l0.0195-13.242zm-159.73 0.42187c0.81 0.74001 1.4721 1.6128 2.0996 2.5078 1.1725 1.6712 0.90375 33.9 0.96875 38.916h15.943c-1.87-1.8538-2.7031-4.2823-2.7031-6.8848l0.0937-11.223 17.465 17.324 0.79492 0.7832h16.748l0.0566-40.719-13.561-0.10351 0.0195 16.428c-1.4788-1.5625-15.522-16.529-15.725-16.615-0.21125-0.09-20.089-0.37406-22.201-0.41407zm106.73 0.64258c-16.461 0.135-32.926 0.14735-49.389 0.0898 0.81625 0.70875 1.4698 1.5659 2.0898 2.4434 1.0712 1.5162 0.4157 33.601 0.4082 38.248l46.943 0.004 0.0488-13.205c-3.9112 2.245-5.504 3.2246-10.178 3.2246l-15.943 0.0137 0.0293-7.7969 22.223-0.043 0.006-0.63086 0.0215-6.9375-22.223 0.0625 0.0273-6.2539 13.863-0.0898c5.2925 0 7.455 0.6425 12.031 3.25l0.041-12.379zm235.82 10.334 0.15624 21.387c4.5875-6.9512 8.974-14.083 13.146-21.387h-13.303zm-138.12 46.031-6.0664 5.4336-0.10743 8.7109c-12.065-6.61-21.791-6.7637-38.111-6.7637-28.349 0-37.748 7.9369-37.748 29.016 0 4.6825 0.25187 12.053 7.9219 16.252-1.805-3.5225-1.9004-7.3735-1.9004-10.229 0-21.08 9.3988-29.016 37.75-29.016 16.318 0 26.046 0.15368 38.109 6.7637l0.15234-20.168zm-271.09 1.0781-6.0215 4.6543v12.346c-4.5538-2.2388-10.205-1.8906-16.729-1.8906-6.4288 0-11.957-0.23563-18.357 0.14062l-3.4629 0.20313 0.0625 3.4688c0.35625 19.786-0.79719 27.865 0.16406 47.604 0.0375 5.4388 0.0213 5.4685 0.65625 8.8848 0.35375 1.9025 0.87133 4.5602 1.2051 4.8164-15.146 2.7238-20.14 3.3938-35.229 6.625l-6.8164 8.1524c16.375-3.915 36.321-6.7246 53.527-9.8184-0.335-0.2575-0.66734-0.52188-0.99609-0.79688-3.09-2.585-6.2899-6.4043-6.3262-11.842-0.9625-19.739 0.19344-27.816-0.16406-47.604l-0.0625-3.4688 3.4629-0.20312c6.4-0.37625 11.929-0.13867 18.357-0.13867 6.525 0 12.175 1.3062 16.729 3.5449v-24.678zm421.5 0-6.0352 5.8594-0.0469 91.16c-12.889-4.0038-21.269-5.9241-34.578-8.9629l-4.4531 3.752c15.482 3.6175 30.232 6.6274 45.051 11.232l0.0625-103.04zm-290.92 0.0156-5.9688 4.3398 0.15039 5.7188c-8.0538-3.3138-13.823-2.7051-25.154-2.7051-12.52 0-25.237-0.22359-37.748 0.0352l-3.5547 0.0723 0.0801 25.48 5.9961-3.7891-0.0527-15.67 3.5527-0.0742c12.511-0.2575 25.228-0.0332 37.748-0.0332 11.331 0 17.101 1.3452 25.156 4.6602l-0.20508-18.035zm207.28 0.33984-5.8027 4.5996-0.0176 29.205 5.9883-4.5156-0.16797-29.289zm-434.48 14.848c-11.673-0.0743-15.214 1.8051-21.146 6.6133l-5.4492 13.309c7.2988-8.6925 15.384-15.416 39.17-13.832l4.8184-6.0488h-14.947c-0.85359-0.022-1.6671-0.0361-2.4453-0.041zm211.76 15.947c-2.0625 0.0312-6.0215 3.7598-6.0215 3.7598-16.909 0.3325-30.13 1.087-47.555 1.8633l-3.5176 0.1582 0.14063 27.037 5.9023-5.7207-0.0215-15.295 3.5176-0.15625c17.426-0.7775 30.646-1.5308 47.555-1.8633v-9.7832zm217.01 13.221 0.21485 34.191c-13.534-2.2038-21.85-3.6835-35.537-5.2598l-5.252 4.9648c15.754 1.7138 31.289 3.7894 46.814 6.3144l-0.21875-34.189 4.0508 0.4668c9.2112 1.0588 24.543 3.4473 33.789 4.7285l5.4199-4.5664-14.178-2.2812c-10.114-1.4475-20.865-2.7324-31.051-3.9024l-4.0527-0.46679zm-201.31 9.5039s-4.6013 6.1575-6.2363 6.7812l0.21485 6.1602c-35.056 0.8075-63.388 2.5138-98.068 6.4863l-7.2148 7.0059c36.575-4.45 74.22-6.6157 111.3-7.4707v-18.963zm138.49 4.6758c-2.3125 2.7075-3.8183 3.6112-6.082 5.7188l-0.084 6.502-5.0293 0.0508c-17.399-0.002-34.788-0.78156-52.148-1.5391-25.495-1.1112-44.972-2.3239-56.061-10.035 8.9225 13.201 31.041 14.705 62.082 16.059 17.36 0.755 34.75 1.5359 52.15 1.5371l5.0273-0.0508 0.14453-18.242zm-116.94 33.12c-111.05 0-207.13 13.415-279.99 35.1l28.412 26.096c60.99-17.29 139.1-28.949 251.58-28.949 107.66 0 183.6 12.181 243.91 28.393l27.939-27.898c-71.99-20.3-167.19-32.74-271.85-32.74zm-14.01 7.7676 0.40625 19.514-3.6855 0.0547-17.281-11.814c-0.68375-0.48-1.3223-0.9643-1.9648-1.5606 0.21125 1.51 0.27586 2.5321 0.28711 3.0996l0.2207 10.551-4.8535 0.0723-0.4043-19.514 3.6836-0.0547 16.551 11.256c0.9575 0.6275 1.8703 1.2976 2.6953 2.0801-0.16875-1.625-0.28242-2.7602-0.29492-3.3652l-0.21289-10.248 4.8535-0.0703zm37.207 0.51953 23.715 0.71484-0.14258 3.3262-18.326-0.55274-0.1836 4.3477 10.689 0.32226-0.14063 3.3262-10.689-0.32227-0.20703 4.8379 18.551 0.56055-0.15625 3.666-23.939-0.7207 0.83008-19.506zm-78.928 0.39648 0.25195 3.3203-18.301 0.97851 0.32813 4.3418 10.676-0.57031 0.25 3.3223-10.676 0.57032 0.36523 4.832 18.525-0.99219 0.27539 3.6621-23.906 1.2773-1.4707-19.479 23.682-1.2637zm125.54 1.4043 5.2012 0.28516 11.764 20.207-6.0547-0.33399-2.4473-4.418-14.666-0.80469-3.0234 4.1172-5.3828-0.29688 14.609-18.756zm-173.46 1.8984c6.7482 0.15882 10.674 3.2338 11.354 8.498 0.47 3.6475-1.0197 6.8266-4.0234 8.7754-2.0838 1.3688-5.1673 1.9941-9.2773 2.3691l-13.451 1.2285-2.5-19.404 14.834-1.3535c1.078-0.0984 2.1004-0.13597 3.0644-0.11328zm206.43 0.25976c0.45691 0.006 0.95407 0.0337 1.4961 0.0801l15.918 1.3613c4.2025 0.35875 5.6139 1.3926 5.1914 4.8926-0.0188 0.15-0.0359 0.29992-0.0547 0.45117l-5.3281 0.34375 0.26367-2.1836-16.766-1.4356-1.4863 12.307 16.768 1.4336 0.52343-4.3281-8.7637-0.74805 0.39844-3.3125 13.996 1.1973-0.80859 6.6992c-0.44 3.6488-1.9411 4.4709-6.2773 4.0996l-15.92-1.3613c-4.3362-0.37125-5.6092-1.4313-5.168-5.0801l1.2363-10.236c0.385-3.1948 1.5829-4.2213 4.7812-4.1797zm-30.84 1.75-5.7695 7.6426 10.135 0.55469-4.3652-8.1973zm-176.37 1.4961c-0.56134-0.0148-1.1578 0.005-1.7891 0.0625l-9.5156 0.86914 1.584 12.297 6.9258-0.63281c6.7912-0.62 10.003-2.3594 9.3828-7.1719-0.44625-3.4541-2.6585-5.3202-6.5879-5.4238zm245.91 0.35156 5.3379 0.65234-2.707 15.686 17.213 2.1035-0.62695 3.6309-22.549-2.7559 3.332-19.316zm-292.28 1.125 2.8281 15.668 17.197-2.1992 0.65625 3.627-22.529 2.8809-3.4844-19.295 5.332-0.68164zm326.97 3.4023 23.273 3.8965-0.76953 3.2637-17.986-3.0098-1.0078 4.2656 10.49 1.7578-0.77148 3.2637-10.49-1.7578-1.123 4.75 18.205 3.0469-0.84961 3.5996-23.496-3.9336 4.5254-19.143zm-350.64 0.14454c2.2897 0.0648 3.339 1.1349 3.9746 3.834l2.373 10.092c0.8475 3.6-0.30062 4.7562-4.5781 5.4688l-16.754 2.791c-4.2775 0.7125-5.8627 0.0109-6.709-3.5879l-2.373-10.094c-0.84625-3.6 0.30188-4.7543 4.5781-5.4668l16.754-2.7891c1.0694-0.17843 1.9711-0.26965 2.7344-0.24804zm-1.5781 3.6016-17.459 2.9082 2.8535 12.135 17.459-2.9102-2.8535-12.133zm393.06 3.9551c0.76265 0.032 1.6517 0.185 2.6992 0.4375l12.66 3.0527c3.975 0.95875 5.2334 2.2059 4.1309 5.4434l-0.13672 0.39844-4.8887-0.19531 0.73047-2.1445-14.602-3.5215-1.375 4.0352 13.912 3.3555c4.19 1.01 5.2638 2.2538 4.0625 5.7813l-0.87891 2.5801c-1.2 3.5275-2.8927 4.105-7.084 3.0938l-13.783-3.3242c-4.1912-1.0112-5.2638-2.2518-4.0625-5.7793l0.17383-0.50977 4.8516 0.30469-0.75586 2.2168 15.771 3.8027 1.459-4.2891-13.91-3.3555c-4.1912-1.0112-5.2208-2.2433-4.0195-5.7695l0.70507-2.0742c0.9-2.6447 2.0519-3.635 4.3398-3.5391zm-434.62 0.10742c2.2665-0.0516 3.4434 0.90539 4.2168 3.4629 0.0438 0.14625 0.0878 0.29125 0.13282 0.4375l-4.8633 1.8633-0.64453-2.127-16.332 3.498 3.623 11.986 16.334-3.498-1.2754-4.2168-8.5352 1.8301-0.97657-3.2266 13.635-2.9199 1.9707 6.5254c1.075 3.5562 0.004 4.7598-4.2207 5.666l-15.508 3.3203c-4.225 0.905-5.8527 0.27766-6.9277-3.2773l-3.0137-9.9688c-1.075-3.5562-0.002-4.7642 4.2227-5.668l15.508-3.3223c1.0234-0.21906 1.8988-0.34802 2.6543-0.36523zm215.63 16.326c-16.869 0-32.947 0.31039-48.297 0.90039 21.582 12.53 36.631 24.577 47.115 35.131 0 0 0.7168 0.90781 1.8418 1.9766 6.735-12.842 12.288-25.526 16.844-37.893-5.7475-0.0762-11.581-0.11523-17.504-0.11523z" transform="matrix(.8 0 0 -.8 0 434)" fill="#fd0"/><path d="m24.908 19.773c-13.699 14.355-19.523 41.673-15.01 91.137 6.357 69.67 29.252 132.73 63.284 186.18h-9.9668v149.1 0.41211l0.32812-0.10352 39.799 37.537c42.304-12.416 93.249-23.226 159.29-28.617 83.966 37.659 93.686 72.861 93.686 72.861s9.5506-35.464 92.967-73.094c64.46 5.0062 115.85 15.01 157.74 26.625l41.709-39.643 0.71289 0.25v-145.33l-11.443 0.002c34.096-53.425 57.054-116.46 63.416-186.18 4.5125-49.466-1.313-76.784-15.012-91.139 0 0 0.73477 54.059-66.365 83.344l-108.77 44.873 9.1074-21.414-43.359 13.525c3.8838 7.8088 5.2452 17.624 2.3027 29.848-7.1662 29.755-30.747 39.645-31.51 39.959l-13.604 5.6152 3.1699-14.373c2.3062-10.449-8.5389-13.752-13.035-10.934-0.445 0.27875-1.0534 0.62789-1.7422 1.0879-0.52875 0.35375-1.0373 0.73508-1.5098 1.1738-0.9025 0.83875-1.7706 1.9645-2.2969 3.6758-1.0638 3.47-1.3127 11.498 7.8223 27.678 3.2775 5.8062 6.2777 12.015 9.0215 18.441l-8.1856 0.4375c-2.3275-5.2612-4.8329-10.332-7.5254-15.102-19.1-33.833-3.6091-41.43 0.33594-43.902 7.1975-4.5112 29.132-1.3441 24.619 19.1 0 0 20.678-8.5325 26.969-34.656 9.2738-38.51-30.932-45.429-45.398-50.246 0 0 13.052-22.795-43.047-29.994-56.101-7.1988-97.688 32.471-97.688 32.471l9.8027 3.2676s-23.933 24.003-34.605 48.266l13.297 3.0371s-10.419 17.912-15.918 45.797l14.062-7.1992s0.22172 14.015-1.9883 30.584c-48.389-1.9212-89.91-5.8519-121.02-9.6094l-89.008-13.38c-2.695-6.6688-5.2209-13.448-7.5684-20.33l166 21.48-174.52-49.97c-1.591-6.15-3.04-12.37-4.344-18.67l171.07 42.604-175.64-69.154c-0.83375-6.0562-1.5339-12.172-2.0977-18.342-0.6125-6.7225-1.0166-12.915-1.2266-18.621 11.808 12.716 28.048 24.91 50.1 34.535l161.9 66.795-16.014-28.49 23.328 6.9785c3.6075-6.8312 8.238-14.075 12.717-20.586l-73.104-22.814 9.1035 21.414-108.78-44.86c-67.097-29.288-66.362-83.347-66.362-83.347zm350.51 80.247c1.0391 0.0187 2.0847 0.0616 3.1387 0.12891 36.856 2.3512 36.521 17.756 36.521 17.756s-8.063 7.8703-15.262-3.0234c0 0 0.20765 11.526-9.2148 9.2148-14.388-3.53-42.148-13.676-42.148-13.676l14.105 15.037s-4.5342 3.7294-4.5117 11.564c0.0375 12.121 10.564 12.914 10.564 12.914-5.6762 7.755-2.8145 15.84-2.8144 15.84 0 0-15.028 2.589-19.975 17.178 0 0 9.4374-1.4621 15.482-0.9746 0 0-14.432 13.153-10.547 31.113 0 0 6.044-10.927 14.865-13.85 0 0-3.6399 13.851 0.86133 28.676 0 0 5.5537-20.882 14.188-22.344 0 0-3.7201 19.905 8.9824 38.719-12.386 0.4025-25.226 0.70828-38.51 0.89453-21.065 0.2975-41.382 0.12563-60.75-0.39062 3.235-13.338 5.5676-30.342 7.9238-52.027l-10.223 4.3652s3.6951-17.42 16.268-36.855l-10.557 1.3438s8.4392-19.095 35.512-37.191l-10.893-3.0234s24.779-21.972 56.992-21.389zm301.83 27.102c-1.235 8.9788-2.7641 17.833-4.5703 26.551l-171.07 42.604 175.64-69.154zm-309.58 1.9727 3.6543 1.5332 2.3535 7.4336 4.9609-4.3672 3.1621 1.3262c-0.49251 4.2738-4.3015 7.4009-8.6152 7.0234-4.3875-0.385-7.6325-4.2524-7.25-8.6387 0.1425-1.6388 0.77313-3.1193 1.7344-4.3106zm34.977 1.082s34.583-0.30047 48.092 11.676c17.756 15.741 3.6953 33.16 3.6953 33.16s-4.4935-18.103-36.572-20.012l-31.766-1.8906-6.1621 8.9414 7.4961-3.3438s37.004-0.23719 46.348 8.0391l-60.363-0.97265c-2.1512-14.082 12.976-29.768 29.232-35.598zm12.186 5.1836c-10.973-0.0764-15.023 3.9766-15.023 3.9766l16.191 2.1855 1.1211-6.0898c-0.79391-0.0442-1.5575-0.0672-2.2891-0.0723zm253.5 36.982c-2.5 9.6812-5.3477 19.18-8.5215 28.49l-166 21.49 174.51-49.97zm-16.09 48.82c-3.9075 9.6675-8.174 19.105-12.771 28.299l-23.627-0.53711-0.16211-22.273 36.561-5.4883zm-545.97 21.76c16.949 2.7675 33.956 5.0131 51.027 6.8594l0.32422 14.672c-6.3362-4.4788-8.1449-4.0403-15.545-4.7266 0.2725 8.2062-1.0298 33.958 3.6914 39.221l-24.318-0.83203 0.0801-40.533c-2.6712-0.25-5.3477-0.67383-8.0352-0.67383-2.7262 0-5.0197 1.3955-7.2734 2.7617l0.0488-16.748zm491.11 1.1211-0.0547 16.67c-2.6962-1.82-5.4305-3.3906-8.7793-3.3906-5.7212 0-11.53 1.1002-17.227 1.6289l-0.008 7.9297 22.301-1.7852-0.0293 10.102-22.279 1.252-0.008 9.8828c2.9325-0.0863 5.869-0.0137 8.8027-0.0137 6.51 0 12.161-0.95063 17.365-5.1406l-0.0586 17.787-46.943-0.002c-0.002-5.6788 0.55914-44.484-0.53711-46.248-0.605-0.975-1.2533-1.9306-2.082-2.7344 16.55-1.6925 33.06-3.6562 49.537-5.9375zm-508.32 5.0703 0.50391 19.393h-6.2715c-3.5538-6.2212-6.9518-12.565-10.186-19.031l15.953-0.36133zm454.32 1.3027 0.006 14.734c-3.3762-2.08-5.627-3.2051-9.6894-3.2051-5.42 0-10.841 0.7318-16.246 1.0606l0.01 7.123 22.238-1.1758 0.004 8.9512-22.23 0.82618 0.01 8.8789c2.8162-0.0513 5.633 0.0352 8.4492 0.0352 6.32 0 12.364-0.6543 17.67-4.4043l0.0156 15.723-46.959-0.002c-0.005-5.2988 0.55492-40.464-0.54883-42.123-0.61001-0.915-1.2588-1.8076-2.0801-2.5488 16.467-1.0712 32.92-2.3506 49.352-3.873zm-381.98 0.85c16.421 1.5688 32.865 2.8157 49.33 3.8144l0.3418 13.318c-8.4012-5.4538-16.628-4.3136-26.07-4.8711l0.1836 7.0195 22.27 0.95703 0.21289 8.1856-22.258-0.66797 0.23047 8.7461c5.3175 0.10125 10.638 0.28125 15.955 0.28125 4.8275 0 6.1112-0.86547 10.094-3.293l0.36719 14.195h-46.951c-0.135-5.97-0.38766-42.263-1.5664-44.641-0.555-1.1175-1.3449-2.0887-2.1387-3.0449zm326.44 3.4023 0.008 14.014c-5.5875-3.7662-9.9481-3.5215-16.422-3.5215-3.2512 0-8.5898 0.23399-8.5898 4.6465 0 2.7988 4.5666 2.7383 6.4941 2.7383 10.978 0 21.621-3.5003 21.621 11.805 0 11.156-3.1039 14.609-14.441 14.609l-33.787 0.002-0.48047-14.121c4.585 2.4312 8.7955 4.2676 14.074 4.2676l7.623-0.002c2.4462 0 4.793-0.47265 4.793-3.4414 0-3.11-2.411-3.4199-4.9473-3.4199-11.885 0-22.426 2.8672-22.426-13.07 0-3.26 0.17281-6.8815 2.6641-9.3027 5.065-4.925 35.529-4.7281 43.816-5.2031zm-272.02 0.69922c2.085 0.10375 21.961 0.96938 22.131 1.0469 0.13375 0.0613 14.537 15.853 16.014 17.461l-0.28516-16.889 13.619 0.39649 0.54102 41.572-16.736-0.002-0.60352-0.60547c-6.0262-6.0412-11.99-12.145-17.957-18.246 0.0537 2.5238-0.13867 5.0471-0.13867 7.5684 0 3.7975 0.21813 8.3975 3.0469 11.281h-15.947c-0.1275-5.2462-0.405-39.15-1.5625-40.889-0.635-0.95376-1.3036-1.8866-2.1211-2.6953zm217.32 1.7422-0.0195 13.242c-5.715-3.7512-10.955-3.6094-17.559-3.6094-2.9738 0-7.4609 0.31969-7.4609 4.2734 0 2.8212 5.0727 2.7188 6.9727 2.7188 10.309 0 21.117-2.8929 21.117 11.443 0 11.602-4.1598 13.783-15.166 13.783l-33.098-0.002-0.45507-13.688c5.6112 2.915 9.4413 4.2441 15.799 4.2441l6 0.002c2.335 0 4.7012-0.40547 4.7012-3.2617 0-3.12-2.6741-3.3125-5.1328-3.3125-11.521 0-22.207 2.5688-22.207-12.875 0-3.1762 0.19875-6.6643 2.6875-8.9668 4.9725-4.6025 35.734-3.7509 43.82-3.9922zm-159.73 0.42187c2.1125 0.04 21.99 0.32407 22.201 0.41407 0.2025 0.0863 14.246 15.053 15.725 16.615l-0.0195-16.428 13.561 0.10351-0.0566 40.719h-16.748l-0.79492-0.7832-17.465-17.324-0.0937 11.223c0 2.6025 0.83312 5.031 2.7031 6.8848h-15.943c-0.065-5.0162 0.20375-37.245-0.96875-38.916-0.6275-0.895-1.2896-1.7678-2.0996-2.5078zm106.73 0.64258-0.041 12.379c-4.5762-2.6075-6.7388-3.25-12.031-3.25l-13.863 0.0898-0.0273 6.2539 22.223-0.0625-0.0215 6.9375-0.006 0.63086-22.223 0.043-0.0293 7.7969 15.943-0.0137c4.6738 0 6.2665-0.97961 10.178-3.2246l-0.0488 13.205-46.943-0.004c0.008-4.6475 0.66305-36.732-0.4082-38.248-0.62-0.8775-1.2736-1.7346-2.0898-2.4434 16.462 0.0575 32.927 0.0452 49.389-0.0898zm235.82 10.334h13.303c-4.1725 7.3038-8.559 14.435-13.146 21.387l-0.15624-21.387zm-198.61 41.514c1.6762-0.006 3.3899-0.003 5.1406 0.008 19.67 0 39.333 0.47828 58.988 0.98828l-0.22461 30.096c-13.934-9.325-23.027-9.5586-41.676-9.5586-27.194 0-34.137 7.0668-34.137 25.404 0 4.67 0.34469 9.9623 6.0234 13.072 7.3738 4.0363 27.565 4.1602 36.518 4.1602 12.278 0 20.649-1.3005 31.766-4.918l-0.21093 26.713-8.5762 0.0859c-17.465 0-34.918-0.78031-52.342-1.5391-39.399-1.7175-69.908-3.333-69.908-36.404 0.19979-38.606 16.675-47.907 68.639-48.107zm-337.4 1.9824h130.42v35.025c-4.3112-3.9188-11.219-6.668-20.342-6.668-6.3538 0-11.82-0.23898-18.145 0.13477 0.355 19.766-0.80343 27.823 0.16407 47.574 0 7.8425 8.0839 11.48 12.098 14.398-20.3 4.0825-45.762 7.5639-65.527 12.785v-74.758c-23.4 0-28.326 6.7952-38.68 20.91l0.01172-49.402zm260.97 0 0.30859 27.186c-10.811-4.8088-15.895-6.5684-28.832-6.5684-12.495 0-25.186-0.22625-37.674 0.0312l0.0488 11.928c18.696-0.54625 32.043-1.2788 50.754-1.4688v16.99c-18.622 0.29-32.416 1.0899-51.006 1.9199l0.20312 10.625c11.421-0.62125 45.804-0.73273 53.918-3.2715 4.0575-1.2675 8.8491-3.954 12.588-5.6152v28.23c-39.471 0.8225-79.639 3.1002-118.52 8.0215-0.0538-8.1625-0.0234-74.676-0.0234-74.676s-0.97031-6.4116-1.5391-7.3203c-1.225-1.955-3.6781-4.1545-5.6094-5.7695 41.91-0.17125 125.38-0.24219 125.38-0.24219zm230.61 0h60.348l-0.0664 111.61c-17.215-5.7625-34.215-9.0426-52.273-13.33v-36.332c-10.084-1.4425-20.801-2.7224-30.955-3.8887l0.21875 34.398c-17.931-3.015-35.849-5.4127-54.078-7.334 0.095-25.052 0.28711-50.108 0.28711-75.16 0-1.8162-0.3789-3.5345-1.5664-5.1582-1.2638-1.7263-3.2548-3.2178-5.0098-4.6953l59.783 0.25782 0.20507 32.494c10.115 0.68375 20.217 1.4428 30.307 2.2891 0.055-7.1462 0.24024-14.3 0.24024-21.443 0-5.8325-2.7807-9.0509-7.4394-13.711zm-212.4 95.281c104.66 0 199.86 12.443 271.85 32.74l-27.939 27.898c-60.305-16.211-136.25-28.393-243.91-28.393-112.48 0-190.59 11.659-251.58 28.949l-28.402-26.08c72.862-21.69 168.94-35.1 279.99-35.1zm-14.01 7.7676-4.8535 0.0703 0.21289 10.248c0.0125 0.605 0.12617 1.7402 0.29492 3.3652-0.825-0.7825-1.7378-1.4526-2.6953-2.0801l-16.551-11.256-3.6836 0.0547 0.4043 19.514 4.8535-0.0723-0.2207-10.551c-0.0113-0.5675-0.0759-1.5896-0.28711-3.0996 0.6425 0.59625 1.2811 1.0806 1.9648 1.5606l17.281 11.814 3.6855-0.0547-0.40625-19.514zm37.207 0.51953-0.83008 19.506 23.939 0.7207 0.15625-3.666-18.551-0.56055 0.20703-4.8379 10.689 0.32227 0.14063-3.3262-10.689-0.32226 0.1836-4.3477 18.326 0.55274 0.14258-3.3262-23.715-0.71484zm-78.928 0.39648-23.682 1.2637 1.4707 19.479 23.906-1.2773-0.27539-3.6621-18.525 0.99219-0.36523-4.832 10.676-0.57032-0.25-3.3223-10.676 0.57031-0.32813-4.3418 18.301-0.97851-0.25195-3.3203zm125.54 1.4043-14.609 18.756 5.3828 0.29688 3.0234-4.1172 14.666 0.80469 2.4473 4.418 6.0547 0.33399-11.764-20.207-5.2012-0.28516zm-173.46 1.8984c-0.96403-0.0227-1.9865 0.0148-3.0644 0.11328l-14.834 1.3535 2.5 19.404 13.451-1.2285c4.11-0.375 7.1936-1.0004 9.2773-2.3691 3.0038-1.9488 4.4934-5.1279 4.0234-8.7754-0.67922-5.2642-4.6053-8.3392-11.354-8.498zm206.43 0.25976c-3.1983-0.0416-4.3962 0.98485-4.7812 4.1797l-1.2363 10.236c-0.44125 3.6488 0.83171 4.7088 5.168 5.0801l15.92 1.3613c4.3362 0.37125 5.8373-0.45086 6.2773-4.0996l0.80859-6.6992-13.996-1.1973-0.39844 3.3125 8.7637 0.74805-0.52343 4.3281-16.768-1.4336 1.4863-12.307 16.766 1.4356-0.26367 2.1836 5.3281-0.34375c0.0188-0.15125 0.0359-0.30117 0.0547-0.45117 0.4225-3.5-0.9889-4.5338-5.1914-4.8926l-15.918-1.3613c-0.54203-0.0464-1.0392-0.0741-1.4961-0.0801zm-30.84 1.75 4.3652 8.1973-10.135-0.55469 5.7695-7.6426zm-176.37 1.4961c3.9294 0.10361 6.1416 1.9698 6.5879 5.4238 0.62 4.8125-2.5916 6.5519-9.3828 7.1719l-6.9258 0.63281-1.584-12.297 9.5156-0.86914c0.63125-0.0577 1.2277-0.0773 1.7891-0.0625zm245.91 0.35156-3.332 19.316 22.549 2.7559 0.62695-3.6309-17.213-2.1035 2.707-15.686-5.3379-0.65234zm-292.28 1.125-5.332 0.68164 3.4844 19.295 22.529-2.8809-0.65625-3.627-17.197 2.1992-2.8281-15.668zm326.97 3.4023-4.5254 19.143 23.496 3.9336 0.84961-3.5996-18.205-3.0469 1.123-4.75 10.49 1.7578 0.77148-3.2637-10.49-1.7578 1.0078-4.2656 17.986 3.0098 0.76953-3.2637-23.273-3.8965zm-350.64 0.14454c-0.76324-0.0216-1.665 0.0696-2.7344 0.24804l-16.754 2.7891c-4.2762 0.7125-5.4244 1.8668-4.5781 5.4668l2.373 10.094c0.84625 3.5988 2.4315 4.3004 6.709 3.5879l16.754-2.791c4.2775-0.7125 5.4256-1.8688 4.5781-5.4688l-2.373-10.092c-0.63563-2.6991-1.6849-3.7692-3.9746-3.834zm-1.5781 3.6016 2.8535 12.133-17.459 2.9102-2.8535-12.135 17.459-2.9082zm393.06 3.9551c-2.288-0.0959-3.4398 0.89437-4.3398 3.5391l-0.70507 2.0742c-1.2012 3.5262-0.17172 4.7583 4.0195 5.7695l13.91 3.3555-1.459 4.2891-15.771-3.8027 0.75586-2.2168-4.8516-0.30469-0.17383 0.50977c-1.2012 3.5275-0.12875 4.768 4.0625 5.7793l13.783 3.3242c4.1912 1.0112 5.884 0.43375 7.084-3.0938l0.87891-2.5801c1.2012-3.5275 0.1275-4.7712-4.0625-5.7813l-13.912-3.3555 1.375-4.0352 14.602 3.5215-0.73047 2.1445 4.8887 0.19531 0.13672-0.39844c1.1025-3.2375-0.15586-4.4846-4.1309-5.4434l-12.66-3.0527c-1.0475-0.2525-1.9366-0.40553-2.6992-0.4375zm-434.62 0.10742c-0.75551 0.0172-1.6309 0.14617-2.6543 0.36523l-15.508 3.3223c-4.225 0.90375-5.2977 2.1117-4.2227 5.668l3.0137 9.9688c1.075 3.555 2.7027 4.1823 6.9277 3.2773l15.508-3.3203c4.225-0.90625 5.2957-2.1098 4.2207-5.666l-1.9707-6.5254-13.635 2.9199 0.97657 3.2266 8.5352-1.8301 1.2754 4.2168-16.334 3.498-3.623-11.986 16.332-3.498 0.64453 2.127 4.8633-1.8633c-0.045-0.14625-0.0891-0.29125-0.13282-0.4375-0.77343-2.5575-1.9503-3.5145-4.2168-3.4629zm215.63 16.326c5.9225 0 11.756 0.039 17.504 0.11523-4.5562 12.366-10.109 25.05-16.844 37.893-1.125-1.0688-1.8418-1.9766-1.8418-1.9766-10.484-10.554-25.533-22.601-47.115-35.131 15.35-0.59 31.428-0.90039 48.297-0.90039z" transform="matrix(.8 0 0 -.8 0 434)" fill="#4f2984"/></g></g></svg>