<svg xmlns="http://www.w3.org/2000/svg" xml:space="preserve" viewBox="0 0 261.17 249.85"><path style="fill:#820431;fill-opacity:1;fill-rule:nonzero;stroke:none" d="M1937.43 958.609v-23.984l-1.07-2.785c-8.69-22.266-19.05-42.051-22.58-60.641-.33-1.679-.5-3.578-.5-5.73-.02-4.77.9-10.758 2.12-17.539 1.19-6.789 2.66-14.371 3.04-22.75.22-5.399.49-11.168.49-17.168-.01-9.621-.64-19.883-3.63-30.293-2.62-8.981-6.64-16.719-10.62-23.719-2.28-3.969-4.51-7.68-6.62-11.25 1.93-3.129 3.79-6.168 5.58-9.059l11.17-18.179-20.56-5.711c-8.07-2.219-15.46-3.289-21.34-4.621-5.92-1.27-10.01-2.84-12.01-4.348-16.15-11.582-33.41-17.684-49.97-20.992-16.59-3.309-32.59-4.02-47.22-4.828l-9.89-.543c.39-.688.78-1.348 1.16-2.117 1.62-3.332 3.09-7.782 3.09-12.903.01-3.929-.91-8.039-2.57-11.699-1.65-3.68-3.95-6.961-6.68-9.988-14.14-15.68-27.31-32.051-39.48-49.512-10.05-14.301-23.66-24.43-37.52-33.02-13.9-8.57-28.31-15.66-40.67-22.789l-.01-.011c-5.99-3.391-11.52-4.77-15.77-5.918-2.28-.571-4.17-1.09-5.55-1.524l-.34-8.328-11.08-3.23c-14.37-4.2-26.28-7.68-36.73-10.731l-8.43-2.449-6.62 5.762c-2.12 1.84-3.28 2.359-3.68 2.488l-.11-.039c-.41-.16-1.28-.629-2.47-1.481-1.65-1.148-3.92-3.082-6.55-5.21 1.63-4.04 3.21-7.938 4.78-11.84l9.06-22.418-23.34.32c-.51-.23-1.6-.852-3.02-1.871-3.01-2.063-6.95-5.57-12.64-8.871-3.79-2.129-8.84-4.442-15.5-4.488-3.04-.012-6.28.628-9.3 1.796a735.929 735.929 0 0 1-4.35-12.269c.23-.188.4-.309.64-.52l11.37-10.25-9.69-11.847c-6.06-7.41-12.13-14.821-18.18-22.242l-8.3-10.141-11.6 6.082c-.64.34-1.26.66-1.88.98-1.38-2.179-2.85-4.421-4.54-6.742-3.68-4.98-8.47-10.277-15.14-14.359l-1.92-1.168-2.18-.602-5.86-1.621c1.56-2.949 3.16-5.988 4.89-9.258l2.89-5.48-1.54-6c-7.7-30.051-16.34-64.051-25.13-98.031-1.64-6.239-3.79-11.41-5.24-15.668-1.51-4.242-2.17-7.453-2.13-8.961l.02-.571c-.03-.949 1.2-4.351 3.9-9.21 2.52-4.911 6.36-11.141 8.14-20.059 5.62-29.699 15.79-58.242 28.08-86.609 4.1-9.622 11.32-19.641 17.68-30.332l7.86-13.372-13.08-8.328c-8.57-5.449-21.32-13.55-36.78-23.39l-11.02-7.008-9.11 9.348c-9.11 9.351-19.03 16.289-29.91 20.992-10.89 4.68-22.81 7.168-36.23 7.18-6.06 0-12.42-.52-19.09-1.602h-.01c-2-.32-3.98-.461-5.88-.461-9.67.09-17.41 3.2-24.25 6.121-6.8 3-12.83 6.148-17.51 7.95-32.41 12.679-62.04 28.382-91.49 35.132-7.03 1.617-13.3 4.09-18.72 7.379-5.43 3.277-9.92 7.359-13.47 11.66-7.12 8.688-10.71 17.629-14.41 25.52-8.57 18.718-15.7 36.8-25.45 50.808-3.18 4.653-7.45 9.692-11.54 16.289-4.03 6.512-7.81 15.293-7.77 25.633 0 2.938.4 5.961.98 8.988-.12.231-.2.403-.34.672-1.14 2.239-3.24 5.438-4.95 10.59-.74 2.359-1.94 5.481-3.11 9.25-1.14 3.789-2.32 8.309-2.35 13.828l.1 2.59v-.019c.17 2.199.25 4.179.25 5.949-.01 5.679-.8 8.902-1.79 11.07-1.02 2.16-2.34 3.941-5.72 6.59-2.23 1.73-5.35 3.68-9.41 5.82-6.44 3.41-14.11 7.602-21.36 13.039-7.16 5.492-14.46 12.172-18.564 22.621-4.816 12.692-11.422 23.25-19.621 33.289-8.191 10.024-18.031 19.473-28.914 29.43-9.211 8.551-13.887 18.781-17.738 27.992-3.778 9.27-6.746 17.961-10.149 24.239-6.039 11.32-13.925 22.98-21.531 35.511-7.574 12.539-14.949 26.032-19.211 41.481-6.012 21.578-17.273 35.789-33.5 50.758-12.09 11.089-26.027 21.48-39.883 33.293-13.32 11.359-26.578 24.218-37.421 40.527l-.29.109c-1.296.5-3.648.992-5.21 1.114-22.2 1.98-45.254 2.507-68.875 4.699-13.188 1.328-23.629 5.32-32.051 6.719-2.297.421-5.293.921-8.11 1.332-.789-1.043-1.437-2.192-2.332-3.122-3.769-3.949-8.351-6.582-12.523-8.082-8.422-2.929-15.082-2.66-19.301-3.199-2.836-.258-4.387-.719-4.586-.859-3.015-1.391-5.406-2.059-7.234-2.629l-.692-.223c-6.75-13.418-12.781-27.687-18.996-42.406-4.84-11.07-8.164-25.801-16.933-40.492l-.008-.012c-8.594-13.93-19.836-23.617-28.41-32.637a51.403 51.403 0 0 0-5.305-4.769c-2.047-1.57-4.246-3.133-7.387-4.57-2.14-.911-4.711-1.973-8.98-2.043-1.817 0-3.969.261-6.258 1.082-15.34 5.507-30.926 11.699-46.012 19.519-22.363 11.602-44.328 23.981-65.859 36.942-15.25 9.187-29.156 19.507-42.688 29.289-3.714 2.757-5.527 5.379-6.894 7.211-.418.597-.703 1.007-1.016 1.457-10.16 2.91-19.054 7.48-26.312 13.332-8.262 6.629-14.473 14.629-19.219 22.859-9.457 16.5-13.629 34.059-17.43 47.93-7.515 27.91-12.648 54.691-21.656 80.582-4.687 13.527-10.578 24.828-17.633 33.687-7.086 8.871-15.218 15.403-25.273 19.922-22 9.859-36.797 25.57-49.215 40.231-12.43 14.8-22.941 28.691-35.395 38.179-15.179 11.68-28.91 24.364-42.371 36.434-6.847 6.211-15.242 13.219-22.199 23.16-4.96 7.185-8.465 14.285-11.773 20.425-3.281 6.16-6.348 11.3-9.574 14.94-2.915 3.33-7.125 6.67-12.29 10.18-5.148 3.52-11.171 7.17-17.359 11.65l-6.621 4.81V1075.33l1.313 3.05c2.343 5.43 4.687 10.87 6.988 16.19l4.351 10.07 10.957-.39c162.625-5.68 324.903-11.35 487.262-17.02 3.828 163.18 16.938 765.28 16.938 765.28h437.597l6.141-329.36c6.348-6.09 11.785-11.94 16.685-16.65 6.18-6.04 11.41-9.97 15.75-11.63 1.47-.59 3.81-1.03 7.13-1.03 3.86-.01 8.86.62 14.45 1.47 2.9.44 5.95.92 9.15 1.35.14.28.27.55.42.82l28.45.21c5.84-10.95 11.38-21.72 17.21-31.98.39-.71.76-1.31 1.09-1.85 7.57-2.18 14.75-4.65 21.27-6.6 7.53-2.3 14.23-3.72 19.31-3.69 1.45 0 2.78.11 4 .3 4.21.67 8.32 1.03 12.35 1.03 8.26.02 16.19-1.58 23.33-4.56.9-.37 1.67-.92 2.53-1.32l3.31.58c16.38 2.91 32.77 5.81 51.22 9.07l26.27 4.65-8.18-25.39c-.55-1.69-.86-3.03-1.05-4.09.07 0 .11-.01.17-.01l.33.01 10.24.13 4.44-9.22c1.29-2.68 2.29-5.17 3.2-7.48 1.84.92 3.86 1.95 6.23 3.07.43.16 2.38 1.36 4.61 2.93 2.32 1.58 4.89 3.5 8.53 5.4 2.5 1.17 5.48 2.76 10.97 2.89 2.32.01 5.17-.43 7.94-1.71 11.26-5.25 20.27-12.17 28.44-18.32 5.76 3.18 11.78 6.51 18.24 10.08l19.17 10.57 3.25-16.07c1.74 3.16 3.47 6.3 5.22 9.46l11.41 20.65 15.04-18.18c3.6-4.36 6.7-7.56 9.1-9.6 1.97-1.69 3.24-2.4 3.93-2.73.56.41 1.46 1.15 2.74 2.62l8.96 10.23 11.57-7.15c12.79-7.9 25.14-15.52 35.78-22.1 17.1 9.03 33.35 18.12 51.05 25.66 13.93 5.8 27.39 6.33 38.18 7.75 4.41.54 8.95.84 13.55.84 4.69 0 9.45-.31 14.21-1.05 5.51-.86 10.28-1.51 13.7-1.5 3.56.01 5.28.58 6.35 1.21 1.05.68 2.55 1.74 4.63 6.36l6.98 16.01 15.37-8.29c24.72-13.44 45.48-27.78 66.23-35.03 12.24-4.38 22.5-10.48 31.88-14.92 9.4-4.53 17.47-7.27 25.12-7.24 4.17.02 8.41.73 13.46 2.75 3.49 1.4 7.06 2.04 10.79 2.05 6.44.02 13.81-2.12 19.82-7.65 6.06-5.49 9.6-13.91 10.1-22.71 4.85-73.62 11.46-147.37 16.45-221.47.56-8.57 1.63-15.22 3.64-20.2 2.06-5.01 4.66-8.82 10.51-13.25 6.19-4.64 11.17-10.5 15.21-17.15 3.94-6.69 7.04-14.05 7.5-22.84.28-6.1 1.55-10.85 3.74-15.93 2.18-5.05 5.44-10.38 9.54-16.6 15.1-23.05 27.3-47.005 40.15-69.555l2.1-3.696zM670.227 672.852c.019.019.023.027.043.046.023.024.035.032.05.051zM1953.95 977.145l-.01.019c-12.53 21.941-24.93 46.356-40.84 70.676l-.06.09.04-.05c-3.89 5.88-6.52 10.36-7.77 13.33-1.41 3.43-1.77 4.79-2.01 8.42l-.01.08v.05c-.67 13.28-5.51 24.29-10.44 32.59l-.06.11-.08.13c-5.18 8.55-11.95 16.64-20.67 23.18l.09-.07c-1.81 1.38-2.36 2.05-2.63 2.39-.25.34-.44.61-.97 1.84-.61 1.39-1.69 6.11-2.11 13.53l-.01.06c-5.02 74.42-11.62 148.16-16.45 221.44h-.02c-.87 13.6-6.09 27.02-17.01 37.11-10.47 9.57-23.14 13.28-34.19 13.27h-.14c-6.14 0-22.49-4.75-24.26-4.8h-.05c-1.22-.01-3.01.21-5.64 1.01-2.63.79-6.02 2.15-10.07 4.11l-.05.02-.07.03c-8.04 3.74-19.24 10.47-33.8 15.73l-.1.03-.07.03c-8.33 2.89-17.68 7.65-28.13 13.59-10.45 5.93-21.99 12.98-34.94 20.03l-.05.02-35.87 19.36-13.73-31.46c-1.32.17-2.73.38-4.29.64h-.04c-5.99.93-11.84 1.3-17.48 1.3-5.57 0-10.97-.37-16.15-1l-.11-.01-.09-.01c-9.25-1.33-25.57-1.76-43.62-9.21l-.09-.04-.08-.03c-15-6.39-28.57-13.59-41.86-20.68-7.97 4.92-16.52 10.2-25.32 15.64l-26.98 16.67-8.31-9.49-30.85 37.31-14.66-26.56-31.19-17.21c-2.16-1.2-4.21-2.33-6.28-3.47-5.99 4.2-12.84 8.56-21 12.38l-.03.01-.06.03c-6.08 2.77-11.77 3.65-16.82 3.67H1305.87c-4.7-.1-9.11-.93-12.64-2.07-3.53-1.14-6.08-2.47-6.94-2.86l-.39-.18-.34-.18-.72 1.51 13.34 41.41-61.29-10.85c-17.33-3.06-32.82-5.8-48.21-8.53-8.91 3.29-18.44 5.09-28.25 5.09h-.2c-5.29 0-10.53-.47-15.71-1.29l-.03-.01h-.04l-.57-.03h-.16c-1.19-.08-6.55.75-12.91 2.76l-.07.02-.03.01c-3.73 1.1-8.17 2.54-12.89 4.02-4.53 8.23-9.06 16.86-13.92 25.97l-.01.01-61.76 8.47c-4.41-.65-8.06-1.02-9.51-.99h-.2c-1.36.82-4.23 3.05-7.81 6.57l-.06.05-.04.05c-2.83 2.71-6.3 6.32-10.29 10.33-1.85 98.99-6.37 341.67-6.37 341.67H528.215l-16.84-764.53-476.559 16.64-14.605.51-10.148-23.48c-2.313-5.34-4.66-10.79-7-16.21l-1.313-3.05-1.746-4.06v-31.02l15.434-11.23.023-.02c7.066-5.11 13.434-8.96 17.848-12l.058-.03c4.418-2.96 7.371-5.55 8.2-6.56l.062-.07.027-.04c1.121-1.17 3.746-5.16 6.707-10.81l.04-.07c3.058-5.64 6.991-13.712 13.007-22.455l.082-.109c8.91-12.676 19.027-20.93 25.336-26.727l.11-.097c13.3-11.914 27.433-25.008 43.605-37.461l.059-.043.027-.02c9.105-6.773 19.187-19.547 31.973-34.918l.05-.062c12.922-15.227 30.207-34.02 56.805-45.938l-.027.02c6.91-3.168 11.965-7.141 17.312-13.738 5.145-6.454 10.067-15.571 14.133-27.352l.012-.02c8.359-23.91 13.465-50.218 21.199-79.109l.019-.07.012-.031c3.715-13.34 8.188-33.09 19.5-52.918l.031-.063c5.778-10.019 13.618-20.219 24.356-28.848 7.801-6.281 16.836-11.211 26.684-14.812 1.972-2.32 4.687-5.149 8.195-7.688l.117-.089.105-.082c13.379-9.649 27.786-20.379 44.176-30.27 21.891-13.172 44.246-25.77 67.047-37.609 16.352-8.469 32.844-14.981 48.633-20.661h.019a39.989 39.989 0 0 1 13.485-2.339h.176l.168.007c3.828.051 7.468.614 10.488 1.434 3.016.797 5.355 1.809 6.492 2.289l.305.129.293.129c5.047 2.293 9.031 5.152 11.465 7.031l.109.09.074.051a74.385 74.385 0 0 1 7.496 6.738l.086.102.051.039c6.93 7.441 18.848 17.84 29.145 33.371l.773.769 1.359 2.289c5.391 9.032 8.922 17.75 11.66 25.211 2.715 7.45 4.739 13.692 6.512 17.692l.059.129.047.109c4.965 11.77 9.765 22.781 14.703 33.219.648.09 3.601.222 7.547.652 4.289.481 9.812 1.438 15.871 3.551l.097.039.102.027a54.942 54.942 0 0 1 15.023 8.321c2.481-.571 5.762-1.438 9.7-2.45 5.703-1.429 12.73-3.05 20.882-3.879l.09-.011h.102c22.836-2.11 44.355-2.75 64.332-4.36 11.137-14.828 23.598-26.871 35.527-37.058l.024-.02c14.519-12.332 28.32-22.672 39.273-32.742 7.449-6.867 13.113-13.008 17.442-19.277 4.32-6.321 7.488-12.821 9.914-21.453l-.008.043c5.121-18.493 13.636-33.77 21.527-46.864l.02-.027c7.964-13.09 15.683-24.582 20.941-34.492l.047-.078.027-.051c2.071-3.649 5.16-12.192 9.141-22.09l.023-.07.051-.121c4.047-9.618 10.043-23.45 22.926-35.418l.062-.071.047-.039c10.664-9.75 19.758-18.562 26.789-27.179 7.114-8.75 12.266-17.071 16.18-27.332l.051-.141.039-.098c3.055-7.82 7.437-14.34 12.015-19.511 4.586-5.188 9.33-9.11 13.44-12.27l.12-.09.07-.058c8.83-6.602 17.54-11.301 24.18-14.832l.07-.04c2.62-1.371 4.32-2.449 5.42-3.21.02-.418.05-.731.05-1.309 0-1.129-.05-2.582-.19-4.32l13.83-1.051-13.87.269-.1-2.589-.02-.461v-.457c.03-8.543 1.94-15.52 3.26-19.903l.03-.109.02-.059c1.41-4.5 2.76-8.062 3.14-9.34l.05-.16.05-.14c1.12-3.403 2.38-6.2 3.52-8.493-.14-1.628-.3-3.257-.3-5.019v-.008.008-.18c.03-15.597 5.64-28.109 10.99-36.75 5.04-8.097 9.89-13.82 12.05-17.078l.06-.09.05-.07c7.71-10.891 14.76-28.09 23.55-47.481l.05-.101.04-.078c3.36-7.031 7.77-18.41 17.22-29.992l.05-.071c4.96-6.008 11.22-11.707 18.91-16.347 7.63-4.63 16.06-7.871 24.98-9.93l.05-.012c25.5-5.687 54.67-20.847 88.45-34.199l.08-.031.1-.04c2.72-.988 9.01-4.179 16.49-7.519l.1-.05.14-.06c7.11-3.019 18.21-7.718 32.46-7.84H1290.53c2.92 0 6.04.2 9.3.731l.11.02c5.57.898 10.74 1.309 15.56 1.309 10.79-.04 19.57-1.938 27.76-5.43 8.16-3.55 15.65-8.7 23.06-16.281L1387.57 0l25.71 16.352c15.46 9.84 28.2 17.937 36.78 23.398l30.52 19.43-18.37 31.25-.02.039c-7.03 11.64-13.81 21.441-16.39 27.781l-.02.051-.03.058c-11.93 27.532-21.48 54.571-26.69 82.082l-.01.098-.02.109c-2.54 12.813-8.25 21.922-10.11 25.672l-.14.282-.16.289c-.19.328-.3.558-.45.871.04.117.06.199.1.328l.05.129.04.121c1.06 3.211 3.62 9.289 5.69 17.172l.01.047c8.81 34.05 17.47 68.07 25.15 98.082l1.54 6 2.05 8-1.54 2.918a71.176 71.176 0 0 1 6.65 6.281l12.96-6.781 19.35 23.652c6.06 7.418 12.12 14.828 18.19 22.25l22.59 27.66-4.06 3.649c.73.378 1.58.781 2.19 1.128l.14.082.15.09c3.83 2.231 6.96 4.461 9.38 6.258.77.582 1.34 1.024 1.96 1.492l48.84-.66-14.46 35.738 2.52.743c10.47 3.05 22.38 6.531 36.74 10.718l25.87 7.563.34 8.359c3.36 1.199 7.13 2.77 11.09 5.02l.53.301c11.42 6.578 25.97 13.75 40.83 22.886l.05.043-.01-.011c14.87 9.242 31.16 21.011 43.77 38.929l.05.082-.02-.031c6.1 8.73 12.49 17.172 19.12 25.41l10.34-39.871 5.34 58.313c1.04 1.168 1.98 2.398 3.02 3.558l.02.02c3.86 4.281 7.54 9.422 10.28 15.511 2.19 4.891 3.36 10.11 3.92 15.52 11.11.711 23.26 1.801 36.19 4.379 18.43 3.672 38.53 10.672 57.46 24.051.57.23 2.31.82 4.83 1.359l.1.02.11.019c4.57 1.07 12.73 2.242 22.29 4.852l.06.019 47.98 13.32-24.91 40.52c.08.129.14.23.21.359l.02.032c4.29 7.539 9.23 16.879 12.58 28.339l.01.04.01.031c3.81 13.258 4.44 25.66 4.47 36.168v.043c0 6.629-.29 12.726-.51 18.09l-.01.027c-.46 10.312-2.21 18.98-3.33 25.5l-.02.082c-1.17 6.348-1.82 11.527-1.78 13.59v.168c-.01 1.011.09 1.551.1 1.613l.01.047.01.07c1.29 6.891 4.21 15.289 8.14 24.821 3.9 9.546 8.74 20.218 13.36 32.027l.02.062 1.08 2.829 1.43 3.71v37.875l-4.9 8.622" transform="matrix(.13333 0 0 -.13333 0 249.853)"/><path style="fill:#fff;fill-opacity:1;fill-rule:nonzero;stroke:none" d="M1921.37 937.609c-8.11-21.039-19.08-41.519-23.35-63.316-3.09-15.684 3.65-33.094 4.37-49.805.6-14.109 1.31-29.039-2.53-42.297-4.07-14.07-13.45-26.609-20.48-39.75 3.8-6.171 7.3-11.859 10.57-17.16-13.56-3.769-28.37-4.211-38.4-11.39-27.88-19.95-59.31-21.243-88.72-22.84 1.13 12.429 2.3 25.23 3.46 38.019-4 2.571-8 5.141-11.99 7.711-6.66-7.929-13.32-15.871-22.63-26.972-.19-.11-9.17-3.418-8.88-5.27 1.23-7.84 6.05-15.027 7.98-22.848 2.67-10.8 19.51-18.312 6.11-33.179-14.53-16.121-28.13-33.024-40.72-51.063-16.04-22.969-47.05-36.148-73.02-51.078-11.51-6.621-28.71-4.16-29.25-17.519-14.36-4.192-26.27-7.672-36.72-10.723-20.71 18.051-30.58-7.02-43.42-9.59l9.94-24.629c-15.68.211-30.07-34.379-46.02-.031-6.14-16.649-11.92-31.359-16.62-46.418-.49-1.563 5.4-5.133 8.33-7.77-6.06-7.421-12.12-14.839-18.18-22.25l-2.97 1.559c2.62 7.859 5.25 15.711 7.88 23.57-23.03-9.73-25.2-35.308-42.3-45.769-8.37-2.313-16.75-4.621-25.12-6.93 4.41-8.359 8.82-16.723 14.21-26.93-7.7-30.062-16.34-64.05-25.12-98-2.67-10.269-8.66-20.711-7.8-30.613.93-10.547 10.23-20.148 12.25-30.859 5.94-31.328 16.56-61.008 29.13-90.008 5.1-11.77 12.87-22.383 18.57-32.082-8.57-5.45-21.31-13.559-36.77-23.39-25.53 26.19-58.77 37.773-99.31 31.21-12.1-1.96-26.3 7.692-39.26 12.73-31.22 12.122-61.43 28.309-93.68 35.801-22.57 5.239-28.1 19.258-35.64 35.641-8.32 18.07-15.64 37.039-26.83 53.219-8.98 12.992-20.08 23.058-15.3 41.219 1.23 4.66-4.39 10.941-6.21 16.679-2.04 6.41-5.15 13.192-4.66 19.571 1.82 24.082-4.71 34.043-25.19 44.851-12.4 6.539-28.01 15.531-32.4 27.141-11.01 29.09-30.645 48.668-52.711 68.879-12.387 11.351-16.035 32-24.571 47.949-13.187 24.66-32.218 47.48-39.414 73.68-6.921 25.222-20.839 42.5-38.148 58.339-25.793 23.622-56.371 42-75.922 72.461-2.652 4.129-10.59 6.243-16.309 6.743-22.894 2.039-45.929 2.558-68.812 4.687-10.34.961-20.391 4.691-30.684 6.543-6.91 1.25-19.679 3.297-20.175 1.789-6.36-19.312-24.434-11.391-36.34-16.98-4.637-2.18-11.817-2.86-13.66-6.411-7.946-15.261-14.524-31.25-21.243-47.128-5.41-12.782-8.753-26.731-15.867-38.411-6.793-11.171-17.047-20.293-26.258-29.851-2.91-3.031-8.312-7.27-10.929-6.328-14.992 5.379-29.914 11.328-44.043 18.66-22.031 11.43-43.703 23.637-64.973 36.449-14.371 8.641-27.933 18.688-41.547 28.527-3.734 2.704-5.832 9.25-9.574 10.114-38.992 9.027-47.613 45.726-55.215 73.867-7.324 27.101-12.512 54.332-21.984 81.652-10.278 29.641-26.52 51.821-51.524 63.008-37.058 16.582-51.832 53.762-81.382 76.481-14.418 11.082-27.872 23.48-41.43 35.652-7.027 6.308-14.41 12.683-19.73 20.358-8.196 11.81-13.141 26.2-22.485 36.82-8.703 9.89-21.356 16.28-32.266 24.22v4.2c2.344 5.43 4.692 10.86 6.98 16.18 167.817-5.86 335.259-11.71 502.806-17.56.574 7.23.929 9.99.996 12.74 3.855 164.32 7.793 328.65 11.488 492.98 1.953 86.69 3.492 173.39 5.219 260.08h406.086c2.015-108.35 4.035-216.71 5.968-320.39 15.828-14.11 27.203-30.1 42.483-36.12 13.36-5.27 31.12.68 46.93 1.67 1.46 2.84 2.92 5.68 4.39 8.52 5.76-10.8 11.36-21.69 17.4-32.33 1.84-3.25 4.41-7.61 7.44-8.41 18.19-4.79 37.49-14.13 54.74-11.38 17.79 2.85 29.68-1.72 42.3-12.08l-.51 7.87c16.39 2.9 32.77 5.8 51.22 9.07-6.59-20.46 3.89-25.25 14.95-25.09 4.1-8.52 6.61-19.15 9.87-19.39 6.75-.49 14.04 4.23 20.83 7.41 6.49 3.03 14.65 11.25 18.56 9.45 12.16-5.57 22.65-14.81 33.92-22.72 8.08 4.46 17.33 9.56 27.21 15.02 2.5-12.37 4.5-22.27 7.58-37.5 10.91 19.78 18.4 33.35 26.36 47.76 17.95-21.7 28.78-23.14 40.25-10.05 16.02-9.91 31.5-19.46 43.58-26.92 20.62 10.62 38.78 21.21 57.97 29.36 10.37 4.4 22.43 5.19 33.86 6.58 7.68.94 15.72 1.04 23.36-.14 16.7-2.56 32.88-5.04 41.84 15.53 23.69-12.78 44.94-27.68 68.5-36.03 26.09-9.24 49.54-32.22 81.84-19.17 6.29 2.54 17.69.17 18.66-14.46 4.86-73.87 11.48-147.63 16.45-221.5 1.24-18.37 4.52-33.34 20.62-45.28 8.1-6.01 15.81-18.1 16.22-27.76.7-16.33 7.49-27.85 15.89-40.66 14.47-22.07 26.55-45.71 39.63-68.691v-21zm-174.54-245.097-.59-6.582c-1.2 4.621-2.73 8.261-4.07 11.39l1.81 2.16c1.39 1.668 2.63 3.141 3.91 4.668-.35-3.859-.71-7.839-1.06-11.636zm148.35 343.598c-4.1 6.22-7.36 11.55-9.54 16.6-2.19 5.08-3.46 9.83-3.74 15.93-.46 8.79-3.56 16.15-7.5 22.84-4.04 6.65-9.02 12.51-15.21 17.15-5.85 4.43-8.45 8.24-10.51 13.25-2.01 4.98-3.08 11.63-3.64 20.2-4.99 74.1-11.6 147.85-16.45 221.47-.5 8.8-4.04 17.22-10.1 22.71-6.01 5.53-13.38 7.67-19.82 7.65-3.73-.01-7.3-.65-10.79-2.05-5.05-2.02-9.29-2.73-13.46-2.75-7.65-.03-15.72 2.71-25.12 7.24-9.38 4.44-19.64 10.54-31.88 14.92-20.75 7.25-41.51 21.59-66.23 35.03l-15.37 8.29-6.98-16.01c-2.08-4.62-3.58-5.68-4.63-6.36-1.07-.63-2.79-1.2-6.35-1.21-3.42-.01-8.19.64-13.7 1.5-4.76.74-9.52 1.05-14.21 1.05-4.6 0-9.14-.3-13.55-.84-10.79-1.42-24.25-1.95-38.18-7.75-17.7-7.54-33.95-16.63-51.05-25.66-10.64 6.58-22.99 14.2-35.78 22.1l-11.57 7.15-8.96-10.23c-1.28-1.47-2.18-2.21-2.74-2.62-.69.33-1.96 1.04-3.93 2.73-2.4 2.04-5.5 5.24-9.1 9.6l-15.04 18.18-11.41-20.65c-1.75-3.16-3.48-6.3-5.22-9.46l-3.25 16.07-19.17-10.57c-6.46-3.57-12.48-6.9-18.24-10.08-8.17 6.15-17.18 13.07-28.44 18.32-2.77 1.28-5.62 1.72-7.94 1.71-5.49-.13-8.47-1.72-10.97-2.89-3.64-1.9-6.21-3.82-8.53-5.4-2.23-1.57-4.18-2.77-4.61-2.93-2.37-1.12-4.39-2.15-6.23-3.07-.91 2.31-1.91 4.8-3.2 7.48l-4.44 9.22-10.24-.13-.33-.01c-.06 0-.1.01-.17.01.19 1.06.5 2.4 1.05 4.09l8.18 25.39-26.27-4.65c-18.45-3.26-34.84-6.16-51.22-9.07l-3.31-.58c-.86.4-1.63.95-2.53 1.32-7.14 2.98-15.07 4.58-23.33 4.56-4.03 0-8.14-.36-12.35-1.03-1.22-.19-2.55-.3-4-.3-5.08-.03-11.78 1.39-19.31 3.69-6.52 1.95-13.7 4.42-21.27 6.6-.33.54-.7 1.14-1.09 1.85-5.83 10.26-11.37 21.03-17.21 31.98l-28.45-.21c-.15-.27-.28-.54-.42-.82-3.2-.43-6.25-.91-9.15-1.35-5.59-.85-10.59-1.48-14.45-1.47-3.32 0-5.66.44-7.13 1.03-4.34 1.66-9.57 5.59-15.75 11.63-4.9 4.71-10.337 10.56-16.685 16.65l-6.141 329.36H549.227s-13.11-602.1-16.938-765.28c-162.359 5.67-324.637 11.34-487.262 17.02l-10.957.39-4.351-10.07c-2.301-5.32-4.645-10.76-6.989-16.19l-1.312-3.05v-15.7l6.621-4.81c6.188-4.48 12.211-8.13 17.36-11.65 5.163-3.51 9.374-6.85 12.288-10.18 3.227-3.64 6.293-8.78 9.575-14.94 3.308-6.14 6.812-13.24 11.773-20.425 6.957-9.941 15.352-16.949 22.199-23.16 13.461-12.07 27.192-24.754 42.371-36.434 12.454-9.488 22.965-23.379 35.395-38.179 12.418-14.661 27.215-30.372 49.215-40.231 10.055-4.519 18.187-11.051 25.273-19.922 7.055-8.859 12.946-20.16 17.633-33.687 9.008-25.891 14.141-52.672 21.656-80.582 3.801-13.871 7.973-31.43 17.43-47.93 4.746-8.23 10.957-16.23 19.219-22.859 7.258-5.852 16.152-10.422 26.312-13.332.313-.45.598-.86 1.016-1.457 1.367-1.832 3.18-4.454 6.894-7.211 13.532-9.782 27.438-20.102 42.688-29.289 21.531-12.961 43.496-25.34 65.859-36.942 15.086-7.82 30.672-14.012 46.012-19.519a18.497 18.497 0 0 1 6.258-1.082c4.269.07 6.84 1.132 8.98 2.043 3.141 1.437 5.34 3 7.387 4.57a51.403 51.403 0 0 1 5.305 4.769c8.574 9.02 19.816 18.707 28.41 32.637l.008.012c8.769 14.691 12.093 29.422 16.933 40.492 6.215 14.719 12.246 28.988 18.996 42.406l.692.223c1.828.57 4.219 1.238 7.234 2.629.199.14 1.75.601 4.586.859 4.219.539 10.879.27 19.301 3.199 4.172 1.5 8.754 4.133 12.523 8.082.895.93 1.543 2.079 2.332 3.122 2.817-.411 5.813-.911 8.11-1.332 8.422-1.399 18.863-5.391 32.051-6.719 23.621-2.192 46.675-2.719 68.875-4.699 1.562-.122 3.914-.614 5.21-1.114l.29-.109c10.843-16.309 24.101-29.168 37.421-40.527 13.856-11.813 27.793-22.204 39.883-33.293 16.227-14.969 27.488-29.18 33.5-50.758 4.262-15.449 11.637-28.942 19.211-41.481 7.606-12.531 15.492-24.191 21.531-35.511 3.403-6.278 6.371-14.969 10.149-24.239 3.851-9.211 8.527-19.441 17.738-27.992 10.883-9.957 20.723-19.406 28.914-29.43 8.199-10.039 14.805-20.597 19.621-33.289 4.104-10.449 11.404-17.129 18.564-22.621 7.25-5.437 14.92-9.629 21.36-13.039 4.06-2.14 7.18-4.09 9.41-5.82 3.38-2.649 4.7-4.43 5.72-6.59.99-2.168 1.78-5.391 1.79-11.07 0-1.77-.08-3.75-.25-5.949v.019l-.1-2.59c.03-5.519 1.21-10.039 2.35-13.828 1.17-3.769 2.37-6.891 3.11-9.25 1.71-5.152 3.81-8.351 4.95-10.59.14-.269.22-.441.34-.672-.58-3.027-.98-6.05-.98-8.988-.04-10.34 3.74-19.121 7.77-25.633 4.09-6.597 8.36-11.636 11.54-16.289 9.75-14.008 16.88-32.09 25.45-50.808 3.7-7.891 7.29-16.832 14.41-25.52 3.55-4.301 8.04-8.383 13.47-11.66 5.42-3.289 11.69-5.762 18.72-7.379 29.45-6.75 59.08-22.453 91.49-35.133 4.68-1.8 10.71-4.949 17.51-7.949 6.84-2.922 14.58-6.031 24.25-6.121 1.9 0 3.88.14 5.88.46h.01c6.67 1.083 13.03 1.602 19.09 1.602 13.42-.011 25.34-2.5 36.23-7.18 10.88-4.702 20.8-11.64 29.91-20.991l9.11-9.348 11.02 7.008c15.46 9.84 28.21 17.941 36.78 23.39l13.08 8.328-7.86 13.372c-6.36 10.69-13.58 20.71-17.68 30.332-12.29 28.367-22.46 56.91-28.08 86.609-1.78 8.918-5.62 15.148-8.14 20.059-2.7 4.859-3.93 8.261-3.9 9.21l-.02.571c-.04 1.508.62 4.719 2.13 8.961 1.45 4.258 3.6 9.429 5.24 15.668 8.79 33.98 17.43 67.98 25.13 98.031l1.54 6-2.89 5.48c-1.73 3.27-3.33 6.309-4.89 9.258l5.86 1.621 2.18.602 1.92 1.168c6.67 4.082 11.46 9.379 15.14 14.359 1.69 2.321 3.16 4.563 4.54 6.742.62-.32 1.24-.64 1.88-.98l11.6-6.082 8.3 10.141c6.05 7.421 12.12 14.832 18.18 22.242l9.69 11.847-11.37 10.25c-.24.211-.41.332-.64.52 1.39 4.031 2.83 8.101 4.35 12.269 3.02-1.168 6.26-1.808 9.3-1.796 6.66.046 11.71 2.359 15.5 4.488 5.69 3.301 9.63 6.808 12.64 8.871 1.42 1.019 2.51 1.641 3.02 1.871l23.34-.32-9.06 22.418c-1.57 3.902-3.15 7.8-4.78 11.84 2.63 2.128 4.9 4.062 6.55 5.21 1.19.852 2.06 1.321 2.47 1.481l.11.039c.4-.129 1.56-.648 3.68-2.488l6.62-5.762 8.43 2.449c10.45 3.051 22.36 6.531 36.73 10.731l11.08 3.23.34 8.328c1.38.434 3.27.953 5.55 1.524 4.25 1.148 9.78 2.527 15.77 5.918l.01.011c12.36 7.129 26.77 14.219 40.67 22.789 13.86 8.59 27.47 18.719 37.52 33.02 12.17 17.461 25.34 33.832 39.48 49.512 2.73 3.027 5.03 6.308 6.68 9.988 1.66 3.66 2.58 7.77 2.57 11.699 0 5.121-1.47 9.571-3.09 12.903-.38.769-.77 1.429-1.16 2.117l9.89.543c14.63.808 30.63 1.519 47.22 4.828 16.56 3.308 33.82 9.41 49.97 20.992 2 1.508 6.09 3.078 12.01 4.348 5.88 1.332 13.27 2.402 21.34 4.621l20.56 5.711-11.17 18.179c-1.79 2.891-3.65 5.93-5.58 9.059 2.11 3.57 4.34 7.281 6.62 11.25 3.98 7 8 14.738 10.62 23.719 2.99 10.41 3.62 20.672 3.63 30.293 0 6-.27 11.769-.49 17.168-.38 8.379-1.85 15.961-3.04 22.75-1.22 6.781-2.14 12.769-2.12 17.539 0 2.152.17 4.051.5 5.73 3.53 18.59 13.89 38.375 22.58 60.641l1.07 2.785v28.234l-2.1 3.696c-12.85 22.55-25.05 46.505-40.15 69.555" transform="matrix(.13333 0 0 -.13333 0 249.853)"/><path style="fill:#b3b5b7;fill-opacity:1;fill-rule:nonzero;stroke:none" d="M1865.85 1067.96c-.41 9.66-8.12 21.75-16.22 27.76-16.1 11.94-19.38 26.91-20.62 45.28-4.97 73.87-11.59 147.63-16.45 221.5-.97 14.63-12.37 17-18.66 14.46-32.3-13.05-55.75 9.93-81.84 19.17-23.56 8.35-44.81 23.25-68.5 36.03-8.96-20.57-25.14-18.09-41.84-15.53-7.64 1.18-15.68 1.08-23.36.14-11.43-1.39-23.49-2.18-33.86-6.58-19.19-8.15-37.35-18.74-57.97-29.36-12.08 7.46-27.56 17.01-43.58 26.92-11.47-13.09-22.3-11.65-40.25 10.05-7.96-14.41-15.45-27.98-26.36-47.76-3.08 15.23-5.08 25.13-7.58 37.5-9.88-5.46-19.13-10.56-27.21-15.02-11.27 7.91-21.76 17.15-33.92 22.72-3.91 1.8-12.07-6.42-18.56-9.45-6.79-3.18-14.08-7.9-20.83-7.41-3.26.24-5.77 10.87-9.87 19.39-11.06-.16-21.54 4.63-14.95 25.09-18.45-3.27-34.83-6.17-51.22-9.07l.51-7.87c-12.62 10.36-24.51 14.93-42.3 12.08-17.25-2.75-36.55 6.59-54.74 11.38-3.03.8-5.6 5.16-7.44 8.41-6.04 10.64-11.64 21.53-17.4 32.33-1.47-2.84-2.93-5.68-4.39-8.52-15.81-.99-33.57-6.94-46.93-1.67-15.28 6.02-26.655 22.01-42.483 36.12-1.933 103.68-3.953 212.04-5.968 320.39H564.973c-1.727-86.69-3.266-173.39-5.219-260.08-3.695-164.33-7.633-328.66-11.488-492.98-.067-2.75-.422-5.51-.996-12.74-167.547 5.85-334.989 11.7-502.805 17.56-2.29-5.32-4.637-10.75-6.98-16.18v-4.2c10.91-7.94 23.562-14.33 32.265-24.22 9.344-10.62 14.29-25.01 22.484-36.82 5.32-7.675 12.704-14.05 19.731-20.358 13.558-12.172 27.012-24.57 41.43-35.652 29.55-22.719 44.324-59.899 81.382-76.481 25.004-11.187 41.246-33.367 51.524-63.008 9.472-27.32 14.66-54.551 21.984-81.652 7.602-28.141 16.223-64.84 55.215-73.867 3.742-.864 5.84-7.41 9.574-10.114 13.614-9.839 27.176-19.886 41.547-28.527 21.27-12.812 42.942-25.019 64.973-36.449 14.129-7.332 29.051-13.281 44.043-18.66 2.617-.942 8.019 3.297 10.929 6.328 9.211 9.558 19.465 18.68 26.258 29.851 7.114 11.68 10.457 25.629 15.867 38.411 6.719 15.878 13.297 31.867 21.243 47.128 1.843 3.551 9.023 4.231 13.66 6.411 11.906 5.589 29.98-2.332 36.34 16.98.496 1.508 13.265-.539 20.175-1.789 10.293-1.852 20.344-5.582 30.684-6.543 22.883-2.129 45.918-2.648 68.812-4.687 5.719-.5 13.657-2.614 16.309-6.743 19.551-30.461 50.129-48.839 75.922-72.461 17.309-15.839 31.227-33.117 38.148-58.339 7.196-26.2 26.227-49.02 39.414-73.68 8.536-15.949 12.184-36.598 24.571-47.949 22.066-20.211 41.701-39.789 52.711-68.879 4.39-11.61 20-20.602 32.4-27.141 20.48-10.808 27.01-20.769 25.19-44.851-.49-6.379 2.62-13.161 4.66-19.571 1.82-5.738 7.44-12.019 6.21-16.679-4.78-18.161 6.32-28.227 15.3-41.219 11.19-16.18 18.51-35.149 26.83-53.219 7.54-16.383 13.07-30.402 35.64-35.641 32.25-7.492 62.46-23.679 93.68-35.8 12.96-5.04 27.16-14.692 39.26-12.73 40.54 6.562 73.78-5.02 99.31-31.212 15.46 9.832 28.2 17.942 36.77 23.39-5.7 9.7-13.47 20.313-18.57 32.083-12.57 29-23.19 58.68-29.13 90.008-2.02 10.711-11.32 20.312-12.25 30.859-.86 9.902 5.13 20.344 7.8 30.613 8.78 33.95 17.42 67.938 25.12 98-5.39 10.207-9.8 18.571-14.21 26.93 8.37 2.309 16.75 4.617 25.12 6.93 17.1 10.461 19.27 36.039 42.3 45.769-2.63-7.859-5.26-15.711-7.88-23.57l2.97-1.559c6.06 7.411 12.12 14.829 18.18 22.25-2.93 2.637-8.82 6.207-8.33 7.77 4.7 15.059 10.48 29.769 16.62 46.418 15.95-34.348 30.34.242 46.02.031l-9.94 24.629c12.84 2.57 22.71 27.641 43.42 9.59 10.45 3.051 22.36 6.531 36.72 10.723.54 13.359 17.74 10.898 29.25 17.519 25.97 14.93 56.98 28.109 73.02 51.078 12.59 18.039 26.19 34.942 40.72 51.063 13.4 14.867-3.44 22.379-6.11 33.179-1.93 7.821-6.75 15.008-7.98 22.848-.29 1.852 8.69 5.16 8.88 5.27 9.31 11.101 15.97 19.043 22.63 26.972 3.99-2.57 7.99-5.14 11.99-7.711-1.16-12.789-2.33-25.59-3.46-38.019 29.41 1.597 60.84 2.89 88.72 22.84 10.03 7.179 24.84 7.621 38.4 11.39-3.27 5.301-6.77 10.989-10.57 17.16 7.03 13.141 16.41 25.68 20.48 39.75 3.84 13.258 3.13 28.188 2.53 42.297-.72 16.711-7.46 34.121-4.37 49.805 4.27 21.797 15.24 42.277 23.35 63.316v21c-13.08 22.981-25.16 46.621-39.63 68.691-8.4 12.81-15.19 24.33-15.89 40.66" transform="matrix(.13333 0 0 -.13333 0 249.853)"/><path style="fill:#820431;fill-opacity:1;fill-rule:nonzero;stroke:none" d="M1279.4 530.641v-186.7H802.004v186.7h112.437v814.789H714.156v-82.92H461.41v273.14H1142.46l460.75 4.19 12.4-38.17-450.53-148.6V530.641zm-86.06 802.479 453.92 151.19-31.65 81.29-473.15-1.69H433.141v-329.66h309.285v82.91h143.75V558.91H773.738V315.68h533.922v243.23h-114.32v774.21" transform="matrix(.13333 0 0 -.13333 0 249.853)"/><path style="fill:#820431;fill-opacity:1;fill-rule:nonzero;stroke:none" d="M1868.91 800.82h-51.68V408.48l-90.59-64.468H1470.9l-90.06 65.59V800.82h-50.88v97.993h227.08V800.82h-51.54V443.719h187.08V800.82h-51.69v97.993H1868.91zm-22.61 126.258h-233.68V772.559h51.69V471.98h-130.55v300.579h51.55v154.519h-283.62V772.559h50.89v-377.34l109.12-79.481h273.98l109.82 78.16v378.661h51.68v154.519h-50.88M702.066 789.488v-22.609H577.621v38.383H390.422V673.961H612.5l89.566-68.512V409.211l-89.882-65.27h-256.45l-89.761 66.438v69.5h124.363l.144-38.508h187.59v133.18H355.66l-89.687 67.187v194.633l89.757 66.449h256.567l89.769-66.449zM346.41 931.086l-7.496-5.547-101.207-74.918V627.602l108.539-81.313h203.555v-76.648h-131.16l-.039 10.347-.114 28.16H237.707V396.141L346.41 315.68h274.949l108.977 79.121v224.621l-108.27 82.808H418.688v74.758h130.664v-38.379h180.984v112.012l-108.719 80.465H346.41" transform="matrix(.13333 0 0 -.13333 0 249.853)"/><path style="fill:#b3b5b7;fill-opacity:1;fill-rule:nonzero;stroke:none" d="M679.449 789.488h-79.211v38.391H367.805V651.352h237.031l74.613-57.071V420.73l-74.613-54.171H363.195L288.59 421.77v35.5h79.215l.152-38.52h232.731v178.422H363.195l-74.605 55.879V824.98l74.605 55.227h241.641l74.613-55.227zM355.73 902.82l-89.757-66.449V641.738l89.687-67.187h222.41v-133.18H390.48l-.144 38.508H265.973v-69.5l89.761-66.438h256.45l89.882 65.27v196.238L612.5 673.961H390.422v131.301h187.199v-38.383h124.445v69.492l-89.769 66.449H355.73" transform="matrix(.13333 0 0 -.13333 0 249.853)"/><path style="fill:#b3b5b7;fill-opacity:1;fill-rule:nonzero;stroke:none" d="M1256.78 508.02V366.559H824.617V508.02h112.442v860.02H691.547v-82.91H484.02v227.91H1547.6l-405.14-144.01V508.02zm-91.7 845.05 450.53 148.6-12.4 38.17-460.75-4.19H461.41v-273.14h252.746v82.92h200.285V530.641H802.004v-186.7H1279.4v186.7h-114.32v822.429" transform="matrix(.13333 0 0 -.13333 0 249.853)"/><path style="fill:#b3b5b7;fill-opacity:1;fill-rule:nonzero;stroke:none" d="M1846.3 823.441h-51.68v-403.3l-75.21-53.52h-241.15l-74.81 54.488v402.332h-50.87v52.762h181.85v-52.762h-51.55V421.109h232.31v402.332h-51.68v52.762h182.79zm0 75.372h-205.41V800.82h51.69V443.719H1505.5V800.82h51.54v97.993h-227.08V800.82h50.88V409.602l90.06-65.59h255.74l90.59 64.468v392.34h51.68v97.993h-22.61" transform="matrix(.13333 0 0 -.13333 0 249.853)"/><path style="fill:#fff;fill-opacity:1;fill-rule:nonzero;stroke:none" d="M363.195 880.207 288.59 824.98V653.051l74.605-55.879h237.493V418.75H367.957l-.152 38.52H288.59v-35.5l74.605-55.211h241.641l74.613 54.171v173.551l-74.613 57.071H367.805v176.527h232.433v-38.391h79.211v35.492l-74.613 55.227H363.195" transform="matrix(.13333 0 0 -.13333 0 249.853)"/><path style="fill:#fff;fill-opacity:1;fill-rule:nonzero;stroke:none" d="M1142.46 1368.04v.99l405.14 144.01H484.02v-227.91h207.527v82.91h245.512V508.02H824.617V366.559h432.163V508.02h-114.32v860.02" transform="matrix(.13333 0 0 -.13333 0 249.853)"/><path style="fill:#fff;fill-opacity:1;fill-rule:nonzero;stroke:none" d="M1663.51 823.441h51.68V421.109h-232.31v402.332h51.55v52.762h-181.85v-52.762h50.87V421.109l74.81-54.488h241.15l75.21 53.52v403.3h51.68v52.762h-182.79v-52.762M1163.85 936l55.46 57.273 94.95 68.997 27.63 14.81 148.33-9.47 40.42-20.33-4.95-29.34 38.19-30.217 75.79 17.137 6.45 47.36 32.82 28.38 13.14 49.88-25.61-21.1 3.56 25.06-20.29-17.27-26.19-8.47-14.31 30.85-53.23 48.98s32.99 59.71 48.82 86.71c15.81 27 43.15 37.49 43.15 37.49l68.35-74.33-11.35-39.18-27.99-45.89 57.82 17.31 17.74 13.88 8.78 27.87-9.58 9.7 25.78 5.71 17.17 45.93 25.57 13.7 6.45 25.3 15.44 21.01 17.27 23.98-24.65 26.06-80.36 66.93-60.42 24-48.69 69.13-109.53 10.37-44.59 25.48-28.9 8.24-35.47-5.71s-24.43 1.09-33.06 4.08c-8.63 3.01-64.28-10.61-75.77-10.61l-56.44-29.4-88.7 8.17-2.71-40.51h-113.61V936h107.32" transform="matrix(.13333 0 0 -.13333 0 249.853)"/><path style="fill:#820431;fill-opacity:1;fill-rule:nonzero;stroke:none" d="M1371.07 1510.59c26.95 26.2 56.37 13.62 71.07 26.84 20.84 18.74 31.82 30.88 56.98 35.77 14.3-7.24 12.7-7.9 12.7-7.9l17.05-11.01s-22.32-10.38-26.89-24.63c-2.5-7.87-21.46-3.91-39.85-17.12-3.91-2.82-25.14-30.81-26.96-41.74 0 0 19.55 21.65 39.62 31.52 20.83 10.25 39.62 6.58 45.51 18.11 15.31 30.02 32.88 31.95 58.41 31.51 11.04-.18 20.19-.27 30.21-1.69 10.03-1.44 15.6-1.89 32.69-7.67 17.08-5.78 41.11-55.58 52.96-65.07 11.83-9.5 51.36-26.04 64.1-32.69 12.77-6.66 50.31-46.96 66.72-55.98 13.33-7.33 35.47-26.3 26.67-35.68-8.81-9.4-22.47 5.53-26.54 11.38-4.07 5.84-12.63 6.95-17.43 5.83-4.81-1.14-6.73-4.91-9.98-8.41-6.29-6.74 7.15-14.85 9.03-20.46 1.87-5.59-7.66-10.87-3.19-10.21 5.62.85 18.79 2.65 21.29-11.83.48-2.78-.76-11.6-.89-14.71-2.97-6.87-7.53-13.39-11.79-15.83-5.01-2.83-16.86-7.12-16.86-7.12s-13.52-35.51-16.26-39.31c-1.38-1.94-4.12-4.26-8.09-5.71-6.6-1.53-11.54-1.33-14.83-.58-12.29 2.87-9.56 9.98-17.76 12.36-8.21 2.37-16.86 1.9-23.7 7.13-1.97 1.5-5.95 6.08-10.7 12.32.75.4 1.48.83 2.23 1.23 22.38 11.83 47.79 15.37 50.02 15.26 1.24.15 5.14-.33 6.18-.33 2.16 0 3.94 1.84 3.94 4.1 0 2.27-1.78 4.11-3.94 4.11-.55 0-5.01.17-7.13-.1-2.53.11-28.91-5.67-50.91-19.61-.88-.57-1.73-1.14-2.59-1.72-4.59 6.18-9.68 13.59-14.32 21.12 3.23 1.06 6.6 2.02 10.03 2.79 24.41 7.62 49.95 2.86 52.41 2.82 4.84-.42 8.92.93 9.15 3.09.2 2.15-3.62 4.31-8.54 4.75-2.08.06-29.67 2.87-54.08-6.88-3.66-1.13-7.2-2.46-10.61-3.9-6.3 10.51-11.53 20.99-13.05 28.39-.72 3.51-.96 7.5-.74 11.68 2.32-.1 4.65-.25 6.98-.47 29.53-1.16 57.23-13.07 59.37-14.64 5.02-2.27 9.53-3.06 10.66-1.29 1.2 1.84-2.22 6.04-7.62 8.48-2.46 1.79-32.35 12.25-62.27 11.38-2.29.05-4.57.04-6.83 0 1.15 34 29.78 41.8 29.98 41.63-29.38-2.32-39.94-25.25-41.23-42.83-21.38-1.9-39.85-6.3-39.68-6.66-.14.38 17.76 3.2 38.87 3.68-.12-5.04.41-11.07 1.12-14.27 0 0-14.58 5.21-31.88 2.83-17.31-2.36-18.76-3.83-22.86-2.4-4.09 1.42-10.16 6.48-6.07 16.45 4.11 9.97 10.42 17.2 13.3 32.12 2.25 24.78-4.92 25.97 3.25 45.13 8.18 19.17 25.11 25.8 35.13 27.69 10.02 1.89 42.38-8.78 56.05-16.38 13.67-7.6 30.98-20.89 38.28-22.33 0 0-29.24 37.02-29.9 51.33-15.29-2.6-41.63 1.87-47.56 3.31-12.95 2.22-20.04 53.67-19.58 39.88.44-13.77 4.79-39.45-17.84-26.63-1.57.89-6.93-9.94-2.77-10.35 21.03-2.07-4.3-17.32-23.81-34.81-18.47-16.55.45-59.5-29.42-92-14.09-15.33-43.72-11.87-59.22-12.36-15.49-.47 78.84-23.41 80.06-13.83 0 0-5.51-23.63-22.67-39.61-17.16-15.96-36.4-44-39.6-67.27-3.19-23.28 4.27-24.93 4.27-24.93s54.1-67.3 51.77-124.71c0 0 4.1-3.33 13.21-2.86 9.12.49 26.95-6.77 40.15 1.3 0 0-13.59-21.43-4.59-37.57-4.17-1.09-6.59-9.94-30.39-4.6-17.01 3.83-40.3-10.591-40.3-10.591-4.22 7.041-9.63 10.431-14.54 12.151-9.63 3.36-18.68 15.77-18.68 15.77s6.36 2.47 3.67 31.14c0 0-14.12 3.34-16.87 7.61-2.73 4.27-17.57 16.57-30.16 17.86-12.57 1.29-89.24 7.87-105.91 8.3-16.66.46-15.48-1.19-15.48-1.19s-10.67 5.68-16.64 49.35c0 0-14.79-34.03-44.96-64.86-28.17-28.78-62.98-36.14-62.98-36.14s35.94 45.15 14.7 97.96c4.9-60.48-56.58-130.74-159.85-199.767 0-30.141.58-83.903.58-83.903s78.42 96.387 136.03 147.797c40.29 35.933 97.98 67.303 119.9 71.023 12.41 2.11 36.15 1.29 55.3.11-4.08-4.27-4.89-9.69-3.27-12.78 8.99 8.95 17.64 11.93 23.27 11.93 6.53-.4 19.78.22 15.12 0-2.74-.13-11.85-11.5-5.31-13.2 5.31 9.36 24.29 11.25 26.96 11.06 10.34-.71 18.23.2 21.99-2.96 15.28-12.83 35.07-18.84 35.07-18.84s-2.12-18.73-8.13-24.39c12.72-8.12 14.85-19.79 23.77-22.551 14.09-4.343 20.9-20.398 35.26-21.281-3.54 7.426-1.95 10.684 3.37 13.457 13.51 7.043 28.68 2.36 33.78 2.348 8.45-.031 19.31 3.215 22.87 5.871 0 0 7.96 5.426 11.48 12.036-7.5 19.27 5.35 20.9 5.35 20.9s-6.48 13.22.29 23.17c0 0 54.11 30.81 43.93 92.09l-22.69-24.14s2.79 9.05-.27 20.21c0 0-30.23-30.63-47.56-25 0 0 7.04 19.15-60.68 73.58 0 0 32.36 79.15 86.9 114.23 0 0 7.73-7.78 17.26-18.11-11.76-6.76-19.33-13.3-19.12-13.42-.18.18 8.05 6.22 20.4 12.04 6.37-6.96 13.42-14.91 19.45-22.37-15.37-12.24-25.83-24.72-25.83-24.65-.04-.09 11.5 11.66 27.53 22.52 5.78-7.3 9.73-14.33 12.19-18.58 14.37-24.82-14.43-66.99-34.71-85.34 0 0 13.13-12.08 46.76 7.6 0 0 26.19 5.7 35.88 16.87 9.69 11.15 16.52 23.79 13.94 37.26 0 0 12.82-1.54 24.07 22.21 6.29 13.27 11.07 27.5 11.07 27.5s19.21 14.16 22.12 16.84c1.91 1.78 3.87 9.17 5.47 17.15 2.16 5.19 3.35 9.55 3.35 9.55s17.33 12.74 22.43 19.13c5.1 6.38 11.02 17.47 12.23 24.97.99 6.18-16.26 30.62-26.51 34.55-7.28 2.8-13.76 6.91-22.43 12.76-8.66 5.85-36.7 40.4-49.96 49.44-13.25 9.03-56.57 25.5-67.79 35.61-11.22 10.1-28.71 49.21-45.04 59.43-15.18 9.48-32.21 13.42-61.28 14.48-29.04 1.07-57.32 4.75-57.32 4.75s-36.62 22.51-51.34 28.04c-12.9 4.86-39.51-3.18-58.19-.63-18.69 2.53-36.27.85-46.57.63-31.25-.63-88.84-13.42-124.38-42.16 0 0-22.05 5.74-55.25 7.49-15.9.84-30.83 2.5-32.36-1.75-2.52-6.98-5.28-20.57-4.18-43.07 0 0-9.22-3.43-39.94-16.68-30.71-13.26-60.13-22.58-60.13-22.58s7.74-1.42 19.71-1.9c19.6-.79 30.61.1 30.89.18 27.06 7.37 49.35 19.3 52.54 20.52 4.1-12.59 11.36-30.63 22.72-48.18-5.53-13.47-21.11-48.33-78.33-68.22 0 0 46.72-14.9 33.65-37.05-19.67-33.3-36.87-50.99-43.3-72.4-8.64-28.73-4.41-58.63-3.91-58.63 1.5 0 2.8 34.74 34.13 74.81 17.97 23 42.48 36.83 57.05 74.35 5.86 15.13 14.73 60.05 17.65 73.9.75-1.26 30.5-30.04 61.73-29.45-.77-1.17-41.26-46.4-46.6-82.43-2.72-18.35-1.02-39.85 4.08-58.47 5.09-18.59 13.24-56.37-3.01-81.05-24.36-36.98-71.37-38.32-92.31-83.77-13.53-29.36-15.21-44.98-14.69-58.49.28-7.41.76-13.76.78-22.31 1.95 30.45 30.25 77.17 60.91 87.49 39.73 13.36 86.87 47.75 97.29 74.05 10.39 26.29 14.68 71.21-3.7 90.37-13.43 14-26.94 39.67-22.22 63.26 4.72 23.59 14.97 39.38 19.47 45.18 17.1 22.09 15.16 24.14 30.22 44.51 0 0-12.67-1.89-22.06-.85-10.59 1.16-24.89-2.37-49.99 13.9-18.03 11.7-32.61 27.36-44.11 66.36-10.06 34.06-3.17 46.78-3.17 46.78s39.54-.84 61.74-4.17c72.29-10.87 104.81-13.65 106.64-36 0 0 1.65 19.67-11.69 26.89-13.35 7.21-28.17 8.47-28.17 8.47 16.55 17.25 30.78 13.87 44.43 14.33 29.7 1 45.02 12.5 54.82 23.35 19-10.85 57.26 4.86 67.06 1.03-46.88-44.12-63.93-29.95-84.7-45.93-10.39-8.24-20.68-26.9-20.68-26.9m390.88-295.42c.92-4.4-3.33-12.52-7.04-19.13-8.53-15.26-27.43-22.17-27.43-22.17 15.15 10.18 27.64 36.42 28.05 45.46 0 0 5.67-.56 6.42-4.16m-76.94-53.66s15.69 11.76 21.22 23.08c5.54 11.32 10.97 26.46 15.09 40.76 3.47 12.05 10.96 11.98 17.7 8.03 12.2-7.15 8.77-18.33 1.79-32.34-8.85-17.79-31.85-35.75-55.8-39.53m-55.94-68.95c8.31 2.65 20.78 5.53 30.84 10.54 12.64 6.29 27.07 20.91 32.6 26.44 0 0-4.61-24.22-16.6-41.79-12-17.55-32.76-29.82-46.38-29.34-8.07.48-10.61 12.03-10.61 12.03-2.31 9.61 1.85 19.48 10.15 22.12m3.52 17.96c17.33 2.66 31.44 10.07 39.75 23.54 0 0-2.72-15.53-6.66-20.09-3.91-4.57-29.06-13.23-31.14-12.27-2.08.96-6.44 8.13-1.95 8.82m-302.23 462.94c-23.74-12.01-28.74-25.51-30.02-26.83-9.19 3.19-22.06 3.82-22.06 3.82 15.99 12.57 39.08 21.77 52.08 23.01m38.59 10.22c13.89 2.07 31.87 0 31.87 0s-9.38-6.89-41.05-12.14c-15.96-2.65-22.03 2.34-26.34 3.83 0 0 18.38 5.74 35.52 8.31m387.42-205.29c-5.05 21.66-14.09 41.26-14.27 41.13.21.09 7.75-20.08 11.21-41.85 3.97-21.64 5.86-44.09 6.09-46.17.52-4.21 2.26-7.45 3.98-7.27 1.72.18 2.77 3.81 2.25 8.08-.25 2.13-3.73 24.64-9.26 46.08m25.85-14.07c-2.99 21.06-10.87 39.95-10.82 39.92-.04.06 6.33-19.56 7.69-40.26 1.19-20.78-3.47-41.45-4.14-43.19-.87-3.83-.34-7.38 1.33-7.84 1.68-.45 3.86 2.32 4.79 6.34.73 1.97 3.98 23.92 1.15 45.03m-413.03 100.86c-14.2-16.52-13.47-35.87-39.41-59.97 0 0 38.44 16.93 45.34 35.78 15.94 43.44 65.13 66.48 65.13 66.48s-17.92-1.98-29.87-7.87c-11.95-5.9-33.08-24.98-41.19-34.42" transform="matrix(.13333 0 0 -.13333 0 249.853)"/><path style="fill:#820431;fill-opacity:1;fill-rule:nonzero;stroke:none" d="M1197.24 1534.28s62.12-1.15 96.24-14.57c24.45-9.63 50.33-45.38 50.33-45.38l-18.58 5.58 7.4-13.51-60.56 9.33s10.52-12.25 40.16-23.01c-14.31-6.69-31.84-4.64-45.71-.82 5.33-12.22 25.73-10.97 25.73-10.97-27.64-15.3-40.7 17.81-40.7 17.81l27.64.14s-13.25 4.92-22.83 13.87c-9.55 8.94-15.39 18.66-15.39 18.66l54.4 2.27c-20.12 26.61-98.13 40.6-98.13 40.6M1591.3 1459.59c-14.1.62-28.35 16.9-28.35 16.9s3.72 4.62 12.33 8.62c8.59 4.02 13.28 4.51 13.28 4.51-9-11.76 2.74-30.03 2.74-30.03m16.31 14.3c.1-5.27-3.53-8.04-3.53-8.04l-2.65-.67c-6.26 7.9 2.14 13.57 2.14 13.57 1.75-.86 2.82-2 4.04-4.86m52.05-12.96c-14.34 2.62-36.24 17.4-43.34 21.32 0 0-14.75 15.18-27.68 15.89-16.45.9-34.02-18.68-47.11-17.01-13.11 1.69-15.93 8.21-15.93 8.21s.82-18.32 25.7-19.45c0 0 13.61-19.64 37.79-17.95 24.2 1.68 19.43 4.07 27.23 6.74 7.79 2.66 43.34 2.25 43.34 2.25M1637.86 1439.59c-13.61-2.11-32.99-16.98-46.09-15.41-13.09 1.58-32.68 14.91-32.68 14.91s8.7-28.23 40.45-29.82c0 0 44.37 30.85 38.32 30.32" transform="matrix(.13333 0 0 -.13333 0 249.853)"/><path style="fill:#820431;fill-opacity:1;fill-rule:evenodd;stroke:none" d="M1518.62 1234.31c-11.49 1.6-30.8 7.94-39.05 24.21-12.32 24.28-10.9 74.46 28.86 106.59 25.52 20.63 3.79 42.7 37.81 67.42-45.08-7.19-33.9-49.81-60.02-56.21-118.92-29.14-97.53-118.34-89.65-146.82 1.59 1.3 2.96 113.21 80.86 125.45-37.93-47.71-21.77-75.21-14.16-88.19-51.84-27.28-57.05-78.98-33.65-108.05.79.66-17.33 85.95 55.43 71.59-6.25-16.4-14.77-37.63-12.52-54.08 2.8-20.45 23.95-33.55 34.85-54.7 10.32-20.04 15.77-42.31 15.36-59.13 5.72 20.23 4.72 33.13 2.41 45.17-10.52 55.1-59.96 82.65-6.53 126.75m25.78-6.94c-36.48-51.93-20.23-106.85 21.44-132.49-30.04 32.96-28.9 63.63-21.44 132.49m-132.47-96.25c-16.84 36.62-13.38 50.94-11.26 78.03-36.82-65.96 14.94-119.57 14.94-120.54-58.16-.6-68.38 78.89-64.3 110.83 3.33 25.9-22.46 40.61-15.81 73.11 17.16 83.69 71.12 91.73 107.5 136.55 16.74 20.63 14.21 30.68 14.71 49.19-5.07-19.57-17.44-36.89-39.06-47.95-39.4-20.16-92.52-53.83-106.41-92.81-14.13-39.63-11.06-83.95 11.37-136.09 22.43-52.13 13.92-68.23-11.92-123.65 41.84 32.96 147.69 15.56 147.69 15.56-10.32 28.4-33.23 26.85-47.45 57.77" transform="matrix(.13333 0 0 -.13333 0 249.853)"/><path style="fill:#820431;fill-opacity:1;fill-rule:nonzero;stroke:none" d="M1634.62 1549.93s3.46-25.26-15.92-24.54c-19.38.72-23.63 15.13-44.45 14.45-17.11-.57-22.14-5.42-33.86-16.29-11.67-10.81-32.54-8.14-32.54-8.14 47.51-16.98 52.54 14.31 68.65 16.16 16.09 1.84 34.9-20.22 54.14-21.84 11.11-.94 17.57-19.4 19.61-32.97 1.18-7.92 3.89 0 6.05 1.46-7.23 47.66-21.68 71.71-21.68 71.71M1717.44 1378.39c-14.67 16.7-31.87 29.74-31.96 29.53.12.18 16.28-14.04 29.6-31.63 13.69-17.2 25.93-36.12 27.13-37.84 2.43-3.47 5.5-5.49 6.93-4.54 1.44.97.65 4.68-1.82 8.19-1.22 1.76-14.9 19.97-29.88 36.29" transform="matrix(.13333 0 0 -.13333 0 249.853)"/></svg>