<svg xmlns:rdf="http://www.w3.org/1999/02/22-rdf-syntax-ns#" xmlns="http://www.w3.org/2000/svg" xmlns:cc="http://creativecommons.org/ns#" xmlns:dc="http://purl.org/dc/elements/1.1/" xml:space="preserve" version="1.1" viewBox="0.59 0.58 60.02 63.62"><g transform="matrix(1.25 0 0 -1.25 -72.499 289.72)"><g transform="translate(.47070 .37656)"><g font-size="10px" font-family="Helvetica" fill="#444444"/><path d="m93.297 225.44v-5.8611l3.132 0.0002-14.42-23.372-14.42 23.372 3.132-0.0002v5.8611h-12.528v-5.8609h3.1318l20.684-33.524 20.684 33.524h3.132v5.8609h-12.528" fill="#ffd619"/><path d="m93.297 225.44v-5.8611l3.132 0.0002-14.42-23.372-14.42 23.372 3.132-0.0002v5.8611h-12.528v-5.8609h3.1318l20.684-33.524 20.684 33.524h3.132v5.8609h-12.528z" stroke="#231f20" stroke-width=".38687" fill="none"/><path d="m88.273 224.92v5.8607h-12.528v-5.8607h3.1318v-38.868h-3.1318v-5.8609h12.528v5.8609h-3.1318v38.868h3.1318" fill-rule="evenodd" fill="#fff"/><path d="m88.273 224.92v5.8607h-12.528v-5.8607h3.1318v-38.868h-3.1318v-5.8609h12.528v5.8609h-3.1318v38.868h3.1318z" stroke="#231f20" stroke-width=".38687" fill="none"/><path d="m17.777 14.893-2.1367 5.2754 5.1992 8.4277 1.0723-2.6484 8.0996 13.127 8.0996-13.127 1.0723 2.6484 5.1992-8.4277-2.1367-5.2754h-5.9297l-6.3047 10.219-6.3047-10.219h-5.9297zm-5.2402 12.936-8.7734 21.646h-3.5215v7.3242h15.66v-7.3242h-3.5234l5.3574-13.219-5.1992-8.4277zm34.949 0-5.1992 8.4277 5.3574 13.219h-3.5215v7.3242h15.658v-7.3242h-3.5215l-8.7734-21.646z" transform="matrix(.8 0 0 -.8 58 230.98)" fill="#ae122a"/><path d="m17.777 14.893-2.1367 5.2754 5.1992 8.4277 1.0723-2.6484 8.0996 13.127 8.0996-13.127 1.0723 2.6484 5.1992-8.4277-2.1367-5.2754h-5.9297l-6.3047 10.219-6.3047-10.219h-5.9297zm-5.2402 12.936-8.7734 21.646h-3.5215v7.3242h15.66v-7.3242h-3.5234l5.3574-13.219-5.1992-8.4277zm34.949 0-5.1992 8.4277 5.3574 13.219h-3.5215v7.3242h15.658v-7.3242h-3.5215l-8.7734-21.646z" transform="matrix(.8 0 0 -.8 58 230.98)" stroke="#231f20" stroke-width=".48359" fill="none"/></g></g></svg>