<svg xmlns:rdf="http://www.w3.org/1999/02/22-rdf-syntax-ns#" xmlns="http://www.w3.org/2000/svg" xmlns:cc="http://creativecommons.org/ns#" xmlns:dc="http://purl.org/dc/elements/1.1/" xml:space="preserve" version="1.1" viewBox="1.22 1.02 191.5 132.11"><g transform="matrix(1.25 0 0 -1.25 -346.11 591.73)"><g><path d="m147.6 1.0254l-98.567 0.0312 7.662 13.068-45.509-0.063 11.783 22.03-0.028 57.123c-3.993 1.656-7.763 3.477-11.23 5.433l-10.492 6.242 28.828 28.24 5.816-12.08c0.533-0.24 1.124-0.5 1.594-0.68 8.608-3.74 28.022-9.34 60.074-9.44 24.349 0.08 38.209 2.12 52.649 6.66v3.35c0 0.85 0.66 1.77 1.48 2.04l10.09 3.4 3.6 6.4 27.37-27.38-11.05-7.062c-2.96-1.668-6.15-3.258-9.46-4.703l0.01-58.235 9.15-21.4s-29.58-0.089-40.45-0.111l6.68-12.864z" transform="matrix(.8 0 0 -.8 276.89 473.39)" fill="#b0b7bc"/><path d="m143.21 3.6934l-89.521 0.0293 7.665 13.076-45.713-0.065 9.994 18.692-0.026 59.586c-4.505 1.788-8.71 3.772-12.56 5.948l-7.4885 4.45 23.696 23.21 4.613-9.58c0.736-0.36 1.782-0.84 2.592-1.14 9.004-3.92 28.728-9.54 61.068-9.63 31.131 0.09 53.471 6.1 63.131 10.05l5.35 10.03 22.48-22.49-8.2-5.24c-3.35-1.889-6.94-3.632-10.75-5.224l0.01-60.542 7.78-18.198s-40.4-0.124-40.8-0.105l6.68-12.858zm9 113.45v0.9l0.88 0.32v3.2l1.07 0.38v-3.21l0.88 0.32v-0.91l-2.83-1zm3.67 1.3l-0.7 3.87 1.07 0.37 0.34-2.24h0.01l0.95 2.7 0.42 0.15 0.99-2.01h0.01l0.3 2.47 1.07 0.38-0.62-4.33-1.07-0.38-0.88 1.89-0.83-2.5-1.06-0.37z" transform="matrix(.8 0 0 -.8 276.89 473.39)" fill="#0033A1"/><path d="m97.387 88.916c-34.54 0.015-61.987 6.068-81.27 16.944l-1.096 0.61 0.946 0.83c3.29 2.88 11.541 11.4 11.541 11.4l2.525-4.16c12.869-6.84 34.634-11.94 67.354-12.05 32.723 0.11 54.483 5.21 67.353 12.05l2.52 4.16s8.25-8.52 11.54-11.4l0.95-0.83-1.09-0.61c-19.29-10.876-46.73-16.929-81.273-16.944z" transform="matrix(.8 0 0 -.8 276.89 473.39)" fill="#DB1A21"/><path d="m65.887 10.215l4.988 8.019 9.273 64.959c4.699-0.495 9.49-0.753 14.342-0.742l4.141-36.527 5.499 36.652c5.63 0.063 9.36 0.412 14.22 0.865l8.74-65.406 4.21-7.82h-15.43l-5.25 46.996-6.14-46.996h-11.529l-5.695 46.889-5.449-46.889h-15.92zm-21.465 13.508l-17.006 0.047 5.285 9.886-0.031 47.807c-0.004 5.33 4.689 10.352 10.262 9.025 15.578-3.708 19.489-4.344 22.052-11.572 0.554-1.56 0.784-4.655 0.784-6.299l0.134-40.982 4.207-7.865h-15.797l-0.005 46.566c0 1.657 0.112 2.717-0.619 4.203-1.38 2.808-5.491 3.834-7.047 3.834-2.597 0.123-2.275-3.688-2.28-5.193-0.075-21.09 0.061-49.457 0.061-49.457zm94.328 0c-2.69 0-4.49 0.482-6.55 2.224-2.22 1.879-3.34 3.974-3.34 6.678v41.543s-0.12 5.442 2.92 8.773c4.15 4.283 23.52 7.429 30.71 10.448l0.15-36.539-18.7-3.42 8.16 11.095 0.01 14.959s-4.9-1.493-7.55-2.966c-1.19-0.664-2.54-1.218-3.58-2.598-1.56-2.078-1.24-3.951-1.24-6.551 0 0-0.01-26.561-0.01-30.848 0-2.662 0.85-3.503 3.51-3.503 2.34 0 8.86-0.022 8.86-0.022v9.15l10.39 8.901v-27.324h-23.74zm-52.727 68.798l-1.402 0.051 0.211 6.305 5.92-0.217-0.041-1.183-4.518 0.164-0.17-5.12zm21.517 0.336l3.05 6.547 0.97 0.071 3.73-6.049-1.4-0.104-2.62 4.379-2.13-4.726-1.6-0.118zm-43.069 1.747c-0.198-0.016-0.433 0.004-0.713 0.05l-4.385 0.727c-1.119 0.185-1.431 0.547-1.254 1.719l0.498 3.28c0.178 1.17 0.579 1.42 1.699 1.23l4.385-0.73c1.119-0.18 1.432-0.54 1.254-1.714l-0.498-3.283c-0.132-0.879-0.393-1.234-0.986-1.279zm68.649 0.822l-0.94 6.234 6.14 1.02 0.18-1.18-4.76-0.79 0.23-1.54 2.74 0.455 0.17-1.063-2.75-0.457 0.21-1.386 4.71 0.779 0.16-1.062-6.09-1.01zm-69.102 0.324l0.597 3.949-4.568 0.761-0.598-3.954 4.569-0.756zm-24.186 4.37l-1.189 0.41-0.139 4.49-2.805-3.49-0.933 0.31-0.272 4.54-2.705-3.52-1.379 0.47 4.074 5.24 0.924-0.31 0.309-4.7 2.867 3.62 0.9-0.31 0.348-6.75zm118.8 1.44c-0.43 0.05-0.68 0.38-0.91 1.08l-0.22 0.66c-0.37 1.12-0.12 1.53 0.95 1.92l3.56 1.28-0.45 1.36-4.03-1.45 0.23-0.7-1.26-0.17-0.05 0.16c-0.37 1.12-0.11 1.54 0.96 1.92l3.53 1.27c1.07 0.39 1.51 0.23 1.88-0.89l0.28-0.82c0.36-1.13 0.1-1.54-0.97-1.93l-3.55-1.28 0.42-1.28 3.73 1.34-0.22 0.69 1.26 0.13 0.04-0.13c0.34-1.03 0.04-1.45-0.98-1.81l-3.23-1.17c-0.41-0.14-0.72-0.21-0.97-0.18z" transform="matrix(.8 0 0 -.8 276.89 473.39)" fill="#fff"/></g></g></svg>