<svg xmlns="http://www.w3.org/2000/svg" xmlns:xlink="http://www.w3.org/1999/xlink" version="1.1" style="shape-rendering:geometricPrecision; text-rendering:geometricPrecision; image-rendering:optimizeQuality; fill-rule:evenodd; clip-rule:evenodd" viewBox="-0.5 -0.5 300 262">
<g><path style="opacity:0.98" fill="#feb10f" d="M 39.5,-0.5 C 41.1667,-0.5 42.8333,-0.5 44.5,-0.5C 63.0907,4.48964 82.0907,7.98964 101.5,10C 125.479,12.2591 149.479,13.2591 173.5,13C 195.809,15.8662 214.975,25.0329 231,40.5C 233.377,44.088 235.877,47.588 238.5,51C 237.044,52.7448 235.711,54.5781 234.5,56.5C 271.093,62.7603 292.76,84.0936 299.5,120.5C 299.5,128.833 299.5,137.167 299.5,145.5C 291.997,183.503 268.997,204.669 230.5,209C 222.827,190.158 208.827,180.658 188.5,180.5C 170.35,181.827 153.017,186.327 136.5,194C 97.2956,212.749 60.6289,235.249 26.5,261.5C 25.5,261.5 24.5,261.5 23.5,261.5C 22.9399,247.831 22.2732,234.164 21.5,220.5C 22.2691,206.502 22.9358,192.502 23.5,178.5C 16.93,179.69 10.5967,181.69 4.5,184.5C 4.66328,173.497 5.82995,162.497 8,151.5C 10.697,137.047 13.8637,122.714 17.5,108.5C 11.3888,109.455 5.38883,110.788 -0.5,112.5C -0.5,110.833 -0.5,109.167 -0.5,107.5C 8.66811,69.9998 22.0014,33.9998 39.5,-0.5 Z"/></g>
<g><path style="opacity:1" fill="#872534" d="M 49.5,21.5 C 65.0719,24.5105 80.7386,27.0105 96.5,29C 121.508,29.8941 146.508,30.8941 171.5,32C 192.379,34.5188 209.546,43.6855 223,59.5C 227.262,63.408 227.429,67.408 223.5,71.5C 253.534,76.3737 272.701,93.3737 281,122.5C 284.562,155.754 270.729,177.754 239.5,188.5C 228.813,169.233 212.313,160.233 190,161.5C 168.591,162.977 148.091,168.144 128.5,177C 97.9062,190.956 68.9062,207.456 41.5,226.5C 40.7173,202.733 42.0507,179.066 45.5,155.5C 38.7552,156.249 32.2552,157.916 26,160.5C 29.1237,136.335 34.6237,112.668 42.5,89.5C 41.6667,89.1667 40.8333,88.8333 40,88.5C 34.8735,89.7708 29.7068,90.7708 24.5,91.5C 30.4483,67.3223 38.7816,43.989 49.5,21.5 Z"/></g>
<g><path style="opacity:1" fill="#fefdfd" d="M 217.5,86.5 C 216.957,86.56 216.624,86.8933 216.5,87.5C 217.325,88.3857 218.325,88.719 219.5,88.5C 244.593,93.7573 259.26,108.924 263.5,134C 263.057,148.056 257.223,159.222 246,167.5C 234.778,152.968 219.944,144.802 201.5,143C 176.89,142.046 153.223,146.38 130.5,156C 106.445,165.915 83.4447,177.748 61.5,191.5C 61.1667,188.333 60.8333,185.167 60.5,182C 61.3172,170.479 62.3172,158.979 63.5,147.5C 58.0762,148.07 52.7429,149.07 47.5,150.5C 46.596,149.791 46.2627,148.791 46.5,147.5C 49.7966,125.98 55.1299,104.98 62.5,84.5C 61.1667,84.1667 59.8333,83.8333 58.5,83.5C 54.1568,84.1691 49.8235,84.8358 45.5,85.5C 48.9494,69.9753 54.4494,55.3086 62,41.5C 74.2321,45.0792 86.7321,47.2458 99.5,48C 118.5,48.3333 137.5,48.6667 156.5,49C 170.126,49.9897 183.126,53.3231 195.5,59C 200.05,61.5361 203.05,65.2028 204.5,70C 204.435,74.735 202.102,77.735 197.5,79C 184.574,83.5542 172.741,81.7209 162,73.5C 155.686,84.3808 158.519,91.8808 170.5,96C 191.838,97.2466 209.005,89.4132 222,72.5C 220.831,77.1779 219.331,81.8446 217.5,86.5 Z"/></g>
<g><path style="opacity:1" fill="#b97f87" d="M 217.5,86.5 C 218.167,87.1667 218.833,87.8333 219.5,88.5C 218.325,88.719 217.325,88.3857 216.5,87.5C 216.624,86.8933 216.957,86.56 217.5,86.5 Z"/></g>
<g><path style="opacity:1" fill="#bb828b" d="M 46.5,147.5 C 46.2627,148.791 46.596,149.791 47.5,150.5C 46.528,151.751 45.8614,151.418 45.5,149.5C 45.5427,148.584 45.8761,147.917 46.5,147.5 Z"/></g>
</svg>