<svg width="356" height="60" viewBox="0 0 356 60" fill="none" xmlns="http://www.w3.org/2000/svg">
    <g clip-path="url(#bntyneodca)" fill="#fff">
        <path d="M193.684 24.902c-.016 4.232-.254 7.967-1.458 11.594-2.22 6.667-7.457 10.631-14.369 10.829-3.598.103-7.03-.47-10.108-2.488-3.391-2.225-5.454-5.5-6.401-9.394-1.688-6.926-1.82-13.938.162-20.81 2.203-7.65 7.867-11.59 15.714-11.425 4.097.086 7.819 1.143 10.873 4.072 2.453 2.352 3.823 5.325 4.669 8.595.805 3.11.89 6.292.918 9.027zm-10.756.333c-.048 0-.092-.008-.141-.008 0-1.098.089-2.2-.02-3.286-.193-1.998-.334-4.03-.809-5.967-.508-2.065-1.922-3.443-4.089-3.739-2.059-.284-3.9.19-5.161 2.016-1.055 1.53-1.434 3.323-1.49 5.149-.101 3.08-.197 6.165-.105 9.24.061 1.967.314 3.961.77 5.87.463 1.933 1.724 3.327 3.762 3.71 2.111.398 4.101.077 5.382-1.843.677-1.012 1.196-2.27 1.354-3.475.334-2.534.382-5.108.543-7.667h.004zM330.235 31.984c1.24 0 2.485.037 3.726-.016.749-.033 1.015.247 1.003 1-.02 1.439.33 2.78 1.2 3.943 1.656 2.225 5.777 2.94 8.065 1.403 2.043-1.374 2.139-4.648.109-6.042-.761-.526-1.672-.86-2.55-1.176-3.029-1.094-6.171-1.929-9.096-3.257-5.483-2.488-7.211-7.136-6.731-12.667.672-7.745 6.538-11.57 12.894-11.923 3.396-.19 6.708.169 9.773 1.826 3.747 2.028 5.789 5.293 6.474 9.488.181 1.106.165 2.25.246 3.376.04.531-.097.823-.709.815-2.651-.025-5.302-.02-7.956 0-.532 0-.641-.226-.709-.728-.158-1.176-.254-2.402-.661-3.5-1.293-3.5-5.974-3.69-7.876-2.365-2.05 1.427-2.159 4.713-.124 6.153.729.518 1.607.839 2.449 1.16 3.166 1.213 6.417 2.224 9.499 3.627 3.561 1.62 6.022 4.417 6.574 8.489 1.003 7.41-2.332 13.55-10.24 15.274-4.609 1.004-9.173.658-13.415-1.629-5.124-2.76-6.735-7.785-6.719-12.564 0-.56.274-.695.753-.695 1.342.012 2.687 0 4.029 0l-.008.008zM302.007 25.305c.109 2.39.177 4.788.355 7.173.06.839.306 1.686.6 2.48.862 2.315 2.679 3.537 4.959 3.426 2.457-.115 4-1.35 4.693-3.883.286-1.048.423-2.142.56-3.224.105-.847.129-1.707.133-2.562 0-.547.145-.802.737-.798 2.852.025 5.704.012 8.556.008.415 0 .709.054.713.596.041 4.376-.491 8.625-2.803 12.433-1.837 3.027-4.524 4.907-7.892 5.766-3.63.925-7.259.905-10.812-.308-4.758-1.625-7.606-5.174-9.193-9.904-.943-2.809-1.35-5.716-1.398-8.677-.06-3.936-.145-7.88.802-11.746 1.023-4.175 2.852-7.827 6.449-10.31 2.828-1.95 6.011-2.596 9.366-2.575 3.001.016 5.878.55 8.484 2.147 3.263 1.994 5.104 5.07 6.111 8.714.693 2.521.918 5.108.894 7.724-.004.605-.177.855-.801.851-2.784-.02-5.572-.024-8.355 0-.673.009-.81-.267-.87-.904-.186-1.97-.254-3.986-.758-5.878-.95-3.594-5.023-4.91-7.895-2.71-.983.753-1.636 1.785-1.853 2.974-.331 1.805-.516 3.644-.661 5.478-.097 1.225-.02 2.463-.02 3.697-.032 0-.069 0-.101.004v.008zM128.079 25.231V5.182c0-1.279.004-1.283 1.289-1.283 4.532 0 9.063-.086 13.595.037 2.127.057 4.303.292 6.357.843 4.129 1.11 6.873 3.862 8.077 8.098.975 3.43.999 6.901.185 10.356-1.269 5.383-4.785 8.381-9.998 9.224-2.566.416-5.213.362-7.823.424-.894.02-1.197.222-1.184 1.193.056 3.837 0 7.678.04 11.515.008.831-.266 1.053-1.036 1.045a322.332 322.332 0 0 0-8.459 0c-.87.012-1.06-.337-1.056-1.152.025-6.753.017-13.502.017-20.255l-.004.004zm10.514-6.827c0 1.678.012 3.356-.008 5.038-.008.535.096.831.709.81 1.373-.04 2.755.038 4.125-.053 2.384-.156 3.79-1.328 4.278-3.483a9.926 9.926 0 0 0-.093-4.882c-.447-1.633-1.486-2.768-3.106-2.998-1.78-.251-3.605-.194-5.41-.263-.584-.021-.495.431-.499.793-.004 1.678 0 3.356 0 5.038h.004zM39.921 23.134v16.245c0 .79 1.02 2.11 1.753 2.2.181.025.415-.152.584-.288.523-.427 1.051-.86 1.535-1.328.463-.448.725-.12.95.226.222.342.903.596.306 1.16-2.167 2.048-4.33 4.104-6.526 6.12-.169.156-.648.164-.862.037-3.242-1.966-6.268-4.236-8.874-7.037-.302-.325-.471-.9-.48-1.366-.04-3.084-.048-6.169-.003-9.253.012-.864-.182-1.213-1.108-1.193-2.72.062-5.439.033-8.158.012-.596-.004-.983.112-1.228.765a400.728 400.728 0 0 1-3.126 8.012c-.23.572-.218.851.418 1.172a26.289 26.289 0 0 1 3.618 2.192c.596.436.963.453 1.426-.066.157-.176.359-.308.54-.46.805-.67 1.418-.523 1.772.473.06.177-.08.518-.237.666-2.107 2.015-4.238 4.002-6.345 6.02-.512.49-.753.091-1.063-.209-1.648-1.596-3.538-2.722-5.834-2.97-3.138-.336-5.535.98-7.351 3.53-.158.222-.25.542-.46.662-.241.135-.612.197-.858.102-.169-.065-.362-.493-.306-.686 1.116-3.755 2.969-6.95 6.506-8.867 1.523-.827 3.162-1.135 4.846-1.152.741-.008 1.043-.28 1.305-.942A6178.664 6178.664 0 0 1 23.64 9.44c.298-.74.241-.987-.584-1.082-3.872-.436-7.735-.913-11.614-.078a6.95 6.95 0 0 0-1.241.403c-2.264.95-3.247 2.883-2.655 5.19.512 1.99 2.441 3.204 4.742 2.87.987-.143 1.933-.526 2.912-.74.234-.053.608.054.761.227.287.329.36.732-.149 1.007-2.682 1.46-5.442 1.814-8.161.26-2.151-1.23-2.755-3.385-2.562-5.738.399-4.803 3.303-7.617 7.44-9.323 3.054-1.259 6.269-1.415 9.507-1.131 4.077.353 8.142.826 12.222 1.098 1.725.115 3.473-.132 5.21-.255.797-.058 1.252.296 1.111 1.073-.701 3.866-.637 7.773-.66 11.676-.017 2.743 0 5.482 0 8.226l.003.012zm-11.634-5.22v-7.702c0-.494.133-1.127-.652-1.115-.717.013-1.563-.81-2.075.535a1096.669 1096.669 0 0 1-6.308 16.089c-.35.88-.065.95.68.942 2.446-.033 4.895-.042 7.344.004.794.016 1.048-.239 1.036-1.05-.04-2.565-.017-5.132-.017-7.702h-.008zm1.946 6.133c0 4.585 0 9.171.004 13.757 0 .222.069.448.105.67.19-.115.387-.222.572-.345 1.196-.802 1.72-1.892 1.519-3.38-.105-.774-.02-1.572-.02-2.362v-21.46c0-1.205-.295-1.484-1.688-1.398-.907.058-.464.843-.468 1.267-.036 4.413-.024 8.83-.024 13.247v.004zM95.288 26.264c0 4.692.028 9.389-.024 14.082-.012.958.294 1.184 1.172 1.221 5.149.23 9.741-1.193 13.693-4.63.076-.067.157-.133.233-.198.335-.288.621-.597 1.12-.181.492.407.286.756.073 1.155-1.914 3.566-4.697 6.223-8.206 8.09-8.488 4.512-19.493 2.542-25.939-4.664-2.876-3.212-4.415-7.09-4.902-11.376-.657-5.807.266-11.334 3.194-16.421 2.578-4.48 6.333-7.658 10.776-10.064.37-.202.645-.272.919.173.261.423.338.72-.033 1.163-1.3 1.567-2.699 3.077-3.778 4.796-4.512 7.18-5.02 14.777-1.946 22.657.161.415.492.765.745 1.147.254-.39.556-.76.754-1.176.813-1.707.934-3.566.954-5.412.049-4.385.037-8.773.012-13.157-.004-.715.202-1.197.734-1.67a989.711 989.711 0 0 0 9.966-8.978c.58-.53.987-.67 1.708-.16 2.042 1.435 4.355 2.126 6.84 1.995 2.856-.148 5.027-1.539 6.518-4.027.266-.444.516-.868 1.072-.473.177.128.358.49.302.667-1.281 4.108-3.32 7.637-7.328 9.566-2.473 1.188-5.076 1.2-7.682.662-.83-.173-.963.045-.959.814.024 4.795.012 9.595.012 14.39v.009zm-1.994-.708c0-4.692-.032-9.385.024-14.073.012-1.004-.266-1.567-1.172-1.954-.918-.39-.898-.456-.898.539-.004 3.15.012 6.3-.008 9.45-.016 2.489-.423 4.895-1.507 7.161-1.386 2.883-3.472 5.182-5.752 7.325-.858.806-.866.814-.09 1.74 2.18 2.603 4.9 4.322 8.15 5.165 1.233.32 1.253.308 1.253-.97V25.555z"/>
        <path d="M66.872 28.07c0 6.51-.012 13.024.016 19.534 0 .757-.226 1.259-.786 1.757a726.938 726.938 0 0 0-9.507 8.579c-.612.563-1.035.658-1.792.201-3.187-1.904-6.615-2.97-10.353-2.797-3.17.148-5.749 1.436-7.634 4.1-.193.276-.596.544-.906.552-.411.012-.693-.247-.524-.827 1.7-5.844 6.28-10.36 12.58-10.442 2.091-.024 4.19.374 6.273.675.596.086.818.012.797-.593-.008-.205 0-.41 0-.616V10.668c0-1.324 0-1.402-1.265-1.476-1.869-.111-3.75-.128-5.623-.132-1.346 0-2.49.551-3.368 1.588-.35.411-.737.567-1.096.21-.165-.17-.145-.67-.04-.963.858-2.365 1.954-4.586 3.867-6.272 1.894-1.67 4.105-1.924 6.51-1.731 3.505.284 7.026.395 10.543.543.56.024 1.127-.14 1.691-.23 1-.157 1.306.193 1.221 1.233-.226 2.83-.528 5.66-.576 8.489-.093 5.38-.028 10.759-.028 16.142zm-9.85 1.735c0 6.304.029 12.605-.024 18.91-.008 1.123.198 1.822 1.326 2.225 1.067.378 1.03.485 1.03-.662 0-10.447.013-20.897-.007-31.343-.008-3.233.104-6.436 1.236-9.509.218-.588-.036-.522-.459-.436-.689.14-1.394.3-2.087.276-.853-.033-1.043.284-1.039 1.114.032 6.474.02 12.947.02 19.425h.004zM262.481 29.718v15.727c0 1.168-.004 1.176-1.176 1.176-2.719.005-5.439.005-8.154 0-1.164 0-1.172-.012-1.172-1.209V14.168c0-.913-.459-1.37-1.378-1.37-2.683 0-5.37-.02-8.052.013-.689.008-.939-.19-.927-.921.04-2.328.052-4.66-.004-6.988-.02-.867.322-1.015 1.064-1.015 6.88.02 13.756.012 20.637.012 2.884 0 5.773.029 8.657-.017.854-.012 1.192.202 1.164 1.14a128.21 128.21 0 0 0 0 6.679c.016.835-.209 1.13-1.067 1.114-2.784-.05-5.572-.02-8.355-.016-.817 0-1.225.432-1.225 1.295v15.624h-.012zM197.536 25.297c0-6.749.016-13.494-.016-20.243-.004-.88.197-1.196 1.111-1.176 2.784.058 5.572.058 8.355 0 .899-.016 1.12.272 1.12 1.164-.028 10.446-.02 20.893-.016 31.339 0 1.3 0 1.303 1.253 1.303h13.185c1.216 0 1.22.013 1.22 1.259 0 2.225-.024 4.454.016 6.679.013.777-.269 1.004-.999 1.004-8.085-.017-16.169-.021-24.254.004-.834 0-.983-.342-.979-1.098.024-6.75.012-13.494.012-20.243l-.008.008zM276.73 25.293V5.157c0-1.25.009-1.254 1.217-1.254h7.952c1.434 0 1.438 0 1.438 1.44v36.676c0 1.234-.024 2.468.008 3.698.016.65-.205.917-.866.913a453.676 453.676 0 0 0-8.854 0c-.838.008-.895-.436-.895-1.098.013-6.745.009-13.494.009-20.239h-.009zM237.924 25.26v20.148c0 1.201-.004 1.21-1.148 1.213-2.751.005-5.502-.02-8.258.017-.822.012-1.18-.165-1.176-1.127.032-13.502.028-27 .004-40.502 0-.835.217-1.135 1.071-1.123 2.82.046 5.64.05 8.456 0 .862-.016 1.068.3 1.063 1.127-.028 6.75-.016 13.502-.016 20.251l.004-.004z"/>
    </g>
    <defs>
        <clipPath id="bntyneodca">
            <path fill="#fff" d="M0 0h356v60H0z"/>
        </clipPath>
    </defs>
</svg>
