<?xml version="1.0" encoding="utf-8"?>
<!-- Generator: Adobe Illustrator 28.3.0, SVG Export Plug-In . SVG Version: 6.00 Build 0)  -->
<svg version="1.1"
	 id="Layer_1" xmlns:inkscape="http://www.inkscape.org/namespaces/inkscape" xmlns:sodipodi="http://sodipodi.sourceforge.net/DTD/sodipodi-0.dtd" xmlns:dc="http://purl.org/dc/elements/1.1/" xmlns:cc="http://creativecommons.org/ns#" xmlns:rdf="http://www.w3.org/1999/02/22-rdf-syntax-ns#" xmlns:svg="http://www.w3.org/2000/svg"
	 xmlns="http://www.w3.org/2000/svg" xmlns:xlink="http://www.w3.org/1999/xlink" x="0px" y="0px" viewBox="0 0 250 234"
	 style="enable-background:new 0 0 250 234;" xml:space="preserve">
<style type="text/css">
	.st0{fill:#FFFFFF;}
</style>
<sodipodi:namedview  bordercolor="#666666" borderopacity="1" gridtolerance="10" guidetolerance="10" id="namedview26" inkscape:current-layer="Layer_1" inkscape:cx="125" inkscape:cy="117" inkscape:pageopacity="0" inkscape:pageshadow="2" inkscape:window-height="1046" inkscape:window-maximized="1" inkscape:window-width="1920" inkscape:window-x="-11" inkscape:window-y="-11" inkscape:zoom="2.9390539" objecttolerance="10" pagecolor="#ffffff" showgrid="false">
	</sodipodi:namedview>
<path id="path23" class="st0" d="M158,74.2c-16.4,14.5-29.5,41.8-42.4,69.6c0.3,0,0.5,0,0.8-0.1c15.4-1.7,28.8-3.7,40.5-6.5
	C154.8,118,155,96.7,158,74.2 M159.7,155.8c-22.6,4.2-34.9,3.9-54,9.2c-16.4,34.1-34,63.6-59.1,63.9C13.4,229.4,1.3,202.9,6,187
	c3.4-11.7,6.5-11.3,6.5-4.8c0,3.5,9.3,23.8,32.7,22.7c11.7-0.6,21.3-12,31.2-29.2c-6.1,2.6-12.9,5.6-20.6,9.3
	c-5.4,2.6-5.8,1.7-4.8-2.8c0.8-3.3,8.7-22.6,39.2-33c23-46,52.8-108.6,113.9-140.4c3.1-1.6,14.3-9.7,5.8,4.1
	c-28.2,46.4-36.6,87-35.3,118.9c22.5-8.2,34.7-20.1,36.7-37.7c0.8-6.9,2.7-7,6.5-2.7c4.5,5,14.1,43.8-41,60.4
	c6.9,36.7,26.8,57.3,37.5,55.6c11.1-1.8,19.6-13.7,17.9-30.6c-1-9.8,2.7-6.1,6.2-2.8c10.3,10,9.5,42.1-11,50.9
	C198,237.7,170.1,207.3,159.7,155.8z"/>
</svg>
