<svg width="30" height="30" viewBox="0 0 30 30" fill="none" xmlns="http://www.w3.org/2000/svg">
    <path d="M4.046 16.014a11.322 11.322 0 0 1-.084-1.326c0-6.032 5-11.008 11.063-11.008 2.827 0 5.475 1.134 7.422 2.903l-.977.989a.859.859 0 0 0-.22.842.884.884 0 0 0 .644.573c.17.034 5.769 1.83 5.413 1.758.453.15 1.124-.33.999-.994l-1.203-6.004a.847.847 0 0 0-.592-.64.849.849 0 0 0-.83.219l-.83.809C22.295 1.759 18.784.31 15.025.31 7.083.31.575 6.786.575 14.688v.033c0 .475.022.842.048 1.123.033.372.309.677.677.75l1.74.347a.846.846 0 0 0 1.006-.927zM28.711 12.889l-1.744-.354a.846.846 0 0 0-1.01.927c.06.492.087.97.087 1.334 0 6.028-5 11.002-11.063 11.002-2.828 0-5.475-1.134-7.422-2.92l.976-.97a.858.858 0 0 0 .22-.842.884.884 0 0 0-.643-.573c-.17-.034-5.77-1.828-5.413-1.757a.833.833 0 0 0-.762.236.836.836 0 0 0-.237.758l1.202 5.944a.845.845 0 0 0 .593.64c.353.088.648-.019.83-.22l.812-.807c2.557 2.374 6.068 3.878 9.844 3.878 7.942 0 14.45-6.472 14.45-14.37v-.05c0-.373-.014-.74-.045-1.104a.843.843 0 0 0-.675-.752z" fill="#F68C47"/>
</svg>
