<svg width="32" height="28" viewBox="0 0 32 28" fill="none" xmlns="http://www.w3.org/2000/svg">
    <path d="M17.405 0c-.241.01-.472.102-.65.263L8.069 7.412a1.326 1.326 0 0 1-1.092.37H1.381a1.384 1.384 0 0 0-.98.398A1.356 1.356 0 0 0 0 9.15v8.852a1.346 1.346 0 0 0 .403.968 1.372 1.372 0 0 0 .978.396h5.59a1.336 1.336 0 0 1 1.092.372l8.686 7.149c.595.49 1.235.253 1.235-.327V.59a.553.553 0 0 0-.35-.549.57.57 0 0 0-.23-.04zm11.167 2.602L26.525 4.63a16.514 16.514 0 0 1 2.647 8.962c0 3.176-.919 6.285-2.647 8.961l2.04 2.01A19.307 19.307 0 0 0 32 13.582a19.307 19.307 0 0 0-3.428-10.981zm-4.952 4.89-2.014 2.01a6.781 6.781 0 0 1 1.377 4.094 6.782 6.782 0 0 1-1.377 4.093l2.007 1.986a9.615 9.615 0 0 0 2.185-6.089 9.615 9.615 0 0 0-2.174-6.093h-.004z" fill="#fff"/>
</svg>
