<svg width="32" height="32" viewBox="0 0 32 32" fill="none" xmlns="http://www.w3.org/2000/svg">
    <path fill-rule="evenodd" clip-rule="evenodd" d="M0 16a16 16 0 1 0 32 0 16 16 0 0 0-32 0zm29.257 0a13.257 13.257 0 1 1-26.514 0 13.257 13.257 0 0 1 26.514 0z" fill="#fff"/>
    <path fill-rule="evenodd" clip-rule="evenodd" d="M9.143 16c0 8.269 2.726 15.085 6.857 15.085S22.857 24.27 22.857 16C22.857 7.73 20.131.914 16 .914 11.87.914 9.143 7.731 9.143 16zm10.971 0c0 6.879-2.185 12.343-4.114 12.343-1.929 0-4.114-5.464-4.114-12.343 0-6.88 2.185-12.343 4.114-12.343 1.93 0 4.114 5.464 4.114 12.343z" fill="#fff"/>
    <path d="m4.3 7.711 1.84-2.033c.183.164.382.329.594.488C9.06 7.906 12.77 8.982 16.82 8.982c3.458 0 6.678-.78 9.017-2.118a9.69 9.69 0 0 0 1.497-1.042l1.781 2.087c-.595.504-1.236.951-1.916 1.334-2.772 1.588-6.462 2.48-10.379 2.48-4.612 0-8.896-1.24-11.73-3.363-.273-.204-.536-.42-.788-.649zm0 16.607 1.84 2.034c.183-.167.382-.33.594-.489 2.325-1.74 6.035-2.816 10.085-2.816 3.458 0 6.678.781 9.017 2.118a9.687 9.687 0 0 1 1.497 1.042l1.781-2.086a12.508 12.508 0 0 0-1.916-1.335c-2.772-1.587-6.462-2.48-10.379-2.48-4.612 0-8.896 1.24-11.73 3.363-.273.204-.536.42-.788.65zM.915 17.371V14.63h30.171v2.742H.915z" fill="#fff"/>
</svg>
