<svg xmlns="http://www.w3.org/2000/svg" xmlns:xlink="http://www.w3.org/1999/xlink" version="1.1" id="Layer_1" x="0px" y="0px" viewBox="0 0 512 512" style="enable-background:new 0 0 512 512;" xml:space="preserve"><script xmlns=""/>
<style type="text/css">
	.st0{fill:#9D2235;}
	.st1{fill:#FFFFFF;}
</style>
<g id="XMLID_1_">
	<path id="XMLID_3_" d="M500.34,255.1c-4.35,0-7.29,1.26-7.29,1.26c-4.77-4.21-11.64-2.95-11.64-2.95   c-3.09-2.81-22.86-14.31-32.54-19.08c-12.48-6.45-18.24-13.33-25.39-21.88c-23.71-28.34-50.08-42.92-50.08-42.92l-0.14,1.96   c-0.84-0.56-8.98-6.31-8.98-6.31l-0.28,2.1c-5.05-4.63-10.38-9.68-15.43-16.69l-4.35-6.45c-1.54,11.22-1.96,18.94-1.96,18.94   c-10.24-6.87-18.8-15.85-18.8-15.85s-0.14,7.43,1.26,16.97c-9.26-7.15-21.04-13.47-21.04-13.47l0.56,4.77   c-5.75-3.65-15.85-7.72-15.85-7.72l1.54,5.61c-6.03-2.67-15.71-5.19-15.71-5.19l1.68,4.63c-6.73-2.1-16.13-3.93-16.13-3.93   l2.24,5.05c-8.14-1.54-17.11-1.82-17.11-1.82l2.81,4.63c-6.87-0.56-16.97,0.14-16.97,0.14l3.09,3.93c-7.01,0-16.41,1.54-16.41,1.54   l2.81,3.09c-7.29,0.42-15.99,1.96-15.99,1.96l3.37,3.37c-5.89,0.7-15.99,2.81-15.99,2.81l2.95,2.67   c-6.87,0.84-15.29,2.52-15.29,2.52l2.38,2.24c-7.15,0.98-15.57,2.95-15.57,2.95l2.52,2.24c-5.89,0.7-14.87,2.81-14.87,2.81   l2.67,2.38c-6.31,0.56-21.18,4.07-21.74,4.35c-14.17,4.49-31.28,9.96-47.55,33.39c-3.93-5.05-10.1-8.28-16.69-8.28   c-11.22,0-20.2,8.7-21.04,20.06c-3.93-2.1-9.54-4.35-16.13-4.35c-9.26,0-13.61,5.19-14.03,5.89c0,0-0.28,0.42-0.7,0.98   c-3.93,0.14-8.28,1.68-11.92,6.17l-6.17,7.43l9.68,0.42c1.68,0.14,6.59,0.84,9.68,3.09c7.15,5.47,18.66,8.14,31.14,0.56   c2.38-0.42,4.63-1.12,6.87-2.1c3.51,2.67,7.86,4.35,11.64,5.75c2.95,1.12,6.31,2.52,7.29,3.65c0.14,0.28,0.42,1.4,0.56,2.1   c0.56,3.37,1.4,8.28,7.01,14.59c0.28,3.79,2.24,11.5,11.5,20.76c5.47,9.12,4.49,17.96,3.51,26.65c-1.12,9.54-2.38,20.34,7.86,27.77   c9.82,7.01,28.76-2.95,50.92-14.45c10.8-5.61,21.88-11.36,29.04-13.19l19.36,11.64c8,7.86,10.94,8.28,11.92,8.42   c1.4,0.28,3.37,0.28,5.75,0.28c1.4,0,3.51,0,4.63,0.14c0.28,0.28,0.7,0.56,1.12,0.84c6.03,4.77,17.39,13.47,26.93,13.47   c9.12,0,14.45-4.35,18.52-9.68l14.87,1.54c9.4,0.98,17.67-4.07,21.74-13.05c1.54-3.51,3.09-4.21,7.29-6.31l0.56-0.28   c4.35-1.96,17.39-8,20.9-23.85c0.28-0.56,0.7-1.12,1.26-1.96c3.65,0.7,6.59,0.56,8.42,0.56h0.56c4.49,0,7.01-0.98,8.56-1.96   c2.24-0.98,9.12-2.38,15.15-2.52c7.15,2.1,15.57,0.28,17.96-0.28l9.82-2.52h0.14h0.14c9.12-3.09,20.34-3.51,27.91-0.98   c1.68,0.56,13.75,7.15,15.15,7.72c3.93,1.54,7.29,2.81,10.94,2.52c3.37-0.14,6.45-1.68,9.26-4.77c1.68-1.68,6.59-7.01,4.77-12.76   c9.54,0,13.47-8,20.34-14.03c10.8-9.4,21.32-8.56,21.32-20.06C511.84,257.9,504.68,255.1,500.34,255.1"/>
	<path id="XMLID_18_" class="st0" d="M346.04,152.28c0,0-0.56,3.79-0.7,9.4l1.96,0.98c2.1,0.98,4.07,2.1,5.89,3.09v-3.23l3.23,1.82   C353.05,160.97,349.54,157.05,346.04,152.28L346.04,152.28z M326.82,154.94c0,0,1.96,39.14,22.02,48.96   c3.23,1.54,7.43,0.84,7.43,0.84s-3.23,3.93-8.98,1.12c-4.07-1.96-7.43-4.91-10.24-8.42c-5.47-4.77-18.52-15.15-33.24-20.9   c0.84,2.52,1.68,4.77,1.68,4.77s-13.75-5.75-15.71-6.45c0.98,2.1,1.82,4.07,1.82,4.07l-16.83-6.31l0,0l0,0c0,0,1.68,2.38,2.38,3.51   c0.28,0.42,0.42,0.7,0.42,0.7h-0.14c-1.54-0.28-13.75-2.52-15.57-2.81c1.68,2.1,3.37,4.07,3.37,4.07s-14.45-1.54-16.69-1.68   c2.24,2.24,4.35,4.49,4.35,4.49s-14.17-0.84-31.14,2.67l5.61,4.91c0,0-20.62,2.24-38.72,9.26c0,0,14.17-8.14,30.86-11.64   l-6.03-5.33h0.14c2.1-0.42,18.94-3.65,30.58-4.35c0,0-2.1-2.24-4.21-4.77c1.96,0,3.37,0.14,3.37,0.14l12.76,0.56   c0,0-1.54-1.96-3.37-4.21c1.96,0.14,3.09,0.28,3.09,0.28l12.48,1.82c0,0-1.26-2.1-2.81-4.49c1.96,0.42,3.09,0.7,3.09,0.7   l11.78,2.95c0,0-0.98-1.96-1.96-4.35c1.82,0.7,2.95,1.12,2.95,1.12l11.92,4.77c0,0-0.84-2.52-1.82-5.19   c1.68,0.84,2.81,1.26,2.81,1.4l11.5,5.75c0,0-0.98-3.79-1.82-7.15c8.42,4.35,13.75,8.98,13.89,9.12l-1.96-6.03   c0,0,6.45,4.35,11.78,9.54c-0.7-2.24-1.26-4.49-1.68-6.73c-1.4-1.26-2.38-2.1-2.81-2.38l-0.28-0.14c0,0-6.59-5.33-13.47-9.26   l0.56,5.19c0,0-6.45-4.63-14.59-8.42l1.4,5.33c0,0-7.57-3.79-15.15-6.17l1.82,4.91c0,0-0.14,0-0.28-0.14   c-1.54-0.56-8-3.09-15.29-4.63l0,0l0,0l2.1,4.77c0,0-6.73-1.68-16.13-2.67l2.81,4.49c0,0-6.73-0.98-16.27-0.84l3.23,4.07   c0,0-9.68-0.42-16.41,0.42l3.51,3.93c0,0-7.29-0.28-16.27,0.98l3.65,3.79c0,0-0.42,0-1.26,0c-2.38,0.14-8.14,0.56-15.01,1.82l0,0   l0,0l3.93,3.51c0,0-6.03,0-16.27,1.82l3.23,3.09c0,0-7.72,0.14-16.27,1.82l3.65,3.23c0,0-8.42,0.28-16.27,1.82l3.79,3.51h-0.14   l-0.14-0.28c-12.91,0.56-24.41,2.81-27.63,3.93c-16.27,5.33-36.89,9.54-55.83,43.77c-3.51,6.31-9.96,6.73-15.85,1.82   c-0.84-0.7-1.4-1.54-1.4-2.67c0-0.42,0.14-0.84,0.28-1.26c0.14-0.28,0.42-0.7,0.56-0.98l0.14-0.14c0.28-0.28,0.56-0.42,0.84-0.56   l0.28-0.14c0.42-0.14,0.84-0.28,1.26-0.28c1.82,0,3.23,1.54,3.23,3.37c0,0.84-0.28,1.54-0.7,2.1c1.68,0.84,3.23,1.12,4.63,0.84   c0.42-0.14,0.84-0.28,1.26-0.42c1.12-0.56,2.1-1.54,2.95-3.09c1.12-2.1,2.24-4.07,3.51-6.03c-2.52-5.61-8.14-9.54-14.73-9.54   c-8.98,0-15.99,7.29-16.27,16.27c-0.14,4.49,1.68,8.7,4.63,11.78c6.17,6.17,17.81,7.15,21.46,11.78c2.67,3.37-0.28,8.56,8.56,17.81   c0,0-1.26,8.14,10.52,19.64c13.61,21.46-5.19,42.08,10.24,53.58c15.85,11.64,70.56-42.22,98.89-27.49l-0.84-4.49   c1.54-6.73,12.76-13.61,10.52-21.04l4.77-1.96l-1.82-7.72l5.05-2.38l-1.12-3.51l6.17-2.1c0,0-10.24-10.24-44.33,7.86   c-28.48,15.15-41.24,11.78-41.24,11.78c-2.67-1.12-4.49-3.23-6.73-4.63c-0.42-0.84-0.98-1.96-1.12-3.23l5.89,1.12   c0,0-13.75-7.72-6.59-20.34c0,0-1.4,16.41,20.9,22.3c9.82-2.81,15.85-8.28,15.85-8.28l-3.51-0.7c6.03-4.21,6.87-6.73,6.87-6.73   l-3.79-0.42c0.98-0.7,1.68-1.54,2.38-2.38c1.96-2.38,2.95-4.91,2.95-7.43c0.42-9.96-11.22-19.36-11.36-19.36   c9.68,3.37,16.13,10.38,16.27,19.78c0,1.68-0.14,3.51-0.56,5.33c-0.56,2.81-1.68,5.61-3.37,8.7c0,0-0.98,1.68-1.82,3.23   c3.09-1.26,6.17-2.67,9.12-4.07c11.22-30.3-30.58-40.68-24.97-52.18c0,0,4.49,5.05,9.96,9.12c6.03,4.49,14.73,10.66,19.78,18.66   c1.4,2.38,3.51,7.72,13.33,6.31c0,0-1.4-13.47,6.59-20.48c0,0-7.15,18.38,1.96,28.62c3.37-0.56,7.57-0.98,11.78,0   c7.86,1.82,11.92,5.47,9.54,10.1c19.36,13.61,47.13,10.38,56.53,20.2c0,0-25.53,22.86-64.95,25.39c-1.12,0-2.1-0.14-2.81-0.56   c0.42,0.7,0.98,1.26,2.1,2.24c2.81,2.38,4.35,3.23,8.56,4.49c6.31,2.1,11.92,11.5,20.48,12.48c3.51,0.42,6.03-0.42,10.52-6.31   c8.28-10.66,14.17-12.06,14.17-12.06c-4.77,3.93-7.29,8.28-9.96,12.06c-0.42,0.56-0.84,1.26-1.26,1.82   c-5.05,7.43-7.29,10.38-13.47,10.38c-4.91,0-15.15-7.57-18.94-10.52c-2.52-1.82-3.51-2.67-4.77-3.09c-2.1-0.84-4.77-0.84-9.12-0.98   c-0.28,0-0.7,0-0.98,0c-0.98,0-2.1,0-2.67-0.14l-0.42-0.28c-0.7-0.56-1.82-1.54-2.67-2.24c-1.12-1.12-2.52-2.38-4.07-3.65   l-8.56-5.19c-2.81-0.56-6.17-1.12-9.4-0.98l15.15,9.12c0,0,0.14,0.14,0.28,0.28c1.4,1.4,7.15,6.87,9.4,7.15   c2.52,0.42,10.94,0,11.92,0.84c4.49,3.37,16.97,14.03,25.81,14.03c15.71,0,16.13-15.57,30.72-27.63   c12.62-10.38,26.51-8.84,38.29-30.3c-10.94-11.78-9.54-30.72-9.54-30.72c5.47,38.58,34.09,35.21,34.09,35.21v0.28h0.56   c4.77,0,6.03-1.4,6.03-1.4c0.42-0.14,0.84-0.42,1.26-0.56c3.65-1.26,10.8-2.67,17.11-2.52c3.79,1.26,8.14,1.12,11.5,0.7   c2.24-0.28,3.93-0.7,4.49-0.84l9.82-2.52c2.24-0.84,4.77-1.4,7.43-1.96c7.86-1.4,16.69-1.4,23.57,0.98   c4.91,1.68,15.43,7.43,21.18,9.4c1.26,0.42,2.38,0.7,3.09,0.56c1.96,0,3.93-0.98,6.03-3.23c3.93-4.35,5.19-7.86,1.68-12.48   c0,0,0.42,4.63-5.47,4.63c-6.87,0-21.88-9.68-31.14-15.71c-4.63-1.4-10.24,0.56-15.29-1.82c-5.47-2.38-8.84-8.42-13.89-9.68   c-0.7,0-1.4-0.14-1.82-0.14c-5.47,0-11.64-1.54-11.64-7.43c0-5.19,11.64-7.29,24.13-5.89c-0.14-1.4-0.42-2.67-0.7-4.07   c-8.84-0.84-17.39,0-21.88,2.38c-3.65,1.96-4.35,4.63-4.35,6.17c-0.28-0.98-0.28-2.1-0.14-3.23c0.14-1.54,0.98-4.21,5.05-5.89   c4.63-1.96,12.91-1.54,21.46,0.42c-0.84-4.49-2.52-8.7-5.19-12.06c-0.84-1.12-0.98-2.52,0-3.65c0.84-1.12,2.24-1.4,3.51-0.84   c0.42,0.14,8.42,4.21,13.89,18.24c4.07-8.14,10.52-12.06,10.8-12.2l5.75-3.37l-1.26,6.59c-0.98,5.05-1.12,6.31-1.12,7.86   c0,0.28,0,0.42,0,0.7c-0.14,1.4-0.14,3.23-0.56,7.29c-0.14,1.12-0.42,2.52-1.12,3.79c9.96,6.31,25.53,17.81,27.77,20.2   c2.52,2.67,5.19,5.75,9.68,5.75c6.73,0,12.91-8.7,17.25-12.34c2.95-2.52,5.75-4.35,8.42-5.61c-3.65,0.98-8.28,2.52-12.2,4.63   c2.81,1.68-11.22,11.22-13.61,8.56s8-12.06,29.04-14.87c5.19-2.52,8.56-4.21,8.56-9.68c0-1.82-1.54-5.19-7.15-5.19   c-10.66,0-24.97,14.03-24.97,14.03c3.37-10.1,12.06-15.43,12.06-15.43l0,0l0,0c-7.01-2.38-16.13,4.77-20.2,8.56   c-1.4,1.26-2.1,2.1-2.1,2.1c1.54-9.12,9.68-14.87,9.68-14.87c-4.07-3.09-24.69-14.03-27.77-15.57c-6.17-3.23-10.8-6.45-14.73-9.96   c-1.12-0.98-2.24-1.96-3.23-3.09c-11.78-11.92-18.8-26.23-51.2-47.69l0,0l-0.28,2.95c0,0-3.79-3.51-9.4-7.29l-0.56,3.79   c0,0-0.28-0.28-0.7-0.56c-1.26-1.12-4.49-3.65-8.42-5.89l0,0v2.24c7.15,4.91,14.31,10.94,14.17,16.27c0,0-4.21-8.42-27.07-20.76   C337.06,164.2,326.82,154.94,326.82,154.94L326.82,154.94z M340.7,170.79c7.15,5.19,22.72,16.69,27.35,29.04   c0,0-2.95-2.52-7.15-3.37l0.84,3.79c0,0-3.09-2.52-6.45-3.23l-0.42,3.37c0,0-3.09-1.68-5.75-6.03c-2.67-4.21-0.42-8-0.42-8   c-3.93-3.65-2.67-7.57-2.67-7.57C342.25,174.86,340.7,170.79,340.7,170.79L340.7,170.79z M391.76,195.06   c12.06,5.33,18.94,14.31,25.53,23c-8.7-0.42-18.24-8.56-21.04-12.34c2.95,0.7,5.61,1.68,8,2.81   C399.62,204.46,395.27,199.69,391.76,195.06L391.76,195.06z M272.25,202.78c0,0,12.34,0.84,25.67,9.12c0,0-0.28-4.49-0.98-7.57   c7.86,5.61,11.36,11.78,11.36,11.78s0.14-2.1,0.28-5.19c5.89,6.45,9.82,15.99,11.22,19.78c0,0-3.23,3.09-5.33,10.24l0,0l0,0   c-0.98,3.51-1.82,7.86-1.82,13.33c0,0-5.05-9.4-0.42-21.32c-0.56-1.96-1.4-4.21-2.1-6.31c-0.98,2.81-1.96,4.77-1.96,4.77   s-3.09-6.73-7.29-13.47c0,3.09-0.84,5.19-0.84,5.19s-7.43-8.7-21.46-13.33l0.84,2.81c0,0-11.08-4.07-28.05-1.54   c0,0,11.78-4.63,23.99-3.79L272.25,202.78L272.25,202.78z M136.89,204.32c0,0-18.94,6.73-25.67,17.81l-0.56-2.95   c0,0-4.91,5.89-7.29,12.48l-1.68-2.95l0,0l0,0c0,0-2.38,4.35-2.38,11.08l-2.95-2.95c0,0-1.12,9.26,0.84,15.71l-4.63-6.45   c0,0-1.12,6.17,1.68,11.64c0,0-4.21,6.17,0.84,12.48c-0.14,2.67-0.14,5.05,2.81,9.82l3.79,4.35l-0.56,3.79   c0,0.7,0.56,3.65,4.07,8.28c9.12,8.98,11.22,16.27,11.22,16.27l-4.91-2.38c5.05,8.14,4.63,16.41,4.63,16.41l-3.23-3.65   c2.67,7.01,0.7,15.29,0.7,15.29l-1.68-2.67c0,0-0.42,3.09-0.42,6.45s1.12,7.01,3.09,7.01c7.29,0,31.42-12.76,31.42-12.76   l-1.96-0.42c6.31-5.05,13.47-5.33,13.47-5.33l-2.67-0.7c6.03-3.65,11.78-4.35,14.31-4.49c0.84,0,1.26,0,1.26,0l-4.77-1.96   c7.43-3.65,15.99-2.52,15.99-2.52l-4.49-2.52c9.26-2.81,16.27-0.56,16.27-0.56l-3.79-3.51c10.94,1.82,13.47,8.28,13.47,8.28   c-24.41-7.15-69.01,30.72-88.93,30.72c-2.95,0-3.65-1.26-5.05-3.37c-4.21-5.89-0.56-16.27-0.56-26.51s-1.68-17.67-6.73-23.85   c-2.38-2.38-4.21-4.49-5.47-6.31c-3.93-5.75-3.93-9.4-3.93-9.82l0.28-1.82l-1.4-1.4c-4.91-5.05-5.05-8.28-5.61-11.22   c-0.28-1.96-1.12-4.35-2.67-6.45c-2.52-3.09-6.59-4.77-11.08-6.45c-4.07-1.54-8.14-3.23-10.8-5.75c-2.24-2.38-3.51-5.47-3.37-8.84   c0-2.52,0.84-4.77,2.1-6.73c-0.56,1.26-0.98,2.81-0.98,4.35c0,2.81,1.26,5.33,3.51,7.15c5.19,4.21,10.8,5.89,15.99,4.91   c4.63-0.98,7.01-3.23,9.12-7.01C104.06,214.84,121.6,209.23,136.89,204.32L136.89,204.32z M390.92,217.93   c0.7,0.7,1.26,1.54,1.96,2.24c-3.09-0.7-5.89-1.12-7.43-1.26C387.42,218.21,389.24,217.93,390.92,217.93L390.92,217.93z    M384.89,220.73l2.24,0.42c0,2.1,0.28,6.87,2.52,10.24C386.43,229.15,384.89,224.1,384.89,220.73L384.89,220.73z M69.98,229.99   c4.35,0,8.28,2.24,10.38,6.03c-0.42,0.84-0.98,1.68-1.4,2.52c-0.7-1.82-1.82-3.51-3.23-4.77c-2.95-2.67-6.73-3.51-10.38-2.67   C66.75,230.41,68.29,229.99,69.98,229.99L69.98,229.99z M32.8,241.63c-5.33,0-8.42,2.24-9.68,3.37c-0.42,0.42-0.56,0.56-0.56,0.56   s8.14,1.12,12.62,4.21c0,0-5.47,1.12-8.56,0.14c-3.09-0.98-10.94-4.21-16.97,2.95c0,0,0.98,0,2.67,0.28   c2.67,0.42,6.59,1.4,9.82,3.79c3.09,2.38,7.15,4.07,11.92,4.21c0.98,0,1.96,0,2.95-0.14c1.96-0.28,4.07-0.7,6.17-1.54   c0,0-11.5-0.14-18.52-5.19c-4.35-3.09-8.42-2.38-8.42-2.38s5.19-2.24,10.94,1.54c5.47,3.51,16.83,5.61,26.23,2.1   c-0.56-0.7-0.98-1.26-1.4-1.96c-1.26-2.1-2.1-4.35-2.67-6.59C46.13,244.86,40.1,241.63,32.8,241.63L32.8,241.63z M43.74,251.03   c1.54-0.14,2.67,0,3.09,0.42c0.42,1.12,0.84,1.96,1.26,2.81c-2.24,0.56-4.63,0.7-6.87,0.7c-1.54,0-2.95-0.14-4.49-0.42   c-2.1-0.28-4.21-0.84-5.89-1.54C31.68,252.99,39.4,251.17,43.74,251.03L43.74,251.03z M327.24,251.17c0,0,0,0.14-0.14,0.56   c-0.14,0.84-0.42,2.81-0.42,4.91c0,3.93,0.98,8.98,5.19,11.08c0,0,0,0.14,0,0.28c0,1.4,0.14,7.29,6.17,9.4c0,0,0.28,5.61,7.15,7.86   c0,0,2.95,5.89,10.8,5.33c0,0,4.49,5.75,15.85,4.77c0,0-2.24-3.09-2.52-5.47c0,0,4.91,5.61,18.52,5.89   c6.73-0.42,15.43-4.21,26.65-4.77c17.25-0.7,24.83,7.15,24.83,7.15c-1.54-0.56-3.23-1.26-5.05-1.82   c-9.82-3.37-23.57-2.95-34.79,0.98l-9.4,2.38c0,0-8.56,2.24-13.47,0c0,0-10.66-0.56-23.29,4.49c0,0-1.26,0.14-3.09,0.14   c-5.75,0-17.67-1.26-22.16-11.64c0,0,8.14,4.07,12.06,0.98c0,0-12.91-6.87-12.48-18.94C325.56,271.09,319.38,262.53,327.24,251.17   L327.24,251.17z M220.49,287.08c-0.14,0.7-0.14,1.54,0,2.24l-1.68,0.84c-1.82,0.84-2.81,2.95-2.38,4.91l0.98,4.07l-1.4,0.56   c-2.1,0.84-3.23,3.09-2.52,5.33c-1.4-1.12-1.96-2.38-1.82-3.51c0-1.82,1.4-3.23,1.4-3.23l0,0c-0.7-1.26-0.98-2.38-1.12-3.37   c0-0.14,0-0.42,0-0.56c0-0.98,0.28-1.68,0.28-1.68l0,0c0,0-7.43,1.82-21.74,8.98c-32.26,15.99-45.87,8.14-45.87,8.14   c12.48,2.67,28.2-4.63,43.34-11.78c2.95-1.4,5.89-2.81,8.84-4.07C205.48,290.17,213.9,287.08,220.49,287.08L220.49,287.08z    M333.13,311.35c-3.79,13.33-13.61,18.38-17.39,20.06l-0.7,0.28c-4.91,2.38-8.84,4.21-11.78,10.8c-2.38,5.47-6.87,8.14-12.34,7.72   c0,0-7.15-0.7-10.66-1.12c-0.7,0.84-1.26,1.68-1.96,2.52l-1.26,1.96l12.76,1.26c7.29,0.7,13.61-3.09,16.83-10.24   c2.38-5.19,5.05-6.45,9.68-8.7c3.51-1.68,16.13-6.59,18.94-21.6c0,0,0.42-0.7,1.12-1.82C335.23,312.33,334.25,311.77,333.13,311.35   L333.13,311.35z"/>
	<path id="XMLID_19_" d="M398.08,217.79c-14.03-17.39-27.63-13.75-27.63-13.75c7.72,0.98,13.19,5.61,17.96,10.8   c-1.12-0.14-2.1-0.14-2.95-0.14c-2.81-1.68-7.01-3.93-11.22-4.91c0,0,4.91,2.95,8,7.01c0,3.51,0.56,17.53,10.66,19.78   c0.7,0.14,1.54,0.28,2.38,0.28c0.84,0,1.68,0,2.67-0.14c0.42,0,0.7,0,1.12,0c-2.38-0.98-3.09-1.96-3.09-1.96   c4.77,0.98,8.84-1.54,10.66-2.95c4.07,1.82,8.7,2.52,14.73,1.12C421.36,233.22,411.26,234.34,398.08,217.79"/>
	<path id="XMLID_28_" class="st1" d="M392.19,221.99c-0.84,0-1.82,0.14-2.95,0.42c0,0,0.56,16.27,14.59,8.56c0,0,0-0.14-0.14-0.56   c-0.56-0.42-1.12-0.84-1.68-1.26c-0.7,1.54-2.24,2.67-4.07,2.67c-2.52,0-4.49-1.96-4.49-4.49c0-1.68,0.98-3.23,2.52-3.93   c-0.42-0.42-0.7-0.84-1.12-1.26C393.87,221.99,393.03,221.99,392.19,221.99L392.19,221.99z M397.24,224.94   c-1.12,0.28-1.96,1.26-1.96,2.52c0,1.26,0.84,2.24,1.96,2.52c-0.42-0.42-0.7-0.98-0.7-1.68c0-0.98,0.7-1.96,1.54-2.38   C397.8,225.5,397.52,225.22,397.24,224.94z M404.39,242.19c6.73,8,7.57,21.6,6.73,31.84c-0.14,2.52,0.7,6.31,4.35,6.03   c4.91-0.42,5.33-4.35,4.77-8C416.45,247.94,404.39,242.19,404.39,242.19L404.39,242.19z M432.02,248.23c0,0-6.87,4.07-10.38,12.62   c-1.4,3.37-1.54,7.29,3.23,8.7c3.51,0.98,5.05-2.67,5.33-5.05C431.18,254.12,430.2,257.9,432.02,248.23L432.02,248.23z    M398.08,261.83c-1.26,1.82-4.49,4.63-5.33,5.75c-0.42,0.56,0.28,2.95,3.23,3.51c0.7,0.14,1.26,0.14,1.68,0   c0.7-0.14,1.12-0.56,1.4-0.84c0.28-0.42,0.56-0.84,0.56-1.12c0.28-1.12,0.28-1.96,0.28-2.81c0-1.54-0.42-2.67-0.98-3.51   C398.92,262.39,398.5,262.11,398.08,261.83L398.08,261.83z M405.09,263.52c-1.26,1.82-4.49,4.63-5.33,5.75   c-0.42,0.56,0.28,2.95,3.23,3.51c2.81,0.42,3.51-1.12,3.79-1.96C407.62,266.6,406.63,264.5,405.09,263.52z M433.57,274.32   c-1.82,1.54-5.47,3.65-6.73,4.49c-0.28,0.14-0.42,0.7-0.28,1.4c0.14,0.98,0.7,2.1,2.24,2.81c1.54,0.7,2.52,0.42,3.23-0.14   c-0.14,0.98,0.14,2.52,1.68,3.51c1.68,1.12,3.09,0.56,3.79,0c-0.14,0.98,0.14,2.38,1.68,3.37c2.24,1.4,3.65,0.14,4.21-0.56   c2.67-3.65,2.81-5.89,1.96-7.43c-1.82,1.12-5.19,2.38-6.87,3.23c1.12-1.54,1.68-2.95,1.82-4.07c0.14-1.12,0-1.96-0.42-2.67   c-0.84,0.56-2.1,1.12-3.37,1.68c-1.4,0.56-2.81,1.12-3.65,1.54C434.97,277.82,434.69,275.58,433.57,274.32L433.57,274.32z    M232.41,292.41l0.56,3.09l-4.77,2.38c9.54,5.05,21.46,5.89,39.7,6.87C256.96,302.51,245.46,300.69,232.41,292.41L232.41,292.41z"/>
</g>
</svg>