<svg width="22" height="22" viewBox="0 0 22 22" fill="none" xmlns="http://www.w3.org/2000/svg">
<rect x="21.3359" y="20.782" width="20" height="20" rx="5" transform="rotate(-180 21.3359 20.782)" fill="white"/>
<rect x="21.3359" y="20.782" width="20" height="20" rx="5" transform="rotate(-180 21.3359 20.782)" stroke="#282828" stroke-width="0.75"/>
<path fill-rule="evenodd" clip-rule="evenodd" d="M8.67076 11.277C8.39739 11.0036 8.39739 10.5604 8.67076 10.287C8.67122 10.2865 8.67168 10.2861 8.67215 10.2856L11.6406 7.31714C11.914 7.04378 12.3572 7.04378 12.6306 7.31714C12.9039 7.59051 12.9039 8.03372 12.6306 8.30709L10.1557 10.782L12.6306 13.2569C12.9039 13.5302 12.9039 13.9734 12.6306 14.2468C12.3572 14.5202 11.914 14.5202 11.6406 14.2468L8.67076 11.277Z" fill="#282828"/>
</svg>
