<svg xmlns="http://www.w3.org/2000/svg" xmlns:xlink="http://www.w3.org/1999/xlink" width="27" height="23" viewBox="0 0 27 23">
    <defs>
        <path id="a" d="M.003.042H26.88V23H.003z"/>
    </defs>
    <g fill="none" fill-rule="evenodd">
        <g>
            <mask id="b" fill="#fff">
                <use xlink:href="#a"/>
            </mask>
            <path fill="#FFF" stroke="#FFF" stroke-width=".3" d="M25.983 18.498h-.896V2.743a.9.9 0 0 0-.896-.9H4.48v-.9h21.503v17.555zM24.19 20.3h-.896V4.544c0-.497-.402-.9-.896-.9H2.688v-.9H24.19v17.555zM.896 22.1V16l7.616-6.802 7.766 6.936a.446.446 0 0 0 .635-.04l2.798-3.213 2.689 3.088V22.1H.896zM22.399 4.545V14.6l-2.35-2.7a.46.46 0 0 0-.675 0l-2.839 3.26L8.81 8.259a.445.445 0 0 0-.595 0L.896 14.795V4.544h21.503zM25.983.042H4.48a.899.899 0 0 0-.896.9v.9h-.896a.9.9 0 0 0-.896.901v.9H.896a.899.899 0 0 0-.896.9V22.1c0 .496.402.9.896.9h21.503a.899.899 0 0 0 .896-.9v-.9h.896a.9.9 0 0 0 .896-.9v-.901h.896a.899.899 0 0 0 .896-.9V.942c0-.497-.402-.9-.896-.9z" mask="url(#b)"/>
        </g>
        <path fill="#FFF" stroke="#FFF" stroke-width=".3" d="M16 8a1.001 1.001 0 0 1 0 2 1.001 1.001 0 0 1 0-2zm0 3c1.103 0 2-.897 2-2s-.897-2-2-2-2 .897-2 2 .897 2 2 2z"/>
    </g>
</svg>
