<svg xmlns="http://www.w3.org/2000/svg" width="27" height="22" viewBox="0 0 27 22">
    <path fill="#FFF" fill-rule="evenodd" d="M26.537 0A.47.47 0 0 1 27 .479V21.52a.471.471 0 0 1-.463.479H.467A.473.473 0 0 1 0 21.521V.48C0 .215.209 0 .466 0h26.07zM.932 21.042h3.723V16.74H.932v4.303zm0-5.261h3.723v-4.304H.932v4.304zm0-5.258h3.723V6.216H.932v4.307zm0-5.262h3.723V.958H.932V5.26zm21.413 15.781h3.726V16.74h-3.726v4.303zm0-5.261h3.726v-4.304h-3.726v4.304zm0-5.258h3.726V6.216h-3.726v4.307zm0-5.262h3.726V.958h-3.726V5.26zm-5.335 6.142a.48.48 0 0 0 0-.806l-5.121-3.349a.458.458 0 0 0-.476-.016.483.483 0 0 0-.24.42v6.695c0 .176.092.337.24.42a.463.463 0 0 0 .475-.016l5.122-3.348z"/>
</svg>
